<?xml version="1.0" standalone="no"?>
<!DOCTYPE svg PUBLIC "-//W3C//DTD SVG 20010904//EN"
 "http://www.w3.org/TR/2001/REC-SVG-20010904/DTD/svg10.dtd">
<svg version="1.0" xmlns="http://www.w3.org/2000/svg"
 width="600.000000pt" height="600.000000pt" viewBox="0 0 600.000000 600.000000"
 preserveAspectRatio="xMidYMid meet">
<metadata>
Created by potrace 1.14, written by Peter Selinger 2001-2017
</metadata>
<g transform="translate(0.000000,600.000000) scale(0.100000,-0.100000)"
fill="#000000" stroke="none">
<path d="M2694 5815 c-55 -7 -118 -16 -140 -19 -21 -4 -55 -9 -74 -12 -109
-17 -335 -82 -486 -140 -785 -301 -1400 -940 -1668 -1734 -62 -184 -104 -362
-121 -510 -3 -25 -7 -61 -10 -80 -22 -182 -23 -492 0 -640 2 -14 6 -45 10 -70
11 -74 14 -92 25 -150 6 -30 13 -66 16 -80 3 -14 7 -33 10 -42 3 -10 7 -28 10
-41 9 -53 89 -287 131 -386 147 -345 335 -625 609 -905 38 -39 192 -178 216
-194 13 -9 29 -22 36 -29 28 -28 211 -153 307 -210 311 -187 703 -323 1055
-368 25 -3 61 -8 80 -11 58 -10 501 -13 565 -4 33 4 80 10 105 13 354 41 772
186 1090 381 304 185 502 361 783 696 98 116 291 451 375 649 50 118 131 380
148 481 3 14 7 32 9 40 3 8 7 33 10 55 3 22 7 49 10 60 2 11 6 40 10 65 3 25
8 63 11 85 9 66 12 445 4 525 -17 156 -21 196 -25 215 -3 11 -7 31 -9 45 -68
384 -219 756 -440 1085 -191 284 -461 555 -756 758 -98 67 -116 78 -260 156
-179 98 -504 224 -635 247 -17 2 -43 9 -60 14 -47 14 -151 33 -250 45 -33 4
-73 9 -90 12 -69 12 -504 10 -601 -2z m591 -559 c504 -64 972 -296 1331 -661
280 -284 459 -596 584 -1020 15 -50 49 -238 57 -316 16 -147 8 -495 -13 -602
-2 -12 -7 -38 -10 -57 -13 -77 -64 -270 -94 -355 -17 -49 -62 -153 -100 -230
-163 -336 -396 -613 -715 -853 -72 -54 -251 -159 -350 -206 -218 -103 -489
-181 -700 -201 -38 -4 -83 -9 -100 -11 -43 -6 -313 -6 -355 0 -19 3 -57 7 -85
10 -140 15 -363 66 -470 106 -11 5 -47 18 -80 31 -58 21 -280 127 -320 152
-356 222 -606 467 -801 787 -147 242 -265 563 -300 820 -3 25 -8 47 -9 50 -14
24 -24 377 -13 475 3 33 9 87 13 120 37 346 198 745 421 1050 287 392 700 685
1166 829 48 15 95 29 105 31 10 2 50 10 88 18 79 17 114 23 200 32 33 4 62 9
64 11 6 6 429 -3 486 -10z"/>
<path d="M2180 4418 l0 -248 208 1 c325 0 300 2 307 -23 4 -13 36 -106 71
-206 l65 -184 -23 -36 c-12 -21 -40 -66 -62 -102 -23 -36 -46 -74 -53 -85 -6
-11 -58 -94 -114 -185 -56 -91 -165 -266 -242 -390 -77 -124 -147 -237 -156
-252 -22 -38 -297 -482 -336 -543 -82 -128 -305 -493 -305 -498 0 -4 129 -7
288 -7 l287 0 75 118 c41 64 97 153 126 197 28 44 79 125 114 180 35 55 82
129 105 165 23 36 146 231 275 433 128 202 234 366 235 365 4 -4 81 -197 195
-488 51 -129 98 -248 105 -265 7 -16 21 -50 30 -75 9 -25 21 -54 26 -65 4 -11
67 -171 140 -355 72 -184 135 -339 139 -343 4 -5 88 15 186 43 98 29 217 63
264 77 47 13 92 26 100 28 105 27 377 109 383 115 5 4 -12 77 -38 161 -47 158
-83 280 -92 312 -3 13 -10 16 -21 12 -10 -4 -93 -31 -187 -61 -93 -30 -180
-59 -193 -64 -34 -14 -42 -12 -51 13 -67 167 -358 908 -455 1157 -70 179 -131
334 -136 345 -10 22 -178 447 -235 597 -20 51 -40 102 -45 113 -5 11 -30 74
-55 140 -25 66 -50 127 -54 135 -7 13 -67 15 -440 16 l-431 0 0 -248z"/>
</g>
</svg>
