<svg version="1.1" xmlns="http://www.w3.org/2000/svg" xmlns:xlink="http://www.w3.org/1999/xlink" width="701.2012" height="460.96096" viewBox="0,0,701.2012,460.96096"><g transform="translate(86.57658,49.72973)"><g data-paper-data="{&quot;isPaintingLayer&quot;:true}" fill-rule="nonzero" stroke-linejoin="miter" stroke-miterlimit="10" stroke-dasharray="" stroke-dashoffset="0" style="mix-blend-mode: normal"><path d="M-86.57658,411.23123v-460.96096h680.18018v460.96096z" fill="#e2e2e2" stroke="none" stroke-width="NaN" stroke-linecap="butt"/><path d="M613.12312,241.56156v-3.003h1.5015v3.003z" fill="#e2e2e2" stroke="none" stroke-width="0" stroke-linecap="butt"/><text transform="translate(6.51652,47.49249) scale(0.82585,1.18324)" font-size="40" xml:space="preserve" fill="#3b3b3b" fill-rule="nonzero" stroke="none" stroke-width="1" stroke-linecap="butt" stroke-linejoin="miter" stroke-miterlimit="10" stroke-dasharray="" stroke-dashoffset="0" font-family="Serif" font-weight="normal" text-anchor="start" style="mix-blend-mode: normal"><tspan x="0" dy="0">RHOMBA THE GREENSQUARE</tspan></text><text transform="translate(19.5,82) scale(0.49464,0.5)" font-size="40" xml:space="preserve" fill="#3b3b3b" fill-rule="nonzero" stroke="none" stroke-width="1" stroke-linecap="butt" stroke-linejoin="miter" stroke-miterlimit="10" stroke-dasharray="" stroke-dashoffset="0" font-family="Serif" font-weight="normal" text-anchor="start" style="mix-blend-mode: normal"><tspan x="0" dy="0">Rhomba Paralello is a professional</tspan><tspan x="0" dy="46.150000000000006px">pilot, and Blueball's biggest fan! She</tspan><tspan x="0" dy="46.150000000000006px">even has business cards! She saved </tspan><tspan x="0" dy="46.150000000000006px">Blueball by bringing him to the island</tspan><tspan x="0" dy="46.150000000000006px">of Sequel Island! How nice!</tspan><tspan x="0" dy="46.150000000000006px"> </tspan><tspan x="0" dy="46.150000000000006px">Age: 19</tspan><tspan x="0" dy="46.150000000000006px">Likes: Blueball, Planes, Burritos, Toothpaste</tspan><tspan x="0" dy="46.150000000000006px">Dislikes: Grapes, Turkey, Vending Machines, Fish</tspan></text><path d="M336.71308,163.56507v-72.94237c0,0 0.58685,-12.43803 3.80918,-15.44455c3.27661,-3.05717 15.69034,-2.74899 15.69034,-2.74899l73.66448,-0.58368c0,0 8.48638,0.04136 10.72962,3.0511c2.01087,2.69793 2.10911,14.17434 2.10911,14.17434l1.21455,69.24838c0,0 0.2409,9.64585 -1.66139,13.05227c-2.24398,4.01826 -10.94748,5.91536 -10.94748,5.91536l-81.08403,-0.53519c0,0 -8.6768,-1.31022 -11.11879,-3.69126c-1.95863,-1.90973 -2.40558,-9.49539 -2.40558,-9.49539z" data-paper-data="{&quot;index&quot;:null}" fill="#b7b7b7" stroke="#7e7e7e" stroke-width="4" stroke-linecap="butt"/><path d="M352.96261,141.17682v-45.49872l8.66641,0.17918v45.31954z" data-paper-data="{&quot;index&quot;:null}" fill="#3b3b3b" stroke="none" stroke-width="4" stroke-linecap="butt"/><path d="M368.12886,141.17685v-45.31951l8.66644,-0.17921v45.49872z" data-paper-data="{&quot;index&quot;:null}" fill="#3b3b3b" stroke="none" stroke-width="4" stroke-linecap="butt"/><path d="M374.62337,110.05404v-4.78892h8.47269v4.78892z" data-paper-data="{&quot;index&quot;:null}" fill="#3b3b3b" stroke="none" stroke-width="4" stroke-linecap="butt"/><path d="M346.99504,110.42244v-4.42053h7.36756v4.42053z" data-paper-data="{&quot;index&quot;:null}" fill="#3b3b3b" stroke="none" stroke-width="4" stroke-linecap="butt"/><path d="M423.98596,144.68154c0,0 -16.12825,11.7976 -27.73625,13.71233c-12.18567,2.00999 -43.72897,-1.92424 -43.72897,-1.92424" data-paper-data="{&quot;index&quot;:null}" fill="none" stroke="#3b3b3b" stroke-width="4" stroke-linecap="round"/></g></g></svg>