<svg version="1.1" xmlns="http://www.w3.org/2000/svg" xmlns:xlink="http://www.w3.org/1999/xlink" width="54.69332" height="38.89605" viewBox="0,0,54.69332,38.89605"><g transform="translate(-212.87553,-164.20455)"><g data-paper-data="{&quot;isPaintingLayer&quot;:true}" fill-rule="nonzero" stroke-linecap="butt" stroke-linejoin="miter" stroke-miterlimit="10" stroke-dasharray="" stroke-dashoffset="0" style="mix-blend-mode: normal"><path d="M263.02257,194.85159c0,0 -0.19618,2.45195 -1.05588,3.06924c-1.07187,0.76963 -4.88037,1.19314 -4.88037,1.19314l-35.5902,0.17299c0,0 -3.82024,-0.61321 -4.80518,-1.91206c-0.83497,-1.10108 -0.72923,-4.21895 -0.72923,-4.21895l0.5331,-22.38352c0,0 0.04312,-3.70958 0.92575,-4.58165c0.98463,-0.97285 4.70955,-0.98622 4.70955,-0.98622l32.33354,0.18866c0,0 5.44875,-0.09962 6.88695,0.88857c1.41437,0.97182 1.67195,4.99222 1.67195,4.99222v23.57754z" data-paper-data="{&quot;index&quot;:null}" fill="#ff0062" stroke="#b60046" stroke-width="2"/><path d="M253.39188,187.61488v-11.67205l3.81517,-3.03473v14.70678z" data-paper-data="{&quot;index&quot;:null}" fill="#000000" stroke="none" stroke-width="0"/><path d="M246.71531,187.61489v-14.70678l3.81518,3.03473v11.67205z" data-paper-data="{&quot;index&quot;:null}" fill="#000000" stroke="none" stroke-width="0"/><path d="M213.87553,202.1006v-17.21704l9.55618,0.17243l0.01927,9.54031l12.75112,-0.3504l0.55149,-8.21973l10.16943,-0.06712l1.52031,9.0702l11.05898,-0.43346l0.27465,-8.62956l6.59077,-0.13552l0.18943,16.26988z" fill="#7896c5" stroke="#58798b" stroke-width="2"/></g></g></svg>