<svg version="1.1" xmlns="http://www.w3.org/2000/svg" xmlns:xlink="http://www.w3.org/1999/xlink" width="16.83334" height="26.83334" viewBox="0,0,16.83334,26.83334"><defs><linearGradient x1="240" y1="166.58333" x2="240" y2="193.41667" gradientUnits="userSpaceOnUse" id="color-1"><stop offset="0" stop-color="#5e96ff"/><stop offset="1" stop-color="#0059ff"/></linearGradient></defs><g transform="translate(-231.58333,-166.58333)"><g data-paper-data="{&quot;isPaintingLayer&quot;:true}" fill="url(#color-1)" fill-rule="nonzero" stroke="none" stroke-width="0" stroke-linecap="butt" stroke-linejoin="miter" stroke-miterlimit="10" stroke-dasharray="" stroke-dashoffset="0" style="mix-blend-mode: normal"><path d="M231.58333,180c0,-7.40982 3.76827,-13.41667 8.41667,-13.41667c4.6484,0 8.41667,6.00685 8.41667,13.41667c0,7.40982 -3.76827,13.41667 -8.41667,13.41667c-4.6484,0 -8.41667,-6.00685 -8.41667,-13.41667zM240.06572,190.30374c3.46465,0 5.43996,-4.47715 5.43996,-10c0,-5.52285 -1.97531,-10 -5.43996,-10c-3.46465,0 -5.43996,4.47715 -5.43996,10c0,5.52285 1.97531,10 5.43996,10z" data-paper-data="{&quot;index&quot;:null}"/></g></g></svg>