<svg version="1.1" xmlns="http://www.w3.org/2000/svg" xmlns:xlink="http://www.w3.org/1999/xlink" width="430.61055" height="156.6375" viewBox="0,0,430.61055,156.6375"><g transform="translate(5.80528,-209.18125)"><g data-paper-data="{&quot;isPaintingLayer&quot;:true}" fill-rule="nonzero" stroke="none" stroke-width="0" stroke-linecap="butt" stroke-linejoin="miter" stroke-miterlimit="10" stroke-dasharray="" stroke-dashoffset="0" style="mix-blend-mode: normal"><g><path d="M-5.09605,267.78349v-53.54671h7.09228v53.54671z" fill="#8aa2c6"/><path d="M40.64914,267.42888v-54.61055h7.09228v54.61055z" fill="#8aa2c6"/><path d="M40.32775,264.49828l-43.37974,-43.37974l5.015,-5.015l43.37974,43.37974z" fill="#8aa2c6"/><path d="M45.34274,221.11853l-43.37974,43.37974l-5.01499,-5.015l43.37974,-43.37974z" fill="#8aa2c6"/><path d="M48.80528,216.36447h-54.61055v-7.09228h54.61055z" fill="#c65757"/><path d="M-4.38682,259.98198h52.12825v7.80151h-52.12825z" fill="#8aa2c6"/></g><g fill="#8aa2c6"><path d="M-5.2459,316.65131v-53.54671h7.09228v53.54671z"/><path d="M40.49931,316.2967v-54.61056h7.09228v54.61056z"/><path d="M40.17791,313.3661l-43.37974,-43.37974l5.015,-5.015l43.37974,43.37974z"/><path d="M45.19291,269.98636l-43.37975,43.37974l-5.01499,-5.015l43.37974,-43.37974z"/><path d="M-4.53666,308.8498h52.12825v7.80151h-52.12825z"/><path d="M-5.2459,260.26769h52.83748v7.80151h-52.83748z"/></g><g><path d="M42.27258,267.69255v-53.54671h7.09228v53.54671z" fill="#8aa2c6"/><path d="M88.01778,267.33794v-54.61055h7.09228v54.61055z" fill="#8aa2c6"/><path d="M87.69638,264.40734l-43.37974,-43.37974l5.015,-5.015l43.37974,43.37974z" fill="#8aa2c6"/><path d="M92.71138,221.0276l-43.37974,43.37974l-5.01499,-5.015l43.37974,-43.37974z" fill="#8aa2c6"/><path d="M96.17391,216.27353h-54.61055v-7.09228h54.61055z" fill="#c65757"/><path d="M42.98181,259.89104h52.12825v7.80151h-52.12825z" fill="#8aa2c6"/></g><g fill="#8aa2c6"><path d="M42.63948,316.81875v-53.54671h7.09228v53.54671z"/><path d="M88.38468,316.46414v-54.61056h7.09228v54.61056z"/><path d="M88.06328,313.53354l-43.37974,-43.37974l5.015,-5.015l43.37974,43.37974z"/><path d="M93.07828,270.1538l-43.37975,43.37974l-5.01499,-5.015l43.37974,-43.37974z"/><path d="M43.34871,309.01724h52.12825v7.80151h-52.12825z"/><path d="M42.63948,260.43513h52.83748v7.80151h-52.83748z"/></g><g><path d="M89.90395,267.78349v-53.54671h7.09228v53.54671z" fill="#8aa2c6"/><path d="M135.64915,267.42888v-54.61055h7.09228v54.61055z" fill="#8aa2c6"/><path d="M135.32775,264.49828l-43.37974,-43.37974l5.015,-5.015l43.37974,43.37974z" fill="#8aa2c6"/><path d="M140.34274,221.11853l-43.37974,43.37974l-5.01499,-5.015l43.37974,-43.37974z" fill="#8aa2c6"/><path d="M143.80528,216.36447h-54.61055v-7.09228h54.61055z" fill="#c65757"/><path d="M90.61318,259.98198h52.12825v7.80151h-52.12825z" fill="#8aa2c6"/></g><g fill="#8aa2c6"><path d="M89.7541,316.65131v-53.54671h7.09228v53.54671z"/><path d="M135.49931,316.2967v-54.61056h7.09228v54.61056z"/><path d="M135.17791,313.3661l-43.37974,-43.37974l5.015,-5.015l43.37974,43.37974z"/><path d="M140.19291,269.98636l-43.37975,43.37974l-5.01499,-5.015l43.37974,-43.37974z"/><path d="M90.46334,308.8498h52.12825v7.80151h-52.12825z"/><path d="M89.7541,260.26769h52.83748v7.80151h-52.83748z"/></g><g fill="#8aa2c6"><path d="M-5.2459,365.65131v-53.54671h7.09228v53.54671z"/><path d="M40.49931,365.2967v-54.61056h7.09228v54.61056z"/><path d="M40.17791,362.3661l-43.37974,-43.37974l5.015,-5.015l43.37974,43.37974z"/><path d="M45.19291,318.98636l-43.37975,43.37974l-5.01499,-5.015l43.37974,-43.37974z"/><path d="M-4.53666,357.8498h52.12825v7.80151h-52.12825z"/><path d="M-5.2459,309.26769h52.83748v7.80151h-52.83748z"/></g><g fill="#8aa2c6"><path d="M42.63948,365.81875v-53.54671h7.09228v53.54671z"/><path d="M88.38468,365.46414v-54.61056h7.09228v54.61056z"/><path d="M88.06328,362.53354l-43.37974,-43.37974l5.015,-5.015l43.37974,43.37974z"/><path d="M93.07828,319.1538l-43.37975,43.37974l-5.01499,-5.015l43.37974,-43.37974z"/><path d="M43.34871,358.01724h52.12825v7.80151h-52.12825z"/><path d="M42.63948,309.43513h52.83748v7.80151h-52.83748z"/></g><g fill="#8aa2c6"><path d="M89.7541,365.65131v-53.54671h7.09228v53.54671z"/><path d="M135.49931,365.2967v-54.61056h7.09228v54.61056z"/><path d="M135.17791,362.3661l-43.37974,-43.37974l5.015,-5.015l43.37974,43.37974z"/><path d="M140.19291,318.98636l-43.37975,43.37974l-5.01499,-5.015l43.37974,-43.37974z"/><path d="M90.46334,357.8498h52.12825v7.80151h-52.12825z"/><path d="M89.7541,309.26769h52.83748v7.80151h-52.83748z"/></g><g><path d="M136.90395,267.78349v-53.54671h7.09228v53.54671z" fill="#8aa2c6"/><path d="M182.64915,267.42888v-54.61055h7.09228v54.61055z" fill="#8aa2c6"/><path d="M182.32775,264.49828l-43.37974,-43.37974l5.015,-5.015l43.37974,43.37974z" fill="#8aa2c6"/><path d="M187.34274,221.11853l-43.37974,43.37974l-5.01499,-5.015l43.37974,-43.37974z" fill="#8aa2c6"/><path d="M190.80528,216.36447h-54.61055v-7.09228h54.61055z" fill="#c65757"/><path d="M137.61318,259.98198h52.12825v7.80151h-52.12825z" fill="#8aa2c6"/></g><g fill="#8aa2c6"><path d="M136.7541,316.65131v-53.54671h7.09228v53.54671z"/><path d="M182.49931,316.2967v-54.61056h7.09228v54.61056z"/><path d="M182.17791,313.3661l-43.37974,-43.37974l5.015,-5.015l43.37974,43.37974z"/><path d="M187.19291,269.98636l-43.37975,43.37974l-5.01499,-5.015l43.37974,-43.37974z"/><path d="M137.46334,308.8498h52.12825v7.80151h-52.12825z"/><path d="M136.7541,260.26769h52.83748v7.80151h-52.83748z"/></g><g><path d="M184.27258,267.69255v-53.54671h7.09228v53.54671z" fill="#8aa2c6"/><path d="M230.01778,267.33794v-54.61055h7.09228v54.61055z" fill="#8aa2c6"/><path d="M229.69638,264.40734l-43.37974,-43.37974l5.015,-5.015l43.37974,43.37974z" fill="#8aa2c6"/><path d="M234.71138,221.0276l-43.37974,43.37974l-5.01499,-5.015l43.37974,-43.37974z" fill="#8aa2c6"/><path d="M238.17391,216.27353h-54.61055v-7.09228h54.61055z" fill="#c65757"/><path d="M184.98181,259.89104h52.12825v7.80151h-52.12825z" fill="#8aa2c6"/></g><g fill="#8aa2c6"><path d="M184.63948,316.81875v-53.54671h7.09228v53.54671z"/><path d="M230.38468,316.46414v-54.61056h7.09228v54.61056z"/><path d="M230.06328,313.53354l-43.37974,-43.37974l5.015,-5.015l43.37974,43.37974z"/><path d="M235.07828,270.1538l-43.37975,43.37974l-5.01499,-5.015l43.37974,-43.37974z"/><path d="M185.34871,309.01724h52.12825v7.80151h-52.12825z"/><path d="M184.63948,260.43513h52.83748v7.80151h-52.83748z"/></g><g><path d="M231.90395,267.78349v-53.54671h7.09228v53.54671z" fill="#8aa2c6"/><path d="M277.64914,267.42888v-54.61055h7.09228v54.61055z" fill="#8aa2c6"/><path d="M277.32775,264.49828l-43.37974,-43.37974l5.015,-5.015l43.37974,43.37974z" fill="#8aa2c6"/><path d="M282.34274,221.11853l-43.37974,43.37974l-5.01499,-5.015l43.37974,-43.37974z" fill="#8aa2c6"/><path d="M285.80528,216.36447h-54.61055v-7.09228h54.61055z" fill="#c65757"/><path d="M232.61318,259.98198h52.12825v7.80151h-52.12825z" fill="#8aa2c6"/></g><g fill="#8aa2c6"><path d="M231.7541,316.65131v-53.54671h7.09228v53.54671z"/><path d="M277.49931,316.2967v-54.61056h7.09228v54.61056z"/><path d="M277.17791,313.3661l-43.37974,-43.37974l5.015,-5.015l43.37974,43.37974z"/><path d="M282.19291,269.98636l-43.37975,43.37974l-5.01499,-5.015l43.37974,-43.37974z"/><path d="M232.46334,308.8498h52.12825v7.80151h-52.12825z"/><path d="M231.7541,260.26769h52.83748v7.80151h-52.83748z"/></g><g fill="#8aa2c6"><path d="M136.7541,365.65131v-53.54671h7.09228v53.54671z"/><path d="M182.49931,365.2967v-54.61056h7.09228v54.61056z"/><path d="M182.17791,362.3661l-43.37974,-43.37974l5.015,-5.015l43.37974,43.37974z"/><path d="M187.19291,318.98636l-43.37975,43.37974l-5.01499,-5.015l43.37974,-43.37974z"/><path d="M137.46334,357.8498h52.12825v7.80151h-52.12825z"/><path d="M136.7541,309.26769h52.83748v7.80151h-52.83748z"/></g><g fill="#8aa2c6"><path d="M184.63948,365.81875v-53.54671h7.09228v53.54671z"/><path d="M230.38468,365.46414v-54.61056h7.09228v54.61056z"/><path d="M230.06328,362.53354l-43.37974,-43.37974l5.015,-5.015l43.37974,43.37974z"/><path d="M235.07828,319.1538l-43.37975,43.37974l-5.01499,-5.015l43.37974,-43.37974z"/><path d="M185.34871,358.01724h52.12825v7.80151h-52.12825z"/><path d="M184.63948,309.43513h52.83748v7.80151h-52.83748z"/></g><g fill="#8aa2c6"><path d="M231.7541,365.65131v-53.54671h7.09228v53.54671z"/><path d="M277.49931,365.2967v-54.61056h7.09228v54.61056z"/><path d="M277.17791,362.3661l-43.37974,-43.37974l5.015,-5.015l43.37974,43.37974z"/><path d="M282.19291,318.98636l-43.37975,43.37974l-5.01499,-5.015l43.37974,-43.37974z"/><path d="M232.46334,357.8498h52.12825v7.80151h-52.12825z"/><path d="M231.7541,309.26769h52.83748v7.80151h-52.83748z"/></g><g><path d="M275.90395,267.78349v-53.54671h7.09228v53.54671z" fill="#8aa2c6"/><path d="M321.64914,267.42888v-54.61055h7.09228v54.61055z" fill="#8aa2c6"/><path d="M321.32775,264.49828l-43.37974,-43.37974l5.015,-5.015l43.37974,43.37974z" fill="#8aa2c6"/><path d="M326.34274,221.11853l-43.37974,43.37974l-5.01499,-5.015l43.37974,-43.37974z" fill="#8aa2c6"/><path d="M329.80528,216.36447h-54.61055v-7.09228h54.61055z" fill="#c65757"/><path d="M276.61317,259.98198h52.12825v7.80151h-52.12825z" fill="#8aa2c6"/></g><g fill="#8aa2c6"><path d="M275.7541,316.65131v-53.54671h7.09228v53.54671z"/><path d="M321.49931,316.2967v-54.61056h7.09228v54.61056z"/><path d="M321.17791,313.3661l-43.37974,-43.37974l5.015,-5.015l43.37974,43.37974z"/><path d="M326.19291,269.98636l-43.37975,43.37974l-5.01499,-5.015l43.37974,-43.37974z"/><path d="M276.46334,308.8498h52.12825v7.80151h-52.12825z"/><path d="M275.7541,260.26769h52.83748v7.80151h-52.83748z"/></g><g><path d="M323.27258,267.69255v-53.54671h7.09228v53.54671z" fill="#8aa2c6"/><path d="M369.01778,267.33794v-54.61055h7.09228v54.61055z" fill="#8aa2c6"/><path d="M368.69638,264.40734l-43.37974,-43.37974l5.015,-5.015l43.37974,43.37974z" fill="#8aa2c6"/><path d="M373.71138,221.0276l-43.37974,43.37974l-5.01499,-5.015l43.37974,-43.37974z" fill="#8aa2c6"/><path d="M377.17391,216.27353h-54.61055v-7.09228h54.61055z" fill="#c65757"/><path d="M323.98181,259.89104h52.12825v7.80151h-52.12825z" fill="#8aa2c6"/></g><g fill="#8aa2c6"><path d="M323.63948,316.81875v-53.54671h7.09228v53.54671z"/><path d="M369.38468,316.46414v-54.61056h7.09228v54.61056z"/><path d="M369.06328,313.53354l-43.37974,-43.37974l5.015,-5.015l43.37974,43.37974z"/><path d="M374.07828,270.1538l-43.37975,43.37974l-5.01499,-5.015l43.37974,-43.37974z"/><path d="M324.34871,309.01724h52.12825v7.80151h-52.12825z"/><path d="M323.63948,260.43513h52.83748v7.80151h-52.83748z"/></g><g><path d="M370.90395,267.78349v-53.54671h7.09228v53.54671z" fill="#8aa2c6"/><path d="M416.64915,267.42888v-54.61055h7.09228v54.61055z" fill="#8aa2c6"/><path d="M416.32775,264.49828l-43.37974,-43.37974l5.015,-5.015l43.37974,43.37974z" fill="#8aa2c6"/><path d="M421.34274,221.11853l-43.37974,43.37974l-5.01499,-5.015l43.37974,-43.37974z" fill="#8aa2c6"/><path d="M424.80528,216.36447h-54.61055v-7.09228h54.61055z" fill="#c65757"/><path d="M371.61318,259.98198h52.12825v7.80151h-52.12825z" fill="#8aa2c6"/></g><g fill="#8aa2c6"><path d="M370.7541,316.65131v-53.54671h7.09228v53.54671z"/><path d="M416.49931,316.2967v-54.61056h7.09228v54.61056z"/><path d="M416.17791,313.3661l-43.37974,-43.37974l5.015,-5.015l43.37974,43.37974z"/><path d="M421.19291,269.98636l-43.37975,43.37974l-5.01499,-5.015l43.37974,-43.37974z"/><path d="M371.46334,308.8498h52.12825v7.80151h-52.12825z"/><path d="M370.7541,260.26769h52.83748v7.80151h-52.83748z"/></g><g fill="#8aa2c6"><path d="M275.7541,365.65131v-53.54671h7.09228v53.54671z"/><path d="M321.49931,365.2967v-54.61056h7.09228v54.61056z"/><path d="M321.17791,362.3661l-43.37974,-43.37974l5.015,-5.015l43.37974,43.37974z"/><path d="M326.19291,318.98636l-43.37975,43.37974l-5.01499,-5.015l43.37974,-43.37974z"/><path d="M276.46334,357.8498h52.12825v7.80151h-52.12825z"/><path d="M275.7541,309.26769h52.83748v7.80151h-52.83748z"/></g><g fill="#8aa2c6"><path d="M323.63948,365.81875v-53.54671h7.09228v53.54671z"/><path d="M369.38468,365.46414v-54.61056h7.09228v54.61056z"/><path d="M369.06328,362.53354l-43.37974,-43.37974l5.015,-5.015l43.37974,43.37974z"/><path d="M374.07828,319.1538l-43.37975,43.37974l-5.01499,-5.015l43.37974,-43.37974z"/><path d="M324.34871,358.01724h52.12825v7.80151h-52.12825z"/><path d="M323.63948,309.43513h52.83748v7.80151h-52.83748z"/></g><g fill="#8aa2c6"><path d="M370.7541,365.65131v-53.54671h7.09228v53.54671z"/><path d="M416.49931,365.2967v-54.61056h7.09228v54.61056z"/><path d="M416.17791,362.3661l-43.37974,-43.37974l5.015,-5.015l43.37974,43.37974z"/><path d="M421.19291,318.98636l-43.37975,43.37974l-5.01499,-5.015l43.37974,-43.37974z"/><path d="M371.46334,357.8498h52.12825v7.80151h-52.12825z"/><path d="M370.7541,309.26769h52.83748v7.80151h-52.83748z"/></g></g></g></svg>