<svg version="1.1" xmlns="http://www.w3.org/2000/svg" xmlns:xlink="http://www.w3.org/1999/xlink" width="702.70118" height="460.96096" viewBox="0,0,702.70118,460.96096"><g transform="translate(88.07656,49.72973)"><g data-paper-data="{&quot;isPaintingLayer&quot;:true}" fill-rule="nonzero" stroke-linejoin="miter" stroke-miterlimit="10" stroke-dasharray="" stroke-dashoffset="0" style="mix-blend-mode: normal"><path d="M-88.07656,411.23123v-460.96096h680.18018v460.96096z" fill="#e2e2e2" stroke="none" stroke-width="NaN" stroke-linecap="butt"/><path d="M613.12312,241.56156v-3.003h1.5015v3.003z" fill="#e2e2e2" stroke="none" stroke-width="0" stroke-linecap="butt"/><path d="" fill="#9e9e9e" stroke="none" stroke-width="0.5" stroke-linecap="butt"/><text transform="translate(6.51653,47.49249) scale(2.2522,1.18324)" font-size="40" xml:space="preserve" fill="#3b3b3b" fill-rule="nonzero" stroke="none" stroke-width="1" stroke-linecap="butt" stroke-linejoin="miter" stroke-miterlimit="10" stroke-dasharray="" stroke-dashoffset="0" font-family="Serif" font-weight="normal" text-anchor="start" style="mix-blend-mode: normal"><tspan x="0" dy="0">CONTROLS</tspan></text><path d="M287.22824,316.27177v-43.54354h43.54354v43.54354z" fill="#6d6d6d" stroke="#3b3b3b" stroke-width="2" stroke-linecap="butt"/><path d="M330.56156,316.27177v-43.54354h43.54354v43.54354z" fill="#6d6d6d" stroke="#3b3b3b" stroke-width="2" stroke-linecap="butt"/><path d="M373.89489,316.27177v-43.54354h43.54354v43.54354z" fill="#6d6d6d" stroke="#3b3b3b" stroke-width="2" stroke-linecap="butt"/><path d="M330.56156,273.27177v-43.54354h43.54354v43.54354z" fill="#6d6d6d" stroke="#3b3b3b" stroke-width="2" stroke-linecap="butt"/><path d="M62.56156,316.27177v-43.54354h43.54354v43.54354z" fill="#6d6d6d" stroke="#3b3b3b" stroke-width="2" stroke-linecap="butt"/><text transform="translate(78.55321,299.70576) scale(0.5,0.5)" font-size="40" xml:space="preserve" fill="#e2e2e2" fill-rule="nonzero" stroke="none" stroke-width="1" stroke-linecap="butt" stroke-linejoin="miter" stroke-miterlimit="10" stroke-dasharray="" stroke-dashoffset="0" font-family="Serif" font-weight="normal" text-anchor="start" style="mix-blend-mode: normal"><tspan x="0" dy="0">Z</tspan></text><text transform="translate(303.05323,299.70577) scale(0.5,0.5)" font-size="40" xml:space="preserve" fill="#e2e2e2" fill-rule="nonzero" stroke="none" stroke-width="1" stroke-linecap="butt" stroke-linejoin="miter" stroke-miterlimit="10" stroke-dasharray="" stroke-dashoffset="0" font-family="Serif" font-weight="normal" text-anchor="start" style="mix-blend-mode: normal"><tspan x="0" dy="0">&lt;</tspan></text><text transform="translate(402.33253,299.70577) rotate(-180) scale(0.5,-0.5)" font-size="40" xml:space="preserve" data-paper-data="{&quot;index&quot;:null}" fill="#e2e2e2" fill-rule="nonzero" stroke="none" stroke-width="1" stroke-linecap="butt" stroke-linejoin="miter" stroke-miterlimit="10" stroke-dasharray="" stroke-dashoffset="0" font-family="Serif" font-weight="normal" text-anchor="start" style="mix-blend-mode: normal"><tspan x="0" dy="0">&lt;</tspan></text><text transform="translate(345.42413,242.29737) rotate(90) scale(0.5,0.5)" font-size="40" xml:space="preserve" fill="#e2e2e2" fill-rule="nonzero" stroke="none" stroke-width="1" stroke-linecap="butt" stroke-linejoin="miter" stroke-miterlimit="10" stroke-dasharray="" stroke-dashoffset="0" font-family="Serif" font-weight="normal" text-anchor="start" style="mix-blend-mode: normal"><tspan x="0" dy="0">&lt;</tspan></text><text transform="translate(345.42414,300.07666) rotate(-90) scale(0.5,-0.5)" font-size="40" xml:space="preserve" data-paper-data="{&quot;index&quot;:null}" fill="#e2e2e2" fill-rule="nonzero" stroke="none" stroke-width="1" stroke-linecap="butt" stroke-linejoin="miter" stroke-miterlimit="10" stroke-dasharray="" stroke-dashoffset="0" font-family="Serif" font-weight="normal" text-anchor="start" style="mix-blend-mode: normal"><tspan x="0" dy="0">&lt;</tspan></text><text transform="translate(62.60742,266.2185) scale(0.5,0.5)" font-size="40" xml:space="preserve" fill="#3b3b3b" fill-rule="nonzero" stroke="none" stroke-width="1" stroke-linecap="butt" stroke-linejoin="miter" stroke-miterlimit="10" stroke-dasharray="" stroke-dashoffset="0" font-family="Serif" font-weight="normal" text-anchor="start" style="mix-blend-mode: normal"><tspan x="0" dy="0">Jump</tspan></text><text transform="translate(307.60742,225.2185) scale(0.5,0.5)" font-size="40" xml:space="preserve" fill="#3b3b3b" fill-rule="nonzero" stroke="none" stroke-width="1" stroke-linecap="butt" stroke-linejoin="miter" stroke-miterlimit="10" stroke-dasharray="" stroke-dashoffset="0" font-family="Serif" font-weight="normal" text-anchor="start" style="mix-blend-mode: normal"><tspan x="0" dy="0">Movement</tspan></text><path d="M314.60211,132.70271c0,-33.84609 27.43768,-61.28378 61.28378,-61.28378c33.84609,0 61.28378,27.43768 61.28378,61.28378c0,33.84609 -27.43768,61.28378 -61.28378,61.28378c-33.84609,0 -61.28378,-27.43768 -61.28378,-61.28378z" data-paper-data="{&quot;index&quot;:null}" fill="#7b7b7b" stroke="#606060" stroke-width="4" stroke-linecap="butt"/><path d="M403.75884,136.07479c0,11.28204 -2.16615,20.42794 -4.83819,20.42794c-2.67206,0 -4.83819,-9.14591 -4.83819,-20.42794c0,-11.28204 2.16615,-20.42794 4.83819,-20.42794c2.67206,0 4.83819,9.14591 4.83819,20.42794z" data-paper-data="{&quot;index&quot;:null}" fill="#3b3b3b" stroke="none" stroke-width="4" stroke-linecap="butt"/><path d="M416.66068,118.33473c1.78138,0 3.22547,7.94249 3.22547,17.74005c0,9.79756 -1.4441,17.74005 -3.22547,17.74005c-1.78138,0 -3.22547,-7.94249 -3.22547,-17.74005c0,-9.79756 1.4441,-17.74005 3.22547,-17.74005z" data-paper-data="{&quot;index&quot;:null}" fill="#3b3b3b" stroke="none" stroke-width="4" stroke-linecap="butt"/><path d="M405.64768,174.24181c0,0 -19.43826,2.71182 -37.39309,-5.45831c-25.97577,-11.81995 -26.23699,-21.70957 -26.23699,-21.70957" data-paper-data="{&quot;index&quot;:null}" fill="none" stroke="#3b3b3b" stroke-width="4" stroke-linecap="round"/><path d="M107.3265,168.52938c-23.9328,-23.9328 -23.93281,-62.73555 0,-86.66835c23.9328,-23.9328 62.73555,-23.93281 86.66835,0c23.9328,23.9328 23.93281,62.73555 0,86.66835c-23.9328,23.9328 -62.73555,23.93281 -86.66835,0z" data-paper-data="{&quot;index&quot;:null}" fill="#7b7b7b" stroke="#606060" stroke-width="4" stroke-linecap="butt"/><path d="M172.75424,107.87048c7.97761,7.97761 12.91304,15.97643 11.02362,17.86585c-1.88943,1.88943 -9.88825,-3.04602 -17.86585,-11.02362c-7.97761,-7.97761 -12.91304,-15.97643 -11.02362,-17.86585c1.88943,-1.88943 9.88825,3.04602 17.86585,11.02362z" data-paper-data="{&quot;index&quot;:null}" fill="#3b3b3b" stroke="none" stroke-width="4" stroke-linecap="butt"/><path d="M169.3331,86.20338c1.25963,-1.25963 7.89694,3.33544 14.82486,10.26336c6.92792,6.92792 11.52298,13.56524 10.26336,14.82486c-1.25963,1.25963 -7.89694,-3.33544 -14.82486,-10.26336c-6.92792,-6.92792 -11.52298,-13.56524 -10.26336,-14.82486z" data-paper-data="{&quot;index&quot;:null}" fill="#3b3b3b" stroke="none" stroke-width="4" stroke-linecap="butt"/><path d="M201.07801,133.52303c0,0 -11.82738,15.66247 -30.30052,22.5813c-26.72561,10.00968 -33.90334,3.20137 -33.90334,3.20137" data-paper-data="{&quot;index&quot;:null}" fill="none" stroke="#3b3b3b" stroke-width="4" stroke-linecap="round"/><path d="M62.34794,104.88669l-54.05405,37.53754" fill="none" stroke="#3b3b3b" stroke-width="2" stroke-linecap="round"/><path d="M41.32692,161.94374l-90.09009,55.55556" fill="none" stroke="#3b3b3b" stroke-width="2" stroke-linecap="round"/><path d="M62.34794,185.96776l16.51652,-12.01201" fill="none" stroke="#3b3b3b" stroke-width="2" stroke-linecap="round"/><path d="M84.87046,199.48128l-139.63964,112.61261" fill="none" stroke="#3b3b3b" stroke-width="2" stroke-linecap="round"/><path d="M311.5972,83.86566h-63.06306" fill="none" stroke="#3b3b3b" stroke-width="2" stroke-linecap="round"/><path d="M265.05064,103.38519l34.53453,1.5015" fill="none" stroke="#3b3b3b" stroke-width="2" stroke-linecap="round"/><path d="M286.07167,119.9017l-51.05105,-1.5015" fill="none" stroke="#3b3b3b" stroke-width="2" stroke-linecap="round"/><path d="M265.05064,134.91671l37.53754,6.00601" fill="none" stroke="#3b3b3b" stroke-width="2" stroke-linecap="round"/><path d="M218.50409,157.43923l90.09009,-4.5045" fill="none" stroke="#3b3b3b" stroke-width="2" stroke-linecap="round"/><path d="M305.59119,166.44825h-43.54354" fill="none" stroke="#3b3b3b" stroke-width="2" stroke-linecap="round"/><path d="M320.60621,184.46627l-111.11111,9.00901" fill="none" stroke="#3b3b3b" stroke-width="2" stroke-linecap="round"/></g></g></svg>