<svg version="1.1" xmlns="http://www.w3.org/2000/svg" xmlns:xlink="http://www.w3.org/1999/xlink" width="528" height="453.31633" viewBox="0,0,528,453.31633"><defs><linearGradient x1="238.62857" y1="-16.17749" x2="238.62857" y2="376.82252" gradientUnits="userSpaceOnUse" id="color-1"><stop offset="0" stop-color="#637b86"/><stop offset="1" stop-color="#2f3a3f"/></linearGradient></defs><g transform="translate(25.37143,76.49382)"><g data-paper-data="{&quot;isPaintingLayer&quot;:true}" fill-rule="nonzero" stroke-linecap="butt" stroke-linejoin="miter" stroke-miterlimit="10" stroke-dasharray="" stroke-dashoffset="0" style="mix-blend-mode: normal"><path d="M-25.37143,376.82252v-393h528v393z" fill="url(#color-1)" stroke="none" stroke-width="0"/><path d="M173.91866,225.7506c-0.41452,-37.27691 29.46836,-67.83186 66.74527,-68.24638c37.27691,-0.41452 67.83186,29.46836 68.24638,66.74527c0.41452,37.27691 -29.46836,67.83186 -66.74527,68.24638c-37.27691,0.41452 -67.83186,-29.46836 -68.24638,-66.74527z" data-paper-data="{&quot;index&quot;:null}" fill="#0068ff" stroke="#0010c7" stroke-width="2"/><path d="M188.56279,209.46996c0,-15.46399 12.53601,-28 28,-28c15.46399,0 28,12.53601 28,28c0,15.46399 -12.53601,28 -28,28c-15.46399,0 -28,-12.53601 -28,-28z" fill="#ffffff" stroke="#000000" stroke-width="2"/><path d="M246.56279,199.46996c0,-15.46399 12.53601,-28 28,-28c15.46399,0 28,12.53601 28,28c0,15.46399 -12.53601,28 -28,28c-15.46399,0 -28,-12.53601 -28,-28z" fill="#ffffff" stroke="#000000" stroke-width="2"/><path d="M292.12857,263.44786c0,13.63453 -15.91604,15.57212 -38.36058,15.57212c-22.44453,0 -40.63942,0.34126 -40.63942,-13.29327c0,-13.63453 18.19489,-36.08173 40.63942,-36.08173c22.44453,0 38.36058,20.16835 38.36058,33.80288z" fill="#000000" stroke="none" stroke-width="0"/><text transform="translate(371.06577,190.05019) rotate(-85.53421) scale(2.21181,2.21181)" font-size="40" xml:space="preserve" fill="#ff0000" fill-rule="nonzero" stroke="none" stroke-width="1" stroke-linecap="butt" stroke-linejoin="miter" stroke-miterlimit="10" stroke-dasharray="" stroke-dashoffset="0" font-family="Marker" font-weight="normal" text-anchor="start" style="mix-blend-mode: normal"><tspan x="0" dy="0">AAA</tspan></text><text transform="translate(374.44914,36.84852) rotate(-85.53416) scale(1.27548,1.27548)" font-size="40" xml:space="preserve" fill="#ff0000" fill-rule="nonzero" stroke="none" stroke-width="1" stroke-linecap="butt" stroke-linejoin="miter" stroke-miterlimit="10" stroke-dasharray="" stroke-dashoffset="0" font-family="Marker" font-weight="normal" text-anchor="start" style="mix-blend-mode: normal"><tspan x="0" dy="0">AA</tspan></text><text transform="translate(372.49443,-28.02397) rotate(-85.53424) scale(0.85881,0.85881)" font-size="40" xml:space="preserve" fill="#ff0000" fill-rule="nonzero" stroke="none" stroke-width="1" stroke-linecap="butt" stroke-linejoin="miter" stroke-miterlimit="10" stroke-dasharray="" stroke-dashoffset="0" font-family="Marker" font-weight="normal" text-anchor="start" style="mix-blend-mode: normal"><tspan x="0" dy="0">AA</tspan></text></g></g></svg>