<svg version="1.1" xmlns="http://www.w3.org/2000/svg" xmlns:xlink="http://www.w3.org/1999/xlink" width="499.01566" height="223.40974" viewBox="0,0,499.01566,223.40974"><g transform="translate(1.23722,-145.46365)"><g data-paper-data="{&quot;isPaintingLayer&quot;:true}" fill-rule="nonzero" stroke="none" stroke-linecap="butt" stroke-linejoin="miter" stroke-miterlimit="10" stroke-dasharray="" stroke-dashoffset="0" style="mix-blend-mode: normal"><g><g stroke-width="0"><path d="M320.65864,265.26979v-105h80.6129v105z" fill="#a9b4ff"/><path d="M320.65864,223.94721v-16.93548c0,0 4.80147,1.16686 10.593,-0.67424c8.56762,-2.7236 20.10698,-8.80964 28.0199,-8.80964c6.92139,0 16.99804,5.84328 25.89133,8.25571c8.58204,2.328 16.10867,1.22817 16.10867,1.22817v16.93549c0,0 -10.69637,0.29594 -19.72546,-2.17871c-9.49656,-2.60277 -17.50854,-7.98258 -24.3068,-7.98258c-6.18608,0 -12.28035,4.81185 -19.30236,7.10388c-8.41637,2.74716 -17.27828,3.05741 -17.27828,3.05741z" fill="#7688ff"/><path d="M320.65864,188.72141v-16.93548c0,0 4.80147,1.16686 10.593,-0.67424c8.56762,-2.7236 20.10698,-8.80963 28.0199,-8.80963c6.92139,0 16.99804,5.84327 25.89133,8.2557c8.58204,2.328 16.10867,1.22817 16.10867,1.22817v16.93549c0,0 -10.69637,0.29594 -19.72546,-2.17871c-9.49656,-2.60277 -17.50854,-7.98258 -24.3068,-7.98258c-6.18608,0 -12.28035,4.81185 -19.30236,7.10388c-8.41637,2.74716 -17.27828,3.05741 -17.27828,3.05741z" fill="#7688ff"/><path d="M320.65864,259.17302v-16.93548c0,0 4.80147,1.16686 10.593,-0.67423c8.56762,-2.7236 20.10698,-8.80964 28.0199,-8.80964c6.92139,0 16.99804,5.84328 25.89133,8.25571c8.58204,2.328 16.10867,1.22816 16.10867,1.22816v16.93549c0,0 -10.69637,0.29595 -19.72546,-2.1787c-9.49656,-2.60277 -17.50854,-7.98259 -24.3068,-7.98259c-6.18608,0 -12.28035,4.81184 -19.30236,7.10388c-8.41637,2.74716 -17.27828,3.05741 -17.27828,3.05741z" fill="#7688ff"/></g><path d="M338.65864,147.10312c4.09284,0.13052 8.01835,1.82237 12.19968,2c6.81417,0.28947 13.04443,-2.59253 19.80032,-2.66667c6.59202,-0.07234 17.44667,0.85233 24.91407,0.61994c2.02446,-0.063 4.05279,0.98817 6.09111,1.46469c6.03514,1.4109 10.35427,1.23102 11.82816,8.41537c1.30614,6.36671 -7.52909,8.14978 -9.22917,13.25c-0.91712,2.75136 -0.01022,6.03476 -1.64856,8.60929c-1.46073,2.29543 -4.75351,3.48122 -7.37487,3.68744c-3.90293,0.30703 -6.71413,-5.06408 -9.87305,-6.80763c-3.74927,-2.06939 -7.94566,-2.42604 -12.02976,-3.44706c-0.40417,-0.10104 -2.58857,-1.83885 -2.95817,-1.73737c-5.85385,1.60725 -10.87982,4.69454 -17.37516,3.07071c-2.33403,-0.58351 -6.05002,-5.88291 -8.3446,-5.45871c-8.6853,1.60568 -10.80107,6.61491 -21,5.66667c-7.62785,-0.7092 -8.67011,-8.15289 -7.15775,-14.20234c0.03209,-0.66226 0.15007,-1.30197 0.34305,-1.90824c0.7193,-9.35095 15.54679,-10.75596 21.8147,-10.55608z" fill="#a4ddff" stroke-width="0.5"/></g><g><g stroke-width="0"><path d="M241.9079,265.60313v-105h80.6129v105z" fill="#a9b4ff"/><path d="M241.9079,224.28055v-16.93548c0,0 4.80147,1.16686 10.593,-0.67424c8.56762,-2.7236 20.10698,-8.80964 28.0199,-8.80964c6.92139,0 16.99804,5.84328 25.89133,8.25571c8.58204,2.328 16.10867,1.22817 16.10867,1.22817v16.93549c0,0 -10.69637,0.29594 -19.72546,-2.17871c-9.49656,-2.60277 -17.50854,-7.98258 -24.3068,-7.98258c-6.18608,0 -12.28035,4.81185 -19.30236,7.10388c-8.41637,2.74716 -17.27828,3.05741 -17.27828,3.05741z" fill="#7688ff"/><path d="M241.9079,189.05475v-16.93548c0,0 4.80147,1.16686 10.593,-0.67424c8.56762,-2.7236 20.10698,-8.80963 28.0199,-8.80963c6.92139,0 16.99804,5.84327 25.89133,8.2557c8.58204,2.328 16.10867,1.22817 16.10867,1.22817v16.93549c0,0 -10.69637,0.29594 -19.72546,-2.17871c-9.49656,-2.60277 -17.50854,-7.98258 -24.3068,-7.98258c-6.18608,0 -12.28035,4.81185 -19.30236,7.10388c-8.41637,2.74716 -17.27828,3.05741 -17.27828,3.05741z" fill="#7688ff"/><path d="M241.9079,259.50636v-16.93548c0,0 4.80147,1.16686 10.593,-0.67423c8.56762,-2.7236 20.10698,-8.80964 28.0199,-8.80964c6.92139,0 16.99804,5.84328 25.89133,8.25571c8.58204,2.328 16.10867,1.22816 16.10867,1.22816v16.93549c0,0 -10.69637,0.29595 -19.72546,-2.1787c-9.49656,-2.60277 -17.50854,-7.98259 -24.3068,-7.98259c-6.18608,0 -12.28035,4.81184 -19.30236,7.10388c-8.41637,2.74716 -17.27828,3.05741 -17.27828,3.05741z" fill="#7688ff"/></g><path d="M259.90789,147.43646c4.09284,0.13052 8.01835,1.82237 12.19968,2c6.81417,0.28947 13.04443,-2.59253 19.80032,-2.66667c6.59202,-0.07234 17.44667,0.85233 24.91407,0.61994c2.02446,-0.063 4.05279,0.98817 6.09111,1.46469c6.03514,1.4109 10.35427,1.23102 11.82816,8.41537c1.30614,6.36671 -7.52909,8.14978 -9.22917,13.25c-0.91712,2.75136 -0.01022,6.03476 -1.64856,8.60929c-1.46073,2.29543 -4.75351,3.48122 -7.37487,3.68744c-3.90293,0.30703 -6.71413,-5.06408 -9.87305,-6.80763c-3.74927,-2.06939 -7.94566,-2.42604 -12.02976,-3.44706c-0.40417,-0.10104 -2.58857,-1.83885 -2.95817,-1.73737c-5.85385,1.60725 -10.87982,4.69454 -17.37516,3.07071c-2.33403,-0.58351 -6.05002,-5.88291 -8.3446,-5.45871c-8.6853,1.60568 -10.80107,6.61491 -21,5.66667c-7.62785,-0.7092 -8.67011,-8.15289 -7.15775,-14.20234c0.03209,-0.66226 0.15007,-1.30197 0.34305,-1.90824c0.7193,-9.35095 15.54679,-10.75596 21.8147,-10.55608z" fill="#a4ddff" stroke-width="0.5"/></g><g><g stroke-width="0"><path d="M161.65865,265.26979v-105h80.6129v105z" fill="#a9b4ff"/><path d="M161.65865,223.94721v-16.93548c0,0 4.80147,1.16686 10.593,-0.67424c8.56762,-2.7236 20.10698,-8.80964 28.0199,-8.80964c6.92139,0 16.99804,5.84328 25.89133,8.25571c8.58204,2.328 16.10867,1.22817 16.10867,1.22817v16.93549c0,0 -10.69637,0.29594 -19.72546,-2.17871c-9.49656,-2.60277 -17.50854,-7.98258 -24.3068,-7.98258c-6.18608,0 -12.28035,4.81185 -19.30236,7.10388c-8.41637,2.74716 -17.27828,3.05741 -17.27828,3.05741z" fill="#7688ff"/><path d="M161.65865,188.72141v-16.93548c0,0 4.80147,1.16686 10.593,-0.67424c8.56762,-2.7236 20.10698,-8.80963 28.0199,-8.80963c6.92139,0 16.99804,5.84327 25.89133,8.2557c8.58204,2.328 16.10867,1.22817 16.10867,1.22817v16.93549c0,0 -10.69637,0.29594 -19.72546,-2.17871c-9.49656,-2.60277 -17.50854,-7.98258 -24.3068,-7.98258c-6.18608,0 -12.28035,4.81185 -19.30236,7.10388c-8.41637,2.74716 -17.27828,3.05741 -17.27828,3.05741z" fill="#7688ff"/><path d="M161.65865,259.17302v-16.93548c0,0 4.80147,1.16686 10.593,-0.67423c8.56762,-2.7236 20.10698,-8.80964 28.0199,-8.80964c6.92139,0 16.99804,5.84328 25.89133,8.25571c8.58204,2.328 16.10867,1.22816 16.10867,1.22816v16.93549c0,0 -10.69637,0.29595 -19.72546,-2.1787c-9.49656,-2.60277 -17.50854,-7.98259 -24.3068,-7.98259c-6.18608,0 -12.28035,4.81184 -19.30236,7.10388c-8.41637,2.74716 -17.27828,3.05741 -17.27828,3.05741z" fill="#7688ff"/></g><path d="M179.65864,147.10312c4.09284,0.13052 8.01835,1.82237 12.19968,2c6.81417,0.28947 13.04443,-2.59253 19.80032,-2.66667c6.59202,-0.07234 17.44667,0.85233 24.91407,0.61994c2.02446,-0.063 4.05279,0.98817 6.09111,1.46469c6.03514,1.4109 10.35427,1.23102 11.82816,8.41537c1.30614,6.36671 -7.52909,8.14978 -9.22917,13.25c-0.91712,2.75136 -0.01022,6.03476 -1.64856,8.60929c-1.46073,2.29543 -4.75351,3.48122 -7.37487,3.68744c-3.90293,0.30703 -6.71413,-5.06408 -9.87305,-6.80763c-3.74927,-2.06939 -7.94566,-2.42604 -12.02976,-3.44706c-0.40417,-0.10104 -2.58857,-1.83885 -2.95817,-1.73737c-5.85385,1.60725 -10.87982,4.69454 -17.37516,3.07071c-2.33403,-0.58351 -6.05002,-5.88291 -8.3446,-5.45871c-8.6853,1.60568 -10.80107,6.61491 -21,5.66667c-7.62785,-0.7092 -8.67011,-8.15289 -7.15775,-14.20234c0.03209,-0.66226 0.15007,-1.30197 0.34305,-1.90824c0.7193,-9.35095 15.54679,-10.75596 21.8147,-10.55608z" fill="#a4ddff" stroke-width="0.5"/></g><g><g stroke-width="0"><path d="M83.76215,264.63438v-105h80.6129v105z" fill="#a9b4ff"/><path d="M83.76215,223.3118v-16.93548c0,0 4.80147,1.16686 10.593,-0.67424c8.56762,-2.7236 20.10698,-8.80964 28.0199,-8.80964c6.92139,0 16.99804,5.84328 25.89133,8.25571c8.58204,2.328 16.10867,1.22817 16.10867,1.22817v16.93549c0,0 -10.69637,0.29594 -19.72546,-2.17871c-9.49656,-2.60277 -17.50854,-7.98258 -24.3068,-7.98258c-6.18608,0 -12.28035,4.81185 -19.30236,7.10388c-8.41637,2.74716 -17.27828,3.05741 -17.27828,3.05741z" fill="#7688ff"/><path d="M83.76215,188.086v-16.93548c0,0 4.80147,1.16686 10.593,-0.67424c8.56762,-2.7236 20.10698,-8.80963 28.0199,-8.80963c6.92139,0 16.99804,5.84327 25.89133,8.2557c8.58204,2.328 16.10867,1.22817 16.10867,1.22817v16.93549c0,0 -10.69637,0.29594 -19.72546,-2.17871c-9.49656,-2.60277 -17.50854,-7.98258 -24.3068,-7.98258c-6.18608,0 -12.28035,4.81185 -19.30236,7.10388c-8.41637,2.74716 -17.27828,3.05741 -17.27828,3.05741z" fill="#7688ff"/><path d="M83.76215,258.53761v-16.93548c0,0 4.80147,1.16686 10.593,-0.67423c8.56762,-2.7236 20.10698,-8.80964 28.0199,-8.80964c6.92139,0 16.99804,5.84328 25.89133,8.25571c8.58204,2.328 16.10867,1.22816 16.10867,1.22816v16.93549c0,0 -10.69637,0.29595 -19.72546,-2.1787c-9.49656,-2.60277 -17.50854,-7.98259 -24.3068,-7.98259c-6.18608,0 -12.28035,4.81184 -19.30236,7.10388c-8.41637,2.74716 -17.27828,3.05741 -17.27828,3.05741z" fill="#7688ff"/></g><path d="M101.76214,146.46771c4.09284,0.13052 8.01835,1.82237 12.19968,2c6.81417,0.28947 13.04443,-2.59253 19.80032,-2.66667c6.59202,-0.07234 17.44667,0.85233 24.91407,0.61994c2.02446,-0.063 4.05279,0.98817 6.09111,1.46469c6.03514,1.4109 10.35427,1.23102 11.82816,8.41537c1.30614,6.36671 -7.52909,8.14978 -9.22917,13.25c-0.91712,2.75136 -0.01022,6.03476 -1.64856,8.60929c-1.46073,2.29543 -4.75351,3.48122 -7.37487,3.68744c-3.90293,0.30703 -6.71413,-5.06408 -9.87305,-6.80763c-3.74927,-2.06939 -7.94566,-2.42604 -12.02976,-3.44706c-0.40417,-0.10104 -2.58857,-1.83885 -2.95817,-1.73737c-5.85385,1.60725 -10.87982,4.69454 -17.37516,3.07071c-2.33403,-0.58351 -6.05002,-5.88291 -8.3446,-5.45871c-8.6853,1.60568 -10.80107,6.61491 -21,5.66667c-7.62785,-0.7092 -8.67011,-8.15289 -7.15775,-14.20234c0.03209,-0.66226 0.15007,-1.30197 0.34305,-1.90824c0.7193,-9.35095 15.54679,-10.75596 21.8147,-10.55608z" fill="#a4ddff" stroke-width="0.5"/></g><g><g stroke-width="0"><path d="M3.5129,264.30104v-105h80.6129v105z" fill="#a9b4ff"/><path d="M3.5129,222.97846v-16.93548c0,0 4.80147,1.16686 10.593,-0.67424c8.56762,-2.7236 20.10698,-8.80964 28.0199,-8.80964c6.92139,0 16.99804,5.84328 25.89133,8.25571c8.58204,2.328 16.10867,1.22817 16.10867,1.22817v16.93549c0,0 -10.69637,0.29594 -19.72546,-2.17871c-9.49656,-2.60277 -17.50854,-7.98258 -24.3068,-7.98258c-6.18608,0 -12.28035,4.81185 -19.30236,7.10388c-8.41637,2.74716 -17.27828,3.05741 -17.27828,3.05741z" fill="#7688ff"/><path d="M3.5129,187.75266v-16.93548c0,0 4.80147,1.16686 10.593,-0.67424c8.56762,-2.7236 20.10698,-8.80963 28.0199,-8.80963c6.92139,0 16.99804,5.84327 25.89133,8.2557c8.58204,2.328 16.10867,1.22817 16.10867,1.22817v16.93549c0,0 -10.69637,0.29594 -19.72546,-2.17871c-9.49656,-2.60277 -17.50854,-7.98258 -24.3068,-7.98258c-6.18608,0 -12.28035,4.81185 -19.30236,7.10388c-8.41637,2.74716 -17.27828,3.05741 -17.27828,3.05741z" fill="#7688ff"/><path d="M3.5129,258.20427v-16.93548c0,0 4.80147,1.16686 10.593,-0.67423c8.56762,-2.7236 20.10698,-8.80964 28.0199,-8.80964c6.92139,0 16.99804,5.84328 25.89133,8.25571c8.58204,2.328 16.10867,1.22816 16.10867,1.22816v16.93549c0,0 -10.69637,0.29595 -19.72546,-2.1787c-9.49656,-2.60277 -17.50854,-7.98259 -24.3068,-7.98259c-6.18608,0 -12.28035,4.81184 -19.30236,7.10388c-8.41637,2.74716 -17.27828,3.05741 -17.27828,3.05741z" fill="#7688ff"/></g><path d="M21.51289,146.13437c4.09284,0.13052 8.01835,1.82237 12.19968,2c6.81417,0.28947 13.04443,-2.59253 19.80032,-2.66667c6.59202,-0.07234 17.44667,0.85233 24.91407,0.61994c2.02446,-0.063 4.05279,0.98817 6.09111,1.46469c6.03514,1.4109 10.35427,1.23102 11.82816,8.41537c1.30614,6.36671 -7.52909,8.14978 -9.22917,13.25c-0.91712,2.75136 -0.01022,6.03476 -1.64856,8.60929c-1.46073,2.29543 -4.75351,3.48122 -7.37487,3.68744c-3.90293,0.30703 -6.71413,-5.06408 -9.87305,-6.80763c-3.74927,-2.06939 -7.94566,-2.42604 -12.02976,-3.44706c-0.40417,-0.10104 -2.58857,-1.83885 -2.95817,-1.73737c-5.85385,1.60725 -10.87982,4.69454 -17.37516,3.07071c-2.33403,-0.58351 -6.05002,-5.88291 -8.3446,-5.45871c-8.6853,1.60568 -10.80107,6.61491 -21,5.66667c-7.62785,-0.7092 -8.67011,-8.15289 -7.15775,-14.20234c0.03209,-0.66226 0.15007,-1.30197 0.34305,-1.90824c0.7193,-9.35095 15.54679,-10.75596 21.8147,-10.55608z" fill="#a4ddff" stroke-width="0.5"/></g><g stroke-width="0"><path d="M162.21662,368.87339v-105h81.14378v105z" fill="#a9b4ff"/><path d="M162.21662,327.55081v-16.93548c0,0 4.83309,1.16686 10.66276,-0.67423c8.62404,-2.7236 20.2394,-8.80964 28.20443,-8.80964c6.96697,0 17.10999,5.84327 26.06184,8.2557c8.63856,2.328 16.21475,1.22817 16.21475,1.22817v16.93548c0,0 -10.7668,0.29594 -19.85535,-2.1787c-9.5591,-2.60277 -17.62384,-7.98259 -24.46687,-7.98259c-6.22682,0 -12.36122,4.81185 -19.42948,7.10388c-8.47181,2.74717 -17.39208,3.05741 -17.39208,3.05741z" fill="#7688ff"/><path d="M162.21662,292.325v-16.93548c0,0 4.83309,1.16686 10.66276,-0.67424c8.62404,-2.7236 20.2394,-8.80964 28.20443,-8.80964c6.96697,0 17.10999,5.84327 26.06184,8.2557c8.63856,2.328 16.21475,1.22817 16.21475,1.22817v16.93548c0,0 -10.7668,0.29594 -19.85535,-2.1787c-9.5591,-2.60277 -17.62384,-7.98259 -24.46688,-7.98259c-6.22682,0 -12.36122,4.81185 -19.42948,7.10388c-8.47181,2.74717 -17.39208,3.05741 -17.39208,3.05741z" fill="#7688ff"/><path d="M162.21662,362.77662v-16.93548c0,0 4.83309,1.16686 10.66276,-0.67424c8.62404,-2.7236 20.2394,-8.80964 28.20443,-8.80964c6.96697,0 17.10999,5.84327 26.06184,8.2557c8.63856,2.328 16.21475,1.22817 16.21475,1.22817v16.93548c0,0 -10.7668,0.29594 -19.85535,-2.1787c-9.5591,-2.60277 -17.62384,-7.98259 -24.46688,-7.98259c-6.22682,0 -12.36122,4.81185 -19.42948,7.10388c-8.47181,2.74717 -17.39208,3.05741 -17.39208,3.05741z" fill="#7688ff"/></g><g stroke-width="0"><path d="M240.8089,368.87339v-105h81.14378v105z" fill="#a9b4ff"/><path d="M240.8089,327.55081v-16.93548c0,0 4.83309,1.16686 10.66276,-0.67423c8.62404,-2.7236 20.2394,-8.80964 28.20443,-8.80964c6.96697,0 17.10999,5.84327 26.06184,8.2557c8.63856,2.328 16.21475,1.22817 16.21475,1.22817v16.93548c0,0 -10.7668,0.29594 -19.85535,-2.1787c-9.5591,-2.60277 -17.62384,-7.98259 -24.46687,-7.98259c-6.22682,0 -12.36122,4.81185 -19.42948,7.10388c-8.47181,2.74717 -17.39208,3.05741 -17.39208,3.05741z" fill="#7688ff"/><path d="M240.8089,292.325v-16.93548c0,0 4.83309,1.16686 10.66276,-0.67424c8.62404,-2.7236 20.2394,-8.80964 28.20443,-8.80964c6.96697,0 17.10999,5.84327 26.06184,8.2557c8.63856,2.328 16.21475,1.22817 16.21475,1.22817v16.93548c0,0 -10.7668,0.29594 -19.85535,-2.1787c-9.5591,-2.60277 -17.62384,-7.98259 -24.46688,-7.98259c-6.22682,0 -12.36122,4.81185 -19.42948,7.10388c-8.47181,2.74717 -17.39208,3.05741 -17.39208,3.05741z" fill="#7688ff"/><path d="M240.8089,362.77662v-16.93548c0,0 4.83309,1.16686 10.66276,-0.67424c8.62404,-2.7236 20.2394,-8.80964 28.20443,-8.80964c6.96697,0 17.10999,5.84327 26.06184,8.2557c8.63856,2.328 16.21475,1.22817 16.21475,1.22817v16.93548c0,0 -10.7668,0.29594 -19.85535,-2.1787c-9.5591,-2.60277 -17.62384,-7.98259 -24.46688,-7.98259c-6.22682,0 -12.36122,4.81185 -19.42948,7.10388c-8.47181,2.74717 -17.39208,3.05741 -17.39208,3.05741z" fill="#7688ff"/></g><g stroke-width="0"><path d="M320.91255,368.87339v-105h81.14378v105z" fill="#a9b4ff"/><path d="M320.91255,327.55081v-16.93548c0,0 4.83309,1.16686 10.66276,-0.67423c8.62404,-2.7236 20.2394,-8.80964 28.20443,-8.80964c6.96697,0 17.10999,5.84327 26.06184,8.2557c8.63856,2.328 16.21475,1.22817 16.21475,1.22817v16.93548c0,0 -10.7668,0.29594 -19.85535,-2.1787c-9.5591,-2.60277 -17.62384,-7.98259 -24.46687,-7.98259c-6.22682,0 -12.36122,4.81185 -19.42948,7.10388c-8.47181,2.74717 -17.39208,3.05741 -17.39208,3.05741z" fill="#7688ff"/><path d="M320.91255,292.325v-16.93548c0,0 4.83309,1.16686 10.66276,-0.67424c8.62404,-2.7236 20.2394,-8.80964 28.20443,-8.80964c6.96697,0 17.10999,5.84327 26.06184,8.2557c8.63856,2.328 16.21475,1.22817 16.21475,1.22817v16.93548c0,0 -10.7668,0.29594 -19.85535,-2.1787c-9.5591,-2.60277 -17.62384,-7.98259 -24.46688,-7.98259c-6.22682,0 -12.36122,4.81185 -19.42948,7.10388c-8.47181,2.74717 -17.39208,3.05741 -17.39208,3.05741z" fill="#7688ff"/><path d="M320.91255,362.77662v-16.93548c0,0 4.83309,1.16686 10.66276,-0.67424c8.62404,-2.7236 20.2394,-8.80964 28.20443,-8.80964c6.96697,0 17.10999,5.84327 26.06184,8.2557c8.63856,2.328 16.21475,1.22817 16.21475,1.22817v16.93548c0,0 -10.7668,0.29594 -19.85535,-2.1787c-9.5591,-2.60277 -17.62384,-7.98259 -24.46688,-7.98259c-6.22682,0 -12.36122,4.81185 -19.42948,7.10388c-8.47181,2.74717 -17.39208,3.05741 -17.39208,3.05741z" fill="#7688ff"/></g><g><g stroke-width="0"><path d="M401.09777,265.60313v-105h83.83529v105z" fill="#a9b4ff"/><path d="M401.09777,224.28055v-16.93548c0,0 4.9934,1.16686 11.01644,-0.67424c8.9101,-2.7236 20.91073,-8.80964 29.13996,-8.80964c7.19806,0 17.67751,5.84328 26.9263,8.25571c8.92509,2.328 16.75259,1.22817 16.75259,1.22817v16.93549c0,0 -11.12394,0.29594 -20.51396,-2.17871c-9.87617,-2.60277 -18.20842,-7.98258 -25.27843,-7.98258c-6.43336,0 -12.77124,4.81185 -20.07394,7.10388c-8.7528,2.74716 -17.96895,3.05741 -17.96895,3.05741z" fill="#7688ff"/><path d="M401.09777,189.05475v-16.93548c0,0 4.9934,1.16686 11.01644,-0.67424c8.9101,-2.7236 20.91073,-8.80963 29.13996,-8.80963c7.19806,0 17.67751,5.84327 26.9263,8.2557c8.92509,2.328 16.75259,1.22817 16.75259,1.22817v16.93549c0,0 -11.12394,0.29594 -20.51396,-2.17871c-9.87617,-2.60277 -18.20842,-7.98258 -25.27843,-7.98258c-6.43336,0 -12.77124,4.81185 -20.07394,7.10388c-8.7528,2.74716 -17.96895,3.05741 -17.96895,3.05741z" fill="#7688ff"/><path d="M401.09777,259.50636v-16.93548c0,0 4.9934,1.16686 11.01644,-0.67423c8.9101,-2.7236 20.91073,-8.80964 29.13996,-8.80964c7.19806,0 17.67751,5.84328 26.9263,8.25571c8.92509,2.328 16.75259,1.22816 16.75259,1.22816v16.93549c0,0 -11.12394,0.29595 -20.51396,-2.1787c-9.87617,-2.60277 -18.20842,-7.98259 -25.27843,-7.98259c-6.43336,0 -12.77124,4.81184 -20.07394,7.10388c-8.7528,2.74716 -17.96895,3.05741 -17.96895,3.05741z" fill="#7688ff"/></g><path d="M419.81729,147.43646c4.25645,0.13052 8.33887,1.82237 12.68735,2c7.08656,0.28947 13.56586,-2.59253 20.59181,-2.66667c6.85553,-0.07234 18.14408,0.85233 25.90997,0.61994c2.10538,-0.063 4.21479,0.98817 6.33459,1.46469c6.27639,1.4109 10.76817,1.23102 12.30097,8.41537c1.35835,6.36671 -7.83005,8.14978 -9.59809,13.25c-0.95378,2.75136 -0.01063,6.03476 -1.71446,8.60929c-1.51912,2.29543 -4.94352,3.48122 -7.66967,3.68744c-4.05894,0.30703 -6.98252,-5.06408 -10.26771,-6.80763c-3.89914,-2.06939 -8.26328,-2.42604 -12.51063,-3.44706c-0.42033,-0.10104 -2.69204,-1.83885 -3.07642,-1.73737c-6.08785,1.60725 -11.31473,4.69454 -18.06971,3.07071c-2.42733,-0.58351 -6.29186,-5.88291 -8.67816,-5.45871c-9.03248,1.60568 -11.23283,6.61491 -21.83945,5.66667c-7.93276,-0.7092 -9.01669,-8.15289 -7.44387,-14.20234c0.03337,-0.66226 0.15607,-1.30197 0.35676,-1.90824c0.74805,-9.35095 16.16825,-10.75596 22.68671,-10.55608z" fill="#a4ddff" stroke-width="0.5"/></g><g stroke-width="0"><path d="M399.63861,368.87339v-105h84.38739v105z" fill="#a9b4ff"/><path d="M399.63861,327.55081v-16.93548c0,0 5.02629,1.16686 11.08899,-0.67423c8.96878,-2.7236 21.04844,-8.80964 29.33186,-8.80964c7.24547,0 17.79394,5.84327 27.10362,8.2557c8.98387,2.328 16.86292,1.22817 16.86292,1.22817v16.93548c0,0 -11.19719,0.29594 -20.64904,-2.1787c-9.94121,-2.60277 -18.32833,-7.98259 -25.4449,-7.98259c-6.47573,0 -12.85535,4.81185 -20.20614,7.10388c-8.81046,2.74717 -18.0873,3.05741 -18.0873,3.05741z" fill="#7688ff"/><path d="M399.63861,292.325v-16.93548c0,0 5.02629,1.16686 11.08899,-0.67424c8.96878,-2.7236 21.04844,-8.80964 29.33186,-8.80964c7.24547,0 17.79394,5.84327 27.10362,8.2557c8.98387,2.328 16.86292,1.22817 16.86292,1.22817v16.93548c0,0 -11.19719,0.29594 -20.64904,-2.1787c-9.94121,-2.60277 -18.32833,-7.98259 -25.44491,-7.98259c-6.47573,0 -12.85535,4.81185 -20.20614,7.10388c-8.81046,2.74717 -18.0873,3.05741 -18.0873,3.05741z" fill="#7688ff"/><path d="M399.63861,362.77662v-16.93548c0,0 5.02629,1.16686 11.08899,-0.67424c8.96878,-2.7236 21.04844,-8.80964 29.33186,-8.80964c7.24547,0 17.79394,5.84327 27.10362,8.2557c8.98387,2.328 16.86292,1.22817 16.86292,1.22817v16.93548c0,0 -11.19719,0.29594 -20.64904,-2.1787c-9.94121,-2.60277 -18.32833,-7.98259 -25.44491,-7.98259c-6.47573,0 -12.85535,4.81185 -20.20614,7.10388c-8.81046,2.74717 -18.0873,3.05741 -18.0873,3.05741z" fill="#7688ff"/></g><g stroke-width="0"><path d="M3.02941,367.90464v-105h81.14378v105z" fill="#a9b4ff"/><path d="M3.02941,326.58206v-16.93548c0,0 4.83309,1.16686 10.66276,-0.67423c8.62404,-2.7236 20.2394,-8.80964 28.20443,-8.80964c6.96697,0 17.10999,5.84327 26.06184,8.2557c8.63856,2.328 16.21475,1.22817 16.21475,1.22817v16.93548c0,0 -10.7668,0.29594 -19.85535,-2.1787c-9.5591,-2.60277 -17.62384,-7.98259 -24.46687,-7.98259c-6.22682,0 -12.36122,4.81185 -19.42948,7.10388c-8.47181,2.74717 -17.39208,3.05741 -17.39208,3.05741z" fill="#7688ff"/><path d="M3.02941,291.35625v-16.93548c0,0 4.83309,1.16686 10.66276,-0.67424c8.62404,-2.7236 20.2394,-8.80964 28.20443,-8.80964c6.96697,0 17.10999,5.84327 26.06184,8.2557c8.63856,2.328 16.21475,1.22817 16.21475,1.22817v16.93548c0,0 -10.7668,0.29594 -19.85535,-2.1787c-9.5591,-2.60277 -17.62384,-7.98259 -24.46688,-7.98259c-6.22682,0 -12.36122,4.81185 -19.42948,7.10388c-8.47181,2.74717 -17.39208,3.05741 -17.39208,3.05741z" fill="#7688ff"/><path d="M3.02941,361.80787v-16.93548c0,0 4.83309,1.16686 10.66276,-0.67424c8.62404,-2.7236 20.2394,-8.80964 28.20443,-8.80964c6.96697,0 17.10999,5.84327 26.06184,8.2557c8.63856,2.328 16.21475,1.22817 16.21475,1.22817v16.93548c0,0 -10.7668,0.29594 -19.85535,-2.1787c-9.5591,-2.60277 -17.62384,-7.98259 -24.46688,-7.98259c-6.22682,0 -12.36122,4.81185 -19.42948,7.10388c-8.47181,2.74717 -17.39208,3.05741 -17.39208,3.05741z" fill="#7688ff"/></g><g stroke-width="0"><path d="M81.62167,367.90464v-105h81.14378v105z" fill="#a9b4ff"/><path d="M81.62167,326.58206v-16.93548c0,0 4.83309,1.16686 10.66276,-0.67423c8.62404,-2.7236 20.2394,-8.80964 28.20443,-8.80964c6.96697,0 17.10999,5.84327 26.06184,8.2557c8.63856,2.328 16.21475,1.22817 16.21475,1.22817v16.93548c0,0 -10.7668,0.29594 -19.85535,-2.1787c-9.5591,-2.60277 -17.62384,-7.98259 -24.46687,-7.98259c-6.22682,0 -12.36122,4.81185 -19.42948,7.10388c-8.47181,2.74717 -17.39208,3.05741 -17.39208,3.05741z" fill="#7688ff"/><path d="M81.62167,291.35625v-16.93548c0,0 4.83309,1.16686 10.66276,-0.67424c8.62404,-2.7236 20.2394,-8.80964 28.20443,-8.80964c6.96697,0 17.10999,5.84327 26.06184,8.2557c8.63856,2.328 16.21475,1.22817 16.21475,1.22817v16.93548c0,0 -10.7668,0.29594 -19.85535,-2.1787c-9.5591,-2.60277 -17.62384,-7.98259 -24.46688,-7.98259c-6.22682,0 -12.36122,4.81185 -19.42948,7.10388c-8.47181,2.74717 -17.39208,3.05741 -17.39208,3.05741z" fill="#7688ff"/><path d="M81.62167,361.80787v-16.93548c0,0 4.83309,1.16686 10.66276,-0.67424c8.62404,-2.7236 20.2394,-8.80964 28.20443,-8.80964c6.96697,0 17.10999,5.84327 26.06184,8.2557c8.63856,2.328 16.21475,1.22817 16.21475,1.22817v16.93548c0,0 -10.7668,0.29594 -19.85535,-2.1787c-9.5591,-2.60277 -17.62384,-7.98259 -24.46688,-7.98259c-6.22682,0 -12.36122,4.81185 -19.42948,7.10388c-8.47181,2.74717 -17.39208,3.05741 -17.39208,3.05741z" fill="#7688ff"/></g></g></g></svg>