<svg version="1.1" xmlns="http://www.w3.org/2000/svg" xmlns:xlink="http://www.w3.org/1999/xlink" width="487.57459" height="144.77547" viewBox="0,0,487.57459,144.77547"><g transform="translate(2.94678,-219.19907)"><g data-paper-data="{&quot;isPaintingLayer&quot;:true}" fill-rule="nonzero" stroke="none" stroke-width="0" stroke-linecap="butt" stroke-linejoin="miter" stroke-miterlimit="10" stroke-dasharray="" stroke-dashoffset="0" style="mix-blend-mode: normal"><g><path d="M-1.89597,363.97454v-142.90979h101.92831v142.90979z" fill="#8aa2c6"/><path d="M-2.94678,232.07145v-12.87239h105.08073v12.87239h-29.94801l-10.51518,-7.83846l-33.61873,0.4828l-8.93186,7.35565z" fill="#c65757"/></g><g><path d="M93.7275,363.97454v-142.90979h101.92831v142.90979z" fill="#8aa2c6"/><path d="M92.67669,232.07145v-12.87239h105.08073v12.87239h-29.94801l-10.51518,-7.83846l-33.61873,0.4828l-8.93186,7.35565z" fill="#c65757"/></g><g><path d="M191.45258,363.97454v-142.90979h101.92831v142.90979z" fill="#8aa2c6"/><path d="M190.40177,232.07145v-12.87239h105.08073v12.87239h-29.94801l-10.51518,-7.83846l-33.61873,0.4828l-8.93186,7.35565z" fill="#c65757"/></g><g><path d="M287.07604,363.97454v-142.90979h101.92831v142.90979z" fill="#8aa2c6"/><path d="M286.02523,232.07145v-12.87239h105.08073v12.87239h-29.94801l-10.51518,-7.83846l-33.61873,0.4828l-8.93186,7.35565z" fill="#c65757"/></g><g><path d="M380.59789,363.97454v-142.90979h101.92831v142.90979z" fill="#8aa2c6"/><path d="M379.54708,232.07145v-12.87239h105.08073v12.87239h-29.94801l-10.51518,-7.83846l-33.61873,0.4828l-8.93186,7.35565z" fill="#c65757"/></g></g></g></svg>