<svg version="1.1" xmlns="http://www.w3.org/2000/svg" xmlns:xlink="http://www.w3.org/1999/xlink" width="615.006" height="593.85364" viewBox="0,0,615.006,593.85364"><defs><linearGradient x1="238.62857" y1="-16.17749" x2="238.62857" y2="376.82252" gradientUnits="userSpaceOnUse" id="color-1"><stop offset="0" stop-color="#ffa34d"/><stop offset="1" stop-color="#ff4dcd"/></linearGradient><radialGradient cx="226.25714" cy="246.82246" r="180" gradientUnits="userSpaceOnUse" id="color-2"><stop offset="0" stop-color="#ffca00"/><stop offset="1" stop-color="#ffca00" stop-opacity="0"/></radialGradient></defs><g transform="translate(80.003,16.17748)"><g data-paper-data="{&quot;isPaintingLayer&quot;:true}" fill-rule="nonzero" stroke="none" stroke-width="0" stroke-linecap="butt" stroke-linejoin="miter" stroke-miterlimit="10" stroke-dasharray="" stroke-dashoffset="0" style="mix-blend-mode: normal"><path d="M-25.37143,376.82252v-393h528v393z" fill="url(#color-1)"/><path d="M114.25714,249.82246c0,-62.96046 51.03954,-114 114,-114c62.96046,0 114,51.03954 114,114c0,62.96046 -51.03954,114 -114,114c-62.96046,0 -114,-51.03954 -114,-114z" fill="#ff9900"/><path d="M46.25714,246.82246c0,-99.41125 80.58875,-180 180,-180c99.41125,0 180,80.58875 180,180c0,99.41125 -80.58875,180 -180,180c-99.41125,0 -180,-80.58875 -180,-180z" fill="url(#color-2)"/><path d="M-17.1996,376.28877v-121.44215c0,0 47.05582,-16.52275 68.50473,-16.52275c21.40585,0 70.18299,9.75433 126.61098,11.84269c59.36776,2.19716 128.06292,-4.07103 185.51152,-3.45173c69.5998,0.75027 122.69225,8.13179 122.69225,8.13179v121.44215z" data-paper-data="{&quot;index&quot;:null}" fill="#0041ff"/><path d="M-25.003,398.82192v-124.50173c0,0 54.43005,-7.56748 125.78333,-8.33667c58.89594,-0.63488 129.3218,5.79121 190.18526,3.53871c57.84962,-2.14098 107.85565,-12.14106 129.80079,-12.14106c21.98929,0 70.23062,16.93902 70.23062,16.93902v124.50173z" data-paper-data="{&quot;index&quot;:null}" fill="#0074ff"/><path d="M-27.003,421.38332v-124.50173c0,0 54.43005,-7.56748 125.78333,-8.33667c58.89594,-0.63488 129.3218,5.79121 190.18526,3.53871c57.84962,-2.14098 107.85565,-12.14106 129.80079,-12.14106c21.98929,0 70.23062,16.93902 70.23062,16.93902v124.50173z" data-paper-data="{&quot;index&quot;:null}" fill="#008bff"/><path d="M-32.003,454.13648v-127.6384c0,0 49.45671,-17.36576 72,-17.36576c22.49802,0 73.76389,10.25202 133.07097,12.44694c62.39683,2.30927 134.59699,-4.27874 194.97675,-3.62785c73.15094,0.78855 128.95229,8.5467 128.95229,8.5467v127.6384z" fill="#00b1ff"/><path d="M-39.003,486.67615v-132.22423c0,0 57.80619,-8.03688 133.58531,-8.85376c62.54909,-0.67427 137.34326,6.15043 201.9819,3.75819c61.43786,-2.27378 114.54563,-12.89412 137.85196,-12.89412c23.35322,0 74.58683,17.98969 74.58683,17.98969v132.22423z" data-paper-data="{&quot;index&quot;:null}" fill="#00d8ff"/><path d="M-59.003,533.67616v-141.87553c0,0 54.97325,-19.30279 80.03106,-19.30279c25.0075,0 81.99171,11.39554 147.91404,13.83529c69.35674,2.56685 149.61028,-4.75599 216.72494,-4.03251c81.31038,0.87651 143.33596,9.50001 143.33596,9.50001v141.87553z" data-paper-data="{&quot;index&quot;:null}" fill="#39ffdb"/><path d="M-80.003,577.67616v-148.39016c0,0 64.87366,-9.01948 149.91764,-9.93623c70.19643,-0.75671 154.13505,6.90239 226.6765,4.21767c68.94934,-2.55178 128.55014,-14.47057 154.70594,-14.47057c26.20842,0 83.70592,20.18913 83.70592,20.18913v148.39016z" data-paper-data="{&quot;index&quot;:null}" fill="#6effe4"/></g></g></svg>