<svg version="1.1" xmlns="http://www.w3.org/2000/svg" xmlns:xlink="http://www.w3.org/1999/xlink" width="294.22604" height="249.77548" viewBox="0,0,294.22604,249.77548"><g transform="translate(-190.40179,-200.19906)"><g data-paper-data="{&quot;isPaintingLayer&quot;:true}" fill-rule="nonzero" stroke="none" stroke-width="0" stroke-linecap="butt" stroke-linejoin="miter" stroke-miterlimit="10" stroke-dasharray="" stroke-dashoffset="0" style="mix-blend-mode: normal"><g><path d="M191.45261,344.97455v-142.90979h101.92831v142.90979z" fill="#8aa2c6"/><path d="M190.4018,213.07146v-12.87239h105.08073v12.87239h-29.94801l-10.51518,-7.83846l-33.61873,0.4828l-8.93186,7.35565z" fill="#c65757"/></g><g><path d="M287.07607,396.97455v-142.90979h101.92831v142.90979z" fill="#8aa2c6"/><path d="M286.02526,265.07146v-12.87239h105.08073v12.87239h-29.94801l-10.51518,-7.83846l-33.61873,0.4828l-8.93186,7.35565z" fill="#c65757"/></g><g><path d="M380.59792,449.97455v-142.90979h101.92831v142.90979z" fill="#8aa2c6"/><path d="M379.54711,318.07146v-12.87239h105.08073v12.87239h-29.94801l-10.51518,-7.83846l-33.61873,0.4828l-8.93186,7.35565z" fill="#c65757"/></g><path d="M191.59791,414.97455v-142.90979h101.92831v142.90979z" fill="#8aa2c6"/></g></g></svg>