<svg version="1.1" xmlns="http://www.w3.org/2000/svg" xmlns:xlink="http://www.w3.org/1999/xlink" width="57.26509" height="47.47115" viewBox="0,0,57.26509,47.47115"><g transform="translate(-217.73549,-154.88425)"><g data-paper-data="{&quot;isPaintingLayer&quot;:true}" fill-rule="nonzero" stroke-width="2" stroke-linecap="butt" stroke-linejoin="miter" stroke-miterlimit="10" stroke-dasharray="" stroke-dashoffset="0" style="mix-blend-mode: normal"><path d="M247.35382,156.36803c2.81145,-1.62623 7.85884,0.98067 11.27367,5.82269c3.41483,4.84202 3.90398,10.08557 1.09253,11.71181c-2.81145,1.62623 -7.85885,-0.98067 -11.27368,-5.82269c-3.41483,-4.84202 -3.90398,-10.08558 -1.09253,-11.71182z" data-paper-data="{&quot;index&quot;:null}" fill="#c57eff" stroke="#864ab8"/><path d="M241.20792,199.62327l-7.25905,-7.73732l2.11267,-24.87891l7.22809,-5.52132l22.94482,1.4181l7.75813,8.44569l-0.09681,4.73124l-3.59761,-3.94012l-0.71291,7.6143l-5.80894,-6.66123l-0.29707,7.70998l-4.83755,-5.40472l-8.29942,5.00249l6.25462,7.45168l6.59713,-4.17246l0.12238,7.25851l5.85891,-4.60798l-0.60611,5.42932l4.24392,-3.48299l-0.42664,6.12334l-7.77594,6.92645z" data-paper-data="{&quot;index&quot;:null}" fill="#8c00ff" stroke="#6500b8"/><path d="M232.84524,160.40012c5.86869,3.50409 9.26012,8.6327 7.57494,11.45504c-1.68517,2.82234 -7.80879,2.26967 -13.67749,-1.23441c-5.86869,-3.50409 -9.26012,-8.6327 -7.57494,-11.45504c1.68517,-2.82234 7.80879,-2.26967 13.67749,1.23441z" data-paper-data="{&quot;index&quot;:null}" fill="#c57eff" stroke="#864ab8"/></g></g></svg>