<svg version="1.1" xmlns="http://www.w3.org/2000/svg" xmlns:xlink="http://www.w3.org/1999/xlink" width="534.85531" height="329.9064" viewBox="0,0,534.85531,329.9064"><defs><radialGradient cx="334.52306" cy="132.35981" r="23.27442" gradientUnits="userSpaceOnUse" id="color-1"><stop offset="0" stop-color="#fff696"/><stop offset="1" stop-color="#ffde00"/></radialGradient></defs><g transform="translate(-15.9144,-4.58945)"><g data-paper-data="{&quot;isPaintingLayer&quot;:true}" fill-rule="nonzero" stroke-linejoin="miter" stroke-miterlimit="10" stroke-dasharray="" stroke-dashoffset="0" style="mix-blend-mode: normal"><path d="M524.75243,101.41056c0,0 -12.17349,3.29255 -5.29919,16.87445c8.62458,17.04002 31.31647,2.28286 31.31647,2.28286c0,0 -17.97931,21.98117 -40.15791,21.98117c-22.1786,0 -40.15791,-9.84129 -40.15791,-21.98117c0,-12.13985 17.97931,-21.98117 40.15791,-21.98117c4.97691,0 14.14063,2.82387 14.14063,2.82387z" data-paper-data="{&quot;index&quot;:null}" fill="#ff6900" stroke="none" stroke-width="0" stroke-linecap="butt"/><path d="M388.86996,5.58945c37.58687,0 68.05707,30.65944 68.05707,68.47979c0,37.82036 -30.4702,68.47979 -68.05707,68.47979c-37.58687,0 -68.05707,-30.65944 -68.05707,-68.47979c0,-37.82036 30.4702,-68.47979 68.05707,-68.47979z" data-paper-data="{&quot;index&quot;:null}" fill="#ff001e" stroke="#9e0000" stroke-width="2" stroke-linecap="butt"/><path d="M355.2889,103.23197c0,0 1.38807,-18.08013 12.95181,-17.82705c15.07078,0.32979 23.18322,14.19935 23.18322,14.19935" data-paper-data="{&quot;index&quot;:null}" fill="none" stroke="#000000" stroke-width="2" stroke-linecap="round"/><path d="M379.99295,33.48864c1.86768,0 3.38171,10.97682 3.38171,24.51745c0,13.54059 -1.51404,24.51745 -3.38171,24.51745c-1.86768,0 -3.38171,-10.97682 -3.38171,-24.51745c0,-13.54059 1.51404,-24.51745 3.38171,-24.51745z" data-paper-data="{&quot;index&quot;:null}" fill="#000000" stroke="#000000" stroke-width="2" stroke-linecap="butt"/><path d="M363.5071,81.67812c-1.6342,0 -2.95899,-10.59834 -2.95899,-23.67203c0,-13.07369 1.32477,-23.67203 2.95899,-23.67203c1.6342,0 2.95899,10.59834 2.95899,23.67203c0,13.07369 -1.32477,23.67203 -2.95899,23.67203z" data-paper-data="{&quot;index&quot;:null}" fill="#000000" stroke="#000000" stroke-width="2" stroke-linecap="butt"/><path d="M392.67439,176.36619c-157.87827,1.71778 -84.54295,-120.05099 -84.54295,-120.05099c0,0 -17.14503,47.59018 59.23765,46.44355c80.9249,-1.21482 130.98399,-42.21639 130.98399,-42.21639c0,0 47.113,114.16142 -105.67868,115.82386z" data-paper-data="{&quot;index&quot;:null}" fill="#475875" stroke="#232c43" stroke-width="2" stroke-linecap="butt"/><path d="M404.79676,24.78445c0,0 -3.98089,-1.36677 -11.51575,7.16872c-6.42847,7.28213 -9.82377,29.17277 -18.95163,26.56147c-2.77333,-0.79337 -2.98472,-6.91616 -2.98472,-6.91616c0,0 -2.15786,7.43932 -5.16184,6.59301c-8.11774,-2.28689 -3.60538,-16.17889 -7.83424,-25.27607c-4.02486,-8.65836 -10.95445,-13.28861 -10.95445,-13.28861" data-paper-data="{&quot;index&quot;:null}" fill="#ff001e" stroke="#9e0000" stroke-width="2" stroke-linecap="round"/><path d="M334.52306,155.63423c-12.8541,0 -23.27442,-10.42033 -23.27442,-23.27442c0,-12.8541 10.42033,-23.27442 23.27442,-23.27442c12.8541,0 23.27442,10.42033 23.27442,23.27442c0,12.8541 -10.42033,23.27442 -23.27442,23.27442z" data-paper-data="{&quot;index&quot;:null}" fill="url(#color-1)" stroke="#ff9400" stroke-width="2" stroke-linecap="butt"/><path d="M493.54167,99.60838c0,0 -15.47159,11.19973 -25.20229,15.90814c-10.38813,5.02652 -36.67698,14.1953 -36.67698,14.1953l-16.39868,-9.38576l11.66019,-14.86423c0,0 27.05939,-4.34937 37.91645,-7.77791c10.29719,-3.25174 25.63525,-12.29104 25.63525,-12.29104l3.06609,14.2155z" data-paper-data="{&quot;index&quot;:null}" fill="#ff0000" stroke="#9e0000" stroke-width="2" stroke-linecap="butt"/><path d="M150.0075,158.73064c0,-29.91665 54.6739,-54.16889 122.11759,-54.16889c67.44368,0 122.11759,24.25224 122.11759,54.16889c0,29.91665 -54.6739,54.1689 -122.11759,54.1689c-19.67348,0 -54.7206,-5.72954 -54.7206,-5.72954c0,0 -10.96069,6.84838 -19.55098,8.74773c-9.65078,2.13383 -35.54341,3.43389 -35.54341,3.43389c0,0 11.42881,-12.35382 14.39816,-18.12985c2.16777,-4.21678 1.78238,-13.34481 1.78238,-13.34481c0,0 -28.48315,-19.64845 -28.48315,-29.14632z" data-paper-data="{&quot;index&quot;:null}" fill="#ffffff" stroke="#00c1ff" stroke-width="2" stroke-linecap="butt"/><path d="M16.91866,266.75059c-0.41452,-37.27691 29.46836,-67.83186 66.74527,-68.24638c37.27691,-0.41452 67.83186,29.46836 68.24638,66.74527c0.41452,37.27691 -29.46836,67.83186 -66.74527,68.24638c-37.27691,0.41452 -67.83186,-29.46836 -68.24638,-66.74527z" data-paper-data="{&quot;index&quot;:null}" fill="#0068ff" stroke="#0010c7" stroke-width="2" stroke-linecap="butt"/><path d="M139.76048,213.5285l-31,9l-54,-39" fill="none" stroke="#000000" stroke-width="2" stroke-linecap="round"/><path d="M106.46244,240.642c0,13.07074 -2.01472,23.66667 -4.5,23.66667c-2.48528,0 -4.5,-10.59593 -4.5,-23.66667c0,-13.07074 2.01472,-23.66667 4.5,-23.66667c2.48528,0 4.5,10.59593 4.5,23.66667z" fill="#000000" stroke="none" stroke-width="0" stroke-linecap="butt"/><path d="M124.46244,241.642c0,12.88664 -1.567,23.33333 -3.5,23.33333c-1.933,0 -3.5,-10.44669 -3.5,-23.33333c0,-12.88664 1.567,-23.33333 3.5,-23.33333c1.933,0 3.5,10.44669 3.5,23.33333z" fill="#000000" stroke="none" stroke-width="0" stroke-linecap="butt"/><path d="M122.46244,299.4952c0,0 -35.49411,4.24868 -49.59324,-0.27026c-11.25433,-3.60716 -28.40676,-24.72971 -28.40676,-24.72971" data-paper-data="{&quot;index&quot;:null}" fill="none" stroke="#000000" stroke-width="2" stroke-linecap="round"/><text transform="translate(181.5899,143.28111) scale(0.33203,0.33203)" font-size="40" xml:space="preserve" fill="#00c1ff" fill-rule="nonzero" stroke="none" stroke-width="1" stroke-linecap="butt" stroke-linejoin="miter" stroke-miterlimit="10" stroke-dasharray="" stroke-dashoffset="0" font-family="Marker" font-weight="normal" text-anchor="start" style="mix-blend-mode: normal"><tspan x="0" dy="0">Your bad insults don't affect</tspan><tspan x="0" dy="48px">me! Now...</tspan></text></g></g></svg>