<svg version="1.1" xmlns="http://www.w3.org/2000/svg" xmlns:xlink="http://www.w3.org/1999/xlink" width="216.5052" height="145.23274" viewBox="0,0,216.5052,145.23274"><g transform="translate(-129.4948,-79.33499)"><g data-paper-data="{&quot;isPaintingLayer&quot;:true}" fill-rule="nonzero" stroke-linecap="butt" stroke-linejoin="miter" stroke-miterlimit="10" stroke-dasharray="" stroke-dashoffset="0" style="mix-blend-mode: normal"><path d="M249.99536,165.53751c0,0 -0.16351,2.77508 -0.88004,3.47372c-0.89336,0.87106 -4.06761,1.35038 -4.06761,1.35038l-29.66314,0.19579c0,0 -3.18402,-0.69402 -4.00494,-2.16403c-0.69592,-1.24618 -0.60779,-4.77494 -0.60779,-4.77494l0.44432,-25.33328c0,0 0.03594,-4.19844 0.77158,-5.18543c0.82065,-1.10106 3.92524,-1.11619 3.92524,-1.11619l26.94883,0.21353c0,0 4.54134,-0.11274 5.74003,1.00567c1.17883,1.09988 1.39352,5.65011 1.39352,5.65011v26.68466z" data-paper-data="{&quot;index&quot;:null}" fill="#00ff3f" stroke="#00c230" stroke-width="5"/><path d="M240.88031,157.34716v-16.57934l3.17045,-0.06555v16.64489z" data-paper-data="{&quot;index&quot;:null}" fill="#000000" stroke="none" stroke-width="5"/><path d="M235.332,157.34717v-16.64489l3.17046,0.06556v16.57933z" data-paper-data="{&quot;index&quot;:null}" fill="#000000" stroke="none" stroke-width="5"/><path d="M233.02698,145.96145v-1.75194h3.09958v1.75194z" fill="#000000" stroke="none" stroke-width="5"/><path d="M243.5386,146.09622v-1.61717h2.69529v1.61717z" fill="#000000" stroke="none" stroke-width="5"/><path d="M264.31781,107.79539c0,-14.33753 11.62287,-25.9604 25.9604,-25.9604c14.33753,0 25.9604,11.62287 25.9604,25.9604c0,14.33753 -11.62287,25.9604 -25.9604,25.9604c-14.33753,0 -25.9604,-11.62287 -25.9604,-25.9604z" fill="#0068ff" stroke="#0010c7" stroke-width="5"/><path d="M302.08544,109.22383c0,4.77918 -0.9176,8.65347 -2.0495,8.65347c-1.13191,0 -2.0495,-3.87429 -2.0495,-8.65347c0,-4.77918 0.9176,-8.65347 2.0495,-8.65347c1.13191,0 2.0495,3.87429 2.0495,8.65347z" fill="#000000" stroke="none" stroke-width="0"/><path d="M307.55079,101.70898c0.75461,0 1.36634,3.36452 1.36634,7.51485c0,4.15034 -0.61173,7.51485 -1.36634,7.51485c-0.75461,0 -1.36634,-3.36452 -1.36634,-7.51485c0,-4.15034 0.61173,-7.51485 1.36634,-7.51485z" fill="#000000" stroke="none" stroke-width="0"/><path d="M141.96535,187.22614v-37.57426c0,0 8.44841,-8.66862 22.54455,2.73267c5.95029,4.81273 7.03867,9.72114 11.04698,16.15562c5.48732,8.80872 12.86391,18.68597 12.86391,18.68597z" fill="#b0ccd7" stroke="#639b9b" stroke-width="5"/><path d="M338.03465,194.05783c0,15.46944 -37.00965,28.0099 -82.66337,28.0099c-45.65371,0 -118.87129,-32.10891 -118.87129,-32.10891c0,0 73.21757,-23.91089 118.87129,-23.91089c45.65371,0 82.66337,12.54046 82.66337,28.0099z" fill="#00bcff" stroke="#00b1b1" stroke-width="5"/><path d="M343.5,192.00832c0,2.26382 -1.68225,4.09901 -3.75743,4.09901c-2.07517,0 -3.75743,-1.83519 -3.75743,-4.09901c0,-2.26382 1.68225,-4.09901 3.75743,-4.09901c2.07517,0 3.75743,1.83519 3.75743,4.09901z" fill="#b0ccd7" stroke="#639b9b" stroke-width="5"/><path d="M337.00782,203.26099v-25h4.55446v25z" fill="#b0ccd7" stroke="#639b9b" stroke-width="5"/><path d="M269.76318,143.7386l5.92288,-4.90489l32.69927,39.48591l-5.92288,4.90489z" fill="#b0ccd7" stroke="#639b9b" stroke-width="5"/><path d="M263.56931,180.16673v-40.9901h6.14851v40.9901z" fill="#b0ccd7" stroke="#639b9b" stroke-width="5"/><path d="M312.75743,181.30535v-42.58416h5.46535v42.58416z" fill="#b0ccd7" stroke="#639b9b" stroke-width="5"/><path d="M258.10396,142.13703v-8.19802h65.58416v8.19802z" fill="#b0ccd7" stroke="#639b9b" stroke-width="5"/><path d="M258.78713,185.8598v-7.51485h63.53465v7.51485z" fill="#b0ccd7" stroke="#639b9b" stroke-width="5"/></g></g></svg>