<svg version="1.1" xmlns="http://www.w3.org/2000/svg" xmlns:xlink="http://www.w3.org/1999/xlink" width="486.22604" height="144.77548" viewBox="0,0,486.22604,144.77548"><g transform="translate(1.59821,-305.19907)"><g data-paper-data="{&quot;isPaintingLayer&quot;:true}" fill-rule="nonzero" stroke="none" stroke-width="0" stroke-linecap="butt" stroke-linejoin="miter" stroke-miterlimit="10" stroke-dasharray="" stroke-dashoffset="0" style="mix-blend-mode: normal"><g><path d="M191.4526,449.97455v-142.90979h101.92831v142.90979z" fill="#8aa2c6"/><path d="M190.40179,318.07146v-12.87239h105.08073v12.87239h-29.94801l-10.51518,-7.83846l-33.61873,0.4828l-8.93186,7.35565z" fill="#c65757"/></g><g><path d="M287.07606,449.97455v-142.90979h101.92831v142.90979z" fill="#8aa2c6"/><path d="M286.02525,318.07146v-12.87239h105.08073v12.87239h-29.94801l-10.51518,-7.83846l-33.61873,0.4828l-8.93186,7.35565z" fill="#c65757"/></g><g><path d="M380.59791,449.97455v-142.90979h101.92831v142.90979z" fill="#8aa2c6"/><path d="M379.5471,318.07146v-12.87239h105.08073v12.87239h-29.94801l-10.51518,-7.83846l-33.61873,0.4828l-8.93186,7.35565z" fill="#c65757"/></g><g><path d="M-0.54741,449.97455v-142.90979h101.92831v142.90979z" fill="#8aa2c6"/><path d="M-1.59821,318.07146v-12.87239h105.08073v12.87239h-29.94801l-10.51518,-7.83846l-33.61873,0.4828l-8.93186,7.35565z" fill="#c65757"/></g><g><path d="M95.07606,449.97455v-142.90979h101.92831v142.90979z" fill="#8aa2c6"/><path d="M94.02525,318.07146v-12.87239h105.08073v12.87239h-29.94801l-10.51518,-7.83846l-33.61873,0.4828l-8.93186,7.35565z" fill="#c65757"/></g></g></g></svg>