<svg version="1.1" xmlns="http://www.w3.org/2000/svg" xmlns:xlink="http://www.w3.org/1999/xlink" width="701.2012" height="460.96096" viewBox="0,0,701.2012,460.96096"><g transform="translate(86.57658,49.72973)"><g data-paper-data="{&quot;isPaintingLayer&quot;:true}" fill-rule="nonzero" stroke="none" stroke-linecap="butt" stroke-linejoin="miter" stroke-miterlimit="10" stroke-dasharray="" stroke-dashoffset="0" style="mix-blend-mode: normal"><path d="M-86.57658,411.23123v-460.96096h680.18018v460.96096z" fill="#e2e2e2" stroke-width="NaN"/><path d="M613.12312,241.56156v-3.003h1.5015v3.003z" fill="#e2e2e2" stroke-width="0"/><text transform="translate(6.51652,47.49249) scale(1.15094,1.18324)" font-size="40" xml:space="preserve" fill="#3b3b3b" fill-rule="nonzero" stroke="none" stroke-width="1" stroke-linecap="butt" stroke-linejoin="miter" stroke-miterlimit="10" stroke-dasharray="" stroke-dashoffset="0" font-family="Serif" font-weight="normal" text-anchor="start" style="mix-blend-mode: normal"><tspan x="0" dy="0">BLUEBALL'S SECOND </tspan><tspan x="0" dy="46.150000000000006px"> COOL ADVENTURE</tspan></text><text transform="translate(25.84242,339.29728) scale(1.0531,1.0531)" font-size="40" xml:space="preserve" fill="#3b3b3b" fill-rule="nonzero" stroke="none" stroke-width="1" stroke-linecap="butt" stroke-linejoin="miter" stroke-miterlimit="10" stroke-dasharray="" stroke-dashoffset="0" font-family="Serif" font-weight="normal" text-anchor="start" style="mix-blend-mode: normal"><tspan x="0" dy="0">DIGITAL GUIDEBOOK</tspan></text><text transform="translate(27.53754,297.11712) scale(0.5,0.5)" font-size="40" xml:space="preserve" fill="#3b3b3b" fill-rule="nonzero" stroke="none" stroke-width="1" stroke-linecap="butt" stroke-linejoin="miter" stroke-miterlimit="10" stroke-dasharray="" stroke-dashoffset="0" font-family="Serif" font-weight="normal" text-anchor="start" style="mix-blend-mode: normal"><tspan x="0" dy="0">use arrow keys to turn pages, space to close</tspan></text><text transform="translate(263.80471,225.29767) rotate(-10.97808) scale(1.54009,1.54009)" font-size="40" xml:space="preserve" fill="#000000" fill-rule="nonzero" stroke="none" stroke-width="1" stroke-linecap="butt" stroke-linejoin="miter" stroke-miterlimit="10" stroke-dasharray="" stroke-dashoffset="0" font-family="Handwriting" font-weight="normal" text-anchor="start" style="mix-blend-mode: normal"><tspan x="0" dy="0">DEMO</tspan></text><path d="M278.86112,131.90626l17.5,-8.75h0.55554c2.92364,0.00064 5.84945,-0.05347 8.768,-0.22596c34.84895,-2.04989 69.36958,3.59192 102.69089,13.62541c11.08281,3.33718 23.24838,5.97305 33.58096,11.3257c0.15479,0.08019 8.25104,5.50082 8.51569,5.67897c6.19875,4.17274 11.57773,9.84322 11.46038,17.9089c-0.10429,7.16754 -3.44289,12.72351 -6.7044,18.70706c-0.70202,1.28793 -0.84673,2.8957 -1.7875,4.02111c-2.20233,2.63458 -7.73533,5.95332 -10.52453,8.08284c-3.53762,2.83015 -6.99485,6.14694 -10.68468,8.7628c-2.47218,1.75262 -5.29771,2.94698 -7.88934,4.5176c-8.87099,5.3761 -18.10371,10.69868 -28.13397,13.78645c-4.77663,1.47046 -9.96515,2.06616 -14.83743,3.18886c-9.33305,2.15057 -18.64268,4.06167 -28.06063,5.83551c-21.89808,4.37975 -44.48834,8.76957 -66.83893,9.78235c-11.62279,0.52667 -23.42376,-1.09862 -34.99213,-2.05067c-5.13146,-0.43592 -10.62757,-1.33172 -15.37722,-3.50802c-4.81209,-2.20491 -5.09337,-3.20485 -8.38489,-7.07119c-1.20459,-1.41496 -2.71527,-2.62952 -3.57698,-4.27591c-1.13833,-2.17491 -1.55726,-6.69356 -1.86158,-9.20919c-0.21855,-1.80657 -0.71647,-3.60425 -0.63494,-5.42216c0.21166,-4.71956 2.44687,-9.77738 4.61134,-13.84982c3.75017,-7.05591 8.23429,-14.27601 13.90044,-19.9958c4.62459,-4.66837 10.45554,-7.99678 15.97551,-11.44663c6.28188,-4.0642 12.47173,-8.77908 19.05852,-12.31982c9.85088,-5.29537 20.75186,-8.20034 31.42363,-11.28715c9.44813,-2.73287 19.25459,-5.00768 29.04812,-3.41611c0,0 2.46599,0.41099 2.055,2.87697c-0.41099,2.46599 -2.87697,2.055 -2.87697,2.055c-8.96782,-1.53711 -18.18752,0.78126 -26.83578,3.28694c-10.32905,2.99266 -20.90964,5.76176 -30.44659,10.88837c-6.47803,3.48228 -12.56379,8.1378 -18.7429,12.13498c-5.20694,3.25444 -10.77562,6.36637 -15.13564,10.7756c-7.12294,7.20334 -13.62894,17.23251 -16.1043,27.01629c-2.34137,9.25415 1.2345,20.60024 10.57766,24.69904c4.29353,1.88355 9.12298,2.71928 13.73769,3.08546c11.35489,0.93448 22.95339,2.55639 34.36191,2.03867c22.10436,-1.0031 44.44977,-5.36451 66.106,-9.69553c9.35881,-1.76286 18.60922,-3.66047 27.88336,-5.79775c4.7549,-1.09579 9.83508,-1.66194 14.49665,-3.09698c16.78691,-5.16778 31.59168,-15.42104 45.09998,-26.22759c2.33973,-1.78659 7.75015,-4.91664 9.66676,-7.22579c0.75936,-0.91488 0.7637,-2.26334 1.32362,-3.31221c2.89274,-5.4188 5.85239,-9.99716 6.10675,-16.46011c0.24336,-6.18346 -4.61185,-10.54896 -9.24238,-13.62673c-2.68737,-1.78621 -5.17187,-3.91186 -8.03716,-5.39599c-10.04536,-5.20318 -21.94623,-7.73232 -32.72072,-10.97666c-32.76097,-9.86476 -66.69134,-15.43719 -100.95566,-13.4217c-3.01638,0.17661 -6.04005,0.23395 -9.0616,0.23459h-0.55554z" fill="#000000" stroke-width="0.5"/></g></g></svg>