<svg version="1.1" xmlns="http://www.w3.org/2000/svg" xmlns:xlink="http://www.w3.org/1999/xlink" width="58.4363" height="43.75911" viewBox="0,0,58.4363,43.75911"><g transform="translate(-216.89022,-159.53031)"><g data-paper-data="{&quot;isPaintingLayer&quot;:true}" fill-rule="nonzero" stroke-width="2" stroke-linecap="butt" stroke-linejoin="miter" stroke-miterlimit="10" stroke-dasharray="" stroke-dashoffset="0" style="mix-blend-mode: normal"><path d="M245.26629,165.42776c2.287,-1.93284 7.59478,-2.1135 11.85527,-0.40351c4.2605,1.70999 5.86035,4.66309 3.57335,6.59594c-2.287,1.93285 -7.59479,2.11351 -11.85528,0.40352c-4.2605,-1.70999 -5.86035,-4.6631 -3.57335,-6.59595z" data-paper-data="{&quot;index&quot;:null}" fill="#c57eff" stroke="#864ab8"/><path d="M239.00745,198.35284l-6.50538,-8.38093l4.42498,-24.57322l7.71176,-4.82275l22.71238,3.55297l6.93618,9.13278l-0.53788,4.70156l-3.21425,-4.25863l-1.42031,7.51455l-5.16201,-7.17422l-1.01522,7.64862l-4.31211,-5.83255l-8.73001,4.20622l5.53199,8.00281l6.95769,-3.53865l-0.55547,7.23826l6.26333,-4.04116l-1.11009,5.34907l4.55041,-3.07178l-0.99617,6.05681l-8.38834,6.17063z" data-paper-data="{&quot;index&quot;:null}" fill="#8c00ff" stroke="#6500b8"/><path d="M229.86531,163.58665c6.82154,-0.43226 12.52003,1.87677 12.7279,5.15735c0.20788,3.28058 -5.15355,6.29043 -11.97509,6.7227c-6.82154,0.43226 -12.52003,-1.87677 -12.7279,-5.15735c-0.20788,-3.28058 5.15355,-6.29043 11.97509,-6.7227z" data-paper-data="{&quot;index&quot;:null}" fill="#c57eff" stroke="#864ab8"/></g></g></svg>