<svg version="1.1" xmlns="http://www.w3.org/2000/svg" xmlns:xlink="http://www.w3.org/1999/xlink" width="281.32337" height="117.33017" viewBox="0,0,281.32337,117.33017"><g transform="translate(-195.99092,-140.96423)"><g data-paper-data="{&quot;isPaintingLayer&quot;:true}" fill-rule="nonzero" stroke="none" stroke-width="0" stroke-linecap="butt" stroke-linejoin="miter" stroke-miterlimit="10" stroke-dasharray="" stroke-dashoffset="0" style="mix-blend-mode: normal"><path d="" fill="#c4a062"/><path d="" fill="#c4a062"/><path d="M306.63738,206.0899c0.85709,0 -0.85708,0 0,0z" fill="#c4a062"/><path d="" fill="#c4a062"/><path d="" fill="#c4a062"/><path d="" fill="#c4a062"/><path d="" fill="#c4a062"/><g><path d="M403.31429,157.34061v-14.5h74v14.5z" fill="#7e4a00"/><path d="M403.37857,149.34061v-7h73.5v7z" fill="#c27100"/></g><g><path d="M302.10845,202.79441l1,-61.83016h86.4538v64.33016c0,0 -19.56755,10.72092 -48.25213,10.19184c-24.92942,-0.45982 -39.20167,-12.69184 -39.20167,-12.69184z" fill="#ffd07f"/><path d="M302.5507,194.39654v-44.46195h87.07133v44.46195l-21.45457,-19.42622l-22.75369,13.91486l-17.7351,-19.18972z" fill="#7c653e"/><path d="M302.49092,185.4262v-44.46196h87.07133v44.46196l-21.45457,-19.42622l-22.7537,13.91486l-17.7351,-19.18972z" fill="#76cc00"/><path d="M310.36802,195.08745c0,-0.85708 0.6948,-1.55189 1.55189,-1.55189c0.85708,0 1.55189,0.6948 1.55189,1.55189c0,0.85708 -0.6948,1.55189 -1.55189,1.55189c-0.85708,0 -1.55189,-0.6948 -1.55189,-1.55189z" fill="#c4a062"/><path d="M366.02384,202.22373c0,-0.85709 0.6948,-1.55188 1.55189,-1.55188c0.85709,0 1.55189,0.6948 1.55189,1.55188c0,0.85709 -0.6948,1.55189 -1.55189,1.55189c-0.85709,0 -1.55189,-0.6948 -1.55189,-1.55189z" fill="#c4a062"/></g><g><path d="M196.60845,258.29441v-117.33016h86.4538v117.33016z" fill="#ffd07f"/><path d="M196.0507,194.39654v-44.46195h87.07133v44.46195l-21.45457,-19.42622l-22.75369,13.91486l-17.7351,-19.18972z" fill="#7c653e"/><path d="M195.99092,185.4262v-44.46196h87.07133v44.46196l-21.45457,-19.42622l-22.7537,13.91486l-17.7351,-19.18972z" fill="#76cc00"/><path d="M203.86802,195.08745c0,-0.85708 0.6948,-1.55189 1.55189,-1.55189c0.85708,0 1.55189,0.6948 1.55189,1.55189c0,0.85708 -0.6948,1.55189 -1.55189,1.55189c-0.85708,0 -1.55189,-0.6948 -1.55189,-1.55189z" fill="#c4a062"/><path d="M238.56885,211.13321c0,-0.85709 0.6948,-1.55188 1.55188,-1.55188c0.85709,0 1.55189,0.6948 1.55189,1.55188c0,0.85709 -0.6948,1.55189 -1.55189,1.55189c-0.85709,0 -1.55188,-0.6948 -1.55188,-1.55189z" fill="#c4a062"/><path d="M259.52384,202.22373c0,-0.85709 0.6948,-1.55188 1.55189,-1.55188c0.85709,0 1.55189,0.6948 1.55189,1.55188c0,0.85709 -0.6948,1.55189 -1.55189,1.55189c-0.85709,0 -1.55189,-0.6948 -1.55189,-1.55189z" fill="#c4a062"/><path d="M214.04061,228.98797c0,-0.85709 0.6948,-1.55188 1.55188,-1.55188c0.85709,0 1.55189,0.6948 1.55189,1.55188c0,0.85709 -0.6948,1.55189 -1.55189,1.55189c-0.85709,0 -1.55188,-0.6948 -1.55188,-1.55189z" fill="#c4a062"/><path d="M198.5855,207.64178c0,-0.85709 0.6948,-1.55188 1.55188,-1.55188c0.85709,0 1.55189,0.6948 1.55189,1.55188c0,0.85709 -0.6948,1.55189 -1.55189,1.55189c-0.85709,0 -1.55188,-0.6948 -1.55188,-1.55189z" fill="#c4a062"/><path d="M236.47732,239.96982c0,-0.85709 0.6948,-1.55188 1.55188,-1.55188c0.85709,0 1.55189,0.6948 1.55189,1.55188c0,0.85709 -0.6948,1.55189 -1.55189,1.55189c-0.85709,0 -1.55188,-0.6948 -1.55188,-1.55189z" fill="#c4a062"/><path d="M267.93116,227.4414c0,-0.85709 0.6948,-1.55188 1.55189,-1.55188c0.85708,0 1.55189,0.6948 1.55189,1.55188c0,0.85709 -0.6948,1.55189 -1.55189,1.55189c-0.85709,0 -1.55189,-0.6948 -1.55189,-1.55189z" fill="#c4a062"/><path d="M254.51491,246.98055c0,-0.85709 0.6948,-1.55188 1.55188,-1.55188c0.85709,0 1.55189,0.6948 1.55189,1.55188c0,0.85709 -0.6948,1.55189 -1.55189,1.55189c-0.85709,0 -1.55188,-0.6948 -1.55188,-1.55189z" fill="#c4a062"/><path d="M214.09739,253.36523c0,-0.85709 0.6948,-1.55188 1.55188,-1.55188c0.85709,0 1.55189,0.6948 1.55189,1.55188c0,0.85709 -0.6948,1.55189 -1.55189,1.55189c-0.85709,0 -1.55188,-0.6948 -1.55188,-1.55189z" fill="#c4a062"/></g></g></g></svg>