<svg version="1.1" xmlns="http://www.w3.org/2000/svg" xmlns:xlink="http://www.w3.org/1999/xlink" width="204.48528" height="150.30869" viewBox="0,0,204.48528,150.30869"><g transform="translate(-137.70982,-104.84566)"><g data-paper-data="{&quot;isPaintingLayer&quot;:true}" fill-rule="nonzero" stroke="none" stroke-linecap="butt" stroke-linejoin="miter" stroke-miterlimit="10" stroke-dasharray="" stroke-dashoffset="0" style="mix-blend-mode: normal"><text transform="translate(281.81606,218.30425) scale(1.54167,1.54167)" font-size="40" xml:space="preserve" fill="#000000" fill-rule="nonzero" stroke="none" stroke-width="1" stroke-linecap="butt" stroke-linejoin="miter" stroke-miterlimit="10" stroke-dasharray="" stroke-dashoffset="0" font-family="Pixel" font-weight="normal" text-anchor="start" style="mix-blend-mode: normal"><tspan x="0" dy="0">1</tspan></text><path d="M209.51046,139.3182c34.10978,-28.7976 79.21744,-31.46637 100.75078,-5.96086c21.53334,25.50551 11.33812,69.52688 -22.77166,98.32448c-34.10978,28.7976 -79.21744,31.46637 -100.75078,5.96086c-21.53334,-25.50551 -11.33812,-69.52688 22.77166,-98.32448z" fill="#000000" stroke-width="0"/><path d="M192.51046,128.3182c34.10978,-28.7976 79.21744,-31.46637 100.75078,-5.96086c21.53334,25.50551 11.33812,69.52688 -22.77166,98.32448c-34.10978,28.7976 -79.21744,31.46637 -100.75078,5.96086c-21.53334,-25.50551 -11.33812,-69.52688 22.77166,-98.32448z" fill="#0068ff" stroke-width="0"/><text transform="translate(138.12858,154.85105) scale(0.83753,0.83753)" font-size="40" xml:space="preserve" fill="#ffffff" fill-rule="nonzero" stroke="none" stroke-width="1" stroke-linecap="butt" stroke-linejoin="miter" stroke-miterlimit="10" stroke-dasharray="" stroke-dashoffset="0" font-family="Serif" font-weight="normal" text-anchor="start" style="mix-blend-mode: normal"><tspan x="0" dy="0">SHUTTLE</tspan><tspan x="0" dy="46.15px">SHOWDOWN</tspan></text></g></g></svg>