<svg version="1.1" xmlns="http://www.w3.org/2000/svg" xmlns:xlink="http://www.w3.org/1999/xlink" width="526.20754" height="258.90644" viewBox="0,0,526.20754,258.90644"><g transform="translate(2.90681,-118.61439)"><g data-paper-data="{&quot;isPaintingLayer&quot;:true}" fill-rule="nonzero" stroke="none" stroke-width="0" stroke-linecap="butt" stroke-linejoin="miter" stroke-miterlimit="10" stroke-dasharray="" stroke-dashoffset="0" style="mix-blend-mode: normal"><g><path d="M-2.32117,377.44801v-111.26977h81.98825v111.26977z" fill="#ffd07f"/><path d="M-2.85011,316.85063v-42.16538h82.57388v42.16538l-20.34639,-18.42281l-21.57841,13.19612l-16.81904,-18.19852z" fill="#7c653e"/><path d="M-2.90681,308.34363v-42.16539h82.57388v42.16539l-20.34639,-18.42281l-21.57841,13.19612l-16.81904,-18.19852z" fill="#76cc00"/><path d="M4.56342,317.50585c0,-0.81281 0.65891,-1.47173 1.47173,-1.47173c0.81281,0 1.47173,0.65891 1.47173,1.47173c0,0.81281 -0.65892,1.47173 -1.47173,1.47173c-0.81281,0 -1.47173,-0.65892 -1.47173,-1.47173z" fill="#c4a062"/><path d="M37.47186,332.7228c0,-0.81281 0.65891,-1.47173 1.47173,-1.47173c0.81281,0 1.47173,0.65891 1.47173,1.47173c0,0.81281 -0.65892,1.47173 -1.47173,1.47173c-0.81281,0 -1.47173,-0.65892 -1.47173,-1.47173z" fill="#c4a062"/><path d="M57.34448,324.27353c0,-0.81281 0.65891,-1.47173 1.47173,-1.47173c0.81281,0 1.47173,0.65891 1.47173,1.47173c0,0.81281 -0.65892,1.47173 -1.47173,1.47173c-0.81281,0 -1.47173,-0.65892 -1.47173,-1.47173z" fill="#c4a062"/><path d="M14.21058,349.65533c0,-0.81281 0.65891,-1.47173 1.47173,-1.47173c0.81281,0 1.47173,0.65891 1.47173,1.47173c0,0.81281 -0.65892,1.47173 -1.47173,1.47173c-0.81281,0 -1.47173,-0.65892 -1.47173,-1.47173z" fill="#c4a062"/><path d="M-0.44624,329.41173c0,-0.81281 0.65891,-1.47173 1.47173,-1.47173c0.81281,0 1.47173,0.65891 1.47173,1.47173c0,0.81281 -0.65892,1.47173 -1.47173,1.47173c-0.81281,0 -1.47173,-0.65892 -1.47173,-1.47173z" fill="#c4a062"/><path d="M35.48838,360.06993c0,-0.81281 0.65891,-1.47173 1.47173,-1.47173c0.81281,0 1.47173,0.65891 1.47173,1.47173c0,0.81281 -0.65892,1.47173 -1.47173,1.47173c-0.81281,0 -1.47173,-0.65892 -1.47173,-1.47173z" fill="#c4a062"/><path d="M65.31755,348.18864c0,-0.81281 0.65891,-1.47173 1.47173,-1.47173c0.81281,0 1.47173,0.65891 1.47173,1.47173c0,0.81281 -0.65892,1.47173 -1.47173,1.47173c-0.81281,0 -1.47173,-0.65892 -1.47173,-1.47173z" fill="#c4a062"/><path d="M52.59427,366.71854c0,-0.81281 0.65891,-1.47173 1.47173,-1.47173c0.81281,0 1.47173,0.65891 1.47173,1.47173c0,0.81281 -0.65892,1.47173 -1.47173,1.47173c-0.81281,0 -1.47173,-0.65892 -1.47173,-1.47173z" fill="#c4a062"/><path d="M14.26442,372.77344c0,-0.81281 0.65891,-1.47173 1.47173,-1.47173c0.81281,0 1.47173,0.65891 1.47173,1.47173c0,0.81281 -0.65892,1.47173 -1.47173,1.47173c-0.81281,0 -1.47173,-0.65892 -1.47173,-1.47173z" fill="#c4a062"/></g><g><path d="M78.99077,377.52083v-111.26977h81.98825v111.26977z" fill="#ffd07f"/><path d="M78.46183,316.92345v-42.16538h82.57388v42.16538l-20.34639,-18.42281l-21.57841,13.19612l-16.81904,-18.19852z" fill="#7c653e"/><path d="M78.40514,308.41645v-42.16539h82.57388v42.16539l-20.34639,-18.42281l-21.57841,13.19612l-16.81904,-18.19852z" fill="#76cc00"/><path d="M85.87537,317.57867c0,-0.81281 0.65891,-1.47173 1.47173,-1.47173c0.81281,0 1.47173,0.65891 1.47173,1.47173c0,0.81281 -0.65892,1.47173 -1.47173,1.47173c-0.81281,0 -1.47173,-0.65892 -1.47173,-1.47173z" fill="#c4a062"/><path d="M118.78381,332.79563c0,-0.81281 0.65891,-1.47173 1.47173,-1.47173c0.81281,0 1.47173,0.65891 1.47173,1.47173c0,0.81281 -0.65892,1.47173 -1.47173,1.47173c-0.81281,0 -1.47173,-0.65892 -1.47173,-1.47173z" fill="#c4a062"/><path d="M138.65642,324.34635c0,-0.81281 0.65891,-1.47173 1.47173,-1.47173c0.81281,0 1.47173,0.65891 1.47173,1.47173c0,0.81281 -0.65892,1.47173 -1.47173,1.47173c-0.81281,0 -1.47173,-0.65892 -1.47173,-1.47173z" fill="#c4a062"/><path d="M95.52252,349.72815c0,-0.81281 0.65891,-1.47173 1.47173,-1.47173c0.81281,0 1.47173,0.65891 1.47173,1.47173c0,0.81281 -0.65892,1.47173 -1.47173,1.47173c-0.81281,0 -1.47173,-0.65892 -1.47173,-1.47173z" fill="#c4a062"/><path d="M80.8657,329.48455c0,-0.81281 0.65891,-1.47173 1.47173,-1.47173c0.81281,0 1.47173,0.65891 1.47173,1.47173c0,0.81281 -0.65892,1.47173 -1.47173,1.47173c-0.81281,0 -1.47173,-0.65892 -1.47173,-1.47173z" fill="#c4a062"/><path d="M116.80032,360.14275c0,-0.81281 0.65891,-1.47173 1.47173,-1.47173c0.81281,0 1.47173,0.65891 1.47173,1.47173c0,0.81281 -0.65892,1.47173 -1.47173,1.47173c-0.81281,0 -1.47173,-0.65892 -1.47173,-1.47173z" fill="#c4a062"/><path d="M146.62949,348.26146c0,-0.81281 0.65891,-1.47173 1.47173,-1.47173c0.81281,0 1.47173,0.65891 1.47173,1.47173c0,0.81281 -0.65892,1.47173 -1.47173,1.47173c-0.81281,0 -1.47173,-0.65892 -1.47173,-1.47173z" fill="#c4a062"/><path d="M133.90622,366.79137c0,-0.81281 0.65891,-1.47173 1.47173,-1.47173c0.81281,0 1.47173,0.65891 1.47173,1.47173c0,0.81281 -0.65892,1.47173 -1.47173,1.47173c-0.81281,0 -1.47173,-0.65892 -1.47173,-1.47173z" fill="#c4a062"/><path d="M95.57636,372.84626c0,-0.81281 0.65891,-1.47173 1.47173,-1.47173c0.81281,0 1.47173,0.65891 1.47173,1.47173c0,0.81281 -0.65892,1.47173 -1.47173,1.47173c-0.81281,0 -1.47173,-0.65892 -1.47173,-1.47173z" fill="#c4a062"/></g><g><path d="M222.78715,227.44455l1,-61.83016h86.4538v64.33016c0,0 -19.56755,10.72092 -48.25213,10.19184c-24.92942,-0.45982 -39.20167,-12.69184 -39.20167,-12.69184z" fill="#ffd07f"/><path d="M223.2294,219.04669v-44.46195h87.07133v44.46195l-21.45457,-19.42622l-22.75369,13.91486l-17.7351,-19.18972z" fill="#7c653e"/><path d="M223.16962,210.07635v-44.46196h87.07133v44.46196l-21.45457,-19.42622l-22.7537,13.91486l-17.7351,-19.18972z" fill="#76cc00"/><path d="M231.04671,219.7376c0,-0.85708 0.6948,-1.55189 1.55189,-1.55189c0.85708,0 1.55189,0.6948 1.55189,1.55189c0,0.85708 -0.6948,1.55189 -1.55189,1.55189c-0.85708,0 -1.55189,-0.6948 -1.55189,-1.55189z" fill="#c4a062"/><path d="M286.70254,226.87388c0,-0.85709 0.6948,-1.55188 1.55189,-1.55188c0.85709,0 1.55189,0.6948 1.55189,1.55188c0,0.85709 -0.6948,1.55189 -1.55189,1.55189c-0.85709,0 -1.55189,-0.6948 -1.55189,-1.55189z" fill="#c4a062"/></g><g><path d="M435.78715,180.44455l1,-61.83016h86.4538v64.33016c0,0 -19.56755,10.72092 -48.25213,10.19184c-24.92942,-0.45982 -39.20167,-12.69184 -39.20167,-12.69184z" fill="#ffd07f"/><path d="M436.2294,172.04669v-44.46195h87.07133v44.46195l-21.45457,-19.42622l-22.75369,13.91486l-17.7351,-19.18972z" fill="#7c653e"/><path d="M436.16962,163.07635v-44.46196h87.07133v44.46196l-21.45457,-19.42622l-22.7537,13.91486l-17.7351,-19.18972z" fill="#76cc00"/><path d="M444.04671,172.7376c0,-0.85708 0.6948,-1.55189 1.55189,-1.55189c0.85708,0 1.55189,0.6948 1.55189,1.55189c0,0.85708 -0.6948,1.55189 -1.55189,1.55189c-0.85708,0 -1.55189,-0.6948 -1.55189,-1.55189z" fill="#c4a062"/><path d="M499.70254,179.87388c0,-0.85709 0.6948,-1.55188 1.55189,-1.55188c0.85709,0 1.55189,0.6948 1.55189,1.55188c0,0.85709 -0.6948,1.55189 -1.55189,1.55189c-0.85709,0 -1.55189,-0.6948 -1.55189,-1.55189z" fill="#c4a062"/></g></g></g></svg>