<svg version="1.1" xmlns="http://www.w3.org/2000/svg" xmlns:xlink="http://www.w3.org/1999/xlink" width="330.61055" height="314.37912" viewBox="0,0,330.61055,314.37912"><g transform="translate(-107.19475,-110.27219)"><g data-paper-data="{&quot;isPaintingLayer&quot;:true}" fill-rule="nonzero" stroke="none" stroke-width="0" stroke-linecap="butt" stroke-linejoin="miter" stroke-miterlimit="10" stroke-dasharray="" stroke-dashoffset="0" style="mix-blend-mode: normal"><g><path d="M107.90396,168.78349v-53.54671h7.09228v53.54671z" fill="#8aa2c6"/><path d="M153.64915,168.42888v-54.61055h7.09228v54.61055z" fill="#8aa2c6"/><path d="M153.32777,165.49828l-43.37974,-43.37974l5.015,-5.015l43.37974,43.37974z" fill="#8aa2c6"/><path d="M158.34276,122.11853l-43.37974,43.37974l-5.01499,-5.015l43.37974,-43.37974z" fill="#8aa2c6"/><path d="M161.8053,117.36447h-54.61055v-7.09228h54.61055z" fill="#c65757"/><path d="M108.61319,160.98198h52.12825v7.80151h-52.12825z" fill="#8aa2c6"/></g><g fill="#8aa2c6"><path d="M107.75412,217.65131v-53.54671h7.09228v53.54671z"/><path d="M153.49933,217.2967v-54.61056h7.09228v54.61056z"/><path d="M153.17792,214.3661l-43.37974,-43.37974l5.015,-5.015l43.37974,43.37974z"/><path d="M158.19292,170.98636l-43.37975,43.37974l-5.01499,-5.015l43.37974,-43.37974z"/><path d="M108.46335,209.8498h52.12825v7.80151h-52.12825z"/><path d="M107.75412,161.26769h52.83748v7.80151h-52.83748z"/></g><g fill="#8aa2c6"><path d="M107.75412,266.65131v-53.54671h7.09228v53.54671z"/><path d="M153.49933,266.2967v-54.61056h7.09228v54.61056z"/><path d="M153.17792,263.3661l-43.37974,-43.37974l5.015,-5.015l43.37974,43.37974z"/><path d="M158.19292,219.98636l-43.37975,43.37974l-5.01499,-5.015l43.37974,-43.37974z"/><path d="M108.46335,258.8498h52.12825v7.80151h-52.12825z"/><path d="M107.75412,210.26769h52.83748v7.80151h-52.83748z"/></g><g fill="#8aa2c6"><path d="M107.75412,316.65131v-53.54671h7.09228v53.54671z"/><path d="M153.49933,316.2967v-54.61056h7.09228v54.61056z"/><path d="M153.17792,313.3661l-43.37974,-43.37974l5.015,-5.015l43.37974,43.37974z"/><path d="M158.19292,269.98636l-43.37975,43.37974l-5.01499,-5.015l43.37974,-43.37974z"/><path d="M108.46335,308.8498h52.12825v7.80151h-52.12825z"/><path d="M107.75412,260.26769h52.83748v7.80151h-52.83748z"/></g><g fill="#8aa2c6"><path d="M107.75412,365.65131v-53.54671h7.09228v53.54671z"/><path d="M153.49933,365.2967v-54.61056h7.09228v54.61056z"/><path d="M153.17792,362.3661l-43.37974,-43.37974l5.015,-5.015l43.37974,43.37974z"/><path d="M158.19292,318.98636l-43.37975,43.37974l-5.01499,-5.015l43.37974,-43.37974z"/><path d="M108.46335,357.8498h52.12825v7.80151h-52.12825z"/><path d="M107.75412,309.26769h52.83748v7.80151h-52.83748z"/></g><g><path d="M383.90397,227.78349v-53.54671h7.09228v53.54671z" fill="#8aa2c6"/><path d="M429.64916,227.42888v-54.61055h7.09228v54.61055z" fill="#8aa2c6"/><path d="M429.32778,224.49828l-43.37974,-43.37974l5.015,-5.015l43.37974,43.37974z" fill="#8aa2c6"/><path d="M434.34277,181.11853l-43.37974,43.37974l-5.01499,-5.015l43.37974,-43.37974z" fill="#8aa2c6"/><path d="M437.80531,176.36447h-54.61055v-7.09228h54.61055z" fill="#c65757"/><path d="M384.6132,219.98198h52.12825v7.80151h-52.12825z" fill="#8aa2c6"/></g><g fill="#8aa2c6"><path d="M383.75412,276.65131v-53.54671h7.09228v53.54671z"/><path d="M429.49934,276.2967v-54.61056h7.09228v54.61056z"/><path d="M429.17792,273.3661l-43.37974,-43.37974l5.015,-5.015l43.37974,43.37974z"/><path d="M434.19293,229.98636l-43.37975,43.37974l-5.01499,-5.015l43.37974,-43.37974z"/><path d="M384.46336,268.8498h52.12825v7.80151h-52.12825z"/><path d="M383.75412,220.26769h52.83748v7.80151h-52.83748z"/></g><g fill="#8aa2c6"><path d="M383.75412,325.65131v-53.54671h7.09228v53.54671z"/><path d="M429.49934,325.2967v-54.61056h7.09228v54.61056z"/><path d="M429.17792,322.3661l-43.37974,-43.37974l5.015,-5.015l43.37974,43.37974z"/><path d="M434.19293,278.98636l-43.37975,43.37974l-5.01499,-5.015l43.37974,-43.37974z"/><path d="M384.46336,317.8498h52.12825v7.80151h-52.12825z"/><path d="M383.75412,269.26769h52.83748v7.80151h-52.83748z"/></g><g fill="#8aa2c6"><path d="M383.75412,375.65131v-53.54671h7.09228v53.54671z"/><path d="M429.49934,375.2967v-54.61056h7.09228v54.61056z"/><path d="M429.17792,372.3661l-43.37974,-43.37974l5.015,-5.015l43.37974,43.37974z"/><path d="M434.19293,328.98636l-43.37975,43.37974l-5.01499,-5.015l43.37974,-43.37974z"/><path d="M384.46336,367.8498h52.12825v7.80151h-52.12825z"/><path d="M383.75412,319.26769h52.83748v7.80151h-52.83748z"/></g><g fill="#8aa2c6"><path d="M383.75412,424.65131v-53.54671h7.09228v53.54671z"/><path d="M429.49934,424.2967v-54.61056h7.09228v54.61056z"/><path d="M429.17792,421.3661l-43.37974,-43.37974l5.015,-5.015l43.37974,43.37974z"/><path d="M434.19293,377.98636l-43.37975,43.37974l-5.01499,-5.015l43.37974,-43.37974z"/><path d="M384.46336,416.8498h52.12825v7.80151h-52.12825z"/><path d="M383.75412,368.26769h52.83748v7.80151h-52.83748z"/></g></g></g></svg>