<svg version="1.1" xmlns="http://www.w3.org/2000/svg" xmlns:xlink="http://www.w3.org/1999/xlink" width="462.45404" height="266.08574" viewBox="0,0,462.45404,266.08574"><g transform="translate(-15.9144,-82.56176)"><g data-paper-data="{&quot;isPaintingLayer&quot;:true}" fill-rule="nonzero" stroke-linejoin="miter" stroke-miterlimit="10" stroke-dasharray="" stroke-dashoffset="0" style="mix-blend-mode: normal"><path d="M346.27951,176.01748c37.07643,-6.17344 72.16848,19.06507 78.38026,56.37181c6.21179,37.30675 -18.80897,72.55437 -55.8854,78.72781c-37.07643,6.17344 -72.16848,-19.06507 -78.38026,-56.37181c-6.21179,-37.30675 18.80897,-72.55437 55.8854,-78.72781z" data-paper-data="{&quot;index&quot;:null}" fill="#ff001e" stroke="#9e0000" stroke-width="2" stroke-linecap="butt"/><path d="M329.19174,277.84949c0,0 -1.60034,-9.01481 9.84792,-9.83813c14.92028,-1.07303 25.20055,5.0901 25.20055,5.0901" data-paper-data="{&quot;index&quot;:null}" fill="none" stroke="#000000" stroke-width="2" stroke-linecap="round"/><path d="M342.10534,204.99579c1.84232,-0.30676 5.13867,10.27232 7.36264,23.62907c2.22397,13.3567 2.53338,24.43317 0.69107,24.73992c-1.84232,0.30676 -5.13867,-10.27232 -7.36264,-23.62907c-2.22397,-13.3567 -2.53338,-24.43317 -0.69107,-24.73992z" data-paper-data="{&quot;index&quot;:null}" fill="#000000" stroke="#000000" stroke-width="2" stroke-linecap="butt"/><path d="M333.75824,255.23856c-1.61201,0.26841 -4.65953,-9.96841 -6.80681,-22.86456c-2.14728,-12.89614 -2.58122,-23.56814 -0.9692,-23.83655c1.61201,-0.26841 4.65953,9.96841 6.80681,22.86456c2.14728,12.89614 2.58122,23.56814 0.9692,23.83655z" data-paper-data="{&quot;index&quot;:null}" fill="#000000" stroke="#000000" stroke-width="2" stroke-linecap="butt"/><path d="M378.08142,343.85016c-155.45209,27.62509 -103.11254,-104.53494 -103.11254,-104.53494c0,0 -9.09577,49.75987 66.06128,36.08337c79.62638,-14.48979 122.27137,-63.15648 122.27137,-63.15648c0,0 65.22358,104.87302 -85.22009,131.60808z" data-paper-data="{&quot;index&quot;:null}" fill="#475875" stroke="#232c43" stroke-width="2" stroke-linecap="butt"/><path d="M365.1427,192.33592c0,0 -4.15131,-0.69437 -10.18194,8.96277c-5.14512,8.23908 -4.89889,30.39009 -14.33168,29.31346c-2.86597,-0.32709 -4.08013,-6.33201 -4.08013,-6.33201c0,0 -0.90669,7.69271 -4.00887,7.35128c-8.38311,-0.92254 -6.21371,-15.36701 -11.8793,-23.64608c-5.39229,-7.87972 -12.98827,-11.30894 -12.98827,-11.30894" data-paper-data="{&quot;index&quot;:null}" fill="#ff001e" stroke="#9e0000" stroke-width="2" stroke-linecap="round"/><path d="M317.31469,332.95079c-12.67954,2.11122 -24.66983,-6.45612 -26.78104,-19.13565c-2.11122,-12.67954 6.45612,-24.66983 19.13565,-26.78104c12.67954,-2.11122 24.66983,6.45612 26.78104,19.13565c2.11122,12.67954 -6.45612,24.66983 -19.13565,26.78104z" data-paper-data="{&quot;index&quot;:null}" fill="#4a472c" stroke="#120b00" stroke-width="2" stroke-linecap="butt"/><path d="M464.97184,251.56785c0,0 -13.42199,13.58876 -22.24721,19.83144c-9.42148,6.66445 -33.84739,20.02652 -33.84739,20.02652l-17.71754,-6.56491l9.06047,-16.57749c0,0 25.97755,-8.73466 36.12405,-13.89985c9.62327,-4.89884 23.26838,-16.33457 23.26838,-16.33457l5.35927,13.51886z" data-paper-data="{&quot;index&quot;:null}" fill="#ff0000" stroke="#9e0000" stroke-width="2" stroke-linecap="butt"/><path d="M116.0075,137.73065c0,-29.91665 54.6739,-54.16889 122.11759,-54.16889c67.44368,0 122.11759,24.25224 122.11759,54.16889c0,29.91665 -54.6739,54.1689 -122.11759,54.1689c-19.67348,0 -54.7206,-5.72954 -54.7206,-5.72954c0,0 -10.96069,6.84838 -19.55098,8.74773c-9.65078,2.13383 -35.54341,3.43389 -35.54341,3.43389c0,0 11.42881,-12.35382 14.39816,-18.12985c2.16777,-4.21678 1.78238,-13.34481 1.78238,-13.34481c0,0 -28.48315,-19.64845 -28.48315,-29.14632z" data-paper-data="{&quot;index&quot;:null}" fill="#ffffff" stroke="#00c1ff" stroke-width="2" stroke-linecap="butt"/><path d="M16.91866,266.75059c-0.41452,-37.27691 29.46836,-67.83186 66.74527,-68.24638c37.27691,-0.41452 67.83186,29.46836 68.24638,66.74527c0.41452,37.27691 -29.46836,67.83186 -66.74527,68.24638c-37.27691,0.41452 -67.83186,-29.46836 -68.24638,-66.74527z" data-paper-data="{&quot;index&quot;:null}" fill="#0068ff" stroke="#0010c7" stroke-width="2" stroke-linecap="butt"/><path d="M146.76048,229.52851l-31,9l-54,-39" fill="none" stroke="#000000" stroke-width="2" stroke-linecap="round"/><path d="M113.46244,256.64201c0,13.07074 -2.01472,23.66667 -4.5,23.66667c-2.48528,0 -4.5,-10.59593 -4.5,-23.66667c0,-13.07074 2.01472,-23.66667 4.5,-23.66667c2.48528,0 4.5,10.59593 4.5,23.66667z" fill="#000000" stroke="none" stroke-width="0" stroke-linecap="butt"/><path d="M131.46244,257.64201c0,12.88664 -1.567,23.33333 -3.5,23.33333c-1.933,0 -3.5,-10.44669 -3.5,-23.33333c0,-12.88664 1.567,-23.33333 3.5,-23.33333c1.933,0 3.5,10.44669 3.5,23.33333z" fill="#000000" stroke="none" stroke-width="0" stroke-linecap="butt"/><path d="M122.46244,299.49521c0,0 -35.49411,4.24868 -49.59324,-0.27026c-11.25433,-3.60716 -28.40676,-24.72971 -28.40676,-24.72971" data-paper-data="{&quot;index&quot;:null}" fill="none" stroke="#000000" stroke-width="2" stroke-linecap="round"/><text transform="translate(146.5899,133.28112) scale(0.41536,0.41536)" font-size="40" xml:space="preserve" fill="#00c1ff" fill-rule="nonzero" stroke="none" stroke-width="1" stroke-linecap="butt" stroke-linejoin="miter" stroke-miterlimit="10" stroke-dasharray="" stroke-dashoffset="0" font-family="Marker" font-weight="normal" text-anchor="start" style="mix-blend-mode: normal"><tspan x="0" dy="0">Ha! I told you I'd stop</tspan><tspan x="0" dy="48px">you! That was too easy!</tspan></text></g></g></svg>