<svg version="1.1" xmlns="http://www.w3.org/2000/svg" xmlns:xlink="http://www.w3.org/1999/xlink" width="406.49438" height="265.06299" viewBox="0,0,406.49438,265.06299"><g transform="translate(-78.00562,-72.56174)"><g data-paper-data="{&quot;isPaintingLayer&quot;:true}" fill-rule="nonzero" stroke-linejoin="miter" stroke-miterlimit="10" stroke-dasharray="" stroke-dashoffset="0" style="mix-blend-mode: normal"><path d="M353.64668,134.47434c0,10.6803 -32.02914,32.77487 -32.02914,32.77487c0,0 -0.43336,10.26442 2.00428,15.00616c3.33902,6.49511 16.19065,20.38691 16.19065,20.38691c0,0 -29.11611,-1.46191 -39.96836,-3.86139c-9.65973,-2.13581 -21.98496,-9.83677 -21.98496,-9.83677c0,0 -39.41028,6.44283 -61.533,6.44283c-75.84003,0 -137.32052,-27.27151 -137.32052,-60.91261c0,-33.6411 61.48049,-60.9126 137.32052,-60.9126c75.84003,0 137.32052,27.2715 137.32052,60.9126z" fill="#ffffff" stroke="#00c1ff" stroke-width="2" stroke-linecap="butt"/><path d="M416.00001,334.5c-37.27922,0 -67.5,-30.22078 -67.5,-67.5c0,-37.27922 30.22078,-67.5 67.5,-67.5c37.27922,0 67.5,30.22078 67.5,67.5c0,37.27922 -30.22078,67.5 -67.5,67.5z" data-paper-data="{&quot;index&quot;:null}" fill="#0068ff" stroke="#0010c7" stroke-width="2" stroke-linecap="butt"/><path d="M371.63991,252.6604c2.7975,-0.91417 8.19437,7.92006 12.05421,19.7318c3.85984,11.81173 4.72104,22.12814 1.92352,23.04231c-2.7975,0.91417 -8.19437,-7.92007 -12.05421,-19.7318c-3.85984,-11.81173 -4.72104,-22.12814 -1.92352,-23.04231z" data-paper-data="{&quot;index&quot;:null}" fill="#000000" stroke="none" stroke-width="0" stroke-linecap="butt"/><path d="M366.18058,279.10232c2.87089,10.40247 3.66496,19.2585 1.7736,19.78047c-1.89135,0.52198 -5.75193,-7.48774 -8.62282,-17.89022c-2.87089,-10.40247 -3.66495,-19.25849 -1.77359,-19.78047c1.89135,-0.52198 5.75192,7.48774 8.62281,17.89021z" data-paper-data="{&quot;index&quot;:null}" fill="#000000" stroke="none" stroke-width="0" stroke-linecap="butt"/><path d="M384.74007,317.55169c0,0 12.82661,-17.40072 33.08402,-25.25624c29.30696,-11.3648 37.29898,-3.95788 37.29898,-3.95788" data-paper-data="{&quot;index&quot;:null}" fill="none" stroke="#000000" stroke-width="2" stroke-linecap="round"/><text transform="translate(110.58586,128.61668) scale(0.60293,0.60293)" font-size="40" xml:space="preserve" fill="#00c1ff" fill-rule="nonzero" stroke="none" stroke-width="1" stroke-linecap="butt" stroke-linejoin="miter" stroke-miterlimit="10" stroke-dasharray="" stroke-dashoffset="0" font-family="Marker" font-weight="normal" text-anchor="start" style="mix-blend-mode: normal"><tspan x="0" dy="0">Huh...</tspan></text><path d="M332.17502,337.41739l-0.40962,-1.13609l-1.38618,1.20374l-2.34987,0.13969l-0.18485,-25.19899l1.27945,-0.38755l-1.4176,-1.47996l0.09203,-3.22692l40.94743,-3.42276l1.11147,1.65931l1.38927,-1.07926l3.79612,-0.19008l1.38336,17.59706l-0.78848,1.84132l1.21372,10.98552z" data-paper-data="{&quot;index&quot;:null}" fill="#efecc2" stroke="none" stroke-width="0" stroke-linecap="butt"/></g></g></svg>