<svg version="1.1" xmlns="http://www.w3.org/2000/svg" xmlns:xlink="http://www.w3.org/1999/xlink" width="529.00001" height="653.48369" viewBox="0,0,529.00001,653.48369"><g transform="translate(20.49249,161.67753)"><g data-paper-data="{&quot;isPaintingLayer&quot;:true}" fill-rule="nonzero" stroke="none" stroke-width="0" stroke-linecap="butt" stroke-linejoin="miter" stroke-miterlimit="10" stroke-dasharray="" stroke-dashoffset="0" style="mix-blend-mode: normal"><path d="M-20.49249,476.79118v-181.69245c0,0 35.71606,-0.18503 61.40088,-2.35376c22.71312,-1.91781 33.22172,-5.82287 67.55141,-6.19294c60.37976,-0.65089 132.57992,5.93712 194.97675,3.62785c59.30708,-2.19492 100.57295,-13.44694 123.07097,-13.44694c9.48897,0 32.74633,9.07678 46.07663,12.64018c18.33899,4.9023 35.92337,5.72558 35.92337,5.72558v196.70747z" data-paper-data="{&quot;index&quot;:null}" fill="#0081ff"/><path d="M151.31433,-39.67753c0,6.62742 -27.53449,12 -61.5,12c-33.96551,0 -61.5,-5.37258 -61.5,-12c0,-6.62742 27.53449,-12 61.5,-12c33.96551,0 61.5,5.37258 61.5,12z" fill-opacity="0.74118" fill="#fcfeff"/><path d="M240.31433,-135.17752c0,5.24671 -22.83348,9.5 -51,9.5c-28.16652,0 -51,-4.25329 -51,-9.5c0,-5.24671 22.83348,-9.5 51,-9.5c28.16652,0 51,4.25329 51,9.5z" fill-opacity="0.74118" fill="#fcfeff"/><path d="M357.31433,29.82248c0,5.79899 -29.10149,10.5 -65,10.5c-35.89851,0 -65,-4.70101 -65,-10.5c0,-5.79899 29.10149,-10.5 65,-10.5c35.89851,0 65,4.70101 65,10.5z" fill-opacity="0.74118" fill="#fcfeff"/><path d="M400.31433,-40.67753c25.4051,0 46,3.13401 46,7c0,3.86599 -20.5949,7 -46,7c-25.4051,0 -46,-3.13401 -46,-7c0,-3.86599 20.5949,-7 46,-7z" fill-opacity="0.74118" fill="#fcfeff"/><path d="M321.31433,-61.67752c-23.19596,0 -42,-3.35786 -42,-7.5c0,-4.14214 18.80404,-7.5 42,-7.5c23.19596,0 42,3.35786 42,7.5c0,4.14214 -18.80404,7.5 -42,7.5z" fill-opacity="0.74118" fill="#fcfeff"/><path d="M421.31433,-161.67752c20.98682,0 38,4.25329 38,9.5c0,5.24671 -17.01318,9.5 -38,9.5c-20.98682,0 -38,-4.25329 -38,-9.5c0,-5.24671 17.01318,-9.5 38,-9.5z" fill-opacity="0.74118" fill="#fcfeff"/><path d="M28.31433,-160.67752c16.56854,0 30,1.79086 30,4c0,2.20914 -13.43146,4 -30,4c-16.56854,0 -30,-1.79086 -30,-4c0,-2.20914 13.43146,-4 30,-4z" fill-opacity="0.74118" fill="#fcfeff"/></g></g></svg>