<svg version="1.1" xmlns="http://www.w3.org/2000/svg" xmlns:xlink="http://www.w3.org/1999/xlink" width="389.14492" height="266.97525" viewBox="0,0,389.14492,266.97525"><g transform="translate(-40.70635,-47.90856)"><g data-paper-data="{&quot;isPaintingLayer&quot;:true}" fill-rule="nonzero" stroke-linejoin="miter" stroke-miterlimit="10" stroke-dasharray="" stroke-dashoffset="0" style="mix-blend-mode: normal"><path d="M40.70635,291.90247l9.61064,-86.98681l-6.24345,-14.58015l10.95388,-139.33902l30.05889,1.5051l11.00071,8.54588l8.80095,-13.13892l324.23456,27.10248l0.72875,25.55178l-11.225,11.71875l10.13108,3.06872l-1.4637,199.53352l-18.60698,-1.10612l-10.97623,-9.53162l-3.24347,8.99595z" fill="#efecc2" stroke="none" stroke-width="0" stroke-linecap="butt"/><path d="M69.61492,162.55518l333.35357,23.36841" fill="none" stroke="#23231c" stroke-width="2" stroke-linecap="round"/><text transform="translate(229.4106,118.22485) rotate(3.40204) scale(0.76007,0.76007)" font-size="40" xml:space="preserve" fill="#23231c" fill-rule="nonzero" stroke="none" stroke-width="1" stroke-linecap="butt" stroke-linejoin="miter" stroke-miterlimit="10" stroke-dasharray="" stroke-dashoffset="0" font-family="Serif" font-weight="normal" text-anchor="start" style="mix-blend-mode: normal"><tspan x="0" dy="0">RHOMBA</tspan><tspan x="0" dy="46.150000000000006px">PARRALELLO</tspan></text><text transform="translate(72.53044,203.12849) rotate(3.40204) scale(0.92328,0.92328)" font-size="40" xml:space="preserve" fill="#23231c" fill-rule="nonzero" stroke="none" stroke-width="1" stroke-linecap="butt" stroke-linejoin="miter" stroke-miterlimit="10" stroke-dasharray="" stroke-dashoffset="0" font-family="Serif" font-weight="normal" text-anchor="start" style="mix-blend-mode: normal"><tspan x="0" dy="0">Blueball's Biggest Fan </tspan><tspan x="0" dy="48px">and Prefessional Pilot</tspan></text><path d="M183.78565,143.55945c0,0 -0.69813,5.87731 -2.30926,7.27163c-2.00874,1.73842 -8.81564,2.35609 -8.81564,2.35609l-63.06883,-3.33164c0,0 -6.67942,-1.87731 -8.23842,-5.10529c-1.32162,-2.73647 -0.68847,-10.22513 -0.68847,-10.22513l4.14504,-53.78555c0,0 0.60683,-8.91855 2.29501,-10.92329c1.88327,-2.23644 8.48347,-1.87635 8.48347,-1.87635l57.2483,3.85865c0,0 9.66611,0.33416 12.07242,2.8626c2.36644,2.48655 2.24784,12.18444 2.24784,12.18444l-3.37145,56.71383z" data-paper-data="{&quot;index&quot;:null}" fill="#00ff3f" stroke="#00c230" stroke-width="2" stroke-linecap="butt"/><path d="M146.31264,123.27112l2.0947,-35.23664l6.74655,0.26125l-2.10298,35.37596z" data-paper-data="{&quot;index&quot;:null}" fill="#000000" stroke="none" stroke-width="0" stroke-linecap="butt"/><path d="M134.52063,122.57014l2.10298,-35.37596l6.73,0.53991l-2.0947,35.23662z" data-paper-data="{&quot;index&quot;:null}" fill="#000000" stroke="none" stroke-width="0" stroke-linecap="butt"/><path d="M131.06021,98.08046l0.22135,-3.72346l6.58764,0.39161l-0.22135,3.72346z" fill="#000000" stroke="none" stroke-width="0" stroke-linecap="butt"/><path d="M153.38389,99.69497l0.20432,-3.43703l5.72839,0.34053l-0.20432,3.43703z" fill="#000000" stroke="none" stroke-width="0" stroke-linecap="butt"/><path d="M170.45658,130.42343c0,0 -18.19001,11.45946 -27.57165,9.33343c-8.9369,-2.02526 -26.18768,-13.14391 -26.18768,-13.14391" fill="none" stroke="#000000" stroke-width="2" stroke-linecap="round"/></g></g></svg>