<svg version="1.1" xmlns="http://www.w3.org/2000/svg" xmlns:xlink="http://www.w3.org/1999/xlink" width="55.27017" height="47.9747" viewBox="0,0,55.27017,47.9747"><g transform="translate(-217.76505,-153.77925)"><g data-paper-data="{&quot;isPaintingLayer&quot;:true}" fill-rule="nonzero" stroke-width="2" stroke-linecap="butt" stroke-linejoin="miter" stroke-miterlimit="10" stroke-dasharray="" stroke-dashoffset="0" style="mix-blend-mode: normal"><path d="M257.58509,163.4806c2.01842,5.64467 1.10874,10.90072 -2.03184,11.73975c-3.14058,0.83903 -7.32278,-3.05669 -9.3412,-8.70135c-2.01842,-5.64465 -1.10874,-10.90072 2.03184,-11.73975c3.14058,-0.83903 7.32278,3.05669 9.3412,8.70135z" data-paper-data="{&quot;index&quot;:null}" fill="#c57eff" stroke="#864ab8"/><path d="M240.55489,200.279l-7.65723,-7.34349l0.79688,-24.95574l6.92666,-5.89505l22.98768,0.20534l8.19299,8.02453l0.15299,4.72976l-3.80052,-3.74478l-0.31012,7.6413l-6.15235,-6.34541l0.1102,7.71492l-5.11602,-5.14191l-8.02387,5.43348l6.63912,7.11124l6.36775,-4.51477l0.50524,7.24193l5.60759,-4.91073l-0.31876,5.45374l4.05421,-3.70209l-0.10292,6.13733l-7.39959,7.32713z" data-paper-data="{&quot;index&quot;:null}" fill="#8c00ff" stroke="#6500b8"/><path d="M232.84816,159.68666c5.3736,4.22428 8.08291,9.74371 6.05137,12.32795c-2.03152,2.58424 -8.03456,1.25473 -13.40818,-2.96954c-5.3736,-4.22428 -8.08291,-9.74371 -6.05137,-12.32795c2.03152,-2.58424 8.03456,-1.25473 13.40818,2.96954z" data-paper-data="{&quot;index&quot;:null}" fill="#c57eff" stroke="#864ab8"/></g></g></svg>