<svg version="1.1" xmlns="http://www.w3.org/2000/svg" xmlns:xlink="http://www.w3.org/1999/xlink" width="134" height="80" viewBox="0,0,134,80"><g transform="translate(-173,-133.5)"><g data-paper-data="{&quot;isPaintingLayer&quot;:true}" fill-rule="nonzero" stroke-linejoin="miter" stroke-miterlimit="10" stroke-dasharray="" stroke-dashoffset="0" style="mix-blend-mode: normal"><path d="M306.41358,179.66667c0,18.68563 -29.73437,33.83333 -66.41358,33.83333c-36.67921,0 -66.41358,-15.1477 -66.41358,-33.83333c0,-18.68563 29.73437,-33.83333 66.41358,-33.83333c36.67921,0 66.41358,15.1477 66.41358,33.83333z" fill="#000000" stroke="none" stroke-width="0" stroke-linecap="butt"/><path d="M174,171c0,-20.15839 29.54921,-36.5 66,-36.5c36.45079,0 66,16.34161 66,36.5c0,20.15839 -29.54921,36.5 -66,36.5c-36.45079,0 -66,-16.34161 -66,-36.5z" fill="#5578ac" stroke="#363a6b" stroke-width="2" stroke-linecap="butt"/><path d="M236.01774,174.32484l-27.66667,-25.33333l11,-6l22,28z" fill="#000000" stroke="none" stroke-width="0" stroke-linecap="butt"/><path d="M209.51774,169.49151l25.33334,-27.66667l6,11l-28,22z" data-paper-data="{&quot;index&quot;:null}" fill="#000000" stroke="none" stroke-width="0" stroke-linecap="butt"/><path d="M250.68441,169.71205l19.77778,-25.17172l9.88889,5.39394l-24.87205,22.77441z" data-paper-data="{&quot;index&quot;:null}" fill="#000000" stroke="none" stroke-width="0" stroke-linecap="butt"/><path d="M276.30562,173.15818l-25.17172,-19.77778l5.39394,-9.88889l22.77441,24.87205z" data-paper-data="{&quot;index&quot;:null}" fill="#000000" stroke="none" stroke-width="0" stroke-linecap="butt"/><path d="M243.68441,200.65818c-10.09208,0.15565 -11.89172,-20.37385 -11.89172,-20.37385c0,0 5.98321,-1.08585 12.39039,-1.20052c4.94672,-0.08853 10.34812,0.73844 12.18564,0.9939c0.13771,6.87583 -1.08362,20.40156 -12.68431,20.58047z" fill="#a559a6" stroke="#5f3460" stroke-width="2" stroke-linecap="butt"/><path d="M198.68441,190.99151c0,0 22.2091,-12.56585 48.6526,-11.89971c23.18143,0.58396 39.01407,10.89971 39.01407,10.89971" fill="none" stroke="#000000" stroke-width="2" stroke-linecap="round"/></g></g></svg>