<svg version="1.1" xmlns="http://www.w3.org/2000/svg" xmlns:xlink="http://www.w3.org/1999/xlink" width="557.49998" height="253.00002" viewBox="0,0,557.49998,253.00002"><defs><linearGradient x1="234.19447" y1="130.65625" x2="234.19447" y2="251.65629" gradientUnits="userSpaceOnUse" id="color-1"><stop offset="0" stop-color="#00ff6a"/><stop offset="1" stop-color="#004a2d"/></linearGradient><linearGradient x1="234.19447" y1="130.65625" x2="234.19447" y2="251.65629" gradientUnits="userSpaceOnUse" id="color-2"><stop offset="0" stop-color="#004e2e"/><stop offset="1" stop-color="#00fa69"/></linearGradient></defs><g transform="translate(45.3714,-64.32255)"><g data-paper-data="{&quot;isPaintingLayer&quot;:true}" fill-rule="nonzero" stroke-linecap="butt" stroke-linejoin="miter" stroke-miterlimit="10" stroke-dasharray="" stroke-dashoffset="0" style="mix-blend-mode: normal"><path d="M350.12858,146.57255c0,-44.04471 35.70529,-79.75 79.75,-79.75c44.04471,0 79.75,35.70529 79.75,79.75c0,44.04471 -35.70529,79.75 -79.75,79.75c-44.04471,0 -79.75,-35.70529 -79.75,-79.75z" fill="#0068ff" stroke="#0010c7" stroke-width="5"/><path d="M116.6286,235.07257c0,44.04471 -35.70529,79.75 -79.75,79.75c-44.04471,0 -79.75,-35.70529 -79.75,-79.75c0,-44.04471 35.70529,-79.75 79.75,-79.75c44.04471,0 79.75,35.70529 79.75,79.75z" data-paper-data="{&quot;index&quot;:null}" fill="#ff001e" stroke="#9e0000" stroke-width="5"/><path d="M47.69447,251.65629l21,-121h352l-20,121z" fill="url(#color-1)" stroke="url(#color-2)" stroke-width="2"/></g></g></svg>