<svg version="1.1" xmlns="http://www.w3.org/2000/svg" xmlns:xlink="http://www.w3.org/1999/xlink" width="490.39258" height="528.19943" viewBox="0,0,490.39258,528.19943"><g transform="translate(6.01054,-18.32246)"><g data-paper-data="{&quot;isPaintingLayer&quot;:true}" fill-rule="nonzero" stroke="none" stroke-width="0" stroke-linecap="butt" stroke-linejoin="miter" stroke-miterlimit="10" stroke-dasharray="" stroke-dashoffset="0" style="mix-blend-mode: normal"><path d="M-3.01586,546.52188v-217.60593c0,0 25.94451,-1.11781 38.24222,-10.40234c23.95293,-18.08401 48.39934,-50.64548 94.68449,-50.64548c24.82917,0 58.31605,10.08913 103.09755,17.41547c49.33892,8.07194 73.92108,-49.195 120.58093,-41c34.31263,6.02643 64.28456,37.84394 91.08317,60.40105c17.38666,14.63481 39.70954,24.23131 39.70954,24.23131v217.60593z" fill="#76cc00"/><path d="M-3.36785,346.63951l0.33161,-13.78499c0,0 33.41138,6.6705 56.57406,-4.14386c26.96118,-12.58784 47.62436,-42.92525 70.45998,-42.83225c35.10709,0.14298 77.50739,8.352 119.52481,13.12578c49.35875,5.60786 61.96077,-51.58643 103.52985,-45.55097c37.83879,5.49385 77.5712,45.22934 105.60273,66.88352c15.12309,11.68249 31.72683,12.51778 31.72683,12.51778v13.78499c0,0 -33.12228,-3.01651 -64.23857,-11.97803c-24.79073,-7.13975 -44.71177,-20.57056 -71.65006,-21.01717c-40.03211,-0.66369 -56.5469,30.5091 -102.44305,27.95469c-42.09932,-2.3431 -81.52947,-16.82553 -116.13016,-17.05387c-18.86437,-0.12449 -32.52496,9.94728 -54.39624,13.93028c-35.51906,6.46841 -78.89178,8.1641 -78.89178,8.1641z" fill="#95ff00"/><path d="M-6.01054,545.86885l2.98448,-115.53475c0,0 33.82759,-3.2403 67.31298,-13.28491c20.8538,-6.25551 46.8241,-22.16222 66.60855,-22.16222c29.3145,0 60.89514,16.64151 112.53077,21.79491c43.93249,4.38461 62.65949,-53.56004 105.12941,-51.43259c34.52382,1.72941 65.08358,32.40239 92.79578,50.3058c19.84786,12.82267 43.03059,14.779 43.03059,14.779v115.20314z" fill="#538f00"/><path d="M106.93259,274.10757l-3.00097,-28.50924c0,0 11.35084,-11.09376 17.35796,-11.11634c6.08667,-0.02288 18.92653,10.97993 18.92653,10.97993l-1.63689,28.64565z" fill="#7e4c00"/><path d="M102.73575,248.17674l-3.00097,-2.45534l22.37089,-13.64079l23.46215,13.64079l-4.50146,2.45534l-19.36992,-13.50438z" fill="#c69e61"/><path d="M114.33042,274.11059l-1.22767,-19.50632l18.82428,-0.95485l-1.36408,20.46118z" fill="#a16100"/><path d="M377.81538,256.14559l12.63416,-25.73248c0,0 15.51422,-3.34993 20.6117,-0.17162c5.16498,3.2204 10.17837,19.3694 10.17837,19.3694l-16.63306,23.37935z" fill="#7e4c00"/><path d="M388.06473,231.95939l-1.23363,-3.67596l26.19921,0.3595l12.6018,24.03619l-5.11772,-0.31738l-9.21003,-21.74252z" fill="#c69e61"/><path d="M384.07657,260.08581l9.34338,-17.16698l16.44437,9.2113l-12.04573,16.59582z" fill="#a16100"/><path d="M151.31432,140.32246c0,6.62742 -27.53449,12 -61.5,12c-33.96551,0 -61.5,-5.37258 -61.5,-12c0,-6.62742 27.53449,-12 61.5,-12c33.96551,0 61.5,5.37258 61.5,12z" fill-opacity="0.74118" fill="#fcfeff"/><path d="M240.31432,44.82246c0,5.24671 -22.83348,9.5 -51,9.5c-28.16652,0 -51,-4.25329 -51,-9.5c0,-5.24671 22.83348,-9.5 51,-9.5c28.16652,0 51,4.25329 51,9.5z" fill-opacity="0.74118" fill="#fcfeff"/><path d="M357.31432,209.82246c0,5.79899 -29.10149,10.5 -65,10.5c-35.89851,0 -65,-4.70101 -65,-10.5c0,-5.79899 29.10149,-10.5 65,-10.5c35.89851,0 65,4.70101 65,10.5z" fill-opacity="0.74118" fill="#fcfeff"/><path d="M400.31432,139.32246c25.4051,0 46,3.13401 46,7c0,3.86599 -20.5949,7 -46,7c-25.4051,0 -46,-3.13401 -46,-7c0,-3.86599 20.5949,-7 46,-7z" fill-opacity="0.74118" fill="#fcfeff"/><path d="M321.31432,118.32246c-23.19596,0 -42,-3.35786 -42,-7.5c0,-4.14214 18.80404,-7.5 42,-7.5c23.19596,0 42,3.35786 42,7.5c0,4.14214 -18.80404,7.5 -42,7.5z" fill-opacity="0.74118" fill="#fcfeff"/><path d="M421.31432,18.32246c20.98682,0 38,4.25329 38,9.5c0,5.24671 -17.01318,9.5 -38,9.5c-20.98682,0 -38,-4.25329 -38,-9.5c0,-5.24671 17.01318,-9.5 38,-9.5z" fill-opacity="0.74118" fill="#fcfeff"/><path d="M28.31432,19.32246c16.56854,0 30,1.79086 30,4c0,2.20914 -13.43146,4 -30,4c-16.56854,0 -30,-1.79086 -30,-4c0,-2.20914 13.43146,-4 30,-4z" fill-opacity="0.74118" fill="#fcfeff"/></g></g></svg>