<svg version="1.1" xmlns="http://www.w3.org/2000/svg" xmlns:xlink="http://www.w3.org/1999/xlink" width="528" height="393" viewBox="0,0,528,393"><defs><linearGradient x1="240" y1="-16.50001" x2="240" y2="376.5" gradientUnits="userSpaceOnUse" id="color-1"><stop offset="0" stop-color="#637b86"/><stop offset="1" stop-color="#2f3a3f"/></linearGradient></defs><g transform="translate(24,16.5)"><g data-paper-data="{&quot;isPaintingLayer&quot;:true}" fill-rule="nonzero" stroke-linejoin="miter" stroke-miterlimit="10" stroke-dasharray="" stroke-dashoffset="0" style="mix-blend-mode: normal"><path d="M-24,376.5v-393h528v393z" fill="url(#color-1)" stroke="none" stroke-width="0" stroke-linecap="butt"/><path d="M360.91608,180.29471c-0.16273,-14.63467 11.56908,-26.63033 26.20375,-26.79308c14.63467,-0.16273 26.63033,11.56908 26.79308,26.20375c0.16273,14.63467 -11.56908,26.63033 -26.20375,26.79308c-14.63467,0.16273 -26.63033,-11.56908 -26.79308,-26.20375z" data-paper-data="{&quot;index&quot;:null}" fill="#0068ff" stroke="#0010c7" stroke-width="2" stroke-linecap="butt"/><path d="M366.66526,173.90304c0,-6.07106 4.92155,-10.99261 10.99261,-10.99261c6.07106,0 10.99261,4.92155 10.99261,10.99261c0,6.07106 -4.92155,10.99261 -10.99261,10.99261c-6.07106,0 -10.99261,-4.92155 -10.99261,-10.99261z" fill="#ffffff" stroke="#000000" stroke-width="2" stroke-linecap="butt"/><path d="M389.43567,169.9771c0,-6.07106 4.92155,-10.99261 10.99261,-10.99261c6.07106,0 10.99261,4.92155 10.99261,10.99261c0,6.07106 -4.92155,10.99261 -10.99261,10.99261c-6.07106,0 -10.99261,-4.92155 -10.99261,-10.99261z" fill="#ffffff" stroke="#000000" stroke-width="2" stroke-linecap="butt"/><path d="M345.99537,236.53751c0,0 -0.16351,2.77508 -0.88004,3.47372c-0.89336,0.87106 -4.06761,1.35038 -4.06761,1.35038l-29.66314,0.19579c0,0 -3.18402,-0.69402 -4.00494,-2.16403c-0.69592,-1.24618 -0.60779,-4.77494 -0.60779,-4.77494l0.44432,-25.33328c0,0 0.03594,-4.19844 0.77158,-5.18543c0.82065,-1.10106 3.92524,-1.11619 3.92524,-1.11619l26.94883,0.21353c0,0 4.54134,-0.11274 5.74003,1.00567c1.17883,1.09988 1.39352,5.65011 1.39352,5.65011v26.68466z" data-paper-data="{&quot;index&quot;:null}" fill="#00ff3f" stroke="#00c230" stroke-width="2" stroke-linecap="butt"/><path d="M336.88032,228.34716v-16.57934l3.17045,-0.06555v16.64489z" data-paper-data="{&quot;index&quot;:null}" fill="#000000" stroke="none" stroke-width="2" stroke-linecap="butt"/><path d="M331.33201,228.34717v-16.64489l3.17046,0.06556v16.57933z" data-paper-data="{&quot;index&quot;:null}" fill="#000000" stroke="none" stroke-width="2" stroke-linecap="butt"/><path d="M329.02699,216.96145v-1.75194h3.09958v1.75194z" fill="#000000" stroke="none" stroke-width="2" stroke-linecap="butt"/><path d="M339.5386,217.09622v-1.61717h2.69529v1.61717z" fill="#000000" stroke="none" stroke-width="2" stroke-linecap="butt"/><path d="M237.96535,258.22614v-37.57426c0,0 8.44841,-8.66862 22.54455,2.73267c5.95029,4.81273 7.03867,9.72114 11.04698,16.15562c5.48732,8.80872 12.86391,18.68597 12.86391,18.68597z" fill="#b0ccd7" stroke="#639b9b" stroke-width="2" stroke-linecap="butt"/><path d="M434.03466,265.05783c0,15.46944 -37.00965,28.0099 -82.66337,28.0099c-45.65371,0 -118.87129,-32.10891 -118.87129,-32.10891c0,0 73.21757,-23.91089 118.87129,-23.91089c45.65371,0 82.66337,12.54046 82.66337,28.0099z" fill="#00bcff" stroke="#00b1b1" stroke-width="2" stroke-linecap="butt"/><path d="M439.50001,263.00832c0,2.26382 -1.68225,4.09901 -3.75743,4.09901c-2.07517,0 -3.75743,-1.83519 -3.75743,-4.09901c0,-2.26382 1.68225,-4.09901 3.75743,-4.09901c2.07517,0 3.75743,1.83519 3.75743,4.09901z" fill="#b0ccd7" stroke="#639b9b" stroke-width="2" stroke-linecap="butt"/><path d="M433.00783,274.26099v-25h4.55446v25z" fill="#b0ccd7" stroke="#639b9b" stroke-width="2" stroke-linecap="butt"/><path d="M365.76319,214.7386l5.92288,-4.90489l32.69927,39.48591l-5.92288,4.90489z" fill="#b0ccd7" stroke="#639b9b" stroke-width="2" stroke-linecap="butt"/><path d="M359.56932,251.16673v-40.9901h6.14851v40.9901z" fill="#b0ccd7" stroke="#639b9b" stroke-width="2" stroke-linecap="butt"/><path d="M408.75743,252.30535v-42.58416h5.46535v42.58416z" fill="#b0ccd7" stroke="#639b9b" stroke-width="2" stroke-linecap="butt"/><path d="M354.10397,213.13703v-8.19802h65.58416v8.19802z" fill="#b0ccd7" stroke="#639b9b" stroke-width="2" stroke-linecap="butt"/><path d="M354.78713,256.8598v-7.51485h63.53465v7.51485z" fill="#b0ccd7" stroke="#639b9b" stroke-width="2" stroke-linecap="butt"/><path d="M381.05568,201.41668c0,0 3.77875,-17.48533 10.21449,-17.53339c6.32792,-0.04726 8.18551,16.53339 8.18551,16.53339" fill="none" stroke="#000000" stroke-width="2" stroke-linecap="round"/></g></g></svg>