<svg version="1.1" xmlns="http://www.w3.org/2000/svg" xmlns:xlink="http://www.w3.org/1999/xlink" width="51.40624" height="75.04794" viewBox="0,0,51.40624,75.04794"><g transform="translate(-213.21929,-128.14845)"><g data-paper-data="{&quot;isPaintingLayer&quot;:true}" fill-rule="nonzero" stroke-linecap="butt" stroke-linejoin="miter" stroke-miterlimit="10" stroke-dasharray="" stroke-dashoffset="0" style="mix-blend-mode: normal"><path d="M263.02256,194.85159c0,0 -0.19618,2.45195 -1.05588,3.06924c-1.07187,0.76963 -4.88037,1.19314 -4.88037,1.19314l-35.5902,0.17299c0,0 -3.82024,-0.61321 -4.80518,-1.91206c-0.83497,-1.10108 -0.72923,-4.21895 -0.72923,-4.21895l0.5331,-22.38352c0,0 0.04312,-3.70958 0.92575,-4.58165c0.98463,-0.97285 4.70955,-0.98622 4.70955,-0.98622l32.33354,0.18866c0,0 5.44875,-0.09962 6.88695,0.88857c1.41437,0.97182 1.67195,4.99222 1.67195,4.99222v23.57754z" data-paper-data="{&quot;index&quot;:null}" fill="#ff0062" stroke="#b60046" stroke-width="2"/><path d="M253.39187,187.61488v-11.67205l3.81517,-3.03473v14.70678z" data-paper-data="{&quot;index&quot;:null}" fill="#000000" stroke="none" stroke-width="0"/><path d="M246.7153,187.61489v-14.70678l3.81518,3.03473v11.67205z" data-paper-data="{&quot;index&quot;:null}" fill="#000000" stroke="none" stroke-width="0"/><g stroke-width="2"><path d="M231.81825,150.52974l8.23438,-19.69791l7.58854,19.69791z" fill="#86a8cb" stroke="#5a728b"/><path d="M226.81305,154.72766l3.0677,-4.19791h19.53645l3.55208,4.19791z" fill="#3f4f60" stroke="#222b34"/><path d="M214.2193,202.19639v-47.6302h49.40624v47.6302zM238.43804,186.20161l20.17188,0.17188l0.17187,-16.94271l-20.01041,0.47396z" fill="#3f4f60" stroke="#222b34"/><path d="M216.80263,158.11828c0,-0.80254 0.65059,-1.45312 1.45313,-1.45312c0.80254,0 1.45313,0.65058 1.45313,1.45312c0,0.80254 -0.65059,1.45313 -1.45312,1.45313c-0.80254,0 -1.45312,-0.65059 -1.45312,-1.45312z" fill="#3f4f60" stroke="#222b34"/><path d="M258.29741,158.11828c0,-0.80254 0.65058,-1.45312 1.45313,-1.45312c0.80254,0 1.45313,0.65058 1.45313,1.45312c0,0.80254 -0.65058,1.45313 -1.45312,1.45313c-0.80254,0 -1.45312,-0.65059 -1.45312,-1.45312z" fill="#3f4f60" stroke="#222b34"/><path d="M216.80263,198.48285c0,-0.80254 0.65059,-1.45312 1.45313,-1.45312c0.80254,0 1.45313,0.65058 1.45313,1.45312c0,0.80254 -0.65059,1.45313 -1.45312,1.45313c-0.80254,0 -1.45312,-0.65059 -1.45312,-1.45312z" fill="#3f4f60" stroke="#222b34"/><path d="M258.78179,198.48285c0,-0.80254 0.65058,-1.45312 1.45313,-1.45312c0.80254,0 1.45313,0.65058 1.45313,1.45312c0,0.80254 -0.65058,1.45313 -1.45312,1.45313c-0.80254,0 -1.45312,-0.65059 -1.45312,-1.45312z" fill="#3f4f60" stroke="#222b34"/></g></g></g></svg>