<svg version="1.1" xmlns="http://www.w3.org/2000/svg" xmlns:xlink="http://www.w3.org/1999/xlink" width="565.41925" height="530.74283" viewBox="0,0,565.41925,530.74283"><g transform="translate(2.90679,153.22196)"><g data-paper-data="{&quot;isPaintingLayer&quot;:true}" fill-rule="nonzero" stroke="none" stroke-width="0" stroke-linecap="butt" stroke-linejoin="miter" stroke-miterlimit="10" stroke-dasharray="" stroke-dashoffset="0" style="mix-blend-mode: normal"><g><path d="M157.15374,283.37483v-14.5h74v14.5z" fill="#7e4a00"/><path d="M157.21802,275.37483v-7h73.5v7z" fill="#c27100"/></g><g><path d="M-2.32115,377.44805v-111.26977h81.98825v111.26977z" fill="#ffd07f"/><path d="M-2.85009,316.85064v-42.16538h82.57388v42.16538l-20.34639,-18.42281l-21.57841,13.19612l-16.81904,-18.19852z" fill="#7c653e"/><path d="M-2.90679,308.34362v-42.16539h82.57388v42.16539l-20.34639,-18.42281l-21.57841,13.19612l-16.81904,-18.19852z" fill="#76cc00"/><path d="M4.56343,317.50586c0,-0.81281 0.65891,-1.47173 1.47173,-1.47173c0.81281,0 1.47173,0.65891 1.47173,1.47173c0,0.81281 -0.65892,1.47173 -1.47173,1.47173c-0.81281,0 -1.47173,-0.65892 -1.47173,-1.47173z" fill="#c4a062"/><path d="M37.47188,332.72281c0,-0.81281 0.65891,-1.47173 1.47173,-1.47173c0.81281,0 1.47173,0.65891 1.47173,1.47173c0,0.81281 -0.65892,1.47173 -1.47173,1.47173c-0.81281,0 -1.47173,-0.65892 -1.47173,-1.47173z" fill="#c4a062"/><path d="M57.3445,324.27355c0,-0.81281 0.65891,-1.47173 1.47173,-1.47173c0.81281,0 1.47173,0.65891 1.47173,1.47173c0,0.81281 -0.65892,1.47173 -1.47173,1.47173c-0.81281,0 -1.47173,-0.65892 -1.47173,-1.47173z" fill="#c4a062"/><path d="M14.2106,349.65536c0,-0.81281 0.65891,-1.47173 1.47173,-1.47173c0.81281,0 1.47173,0.65891 1.47173,1.47173c0,0.81281 -0.65892,1.47173 -1.47173,1.47173c-0.81281,0 -1.47173,-0.65892 -1.47173,-1.47173z" fill="#c4a062"/><path d="M-0.44622,329.41175c0,-0.81281 0.65891,-1.47173 1.47173,-1.47173c0.81281,0 1.47173,0.65891 1.47173,1.47173c0,0.81281 -0.65892,1.47173 -1.47173,1.47173c-0.81281,0 -1.47173,-0.65892 -1.47173,-1.47173z" fill="#c4a062"/><path d="M35.4884,360.06994c0,-0.81281 0.65891,-1.47173 1.47173,-1.47173c0.81281,0 1.47173,0.65891 1.47173,1.47173c0,0.81281 -0.65892,1.47173 -1.47173,1.47173c-0.81281,0 -1.47173,-0.65892 -1.47173,-1.47173z" fill="#c4a062"/><path d="M65.31757,348.18868c0,-0.81281 0.65891,-1.47173 1.47173,-1.47173c0.81281,0 1.47173,0.65891 1.47173,1.47173c0,0.81281 -0.65892,1.47173 -1.47173,1.47173c-0.81281,0 -1.47173,-0.65892 -1.47173,-1.47173z" fill="#c4a062"/><path d="M52.59429,366.71858c0,-0.81281 0.65891,-1.47173 1.47173,-1.47173c0.81281,0 1.47173,0.65891 1.47173,1.47173c0,0.81281 -0.65892,1.47173 -1.47173,1.47173c-0.81281,0 -1.47173,-0.65892 -1.47173,-1.47173z" fill="#c4a062"/><path d="M14.26444,372.77347c0,-0.81281 0.65891,-1.47173 1.47173,-1.47173c0.81281,0 1.47173,0.65891 1.47173,1.47173c0,0.81281 -0.65892,1.47173 -1.47173,1.47173c-0.81281,0 -1.47173,-0.65892 -1.47173,-1.47173z" fill="#c4a062"/></g><g><path d="M78.99079,377.52087v-111.26977h81.98825v111.26977z" fill="#ffd07f"/><path d="M78.46184,316.92346v-42.16538h82.57388v42.16538l-20.34639,-18.42281l-21.57841,13.19612l-16.81904,-18.19852z" fill="#7c653e"/><path d="M78.40516,308.41648v-42.16539h82.57388v42.16539l-20.34639,-18.42281l-21.57841,13.19612l-16.81904,-18.19852z" fill="#76cc00"/><path d="M85.87539,317.57867c0,-0.81281 0.65891,-1.47173 1.47173,-1.47173c0.81281,0 1.47173,0.65891 1.47173,1.47173c0,0.81281 -0.65892,1.47173 -1.47173,1.47173c-0.81281,0 -1.47173,-0.65892 -1.47173,-1.47173z" fill="#c4a062"/><path d="M118.78383,332.79562c0,-0.81281 0.65891,-1.47173 1.47173,-1.47173c0.81281,0 1.47173,0.65891 1.47173,1.47173c0,0.81281 -0.65892,1.47173 -1.47173,1.47173c-0.81281,0 -1.47173,-0.65892 -1.47173,-1.47173z" fill="#c4a062"/><path d="M138.65644,324.34637c0,-0.81281 0.65891,-1.47173 1.47173,-1.47173c0.81281,0 1.47173,0.65891 1.47173,1.47173c0,0.81281 -0.65892,1.47173 -1.47173,1.47173c-0.81281,0 -1.47173,-0.65892 -1.47173,-1.47173z" fill="#c4a062"/><path d="M95.52254,349.72819c0,-0.81281 0.65891,-1.47173 1.47173,-1.47173c0.81281,0 1.47173,0.65891 1.47173,1.47173c0,0.81281 -0.65892,1.47173 -1.47173,1.47173c-0.81281,0 -1.47173,-0.65892 -1.47173,-1.47173z" fill="#c4a062"/><path d="M80.86572,329.48456c0,-0.81281 0.65891,-1.47173 1.47173,-1.47173c0.81281,0 1.47173,0.65891 1.47173,1.47173c0,0.81281 -0.65892,1.47173 -1.47173,1.47173c-0.81281,0 -1.47173,-0.65892 -1.47173,-1.47173z" fill="#c4a062"/><path d="M116.80034,360.14279c0,-0.81281 0.65891,-1.47173 1.47173,-1.47173c0.81281,0 1.47173,0.65891 1.47173,1.47173c0,0.81281 -0.65892,1.47173 -1.47173,1.47173c-0.81281,0 -1.47173,-0.65892 -1.47173,-1.47173z" fill="#c4a062"/><path d="M146.62951,348.26149c0,-0.81281 0.65891,-1.47173 1.47173,-1.47173c0.81281,0 1.47173,0.65891 1.47173,1.47173c0,0.81281 -0.65892,1.47173 -1.47173,1.47173c-0.81281,0 -1.47173,-0.65892 -1.47173,-1.47173z" fill="#c4a062"/><path d="M133.90624,366.79139c0,-0.81281 0.65891,-1.47173 1.47173,-1.47173c0.81281,0 1.47173,0.65891 1.47173,1.47173c0,0.81281 -0.65892,1.47173 -1.47173,1.47173c-0.81281,0 -1.47173,-0.65892 -1.47173,-1.47173z" fill="#c4a062"/><path d="M95.57638,372.84628c0,-0.81281 0.65891,-1.47173 1.47173,-1.47173c0.81281,0 1.47173,0.65891 1.47173,1.47173c0,0.81281 -0.65892,1.47173 -1.47173,1.47173c-0.81281,0 -1.47173,-0.65892 -1.47173,-1.47173z" fill="#c4a062"/></g><g><path d="M230.13364,283.44142v-14.5h74v14.5z" fill="#7e4a00"/><path d="M230.19792,275.44142v-7h73.5v7z" fill="#c27100"/></g><g><path d="M302.42446,283.4007v-14.5h74v14.5z" fill="#7e4a00"/><path d="M302.48874,275.4007v-7h73.5v7z" fill="#c27100"/></g><g><path d="M375.40436,283.79891v-14.5h74v14.5z" fill="#7e4a00"/><path d="M375.46864,275.79891v-7h73.5v7z" fill="#c27100"/></g><g><path d="M270.26184,-89.9998v-14.5h74v14.5z" fill="#7e4a00"/><path d="M270.32612,-97.9998v-7h73.5v7z" fill="#c27100"/></g><g><path d="M343.24174,-89.93321v-14.5h74v14.5z" fill="#7e4a00"/><path d="M343.30602,-97.93321v-7h73.5v7z" fill="#c27100"/></g><g><path d="M415.53256,-89.97393v-14.5h74v14.5z" fill="#7e4a00"/><path d="M415.59684,-97.97393v-7h73.5v7z" fill="#c27100"/></g><g><path d="M488.51246,-89.57572v-14.5h74v14.5z" fill="#7e4a00"/><path d="M488.57674,-97.57572v-7h73.5v7z" fill="#c27100"/></g><g><path d="M5.19256,-91.3918l1,-61.83016h86.4538v64.33016c0,0 -19.56755,10.72092 -48.25213,10.19184c-24.92942,-0.45982 -39.20167,-12.69184 -39.20167,-12.69184z" fill="#ffd07f"/><path d="M5.63481,-99.78966v-44.46195h87.07133v44.46195l-21.45457,-19.42622l-22.75369,13.91486l-17.7351,-19.18972z" fill="#7c653e"/><path d="M5.57503,-108.76v-44.46196h87.07133v44.46196l-21.45457,-19.42622l-22.7537,13.91486l-17.7351,-19.18972z" fill="#76cc00"/><path d="M13.45212,-99.09875c0,-0.85708 0.6948,-1.55189 1.55189,-1.55189c0.85708,0 1.55189,0.6948 1.55189,1.55189c0,0.85708 -0.6948,1.55189 -1.55189,1.55189c-0.85708,0 -1.55189,-0.6948 -1.55189,-1.55189z" fill="#c4a062"/><path d="M69.10795,-91.96247c0,-0.85709 0.6948,-1.55188 1.55189,-1.55188c0.85709,0 1.55189,0.6948 1.55189,1.55188c0,0.85709 -0.6948,1.55189 -1.55189,1.55189c-0.85709,0 -1.55189,-0.6948 -1.55189,-1.55189z" fill="#c4a062"/></g></g></g></svg>