<svg version="1.1" xmlns="http://www.w3.org/2000/svg" xmlns:xlink="http://www.w3.org/1999/xlink" width="2049.2895" height="1954.0259" viewBox="0,0,2049.2895,1954.0259"><defs><linearGradient x1="-59.50603" y1="-583.63086" x2="-59.50603" y2="709.50291" gradientUnits="userSpaceOnUse" id="color-1"><stop offset="0" stop-color="#ffa34d"/><stop offset="1" stop-color="#ff4dcd"/></linearGradient></defs><g transform="translate(1107.93665,583.63083)"><g data-paper-data="{&quot;isPaintingLayer&quot;:true}" fill-rule="nonzero" stroke-linecap="butt" stroke-linejoin="miter" stroke-miterlimit="10" stroke-dasharray="" stroke-dashoffset="0" style="mix-blend-mode: normal"><g><path d="M-928.17602,709.50291v-1293.13374h1737.33999v1293.13374z" fill="url(#color-1)" stroke="none" stroke-width="0"/><g><path d="M430.42856,294.05866c-9.85998,-4.7125 -30.66211,-6.05965 -30.66211,-6.05965v-36.9079c0,0 36.11673,-4.88319 53.25279,12.12688c17.13606,17.01007 18.45394,59.05261 18.45394,59.05261c0,0 -27.93865,-21.94808 -41.04462,-28.21197z" data-paper-data="{&quot;index&quot;:null}" fill="#b82a2a" stroke="none" stroke-width="0"/><path d="M265.84356,323.32512c0,0 1.31786,-42.04254 18.45392,-59.05261c17.13606,-17.01007 53.25279,-12.12688 53.25279,-12.12688v36.9079c0,0 -20.80213,1.34716 -30.66211,6.05966c-13.10598,6.26388 -41.04462,28.21195 -41.04462,28.21195z" fill="#b82a2a" stroke="none" stroke-width="0"/><path d="M320.92596,296.89289c0,0 -8.81396,-118.68283 0.06324,-174.23696c7.03573,-44.03005 48.97152,-132.62574 48.97152,-132.62574c0,0 37.17491,84.90349 43.06002,129.86575c7.07568,54.05821 -3.51586,172.25162 -3.51586,172.25162z" fill="#8ba5b8" stroke="none" stroke-width="0"/><path d="M320.9892,125.81947c7.03573,-44.03005 48.97152,-132.62575 48.97152,-132.62575c0,0 35.68993,84.37615 43.39028,130.31014c-4.85343,0.53364 -27.05925,-10.33275 -48.51811,-9.74562c-21.09542,0.57717 -41.46899,12.61274 -43.92561,12.57895c0.02715,-0.17319 0.05446,-0.34574 0.08193,-0.51771z" fill="#b82a2a" stroke="none" stroke-width="0"/><path d="M372.87642,282.46283c0,20.23807 -5.27256,49.29839 -5.27256,49.29839c0,0 -4.21803,-30.64209 -4.21803,-50.88016c0,-20.23805 1.88849,-22.40836 4.21803,-22.40836c2.32957,0 5.27256,3.75206 5.27256,23.99013z" fill="#b82a2a" stroke="none" stroke-width="0"/><path d="M347.86763,86.85097c0,-11.06542 8.97028,-20.03571 20.03569,-20.03571c11.06541,0 20.03569,8.97028 20.03569,20.03571c0,11.06541 -8.97028,20.03571 -20.03569,20.03571c-11.06542,0 -20.03569,-8.97028 -20.03569,-20.03571z" fill="#93e3ff" stroke="none" stroke-width="0"/><path d="M350.13555,-286.59131v0v0z" fill="#93e3ff" stroke="#679db1" stroke-width="2"/><path d="M348.75125,87.73937v-8.58672l34.57288,18.30329l-7.68286,6.10111z" fill="#cff2ff" stroke="none" stroke-width="0"/><path d="M353.0446,71.2438l4.0674,-1.3558l25.98616,6.55303l1.58177,4.74531z" fill="#cff2ff" stroke="none" stroke-width="0"/><path d="M346.96375,86.39905c0,-11.06542 8.9703,-20.03571 20.03571,-20.03571c11.06541,0 20.03569,8.97028 20.03569,20.03571c0,11.06541 -8.97028,20.03571 -20.03569,20.03571c-11.06542,0 -20.03571,-8.97028 -20.03571,-20.03571z" fill="none" stroke="#679db1" stroke-width="2"/><text transform="translate(322.29007,151.84618) rotate(90) scale(0.26363,0.26363)" font-size="40" xml:space="preserve" fill="#b82a2a" fill-rule="nonzero" stroke="none" stroke-width="1" stroke-linecap="butt" stroke-linejoin="miter" stroke-miterlimit="10" stroke-dasharray="" stroke-dashoffset="0" font-family="Pixel" font-weight="normal" text-anchor="start" style="mix-blend-mode: normal"><tspan x="0" dy="0">DR.BOBBLEHEAD</tspan></text></g><path d="M-901.2873,707.74665v-399.59527c0,0 154.83325,-54.36673 225.4091,-54.36673c70.43417,0 230.93128,32.09581 416.60288,38.96738c195.34467,7.22957 421.38036,-13.39538 610.41019,-11.35763c229.01234,2.4687 403.70862,26.75698 403.70862,26.75698v399.59527z" data-paper-data="{&quot;index&quot;:null}" fill="#0041ff" stroke="none" stroke-width="0"/><path d="M-926.96373,781.8901v-409.66256c0,0 179.09754,-24.90016 413.87956,-27.43112c193.79218,-2.08902 425.5226,19.05549 625.78875,11.64383c190.34935,-7.04472 354.89003,-39.94915 427.09868,-39.94915c72.35393,0 231.088,55.73643 231.088,55.73643v409.66256z" data-paper-data="{&quot;index&quot;:null}" fill="#0074ff" stroke="none" stroke-width="0"/><path d="M-933.54457,856.12651v-409.66256c0,0 179.09754,-24.90016 413.87956,-27.43112c193.79218,-2.08902 425.5226,19.05549 625.78875,11.64383c190.34935,-7.04472 354.89003,-39.94915 427.09868,-39.94915c72.35393,0 231.088,55.73643 231.088,55.73643v409.66256z" data-paper-data="{&quot;index&quot;:null}" fill="#008bff" stroke="none" stroke-width="0"/><path d="M-949.99665,963.89805v-419.98352c0,0 162.73318,-57.14059 236.91,-57.14059c74.02786,0 242.71393,33.73342 437.85893,40.95562c205.31157,7.59846 442.88018,-14.07884 641.55474,-11.93714c240.69707,2.59466 424.30676,28.1222 424.30676,28.1222v419.98352z" fill="#00b1ff" stroke="none" stroke-width="0"/><path d="M-973.02957,1070.96713v-435.07281c0,0 190.20645,-26.44468 439.55133,-29.13256c205.81257,-2.21863 451.91655,20.23748 664.60461,12.36601c202.15616,-7.48168 376.90285,-42.42703 453.59038,-42.42703c76.84182,0 245.42175,59.19358 245.42175,59.19358v435.07281z" data-paper-data="{&quot;index&quot;:null}" fill="#00d8ff" stroke="none" stroke-width="0"/><path d="M-1038.8379,1225.61674v-466.82961c0,0 180.8849,-63.51422 263.33553,-63.51422c82.28509,0 269.78689,37.49607 486.69882,45.52387c228.21257,8.44601 492.28016,-15.64919 713.11535,-13.26864c267.54503,2.88408 471.63503,31.25899 471.63503,31.25899v466.82961z" data-paper-data="{&quot;index&quot;:null}" fill="#39ffdb" stroke="none" stroke-width="0"/><path d="M-1107.93665,1370.39507v-488.26545c0,0 213.46137,-29.67785 493.2915,-32.69434c230.9755,-2.48989 507.16853,22.71174 745.86013,13.87789c226.87206,-8.39642 422.98352,-47.6142 509.047,-47.6142c86.23662,0 275.42735,66.43065 275.42735,66.43065v488.26545z" data-paper-data="{&quot;index&quot;:null}" fill="#6effe4" stroke="none" stroke-width="0"/><path d="M-939.12026,889.3308v-687.69708c0,0 119.90678,7.82686 172.99372,17.52543c60.10678,10.98104 169.20961,44.99248 169.20961,44.99248c0,0 -73.72534,50.77427 -74.90082,95.44257c-0.70721,26.87374 15.92012,77.85858 21.47352,133.98716c2.49785,25.24607 -90.31717,114.63808 -87.69405,142.03723c14.38202,150.22336 -79.33657,237.26012 -79.33657,237.26012z" fill="#ffc873" stroke="none" stroke-width="none"/><path d="M-939.12026,889.3308v-687.69708c0,0 119.90678,7.82686 172.99372,17.52543c60.10678,10.98104 169.20961,44.99248 169.20961,44.99248c0,0 -73.72534,50.77427 -74.90082,95.44257c-0.70721,26.87374 15.92012,77.85858 21.47352,133.98716c2.49785,25.24607 -90.31717,114.63808 -87.69405,142.03723c14.38202,150.22336 -79.33657,237.26012 -79.33657,237.26012z" fill="#ffc873" stroke="none" stroke-width="none"/><path d="M819.60744,904.13767c0,0 -93.71858,-87.03675 -79.33657,-237.26012c2.62312,-27.39915 -90.1919,-116.79117 -87.69405,-142.03723c5.5534,-56.12859 22.18073,-107.11343 21.47352,-133.98716c-1.17548,-44.66829 -74.90082,-95.44257 -74.90082,-95.44257c0,0 109.10283,-34.01144 169.20961,-44.99248c53.08694,-9.69857 172.99372,-17.52543 172.99372,-17.52543v687.69708z" data-paper-data="{&quot;index&quot;:null}" fill="#ffc873" stroke="none" stroke-width="none"/></g><path d="M6.93361,253.09296c0,-33.6411 61.48049,-60.9126 137.32052,-60.9126c75.84003,0 137.32052,27.2715 137.32052,60.9126c0,33.6411 -61.48049,60.91261 -137.32052,60.91261c-22.12272,0 -61.533,-6.44283 -61.533,-6.44283c0,0 -12.32523,7.70096 -21.98496,9.83677c-10.85225,2.39948 -39.96836,3.86139 -39.96836,3.86139c0,0 12.85163,-13.8918 16.19065,-20.38691c2.43764,-4.74174 2.00428,-15.00616 2.00428,-15.00616c0,0 -32.02914,-22.09457 -32.02914,-32.77487z" data-paper-data="{&quot;index&quot;:null}" fill="#ffffff" stroke="#00c1ff" stroke-width="2"/><text transform="translate(34.5048,249.10375) scale(0.5162,0.5162)" font-size="40" xml:space="preserve" fill="#00c1ff" fill-rule="nonzero" stroke="none" stroke-width="1" stroke-linecap="butt" stroke-linejoin="miter" stroke-miterlimit="10" stroke-dasharray="" stroke-dashoffset="0" font-family="Marker" font-weight="normal" text-anchor="start" style="mix-blend-mode: normal"><tspan x="0" dy="0">IS THAT A ROCKET?!?!?</tspan></text></g></g></svg>