<svg version="1.1" xmlns="http://www.w3.org/2000/svg" xmlns:xlink="http://www.w3.org/1999/xlink" width="26.83334" height="26.83334" viewBox="0,0,26.83334,26.83334"><defs><linearGradient x1="240" y1="166.58333" x2="240" y2="193.41667" gradientUnits="userSpaceOnUse" id="color-1"><stop offset="0" stop-color="#5e96ff"/><stop offset="1" stop-color="#0059ff"/></linearGradient></defs><g transform="translate(-226.58333,-166.58333)"><g data-paper-data="{&quot;isPaintingLayer&quot;:true}" fill="url(#color-1)" fill-rule="nonzero" stroke="none" stroke-width="0" stroke-linecap="butt" stroke-linejoin="miter" stroke-miterlimit="10" stroke-dasharray="" stroke-dashoffset="0" style="mix-blend-mode: normal"><path d="M226.58333,180c0,-7.40982 6.00685,-13.41667 13.41667,-13.41667c7.40982,0 13.41667,6.00685 13.41667,13.41667c0,7.40982 -6.00685,13.41667 -13.41667,13.41667c-7.40982,0 -13.41667,-6.00685 -13.41667,-13.41667zM240.10476,190.30374c5.52285,0 10,-4.47715 10,-10c0,-5.52285 -4.47715,-10 -10,-10c-5.52285,0 -10,4.47715 -10,10c0,5.52285 4.47715,10 10,10z"/></g></g></svg>