<svg version="1.1" xmlns="http://www.w3.org/2000/svg" xmlns:xlink="http://www.w3.org/1999/xlink" width="701.2012" height="460.96096" viewBox="0,0,701.2012,460.96096"><g transform="translate(86.57658,49.72973)"><g data-paper-data="{&quot;isPaintingLayer&quot;:true}" fill-rule="nonzero" stroke-linejoin="miter" stroke-miterlimit="10" stroke-dasharray="" stroke-dashoffset="0" style="mix-blend-mode: normal"><path d="M-86.57657,411.23123v-460.96096h680.18018v460.96096z" fill="#e2e2e2" stroke="none" stroke-width="NaN" stroke-linecap="butt"/><path d="M613.12312,241.56156v-3.003h1.5015v3.003z" fill="#e2e2e2" stroke="none" stroke-width="0" stroke-linecap="butt"/><text transform="translate(6.51653,47.49249) scale(1.00055,1.18324)" font-size="40" xml:space="preserve" fill="#3b3b3b" fill-rule="nonzero" stroke="none" stroke-width="1" stroke-linecap="butt" stroke-linejoin="miter" stroke-miterlimit="10" stroke-dasharray="" stroke-dashoffset="0" font-family="Serif" font-weight="normal" text-anchor="start" style="mix-blend-mode: normal"><tspan x="0" dy="0">WHAT IS A "BLUEBALL"?</tspan></text><path d="M381.8919,183.47598c-33.8461,0 -61.28378,-27.43769 -61.28378,-61.28378c0,-33.8461 27.43769,-61.28378 61.28378,-61.28378c33.8461,0 61.28378,27.43769 61.28378,61.28378c0,33.8461 -27.43769,61.28378 -61.28378,61.28378z" data-paper-data="{&quot;index&quot;:null}" fill="#7b7b7b" stroke="#606060" stroke-width="4" stroke-linecap="butt"/><path d="M358.85715,105.13634c2.67204,0 4.83819,9.1459 4.83819,20.42794c0,11.28203 -2.16613,20.42794 -4.83819,20.42794c-2.67204,0 -4.83819,-9.1459 -4.83819,-20.42794c0,-11.28203 2.16613,-20.42794 4.83819,-20.42794z" data-paper-data="{&quot;index&quot;:null}" fill="#3b3b3b" stroke="none" stroke-width="4" stroke-linecap="butt"/><path d="M344.34259,125.56427c0,9.79756 -1.44409,17.74005 -3.22547,17.74005c-1.78137,0 -3.22547,-7.94249 -3.22547,-17.74005c0,-9.79756 1.44409,-17.74005 3.22547,-17.74005c1.78137,0 3.22547,7.94249 3.22547,17.74005z" data-paper-data="{&quot;index&quot;:null}" fill="#3b3b3b" stroke="none" stroke-width="4" stroke-linecap="butt"/><path d="M415.7602,136.56342c0,0 -0.26122,9.88962 -26.23699,21.70957c-17.95483,8.17013 -37.39309,5.45831 -37.39309,5.45831" data-paper-data="{&quot;index&quot;:null}" fill="none" stroke="#3b3b3b" stroke-width="4" stroke-linecap="round"/><text transform="translate(13.50001,74) scale(0.49464,0.5)" font-size="40" xml:space="preserve" fill="#3b3b3b" fill-rule="nonzero" stroke="none" stroke-width="1" stroke-linecap="butt" stroke-linejoin="miter" stroke-miterlimit="10" stroke-dasharray="" stroke-dashoffset="0" font-family="Serif" font-weight="normal" text-anchor="start" style="mix-blend-mode: normal"><tspan x="0" dy="0">Blueball Circlington is this dude.</tspan><tspan x="0" dy="46.15px">You play as him in this action</tspan><tspan x="0" dy="46.15px">platformer and he is a well known</tspan><tspan x="0" dy="46.15px">hero in his world. He is also a ball,</tspan><tspan x="0" dy="46.15px">and blue. He has saved the world</tspan><tspan x="0" dy="46.15px">countless (one) times! How cool is</tspan><tspan x="0" dy="46.15px">that?</tspan><tspan x="0" dy="46.15px"> </tspan><tspan x="0" dy="46.15px">Age: 22</tspan><tspan x="0" dy="46.15px">Likes: Gaming, Spaghetti, The Number 9, and Skee-ball.</tspan><tspan x="0" dy="46.15px">Dislikes: Red, Dr.Bobblehead, Cucumbers, The Number 8</tspan></text><path d="M304.00001,99c0,-2.26853 2.05849,-2.47857 2.43967,-2.49802c0.63412,-0.71104 1.24207,-1.46386 2.10362,-1.81168c1.16721,-0.47122 4.79049,0.34674 6.90561,0.05033c-1.22212,-1.17796 -2.18796,-2.95905 -3.26323,-3.614c-1.80048,-1.09668 -4.18879,-0.92114 -6,-2c-0.9239,-0.55033 -1.49607,-1.55132 -2.32368,-2.23799c-2.18902,-1.81625 -4.73381,-3.16853 -6.94697,-4.95528c-0.62472,-0.50436 -0.92506,-1.40603 -1.64677,-1.75786c-1.18378,-0.57707 -2.6739,-0.31127 -3.84268,-0.91816c-4.0871,-2.12223 -4.77225,-5.81849 -8.71614,-6.88564c0,0 -2.37171,-0.79057 -1.58114,-3.16228c0.79057,-2.37171 3.16228,-1.58114 3.16228,-1.58114c1.2423,0.46165 2.67801,0.57485 3.72691,1.38494c2.10565,1.62624 3.15628,4.58259 5.55695,5.72942c1.29206,0.61724 2.88199,0.43072 4.15732,1.08184c0.96496,0.49267 1.50441,1.56881 2.35323,2.24214c2.26451,1.79636 4.83663,3.18933 7.05303,5.04472c0.62162,0.52037 0.98305,1.34181 1.67632,1.76201c1.80287,1.09275 4.18698,0.92417 6,2c0.5115,0.30352 0.97466,0.69114 1.39122,1.12539c-0.53319,-1.48582 -0.89215,-2.91353 -0.20555,-3.99876v-3c0,-1.38071 1.11929,-2.5 2.5,-2.5c1.38071,0 2.5,1.11929 2.5,2.5v2.78148c0.50813,2.18035 1.53885,5.266 1.01762,7.88639c0.2811,2.14526 0.07191,4.27813 -1.74985,6.0999c-3.52988,3.52988 -8.29937,-0.31194 -11,3l-2.76777,0.73223c0,0 -2.5,0 -2.5,-2.5zM305.96564,97.00964l-0.23339,0.22259c0.07934,-0.07174 0.15699,-0.14616 0.23339,-0.22259z" fill="#3b3b3b" stroke="none" stroke-width="0.5" stroke-linecap="butt"/><text transform="translate(7.50001,350.46417) scale(0.43647,0.43647)" font-size="40" xml:space="preserve" fill="#3b3b3b" fill-rule="nonzero" stroke="none" stroke-width="1" stroke-linecap="butt" stroke-linejoin="miter" stroke-miterlimit="10" stroke-dasharray="" stroke-dashoffset="0" font-family="Serif" font-weight="normal" text-anchor="start" style="mix-blend-mode: normal"><tspan x="0" dy="0">Last we saw of him he was being attacked when he was saved by...</tspan></text></g></g></svg>