<svg version="1.1" xmlns="http://www.w3.org/2000/svg" xmlns:xlink="http://www.w3.org/1999/xlink" width="586.03724" height="342.35059" viewBox="0,0,586.03724,342.35059"><defs><radialGradient cx="312.0937" cy="167.23989" r="25.16991" gradientUnits="userSpaceOnUse" id="color-1"><stop offset="0" stop-color="#fff696"/><stop offset="1" stop-color="#ffde00"/></radialGradient></defs><g transform="translate(40.0856,-29.14526)"><g data-paper-data="{&quot;isPaintingLayer&quot;:true}" fill-rule="nonzero" stroke-linejoin="miter" stroke-miterlimit="10" stroke-dasharray="" stroke-dashoffset="0" style="mix-blend-mode: normal"><path d="M517.81549,133.77012c0,0 -13.1649,3.5607 -5.73075,18.24872c9.32697,18.42776 33.8669,2.46877 33.8669,2.46877c0,0 -19.44356,23.77134 -43.4284,23.77134c-23.98484,0 -43.4284,-10.64278 -43.4284,-23.77134c0,-13.12853 19.44356,-23.77134 43.42841,-23.77134c5.38223,0 15.29225,3.05385 15.29225,3.05385z" data-paper-data="{&quot;index&quot;:null}" fill="#ff6900" stroke="none" stroke-width="0" stroke-linecap="butt"/><path d="M370.86665,30.14527c40.64798,0 73.5997,33.15637 73.5997,74.05684c0,40.90047 -32.95172,74.05684 -73.59969,74.05684c-40.64798,0 -73.59969,-33.15637 -73.59969,-74.05684c0,-40.90047 32.95171,-74.05684 73.59969,-74.05684z" data-paper-data="{&quot;index&quot;:null}" fill="#ff001e" stroke="#9e0000" stroke-width="2" stroke-linecap="butt"/><path d="M361.93336,59.98326c2.01979,0 3.65713,11.87078 3.65713,26.51417c0,14.64335 -1.63734,26.51416 -3.65713,26.51416c-2.01979,0 -3.65713,-11.87078 -3.65713,-26.51416c0,-14.64335 1.63734,-26.51417 3.65713,-26.51417z" data-paper-data="{&quot;index&quot;:null}" fill="#000000" stroke="#000000" stroke-width="2" stroke-linecap="butt"/><path d="M343.43822,112.43065c-1.76729,0 -3.19997,-11.46148 -3.19997,-25.5999c0,-14.13842 1.43266,-25.5999 3.19997,-25.5999c1.76729,0 3.19997,11.46148 3.19997,25.5999c0,14.13842 -1.43266,25.5999 -3.19997,25.5999z" data-paper-data="{&quot;index&quot;:null}" fill="#000000" stroke="#000000" stroke-width="2" stroke-linecap="butt"/><path d="M374.98092,214.83019c-170.736,1.85768 -91.4282,-129.82803 -91.4282,-129.82803c0,0 -18.54134,51.46596 64.062,50.22595c87.51549,-1.31375 141.65143,-45.65452 141.65143,-45.65452c0,0 50.94993,123.45882 -114.28523,125.25664z" data-paper-data="{&quot;index&quot;:null}" fill="#475875" stroke="#232c43" stroke-width="2" stroke-linecap="butt"/><path d="M385.94057,58.30258c0,0 -3.35947,-13.62745 -11.08306,-7.2655c-6.58948,5.42776 -8.88013,21.87585 -18.85127,20.79188c-3.02954,-0.32932 -3.54817,-4.46933 -3.54817,-4.46933c0,0 -1.97485,5.21233 -5.25574,4.86447c-8.866,-0.93996 -15.32399,1.62358 -20.31785,-4.23231c-4.75296,-5.57342 -13.4484,-2.19359 -13.4484,-2.19359" data-paper-data="{&quot;index&quot;:null}" fill="#ff001e" stroke="#9e0000" stroke-width="2" stroke-linecap="round"/><path d="M312.0937,192.4098c-13.90094,0 -25.16991,-11.26896 -25.16991,-25.1699c0,-13.90095 11.26896,-25.16991 25.16991,-25.16991c13.90094,0 25.16991,11.26896 25.16991,25.16991c0,13.90095 -11.26897,25.16991 -25.16991,25.16991z" data-paper-data="{&quot;index&quot;:null}" fill="url(#color-1)" stroke="#ff9400" stroke-width="2" stroke-linecap="butt"/><path d="M484.06291,131.82116c0,0 -16.73161,12.11184 -27.25478,17.20371c-11.23415,5.43589 -39.66398,15.35137 -39.66398,15.35137l-17.73421,-10.15015l12.6098,-16.07477c0,0 29.26313,-4.70359 41.00439,-8.41135c11.1358,-3.51656 27.72301,-13.29203 27.72301,-13.29203l3.3158,15.37322z" data-paper-data="{&quot;index&quot;:null}" fill="#ff0000" stroke="#9e0000" stroke-width="2" stroke-linecap="butt"/><path d="M250.24267,164.18272c0,29.91665 -54.6739,54.16889 -122.11759,54.16889c-67.44368,0 -122.11759,-24.25224 -122.11759,-54.16889c0,-29.91665 54.6739,-54.1689 122.11759,-54.1689c19.67348,0 54.7206,5.72954 54.7206,5.72954c0,0 10.96069,-6.84838 19.55098,-8.74773c9.65078,-2.13383 35.54341,-3.43389 35.54341,-3.43389c0,0 -11.42881,12.35382 -14.39816,18.12985c-2.16777,4.21678 -1.78238,13.34481 -1.78238,13.34481c0,0 28.48315,19.64845 28.48315,29.14632z" data-paper-data="{&quot;index&quot;:null}" fill="#ffffff" stroke="#00c1ff" stroke-width="2" stroke-linecap="butt"/><path d="M-39.08134,303.75058c-0.41452,-37.27691 29.46836,-67.83186 66.74527,-68.24638c37.27691,-0.41452 67.83186,29.46836 68.24638,66.74527c0.41452,37.27691 -29.46836,67.83186 -66.74527,68.24638c-37.27691,0.41452 -67.83186,-29.46836 -68.24638,-66.74527z" data-paper-data="{&quot;index&quot;:null}" fill="#0068ff" stroke="#0010c7" stroke-width="2" stroke-linecap="butt"/><path d="M83.76048,250.52849l-31,9l-54,-39" fill="none" stroke="#000000" stroke-width="2" stroke-linecap="round"/><path d="M50.46244,277.64199c0,13.07074 -2.01472,23.66667 -4.5,23.66667c-2.48528,0 -4.5,-10.59593 -4.5,-23.66667c0,-13.07074 2.01472,-23.66667 4.5,-23.66667c2.48528,0 4.5,10.59593 4.5,23.66667z" fill="#000000" stroke="none" stroke-width="0" stroke-linecap="butt"/><path d="M68.46244,278.64199c0,12.88664 -1.567,23.33333 -3.5,23.33333c-1.933,0 -3.5,-10.44669 -3.5,-23.33333c0,-12.88664 1.567,-23.33333 3.5,-23.33333c1.933,0 3.5,10.44669 3.5,23.33333z" fill="#000000" stroke="none" stroke-width="0" stroke-linecap="butt"/><path d="M14.46244,348.30865c0,0 18.20211,-1.13298 25.43243,0.07207c5.77145,0.96191 14.56757,6.59459 14.56757,6.59459" fill="none" stroke="#000000" stroke-width="2" stroke-linecap="round"/><text transform="translate(44.5899,167.32812) scale(0.5,0.5)" font-size="40" xml:space="preserve" fill="#00c1ff" fill-rule="nonzero" stroke="none" stroke-width="1" stroke-linecap="butt" stroke-linejoin="miter" stroke-miterlimit="10" stroke-dasharray="" stroke-dashoffset="0" font-family="Marker" font-weight="normal" text-anchor="start" style="mix-blend-mode: normal"><tspan x="0" dy="0">Hmmmmmmmmmmm...</tspan></text><path d="M336.14814,63.88541v-11.33333h27.33333v11.33333z" fill="#ff001e" stroke="none" stroke-width="0" stroke-linecap="butt"/><path d="M334.48148,114.55208v-33.66667c0,0 11.18529,-3.66667 18.33333,-3.66667c9.64702,0 34.33333,3.66667 34.33333,3.66667v33.66667z" fill="#ff001e" stroke="none" stroke-width="0" stroke-linecap="butt"/><path d="M301.55073,98.73987c0,0 2.98001,-13.52112 27.80592,-13.33185c32.3551,0.24663 49.77151,10.6189 49.77151,10.6189" data-paper-data="{&quot;index&quot;:null}" fill="none" stroke="#000000" stroke-width="2" stroke-linecap="round"/></g></g></svg>