<svg version="1.1" xmlns="http://www.w3.org/2000/svg" xmlns:xlink="http://www.w3.org/1999/xlink" width="505.44368" height="329.42048" viewBox="0,0,505.44368,329.42048"><g transform="translate(7.04457,-39.91677)"><g data-paper-data="{&quot;isPaintingLayer&quot;:true}" fill-rule="nonzero" stroke="none" stroke-linecap="butt" stroke-linejoin="miter" stroke-miterlimit="10" stroke-dasharray="" stroke-dashoffset="0" style="mix-blend-mode: normal"><g><g stroke-width="0"><path d="M80.57959,160.05624v-105h83.10226v105z" fill="#a9b4ff"/><path d="M80.57959,118.73367v-16.93548c0,0 4.94974,1.16686 10.92012,-0.67424c8.83219,-2.7236 20.72789,-8.80964 28.88517,-8.80964c7.13513,0 17.52295,5.84328 26.69086,8.25571c8.84706,2.328 16.60611,1.22817 16.60611,1.22817v16.93549c0,0 -11.02668,0.29594 -20.33459,-2.17871c-9.78982,-2.60277 -18.04921,-7.98258 -25.0574,-7.98258c-6.37711,0 -12.65957,4.81185 -19.89842,7.10388c-8.67627,2.74716 -17.81184,3.05741 -17.81184,3.05741z" fill="#7688ff"/><path d="M80.57959,83.50787v-16.93548c0,0 4.94974,1.16686 10.92012,-0.67424c8.83219,-2.7236 20.72789,-8.80963 28.88517,-8.80963c7.13513,0 17.52295,5.84327 26.69086,8.2557c8.84706,2.328 16.60611,1.22817 16.60611,1.22817v16.93549c0,0 -11.02668,0.29594 -20.33459,-2.17871c-9.78982,-2.60277 -18.04921,-7.98258 -25.0574,-7.98258c-6.37711,0 -12.65957,4.81185 -19.89842,7.10388c-8.67627,2.74716 -17.81184,3.05741 -17.81184,3.05741z" fill="#7688ff"/><path d="M80.57959,153.95948v-16.93548c0,0 4.94974,1.16686 10.92012,-0.67423c8.83219,-2.7236 20.72789,-8.80964 28.88517,-8.80964c7.13513,0 17.52295,5.84328 26.69086,8.25571c8.84706,2.328 16.60611,1.22816 16.60611,1.22816v16.93549c0,0 -11.02668,0.29595 -20.33459,-2.1787c-9.78982,-2.60277 -18.04921,-7.98259 -25.0574,-7.98259c-6.37711,0 -12.65957,4.81184 -19.89842,7.10388c-8.67627,2.74716 -17.81184,3.05741 -17.81184,3.05741z" fill="#7688ff"/></g><path d="M99.13542,41.88958c4.21923,0.13052 8.26596,1.82237 12.57641,2c7.02459,0.28947 13.44725,-2.59253 20.41176,-2.66667c6.79558,-0.07234 17.98543,0.85233 25.68343,0.61994c2.08698,-0.063 4.17794,0.98817 6.27921,1.46469c6.22151,1.4109 10.67401,1.23102 12.19342,8.41537c1.34647,6.36671 -7.76159,8.14978 -9.51417,13.25c-0.94544,2.75136 -0.01054,6.03476 -1.69947,8.60929c-1.50584,2.29543 -4.9003,3.48122 -7.60261,3.68744c-4.02345,0.30703 -6.92146,-5.06408 -10.17793,-6.80763c-3.86505,-2.06939 -8.19103,-2.42604 -12.40124,-3.44706c-0.41665,-0.10104 -2.66851,-1.83885 -3.04952,-1.73737c-6.03462,1.60725 -11.21579,4.69454 -17.91171,3.07071c-2.40611,-0.58351 -6.23685,-5.88291 -8.60228,-5.45871c-8.95351,1.60568 -11.13461,6.61491 -21.64849,5.66667c-7.8634,-0.7092 -8.93785,-8.15289 -7.37878,-14.20234c0.03308,-0.66226 0.1547,-1.30197 0.35364,-1.90824c0.74151,-9.35095 16.02688,-10.75596 22.48835,-10.55608z" fill="#a4ddff" stroke-width="0.5"/></g><g><g stroke-width="0"><path d="M-2.14779,159.72291v-105h83.10226v105z" fill="#a9b4ff"/><path d="M-2.14779,118.40033v-16.93548c0,0 4.94974,1.16686 10.92012,-0.67424c8.83219,-2.7236 20.72789,-8.80964 28.88517,-8.80964c7.13513,0 17.52295,5.84328 26.69086,8.25571c8.84706,2.328 16.60611,1.22817 16.60611,1.22817v16.93549c0,0 -11.02668,0.29594 -20.33459,-2.17871c-9.78982,-2.60277 -18.04921,-7.98258 -25.0574,-7.98258c-6.37711,0 -12.65957,4.81185 -19.89842,7.10388c-8.67627,2.74716 -17.81184,3.05741 -17.81184,3.05741z" fill="#7688ff"/><path d="M-2.14779,83.17453v-16.93548c0,0 4.94974,1.16686 10.92012,-0.67424c8.83219,-2.7236 20.72789,-8.80963 28.88517,-8.80963c7.13513,0 17.52295,5.84327 26.69086,8.2557c8.84706,2.328 16.60611,1.22817 16.60611,1.22817v16.93549c0,0 -11.02668,0.29594 -20.33459,-2.17871c-9.78982,-2.60277 -18.04921,-7.98258 -25.0574,-7.98258c-6.37711,0 -12.65957,4.81185 -19.89842,7.10388c-8.67627,2.74716 -17.81184,3.05741 -17.81184,3.05741z" fill="#7688ff"/><path d="M-2.14779,153.62614v-16.93548c0,0 4.94974,1.16686 10.92012,-0.67423c8.83219,-2.7236 20.72789,-8.80964 28.88517,-8.80964c7.13513,0 17.52295,5.84328 26.69086,8.25571c8.84706,2.328 16.60611,1.22816 16.60611,1.22816v16.93549c0,0 -11.02668,0.29595 -20.33459,-2.1787c-9.78982,-2.60277 -18.04921,-7.98259 -25.0574,-7.98259c-6.37711,0 -12.65957,4.81184 -19.89842,7.10388c-8.67627,2.74716 -17.81184,3.05741 -17.81184,3.05741z" fill="#7688ff"/></g><path d="M16.40805,41.55624c4.21923,0.13052 8.26596,1.82237 12.57641,2c7.02459,0.28947 13.44725,-2.59253 20.41176,-2.66667c6.79558,-0.07234 17.98543,0.85233 25.68343,0.61994c2.08698,-0.063 4.17794,0.98817 6.27921,1.46469c6.22151,1.4109 10.67401,1.23102 12.19342,8.41537c1.34647,6.36671 -7.76159,8.14978 -9.51417,13.25c-0.94544,2.75136 -0.01054,6.03476 -1.69947,8.60929c-1.50584,2.29543 -4.9003,3.48122 -7.60261,3.68744c-4.02345,0.30703 -6.92146,-5.06408 -10.17793,-6.80763c-3.86505,-2.06939 -8.19103,-2.42604 -12.40124,-3.44706c-0.41665,-0.10104 -2.66851,-1.83885 -3.04952,-1.73737c-6.03462,1.60725 -11.21579,4.69454 -17.91171,3.07071c-2.40611,-0.58351 -6.23685,-5.88291 -8.60228,-5.45871c-8.95351,1.60568 -11.13461,6.61491 -21.64849,5.66667c-7.8634,-0.7092 -8.93785,-8.15289 -7.37878,-14.20234c0.03308,-0.66226 0.1547,-1.30197 0.35364,-1.90824c0.74151,-9.35095 16.02688,-10.75596 22.48835,-10.55608z" fill="#a4ddff" stroke-width="0.5"/></g><g stroke-width="0"><path d="M-1.78707,264.85814v-105h84.14313v105z" fill="#a9b4ff"/><path d="M-1.78707,223.53556v-16.93548c0,0 5.01174,1.16686 11.05689,-0.67423c8.94282,-2.7236 20.98751,-8.80964 29.24695,-8.80964c7.22449,0 17.74243,5.84327 27.02517,8.2557c8.95787,2.328 16.8141,1.22817 16.8141,1.22817v16.93548c0,0 -11.16477,0.29594 -20.58927,-2.1787c-9.91244,-2.60277 -18.27528,-7.98259 -25.37126,-7.98259c-6.45698,0 -12.81813,4.81185 -20.14765,7.10388c-8.78496,2.74717 -18.03494,3.05741 -18.03494,3.05741z" fill="#7688ff"/><path d="M-1.78707,188.30975v-16.93548c0,0 5.01174,1.16686 11.05689,-0.67424c8.94282,-2.7236 20.98751,-8.80964 29.24695,-8.80964c7.22449,0 17.74243,5.84327 27.02517,8.2557c8.95787,2.328 16.8141,1.22817 16.8141,1.22817v16.93548c0,0 -11.16477,0.29594 -20.58927,-2.1787c-9.91244,-2.60277 -18.27528,-7.98259 -25.37127,-7.98259c-6.45698,0 -12.81813,4.81185 -20.14765,7.10388c-8.78496,2.74717 -18.03494,3.05741 -18.03494,3.05741z" fill="#7688ff"/><path d="M-1.78707,258.76137v-16.93548c0,0 5.01174,1.16686 11.05689,-0.67424c8.94282,-2.7236 20.98751,-8.80964 29.24695,-8.80964c7.22449,0 17.74243,5.84327 27.02517,8.2557c8.95787,2.328 16.8141,1.22817 16.8141,1.22817v16.93548c0,0 -11.16477,0.29594 -20.58927,-2.1787c-9.91244,-2.60277 -18.27528,-7.98259 -25.37127,-7.98259c-6.45698,0 -12.81813,4.81185 -20.14765,7.10388c-8.78496,2.74717 -18.03494,3.05741 -18.03494,3.05741z" fill="#7688ff"/></g><g stroke-width="0"><path d="M79.71024,264.85814v-105h84.14313v105z" fill="#a9b4ff"/><path d="M79.71024,223.53556v-16.93548c0,0 5.01174,1.16686 11.05689,-0.67423c8.94282,-2.7236 20.98751,-8.80964 29.24695,-8.80964c7.22449,0 17.74243,5.84327 27.02517,8.2557c8.95787,2.328 16.8141,1.22817 16.8141,1.22817v16.93548c0,0 -11.16477,0.29594 -20.58927,-2.1787c-9.91244,-2.60277 -18.27528,-7.98259 -25.37126,-7.98259c-6.45698,0 -12.81813,4.81185 -20.14765,7.10388c-8.78496,2.74717 -18.03494,3.05741 -18.03494,3.05741z" fill="#7688ff"/><path d="M79.71024,188.30975v-16.93548c0,0 5.01174,1.16686 11.05689,-0.67424c8.94282,-2.7236 20.98751,-8.80964 29.24695,-8.80964c7.22449,0 17.74243,5.84327 27.02517,8.2557c8.95787,2.328 16.8141,1.22817 16.8141,1.22817v16.93548c0,0 -11.16477,0.29594 -20.58927,-2.1787c-9.91244,-2.60277 -18.27528,-7.98259 -25.37127,-7.98259c-6.45698,0 -12.81813,4.81185 -20.14765,7.10388c-8.78496,2.74717 -18.03494,3.05741 -18.03494,3.05741z" fill="#7688ff"/><path d="M79.71024,258.76137v-16.93548c0,0 5.01174,1.16686 11.05689,-0.67424c8.94282,-2.7236 20.98751,-8.80964 29.24695,-8.80964c7.22449,0 17.74243,5.84327 27.02517,8.2557c8.95787,2.328 16.8141,1.22817 16.8141,1.22817v16.93548c0,0 -11.16477,0.29594 -20.58927,-2.1787c-9.91244,-2.60277 -18.27528,-7.98259 -25.37127,-7.98259c-6.45698,0 -12.81813,4.81185 -20.14765,7.10388c-8.78496,2.74717 -18.03494,3.05741 -18.03494,3.05741z" fill="#7688ff"/></g><g stroke-width="0"><path d="M0.2908,369.33725v-105h84.14313v105z" fill="#a9b4ff"/><path d="M0.2908,328.01466v-16.93548c0,0 5.01174,1.16686 11.05689,-0.67423c8.94282,-2.7236 20.98751,-8.80964 29.24695,-8.80964c7.22449,0 17.74243,5.84327 27.02517,8.2557c8.95787,2.328 16.8141,1.22817 16.8141,1.22817v16.93548c0,0 -11.16477,0.29594 -20.58927,-2.1787c-9.91244,-2.60277 -18.27528,-7.98259 -25.37126,-7.98259c-6.45698,0 -12.81813,4.81185 -20.14765,7.10388c-8.78496,2.74717 -18.03494,3.05741 -18.03494,3.05741z" fill="#7688ff"/><path d="M0.2908,292.78886v-16.93548c0,0 5.01174,1.16686 11.05689,-0.67424c8.94282,-2.7236 20.98751,-8.80964 29.24695,-8.80964c7.22449,0 17.74243,5.84327 27.02517,8.2557c8.95787,2.328 16.8141,1.22817 16.8141,1.22817v16.93548c0,0 -11.16477,0.29594 -20.58927,-2.1787c-9.91244,-2.60277 -18.27528,-7.98259 -25.37127,-7.98259c-6.45698,0 -12.81813,4.81185 -20.14765,7.10388c-8.78496,2.74717 -18.03494,3.05741 -18.03494,3.05741z" fill="#7688ff"/><path d="M0.2908,363.24048v-16.93548c0,0 5.01174,1.16686 11.05689,-0.67424c8.94282,-2.7236 20.98751,-8.80964 29.24695,-8.80964c7.22449,0 17.74243,5.84327 27.02517,8.2557c8.95787,2.328 16.8141,1.22817 16.8141,1.22817v16.93548c0,0 -11.16477,0.29594 -20.58927,-2.1787c-9.91244,-2.60277 -18.27528,-7.98259 -25.37127,-7.98259c-6.45698,0 -12.81813,4.81185 -20.14765,7.10388c-8.78496,2.74717 -18.03494,3.05741 -18.03494,3.05741z" fill="#7688ff"/></g><g stroke-width="0"><path d="M81.7881,369.33725v-105h84.14313v105z" fill="#a9b4ff"/><path d="M81.7881,328.01466v-16.93548c0,0 5.01174,1.16686 11.05689,-0.67423c8.94282,-2.7236 20.98751,-8.80964 29.24695,-8.80964c7.22449,0 17.74243,5.84327 27.02517,8.2557c8.95787,2.328 16.8141,1.22817 16.8141,1.22817v16.93548c0,0 -11.16477,0.29594 -20.58927,-2.1787c-9.91244,-2.60277 -18.27528,-7.98259 -25.37126,-7.98259c-6.45698,0 -12.81813,4.81185 -20.14765,7.10388c-8.78496,2.74717 -18.03494,3.05741 -18.03494,3.05741z" fill="#7688ff"/><path d="M81.7881,292.78886v-16.93548c0,0 5.01174,1.16686 11.05689,-0.67424c8.94282,-2.7236 20.98751,-8.80964 29.24695,-8.80964c7.22449,0 17.74243,5.84327 27.02517,8.2557c8.95787,2.328 16.8141,1.22817 16.8141,1.22817v16.93548c0,0 -11.16477,0.29594 -20.58927,-2.1787c-9.91244,-2.60277 -18.27528,-7.98259 -25.37127,-7.98259c-6.45698,0 -12.81813,4.81185 -20.14765,7.10388c-8.78496,2.74717 -18.03494,3.05741 -18.03494,3.05741z" fill="#7688ff"/><path d="M81.7881,363.24048v-16.93548c0,0 5.01174,1.16686 11.05689,-0.67424c8.94282,-2.7236 20.98751,-8.80964 29.24695,-8.80964c7.22449,0 17.74243,5.84327 27.02517,8.2557c8.95787,2.328 16.8141,1.22817 16.8141,1.22817v16.93548c0,0 -11.16477,0.29594 -20.58927,-2.1787c-9.91244,-2.60277 -18.27528,-7.98259 -25.37127,-7.98259c-6.45698,0 -12.81813,4.81185 -20.14765,7.10388c-8.78496,2.74717 -18.03494,3.05741 -18.03494,3.05741z" fill="#7688ff"/></g><g><g stroke-width="0"><path d="M405.43457,158.75416v-105h80.6129v105z" fill="#a9b4ff"/><path d="M405.43457,117.43158v-16.93548c0,0 4.80147,1.16686 10.593,-0.67424c8.56762,-2.7236 20.10698,-8.80964 28.0199,-8.80964c6.92139,0 16.99804,5.84328 25.89133,8.25571c8.58204,2.328 16.10867,1.22817 16.10867,1.22817v16.93549c0,0 -10.69637,0.29594 -19.72546,-2.17871c-9.49656,-2.60277 -17.50854,-7.98258 -24.3068,-7.98258c-6.18608,0 -12.28035,4.81185 -19.30236,7.10388c-8.41637,2.74716 -17.27828,3.05741 -17.27828,3.05741z" fill="#7688ff"/><path d="M405.43457,82.20578v-16.93548c0,0 4.80147,1.16686 10.593,-0.67424c8.56762,-2.7236 20.10698,-8.80963 28.0199,-8.80963c6.92139,0 16.99804,5.84327 25.89133,8.2557c8.58204,2.328 16.10867,1.22817 16.10867,1.22817v16.93549c0,0 -10.69637,0.29594 -19.72546,-2.17871c-9.49656,-2.60277 -17.50854,-7.98258 -24.3068,-7.98258c-6.18608,0 -12.28035,4.81185 -19.30236,7.10388c-8.41637,2.74716 -17.27828,3.05741 -17.27828,3.05741z" fill="#7688ff"/><path d="M405.43457,152.65739v-16.93548c0,0 4.80147,1.16686 10.593,-0.67423c8.56762,-2.7236 20.10698,-8.80964 28.0199,-8.80964c6.92139,0 16.99804,5.84328 25.89133,8.25571c8.58204,2.328 16.10867,1.22816 16.10867,1.22816v16.93549c0,0 -10.69637,0.29595 -19.72546,-2.1787c-9.49656,-2.60277 -17.50854,-7.98259 -24.3068,-7.98259c-6.18608,0 -12.28035,4.81184 -19.30236,7.10388c-8.41637,2.74716 -17.27828,3.05741 -17.27828,3.05741z" fill="#7688ff"/></g><path d="M423.43456,40.58749c4.09284,0.13052 8.01835,1.82237 12.19968,2c6.81417,0.28947 13.04443,-2.59253 19.80032,-2.66667c6.59202,-0.07234 17.44667,0.85233 24.91407,0.61994c2.02446,-0.063 4.05279,0.98817 6.09111,1.46469c6.03514,1.4109 10.35427,1.23102 11.82816,8.41537c1.30614,6.36671 -7.52909,8.14978 -9.22917,13.25c-0.91712,2.75136 -0.01022,6.03476 -1.64856,8.60929c-1.46073,2.29543 -4.75351,3.48122 -7.37487,3.68744c-3.90293,0.30703 -6.71413,-5.06408 -9.87305,-6.80763c-3.74927,-2.06939 -7.94566,-2.42604 -12.02976,-3.44706c-0.40417,-0.10104 -2.58857,-1.83885 -2.95817,-1.73737c-5.85385,1.60725 -10.87982,4.69454 -17.37516,3.07071c-2.33403,-0.58351 -6.05002,-5.88291 -8.3446,-5.45871c-8.6853,1.60568 -10.80107,6.61491 -21,5.66667c-7.62785,-0.7092 -8.67011,-8.15289 -7.15775,-14.20234c0.03209,-0.66226 0.15007,-1.30197 0.34305,-1.90824c0.7193,-9.35095 15.54679,-10.75596 21.8147,-10.55608z" fill="#a4ddff" stroke-width="0.5"/></g><g><g stroke-width="0"><path d="M325.68382,159.08749v-105h80.6129v105z" fill="#a9b4ff"/><path d="M325.68382,117.76492v-16.93548c0,0 4.80147,1.16686 10.593,-0.67424c8.56762,-2.7236 20.10698,-8.80964 28.0199,-8.80964c6.92139,0 16.99804,5.84328 25.89133,8.25571c8.58204,2.328 16.10867,1.22817 16.10867,1.22817v16.93549c0,0 -10.69637,0.29594 -19.72546,-2.17871c-9.49656,-2.60277 -17.50854,-7.98258 -24.3068,-7.98258c-6.18608,0 -12.28035,4.81185 -19.30236,7.10388c-8.41637,2.74716 -17.27828,3.05741 -17.27828,3.05741z" fill="#7688ff"/><path d="M325.68382,82.53912v-16.93548c0,0 4.80147,1.16686 10.593,-0.67424c8.56762,-2.7236 20.10698,-8.80963 28.0199,-8.80963c6.92139,0 16.99804,5.84327 25.89133,8.2557c8.58204,2.328 16.10867,1.22817 16.10867,1.22817v16.93549c0,0 -10.69637,0.29594 -19.72546,-2.17871c-9.49656,-2.60277 -17.50854,-7.98258 -24.3068,-7.98258c-6.18608,0 -12.28035,4.81185 -19.30236,7.10388c-8.41637,2.74716 -17.27828,3.05741 -17.27828,3.05741z" fill="#7688ff"/><path d="M325.68382,152.99073v-16.93548c0,0 4.80147,1.16686 10.593,-0.67423c8.56762,-2.7236 20.10698,-8.80964 28.0199,-8.80964c6.92139,0 16.99804,5.84328 25.89133,8.25571c8.58204,2.328 16.10867,1.22816 16.10867,1.22816v16.93549c0,0 -10.69637,0.29595 -19.72546,-2.1787c-9.49656,-2.60277 -17.50854,-7.98259 -24.3068,-7.98259c-6.18608,0 -12.28035,4.81184 -19.30236,7.10388c-8.41637,2.74716 -17.27828,3.05741 -17.27828,3.05741z" fill="#7688ff"/></g><path d="M343.68381,40.92083c4.09284,0.13052 8.01835,1.82237 12.19968,2c6.81417,0.28947 13.04443,-2.59253 19.80032,-2.66667c6.59202,-0.07234 17.44667,0.85233 24.91407,0.61994c2.02446,-0.063 4.05279,0.98817 6.09111,1.46469c6.03514,1.4109 10.35427,1.23102 11.82816,8.41537c1.30614,6.36671 -7.52909,8.14978 -9.22917,13.25c-0.91712,2.75136 -0.01022,6.03476 -1.64856,8.60929c-1.46073,2.29543 -4.75351,3.48122 -7.37487,3.68744c-3.90293,0.30703 -6.71413,-5.06408 -9.87305,-6.80763c-3.74927,-2.06939 -7.94566,-2.42604 -12.02976,-3.44706c-0.40417,-0.10104 -2.58857,-1.83885 -2.95817,-1.73737c-5.85385,1.60725 -10.87982,4.69454 -17.37516,3.07071c-2.33403,-0.58351 -6.05002,-5.88291 -8.3446,-5.45871c-8.6853,1.60568 -10.80107,6.61491 -21,5.66667c-7.62785,-0.7092 -8.67011,-8.15289 -7.15775,-14.20234c0.03209,-0.66226 0.15007,-1.30197 0.34305,-1.90824c0.7193,-9.35095 15.54679,-10.75596 21.8147,-10.55608z" fill="#a4ddff" stroke-width="0.5"/></g><g stroke-width="0"><path d="M324.84051,263.88939v-105h81.62259v105z" fill="#a9b4ff"/><path d="M324.84051,222.56681v-16.93548c0,0 4.86161,1.16686 10.72568,-0.67423c8.67493,-2.7236 20.35882,-8.80964 28.37085,-8.80964c7.00808,0 17.21095,5.84327 26.21562,8.2557c8.68953,2.328 16.31043,1.22817 16.31043,1.22817v16.93548c0,0 -10.83033,0.29594 -19.97251,-2.1787c-9.61551,-2.60277 -17.72784,-7.98259 -24.61125,-7.98259c-6.26356,0 -12.43416,4.81185 -19.54412,7.10388c-8.5218,2.74717 -17.4947,3.05741 -17.4947,3.05741z" fill="#7688ff"/><path d="M324.84051,187.341v-16.93548c0,0 4.86161,1.16686 10.72568,-0.67424c8.67493,-2.7236 20.35882,-8.80964 28.37085,-8.80964c7.00808,0 17.21095,5.84327 26.21562,8.2557c8.68953,2.328 16.31043,1.22817 16.31043,1.22817v16.93548c0,0 -10.83033,0.29594 -19.97251,-2.1787c-9.61551,-2.60277 -17.72784,-7.98259 -24.61126,-7.98259c-6.26356,0 -12.43416,4.81185 -19.54412,7.10388c-8.5218,2.74717 -17.4947,3.05741 -17.4947,3.05741z" fill="#7688ff"/><path d="M324.84051,257.79262v-16.93548c0,0 4.86161,1.16686 10.72568,-0.67424c8.67493,-2.7236 20.35882,-8.80964 28.37085,-8.80964c7.00808,0 17.21095,5.84327 26.21562,8.2557c8.68953,2.328 16.31043,1.22817 16.31043,1.22817v16.93548c0,0 -10.83033,0.29594 -19.97251,-2.1787c-9.61551,-2.60277 -17.72784,-7.98259 -24.61126,-7.98259c-6.26356,0 -12.43416,4.81185 -19.54412,7.10388c-8.5218,2.74717 -17.4947,3.05741 -17.4947,3.05741z" fill="#7688ff"/></g><g stroke-width="0"><path d="M405.41684,263.88939v-105h81.62259v105z" fill="#a9b4ff"/><path d="M405.41684,222.56681v-16.93548c0,0 4.86161,1.16686 10.72568,-0.67423c8.67493,-2.7236 20.35882,-8.80964 28.37085,-8.80964c7.00808,0 17.21095,5.84327 26.21562,8.2557c8.68953,2.328 16.31043,1.22817 16.31043,1.22817v16.93548c0,0 -10.83033,0.29594 -19.97251,-2.1787c-9.61551,-2.60277 -17.72784,-7.98259 -24.61125,-7.98259c-6.26356,0 -12.43416,4.81185 -19.54412,7.10388c-8.5218,2.74717 -17.4947,3.05741 -17.4947,3.05741z" fill="#7688ff"/><path d="M405.41684,187.341v-16.93548c0,0 4.86161,1.16686 10.72568,-0.67424c8.67493,-2.7236 20.35882,-8.80964 28.37085,-8.80964c7.00808,0 17.21095,5.84327 26.21562,8.2557c8.68953,2.328 16.31043,1.22817 16.31043,1.22817v16.93548c0,0 -10.83033,0.29594 -19.97251,-2.1787c-9.61551,-2.60277 -17.72784,-7.98259 -24.61126,-7.98259c-6.26356,0 -12.43416,4.81185 -19.54412,7.10388c-8.5218,2.74717 -17.4947,3.05741 -17.4947,3.05741z" fill="#7688ff"/><path d="M405.41684,257.79262v-16.93548c0,0 4.86161,1.16686 10.72568,-0.67424c8.67493,-2.7236 20.35882,-8.80964 28.37085,-8.80964c7.00808,0 17.21095,5.84327 26.21562,8.2557c8.68953,2.328 16.31043,1.22817 16.31043,1.22817v16.93548c0,0 -10.83033,0.29594 -19.97251,-2.1787c-9.61551,-2.60277 -17.72784,-7.98259 -24.61126,-7.98259c-6.26356,0 -12.43416,4.81185 -19.54412,7.10388c-8.5218,2.74717 -17.4947,3.05741 -17.4947,3.05741z" fill="#7688ff"/></g><g stroke-width="0"><path d="M326.85613,368.36851v-105h81.62259v105z" fill="#a9b4ff"/><path d="M326.85613,327.04591v-16.93548c0,0 4.86161,1.16686 10.72568,-0.67423c8.67493,-2.7236 20.35882,-8.80964 28.37085,-8.80964c7.00808,0 17.21095,5.84327 26.21562,8.2557c8.68953,2.328 16.31043,1.22817 16.31043,1.22817v16.93548c0,0 -10.83033,0.29594 -19.97251,-2.1787c-9.61551,-2.60277 -17.72784,-7.98259 -24.61125,-7.98259c-6.26356,0 -12.43416,4.81185 -19.54412,7.10388c-8.5218,2.74717 -17.4947,3.05741 -17.4947,3.05741z" fill="#7688ff"/><path d="M326.85613,291.82012v-16.93548c0,0 4.86161,1.16686 10.72568,-0.67424c8.67493,-2.7236 20.35882,-8.80964 28.37085,-8.80964c7.00808,0 17.21095,5.84327 26.21562,8.2557c8.68953,2.328 16.31043,1.22817 16.31043,1.22817v16.93548c0,0 -10.83033,0.29594 -19.97251,-2.1787c-9.61551,-2.60277 -17.72784,-7.98259 -24.61126,-7.98259c-6.26356,0 -12.43416,4.81185 -19.54412,7.10388c-8.5218,2.74717 -17.4947,3.05741 -17.4947,3.05741z" fill="#7688ff"/><path d="M326.85613,362.27174v-16.93548c0,0 4.86161,1.16686 10.72568,-0.67424c8.67493,-2.7236 20.35882,-8.80964 28.37085,-8.80964c7.00808,0 17.21095,5.84327 26.21562,8.2557c8.68953,2.328 16.31043,1.22817 16.31043,1.22817v16.93548c0,0 -10.83033,0.29594 -19.97251,-2.1787c-9.61551,-2.60277 -17.72784,-7.98259 -24.61126,-7.98259c-6.26356,0 -12.43416,4.81185 -19.54412,7.10388c-8.5218,2.74717 -17.4947,3.05741 -17.4947,3.05741z" fill="#7688ff"/></g><g stroke-width="0"><path d="M407.43246,368.36851v-105h81.62259v105z" fill="#a9b4ff"/><path d="M407.43246,327.04591v-16.93548c0,0 4.86161,1.16686 10.72568,-0.67423c8.67493,-2.7236 20.35882,-8.80964 28.37085,-8.80964c7.00808,0 17.21095,5.84327 26.21562,8.2557c8.68953,2.328 16.31043,1.22817 16.31043,1.22817v16.93548c0,0 -10.83033,0.29594 -19.97251,-2.1787c-9.61551,-2.60277 -17.72784,-7.98259 -24.61125,-7.98259c-6.26356,0 -12.43416,4.81185 -19.54412,7.10388c-8.5218,2.74717 -17.4947,3.05741 -17.4947,3.05741z" fill="#7688ff"/><path d="M407.43246,291.82012v-16.93548c0,0 4.86161,1.16686 10.72568,-0.67424c8.67493,-2.7236 20.35882,-8.80964 28.37085,-8.80964c7.00808,0 17.21095,5.84327 26.21562,8.2557c8.68953,2.328 16.31043,1.22817 16.31043,1.22817v16.93548c0,0 -10.83033,0.29594 -19.97251,-2.1787c-9.61551,-2.60277 -17.72784,-7.98259 -24.61126,-7.98259c-6.26356,0 -12.43416,4.81185 -19.54412,7.10388c-8.5218,2.74717 -17.4947,3.05741 -17.4947,3.05741z" fill="#7688ff"/><path d="M407.43246,362.27174v-16.93548c0,0 4.86161,1.16686 10.72568,-0.67424c8.67493,-2.7236 20.35882,-8.80964 28.37085,-8.80964c7.00808,0 17.21095,5.84327 26.21562,8.2557c8.68953,2.328 16.31043,1.22817 16.31043,1.22817v16.93548c0,0 -10.83033,0.29594 -19.97251,-2.1787c-9.61551,-2.60277 -17.72784,-7.98259 -24.61126,-7.98259c-6.26356,0 -12.43416,4.81185 -19.54412,7.10388c-8.5218,2.74717 -17.4947,3.05741 -17.4947,3.05741z" fill="#7688ff"/></g></g></g></svg>