<svg version="1.1" xmlns="http://www.w3.org/2000/svg" xmlns:xlink="http://www.w3.org/1999/xlink" width="149.61055" height="107.6375" viewBox="0,0,149.61055,107.6375"><g transform="translate(-166.16694,-253.12723)"><g data-paper-data="{&quot;isPaintingLayer&quot;:true}" fill-rule="nonzero" stroke="none" stroke-width="0" stroke-linecap="butt" stroke-linejoin="miter" stroke-miterlimit="10" stroke-dasharray="" stroke-dashoffset="0" style="mix-blend-mode: normal"><g><path d="M166.87617,311.72947v-53.54671h7.09228v53.54671z" fill="#8aa2c6"/><path d="M212.62137,311.37486v-54.61055h7.09228v54.61055z" fill="#8aa2c6"/><path d="M212.29997,308.44426l-43.37974,-43.37974l5.015,-5.015l43.37974,43.37974z" fill="#8aa2c6"/><path d="M217.31496,265.06451l-43.37974,43.37974l-5.01499,-5.015l43.37974,-43.37974z" fill="#8aa2c6"/><path d="M220.7775,260.31045h-54.61055v-7.09228h54.61055z" fill="#c65757"/><path d="M167.5854,303.92796h52.12825v7.80151h-52.12825z" fill="#8aa2c6"/></g><g fill="#8aa2c6"><path d="M166.72632,360.59729v-53.54671h7.09228v53.54671z"/><path d="M212.47153,360.24268v-54.61056h7.09228v54.61056z"/><path d="M212.15013,357.31208l-43.37974,-43.37974l5.015,-5.015l43.37974,43.37974z"/><path d="M217.16513,313.93234l-43.37975,43.37974l-5.01499,-5.015l43.37974,-43.37974z"/><path d="M167.43556,352.79578h52.12825v7.80151h-52.12825z"/><path d="M166.72632,304.21367h52.83748v7.80151h-52.83748z"/></g><g><path d="M214.2448,311.63853v-53.54671h7.09228v53.54671z" fill="#8aa2c6"/><path d="M259.99,311.28392v-54.61055h7.09228v54.61055z" fill="#8aa2c6"/><path d="M259.6686,308.35332l-43.37974,-43.37974l5.015,-5.015l43.37974,43.37974z" fill="#8aa2c6"/><path d="M264.6836,264.97358l-43.37974,43.37974l-5.01499,-5.015l43.37974,-43.37974z" fill="#8aa2c6"/><path d="M268.14613,260.21951h-54.61055v-7.09228h54.61055z" fill="#c65757"/><path d="M214.95403,303.83702h52.12825v7.80151h-52.12825z" fill="#8aa2c6"/></g><g fill="#8aa2c6"><path d="M214.6117,360.76473v-53.54671h7.09228v53.54671z"/><path d="M260.3569,360.41012v-54.61056h7.09228v54.61056z"/><path d="M260.0355,357.47952l-43.37974,-43.37974l5.015,-5.015l43.37974,43.37974z"/><path d="M265.0505,314.09978l-43.37975,43.37974l-5.01499,-5.015l43.37974,-43.37974z"/><path d="M215.32093,352.96322h52.12825v7.80151h-52.12825z"/><path d="M214.6117,304.38111h52.83748v7.80151h-52.83748z"/></g><g><path d="M261.87617,311.72947v-53.54671h7.09228v53.54671z" fill="#8aa2c6"/><path d="M307.62137,311.37486v-54.61055h7.09228v54.61055z" fill="#8aa2c6"/><path d="M307.29997,308.44426l-43.37974,-43.37974l5.015,-5.015l43.37974,43.37974z" fill="#8aa2c6"/><path d="M312.31496,265.06451l-43.37974,43.37974l-5.01499,-5.015l43.37974,-43.37974z" fill="#8aa2c6"/><path d="M315.7775,260.31045h-54.61055v-7.09228h54.61055z" fill="#c65757"/><path d="M262.5854,303.92796h52.12825v7.80151h-52.12825z" fill="#8aa2c6"/></g><g fill="#8aa2c6"><path d="M261.72632,360.59729v-53.54671h7.09228v53.54671z"/><path d="M307.47153,360.24268v-54.61056h7.09228v54.61056z"/><path d="M307.15013,357.31208l-43.37974,-43.37974l5.015,-5.015l43.37974,43.37974z"/><path d="M312.16513,313.93234l-43.37975,43.37974l-5.01499,-5.015l43.37974,-43.37974z"/><path d="M262.43556,352.79578h52.12825v7.80151h-52.12825z"/><path d="M261.72632,304.21367h52.83748v7.80151h-52.83748z"/></g></g></g></svg>