<svg version="1.1" xmlns="http://www.w3.org/2000/svg" xmlns:xlink="http://www.w3.org/1999/xlink" width="567.56756" height="260.49177" viewBox="0,0,567.56756,260.49177"><g transform="translate(44.53453,-128.21695)"><g data-paper-data="{&quot;isPaintingLayer&quot;:true}" fill-rule="nonzero" stroke="none" stroke-width="0" stroke-linecap="butt" stroke-linejoin="miter" stroke-miterlimit="10" stroke-dasharray="" stroke-dashoffset="0" style="mix-blend-mode: normal"><path d="M-44.53453,388.70871v-157.65766c0,0 20.46428,-0.28665 44.0006,-2.38784c33.52584,-2.993 76.37493,-8.12267 101.64505,-8.12267c56.94845,0 153.18611,9.62128 255.32562,12.6112c51.92132,1.51989 109.56657,-1.74529 141.0446,-2.84783c12.1822,-0.42669 25.55169,0.74714 25.55169,0.74714v157.65766z" fill="#afffff"/><g><path d="M43.16996,255.36652c0,0 4.5776,-6.88632 4.64636,-11.82456c0.11851,-8.51058 -3.99923,-34.6475 -3.99923,-34.6475l17.60232,-1.23431c0,0 0.91193,24.85683 2.31982,32.75515c1.07918,6.05424 8.76493,11.13662 8.76493,11.13662c0,0 -8.61409,-3.07021 -10.13362,-2.94182c-1.96197,0.16578 -3.93381,7.20798 -3.93381,7.20798c0,0 -3.97841,-6.00371 -5.31466,-5.84559c-1.86673,0.22089 -9.95209,5.39403 -9.95209,5.39403z" fill="#903600"/><g><path d="M8.77209,221.06633l7.20674,-18.37456l69.10699,-4.55298l9.9307,16.29403l-14.37303,-3.9694l-6.94691,5.46537l-18.10114,-3.64998l-16.09697,6.18785l-10.45508,-4.87665z" fill="#008536"/><path d="M9.25823,215.46643c-6.29861,-5.60596 7.26063,-27.49412 7.26063,-27.49412c0,0 -6.58749,-1.28832 -4.94245,-5.12371c1.88483,-4.39445 15.63025,-19.79473 15.63025,-19.79473c0,0 -7.822,-1.844 -4.21447,-7.13936c4.11468,-6.03979 19.90184,-15.64018 23.16035,-15.84445c4.94269,-0.30984 20.47105,8.26725 25.76781,14.20794c2.45944,2.75843 -2.30146,5.52985 -2.30146,5.52985c0,0 14.46309,16.63387 16.77253,21.00805c1.12925,2.13886 -3.70166,3.74878 -3.70166,3.74878c0,0 16.94114,19.43645 12.81291,24.26824c-2.90748,3.403 -14.37304,-3.9694 -14.37304,-3.9694c0,0 -6.61823,5.434 -10.15346,5.69022c-3.53522,0.25622 -14.89459,-3.87483 -14.89459,-3.87483c0,0 -9.37494,5.8559 -16.09697,6.18785c-6.72203,0.33195 -10.45508,-4.87665 -10.45508,-4.87665c0,0 -17.1488,10.25544 -20.2713,7.47631z" fill="#afffff"/></g></g><g><path d="M213.5991,239.98667c0,0 5.99627,-5.6939 7.1631,-10.4928c2.01091,-8.27044 3.8175,-34.66799 3.8175,-34.66799l17.43513,2.71687c0,0 -4.6468,24.43564 -5.03329,32.44916c-0.29625,6.14253 6.06458,12.80895 6.06458,12.80895c0,0 -7.71399,-4.91154 -9.22395,-5.12478c-1.94962,-0.27533 -5.44029,6.15086 -5.44029,6.15086c0,0 -2.54141,-6.73896 -3.87932,-6.8824c-1.86904,-0.20039 -10.90344,3.04214 -10.90344,3.04214z" fill="#903600"/><g><path d="M187.70406,198.88723l11.11791,-16.30808l68.38537,10.95208l6.05248,18.09646l-13.12804,-7.07071l-7.98962,3.78097l-16.83365,-7.58959l-17.07078,2.44752l-9.10643,-7.0826z" fill="#008536"/><path d="M189.42514,193.53623c-4.89193,-6.86792 13.20145,-25.1866 13.20145,-25.1866c0,0 -6.13513,-2.72305 -3.67722,-6.09576c2.81617,-3.86432 19.64615,-15.81659 19.64615,-15.81659c0,0 -7.21488,-3.53971 -2.51863,-7.89865c5.35645,-4.97173 22.88521,-10.81507 26.10737,-10.28851c4.88755,0.79872 18.11574,12.61869 21.95643,19.58981c1.78335,3.23689 -3.4752,4.87841 -3.4752,4.87841c0,0 10.39535,19.43716 11.67262,24.21582c0.62455,2.33663 -4.44358,2.83024 -4.44358,2.83024c0,0 12.187,22.72123 7.08637,26.51229c-3.59234,2.67001 -13.12804,-7.07071 -13.12804,-7.07071c0,0 -7.66221,3.82359 -11.16571,3.28605c-3.5035,-0.53754 -13.65756,-7.09467 -13.65756,-7.09467c0,0 -10.44365,3.62095 -17.07078,2.44751c-6.62713,-1.17344 -9.10643,-7.0826 -9.10643,-7.0826c0,0 -19.00208,6.17869 -21.42723,2.77395z" fill="#afffff"/></g></g><g><path d="M388.0843,283.81348c0,0 4.94247,-6.62931 5.27756,-11.55665c0.57751,-8.49179 -2.12407,-34.81281 -2.12407,-34.81281l17.64327,-0.28281c0,0 -0.4305,24.86982 0.5492,32.83261c0.75096,6.10365 8.1513,11.59329 8.1513,11.59329c0,0 -8.4359,-3.5305 -9.96015,-3.48427c-1.96806,0.05968 -4.31697,6.98524 -4.31697,6.98524c0,0 -3.6487,-6.20962 -4.99153,-6.12382c-1.87593,0.11985 -10.22862,4.84923 -10.22862,4.84923z" fill="#903600"/><g><path d="M355.58713,247.70739l8.1876,-17.95897l69.25199,-0.81782l9.03713,16.80609l-14.13794,-4.73909l-7.23166,5.0826l-17.87785,-4.62128l-16.40737,5.31036l-10.17674,-5.43362z" fill="#008536"/><path d="M356.37469,242.14186c-5.98698,-5.93762 8.73344,-27.06234 8.73344,-27.06234c0,0 -6.50839,-1.64186 -4.65881,-5.38291c2.11918,-4.28636 16.67547,-18.92259 16.67547,-18.92259c0,0 -7.71112,-2.26333 -3.82315,-7.35634c4.43455,-5.80899 20.71669,-14.54364 23.98147,-14.5718c4.9522,-0.04271 19.99519,9.35968 24.96372,15.57749c2.30703,2.88711 -2.59646,5.39762 -2.59646,5.39762c0,0 13.54458,17.38996 15.61465,21.88238c1.01221,2.19667 -3.89853,3.54361 -3.89853,3.54361c0,0 15.86781,20.32216 11.4849,24.92419c-3.08685,3.24118 -14.13794,-4.73909 -14.13794,-4.73909c0,0 -6.90177,5.06901 -10.44567,5.13412c-3.5439,0.06511 -14.66384,-4.67279 -14.66384,-4.67279c0,0 -9.67723,5.34156 -16.40738,5.31036c-6.73014,-0.03121 -10.17674,-5.43362 -10.17674,-5.43362c0,0 -17.67713,9.31527 -20.64514,6.37172z" fill="#afffff"/></g></g></g></g></svg>