<svg version="1.1" xmlns="http://www.w3.org/2000/svg" xmlns:xlink="http://www.w3.org/1999/xlink" width="57" height="57" viewBox="0,0,57,57"><g transform="translate(-211.5,-151.5)"><g data-paper-data="{&quot;isPaintingLayer&quot;:true}" fill-rule="nonzero" stroke-linejoin="miter" stroke-miterlimit="10" stroke-dasharray="" stroke-dashoffset="0" style="mix-blend-mode: normal"><path d="M240,207.5c-15.18783,0 -27.5,-12.31217 -27.5,-27.5c0,-15.18783 12.31217,-27.5 27.5,-27.5c15.18783,0 27.5,12.31217 27.5,27.5c0,15.18783 -12.31217,27.5 -27.5,27.5z" data-paper-data="{&quot;index&quot;:null}" fill="#0068ff" stroke="#0010c7" stroke-width="2" stroke-linecap="butt"/><path d="M229.66357,172.34649c1.19903,0 2.17105,4.10406 2.17105,9.16667c0,5.06261 -0.97201,9.16667 -2.17105,9.16667c-1.19903,0 -2.17105,-4.10406 -2.17105,-9.16667c0,-5.06261 0.97201,-9.16667 2.17105,-9.16667z" data-paper-data="{&quot;index&quot;:null}" fill="#000000" stroke="none" stroke-width="0" stroke-linecap="butt"/><path d="M223.15042,181.51316c0,4.39648 -0.64801,7.96053 -1.44737,7.96053c-0.79936,0 -1.44737,-3.56405 -1.44737,-7.96053c0,-4.39648 0.64801,-7.96053 1.44737,-7.96053c0.79936,0 1.44737,3.56405 1.44737,7.96053z" data-paper-data="{&quot;index&quot;:null}" fill="#000000" stroke="none" stroke-width="0" stroke-linecap="butt"/><path d="M256.23683,194.13775c0,0 -9.82194,2.18559 -14.17902,2.84849c-5.31519,0.80866 -15.41288,1.65369 -15.41288,1.65369" data-paper-data="{&quot;index&quot;:null}" fill="none" stroke="#000000" stroke-width="2" stroke-linecap="round"/></g></g></svg>