<svg version="1.1" xmlns="http://www.w3.org/2000/svg" xmlns:xlink="http://www.w3.org/1999/xlink" width="385.61055" height="257.37912" viewBox="0,0,385.61055,257.37912"><g transform="translate(-47.19476,-155.27219)"><g data-paper-data="{&quot;isPaintingLayer&quot;:true}" fill-rule="nonzero" stroke="none" stroke-width="0" stroke-linecap="butt" stroke-linejoin="miter" stroke-miterlimit="10" stroke-dasharray="" stroke-dashoffset="0" style="mix-blend-mode: normal"><g><path d="M47.90398,213.78349v-53.54671h7.09228v53.54671z" fill="#8aa2c6"/><path d="M93.64917,213.42888v-54.61055h7.09228v54.61055z" fill="#8aa2c6"/><path d="M93.32779,210.49828l-43.37974,-43.37974l5.015,-5.015l43.37974,43.37974z" fill="#8aa2c6"/><path d="M98.34277,167.11853l-43.37974,43.37974l-5.01499,-5.015l43.37974,-43.37974z" fill="#8aa2c6"/><path d="M101.80532,162.36447h-54.61055v-7.09228h54.61055z" fill="#c65757"/><path d="M48.6132,205.98198h52.12825v7.80151h-52.12825z" fill="#8aa2c6"/></g><g fill="#8aa2c6"><path d="M47.75414,262.65131v-53.54671h7.09228v53.54671z"/><path d="M93.49935,262.2967v-54.61056h7.09228v54.61056z"/><path d="M93.17792,259.3661l-43.37974,-43.37974l5.015,-5.015l43.37974,43.37974z"/><path d="M98.19294,215.98636l-43.37975,43.37974l-5.01499,-5.015l43.37974,-43.37974z"/><path d="M48.46337,254.8498h52.12825v7.80151h-52.12825z"/><path d="M47.75414,206.26769h52.83748v7.80151h-52.83748z"/></g><g fill="#8aa2c6"><path d="M47.75414,311.65131v-53.54671h7.09228v53.54671z"/><path d="M93.49935,311.2967v-54.61056h7.09228v54.61056z"/><path d="M93.17792,308.3661l-43.37974,-43.37974l5.015,-5.015l43.37974,43.37974z"/><path d="M98.19294,264.98636l-43.37975,43.37974l-5.01499,-5.015l43.37974,-43.37974z"/><path d="M48.46337,303.8498h52.12825v7.80151h-52.12825z"/><path d="M47.75414,255.26769h52.83748v7.80151h-52.83748z"/></g><g fill="#8aa2c6"><path d="M47.75414,361.65131v-53.54671h7.09228v53.54671z"/><path d="M93.49935,361.2967v-54.61056h7.09228v54.61056z"/><path d="M93.17792,358.3661l-43.37974,-43.37974l5.015,-5.015l43.37974,43.37974z"/><path d="M98.19294,314.98636l-43.37975,43.37974l-5.01499,-5.015l43.37974,-43.37974z"/><path d="M48.46337,353.8498h52.12825v7.80151h-52.12825z"/><path d="M47.75414,305.26769h52.83748v7.80151h-52.83748z"/></g><g fill="#8aa2c6"><path d="M47.75414,410.65131v-53.54671h7.09228v53.54671z"/><path d="M93.49935,410.2967v-54.61056h7.09228v54.61056z"/><path d="M93.17792,407.3661l-43.37974,-43.37974l5.015,-5.015l43.37974,43.37974z"/><path d="M98.19294,363.98636l-43.37975,43.37974l-5.01499,-5.015l43.37974,-43.37974z"/><path d="M48.46337,402.8498h52.12825v7.80151h-52.12825z"/><path d="M47.75414,354.26769h52.83748v7.80151h-52.83748z"/></g><g><path d="M378.90398,215.78349v-53.54671h7.09228v53.54671z" fill="#8aa2c6"/><path d="M424.64917,215.42888v-54.61055h7.09228v54.61055z" fill="#8aa2c6"/><path d="M424.32779,212.49828l-43.37974,-43.37974l5.015,-5.015l43.37974,43.37974z" fill="#8aa2c6"/><path d="M429.34278,169.11853l-43.37974,43.37974l-5.01499,-5.015l43.37974,-43.37974z" fill="#8aa2c6"/><path d="M432.80532,164.36447h-54.61055v-7.09228h54.61055z" fill="#c65757"/><path d="M379.61321,207.98198h52.12825v7.80151h-52.12825z" fill="#8aa2c6"/></g><g fill="#8aa2c6"><path d="M378.75414,264.65131v-53.54671h7.09228v53.54671z"/><path d="M424.49935,264.2967v-54.61056h7.09228v54.61056z"/><path d="M424.17793,261.3661l-43.37974,-43.37974l5.015,-5.015l43.37974,43.37974z"/><path d="M429.19294,217.98636l-43.37975,43.37974l-5.01499,-5.015l43.37974,-43.37974z"/><path d="M379.46337,256.8498h52.12825v7.80151h-52.12825z"/><path d="M378.75414,208.26769h52.83748v7.80151h-52.83748z"/></g><g fill="#8aa2c6"><path d="M378.75414,313.65131v-53.54671h7.09228v53.54671z"/><path d="M424.49935,313.2967v-54.61056h7.09228v54.61056z"/><path d="M424.17793,310.3661l-43.37974,-43.37974l5.015,-5.015l43.37974,43.37974z"/><path d="M429.19294,266.98636l-43.37975,43.37974l-5.01499,-5.015l43.37974,-43.37974z"/><path d="M379.46337,305.8498h52.12825v7.80151h-52.12825z"/><path d="M378.75414,257.26769h52.83748v7.80151h-52.83748z"/></g><g fill="#8aa2c6"><path d="M378.75414,363.65131v-53.54671h7.09228v53.54671z"/><path d="M424.49935,363.2967v-54.61056h7.09228v54.61056z"/><path d="M424.17793,360.3661l-43.37974,-43.37974l5.015,-5.015l43.37974,43.37974z"/><path d="M429.19294,316.98636l-43.37975,43.37974l-5.01499,-5.015l43.37974,-43.37974z"/><path d="M379.46337,355.8498h52.12825v7.80151h-52.12825z"/><path d="M378.75414,307.26769h52.83748v7.80151h-52.83748z"/></g><g fill="#8aa2c6"><path d="M378.75414,412.65131v-53.54671h7.09228v53.54671z"/><path d="M424.49935,412.2967v-54.61056h7.09228v54.61056z"/><path d="M424.17793,409.3661l-43.37974,-43.37974l5.015,-5.015l43.37974,43.37974z"/><path d="M429.19294,365.98636l-43.37975,43.37974l-5.01499,-5.015l43.37974,-43.37974z"/><path d="M379.46337,404.8498h52.12825v7.80151h-52.12825z"/><path d="M378.75414,356.26769h52.83748v7.80151h-52.83748z"/></g></g></g></svg>