<svg version="1.1" xmlns="http://www.w3.org/2000/svg" xmlns:xlink="http://www.w3.org/1999/xlink" width="123.60911" height="64.7664" viewBox="0,0,123.60911,64.7664"><defs><linearGradient x1="223.56928" y1="137.52011" x2="222.37421" y2="153.58101" gradientUnits="userSpaceOnUse" id="color-1"><stop offset="0" stop-color="#3a3a3a"/><stop offset="1" stop-color="#626262"/></linearGradient><linearGradient x1="223.56928" y1="137.52011" x2="222.37421" y2="153.58101" gradientUnits="userSpaceOnUse" id="color-2"><stop offset="0" stop-color="#282828"/><stop offset="1" stop-color="#929292"/></linearGradient></defs><g transform="translate(-135.5,-132.40027)"><g data-paper-data="{&quot;isPaintingLayer&quot;:true}" fill-rule="nonzero" stroke-linejoin="miter" stroke-miterlimit="10" stroke-dasharray="" stroke-dashoffset="0" style="mix-blend-mode: normal"><path d="M136.5,168.66667c0,-15.18783 12.31217,-27.5 27.5,-27.5c15.18783,0 27.5,12.31217 27.5,27.5c0,15.18783 -12.31217,27.5 -27.5,27.5c-15.18783,0 -27.5,-12.31217 -27.5,-27.5z" fill="#0068ff" stroke="#0010c7" stroke-width="2" stroke-linecap="butt"/><path d="M161.36462,165.75125c0,5.06261 -0.97202,9.16667 -2.17105,9.16667c-1.19904,0 -2.17105,-4.10406 -2.17105,-9.16667c0,-5.06261 0.97202,-9.16667 2.17105,-9.16667c1.19904,0 2.17105,4.10406 2.17105,9.16667z" fill="#000000" stroke="none" stroke-width="0" stroke-linecap="butt"/><path d="M168.7932,165.75125c0,5.06261 -0.97202,9.16667 -2.17105,9.16667c-1.19904,0 -2.17105,-4.10406 -2.17105,-9.16667c0,-5.06261 0.97202,-9.16667 2.17105,-9.16667c1.19904,0 2.17105,4.10406 2.17105,9.16667z" fill="#000000" stroke="none" stroke-width="0" stroke-linecap="butt"/><path d="M173.57493,181.8811c0.90522,2.27215 -6.34481,6.28571 -13.64286,6.28571c-7.29805,0 -15.59219,-4.06542 -12.92857,-9.28571c2.90097,-5.68546 4.34481,0.71429 11.64286,0.71429c7.29805,0 13.21429,-2.01726 14.92857,2.28571z" fill="#ffffff" stroke="#888888" stroke-width="2" stroke-linecap="butt"/><path d="M154.43208,179.8811l-2,5.85714" fill="none" stroke="#888888" stroke-width="2" stroke-linecap="round"/><path d="M165.43208,186.45253l-1.14286,-6.57143" fill="none" stroke="#888888" stroke-width="2" stroke-linecap="round"/><path d="M206.71308,185.87891v-34.06365c0,0 0.27406,-5.80849 1.77886,-7.21251c1.53016,-1.42768 7.3273,-1.28376 7.3273,-1.28376l34.40087,-0.27258c0,0 3.96309,0.01932 5.01067,1.42485c0.93906,1.25992 0.98494,6.61934 0.98494,6.61934l0.56718,32.33858c0,0 0.1125,4.50455 -0.77586,6.09533c-1.04792,1.87651 -5.11241,2.76244 -5.11241,2.76244l-37.86576,-0.24993c0,0 -4.05201,-0.61186 -5.19241,-1.72379c-0.91467,-0.89183 -1.1234,-4.4343 -1.1234,-4.4343z" data-paper-data="{&quot;index&quot;:null}" fill="#00ff3f" stroke="#00c230" stroke-width="2" stroke-linecap="butt"/><path d="M221.70152,173.22373v-21.24763l4.04716,0.08367v21.16395z" data-paper-data="{&quot;index&quot;:null}" fill="#000000" stroke="none" stroke-width="0" stroke-linecap="butt"/><path d="M228.78407,173.22374v-21.16394l4.04717,-0.08369v21.24763z" data-paper-data="{&quot;index&quot;:null}" fill="#000000" stroke="none" stroke-width="0" stroke-linecap="butt"/><path d="M203.07025,152.14463l1.19507,-16.0609l38.60793,2.87276l15.03594,4.53511l-1.04546,4.20896l-13.51145,-3.36929l-1.6741,10.68612l-17.18485,-0.54707l-2.57961,-9.30906l-2.16484,8.2244z" fill="url(#color-1)" stroke="url(#color-2)" stroke-width="2" stroke-linecap="butt"/><path d="M231.81696,158.68958v-2.2364h3.95669v2.2364z" data-paper-data="{&quot;index&quot;:null}" fill="#000000" stroke="none" stroke-width="0" stroke-linecap="butt"/><path d="M218.9147,158.86162v-2.06436h3.44061v2.06436z" data-paper-data="{&quot;index&quot;:null}" fill="#000000" stroke="none" stroke-width="0" stroke-linecap="butt"/><path d="M247.469,177.06042c0,0 -7.53179,5.5094 -12.95266,6.40357c-5.69064,0.93866 -20.42117,-0.89861 -20.42117,-0.89861" data-paper-data="{&quot;index&quot;:null}" fill="none" stroke="#000000" stroke-width="2" stroke-linecap="round"/><path d="M216.13889,148.93124l10.6,2" fill="none" stroke="#000000" stroke-width="2" stroke-linecap="round"/><path d="M227.53889,137.93124c0,0 0.90577,-4.75905 4.15242,-4.52244c3.68972,0.2689 2.84758,5.72244 2.84758,5.72244" fill="none" stroke="#000000" stroke-width="2" stroke-linecap="round"/></g></g></svg>