<svg version="1.1" xmlns="http://www.w3.org/2000/svg" xmlns:xlink="http://www.w3.org/1999/xlink" width="567.56756" height="227.24674" viewBox="0,0,567.56756,227.24674"><g transform="translate(43.03303,-138.93945)"><g data-paper-data="{&quot;isPaintingLayer&quot;:true}" fill-rule="nonzero" stroke="none" stroke-width="0" stroke-linecap="butt" stroke-linejoin="miter" stroke-miterlimit="10" stroke-dasharray="" stroke-dashoffset="0" style="mix-blend-mode: normal"><path d="M-43.03303,366.18619v-157.65766c0,0 13.36949,-1.17383 25.55169,-0.74714c31.47803,1.10254 89.12328,4.36772 141.0446,2.84783c102.13951,-2.98992 198.37717,-12.6112 255.32562,-12.6112c25.27012,0 68.11921,5.12967 101.64505,8.12267c23.53632,2.10119 44.0006,2.38784 44.0006,2.38784v157.65766z" data-paper-data="{&quot;index&quot;:null}" fill="#88ffff"/><g><path d="M26.21957,214.67235c0,0 2.78321,-4.18693 2.82502,-7.18941c0.07205,-5.17449 -2.43156,-21.0659 -2.43156,-21.0659l10.70232,-0.75047c0,0 0.55446,15.11311 1.41047,19.91534c0.65615,3.68102 5.32913,6.77114 5.32913,6.77114c0,0 -5.23742,-1.86671 -6.16131,-1.78865c-1.19289,0.1008 -2.39178,4.3825 -2.39178,4.3825c0,0 -2.4189,-3.65029 -3.23135,-3.55416c-1.13498,0.1343 -6.05093,3.2796 -6.05093,3.2796z" fill="#903600"/><g><path d="M5.30545,193.81762l4.38174,-11.17185l42.01749,-2.76824l6.03793,9.90688l-8.73889,-2.41342l-4.22377,3.32298l-11.00561,-2.21921l-9.78706,3.76225l-6.35676,-2.96503z" fill="#008536"/><path d="M5.60102,190.41284c-3.8296,-3.40846 4.41451,-16.7166 4.41451,-16.7166c0,0 -4.00524,-0.78331 -3.00504,-3.11525c1.14599,-2.67185 9.50329,-12.03532 9.50329,-12.03532c0,0 -4.75583,-1.12116 -2.56242,-4.34078c2.50175,-3.67223 12.10045,-9.50933 14.08164,-9.63353c3.00519,-0.18838 12.44653,5.02654 15.66699,8.63852c1.49536,1.67714 -1.3993,3.36218 -1.3993,3.36218c0,0 8.79365,10.1135 10.19781,12.77303c0.68659,1.30044 -2.25063,2.27928 -2.25063,2.27928c0,0 10.30032,11.81749 7.79033,14.75525c-1.76777,2.06905 -8.7389,-2.41342 -8.7389,-2.41342c0,0 -4.02393,3.30391 -6.17337,3.45969c-2.14944,0.15578 -9.05601,-2.35592 -9.05601,-2.35592c0,0 -5.70002,3.56042 -9.78706,3.76225c-4.08704,0.20183 -6.35676,-2.96503 -6.35676,-2.96503c0,0 -10.42658,6.23537 -12.32508,4.54564z" fill="#88ffff"/></g></g><g><path d="M121.17784,215.2081c0,0 3.75028,-3.34844 4.5489,-6.24306c1.37636,-4.9886 2.96671,-20.99722 2.96671,-20.99722l10.545,1.97636c0,0 -3.27981,14.76335 -3.66418,19.6261c-0.29463,3.72741 3.44661,7.8974 3.44661,7.8974c0,0 -4.59632,-3.12874 -5.50997,-3.28651c-1.17968,-0.20369 -3.42092,3.63651 -3.42092,3.63651c0,0 -1.41875,-4.14281 -2.22915,-4.25494c-1.13212,-0.15665 -6.68299,1.64537 -6.68299,1.64537z" fill="#903600"/><g><path d="M106.20763,189.74806l7.06081,-9.70335l41.35485,7.93155l3.34062,11.11049l-7.84627,-4.54192l-4.92599,2.14872l-10.08856,-4.92638l-10.41992,1.16894l-5.40204,-4.47413z" fill="#008536"/><path d="M107.35339,186.52826c-2.8448,-4.26503 8.49265,-15.06013 8.49265,-15.06013c0,0 -3.67764,-1.76931 -2.12101,-3.77311c1.78354,-2.29589 12.23443,-9.24556 12.23443,-9.24556c0,0 -4.31859,-2.28575 -1.38327,-4.84716c3.34797,-2.92149 14.10956,-6.14561 16.05791,-5.76549c2.95537,0.57658 10.77389,8.00659 12.97791,12.31473c1.02339,2.00039 -2.20296,2.89988 -2.20296,2.89988c0,0 5.95486,12.00628 6.64194,14.93419c0.33596,1.43167 -2.75325,1.6371 -2.75325,1.6371c0,0 6.98242,14.03551 3.81194,16.24425c-2.23294,1.5556 -7.84627,-4.54192 -7.84627,-4.54192c0,0 -4.72781,2.18073 -6.84693,1.7887c-2.11912,-0.39203 -8.16762,-4.56635 -8.16762,-4.56635c0,0 -6.41436,2.00569 -10.41992,1.16894c-4.00556,-0.83675 -5.40203,-4.47413 -5.40203,-4.47413c0,0 -11.66321,3.40043 -13.07351,1.28606z" fill="#88ffff"/></g></g><g><path d="M261.95531,213.17085c0,0 2.78321,-4.18693 2.82502,-7.18941c0.07205,-5.17449 -2.43156,-21.0659 -2.43156,-21.0659l10.70233,-0.75047c0,0 0.55446,15.11311 1.41046,19.91534c0.65615,3.68102 5.32914,6.77114 5.32914,6.77114c0,0 -5.23742,-1.8667 -6.16131,-1.78865c-1.19289,0.1008 -2.39178,4.38249 -2.39178,4.38249c0,0 -2.4189,-3.65029 -3.23135,-3.55415c-1.13498,0.13431 -6.05093,3.27961 -6.05093,3.27961z" fill="#903600"/><g><path d="M241.04118,192.31612l4.38174,-11.17185l42.0175,-2.76824l6.03793,9.90688l-8.73889,-2.41342l-4.22377,3.32298l-11.00561,-2.21921l-9.78706,3.76225l-6.35676,-2.96504z" fill="#008536"/><path d="M241.33676,188.91134c-3.82959,-3.40846 4.4145,-16.71661 4.4145,-16.71661c0,0 -4.00523,-0.78331 -3.00504,-3.11525c1.14599,-2.67185 9.50329,-12.03532 9.50329,-12.03532c0,0 -4.75582,-1.12116 -2.56242,-4.34078c2.50175,-3.67223 12.10045,-9.50933 14.08164,-9.63353c3.00519,-0.18839 12.44653,5.02654 15.667,8.63852c1.49536,1.67714 -1.39931,3.36218 -1.39931,3.36218c0,0 8.79366,10.1135 10.19781,12.77302c0.68659,1.30044 -2.25064,2.27929 -2.25064,2.27929c0,0 10.30032,11.81749 7.79033,14.75525c-1.76777,2.06904 -8.7389,-2.41342 -8.7389,-2.41342c0,0 -4.02393,3.3039 -6.17337,3.45969c-2.14943,0.15579 -9.05601,-2.35592 -9.05601,-2.35592c0,0 -5.70002,3.56042 -9.78706,3.76225c-4.08704,0.20183 -6.35675,-2.96504 -6.35675,-2.96504c0,0 -10.42658,6.23538 -12.32508,4.54565z" fill="#88ffff"/></g></g><g><path d="M396.62345,205.82962c0,0 3.83523,-3.25079 4.7081,-6.12389c1.50432,-4.95152 3.50624,-20.91389 3.50624,-20.91389l10.49063,2.24715c0,0 -3.65876,14.67403 -4.16818,19.52528c-0.39048,3.71859 3.24218,7.9835 3.24218,7.9835c0,0 -4.51425,-3.24602 -5.42355,-3.42726c-1.17405,-0.23399 -3.5134,3.54724 -3.5134,3.54724c0,0 -1.31163,-4.17796 -2.11888,-4.31091c-1.12771,-0.18574 -6.72313,1.47279 -6.72313,1.47279z" fill="#903600"/><g><path d="M382.31359,179.99265l7.30826,-9.51837l41.13697,8.99348l3.0535,11.19281l-7.72675,-4.74239l-4.97967,2.02121l-9.95841,-5.18445l-10.44655,0.90032l-5.28507,-4.61171z" fill="#008536"/><path d="M383.54185,176.80342c-2.73407,-4.33685 8.87751,-14.83653 8.87751,-14.83653c0,0 -3.63087,-1.86339 -2.02318,-3.82646c1.84205,-2.24921 12.46837,-8.92755 12.46837,-8.92755c0,0 -4.25832,-2.39616 -1.25803,-4.88116c3.42207,-2.83434 14.26308,-5.78036 16.201,-5.35022c2.93954,0.65246 10.56422,8.28128 12.6566,12.64473c0.97156,2.02608 -2.27688,2.84221 -2.27688,2.84221c0,0 5.64382,12.15559 6.2553,15.10022c0.29899,1.43984 -2.79448,1.56568 -2.79448,1.56568c0,0 6.6188,14.2106 3.39251,16.33699c-2.27225,1.49761 -7.72675,-4.74239 -7.72675,-4.74239c0,0 -4.78238,2.0583 -6.89071,1.61185c-2.10832,-0.44645 -8.04736,-4.77509 -8.04736,-4.77509c0,0 -6.46387,1.83991 -10.44655,0.90032c-3.98269,-0.93959 -5.28507,-4.6117 -5.28507,-4.6117c0,0 -11.74688,3.09907 -13.10228,0.94909z" fill="#88ffff"/></g></g></g></g></svg>