<svg version="1.1" xmlns="http://www.w3.org/2000/svg" xmlns:xlink="http://www.w3.org/1999/xlink" width="406.49434" height="262.93826" viewBox="0,0,406.49434,262.93826"><defs><linearGradient x1="115.58569" y1="133.29949" x2="260.18331" y2="133.29949" gradientTransform="translate(-223.91688,-270.23274) scale(1.93723,1.93723)" gradientUnits="userSpaceOnUse" id="color-1"><stop offset="0" stop-color="#00c1ff"/><stop offset="1" stop-color="#ff0000"/></linearGradient><linearGradient x1="390.62882" y1="248.21411" x2="390.62882" y2="293.21413" gradientUnits="userSpaceOnUse" id="color-2"><stop offset="0" stop-color="#4e0000"/><stop offset="1" stop-color="#000000"/></linearGradient><linearGradient x1="371.08934" y1="290.25361" x2="371.08934" y2="251.17464" gradientUnits="userSpaceOnUse" id="color-3"><stop offset="0" stop-color="#000000"/><stop offset="1" stop-color="#4e0000"/></linearGradient></defs><g transform="translate(-78.00568,-72.56174)"><g data-paper-data="{&quot;isPaintingLayer&quot;:true}" fill-rule="nonzero" stroke-linejoin="miter" stroke-miterlimit="10" stroke-dasharray="" stroke-dashoffset="0" style="mix-blend-mode: normal"><path d="M353.64674,134.47434c0,10.6803 -32.02914,32.77487 -32.02914,32.77487c0,0 -0.43336,10.26442 2.00428,15.00616c3.33902,6.49511 16.19065,20.38691 16.19065,20.38691c0,0 -29.11611,-1.46191 -39.96836,-3.86139c-9.65973,-2.13581 -21.98496,-9.83677 -21.98496,-9.83677c0,0 -39.41028,6.44283 -61.533,6.44283c-75.84003,0 -137.32052,-27.27151 -137.32052,-60.91261c0,-33.6411 61.48049,-60.9126 137.32052,-60.9126c75.84003,0 137.32052,27.2715 137.32052,60.9126z" fill="#ffffff" stroke="#00c1ff" stroke-width="2" stroke-linecap="butt"/><text transform="translate(115.5859,139.49414) scale(0.5162,0.5162)" font-size="40" xml:space="preserve" fill="url(#color-1)" fill-rule="nonzero" stroke="none" stroke-width="1" stroke-linecap="butt" stroke-linejoin="miter" stroke-miterlimit="10" stroke-dasharray="" stroke-dashoffset="0" font-family="Marker" font-weight="normal" text-anchor="start" style="mix-blend-mode: normal"><tspan x="0" dy="0">Grrrrrrrrrrrr......</tspan></text><path d="M416.00003,334.5c-37.27922,0 -67.5,-30.22078 -67.5,-67.5c0,-37.27922 30.22078,-67.5 67.5,-67.5c37.27922,0 67.5,30.22078 67.5,67.5c0,37.27922 -30.22078,67.5 -67.5,67.5z" data-paper-data="{&quot;index&quot;:null}" fill="#0068ff" stroke="#0010c7" stroke-width="2" stroke-linecap="butt"/><path d="M390.62882,248.21411c2.94308,0 5.32894,10.0736 5.32894,22.50001c0,12.4264 -2.38584,22.50001 -5.32894,22.50001c-2.94308,0 -5.32894,-10.07361 -5.32894,-22.50001c0,-12.4264 2.38584,-22.50001 5.32894,-22.50001z" data-paper-data="{&quot;index&quot;:null}" fill="url(#color-2)" stroke="none" stroke-width="0" stroke-linecap="butt"/><path d="M371.08935,290.25361c-1.96207,0 -3.55264,-8.74812 -3.55264,-19.53948c0,-10.79136 1.59058,-19.53949 3.55264,-19.53949c1.96206,0 3.55263,8.74813 3.55263,19.53949c0,10.79136 -1.59057,19.53948 -3.55263,19.53948z" data-paper-data="{&quot;index&quot;:null}" fill="url(#color-3)" stroke="none" stroke-width="0" stroke-linecap="butt"/><path d="M359.01777,249.65818v-15.66667h47v15.66667l-26.33333,17.33333z" fill="#0068ff" stroke="none" stroke-width="0" stroke-linecap="butt"/><path d="M389.01777,317.32485c0,0 -3.38147,-5.1142 2.66667,-6.66666c2.45497,-0.63016 12.23532,-2.45941 20.01722,-6.30615c11.38982,-5.6302 22.68666,-13.29784 34.98278,-9.02719c20.44122,7.09958 4.66667,22 4.66667,22z" fill="#ffffff" stroke="#a2a5c7" stroke-width="2" stroke-linecap="butt"/><path d="M399.68443,308.65818l1.66667,8.66667" fill="none" stroke="#a2a5c7" stroke-width="2" stroke-linecap="round"/><path d="M422.3511,299.65818l4,16.66667" fill="none" stroke="#a2a5c7" stroke-width="2" stroke-linecap="round"/></g></g></svg>