<svg version="1.1" xmlns="http://www.w3.org/2000/svg" xmlns:xlink="http://www.w3.org/1999/xlink" width="42.19958" height="39.78189" viewBox="0,0,42.19958,39.78189"><g transform="translate(-219.89826,-160.10935)"><g data-paper-data="{&quot;isPaintingLayer&quot;:true}" fill-rule="nonzero" stroke-linejoin="miter" stroke-miterlimit="10" stroke-dasharray="" stroke-dashoffset="0" style="mix-blend-mode: normal"><path d="M260.93457,193.97387c0,0 -0.17011,2.71806 -0.9156,3.40234c-0.92946,0.85316 -4.23199,1.32263 -4.23199,1.32263l-30.86187,0.19177c0,0 -3.3127,-0.67976 -4.16679,-2.11956c-0.72404,-1.22057 -0.63235,-4.67682 -0.63235,-4.67682l0.46228,-24.81273c0,0 0.03739,-4.11217 0.80276,-5.07888c0.85381,-1.07843 4.08386,-1.09325 4.08386,-1.09325l28.03787,0.20914c0,0 4.72486,-0.11042 5.97199,0.98501c1.22646,1.07728 1.44983,5.53401 1.44983,5.53401v26.13635z" data-paper-data="{&quot;index&quot;:null}" fill="#00ff3f" stroke="#00c230" stroke-width="2" stroke-linecap="butt"/><path d="M250.82515,186.30398v-16.00032l3.17045,-0.06326v16.06358z" data-paper-data="{&quot;index&quot;:null}" fill="#000000" stroke="none" stroke-width="0" stroke-linecap="butt"/><path d="M245.27684,186.30399v-16.06358l3.17046,0.06327v16.00031z" data-paper-data="{&quot;index&quot;:null}" fill="#000000" stroke="none" stroke-width="0" stroke-linecap="butt"/><path d="M242.97182,175.3159v-1.69076h3.09958v1.69076z" fill="#000000" stroke="none" stroke-width="0" stroke-linecap="butt"/><path d="M253.48344,175.44597v-1.56069h2.69529v1.56069z" fill="#000000" stroke="none" stroke-width="0" stroke-linecap="butt"/><path d="M254.15725,191.70319c0,0 -11.53955,1.389 -15.99746,0.67937c-4.24658,-0.67601 -10.14681,-4.84122 -10.14681,-4.84122" fill="none" stroke="#000000" stroke-width="2" stroke-linecap="round"/></g></g></svg>