<svg version="1.1" xmlns="http://www.w3.org/2000/svg" xmlns:xlink="http://www.w3.org/1999/xlink" width="552.49325" height="329.28667" viewBox="0,0,552.49325,329.28667"><defs><linearGradient x1="416.00004" y1="199.49993" x2="416.00004" y2="334.5001" gradientUnits="userSpaceOnUse" id="color-1"><stop offset="0" stop-color="#ff0000"/><stop offset="1" stop-color="#0068ff"/></linearGradient><linearGradient x1="416.00004" y1="199.49993" x2="416.00004" y2="334.5001" gradientUnits="userSpaceOnUse" id="color-2"><stop offset="0" stop-color="#660000"/><stop offset="1" stop-color="#0010c7"/></linearGradient></defs><g transform="translate(38.79586,-6.20917)"><g data-paper-data="{&quot;isPaintingLayer&quot;:true}" fill-rule="nonzero" stroke-linejoin="miter" stroke-miterlimit="10" stroke-dasharray="" stroke-dashoffset="0" style="mix-blend-mode: normal"><path d="M415.24949,334.49584c-37.27691,-0.41452 -67.15979,-30.96947 -66.74527,-68.24638c0.41452,-37.27691 30.96947,-67.15979 68.24638,-66.74527c37.27691,0.41452 67.15979,30.96947 66.74527,68.24638c-0.41452,37.27691 -30.96947,67.15979 -68.24638,66.74527z" data-paper-data="{&quot;index&quot;:null}" fill="url(#color-1)" stroke="url(#color-2)" stroke-width="2" stroke-linecap="butt"/><path d="M347.35114,256.32485c0,-8.51924 12.67143,-18.84033 12.67143,-18.84033l27.22324,24.40907c0,0 0.73752,14.7646 -19.56134,14.7646c-11.22979,0 -20.33333,-9.10355 -20.33333,-20.33334z" fill="#ffffff" stroke="#000000" stroke-width="2" stroke-linecap="butt"/><path d="M397.0859,251.2908c0,-14.3406 11.62535,-25.96595 25.96595,-25.96595c14.3406,0 25.96595,11.62535 25.96595,25.96595c0,2.03879 -0.23498,4.0227 -0.67932,5.92613c-13.34727,0.92861 -24.8791,8.44754 -31.36352,19.32484c-11.40906,-2.73573 -19.88907,-13.00305 -19.88907,-25.25097z" fill="#ffffff" stroke="#000000" stroke-width="2" stroke-linecap="butt"/><path d="M457.60529,308.16054c1.68343,12.78159 -15.79065,18.03773 -34.96304,20.56287c-19.17239,2.52514 -34.37968,3.14301 -36.06311,-9.63858c-1.68343,-12.78159 9.98919,-34.27805 29.16158,-36.8032c19.17239,-2.52514 40.18115,13.09731 41.86458,25.8789z" fill="#000000" stroke="none" stroke-width="0" stroke-linecap="butt"/><path d="M367.11922,105.6437l-29.73029,19.05823l23.48903,45.427l-64.21604,-6.92216l37.64732,81.67334l-86.18861,-57.60713l-69.50609,25.85811l-12.15676,-35.2079l-81.74898,50.91765l-13.48798,-42.22204l-57.89955,3.40463l10.52225,-41.3893l-59.92912,-21.78459l77.85434,-33.54255l-20.48554,-47.39853l72.59057,1.13446l22.53438,-39.25816l50.97976,32.78324l43.89869,-33.01405l31.06942,33.92419l58.18156,-18.58393l1.50745,27.65871l78.24867,2.12363l-37.87854,26.88507z" data-paper-data="{&quot;index&quot;:null}" fill="#ffffff" stroke="#ff0000" stroke-width="2" stroke-linecap="butt"/><text transform="translate(41.40947,135.276) rotate(-13.38582) scale(0.87607,0.87607)" font-size="40" xml:space="preserve" fill="#ff0000" fill-rule="nonzero" stroke="none" stroke-width="1" stroke-linecap="butt" stroke-linejoin="miter" stroke-miterlimit="10" stroke-dasharray="" stroke-dashoffset="0" font-family="Marker" font-weight="normal" text-anchor="start" style="mix-blend-mode: normal"><tspan x="0" dy="0">I'M GONNA KICK</tspan><tspan x="0" dy="48px">HIS ASS!!!!!!</tspan></text><path d="M34.31214,324.60353c0,0 -0.06085,1.03279 -0.32752,1.29281c-0.33248,0.32418 -1.51383,0.50257 -1.51383,0.50257l-11.03965,0.07287c0,0 -1.18499,-0.25829 -1.49051,-0.80538c-0.259,-0.46379 -0.2262,-1.77707 -0.2262,-1.77707l0.16536,-9.42822c0,0 0.01338,-1.56252 0.28716,-1.92985c0.30542,-0.40978 1.46085,-0.41541 1.46085,-0.41541l10.02948,0.07947c0,0 1.69014,-0.04196 2.13625,0.37428c0.43872,0.40934 0.51862,2.10279 0.51862,2.10279z" data-paper-data="{&quot;index&quot;:null}" fill="#00ff3f" stroke="#00c230" stroke-width="2" stroke-linecap="butt"/><path d="M26.84334,317.6178c0,-0.1567 0.12703,-0.28373 0.28373,-0.28373c0.1567,0 0.28373,0.12703 0.28373,0.28373c0,0.1567 -0.12703,0.28373 -0.28373,0.28373c-0.1567,0 -0.28373,-0.12703 -0.28373,-0.28373z" fill="#000000" stroke="none" stroke-width="0" stroke-linecap="butt"/><path d="M32.35578,317.47593c0,-0.12312 0.09981,-0.22293 0.22293,-0.22293c0.12312,0 0.22293,0.09981 0.22293,0.22293c0,0.12312 -0.09981,0.22293 -0.22293,0.22293c-0.12312,0 -0.22293,-0.09981 -0.22293,-0.22293z" fill="#000000" stroke="none" stroke-width="0" stroke-linecap="butt"/><path d="M31.74779,318.30685h-3.81007" fill="none" stroke="#000000" stroke-width="2" stroke-linecap="round"/><path d="M36.75084,296.50918c0,-4.58164 8.37313,-8.29579 18.70191,-8.29579c10.32878,0 18.70191,3.71415 18.70191,8.29579c0,4.58164 -8.37313,8.29579 -18.70191,8.29579c-3.01293,0 -8.38028,-0.87746 -8.38028,-0.87746c0,0 -1.67859,1.04881 -2.99417,1.33969c-1.47799,0.32679 -5.44336,0.52589 -5.44336,0.52589c0,0 1.75028,-1.89195 2.20503,-2.77653c0.33199,-0.64579 0.27297,-2.04371 0.27297,-2.04371c0,0 -4.3621,-3.0091 -4.3621,-4.46366z" data-paper-data="{&quot;index&quot;:null}" fill="#ffffff" stroke="#00c1ff" stroke-width="2" stroke-linecap="butt"/><text transform="translate(39.47305,297.48103) scale(0.10943,0.10943)" font-size="40" xml:space="preserve" data-paper-data="{&quot;index&quot;:null}" fill="#00c1ff" fill-rule="nonzero" stroke="none" stroke-width="1" stroke-linecap="butt" stroke-linejoin="miter" stroke-miterlimit="10" stroke-dasharray="" stroke-dashoffset="0" font-family="Marker" font-weight="normal" text-anchor="start" style="mix-blend-mode: normal"><tspan x="0" dy="0">What the fuck?</tspan></text><text transform="translate(-10.82602,123.69459) rotate(17.90126) scale(2.03846,2.03846)" font-size="40" xml:space="preserve" fill="#000000" fill-rule="nonzero" stroke="none" stroke-width="1" stroke-linecap="butt" stroke-linejoin="miter" stroke-miterlimit="10" stroke-dasharray="" stroke-dashoffset="0" font-family="Marker" font-weight="normal" text-anchor="start" style="mix-blend-mode: normal"><tspan x="0" dy="0">END OF DEMO</tspan></text></g></g></svg>