<svg version="1.1" xmlns="http://www.w3.org/2000/svg" xmlns:xlink="http://www.w3.org/1999/xlink" width="54.69332" height="43.38754" viewBox="0,0,54.69332,43.38754"><g transform="translate(-212.87553,-159.71305)"><g data-paper-data="{&quot;isPaintingLayer&quot;:true}" fill-rule="nonzero" stroke-linecap="butt" stroke-linejoin="miter" stroke-miterlimit="10" stroke-dasharray="" stroke-dashoffset="0" style="mix-blend-mode: normal"><path d="M259.94019,194.26705c0,0 -0.16351,2.77508 -0.88004,3.47372c-0.89336,0.87106 -4.06761,1.35038 -4.06761,1.35038l-29.66314,0.19579c0,0 -3.18402,-0.69402 -4.00494,-2.16403c-0.69592,-1.24618 -0.60779,-4.77494 -0.60779,-4.77494l0.44432,-25.33328c0,0 0.03594,-4.19844 0.77158,-5.18543c0.82065,-1.10106 3.92524,-1.11619 3.92524,-1.11619l26.94883,0.21353c0,0 4.54134,-0.11274 5.74003,1.00567c1.17883,1.09988 1.39352,5.65011 1.39352,5.65011v26.68466z" data-paper-data="{&quot;index&quot;:null}" fill="#ff0062" stroke="#b60046" stroke-width="2"/><path d="M250.82514,186.0767v-13.21023l3.17045,-3.43466v16.64489z" data-paper-data="{&quot;index&quot;:null}" fill="#000000" stroke="none" stroke-width="0"/><path d="M245.27683,186.07671v-16.64489l3.17046,3.43466v13.21023z" data-paper-data="{&quot;index&quot;:null}" fill="#000000" stroke="none" stroke-width="0"/><path d="M213.87553,202.10059v-17.21705l9.55618,0.17243l0.01927,9.54031l12.75111,-0.35039l0.55149,-8.21974l10.16942,-0.06712l1.52031,9.0702l11.05898,-0.43345l0.27465,-8.62956l6.59077,-0.13552l0.18943,16.26989z" fill="#7896c5" stroke="#58798b" stroke-width="2"/></g></g></svg>