<svg version="1.1" xmlns="http://www.w3.org/2000/svg" xmlns:xlink="http://www.w3.org/1999/xlink" width="371.32829" height="244.93411" viewBox="0,0,371.32829,244.93411"><g transform="translate(-15.9144,-89.56174)"><g data-paper-data="{&quot;isPaintingLayer&quot;:true}" fill-rule="nonzero" stroke-linejoin="miter" stroke-miterlimit="10" stroke-dasharray="" stroke-dashoffset="0" style="mix-blend-mode: normal"><path d="M16.91866,266.75058c-0.41452,-37.27691 29.46836,-67.83186 66.74527,-68.24638c37.27691,-0.41452 67.83186,29.46836 68.24638,66.74527c0.41452,37.27691 -29.46836,67.83186 -66.74527,68.24638c-37.27691,0.41452 -67.83186,-29.46836 -68.24638,-66.74527z" data-paper-data="{&quot;index&quot;:null}" fill="#0068ff" stroke="#0010c7" stroke-width="2" stroke-linecap="butt"/><path d="M139.76048,213.52849l-31,9l-54,-39" fill="none" stroke="#000000" stroke-width="2" stroke-linecap="round"/><path d="M103.46244,240.64199c0,13.07074 -2.01472,23.66667 -4.5,23.66667c-2.48528,0 -4.5,-10.59593 -4.5,-23.66667c0,-13.07074 2.01472,-23.66667 4.5,-23.66667c2.48528,0 4.5,10.59593 4.5,23.66667z" fill="#000000" stroke="none" stroke-width="0" stroke-linecap="butt"/><path d="M124.46244,241.64199c0,12.88664 -1.567,23.33333 -3.5,23.33333c-1.933,0 -3.5,-10.44669 -3.5,-23.33333c0,-12.88664 1.567,-23.33333 3.5,-23.33333c1.933,0 3.5,10.44669 3.5,23.33333z" fill="#000000" stroke="none" stroke-width="0" stroke-linecap="butt"/><path d="M130.05329,293.47453c0,13.53098 -30.0279,29.5 -53.5,29.5c-23.4721,0 -27.5,-23.96902 -27.5,-37.5c0,-13.53098 16.0279,-5.5 39.5,-5.5c23.4721,0 41.5,-0.03098 41.5,13.5z" fill="#000000" stroke="none" stroke-width="0" stroke-linecap="butt"/><path d="M142.0075,144.73063c0,-29.91665 54.6739,-54.16889 122.11759,-54.16889c67.44368,0 122.11759,24.25224 122.11759,54.16889c0,29.91665 -54.6739,54.1689 -122.11759,54.1689c-19.67348,0 -54.7206,-5.72954 -54.7206,-5.72954c0,0 -10.96069,6.84838 -19.55098,8.74773c-9.65078,2.13383 -35.54341,3.43389 -35.54341,3.43389c0,0 11.42881,-12.35382 14.39816,-18.12985c2.16777,-4.21678 1.78238,-13.34481 1.78238,-13.34481c0,0 -28.48315,-19.64845 -28.48315,-29.14632z" data-paper-data="{&quot;index&quot;:null}" fill="#ffffff" stroke="#00c1ff" stroke-width="2" stroke-linecap="butt"/><text transform="translate(171.87547,128.51654) scale(0.30575,0.30575)" font-size="40" xml:space="preserve" data-paper-data="{&quot;index&quot;:null}" fill="#00c1ff" fill-rule="nonzero" stroke="none" stroke-width="1" stroke-linecap="butt" stroke-linejoin="miter" stroke-miterlimit="10" stroke-dasharray="" stroke-dashoffset="0" font-family="Marker" font-weight="normal" text-anchor="start" style="mix-blend-mode: normal"><tspan x="0" dy="0">Your smack talk doesn't scare me!</tspan><tspan x="0" dy="48px">I'll find out your plan and stop it</tspan><tspan x="0" dy="48px">before you can come up with a</tspan><tspan x="0" dy="48px">rebuttal to this comment!</tspan></text></g></g></svg>