<svg version="1.1" xmlns="http://www.w3.org/2000/svg" xmlns:xlink="http://www.w3.org/1999/xlink" width="528" height="404" viewBox="0,0,528,404"><g transform="translate(25.37143,16.17752)"><g data-paper-data="{&quot;isPaintingLayer&quot;:true}" fill-rule="nonzero" stroke="none" stroke-width="0" stroke-linecap="butt" stroke-linejoin="miter" stroke-miterlimit="10" stroke-dasharray="" stroke-dashoffset="0" style="mix-blend-mode: normal"><path d="M-25.37143,376.82249v-393h528v393z" fill="#bcfff3"/><path d="M-4.37143,387.82249v-216.20251c0,0 53.04452,7.04192 90.57146,-1.6481c45.12926,-10.45048 78.52584,-36.95949 112.42854,-36.95949c17.96401,0 39.15787,6.27365 64.1302,3.95416c24.97233,-2.31949 39.89774,-20.29789 66.87414,-16.12214c16.29747,2.52273 37.1508,35.95007 64.91341,45.23349c42.64816,14.26093 91.08224,13.54208 91.08224,13.54208l1,208.20251z" fill="#00bc23"/><path d="M169.80213,154.97421l18.88959,-2.89304l192.56542,33.10238l-280,-5l72,-35z" fill="#00911b"/><path d="M285.25714,137.18356c0,0 25.74083,-11.52985 40,-9c14.25917,2.52985 22,20 22,20c0,0 -18.86138,-7.34637 -28.80303,-9.11021c-10.67305,-1.89361 -33.19697,-1.88979 -33.19697,-1.88979z" fill="#00ea2b"/></g></g></svg>