<svg version="1.1" xmlns="http://www.w3.org/2000/svg" xmlns:xlink="http://www.w3.org/1999/xlink" width="465.78704" height="310.74509" viewBox="0,0,465.78704,310.74509"><defs><linearGradient x1="416.00004" y1="199.49993" x2="416.00004" y2="334.5001" gradientUnits="userSpaceOnUse" id="color-1"><stop offset="0" stop-color="#ff0000"/><stop offset="1" stop-color="#0068ff"/></linearGradient><linearGradient x1="416.00004" y1="199.49993" x2="416.00004" y2="334.5001" gradientUnits="userSpaceOnUse" id="color-2"><stop offset="0" stop-color="#660000"/><stop offset="1" stop-color="#0010c7"/></linearGradient></defs><g transform="translate(-18.71309,-24.75075)"><g data-paper-data="{&quot;isPaintingLayer&quot;:true}" fill-rule="nonzero" stroke-linejoin="miter" stroke-miterlimit="10" stroke-dasharray="" stroke-dashoffset="0" style="mix-blend-mode: normal"><path d="M415.24949,334.49584c-37.27691,-0.41452 -67.15979,-30.96947 -66.74527,-68.24638c0.41452,-37.27691 30.96947,-67.15979 68.24638,-66.74527c37.27691,0.41452 67.15979,30.96947 66.74527,68.24638c-0.41452,37.27691 -30.96947,67.15979 -68.24638,66.74527z" data-paper-data="{&quot;index&quot;:null}" fill="url(#color-1)" stroke="url(#color-2)" stroke-width="2" stroke-linecap="butt"/><path d="M380.24269,104.73063l-23.83373,15.27832l18.83033,36.41724l-51.47975,-5.54925l30.18054,65.47466l-69.09439,-46.18162l-55.7206,20.72954l-9.74565,-28.22494l-65.5353,40.8189l-10.81284,-33.84793l-46.41604,2.72937l8.43532,-33.18035l-48.04308,-17.46394l62.4131,-26.88989l-16.42254,-37.99774l58.19332,0.90946l18.06502,-31.47189l40.86869,26.28118l35.19204,-26.46621l24.90727,27.19584l46.64212,-14.89809l1.20847,22.17302l62.72922,1.70244l-30.3659,21.55282z" data-paper-data="{&quot;index&quot;:null}" fill="#ffffff" stroke="#ff0000" stroke-width="2" stroke-linecap="butt"/><path d="M139.77326,311.10768c0,0 -0.50045,8.49353 -2.69349,10.63182c-2.73426,2.66601 -12.4495,4.13302 -12.4495,4.13302l-90.78825,0.59925c0,0 -9.74514,-2.12415 -12.25769,-6.62332c-2.12996,-3.81411 -1.86022,-14.61437 -1.86022,-14.61437l1.3599,-77.53609c0,0 0.11,-12.84993 2.36153,-15.87074c2.51172,-3.36995 12.01376,-3.41626 12.01376,-3.41626l82.48073,0.65354c0,0 13.89942,-0.34505 17.56817,3.078c3.60798,3.36634 4.26506,17.29296 4.26506,17.29296z" data-paper-data="{&quot;index&quot;:null}" fill="#00ff3f" stroke="#00c230" stroke-width="2" stroke-linecap="butt"/><path d="M347.35114,256.32485c0,-8.51924 12.67143,-18.84033 12.67143,-18.84033l27.22324,24.40907c0,0 0.73752,14.7646 -19.56134,14.7646c-11.22979,0 -20.33333,-9.10355 -20.33333,-20.33334z" fill="#ffffff" stroke="#000000" stroke-width="2" stroke-linecap="butt"/><path d="M397.0859,251.2908c0,-14.3406 11.62535,-25.96595 25.96595,-25.96595c14.3406,0 25.96595,11.62535 25.96595,25.96595c0,2.03879 -0.23498,4.0227 -0.67932,5.92613c-13.34727,0.92861 -24.8791,8.44754 -31.36352,19.32484c-11.40906,-2.73573 -19.88907,-13.00305 -19.88907,-25.25097z" fill="#ffffff" stroke="#000000" stroke-width="2" stroke-linecap="butt"/><path d="M457.60529,308.16054c1.68343,12.78159 -15.79065,18.03773 -34.96304,20.56287c-19.17239,2.52514 -34.37968,3.14301 -36.06311,-9.63858c-1.68343,-12.78159 9.98919,-34.27805 29.16158,-36.8032c19.17239,-2.52514 40.18115,13.09731 41.86458,25.8789z" fill="#000000" stroke="none" stroke-width="0" stroke-linecap="butt"/><text transform="translate(126.17385,153.82274) rotate(-13.38582) scale(0.82503,0.82503)" font-size="40" xml:space="preserve" fill="#ff0000" fill-rule="nonzero" stroke="none" stroke-width="1" stroke-linecap="butt" stroke-linejoin="miter" stroke-miterlimit="10" stroke-dasharray="" stroke-dashoffset="0" font-family="Marker" font-weight="normal" text-anchor="start" style="mix-blend-mode: normal"><tspan x="0" dy="0">WHAT?!??!?!?</tspan></text><path d="M78.35114,253.65818c0,-1.28866 1.04467,-2.33333 2.33333,-2.33333c1.28866,0 2.33333,1.04467 2.33333,2.33333c0,1.28866 -1.04467,2.33333 -2.33333,2.33333c-1.28866,0 -2.33333,-1.04467 -2.33333,-2.33333z" fill="#000000" stroke="none" stroke-width="0" stroke-linecap="butt"/><path d="M123.68447,252.49151c0,-1.01252 0.82081,-1.83333 1.83333,-1.83333c1.01252,0 1.83333,0.82081 1.83333,1.83333c0,1.01252 -0.82081,1.83333 -1.83333,1.83333c-1.01252,0 -1.83333,-0.82081 -1.83333,-1.83333z" fill="#000000" stroke="none" stroke-width="0" stroke-linecap="butt"/><path d="M87.35114,259.32484h31.33333" fill="none" stroke="#000000" stroke-width="2" stroke-linecap="round"/></g></g></svg>