<svg version="1.1" xmlns="http://www.w3.org/2000/svg" xmlns:xlink="http://www.w3.org/1999/xlink" width="465.78704" height="268.9341" viewBox="0,0,465.78704,268.9341"><g transform="translate(-18.71308,-66.56174)"><g data-paper-data="{&quot;isPaintingLayer&quot;:true}" fill-rule="nonzero" stroke-linejoin="miter" stroke-miterlimit="10" stroke-dasharray="" stroke-dashoffset="0" style="mix-blend-mode: normal"><path d="M415.24948,334.49584c-37.27691,-0.41452 -67.15979,-30.96947 -66.74527,-68.24638c0.41452,-37.27691 30.96947,-67.15979 68.24638,-66.74527c37.27691,0.41452 67.15979,30.96947 66.74527,68.24638c-0.41452,37.27691 -30.96947,67.15979 -68.24638,66.74527z" data-paper-data="{&quot;index&quot;:null}" fill="#0068ff" stroke="#0010c7" stroke-width="2" stroke-linecap="butt"/><path d="M390.83928,247.93317c2.94289,0.03273 5.21659,10.13223 5.07842,22.55787c-0.13817,12.42563 -2.63588,22.47209 -5.5788,22.43936c-2.94289,-0.03273 -5.2166,-10.13224 -5.07842,-22.55787c0.13817,-12.42563 2.63588,-22.47209 5.5788,-22.43936z" data-paper-data="{&quot;index&quot;:null}" fill="#ff0000" stroke="none" stroke-width="0" stroke-linecap="butt"/><path d="M370.83357,289.7528c-1.96195,-0.02182 -3.45515,-8.78708 -3.33516,-19.57777c0.12,-10.79069 1.80776,-19.52059 3.76969,-19.49878c1.96193,0.02181 3.45514,8.7871 3.33515,19.57779c-0.12,10.79069 -1.80775,19.52059 -3.76968,19.49876z" data-paper-data="{&quot;index&quot;:null}" fill="#ff0000" stroke="none" stroke-width="0" stroke-linecap="butt"/><path d="M352.24268,121.73063c0,9.49787 -28.48315,29.14632 -28.48315,29.14632c0,0 -0.38539,9.12803 1.78238,13.34481c2.96935,5.77603 14.39816,18.12985 14.39816,18.12985c0,0 -25.89263,-1.30006 -35.54341,-3.43389c-8.59029,-1.89935 -19.55098,-8.74773 -19.55098,-8.74773c0,0 -35.04712,5.72954 -54.7206,5.72954c-67.44369,0 -122.11759,-24.25225 -122.11759,-54.1689c0,-29.91665 54.67391,-54.16889 122.11759,-54.16889c67.44369,0 122.11759,24.25224 122.11759,54.16889z" data-paper-data="{&quot;index&quot;:null}" fill="#ffffff" stroke="#00c1ff" stroke-width="2" stroke-linecap="butt"/><text transform="translate(158.45316,108.88843) scale(0.2649,0.2649)" font-size="40" xml:space="preserve" data-paper-data="{&quot;index&quot;:null}" fill="#00c1ff" fill-rule="nonzero" stroke="none" stroke-width="1" stroke-linecap="butt" stroke-linejoin="miter" stroke-miterlimit="10" stroke-dasharray="" stroke-dashoffset="0" font-family="Marker" font-weight="normal" text-anchor="start" style="mix-blend-mode: normal"><tspan x="0" dy="0">The rocket says what?</tspan><tspan x="0" dy="48px">It says- </tspan></text><path d="M139.77325,311.10768c0,0 -0.50045,8.49353 -2.69349,10.63182c-2.73426,2.66601 -12.4495,4.13302 -12.4495,4.13302l-90.78825,0.59925c0,0 -9.74514,-2.12415 -12.25769,-6.62332c-2.12996,-3.81411 -1.86022,-14.61437 -1.86022,-14.61437l1.3599,-77.53609c0,0 0.11,-12.84993 2.36153,-15.87074c2.51172,-3.36995 12.01376,-3.41626 12.01376,-3.41626l82.48073,0.65354c0,0 13.89942,-0.34505 17.56817,3.078c3.60798,3.36634 4.26506,17.29296 4.26506,17.29296z" data-paper-data="{&quot;index&quot;:null}" fill="#00ff3f" stroke="#00c230" stroke-width="2" stroke-linecap="butt"/><path d="M111.87534,286.03995v-50.74342l9.70362,-0.20063v50.94405z" data-paper-data="{&quot;index&quot;:null}" fill="#000000" stroke="none" stroke-width="0" stroke-linecap="butt"/><path d="M94.89396,286.03998v-50.94405l9.70364,0.20066v50.74339z" data-paper-data="{&quot;index&quot;:null}" fill="#000000" stroke="none" stroke-width="0" stroke-linecap="butt"/><path d="M87.83911,251.19237v-5.36206h9.48671v5.36206z" fill="#000000" stroke="none" stroke-width="0" stroke-linecap="butt"/><path d="M120.01142,251.60485v-4.94958h8.24932v4.94958z" fill="#000000" stroke="none" stroke-width="0" stroke-linecap="butt"/><path d="M35.56353,323.82129c0,0 17.40524,-7.81567 33.76792,-8.32532c13.34281,-0.41559 57.20981,5.49162 57.20981,5.49162" data-paper-data="{&quot;index&quot;:null}" fill="none" stroke="#000000" stroke-width="2" stroke-linecap="round"/><path d="M89.76337,242.11863v-14.5l39,-2l-2.25,15.25c0,0 -11.81451,-6.11515 -17.73856,-5.91365c-6.3025,0.21437 -19.01144,7.16365 -19.01144,7.16365z" fill="#00ff3f" stroke="none" stroke-width="0" stroke-linecap="butt"/><path d="M434.71995,313.30787c0,2.20914 -9.27783,6.66667 -18.66667,6.66667c-9.38884,0 -19.33333,-2.79086 -19.33333,-5c0,-2.20914 9.94449,-3 19.33333,-3c9.38884,0 18.66667,-0.87581 18.66667,1.33333z" fill="#000000" stroke="none" stroke-width="0" stroke-linecap="butt"/><path d="M381.0178,299.32485v-23h27v23z" fill="#0068ff" stroke="none" stroke-width="0" stroke-linecap="butt"/><path d="M363.0178,257.99151v-12.66666h16c0,0 23.08106,0.12814 22.89954,2.379c-0.30602,3.79461 -24.56621,18.28767 -24.56621,18.28767z" fill="#0068ff" stroke="none" stroke-width="0" stroke-linecap="butt"/></g></g></svg>