<svg version="1.1" xmlns="http://www.w3.org/2000/svg" xmlns:xlink="http://www.w3.org/1999/xlink" width="495.10965" height="223.40974" viewBox="0,0,495.10965,223.40974"><g transform="translate(1.23721,-213.42815)"><g data-paper-data="{&quot;isPaintingLayer&quot;:true}" fill-rule="nonzero" stroke="none" stroke-linecap="butt" stroke-linejoin="miter" stroke-miterlimit="10" stroke-dasharray="" stroke-dashoffset="0" style="mix-blend-mode: normal"><g><g stroke-width="0"><path d="M400.9079,333.56763v-105h80.6129v105z" fill="#a9b4ff"/><path d="M400.9079,292.24505v-16.93548c0,0 4.80147,1.16686 10.593,-0.67424c8.56762,-2.7236 20.10698,-8.80964 28.0199,-8.80964c6.92139,0 16.99804,5.84328 25.89133,8.25571c8.58204,2.328 16.10867,1.22817 16.10867,1.22817v16.93549c0,0 -10.69637,0.29594 -19.72546,-2.17871c-9.49656,-2.60277 -17.50854,-7.98258 -24.3068,-7.98258c-6.18608,0 -12.28035,4.81185 -19.30236,7.10388c-8.41637,2.74716 -17.27828,3.05741 -17.27828,3.05741z" fill="#7688ff"/><path d="M400.9079,257.01925v-16.93548c0,0 4.80147,1.16686 10.593,-0.67424c8.56762,-2.7236 20.10698,-8.80963 28.0199,-8.80963c6.92139,0 16.99804,5.84327 25.89133,8.2557c8.58204,2.328 16.10867,1.22817 16.10867,1.22817v16.93549c0,0 -10.69637,0.29594 -19.72546,-2.17871c-9.49656,-2.60277 -17.50854,-7.98258 -24.3068,-7.98258c-6.18608,0 -12.28035,4.81185 -19.30236,7.10388c-8.41637,2.74716 -17.27828,3.05741 -17.27828,3.05741z" fill="#7688ff"/><path d="M400.9079,327.47086v-16.93548c0,0 4.80147,1.16686 10.593,-0.67423c8.56762,-2.7236 20.10698,-8.80964 28.0199,-8.80964c6.92139,0 16.99804,5.84328 25.89133,8.25571c8.58204,2.328 16.10867,1.22816 16.10867,1.22816v16.93549c0,0 -10.69637,0.29595 -19.72546,-2.1787c-9.49656,-2.60277 -17.50854,-7.98259 -24.3068,-7.98259c-6.18608,0 -12.28035,4.81184 -19.30236,7.10388c-8.41637,2.74716 -17.27828,3.05741 -17.27828,3.05741z" fill="#7688ff"/></g><path d="M418.90789,215.40096c4.09284,0.13052 8.01835,1.82237 12.19968,2c6.81417,0.28947 13.04443,-2.59253 19.80032,-2.66667c6.59202,-0.07234 17.44667,0.85233 24.91407,0.61994c2.02446,-0.063 4.05279,0.98817 6.09111,1.46469c6.03514,1.4109 10.35427,1.23102 11.82816,8.41537c1.30614,6.36671 -7.52909,8.14978 -9.22917,13.25c-0.91712,2.75136 -0.01022,6.03476 -1.64856,8.60929c-1.46073,2.29543 -4.75351,3.48122 -7.37487,3.68744c-3.90293,0.30703 -6.71413,-5.06408 -9.87305,-6.80763c-3.74927,-2.06939 -7.94566,-2.42604 -12.02976,-3.44706c-0.40417,-0.10104 -2.58857,-1.83885 -2.95817,-1.73737c-5.85385,1.60725 -10.87982,4.69454 -17.37516,3.07071c-2.33403,-0.58351 -6.05002,-5.88291 -8.3446,-5.45871c-8.6853,1.60568 -10.80107,6.61491 -21,5.66667c-7.62785,-0.7092 -8.67011,-8.15289 -7.15775,-14.20234c0.03209,-0.66226 0.15007,-1.30197 0.34305,-1.90824c0.7193,-9.35095 15.54679,-10.75596 21.8147,-10.55608z" fill="#a4ddff" stroke-width="0.5"/></g><g><g stroke-width="0"><path d="M320.65864,333.23429v-105h80.6129v105z" fill="#a9b4ff"/><path d="M320.65864,291.91171v-16.93548c0,0 4.80147,1.16686 10.593,-0.67424c8.56762,-2.7236 20.10698,-8.80964 28.0199,-8.80964c6.92139,0 16.99804,5.84328 25.89133,8.25571c8.58204,2.328 16.10867,1.22817 16.10867,1.22817v16.93549c0,0 -10.69637,0.29594 -19.72546,-2.17871c-9.49656,-2.60277 -17.50854,-7.98258 -24.3068,-7.98258c-6.18608,0 -12.28035,4.81185 -19.30236,7.10388c-8.41637,2.74716 -17.27828,3.05741 -17.27828,3.05741z" fill="#7688ff"/><path d="M320.65864,256.68591v-16.93548c0,0 4.80147,1.16686 10.593,-0.67424c8.56762,-2.7236 20.10698,-8.80963 28.0199,-8.80963c6.92139,0 16.99804,5.84327 25.89133,8.2557c8.58204,2.328 16.10867,1.22817 16.10867,1.22817v16.93549c0,0 -10.69637,0.29594 -19.72546,-2.17871c-9.49656,-2.60277 -17.50854,-7.98258 -24.3068,-7.98258c-6.18608,0 -12.28035,4.81185 -19.30236,7.10388c-8.41637,2.74716 -17.27828,3.05741 -17.27828,3.05741z" fill="#7688ff"/><path d="M320.65864,327.13752v-16.93548c0,0 4.80147,1.16686 10.593,-0.67423c8.56762,-2.7236 20.10698,-8.80964 28.0199,-8.80964c6.92139,0 16.99804,5.84328 25.89133,8.25571c8.58204,2.328 16.10867,1.22816 16.10867,1.22816v16.93549c0,0 -10.69637,0.29595 -19.72546,-2.1787c-9.49656,-2.60277 -17.50854,-7.98259 -24.3068,-7.98259c-6.18608,0 -12.28035,4.81184 -19.30236,7.10388c-8.41637,2.74716 -17.27828,3.05741 -17.27828,3.05741z" fill="#7688ff"/></g><path d="M338.65864,215.06762c4.09284,0.13052 8.01835,1.82237 12.19968,2c6.81417,0.28947 13.04443,-2.59253 19.80032,-2.66667c6.59202,-0.07234 17.44667,0.85233 24.91407,0.61994c2.02446,-0.063 4.05279,0.98817 6.09111,1.46469c6.03514,1.4109 10.35427,1.23102 11.82816,8.41537c1.30614,6.36671 -7.52909,8.14978 -9.22917,13.25c-0.91712,2.75136 -0.01022,6.03476 -1.64856,8.60929c-1.46073,2.29543 -4.75351,3.48122 -7.37487,3.68744c-3.90293,0.30703 -6.71413,-5.06408 -9.87305,-6.80763c-3.74927,-2.06939 -7.94566,-2.42604 -12.02976,-3.44706c-0.40417,-0.10104 -2.58857,-1.83885 -2.95817,-1.73737c-5.85385,1.60725 -10.87982,4.69454 -17.37516,3.07071c-2.33403,-0.58351 -6.05002,-5.88291 -8.3446,-5.45871c-8.6853,1.60568 -10.80107,6.61491 -21,5.66667c-7.62785,-0.7092 -8.67011,-8.15289 -7.15775,-14.20234c0.03209,-0.66226 0.15007,-1.30197 0.34305,-1.90824c0.7193,-9.35095 15.54679,-10.75596 21.8147,-10.55608z" fill="#a4ddff" stroke-width="0.5"/></g><g><g stroke-width="0"><path d="M83.76215,332.59888v-105h80.6129v105z" fill="#a9b4ff"/><path d="M83.76215,291.2763v-16.93548c0,0 4.80147,1.16686 10.593,-0.67424c8.56762,-2.7236 20.10698,-8.80964 28.0199,-8.80964c6.92139,0 16.99804,5.84328 25.89133,8.25571c8.58204,2.328 16.10867,1.22817 16.10867,1.22817v16.93549c0,0 -10.69637,0.29594 -19.72546,-2.17871c-9.49656,-2.60277 -17.50854,-7.98258 -24.3068,-7.98258c-6.18608,0 -12.28035,4.81185 -19.30236,7.10388c-8.41637,2.74716 -17.27828,3.05741 -17.27828,3.05741z" fill="#7688ff"/><path d="M83.76215,256.0505v-16.93548c0,0 4.80147,1.16686 10.593,-0.67424c8.56762,-2.7236 20.10698,-8.80963 28.0199,-8.80963c6.92139,0 16.99804,5.84327 25.89133,8.2557c8.58204,2.328 16.10867,1.22817 16.10867,1.22817v16.93549c0,0 -10.69637,0.29594 -19.72546,-2.17871c-9.49656,-2.60277 -17.50854,-7.98258 -24.3068,-7.98258c-6.18608,0 -12.28035,4.81185 -19.30236,7.10388c-8.41637,2.74716 -17.27828,3.05741 -17.27828,3.05741z" fill="#7688ff"/><path d="M83.76215,326.50211v-16.93548c0,0 4.80147,1.16686 10.593,-0.67423c8.56762,-2.7236 20.10698,-8.80964 28.0199,-8.80964c6.92139,0 16.99804,5.84328 25.89133,8.25571c8.58204,2.328 16.10867,1.22816 16.10867,1.22816v16.93549c0,0 -10.69637,0.29595 -19.72546,-2.1787c-9.49656,-2.60277 -17.50854,-7.98259 -24.3068,-7.98259c-6.18608,0 -12.28035,4.81184 -19.30236,7.10388c-8.41637,2.74716 -17.27828,3.05741 -17.27828,3.05741z" fill="#7688ff"/></g><path d="M101.76214,214.43221c4.09284,0.13052 8.01835,1.82237 12.19968,2c6.81417,0.28947 13.04443,-2.59253 19.80032,-2.66667c6.59202,-0.07234 17.44667,0.85233 24.91407,0.61994c2.02446,-0.063 4.05279,0.98817 6.09111,1.46469c6.03514,1.4109 10.35427,1.23102 11.82816,8.41537c1.30614,6.36671 -7.52909,8.14978 -9.22917,13.25c-0.91712,2.75136 -0.01022,6.03476 -1.64856,8.60929c-1.46073,2.29543 -4.75351,3.48122 -7.37487,3.68744c-3.90293,0.30703 -6.71413,-5.06408 -9.87305,-6.80763c-3.74927,-2.06939 -7.94566,-2.42604 -12.02976,-3.44706c-0.40417,-0.10104 -2.58857,-1.83885 -2.95817,-1.73737c-5.85385,1.60725 -10.87982,4.69454 -17.37516,3.07071c-2.33403,-0.58351 -6.05002,-5.88291 -8.3446,-5.45871c-8.6853,1.60568 -10.80107,6.61491 -21,5.66667c-7.62785,-0.7092 -8.67011,-8.15289 -7.15775,-14.20234c0.03209,-0.66226 0.15007,-1.30197 0.34305,-1.90824c0.7193,-9.35095 15.54679,-10.75596 21.8147,-10.55608z" fill="#a4ddff" stroke-width="0.5"/></g><g><g stroke-width="0"><path d="M3.5129,332.26554v-105h80.6129v105z" fill="#a9b4ff"/><path d="M3.5129,290.94296v-16.93548c0,0 4.80147,1.16686 10.593,-0.67424c8.56762,-2.7236 20.10698,-8.80964 28.0199,-8.80964c6.92139,0 16.99804,5.84328 25.89133,8.25571c8.58204,2.328 16.10867,1.22817 16.10867,1.22817v16.93549c0,0 -10.69637,0.29594 -19.72546,-2.17871c-9.49656,-2.60277 -17.50854,-7.98258 -24.3068,-7.98258c-6.18608,0 -12.28035,4.81185 -19.30236,7.10388c-8.41637,2.74716 -17.27828,3.05741 -17.27828,3.05741z" fill="#7688ff"/><path d="M3.5129,255.71716v-16.93548c0,0 4.80147,1.16686 10.593,-0.67424c8.56762,-2.7236 20.10698,-8.80963 28.0199,-8.80963c6.92139,0 16.99804,5.84327 25.89133,8.2557c8.58204,2.328 16.10867,1.22817 16.10867,1.22817v16.93549c0,0 -10.69637,0.29594 -19.72546,-2.17871c-9.49656,-2.60277 -17.50854,-7.98258 -24.3068,-7.98258c-6.18608,0 -12.28035,4.81185 -19.30236,7.10388c-8.41637,2.74716 -17.27828,3.05741 -17.27828,3.05741z" fill="#7688ff"/><path d="M3.5129,326.16877v-16.93548c0,0 4.80147,1.16686 10.593,-0.67423c8.56762,-2.7236 20.10698,-8.80964 28.0199,-8.80964c6.92139,0 16.99804,5.84328 25.89133,8.25571c8.58204,2.328 16.10867,1.22816 16.10867,1.22816v16.93549c0,0 -10.69637,0.29595 -19.72546,-2.1787c-9.49656,-2.60277 -17.50854,-7.98259 -24.3068,-7.98259c-6.18608,0 -12.28035,4.81184 -19.30236,7.10388c-8.41637,2.74716 -17.27828,3.05741 -17.27828,3.05741z" fill="#7688ff"/></g><path d="M21.51289,214.09887c4.09284,0.13052 8.01835,1.82237 12.19968,2c6.81417,0.28947 13.04443,-2.59253 19.80032,-2.66667c6.59202,-0.07234 17.44667,0.85233 24.91407,0.61994c2.02446,-0.063 4.05279,0.98817 6.09111,1.46469c6.03514,1.4109 10.35427,1.23102 11.82816,8.41537c1.30614,6.36671 -7.52909,8.14978 -9.22917,13.25c-0.91712,2.75136 -0.01022,6.03476 -1.64856,8.60929c-1.46073,2.29543 -4.75351,3.48122 -7.37487,3.68744c-3.90293,0.30703 -6.71413,-5.06408 -9.87305,-6.80763c-3.74927,-2.06939 -7.94566,-2.42604 -12.02976,-3.44706c-0.40417,-0.10104 -2.58857,-1.83885 -2.95817,-1.73737c-5.85385,1.60725 -10.87982,4.69454 -17.37516,3.07071c-2.33403,-0.58351 -6.05002,-5.88291 -8.3446,-5.45871c-8.6853,1.60568 -10.80107,6.61491 -21,5.66667c-7.62785,-0.7092 -8.67011,-8.15289 -7.15775,-14.20234c0.03209,-0.66226 0.15007,-1.30197 0.34305,-1.90824c0.7193,-9.35095 15.54679,-10.75596 21.8147,-10.55608z" fill="#a4ddff" stroke-width="0.5"/></g><g stroke-width="0"><path d="M320.39262,436.83789v-105h81.01106v105z" fill="#a9b4ff"/><path d="M320.39262,395.51531v-16.93548c0,0 4.82519,1.16686 10.64532,-0.67423c8.60994,-2.7236 20.20629,-8.80964 28.15829,-8.80964c6.95558,0 17.08201,5.84327 26.01921,8.2557c8.62443,2.328 16.18823,1.22817 16.18823,1.22817v16.93548c0,0 -10.74919,0.29594 -19.82288,-2.1787c-9.54347,-2.60277 -17.59502,-7.98259 -24.42686,-7.98259c-6.21663,0 -12.341,4.81185 -19.3977,7.10388c-8.45795,2.74717 -17.36363,3.05741 -17.36363,3.05741z" fill="#7688ff"/><path d="M320.39262,360.2895v-16.93548c0,0 4.82519,1.16686 10.64532,-0.67424c8.60994,-2.7236 20.20629,-8.80964 28.15829,-8.80964c6.95558,0 17.08201,5.84327 26.01921,8.2557c8.62443,2.328 16.18823,1.22817 16.18823,1.22817v16.93548c0,0 -10.74919,0.29594 -19.82288,-2.1787c-9.54347,-2.60277 -17.59502,-7.98259 -24.42687,-7.98259c-6.21663,0 -12.341,4.81185 -19.3977,7.10388c-8.45795,2.74717 -17.36363,3.05741 -17.36363,3.05741z" fill="#7688ff"/><path d="M320.39262,430.74112v-16.93548c0,0 4.82519,1.16686 10.64532,-0.67424c8.60994,-2.7236 20.20629,-8.80964 28.15829,-8.80964c6.95558,0 17.08201,5.84327 26.01921,8.2557c8.62443,2.328 16.18823,1.22817 16.18823,1.22817v16.93548c0,0 -10.74919,0.29594 -19.82288,-2.1787c-9.54347,-2.60277 -17.59502,-7.98259 -24.42687,-7.98259c-6.21663,0 -12.341,4.81185 -19.3977,7.10388c-8.45795,2.74717 -17.36363,3.05741 -17.36363,3.05741z" fill="#7688ff"/></g><g stroke-width="0"><path d="M398.85634,436.83789v-105h81.01106v105z" fill="#a9b4ff"/><path d="M398.85634,395.51531v-16.93548c0,0 4.82519,1.16686 10.64532,-0.67423c8.60994,-2.7236 20.20629,-8.80964 28.15829,-8.80964c6.95558,0 17.08201,5.84327 26.01921,8.2557c8.62443,2.328 16.18823,1.22817 16.18823,1.22817v16.93548c0,0 -10.74919,0.29594 -19.82288,-2.1787c-9.54347,-2.60277 -17.59502,-7.98259 -24.42686,-7.98259c-6.21663,0 -12.341,4.81185 -19.3977,7.10388c-8.45795,2.74717 -17.36363,3.05741 -17.36363,3.05741z" fill="#7688ff"/><path d="M398.85634,360.2895v-16.93548c0,0 4.82519,1.16686 10.64532,-0.67424c8.60994,-2.7236 20.20629,-8.80964 28.15829,-8.80964c6.95558,0 17.08201,5.84327 26.01921,8.2557c8.62443,2.328 16.18823,1.22817 16.18823,1.22817v16.93548c0,0 -10.74919,0.29594 -19.82288,-2.1787c-9.54347,-2.60277 -17.59502,-7.98259 -24.42687,-7.98259c-6.21663,0 -12.341,4.81185 -19.3977,7.10388c-8.45795,2.74717 -17.36363,3.05741 -17.36363,3.05741z" fill="#7688ff"/><path d="M398.85634,430.74112v-16.93548c0,0 4.82519,1.16686 10.64532,-0.67424c8.60994,-2.7236 20.20629,-8.80964 28.15829,-8.80964c6.95558,0 17.08201,5.84327 26.01921,8.2557c8.62443,2.328 16.18823,1.22817 16.18823,1.22817v16.93548c0,0 -10.74919,0.29594 -19.82288,-2.1787c-9.54347,-2.60277 -17.59502,-7.98259 -24.42687,-7.98259c-6.21663,0 -12.341,4.81185 -19.3977,7.10388c-8.45795,2.74717 -17.36363,3.05741 -17.36363,3.05741z" fill="#7688ff"/></g><g stroke-width="0"><path d="M3.02941,435.86914v-105h81.01106v105z" fill="#a9b4ff"/><path d="M3.02941,394.54656v-16.93548c0,0 4.82519,1.16686 10.64532,-0.67423c8.60994,-2.7236 20.20629,-8.80964 28.15829,-8.80964c6.95558,0 17.08201,5.84327 26.01921,8.2557c8.62443,2.328 16.18823,1.22817 16.18823,1.22817v16.93548c0,0 -10.74919,0.29594 -19.82288,-2.1787c-9.54347,-2.60277 -17.59502,-7.98259 -24.42686,-7.98259c-6.21663,0 -12.341,4.81185 -19.3977,7.10388c-8.45795,2.74717 -17.36363,3.05741 -17.36363,3.05741z" fill="#7688ff"/><path d="M3.02941,359.32075v-16.93548c0,0 4.82519,1.16686 10.64532,-0.67424c8.60994,-2.7236 20.20629,-8.80964 28.15829,-8.80964c6.95558,0 17.08201,5.84327 26.01921,8.2557c8.62443,2.328 16.18823,1.22817 16.18823,1.22817v16.93548c0,0 -10.74919,0.29594 -19.82288,-2.1787c-9.54347,-2.60277 -17.59502,-7.98259 -24.42687,-7.98259c-6.21663,0 -12.341,4.81185 -19.3977,7.10388c-8.45795,2.74717 -17.36363,3.05741 -17.36363,3.05741z" fill="#7688ff"/><path d="M3.02941,429.77237v-16.93548c0,0 4.82519,1.16686 10.64532,-0.67424c8.60994,-2.7236 20.20629,-8.80964 28.15829,-8.80964c6.95558,0 17.08201,5.84327 26.01921,8.2557c8.62443,2.328 16.18823,1.22817 16.18823,1.22817v16.93548c0,0 -10.74919,0.29594 -19.82288,-2.1787c-9.54347,-2.60277 -17.59502,-7.98259 -24.42687,-7.98259c-6.21663,0 -12.341,4.81185 -19.3977,7.10388c-8.45795,2.74717 -17.36363,3.05741 -17.36363,3.05741z" fill="#7688ff"/></g><g stroke-width="0"><path d="M81.49313,435.86914v-105h84.13586v105z" fill="#a9b4ff"/><path d="M81.49313,394.54656v-16.93548c0,0 5.01131,1.16686 11.05594,-0.67423c8.94205,-2.7236 20.9857,-8.80964 29.24443,-8.80964c7.22387,0 17.74091,5.84327 27.02284,8.2557c8.9571,2.328 16.81265,1.22817 16.81265,1.22817v16.93548c0,0 -11.16381,0.29594 -20.5875,-2.1787c-9.91159,-2.60277 -18.2737,-7.98259 -25.36907,-7.98259c-6.45642,0 -12.81702,4.81185 -20.14592,7.10388c-8.78419,2.74717 -18.03339,3.05741 -18.03339,3.05741z" fill="#7688ff"/><path d="M81.49313,359.32075v-16.93548c0,0 5.01131,1.16686 11.05594,-0.67424c8.94205,-2.7236 20.9857,-8.80964 29.24443,-8.80964c7.22387,0 17.74091,5.84327 27.02284,8.2557c8.9571,2.328 16.81265,1.22817 16.81265,1.22817v16.93548c0,0 -11.16381,0.29594 -20.5875,-2.1787c-9.91159,-2.60277 -18.2737,-7.98259 -25.36908,-7.98259c-6.45642,0 -12.81702,4.81185 -20.14592,7.10388c-8.78419,2.74717 -18.03339,3.05741 -18.03339,3.05741z" fill="#7688ff"/><path d="M81.49313,429.77237v-16.93548c0,0 5.01131,1.16686 11.05594,-0.67424c8.94205,-2.7236 20.9857,-8.80964 29.24443,-8.80964c7.22387,0 17.74091,5.84327 27.02284,8.2557c8.9571,2.328 16.81265,1.22817 16.81265,1.22817v16.93548c0,0 -11.16381,0.29594 -20.5875,-2.1787c-9.91159,-2.60277 -18.2737,-7.98259 -25.36908,-7.98259c-6.45642,0 -12.81702,4.81185 -20.14592,7.10388c-8.78419,2.74717 -18.03339,3.05741 -18.03339,3.05741z" fill="#7688ff"/></g></g></g></svg>