<svg version="1.1" xmlns="http://www.w3.org/2000/svg" xmlns:xlink="http://www.w3.org/1999/xlink" width="479.96066" height="132.25204" viewBox="0,0,479.96066,132.25204"><g transform="translate(-1.01185,-229.52671)"><g data-paper-data="{&quot;isPaintingLayer&quot;:true}" fill-rule="nonzero" stroke="none" stroke-width="0" stroke-linecap="butt" stroke-linejoin="miter" stroke-miterlimit="10" stroke-dasharray="" stroke-dashoffset="0" style="mix-blend-mode: normal"><g><path d="M1.70207,361.74964v-131.14015h96.62958v131.14015z" fill="#598bff"/><path d="M1.07867,290.33087v-49.69521h97.31979v49.69521l-23.97981,-21.71272l-25.43184,15.55267l-19.82256,-21.44839z" fill="#365399"/><path d="M1.01185,280.3047v-49.69522h97.31979v49.69522l-23.97981,-21.71272l-25.43185,15.55267l-19.82256,-21.44839z" fill="#58fab7"/></g><g><path d="M97.35286,361.77875v-131.14015h96.62958v131.14015z" fill="#598bff"/><path d="M96.72946,290.35998v-49.69521h97.31979v49.69521l-23.97981,-21.71272l-25.43184,15.55267l-19.82256,-21.44839z" fill="#365399"/><path d="M96.66264,280.33381v-49.69522h97.31979v49.69522l-23.97981,-21.71272l-25.43185,15.55267l-19.82256,-21.44839z" fill="#58fab7"/></g><g><path d="M192.97454,360.66687v-131.14015h96.62958v131.14015z" fill="#598bff"/><path d="M192.35114,289.2481v-49.69521h97.31979v49.69521l-23.97981,-21.71272l-25.43184,15.55267l-19.82256,-21.44839z" fill="#365399"/><path d="M192.28432,279.22193v-49.69522h97.31979v49.69522l-23.97981,-21.71272l-25.43185,15.55267l-19.82256,-21.44839z" fill="#58fab7"/></g><g><path d="M288.62533,360.69598v-131.14015h96.62958v131.14015z" fill="#598bff"/><path d="M288.00193,289.27721v-49.69521h97.31979v49.69521l-23.97981,-21.71272l-25.43184,15.55267l-19.82256,-21.44839z" fill="#365399"/><path d="M287.93511,279.25104v-49.69522h97.31979v49.69522l-23.97981,-21.71272l-25.43185,15.55267l-19.82256,-21.44839z" fill="#58fab7"/></g><g><path d="M384.27612,360.72509v-131.14015h96.62958v131.14015z" fill="#598bff"/><path d="M383.65272,289.30632v-49.69521h97.31979v49.69521l-23.97981,-21.71272l-25.43184,15.55267l-19.82256,-21.44839z" fill="#365399"/><path d="M383.58591,279.28015v-49.69522h97.31979v49.69522l-23.97981,-21.71272l-25.43185,15.55267l-19.82256,-21.44839z" fill="#58fab7"/></g></g></g></svg>