<svg version="1.1" xmlns="http://www.w3.org/2000/svg" xmlns:xlink="http://www.w3.org/1999/xlink" width="483.24192" height="108.1375" viewBox="0,0,483.24192,108.1375"><g transform="translate(0.46442,-252.62723)"><g data-paper-data="{&quot;isPaintingLayer&quot;:true}" fill-rule="nonzero" stroke="none" stroke-width="0" stroke-linecap="butt" stroke-linejoin="miter" stroke-miterlimit="10" stroke-dasharray="" stroke-dashoffset="0" style="mix-blend-mode: normal"><g><path d="M0.2448,311.13853v-53.54671h7.09228v53.54671z" fill="#8aa2c6"/><path d="M45.98999,310.78392v-54.61055h7.09228v54.61055z" fill="#8aa2c6"/><path d="M45.6686,307.85332l-43.37974,-43.37974l5.015,-5.015l43.37974,43.37974z" fill="#8aa2c6"/><path d="M50.6836,264.47358l-43.37974,43.37974l-5.01499,-5.015l43.37974,-43.37974z" fill="#8aa2c6"/><path d="M54.14613,259.71951h-54.61055v-7.09228h54.61055z" fill="#c65757"/><path d="M0.95403,303.33702h52.12825v7.80151h-52.12825z" fill="#8aa2c6"/></g><g fill="#8aa2c6"><path d="M0.6117,360.26473v-53.54671h7.09228v53.54671z"/><path d="M46.3569,359.91012v-54.61056h7.09228v54.61056z"/><path d="M46.0355,356.97952l-43.37974,-43.37974l5.015,-5.015l43.37974,43.37974z"/><path d="M51.0505,313.59978l-43.37975,43.37974l-5.01499,-5.015l43.37974,-43.37974z"/><path d="M1.32093,352.46322h52.12825v7.80151h-52.12825z"/><path d="M0.6117,303.88111h52.83748v7.80151h-52.83748z"/></g><g><path d="M47.87617,311.22947v-53.54671h7.09228v53.54671z" fill="#8aa2c6"/><path d="M93.62137,310.87486v-54.61055h7.09228v54.61055z" fill="#8aa2c6"/><path d="M93.29996,307.94426l-43.37974,-43.37974l5.015,-5.015l43.37974,43.37974z" fill="#8aa2c6"/><path d="M98.31497,264.56452l-43.37974,43.37974l-5.01499,-5.015l43.37974,-43.37974z" fill="#8aa2c6"/><path d="M101.77749,259.81045h-54.61055v-7.09228h54.61055z" fill="#c65757"/><path d="M48.5854,303.42796h52.12825v7.80151h-52.12825z" fill="#8aa2c6"/></g><g fill="#8aa2c6"><path d="M47.72632,360.09729v-53.54671h7.09228v53.54671z"/><path d="M93.47153,359.74268v-54.61056h7.09228v54.61056z"/><path d="M93.15012,356.81208l-43.37974,-43.37974l5.015,-5.015l43.37974,43.37974z"/><path d="M98.16512,313.43234l-43.37975,43.37974l-5.01499,-5.015l43.37974,-43.37974z"/><path d="M48.43555,352.29578h52.12825v7.80151h-52.12825z"/><path d="M47.72632,303.71367h52.83748v7.80151h-52.83748z"/></g><g><path d="M96.2448,311.13853v-53.54671h7.09228v53.54671z" fill="#8aa2c6"/><path d="M141.99,310.78392v-54.61055h7.09228v54.61055z" fill="#8aa2c6"/><path d="M141.66859,307.85332l-43.37974,-43.37974l5.015,-5.015l43.37974,43.37974z" fill="#8aa2c6"/><path d="M146.6836,264.47358l-43.37974,43.37974l-5.01499,-5.015l43.37974,-43.37974z" fill="#8aa2c6"/><path d="M150.14612,259.71951h-54.61055v-7.09228h54.61055z" fill="#c65757"/><path d="M96.95403,303.33702h52.12825v7.80151h-52.12825z" fill="#8aa2c6"/></g><g fill="#8aa2c6"><path d="M96.6117,360.26473v-53.54671h7.09228v53.54671z"/><path d="M142.3569,359.91012v-54.61056h7.09228v54.61056z"/><path d="M142.0355,356.97952l-43.37974,-43.37974l5.015,-5.015l43.37974,43.37974z"/><path d="M147.0505,313.59978l-43.37975,43.37974l-5.01499,-5.015l43.37974,-43.37974z"/><path d="M97.32093,352.46322h52.12825v7.80151h-52.12825z"/><path d="M96.6117,303.88111h52.83748v7.80151h-52.83748z"/></g><g><path d="M143.87617,311.22947v-53.54671h7.09228v53.54671z" fill="#8aa2c6"/><path d="M189.62137,310.87486v-54.61055h7.09228v54.61055z" fill="#8aa2c6"/><path d="M189.29997,307.94426l-43.37974,-43.37974l5.015,-5.015l43.37974,43.37974z" fill="#8aa2c6"/><path d="M194.31497,264.56451l-43.37974,43.37974l-5.01499,-5.015l43.37974,-43.37974z" fill="#8aa2c6"/><path d="M197.7775,259.81045h-54.61055v-7.09228h54.61055z" fill="#c65757"/><path d="M144.5854,303.42796h52.12825v7.80151h-52.12825z" fill="#8aa2c6"/></g><g fill="#8aa2c6"><path d="M143.72632,360.09729v-53.54671h7.09228v53.54671z"/><path d="M189.47153,359.74268v-54.61056h7.09228v54.61056z"/><path d="M189.15013,356.81208l-43.37974,-43.37974l5.015,-5.015l43.37974,43.37974z"/><path d="M194.16513,313.43234l-43.37975,43.37974l-5.01499,-5.015l43.37974,-43.37974z"/><path d="M144.43556,352.29578h52.12825v7.80151h-52.12825z"/><path d="M143.72632,303.71367h52.83748v7.80151h-52.83748z"/></g><g><path d="M190.2448,311.63853v-53.54671h7.09228v53.54671z" fill="#8aa2c6"/><path d="M235.99,311.28392v-54.61055h7.09228v54.61055z" fill="#8aa2c6"/><path d="M235.6686,308.35332l-43.37974,-43.37974l5.015,-5.015l43.37974,43.37974z" fill="#8aa2c6"/><path d="M240.68359,264.97358l-43.37974,43.37974l-5.01499,-5.015l43.37974,-43.37974z" fill="#8aa2c6"/><path d="M244.14613,260.21951h-54.61055v-7.09228h54.61055z" fill="#c65757"/><path d="M190.95403,303.83702h52.12825v7.80151h-52.12825z" fill="#8aa2c6"/></g><g fill="#8aa2c6"><path d="M190.6117,360.76473v-53.54671h7.09228v53.54671z"/><path d="M236.3569,360.41012v-54.61056h7.09228v54.61056z"/><path d="M236.0355,357.47952l-43.37974,-43.37974l5.015,-5.015l43.37974,43.37974z"/><path d="M241.0505,314.09978l-43.37975,43.37974l-5.01499,-5.015l43.37974,-43.37974z"/><path d="M191.32093,352.96322h52.12825v7.80151h-52.12825z"/><path d="M190.6117,304.38111h52.83748v7.80151h-52.83748z"/></g><g><path d="M237.87617,311.72947v-53.54671h7.09228v53.54671z" fill="#8aa2c6"/><path d="M283.62136,311.37486v-54.61055h7.09228v54.61055z" fill="#8aa2c6"/><path d="M283.29997,308.44426l-43.37974,-43.37974l5.015,-5.015l43.37974,43.37974z" fill="#8aa2c6"/><path d="M288.31497,265.06451l-43.37974,43.37974l-5.01499,-5.015l43.37974,-43.37974z" fill="#8aa2c6"/><path d="M291.7775,260.31045h-54.61055v-7.09228h54.61055z" fill="#c65757"/><path d="M238.5854,303.92796h52.12825v7.80151h-52.12825z" fill="#8aa2c6"/></g><g fill="#8aa2c6"><path d="M237.72632,360.59729v-53.54671h7.09228v53.54671z"/><path d="M283.47153,360.24268v-54.61056h7.09228v54.61056z"/><path d="M283.15013,357.31208l-43.37974,-43.37974l5.015,-5.015l43.37974,43.37974z"/><path d="M288.16513,313.93234l-43.37975,43.37974l-5.01499,-5.015l43.37974,-43.37974z"/><path d="M238.43556,352.79578h52.12825v7.80151h-52.12825z"/><path d="M237.72632,304.21367h52.83748v7.80151h-52.83748z"/></g><g><path d="M286.2448,311.63853v-53.54671h7.09228v53.54671z" fill="#8aa2c6"/><path d="M331.99,311.28392v-54.61055h7.09228v54.61055z" fill="#8aa2c6"/><path d="M331.6686,308.35332l-43.37974,-43.37974l5.015,-5.015l43.37974,43.37974z" fill="#8aa2c6"/><path d="M336.6836,264.97358l-43.37974,43.37974l-5.01499,-5.015l43.37974,-43.37974z" fill="#8aa2c6"/><path d="M340.14613,260.21951h-54.61055v-7.09228h54.61055z" fill="#c65757"/><path d="M286.95403,303.83702h52.12825v7.80151h-52.12825z" fill="#8aa2c6"/></g><g fill="#8aa2c6"><path d="M286.6117,360.76473v-53.54671h7.09228v53.54671z"/><path d="M332.3569,360.41012v-54.61056h7.09228v54.61056z"/><path d="M332.0355,357.47952l-43.37974,-43.37974l5.015,-5.015l43.37974,43.37974z"/><path d="M337.0505,314.09978l-43.37975,43.37974l-5.01499,-5.015l43.37974,-43.37974z"/><path d="M287.32093,352.96322h52.12825v7.80151h-52.12825z"/><path d="M286.6117,304.38111h52.83748v7.80151h-52.83748z"/></g><g><path d="M333.87617,311.72947v-53.54671h7.09228v53.54671z" fill="#8aa2c6"/><path d="M379.62137,311.37486v-54.61055h7.09228v54.61055z" fill="#8aa2c6"/><path d="M379.29997,308.44426l-43.37974,-43.37974l5.015,-5.015l43.37974,43.37974z" fill="#8aa2c6"/><path d="M384.31497,265.06451l-43.37974,43.37974l-5.01499,-5.015l43.37974,-43.37974z" fill="#8aa2c6"/><path d="M387.7775,260.31045h-54.61055v-7.09228h54.61055z" fill="#c65757"/><path d="M334.5854,303.92796h52.12825v7.80151h-52.12825z" fill="#8aa2c6"/></g><g fill="#8aa2c6"><path d="M333.72632,360.59729v-53.54671h7.09228v53.54671z"/><path d="M379.47153,360.24268v-54.61056h7.09228v54.61056z"/><path d="M379.15013,357.31208l-43.37974,-43.37974l5.015,-5.015l43.37974,43.37974z"/><path d="M384.16513,313.93234l-43.37975,43.37974l-5.01499,-5.015l43.37974,-43.37974z"/><path d="M334.43556,352.79578h52.12825v7.80151h-52.12825z"/><path d="M333.72632,304.21367h52.83748v7.80151h-52.83748z"/></g><g><path d="M381.2448,311.63853v-53.54671h7.09228v53.54671z" fill="#8aa2c6"/><path d="M426.99,311.28392v-54.61055h7.09228v54.61055z" fill="#8aa2c6"/><path d="M426.6686,308.35332l-43.37974,-43.37974l5.015,-5.015l43.37974,43.37974z" fill="#8aa2c6"/><path d="M431.6836,264.97358l-43.37974,43.37974l-5.01499,-5.015l43.37974,-43.37974z" fill="#8aa2c6"/><path d="M435.14613,260.21951h-54.61055v-7.09228h54.61055z" fill="#c65757"/><path d="M381.95403,303.83702h52.12825v7.80151h-52.12825z" fill="#8aa2c6"/></g><g fill="#8aa2c6"><path d="M381.6117,360.76473v-53.54671h7.09228v53.54671z"/><path d="M427.3569,360.41012v-54.61056h7.09228v54.61056z"/><path d="M427.0355,357.47952l-43.37974,-43.37974l5.015,-5.015l43.37974,43.37974z"/><path d="M432.0505,314.09978l-43.37975,43.37974l-5.01499,-5.015l43.37974,-43.37974z"/><path d="M382.32093,352.96322h52.12825v7.80151h-52.12825z"/><path d="M381.6117,304.38111h52.83748v7.80151h-52.83748z"/></g><g><path d="M428.87617,311.72947v-53.54671h7.09228v53.54671z" fill="#8aa2c6"/><path d="M474.62137,311.37486v-54.61055h7.09228v54.61055z" fill="#8aa2c6"/><path d="M474.29997,308.44426l-43.37974,-43.37974l5.015,-5.015l43.37974,43.37974z" fill="#8aa2c6"/><path d="M479.31497,265.06451l-43.37974,43.37974l-5.01499,-5.015l43.37974,-43.37974z" fill="#8aa2c6"/><path d="M482.7775,260.31045h-54.61055v-7.09228h54.61055z" fill="#c65757"/><path d="M429.5854,303.92796h52.12825v7.80151h-52.12825z" fill="#8aa2c6"/></g><g fill="#8aa2c6"><path d="M428.72633,360.59729v-53.54671h7.09228v53.54671z"/><path d="M474.47153,360.24268v-54.61056h7.09228v54.61056z"/><path d="M474.15013,357.31208l-43.37974,-43.37974l5.015,-5.015l43.37974,43.37974z"/><path d="M479.16513,313.93234l-43.37975,43.37974l-5.01499,-5.015l43.37974,-43.37974z"/><path d="M429.43556,352.79578h52.12825v7.80151h-52.12825z"/><path d="M428.72633,304.21367h52.83748v7.80151h-52.83748z"/></g></g></g></svg>