<svg version="1.1" xmlns="http://www.w3.org/2000/svg" xmlns:xlink="http://www.w3.org/1999/xlink" width="42.19958" height="39.78189" viewBox="0,0,42.19958,39.78189"><g transform="translate(-219.89826,-160.10936)"><g data-paper-data="{&quot;isPaintingLayer&quot;:true}" fill-rule="nonzero" stroke-linecap="butt" stroke-linejoin="miter" stroke-miterlimit="10" stroke-dasharray="" stroke-dashoffset="0" style="mix-blend-mode: normal"><path d="M260.93457,193.97387c0,0 -0.17011,2.71806 -0.9156,3.40234c-0.92946,0.85316 -4.23199,1.32263 -4.23199,1.32263l-30.86187,0.19177c0,0 -3.3127,-0.67976 -4.16679,-2.11956c-0.72404,-1.22057 -0.63235,-4.67682 -0.63235,-4.67682l0.46228,-24.81273c0,0 0.03739,-4.11217 0.80276,-5.07888c0.85381,-1.07843 4.08386,-1.09325 4.08386,-1.09325l28.03787,0.20914c0,0 4.72486,-0.11042 5.97199,0.98501c1.22646,1.07728 1.44983,5.53401 1.44983,5.53401v26.13635z" data-paper-data="{&quot;index&quot;:null}" fill="#ff0062" stroke="#b60046" stroke-width="2"/><path d="M251.45116,185.95183v-12.93879l3.29857,-3.36408v16.30287z" data-paper-data="{&quot;index&quot;:null}" fill="#000000" stroke="none" stroke-width="0"/><path d="M245.67864,185.95184v-16.30287l3.29858,3.36408v12.93879z" data-paper-data="{&quot;index&quot;:null}" fill="#000000" stroke="none" stroke-width="0"/></g></g></svg>