<svg version="1.1" xmlns="http://www.w3.org/2000/svg" xmlns:xlink="http://www.w3.org/1999/xlink" width="51.25" height="29.75" viewBox="0,0,51.25,29.75"><g transform="translate(-214.375,-165.125)"><g data-paper-data="{&quot;isPaintingLayer&quot;:true}" fill="#ffca00" fill-rule="nonzero" stroke="none" stroke-width="0" stroke-linecap="butt" stroke-linejoin="miter" stroke-miterlimit="10" stroke-dasharray="" stroke-dashoffset="0" style="mix-blend-mode: normal"><g><path d="M214.375,180c0,-8.21524 6.65976,-14.875 14.875,-14.875c8.21524,0 14.875,6.65976 14.875,14.875c0,8.21524 -6.65976,14.875 -14.875,14.875c-8.21524,0 -14.875,-6.65976 -14.875,-14.875zM228.625,184c2.76142,0 5,-2.23858 5,-5c0,-2.76142 -2.23858,-5 -5,-5c-2.76142,0 -5,2.23858 -5,5c0,2.76142 2.23858,5 5,5z"/><path d="M236.875,183.5v-9.75h28.75v9.75z"/><path d="M261.26453,187v-10.25h4.36047v10.25z"/><path d="M253.1657,187v-10.25h4.86047v10.25z"/></g></g></g></svg>