<svg version="1.1" xmlns="http://www.w3.org/2000/svg" xmlns:xlink="http://www.w3.org/1999/xlink" width="56.37304" height="56.74229" viewBox="0,0,56.37304,56.74229"><g transform="translate(-206.3473,-145.97805)"><g data-paper-data="{&quot;isPaintingLayer&quot;:true}" fill-rule="nonzero" stroke-linejoin="miter" stroke-miterlimit="10" stroke-dasharray="" stroke-dashoffset="0" style="mix-blend-mode: normal"><path d="M222.65795,161.50084l-2.79949,-8.39744l-4.54662,4.04738l-4.40393,-2.50632l4.16452,-4.94522l1.21206,2.68982l4.05524,-2.71365l4.76089,10.12135z" fill="#4a3423" stroke="none" stroke-width="0" stroke-linecap="butt"/><path d="M225.34241,170.87034l-6.06892,-7.39624c0,0 1.6843,-3.44855 3.26576,-4.33738c1.54262,-0.86701 6.10934,-0.93178 6.10934,-0.93178l3.13574,9.88155z" fill="#595959" stroke="#000000" stroke-width="2" stroke-linecap="butt"/><path d="M206.3473,154.03324l3.29218,-2.93023l-1.13739,-3.13059l2.84195,0.5924l3.62245,-2.58677l0.33718,4.43743l2.59656,2.58665l-2.86482,0.4091l-1.15683,4.85612l-3.31033,-3.90634z" fill="#ff6f00" stroke="none" stroke-width="0" stroke-linecap="butt"/><path d="M210.90033,153.91565l0.30627,-1.73645l-1.13367,-0.70036l1.03893,-0.51917l0.49514,-1.7106l1.20676,1.30905l1.45669,0.16762l-0.79763,0.83916l0.84173,1.81112l-2.00812,-0.40473z" fill="#ffac6d" stroke="none" stroke-width="0" stroke-linecap="butt"/><path d="M218.27966,180c0,-11.99581 9.72453,-21.72034 21.72034,-21.72034c11.99581,0 21.72034,9.72453 21.72034,21.72034c0,11.99581 -9.72453,21.72034 -21.72034,21.72034c-11.99581,0 -21.72034,-9.72453 -21.72034,-21.72034z" fill="#595959" stroke="#000000" stroke-width="2" stroke-linecap="butt"/><path d="M243.93357,191.83249c-0.40454,0.23287 -0.82151,0.44671 -1.25225,0.63882l-2.24377,1.9633c-0.32464,0.28707 -0.75139,0.46131 -1.21882,0.46131c-1.01659,0 -1.84071,-0.82411 -1.84071,-1.84071c0,-0.54607 0.23779,-1.03661 0.61547,-1.37371l0.95501,-0.85951c-0.28382,-0.12065 -0.56728,-0.34324 -0.81956,-0.72167c-0.08638,-0.12957 -0.15449,-0.25548 -0.2068,-0.37744c-0.64405,-0.09315 -1.18018,-0.51976 -1.42768,-1.09912c-0.303,0.27892 -0.61621,0.51179 -0.93767,0.67537c-0.01879,0.00956 -0.03763,0.01902 -0.05651,0.02836l0.00887,0.01108l-1.46112,1.16889c-0.31678,0.2579 -0.721,0.41252 -1.16133,0.41252c-1.01659,0 -1.84071,-0.82411 -1.84071,-1.84071c0,-0.36165 0.1043,-0.69894 0.28445,-0.98343l1.00314,-1.64531l0.01645,0.01003l0.00844,-0.04971c0.09477,-0.13905 0.18916,-0.27991 0.28327,-0.42237c-0.26411,-0.25399 -0.45256,-0.58608 -0.52821,-0.95912c-0.99957,-0.01964 -1.80383,-0.83607 -1.80383,-1.84034c0,-0.01235 0.00012,-0.02467 0.00036,-0.03697l-0.94785,0.39494c-0.22802,0.1012 -0.48042,0.15742 -0.74596,0.15742c-1.01659,0 -1.84071,-0.82411 -1.84071,-1.84071c0,-0.41445 0.13698,-0.79692 0.36813,-1.10458l0.49245,-0.67153c-0.26168,-0.31791 -0.41881,-0.72512 -0.41881,-1.16902c0,-0.24583 0.04819,-0.48041 0.13564,-0.6948l1.163,-3.05287l0.03297,0.01256l0.00926,-0.11418c1.17568,-2.24098 2.44572,-4.43525 3.80892,-6.56736c0,0 0.99224,-1.55037 2.54261,-0.55813c0.02313,0.01481 0.0457,0.02974 0.06772,0.04478c0.4254,-0.7528 0.83035,-1.51387 1.21388,-2.27753l0.16365,-0.10783l-0.0562,-0.04416l1.60853,-2.04723c0.33657,-0.43658 0.86478,-0.71784 1.45867,-0.71784c1.01659,0 1.84071,0.82411 1.84071,1.84071c0,0.23877 -0.04546,0.46693 -0.12821,0.67628l-1.01608,2.75794l-0.0436,-0.01606c-0.02699,0.10073 -0.05682,0.20092 -0.08976,0.3005c-0.03952,0.11949 -0.811,1.04641 -1.70372,2.10121c0.03635,-0.00214 0.07298,-0.00322 0.10986,-0.00322c0.62429,0 1.176,0.31079 1.50883,0.7861l0.24539,-0.32719c0.33495,-0.45682 0.87555,-0.75342 1.48542,-0.75342c0.89166,0 1.63523,0.63399 1.80454,1.47579c0.03633,-0.00214 0.07294,-0.00322 0.1098,-0.00322c0.21926,0 0.42956,0.03834 0.62458,0.10867l0.22277,-0.24302c0.33668,-0.36982 0.82198,-0.60193 1.3615,-0.60193c1.01659,0 1.84071,0.82411 1.84071,1.84071c0,0.04174 -0.00139,0.08316 -0.00412,0.1242l-0.02041,0.34693c0.11556,-0.1618 0.23194,-0.32343 0.3493,-0.48481l1.14659,-1.71988c0.32775,-0.50748 0.89834,-0.84342 1.5474,-0.84342c1.01659,0 1.84071,0.82411 1.84071,1.84071c0,0.23606 -0.04444,0.46174 -0.1254,0.66913l-0.63741,1.75286c1.66992,-1.16417 3.6882,-1.79199 5.11972,0.85113c0.54399,1.00441 -0.16826,2.39283 -1.24819,3.7328c0.06716,-0.00743 0.13541,-0.01124 0.20455,-0.01124c1.01659,0 1.84071,0.82411 1.84071,1.84071c0,0.35723 -0.10176,0.69069 -0.27788,0.97298l-1.30974,2.18291l-0.01808,-0.01085c-0.01364,0.03485 -0.02759,0.06961 -0.04187,0.10427c-0.35188,0.85412 -0.9028,1.5929 -1.51358,2.29708c0.48598,0.33134 0.80505,0.88937 0.80505,1.52193c0,0.38679 -0.1193,0.74571 -0.32311,1.04198l-1.16409,1.74614l-0.05098,-0.03399c-0.03683,0.08394 -0.07575,0.16709 -0.11699,0.24939c-0.12561,0.25072 -3.53556,2.83617 -3.75824,3.00707l-1.45075,1.1606c-0.31678,0.2579 -0.721,0.41252 -1.16133,0.41252c-1.01659,0 -1.84071,-0.82411 -1.84071,-1.84071c0,-0.15095 0.01817,-0.29766 0.05245,-0.43806l0.13422,-0.604c-0.4412,0.33591 -0.89436,0.72044 -1.13221,0.40443c-0.13145,-0.17465 -0.30961,-0.61681 -0.45076,-1.17411zM246.65532,190.1336c-0.002,0.00386 -0.00201,0.00731 0.00016,0.01034c-0.00006,-0.00344 -0.00011,-0.00689 -0.00016,-0.01034z" fill="#ff0000" stroke="none" stroke-width="0.5" stroke-linecap="butt"/><path d="M241.42864,174.97801l0.44177,6.62654" fill="none" stroke="#000000" stroke-width="2" stroke-linecap="round"/><path d="M246.13978,182.15823l-0.58903,-6.33203" fill="none" stroke="#000000" stroke-width="2" stroke-linecap="round"/><path d="M245.40349,173.02832l-1.91433,2.65062l-2.65062,-3.3869" fill="none" stroke="#000000" stroke-width="2" stroke-linecap="round"/><path d="M235.59185,186.93882c0,0 6.38337,-2.3452 8.5716,-1.43114c1.64996,0.68923 3.40497,6.434 3.40497,6.434" data-paper-data="{&quot;index&quot;:null}" fill="none" stroke="#000000" stroke-width="2" stroke-linecap="round"/></g></g></svg>