<svg version="1.1" xmlns="http://www.w3.org/2000/svg" xmlns:xlink="http://www.w3.org/1999/xlink" width="464.60734" height="320.74395" viewBox="0,0,464.60734,320.74395"><g transform="translate(-15.9144,-13.75189)"><g data-paper-data="{&quot;isPaintingLayer&quot;:true}" fill-rule="nonzero" stroke-linejoin="miter" stroke-miterlimit="10" stroke-dasharray="" stroke-dashoffset="0" style="mix-blend-mode: normal"><path d="M16.91866,266.75058c-0.41452,-37.27691 29.46836,-67.83186 66.74527,-68.24638c37.27691,-0.41452 67.83186,29.46836 68.24638,66.74527c0.41452,37.27691 -29.46836,67.83186 -66.74527,68.24638c-37.27691,0.41452 -67.83186,-29.46836 -68.24638,-66.74527z" data-paper-data="{&quot;index&quot;:null}" fill="#0068ff" stroke="#0010c7" stroke-width="2" stroke-linecap="butt"/><path d="M455.90134,110.8205l21.59879,15.33019l-44.61831,1.21092l-0.85957,15.77133l-33.17581,-10.59678l-17.71615,19.34397l-25.03155,-18.825l-29.06925,18.69339l-12.84937,-22.38546l-41.39199,0.64688l11.68109,-27.0272l-44.39345,-19.12636l34.17229,-12.42183l-5.99991,-23.60066l33.015,1.94136l7.69101,-24.0755l38.61423,21.03384l14.93193,-12.07595l39.63319,14.74459l49.14576,-32.84826l-21.46695,46.5711l36.61674,-3.9471l-13.39372,25.90301l16.95256,10.86723z" data-paper-data="{&quot;index&quot;:null}" fill="#ffffff" stroke="#494949" stroke-width="2" stroke-linecap="butt"/><path d="M139.76048,213.52849l-31,9l-54,-39" fill="none" stroke="#000000" stroke-width="2" stroke-linecap="round"/><text transform="translate(318.05834,65.08008) scale(0.27143,0.27143)" font-size="40" xml:space="preserve" fill="#494949" fill-rule="nonzero" stroke="none" stroke-width="1" stroke-linecap="butt" stroke-linejoin="miter" stroke-miterlimit="10" stroke-dasharray="" stroke-dashoffset="0" font-family="Pixel" font-weight="normal" text-anchor="start" style="mix-blend-mode: normal"><tspan x="0" dy="0">WELCOME ABOARD</tspan><tspan x="0" dy="46.150000000000006px">THE PLANETARY</tspan><tspan x="0" dy="46.150000000000006px">DESTRUCTOR! WE</tspan><tspan x="0" dy="46.150000000000006px">HOPE YOU ENJOY</tspan><tspan x="0" dy="46.150000000000006px">YOUR STAY, OR </tspan><tspan x="0" dy="46.150000000000006px">DIE TRYING!</tspan></text><path d="M106.46244,240.64199c0,13.07074 -2.01472,23.66667 -4.5,23.66667c-2.48528,0 -4.5,-10.59593 -4.5,-23.66667c0,-13.07074 2.01472,-23.66667 4.5,-23.66667c2.48528,0 4.5,10.59593 4.5,23.66667z" fill="#000000" stroke="none" stroke-width="0" stroke-linecap="butt"/><path d="M124.46244,241.64199c0,12.88664 -1.567,23.33333 -3.5,23.33333c-1.933,0 -3.5,-10.44669 -3.5,-23.33333c0,-12.88664 1.567,-23.33333 3.5,-23.33333c1.933,0 3.5,10.44669 3.5,23.33333z" fill="#000000" stroke="none" stroke-width="0" stroke-linecap="butt"/><path d="M70.46244,311.30865c0,0 18.20211,-1.13298 25.43243,0.07207c5.77145,0.96191 14.56757,6.59459 14.56757,6.59459" fill="none" stroke="#000000" stroke-width="2" stroke-linecap="round"/></g></g></svg>