<svg version="1.1" xmlns="http://www.w3.org/2000/svg" xmlns:xlink="http://www.w3.org/1999/xlink" width="127.70401" height="61.20231" viewBox="0,0,127.70401,61.20231"><g transform="translate(-110.94265,-72.56174)"><g data-paper-data="{&quot;isPaintingLayer&quot;:true}" fill="#ffffff" fill-rule="nonzero" stroke="#00c1ff" stroke-width="2" stroke-linecap="butt" stroke-linejoin="miter" stroke-miterlimit="10" stroke-dasharray="" stroke-dashoffset="0" style="mix-blend-mode: normal"><path d="M237.64666,101.44162c0,4.88841 -14.65983,15.00115 -14.65983,15.00115c0,0 -0.19835,4.69805 0.91736,6.86836c1.52828,2.97283 7.41051,9.33115 7.41051,9.33115c0,0 -13.32653,-0.66912 -18.29364,-1.76737c-4.42128,-0.97757 -10.06258,-4.50232 -10.06258,-4.50232c0,0 -18.0382,2.9489 -28.16384,2.9489c-34.7122,0 -62.852,-12.48225 -62.852,-27.87988c0,-15.39763 28.1398,-27.87987 62.852,-27.87987c34.7122,0 62.85201,12.48225 62.85201,27.87988z"/></g></g></svg>