<svg version="1.1" xmlns="http://www.w3.org/2000/svg" xmlns:xlink="http://www.w3.org/1999/xlink" width="442.61055" height="332.37912" viewBox="0,0,442.61055,332.37912"><g transform="translate(-50.19472,-126.27219)"><g data-paper-data="{&quot;isPaintingLayer&quot;:true}" fill-rule="nonzero" stroke="none" stroke-width="0" stroke-linecap="butt" stroke-linejoin="miter" stroke-miterlimit="10" stroke-dasharray="" stroke-dashoffset="0" style="mix-blend-mode: normal"><g><path d="M50.90395,184.78349v-53.54671h7.09228v53.54671z" fill="#8aa2c6"/><path d="M96.64914,184.42888v-54.61055h7.09228v54.61055z" fill="#8aa2c6"/><path d="M96.32775,181.49828l-43.37974,-43.37974l5.015,-5.015l43.37974,43.37974z" fill="#8aa2c6"/><path d="M101.34274,138.11853l-43.37974,43.37974l-5.01499,-5.015l43.37974,-43.37974z" fill="#8aa2c6"/><path d="M104.80528,133.36447h-54.61055v-7.09228h54.61055z" fill="#c65757"/><path d="M51.61318,176.98198h52.12825v7.80151h-52.12825z" fill="#8aa2c6"/></g><g fill="#8aa2c6"><path d="M50.7541,233.65131v-53.54671h7.09228v53.54671z"/><path d="M96.49931,233.2967v-54.61056h7.09228v54.61056z"/><path d="M96.17791,230.3661l-43.37974,-43.37974l5.015,-5.015l43.37974,43.37974z"/><path d="M101.19291,186.98636l-43.37975,43.37974l-5.01499,-5.015l43.37974,-43.37974z"/><path d="M51.46333,225.8498h52.12825v7.80151h-52.12825z"/><path d="M50.7541,177.26769h52.83748v7.80151h-52.83748z"/></g><g fill="#8aa2c6"><path d="M50.7541,282.65131v-53.54671h7.09228v53.54671z"/><path d="M96.49931,282.2967v-54.61056h7.09228v54.61056z"/><path d="M96.17791,279.3661l-43.37974,-43.37974l5.015,-5.015l43.37974,43.37974z"/><path d="M101.19291,235.98636l-43.37975,43.37974l-5.01499,-5.015l43.37974,-43.37974z"/><path d="M51.46333,274.8498h52.12825v7.80151h-52.12825z"/><path d="M50.7541,226.26769h52.83748v7.80151h-52.83748z"/></g><g fill="#8aa2c6"><path d="M50.7541,332.65131v-53.54671h7.09228v53.54671z"/><path d="M96.49931,332.2967v-54.61056h7.09228v54.61056z"/><path d="M96.17791,329.3661l-43.37974,-43.37974l5.015,-5.015l43.37974,43.37974z"/><path d="M101.19291,285.98636l-43.37975,43.37974l-5.01499,-5.015l43.37974,-43.37974z"/><path d="M51.46333,324.8498h52.12825v7.80151h-52.12825z"/><path d="M50.7541,276.26769h52.83748v7.80151h-52.83748z"/></g><g fill="#8aa2c6"><path d="M50.7541,381.65131v-53.54671h7.09228v53.54671z"/><path d="M96.49931,381.2967v-54.61056h7.09228v54.61056z"/><path d="M96.17791,378.3661l-43.37974,-43.37974l5.015,-5.015l43.37974,43.37974z"/><path d="M101.19291,334.98636l-43.37975,43.37974l-5.01499,-5.015l43.37974,-43.37974z"/><path d="M51.46333,373.8498h52.12825v7.80151h-52.12825z"/><path d="M50.7541,325.26769h52.83748v7.80151h-52.83748z"/></g><g><path d="M255.90394,261.78349v-53.54671h7.09228v53.54671z" fill="#8aa2c6"/><path d="M301.64913,261.42888v-54.61055h7.09228v54.61055z" fill="#8aa2c6"/><path d="M301.32775,258.49828l-43.37974,-43.37974l5.015,-5.015l43.37974,43.37974z" fill="#8aa2c6"/><path d="M306.34274,215.11853l-43.37974,43.37974l-5.01499,-5.015l43.37974,-43.37974z" fill="#8aa2c6"/><path d="M309.80528,210.36447h-54.61055v-7.09228h54.61055z" fill="#c65757"/><path d="M256.61317,253.98198h52.12825v7.80151h-52.12825z" fill="#8aa2c6"/></g><g fill="#8aa2c6"><path d="M255.7541,310.65131v-53.54671h7.09228v53.54671z"/><path d="M301.49931,310.2967v-54.61056h7.09228v54.61056z"/><path d="M301.17791,307.3661l-43.37974,-43.37974l5.015,-5.015l43.37974,43.37974z"/><path d="M306.19291,263.98636l-43.37975,43.37974l-5.01499,-5.015l43.37974,-43.37974z"/><path d="M256.46333,302.8498h52.12825v7.80151h-52.12825z"/><path d="M255.7541,254.26769h52.83748v7.80151h-52.83748z"/></g><g fill="#8aa2c6"><path d="M255.7541,359.65131v-53.54671h7.09228v53.54671z"/><path d="M301.49931,359.2967v-54.61056h7.09228v54.61056z"/><path d="M301.17791,356.3661l-43.37974,-43.37974l5.015,-5.015l43.37974,43.37974z"/><path d="M306.19291,312.98636l-43.37975,43.37974l-5.01499,-5.015l43.37974,-43.37974z"/><path d="M256.46333,351.8498h52.12825v7.80151h-52.12825z"/><path d="M255.7541,303.26769h52.83748v7.80151h-52.83748z"/></g><g fill="#8aa2c6"><path d="M255.7541,409.65131v-53.54671h7.09228v53.54671z"/><path d="M301.49931,409.2967v-54.61056h7.09228v54.61056z"/><path d="M301.17791,406.3661l-43.37974,-43.37974l5.015,-5.015l43.37974,43.37974z"/><path d="M306.19291,362.98636l-43.37975,43.37974l-5.01499,-5.015l43.37974,-43.37974z"/><path d="M256.46333,401.8498h52.12825v7.80151h-52.12825z"/><path d="M255.7541,353.26769h52.83748v7.80151h-52.83748z"/></g><g fill="#8aa2c6"><path d="M255.7541,458.65131v-53.54671h7.09228v53.54671z"/><path d="M301.49931,458.2967v-54.61056h7.09228v54.61056z"/><path d="M301.17791,455.3661l-43.37974,-43.37974l5.015,-5.015l43.37974,43.37974z"/><path d="M306.19291,411.98636l-43.37975,43.37974l-5.01499,-5.015l43.37974,-43.37974z"/><path d="M256.46333,450.8498h52.12825v7.80151h-52.12825z"/><path d="M255.7541,402.26769h52.83748v7.80151h-52.83748z"/></g><g><path d="M438.90395,237.78349v-53.54671h7.09228v53.54671z" fill="#8aa2c6"/><path d="M484.64913,237.42888v-54.61055h7.09228v54.61055z" fill="#8aa2c6"/><path d="M484.32775,234.49828l-43.37974,-43.37974l5.015,-5.015l43.37974,43.37974z" fill="#8aa2c6"/><path d="M489.34274,191.11853l-43.37974,43.37974l-5.01499,-5.015l43.37974,-43.37974z" fill="#8aa2c6"/><path d="M492.80528,186.36447h-54.61055v-7.09228h54.61055z" fill="#c65757"/><path d="M439.61317,229.98198h52.12825v7.80151h-52.12825z" fill="#8aa2c6"/></g><g fill="#8aa2c6"><path d="M438.7541,286.65131v-53.54671h7.09228v53.54671z"/><path d="M484.49931,286.2967v-54.61056h7.09228v54.61056z"/><path d="M484.17791,283.3661l-43.37974,-43.37974l5.015,-5.015l43.37974,43.37974z"/><path d="M489.19291,239.98636l-43.37975,43.37974l-5.01499,-5.015l43.37974,-43.37974z"/><path d="M439.46333,278.8498h52.12825v7.80151h-52.12825z"/><path d="M438.7541,230.26769h52.83748v7.80151h-52.83748z"/></g><g fill="#8aa2c6"><path d="M438.7541,335.65131v-53.54671h7.09228v53.54671z"/><path d="M484.49931,335.2967v-54.61056h7.09228v54.61056z"/><path d="M484.17791,332.3661l-43.37974,-43.37974l5.015,-5.015l43.37974,43.37974z"/><path d="M489.19291,288.98636l-43.37975,43.37974l-5.01499,-5.015l43.37974,-43.37974z"/><path d="M439.46333,327.8498h52.12825v7.80151h-52.12825z"/><path d="M438.7541,279.26769h52.83748v7.80151h-52.83748z"/></g><g fill="#8aa2c6"><path d="M438.7541,385.65131v-53.54671h7.09228v53.54671z"/><path d="M484.49931,385.2967v-54.61056h7.09228v54.61056z"/><path d="M484.17791,382.3661l-43.37974,-43.37974l5.015,-5.015l43.37974,43.37974z"/><path d="M489.19291,338.98636l-43.37975,43.37974l-5.01499,-5.015l43.37974,-43.37974z"/><path d="M439.46333,377.8498h52.12825v7.80151h-52.12825z"/><path d="M438.7541,329.26769h52.83748v7.80151h-52.83748z"/></g><g fill="#8aa2c6"><path d="M438.7541,434.65131v-53.54671h7.09228v53.54671z"/><path d="M484.49931,434.2967v-54.61056h7.09228v54.61056z"/><path d="M484.17791,431.3661l-43.37974,-43.37974l5.015,-5.015l43.37974,43.37974z"/><path d="M489.19291,387.98636l-43.37975,43.37974l-5.01499,-5.015l43.37974,-43.37974z"/><path d="M439.46333,426.8498h52.12825v7.80151h-52.12825z"/><path d="M438.7541,378.26769h52.83748v7.80151h-52.83748z"/></g></g></g></svg>