<svg version="1.1" xmlns="http://www.w3.org/2000/svg" xmlns:xlink="http://www.w3.org/1999/xlink" width="44.38163" height="38.98921" viewBox="0,0,44.38163,38.98921"><g transform="translate(-218.95915,-161.2983)"><g data-paper-data="{&quot;isPaintingLayer&quot;:true}" fill-rule="nonzero" stroke-linejoin="miter" stroke-miterlimit="10" stroke-dasharray="" stroke-dashoffset="0" style="mix-blend-mode: normal"><path d="M262.318,194.47339c0,0 -0.18003,2.66103 -0.96895,3.33096c-0.98362,0.83526 -4.47856,1.29488 -4.47856,1.29488l-32.65997,0.18774c0,0 -3.50571,-0.6655 -4.40956,-2.0751c-0.76622,-1.19497 -0.66919,-4.57871 -0.66919,-4.57871l0.48921,-24.29219c0,0 0.03957,-4.0259 0.84953,-4.97233c0.90356,-1.05581 4.3218,-1.07032 4.3218,-1.07032l29.67143,0.20475c0,0 5.00014,-0.10811 6.31993,0.96434c1.29792,1.05468 1.5343,5.41791 1.5343,5.41791v25.58803z" data-paper-data="{&quot;index&quot;:null}" fill="#00ff3f" stroke="#00c230" stroke-width="2" stroke-linecap="butt"/><path d="M251.05682,186.37975v-15.80731l3.35249,-0.0625v15.86981z" data-paper-data="{&quot;index&quot;:null}" fill="#000000" stroke="none" stroke-width="0" stroke-linecap="butt"/><path d="M245.18995,186.37976v-15.86981l3.3525,0.06251v15.80731z" data-paper-data="{&quot;index&quot;:null}" fill="#000000" stroke="none" stroke-width="0" stroke-linecap="butt"/><path d="M242.75259,175.52422v-1.67036h3.27755v1.67036z" fill="#000000" stroke="none" stroke-width="0" stroke-linecap="butt"/><path d="M253.86774,175.65271v-1.54187h2.85004v1.54187z" fill="#000000" stroke="none" stroke-width="0" stroke-linecap="butt"/><path d="M254.58024,191.71383c0,0 -12.20211,1.37225 -16.91597,0.67117c-4.4904,-0.66785 -10.7294,-4.78282 -10.7294,-4.78282" fill="none" stroke="#000000" stroke-width="2" stroke-linecap="round"/></g></g></svg>