<svg version="1.1" xmlns="http://www.w3.org/2000/svg" xmlns:xlink="http://www.w3.org/1999/xlink" width="528" height="393" viewBox="0,0,528,393"><defs><linearGradient x1="240.00001" y1="-16.50001" x2="240.00001" y2="376.5" gradientUnits="userSpaceOnUse" id="color-1"><stop offset="0" stop-color="#637b86"/><stop offset="1" stop-color="#2f3a3f"/></linearGradient></defs><g transform="translate(23.99999,16.5)"><g data-paper-data="{&quot;isPaintingLayer&quot;:true}" fill-rule="nonzero" stroke-linejoin="miter" stroke-miterlimit="10" stroke-dasharray="" stroke-dashoffset="0" style="mix-blend-mode: normal"><path d="M-23.99999,376.5v-393h528v393z" fill="url(#color-1)" stroke="none" stroke-width="0" stroke-linecap="butt"/><path d="M183.44564,140.56844c-19.35781,14.24332 -45.68936,11.38744 -58.81319,-6.3788c-13.12381,-17.76625 -8.07016,-43.71513 11.28764,-57.95847c19.35781,-14.24332 45.68935,-11.38743 58.81319,6.37881c13.12381,17.76625 8.07017,43.71512 -11.28763,57.95846z" data-paper-data="{&quot;index&quot;:null}" fill="#0068ff" stroke="#0010c7" stroke-width="2" stroke-linecap="butt"/><path d="M247.94377,160.92578c0,0 4.18807,0.24677 5.24244,1.32813c1.31458,1.34824 2.03796,6.13873 2.03796,6.13873l0.29548,44.76682c0,0 -1.04739,4.80524 -3.2659,6.04415c-1.8807,1.05027 -7.20622,0.91726 -7.20622,0.91726l-38.23231,-0.67056c0,0 -6.33618,-0.05424 -7.82572,-1.16445c-1.66169,-1.2385 -1.68452,-5.92386 -1.68452,-5.92386l0.32225,-40.67046c0,0 -0.17015,-6.85367 1.51773,-8.6627c1.65991,-1.77906 8.527,-2.10306 8.527,-2.10306h40.27178z" data-paper-data="{&quot;index&quot;:null}" fill="#00ff3f" stroke="#00c230" stroke-width="2" stroke-linecap="butt"/><path d="M235.58312,172.92032h-25.0211l-0.09892,-4.78476h25.12003z" data-paper-data="{&quot;index&quot;:null}" fill="#000000" stroke="none" stroke-width="2" stroke-linecap="butt"/><path d="M235.58313,181.29368h-25.12003l0.09894,-4.78478h25.02109z" data-paper-data="{&quot;index&quot;:null}" fill="#000000" stroke="none" stroke-width="2" stroke-linecap="butt"/><path d="M218.40011,184.77236h-2.64398v-4.6778h2.64398z" fill="#000000" stroke="none" stroke-width="2" stroke-linecap="butt"/><path d="M218.60349,168.90852h-2.44059v-4.06766h2.44059z" fill="#000000" stroke="none" stroke-width="2" stroke-linecap="butt"/><path d="M280.67566,323.96182h-56.70608c0,0 -13.08245,-12.75012 4.12408,-34.02364c7.26325,-8.98002 14.67089,-10.62257 24.38163,-16.67181c13.29389,-8.28131 28.20037,-19.41387 28.20037,-19.41387z" fill="#b0ccd7" stroke="#639b9b" stroke-width="2" stroke-linecap="butt"/><path d="M290.98589,28.05922c23.34607,0 42.2718,55.85398 42.2718,124.75336c0,68.89936 -48.45792,179.3974 -48.45792,179.3974c0,0 -36.08568,-110.49802 -36.08568,-179.3974c0,-68.89936 18.92573,-124.75337 42.2718,-124.75337z" fill="#00bcff" stroke="#00b1b1" stroke-width="2" stroke-linecap="butt"/><path d="M287.89282,19.81106c3.4165,0 6.18612,2.5388 6.18612,5.67061c0,3.13179 -2.76962,5.67062 -6.18612,5.67062c-3.4165,0 -6.18612,-2.5388 -6.18612,-5.67062c0,-3.13179 2.76962,-5.67061 6.18612,-5.67061z" fill="#b0ccd7" stroke="#639b9b" stroke-width="2" stroke-linecap="butt"/><path d="M304.87505,29.60888h-37.72933v-6.87347h37.72933z" fill="#b0ccd7" stroke="#639b9b" stroke-width="2" stroke-linecap="butt"/><path d="M215.04545,131.09271l-7.40233,-8.93865l59.59109,-49.34887l7.40233,8.93865z" fill="#b0ccd7" stroke="#639b9b" stroke-width="2" stroke-linecap="butt"/><path d="M270.0218,140.44034h-61.86118v-9.27917h61.86118z" fill="#b0ccd7" stroke="#639b9b" stroke-width="2" stroke-linecap="butt"/><path d="M271.74017,66.20694h-64.26688v-8.24817h64.26689z" fill="#b0ccd7" stroke="#639b9b" stroke-width="2" stroke-linecap="butt"/><path d="M212.62838,148.6885h-12.37223v-98.97787h12.37223z" fill="#b0ccd7" stroke="#639b9b" stroke-width="2" stroke-linecap="butt"/><path d="M278.61364,147.65749h-11.34121v-95.88481h11.34121z" fill="#b0ccd7" stroke="#639b9b" stroke-width="2" stroke-linecap="butt"/><path d="M146.52498,98.20182c6.81052,0 12.33154,1.79599 12.33154,4.01146c0,2.21547 -5.52102,4.01146 -12.33154,4.01146c-6.81052,0 -12.33154,-1.79599 -12.33154,-4.01146c0,-2.21547 5.52102,-4.01146 12.33154,-4.01146z" fill="#000000" stroke="none" stroke-width="0" stroke-linecap="butt"/><path d="M146.81859,85.28307c6.81052,0 12.33154,1.79599 12.33154,4.01146c0,2.21547 -5.52102,4.01146 -12.33154,4.01146c-6.81052,0 -12.33154,-1.79599 -12.33154,-4.01146c0,-2.21547 5.52102,-4.01146 12.33154,-4.01146z" fill="#000000" stroke="none" stroke-width="0" stroke-linecap="butt"/><path d="M171.64529,138.08355c0,0 -7.02559,-4.55307 -6.46732,-12.40655c0.35597,-5.0076 10.83565,-5.30325 12.89606,-11.40062c1.20145,-3.55543 -9.89813,-7.93975 -11.58917,-12.87552c-1.18701,-3.46463 7.02789,-7.79673 6.86322,-9.73912c-0.51619,-6.08904 -6.73517,-6.45077 -6.7235,-8.94793c0.01469,-3.14364 5.31433,-7.46237 5.31433,-7.46237" fill="none" stroke="#000000" stroke-width="2" stroke-linecap="round"/><path d="M244.01858,167.77169c0,0 -4.12275,25.1974 -7.03151,31.55724c-2.86486,6.26385 -10.29137,6.31819 -10.29137,6.31819" fill="none" stroke="#000000" stroke-width="2" stroke-linecap="round"/><path d="M204.08789,165.42282l5.87216,9.10185l-8.80824,19.37813" fill="none" stroke="#000000" stroke-width="2" stroke-linecap="round"/><text transform="translate(249.44583,23.76875) scale(0.5,0.5)" font-size="40" xml:space="preserve" fill="#fafafa" fill-rule="nonzero" stroke="none" stroke-width="1" stroke-linecap="butt" stroke-linejoin="miter" stroke-miterlimit="10" stroke-dasharray="" stroke-dashoffset="0" font-family="Pixel" font-weight="normal" text-anchor="start" style="mix-blend-mode: normal"><tspan x="0" dy="0">-New Password-</tspan></text><text transform="translate(251.99838,54.26875) scale(0.80336,0.80336)" font-size="40" xml:space="preserve" fill="#fafafa" fill-rule="nonzero" stroke="none" stroke-width="1" stroke-linecap="butt" stroke-linejoin="miter" stroke-miterlimit="10" stroke-dasharray="" stroke-dashoffset="0" font-family="Pixel" font-weight="normal" text-anchor="start" style="mix-blend-mode: normal"><tspan x="0" dy="0">SmallStep</tspan></text></g></g></svg>