<svg version="1.1" xmlns="http://www.w3.org/2000/svg" xmlns:xlink="http://www.w3.org/1999/xlink" width="488.11086" height="111.48824" viewBox="0,0,488.11086,111.48824"><g transform="translate(2.90681,-266.17823)"><g data-paper-data="{&quot;isPaintingLayer&quot;:true}" fill-rule="nonzero" stroke="none" stroke-width="0" stroke-linecap="butt" stroke-linejoin="miter" stroke-miterlimit="10" stroke-dasharray="" stroke-dashoffset="0" style="mix-blend-mode: normal"><g><path d="M-2.32116,377.44801v-111.26977h81.98825v111.26977z" fill="#ffd07f"/><path d="M-2.8501,316.85062v-42.16538h82.57388v42.16538l-20.34639,-18.42281l-21.57841,13.19612l-16.81904,-18.19852z" fill="#7c653e"/><path d="M-2.9068,308.34362v-42.16539h82.57388v42.16539l-20.34639,-18.42281l-21.57841,13.19612l-16.81904,-18.19852z" fill="#76cc00"/><path d="M4.56342,317.50585c0,-0.81281 0.65891,-1.47173 1.47173,-1.47173c0.81281,0 1.47173,0.65891 1.47173,1.47173c0,0.81281 -0.65892,1.47173 -1.47173,1.47173c-0.81281,0 -1.47173,-0.65892 -1.47173,-1.47173z" fill="#c4a062"/><path d="M37.47187,332.7228c0,-0.81281 0.65891,-1.47173 1.47173,-1.47173c0.81281,0 1.47173,0.65891 1.47173,1.47173c0,0.81281 -0.65892,1.47173 -1.47173,1.47173c-0.81281,0 -1.47173,-0.65892 -1.47173,-1.47173z" fill="#c4a062"/><path d="M57.34449,324.27353c0,-0.81281 0.65891,-1.47173 1.47173,-1.47173c0.81281,0 1.47173,0.65891 1.47173,1.47173c0,0.81281 -0.65892,1.47173 -1.47173,1.47173c-0.81281,0 -1.47173,-0.65892 -1.47173,-1.47173z" fill="#c4a062"/><path d="M14.21059,349.65533c0,-0.81281 0.65891,-1.47173 1.47173,-1.47173c0.81281,0 1.47173,0.65891 1.47173,1.47173c0,0.81281 -0.65892,1.47173 -1.47173,1.47173c-0.81281,0 -1.47173,-0.65892 -1.47173,-1.47173z" fill="#c4a062"/><path d="M-0.44623,329.41173c0,-0.81281 0.65891,-1.47173 1.47173,-1.47173c0.81281,0 1.47173,0.65891 1.47173,1.47173c0,0.81281 -0.65892,1.47173 -1.47173,1.47173c-0.81281,0 -1.47173,-0.65892 -1.47173,-1.47173z" fill="#c4a062"/><path d="M35.48839,360.06993c0,-0.81281 0.65891,-1.47173 1.47173,-1.47173c0.81281,0 1.47173,0.65891 1.47173,1.47173c0,0.81281 -0.65892,1.47173 -1.47173,1.47173c-0.81281,0 -1.47173,-0.65892 -1.47173,-1.47173z" fill="#c4a062"/><path d="M65.31756,348.18864c0,-0.81281 0.65891,-1.47173 1.47173,-1.47173c0.81281,0 1.47173,0.65891 1.47173,1.47173c0,0.81281 -0.65892,1.47173 -1.47173,1.47173c-0.81281,0 -1.47173,-0.65892 -1.47173,-1.47173z" fill="#c4a062"/><path d="M52.59428,366.71854c0,-0.81281 0.65891,-1.47173 1.47173,-1.47173c0.81281,0 1.47173,0.65891 1.47173,1.47173c0,0.81281 -0.65892,1.47173 -1.47173,1.47173c-0.81281,0 -1.47173,-0.65892 -1.47173,-1.47173z" fill="#c4a062"/><path d="M14.26443,372.77344c0,-0.81281 0.65891,-1.47173 1.47173,-1.47173c0.81281,0 1.47173,0.65891 1.47173,1.47173c0,0.81281 -0.65892,1.47173 -1.47173,1.47173c-0.81281,0 -1.47173,-0.65892 -1.47173,-1.47173z" fill="#c4a062"/></g><g><path d="M78.99078,377.52083v-111.26977h81.98825v111.26977z" fill="#ffd07f"/><path d="M78.46183,316.92345v-42.16538h82.57388v42.16538l-20.34639,-18.42281l-21.57841,13.19612l-16.81904,-18.19852z" fill="#7c653e"/><path d="M78.40515,308.41645v-42.16539h82.57388v42.16539l-20.34639,-18.42281l-21.57841,13.19612l-16.81904,-18.19852z" fill="#76cc00"/><path d="M85.87538,317.57867c0,-0.81281 0.65891,-1.47173 1.47173,-1.47173c0.81281,0 1.47173,0.65891 1.47173,1.47173c0,0.81281 -0.65892,1.47173 -1.47173,1.47173c-0.81281,0 -1.47173,-0.65892 -1.47173,-1.47173z" fill="#c4a062"/><path d="M118.78382,332.79562c0,-0.81281 0.65891,-1.47173 1.47173,-1.47173c0.81281,0 1.47173,0.65891 1.47173,1.47173c0,0.81281 -0.65892,1.47173 -1.47173,1.47173c-0.81281,0 -1.47173,-0.65892 -1.47173,-1.47173z" fill="#c4a062"/><path d="M138.65643,324.34635c0,-0.81281 0.65891,-1.47173 1.47173,-1.47173c0.81281,0 1.47173,0.65891 1.47173,1.47173c0,0.81281 -0.65892,1.47173 -1.47173,1.47173c-0.81281,0 -1.47173,-0.65892 -1.47173,-1.47173z" fill="#c4a062"/><path d="M95.52253,349.72815c0,-0.81281 0.65891,-1.47173 1.47173,-1.47173c0.81281,0 1.47173,0.65891 1.47173,1.47173c0,0.81281 -0.65892,1.47173 -1.47173,1.47173c-0.81281,0 -1.47173,-0.65892 -1.47173,-1.47173z" fill="#c4a062"/><path d="M80.86571,329.48455c0,-0.81281 0.65891,-1.47173 1.47173,-1.47173c0.81281,0 1.47173,0.65891 1.47173,1.47173c0,0.81281 -0.65892,1.47173 -1.47173,1.47173c-0.81281,0 -1.47173,-0.65892 -1.47173,-1.47173z" fill="#c4a062"/><path d="M116.80033,360.14275c0,-0.81281 0.65891,-1.47173 1.47173,-1.47173c0.81281,0 1.47173,0.65891 1.47173,1.47173c0,0.81281 -0.65892,1.47173 -1.47173,1.47173c-0.81281,0 -1.47173,-0.65892 -1.47173,-1.47173z" fill="#c4a062"/><path d="M146.6295,348.26146c0,-0.81281 0.65891,-1.47173 1.47173,-1.47173c0.81281,0 1.47173,0.65891 1.47173,1.47173c0,0.81281 -0.65892,1.47173 -1.47173,1.47173c-0.81281,0 -1.47173,-0.65892 -1.47173,-1.47173z" fill="#c4a062"/><path d="M133.90623,366.79137c0,-0.81281 0.65891,-1.47173 1.47173,-1.47173c0.81281,0 1.47173,0.65891 1.47173,1.47173c0,0.81281 -0.65892,1.47173 -1.47173,1.47173c-0.81281,0 -1.47173,-0.65892 -1.47173,-1.47173z" fill="#c4a062"/><path d="M95.57637,372.84626c0,-0.81281 0.65891,-1.47173 1.47173,-1.47173c0.81281,0 1.47173,0.65891 1.47173,1.47173c0,0.81281 -0.65892,1.47173 -1.47173,1.47173c-0.81281,0 -1.47173,-0.65892 -1.47173,-1.47173z" fill="#c4a062"/></g><g><path d="M159.29611,377.52083v-111.26977h81.98825v111.26977z" fill="#ffd07f"/><path d="M158.76718,316.92345v-42.16538h82.57388v42.16538l-20.34639,-18.42281l-21.57841,13.19612l-16.81904,-18.19852z" fill="#7c653e"/><path d="M158.71048,308.41645v-42.16539h82.57388v42.16539l-20.34639,-18.42281l-21.57841,13.19612l-16.81904,-18.19852z" fill="#76cc00"/><path d="M166.1807,317.57867c0,-0.81281 0.65891,-1.47173 1.47173,-1.47173c0.81281,0 1.47173,0.65891 1.47173,1.47173c0,0.81281 -0.65892,1.47173 -1.47173,1.47173c-0.81281,0 -1.47173,-0.65892 -1.47173,-1.47173z" fill="#c4a062"/><path d="M199.08915,332.79562c0,-0.81281 0.65891,-1.47173 1.47173,-1.47173c0.81281,0 1.47173,0.65891 1.47173,1.47173c0,0.81281 -0.65892,1.47173 -1.47173,1.47173c-0.81281,0 -1.47173,-0.65892 -1.47173,-1.47173z" fill="#c4a062"/><path d="M218.96177,324.34635c0,-0.81281 0.65891,-1.47173 1.47173,-1.47173c0.81281,0 1.47173,0.65891 1.47173,1.47173c0,0.81281 -0.65892,1.47173 -1.47173,1.47173c-0.81281,0 -1.47173,-0.65892 -1.47173,-1.47173z" fill="#c4a062"/><path d="M175.82787,349.72815c0,-0.81281 0.65891,-1.47173 1.47173,-1.47173c0.81281,0 1.47173,0.65891 1.47173,1.47173c0,0.81281 -0.65892,1.47173 -1.47173,1.47173c-0.81281,0 -1.47173,-0.65892 -1.47173,-1.47173z" fill="#c4a062"/><path d="M161.17105,329.48455c0,-0.81281 0.65891,-1.47173 1.47173,-1.47173c0.81281,0 1.47173,0.65891 1.47173,1.47173c0,0.81281 -0.65892,1.47173 -1.47173,1.47173c-0.81281,0 -1.47173,-0.65892 -1.47173,-1.47173z" fill="#c4a062"/><path d="M197.10567,360.14275c0,-0.81281 0.65891,-1.47173 1.47173,-1.47173c0.81281,0 1.47173,0.65891 1.47173,1.47173c0,0.81281 -0.65892,1.47173 -1.47173,1.47173c-0.81281,0 -1.47173,-0.65892 -1.47173,-1.47173z" fill="#c4a062"/><path d="M226.93484,348.26146c0,-0.81281 0.65891,-1.47173 1.47173,-1.47173c0.81281,0 1.47173,0.65891 1.47173,1.47173c0,0.81281 -0.65892,1.47173 -1.47173,1.47173c-0.81281,0 -1.47173,-0.65892 -1.47173,-1.47173z" fill="#c4a062"/><path d="M214.21156,366.79137c0,-0.81281 0.65891,-1.47173 1.47173,-1.47173c0.81281,0 1.47173,0.65891 1.47173,1.47173c0,0.81281 -0.65892,1.47173 -1.47173,1.47173c-0.81281,0 -1.47173,-0.65892 -1.47173,-1.47173z" fill="#c4a062"/><path d="M175.88171,372.84626c0,-0.81281 0.65891,-1.47173 1.47173,-1.47173c0.81281,0 1.47173,0.65891 1.47173,1.47173c0,0.81281 -0.65892,1.47173 -1.47173,1.47173c-0.81281,0 -1.47173,-0.65892 -1.47173,-1.47173z" fill="#c4a062"/></g><g><path d="M240.60806,377.59366v-111.26977h81.98825v111.26977z" fill="#ffd07f"/><path d="M240.07912,316.99627v-42.16538h82.57388v42.16538l-20.34639,-18.42281l-21.57841,13.19612l-16.81904,-18.19852z" fill="#7c653e"/><path d="M240.02243,308.48927v-42.16539h82.57388v42.16539l-20.34639,-18.42281l-21.57841,13.19612l-16.81904,-18.19852z" fill="#76cc00"/><path d="M247.49265,317.65148c0,-0.81281 0.65891,-1.47173 1.47173,-1.47173c0.81281,0 1.47173,0.65891 1.47173,1.47173c0,0.81281 -0.65892,1.47173 -1.47173,1.47173c-0.81281,0 -1.47173,-0.65892 -1.47173,-1.47173z" fill="#c4a062"/><path d="M280.40109,332.86845c0,-0.81281 0.65891,-1.47173 1.47173,-1.47173c0.81281,0 1.47173,0.65891 1.47173,1.47173c0,0.81281 -0.65892,1.47173 -1.47173,1.47173c-0.81281,0 -1.47173,-0.65892 -1.47173,-1.47173z" fill="#c4a062"/><path d="M300.27371,324.41917c0,-0.81281 0.65891,-1.47173 1.47173,-1.47173c0.81281,0 1.47173,0.65891 1.47173,1.47173c0,0.81281 -0.65892,1.47173 -1.47173,1.47173c-0.81281,0 -1.47173,-0.65892 -1.47173,-1.47173z" fill="#c4a062"/><path d="M257.13981,349.80097c0,-0.81281 0.65891,-1.47173 1.47173,-1.47173c0.81281,0 1.47173,0.65891 1.47173,1.47173c0,0.81281 -0.65892,1.47173 -1.47173,1.47173c-0.81281,0 -1.47173,-0.65892 -1.47173,-1.47173z" fill="#c4a062"/><path d="M242.48299,329.55737c0,-0.81281 0.65891,-1.47173 1.47173,-1.47173c0.81281,0 1.47173,0.65891 1.47173,1.47173c0,0.81281 -0.65892,1.47173 -1.47173,1.47173c-0.81281,0 -1.47173,-0.65892 -1.47173,-1.47173z" fill="#c4a062"/><path d="M278.4176,360.21558c0,-0.81281 0.65891,-1.47173 1.47173,-1.47173c0.81281,0 1.47173,0.65891 1.47173,1.47173c0,0.81281 -0.65892,1.47173 -1.47173,1.47173c-0.81281,0 -1.47173,-0.65892 -1.47173,-1.47173z" fill="#c4a062"/><path d="M308.24678,348.33428c0,-0.81281 0.65891,-1.47173 1.47173,-1.47173c0.81281,0 1.47173,0.65891 1.47173,1.47173c0,0.81281 -0.65892,1.47173 -1.47173,1.47173c-0.81281,0 -1.47173,-0.65892 -1.47173,-1.47173z" fill="#c4a062"/><path d="M295.52351,366.86419c0,-0.81281 0.65891,-1.47173 1.47173,-1.47173c0.81281,0 1.47173,0.65891 1.47173,1.47173c0,0.81281 -0.65892,1.47173 -1.47173,1.47173c-0.81281,0 -1.47173,-0.65892 -1.47173,-1.47173z" fill="#c4a062"/><path d="M257.19365,372.91908c0,-0.81281 0.65891,-1.47173 1.47173,-1.47173c0.81281,0 1.47173,0.65891 1.47173,1.47173c0,0.81281 -0.65892,1.47173 -1.47173,1.47173c-0.81281,0 -1.47173,-0.65892 -1.47173,-1.47173z" fill="#c4a062"/></g><g><path d="M321.84718,377.59366v-111.26977h81.98825v111.26977z" fill="#ffd07f"/><path d="M321.31824,316.99627v-42.16538h82.57388v42.16538l-20.34639,-18.42281l-21.57841,13.19612l-16.81904,-18.19852z" fill="#7c653e"/><path d="M321.26155,308.48927v-42.16539h82.57388v42.16539l-20.34639,-18.42281l-21.57841,13.19612l-16.81904,-18.19852z" fill="#76cc00"/><path d="M328.73177,317.65148c0,-0.81281 0.65891,-1.47173 1.47173,-1.47173c0.81281,0 1.47173,0.65891 1.47173,1.47173c0,0.81281 -0.65892,1.47173 -1.47173,1.47173c-0.81281,0 -1.47173,-0.65892 -1.47173,-1.47173z" fill="#c4a062"/><path d="M361.64021,332.86845c0,-0.81281 0.65891,-1.47173 1.47173,-1.47173c0.81281,0 1.47173,0.65891 1.47173,1.47173c0,0.81281 -0.65892,1.47173 -1.47173,1.47173c-0.81281,0 -1.47173,-0.65892 -1.47173,-1.47173z" fill="#c4a062"/><path d="M381.51283,324.41917c0,-0.81281 0.65891,-1.47173 1.47173,-1.47173c0.81281,0 1.47173,0.65891 1.47173,1.47173c0,0.81281 -0.65892,1.47173 -1.47173,1.47173c-0.81281,0 -1.47173,-0.65892 -1.47173,-1.47173z" fill="#c4a062"/><path d="M338.37893,349.80097c0,-0.81281 0.65891,-1.47173 1.47173,-1.47173c0.81281,0 1.47173,0.65891 1.47173,1.47173c0,0.81281 -0.65892,1.47173 -1.47173,1.47173c-0.81281,0 -1.47173,-0.65892 -1.47173,-1.47173z" fill="#c4a062"/><path d="M323.72211,329.55737c0,-0.81281 0.65891,-1.47173 1.47173,-1.47173c0.81281,0 1.47173,0.65891 1.47173,1.47173c0,0.81281 -0.65892,1.47173 -1.47173,1.47173c-0.81281,0 -1.47173,-0.65892 -1.47173,-1.47173z" fill="#c4a062"/><path d="M359.65673,360.21558c0,-0.81281 0.65891,-1.47173 1.47173,-1.47173c0.81281,0 1.47173,0.65891 1.47173,1.47173c0,0.81281 -0.65892,1.47173 -1.47173,1.47173c-0.81281,0 -1.47173,-0.65892 -1.47173,-1.47173z" fill="#c4a062"/><path d="M389.4859,348.33428c0,-0.81281 0.65891,-1.47173 1.47173,-1.47173c0.81281,0 1.47173,0.65891 1.47173,1.47173c0,0.81281 -0.65892,1.47173 -1.47173,1.47173c-0.81281,0 -1.47173,-0.65892 -1.47173,-1.47173z" fill="#c4a062"/><path d="M376.76263,366.86419c0,-0.81281 0.65891,-1.47173 1.47173,-1.47173c0.81281,0 1.47173,0.65891 1.47173,1.47173c0,0.81281 -0.65892,1.47173 -1.47173,1.47173c-0.81281,0 -1.47173,-0.65892 -1.47173,-1.47173z" fill="#c4a062"/><path d="M338.43277,372.91908c0,-0.81281 0.65891,-1.47173 1.47173,-1.47173c0.81281,0 1.47173,0.65891 1.47173,1.47173c0,0.81281 -0.65892,1.47173 -1.47173,1.47173c-0.81281,0 -1.47173,-0.65892 -1.47173,-1.47173z" fill="#c4a062"/></g><g><path d="M403.15912,377.66648v-111.26977h81.98825v111.26977z" fill="#ffd07f"/><path d="M402.63018,317.0691v-42.16538h82.57388v42.16538l-20.34639,-18.42281l-21.57841,13.19612l-16.81904,-18.19852z" fill="#7c653e"/><path d="M402.57349,308.56209v-42.16539h82.57388v42.16539l-20.34639,-18.42281l-21.57841,13.19612l-16.81904,-18.19852z" fill="#76cc00"/><path d="M410.04372,317.72432c0,-0.81281 0.65891,-1.47173 1.47173,-1.47173c0.81281,0 1.47173,0.65891 1.47173,1.47173c0,0.81281 -0.65892,1.47173 -1.47173,1.47173c-0.81281,0 -1.47173,-0.65892 -1.47173,-1.47173z" fill="#c4a062"/><path d="M442.95216,332.94127c0,-0.81281 0.65891,-1.47173 1.47173,-1.47173c0.81281,0 1.47173,0.65891 1.47173,1.47173c0,0.81281 -0.65892,1.47173 -1.47173,1.47173c-0.81281,0 -1.47173,-0.65892 -1.47173,-1.47173z" fill="#c4a062"/><path d="M462.82477,324.49199c0,-0.81281 0.65891,-1.47173 1.47173,-1.47173c0.81281,0 1.47173,0.65891 1.47173,1.47173c0,0.81281 -0.65892,1.47173 -1.47173,1.47173c-0.81281,0 -1.47173,-0.65892 -1.47173,-1.47173z" fill="#c4a062"/><path d="M419.69087,349.87379c0,-0.81281 0.65891,-1.47173 1.47173,-1.47173c0.81281,0 1.47173,0.65891 1.47173,1.47173c0,0.81281 -0.65892,1.47173 -1.47173,1.47173c-0.81281,0 -1.47173,-0.65892 -1.47173,-1.47173z" fill="#c4a062"/><path d="M405.03405,329.63019c0,-0.81281 0.65891,-1.47173 1.47173,-1.47173c0.81281,0 1.47173,0.65891 1.47173,1.47173c0,0.81281 -0.65892,1.47173 -1.47173,1.47173c-0.81281,0 -1.47173,-0.65892 -1.47173,-1.47173z" fill="#c4a062"/><path d="M440.96867,360.2884c0,-0.81281 0.65891,-1.47173 1.47173,-1.47173c0.81281,0 1.47173,0.65891 1.47173,1.47173c0,0.81281 -0.65892,1.47173 -1.47173,1.47173c-0.81281,0 -1.47173,-0.65892 -1.47173,-1.47173z" fill="#c4a062"/><path d="M470.79784,348.40711c0,-0.81281 0.65891,-1.47173 1.47173,-1.47173c0.81281,0 1.47173,0.65891 1.47173,1.47173c0,0.81281 -0.65892,1.47173 -1.47173,1.47173c-0.81281,0 -1.47173,-0.65892 -1.47173,-1.47173z" fill="#c4a062"/><path d="M458.07457,366.93701c0,-0.81281 0.65891,-1.47173 1.47173,-1.47173c0.81281,0 1.47173,0.65891 1.47173,1.47173c0,0.81281 -0.65892,1.47173 -1.47173,1.47173c-0.81281,0 -1.47173,-0.65892 -1.47173,-1.47173z" fill="#c4a062"/><path d="M419.74471,372.99191c0,-0.81281 0.65891,-1.47173 1.47173,-1.47173c0.81281,0 1.47173,0.65891 1.47173,1.47173c0,0.81281 -0.65892,1.47173 -1.47173,1.47173c-0.81281,0 -1.47173,-0.65892 -1.47173,-1.47173z" fill="#c4a062"/></g></g></g></svg>