<svg version="1.1" xmlns="http://www.w3.org/2000/svg" xmlns:xlink="http://www.w3.org/1999/xlink" width="617.11712" height="409.90991" viewBox="0,0,617.11712,409.90991"><g transform="translate(79.06907,32.71021)"><g data-paper-data="{&quot;isPaintingLayer&quot;:true}" fill-rule="nonzero" stroke-linejoin="miter" stroke-miterlimit="10" stroke-dasharray="" stroke-dashoffset="0" style="mix-blend-mode: normal"><path d="M182.19219,45.36787c0,-33.17026 26.8898,-60.06006 60.06006,-60.06006c33.17026,0 60.06006,26.8898 60.06006,60.06006c0,33.17026 -26.8898,60.06006 -60.06006,60.06006c-33.17026,0 -60.06006,-26.8898 -60.06006,-60.06006z" fill="#000000" stroke="none" stroke-width="0" stroke-linecap="butt"/><path d="M-32.52252,43.86637v-76.57658h570.57057v76.57658z" fill="#000000" stroke="none" stroke-width="0" stroke-linecap="butt"/><path d="M203.5,46.5c0,-21.5391 17.4609,-39 39,-39c21.5391,0 39,17.4609 39,39c0,21.5391 -17.4609,39 -39,39c-21.5391,0 -39,-17.4609 -39,-39z" fill="#0068ff" stroke="#0010c7" stroke-width="2" stroke-linecap="butt"/><text transform="translate(30.50278,29.05094) scale(0.5,0.5)" font-size="40" xml:space="preserve" fill="#ffffff" fill-rule="nonzero" stroke="none" stroke-width="1" stroke-linecap="butt" stroke-linejoin="miter" stroke-miterlimit="10" stroke-dasharray="" stroke-dashoffset="0" font-family="Sans Serif" font-weight="normal" text-anchor="start" style="mix-blend-mode: normal"><tspan x="0" dy="0">Score:</tspan></text><path d="M-64.05405,368.19069v-360.36036h82.58258v360.36036z" fill="#000000" stroke="none" stroke-width="0" stroke-linecap="butt"/><path d="M-79.06907,377.1997v-42.04204h599.0991v42.04204z" fill="#000000" stroke="none" stroke-width="0" stroke-linecap="butt"/><path d="M461.47147,371.1937v-357.35736h63.06306v357.35736z" fill="#000000" stroke="none" stroke-width="0" stroke-linecap="butt"/><path d="M241.875,7.28979v37.75l-31,22" fill="none" stroke="#0010c7" stroke-width="2" stroke-linecap="round"/><path d="M242.125,45.03979l34.25,18" fill="none" stroke="#0010c7" stroke-width="2" stroke-linecap="round"/><text transform="translate(226.16803,64.73685) scale(1.46154,1.46154)" font-size="40" xml:space="preserve" fill="#ffffff" fill-rule="nonzero" stroke="none" stroke-width="1" stroke-linecap="butt" stroke-linejoin="miter" stroke-miterlimit="10" stroke-dasharray="" stroke-dashoffset="0" font-family="Sans Serif" font-weight="normal" text-anchor="start" style="mix-blend-mode: normal"><tspan x="0" dy="0">3</tspan></text><text transform="translate(310.50278,26.05094) scale(0.5,0.5)" font-size="40" xml:space="preserve" fill="#ffffff" fill-rule="nonzero" stroke="none" stroke-width="1" stroke-linecap="butt" stroke-linejoin="miter" stroke-miterlimit="10" stroke-dasharray="" stroke-dashoffset="0" font-family="Sans Serif" font-weight="normal" text-anchor="start" style="mix-blend-mode: normal"><tspan x="0" dy="0">Lives:</tspan></text></g></g></svg>