<svg version="1.1" xmlns="http://www.w3.org/2000/svg" xmlns:xlink="http://www.w3.org/1999/xlink" width="76.01691" height="57.70947" viewBox="0,0,76.01691,57.70947"><defs><radialGradient cx="267.68668" cy="193.49119" r="7.59091" gradientUnits="userSpaceOnUse" id="color-1"><stop offset="0" stop-color="#fff696"/><stop offset="1" stop-color="#ffde00"/></radialGradient></defs><g transform="translate(-206.82489,-151.14527)"><g data-paper-data="{&quot;isPaintingLayer&quot;:true}" fill-rule="nonzero" stroke-linejoin="miter" stroke-miterlimit="10" stroke-dasharray="" stroke-dashoffset="0" style="mix-blend-mode: normal"><path d="M215.08899,172.97616c4.56414,0 8.2641,5.89603 8.2641,13.16912c0,7.27312 -3.69996,13.16912 -8.2641,13.16912c-4.56414,0 -8.2641,-13.16912 -8.2641,-13.16912c0,0 3.55924,-13.16912 8.2641,-13.16912z" fill="#ff6900" stroke="none" stroke-width="0" stroke-linecap="butt"/><path d="M272.15823,174.47983c0,12.33504 -9.9378,22.33456 -22.19669,22.33456c-12.25889,0 -22.19669,-9.99952 -22.19669,-22.33456c0,-12.33504 9.9378,-22.33456 22.19669,-22.33456c12.25889,0 22.19669,9.99952 22.19669,22.33456z" fill="#ff001e" stroke="#9e0000" stroke-width="2" stroke-linecap="butt"/><path d="M245.4594,183.17302c0,0 3.4696,-3.12814 9.9152,-3.20252c4.94568,-0.05708 5.53934,4.02071 5.53934,4.02071" fill="none" stroke="#000000" stroke-width="2" stroke-linecap="round"/><path d="M253.9597,169.24087c0,4.41625 -0.4938,7.99632 -1.10294,7.99632c-0.60914,0 -1.10294,-3.58008 -1.10294,-7.99632c0,-4.41625 0.4938,-7.99632 1.10294,-7.99632c0.60914,0 1.10294,3.58008 1.10294,7.99632z" fill="#000000" stroke="#000000" stroke-width="2" stroke-linecap="butt"/><path d="M257.26851,169.24087c0,-4.26396 0.43208,-7.72059 0.96507,-7.72059c0.533,0 0.96507,3.45663 0.96507,7.72059c0,4.26396 -0.43208,7.72059 -0.96507,7.72059c-0.533,0 -0.96507,-3.45663 -0.96507,-7.72059z" fill="#000000" stroke="#000000" stroke-width="2" stroke-linecap="butt"/><path d="M248.72073,207.8438c-49.83273,-0.5422 -34.46691,-37.77574 -34.46691,-37.77574c0,0 16.32668,13.37259 42.72019,13.7688c24.91207,0.37397 19.32025,-15.14748 19.32025,-15.14748c0,0 23.91818,39.71466 -27.57353,39.15441z" fill="#475875" stroke="#232c43" stroke-width="2" stroke-linecap="butt"/><path d="M263.76332,157.36863c0,0 -2.32084,0.79021 -3.75427,2.47108c-1.50608,1.76606 -0.2368,4.7125 -2.91067,4.99598c-0.98947,0.10491 -1.58506,-1.46706 -1.58506,-1.46706c0,0 -0.15641,1.24857 -1.07008,1.34789c-3.00716,0.32691 -3.79852,-4.2315 -5.78582,-5.86844c-2.32933,-1.91868 -3.64409,-1.72945 -3.64409,-1.72945" fill="#ff001e" stroke="#9e0000" stroke-width="2" stroke-linecap="round"/><path d="M260.09577,193.49119c0,-4.19234 3.39857,-7.59091 7.59091,-7.59091c4.19234,0 7.59091,3.39857 7.59091,7.59091c0,4.19234 -3.39857,7.59091 -7.59091,7.59091c-4.19234,0 -7.59091,-3.39857 -7.59091,-7.59091z" fill="url(#color-1)" stroke="#ff9400" stroke-width="2" stroke-linecap="butt"/><path d="M215.82304,182.80938l1,-4.63636c0,0 5.00248,2.94815 8.36089,4.0087c3.54101,1.11821 12.36638,2.53675 12.36638,2.53675l3.80295,4.84794l-5.3484,3.06115c0,0 -8.57406,-2.99038 -11.96213,-4.62977c-3.17365,-1.53564 -8.21968,-5.18841 -8.21968,-5.18841z" fill="#ff0000" stroke="#9e0000" stroke-width="2" stroke-linecap="butt"/></g></g></svg>