<svg version="1.1" xmlns="http://www.w3.org/2000/svg" xmlns:xlink="http://www.w3.org/1999/xlink" width="465.78703" height="268.9341" viewBox="0,0,465.78703,268.9341"><g transform="translate(-18.71309,-66.56174)"><g data-paper-data="{&quot;isPaintingLayer&quot;:true}" fill-rule="nonzero" stroke-linejoin="miter" stroke-miterlimit="10" stroke-dasharray="" stroke-dashoffset="0" style="mix-blend-mode: normal"><path d="M415.24948,334.49584c-37.27691,-0.41452 -67.15979,-30.96947 -66.74527,-68.24638c0.41452,-37.27691 30.96947,-67.15979 68.24638,-66.74527c37.27691,0.41452 67.15979,30.96947 66.74527,68.24638c-0.41452,37.27691 -30.96947,67.15979 -68.24638,66.74527z" data-paper-data="{&quot;index&quot;:null}" fill="#0068ff" stroke="#0010c7" stroke-width="2" stroke-linecap="butt"/><path d="M390.83928,247.93317c2.94289,0.03273 5.21659,10.13223 5.07842,22.55787c-0.13817,12.42563 -2.63588,22.47209 -5.5788,22.43936c-2.94289,-0.03273 -5.2166,-10.13224 -5.07842,-22.55787c0.13817,-12.42563 2.63588,-22.47209 5.5788,-22.43936z" data-paper-data="{&quot;index&quot;:null}" fill="#ff0000" stroke="none" stroke-width="0" stroke-linecap="butt"/><path d="M370.83357,289.7528c-1.96195,-0.02182 -3.45515,-8.78708 -3.33516,-19.57777c0.12,-10.79069 1.80776,-19.52059 3.76969,-19.49878c1.96193,0.02181 3.45514,8.7871 3.33515,19.57779c-0.12,10.79069 -1.80775,19.52059 -3.76968,19.49876z" data-paper-data="{&quot;index&quot;:null}" fill="#ff0000" stroke="none" stroke-width="0" stroke-linecap="butt"/><path d="M380.41799,290.76401c-0.07267,6.53496 -4.45923,11.78447 -9.79765,11.72511c-5.33842,-0.05936 -9.60717,-5.40513 -9.5345,-11.94009c0.07267,-6.53496 4.45923,-11.78447 9.79765,-11.72511c5.33842,0.05936 9.60717,5.40513 9.5345,11.9401z" fill="#0068ff" stroke="none" stroke-width="0" stroke-linecap="butt"/><path d="M357.74372,261.3434l7.28496,-25.58724l45.02687,-2.16613l-0.31505,28.33158l-30.51307,15.99504z" fill="#0068ff" stroke="none" stroke-width="0" stroke-linecap="butt"/><path d="M387.68443,317.99152c0,0 -3.38147,-6.36111 2.66667,-8.29208c2.45497,-0.7838 12.23532,-3.05904 20.01722,-7.84367c11.38982,-7.00291 22.68666,-16.54003 34.98278,-11.22814c20.44122,8.83055 4.66667,27.36388 4.66667,27.36388z" fill="#ffffff" stroke="#a2a5c7" stroke-width="2" stroke-linecap="butt"/><path d="M400.01776,317.99152l-1.66667,-10.77972" fill="none" stroke="#a2a5c7" stroke-width="2" stroke-linecap="round"/><path d="M421.01776,296.01748l4,20.73023" fill="none" stroke="#a2a5c7" stroke-width="2" stroke-linecap="round"/><text transform="translate(350.21754,199.45445) rotate(-24.51091) scale(0.24467,0.24467)" font-size="40" xml:space="preserve" fill="#ff0000" fill-rule="nonzero" stroke="none" stroke-width="1" stroke-linecap="butt" stroke-linejoin="miter" stroke-miterlimit="10" stroke-dasharray="" stroke-dashoffset="0" font-family="Marker" font-weight="normal" text-anchor="start" style="mix-blend-mode: normal"><tspan x="0" dy="0">pant</tspan></text><text transform="translate(390.98964,188.23077) rotate(0.94527) scale(0.14669,0.14669)" font-size="40" xml:space="preserve" fill="#ff0000" fill-rule="nonzero" stroke="none" stroke-width="1" stroke-linecap="butt" stroke-linejoin="miter" stroke-miterlimit="10" stroke-dasharray="" stroke-dashoffset="0" font-family="Marker" font-weight="normal" text-anchor="start" style="mix-blend-mode: normal"><tspan x="0" dy="0">pant</tspan></text><text transform="translate(433.00784,181.04186) rotate(33.32616) scale(0.29388,0.29388)" font-size="40" xml:space="preserve" fill="#ff0000" fill-rule="nonzero" stroke="none" stroke-width="1" stroke-linecap="butt" stroke-linejoin="miter" stroke-miterlimit="10" stroke-dasharray="" stroke-dashoffset="0" font-family="Marker" font-weight="normal" text-anchor="start" style="mix-blend-mode: normal"><tspan x="0" dy="0">pant</tspan></text><text transform="translate(383.4093,165.74914) rotate(9.81861) scale(0.23477,0.23477)" font-size="40" xml:space="preserve" fill="#ff0000" fill-rule="nonzero" stroke="none" stroke-width="1" stroke-linecap="butt" stroke-linejoin="miter" stroke-miterlimit="10" stroke-dasharray="" stroke-dashoffset="0" font-family="Marker" font-weight="normal" text-anchor="start" style="mix-blend-mode: normal"><tspan x="0" dy="0">pant</tspan></text><path d="M108.0075,121.73063c0,-29.91665 54.6739,-54.16889 122.11759,-54.16889c67.44368,0 122.11759,24.25224 122.11759,54.16889c0,29.91665 -54.6739,54.1689 -122.11759,54.1689c-19.67348,0 -54.7206,-5.72954 -54.7206,-5.72954c0,0 -10.96069,6.84838 -19.55098,8.74773c-9.65078,2.13383 -35.54341,3.43389 -35.54341,3.43389c0,0 11.42881,-12.35382 14.39816,-18.12985c2.16777,-4.21678 1.78238,-13.34481 1.78238,-13.34481c0,0 -28.48315,-19.64845 -28.48315,-29.14632z" data-paper-data="{&quot;index&quot;:null}" fill="#ffffff" stroke="#00c1ff" stroke-width="2" stroke-linecap="butt"/><text transform="translate(185.45316,93.88843) scale(0.2649,0.2649)" font-size="40" xml:space="preserve" data-paper-data="{&quot;index&quot;:null}" fill="#00c1ff" fill-rule="nonzero" stroke="none" stroke-width="1" stroke-linecap="butt" stroke-linejoin="miter" stroke-miterlimit="10" stroke-dasharray="" stroke-dashoffset="0" font-family="Marker" font-weight="normal" text-anchor="start" style="mix-blend-mode: normal"><tspan x="0" dy="0">Not sure if this</tspan><tspan x="0" dy="48px">is a good time to</tspan><tspan x="0" dy="48px">bring it up, but</tspan><tspan x="0" dy="48px">that rocket says</tspan><tspan x="0" dy="48px">"Dr.Bobblehead" </tspan><tspan x="0" dy="48px">on it</tspan></text><path d="M139.77325,311.10768c0,0 -0.50045,8.49353 -2.69349,10.63182c-2.73426,2.66601 -12.4495,4.13302 -12.4495,4.13302l-90.78825,0.59925c0,0 -9.74514,-2.12415 -12.25769,-6.62332c-2.12996,-3.81411 -1.86022,-14.61437 -1.86022,-14.61437l1.3599,-77.53609c0,0 0.11,-12.84993 2.36153,-15.87074c2.51172,-3.36995 12.01376,-3.41626 12.01376,-3.41626l82.48073,0.65354c0,0 13.89942,-0.34505 17.56817,3.078c3.60798,3.36634 4.26506,17.29296 4.26506,17.29296v81.67219z" data-paper-data="{&quot;index&quot;:null}" fill="#00ff3f" stroke="#00c230" stroke-width="2" stroke-linecap="butt"/><path d="M111.87534,286.03995v-50.74342l9.70362,-0.20063v50.94405z" data-paper-data="{&quot;index&quot;:null}" fill="#000000" stroke="none" stroke-width="0" stroke-linecap="butt"/><path d="M94.89396,286.03998v-50.94405l9.70364,0.20066v50.74339z" data-paper-data="{&quot;index&quot;:null}" fill="#000000" stroke="none" stroke-width="0" stroke-linecap="butt"/><path d="M87.83911,251.19237v-5.36206h9.48671v5.36206z" fill="#000000" stroke="none" stroke-width="0" stroke-linecap="butt"/><path d="M120.01142,251.60485v-4.94958h8.24932v4.94958z" fill="#000000" stroke="none" stroke-width="0" stroke-linecap="butt"/><path d="M35.56353,323.82129c0,0 17.40524,-7.81567 33.76792,-8.32532c13.34281,-0.41559 57.20981,5.49162 57.20981,5.49162" data-paper-data="{&quot;index&quot;:null}" fill="none" stroke="#000000" stroke-width="2" stroke-linecap="round"/><path d="M89.76337,242.11863v-14.5l39,-2l-2.25,15.25c0,0 -11.81451,-6.11515 -17.73856,-5.91365c-6.3025,0.21437 -19.01144,7.16365 -19.01144,7.16365z" fill="#00ff3f" stroke="none" stroke-width="0" stroke-linecap="butt"/></g></g></svg>