<svg version="1.1" xmlns="http://www.w3.org/2000/svg" xmlns:xlink="http://www.w3.org/1999/xlink" width="335.61055" height="156.6375" viewBox="0,0,335.61055,156.6375"><g transform="translate(-89.19475,-209.18125)"><g data-paper-data="{&quot;isPaintingLayer&quot;:true}" fill-rule="nonzero" stroke="none" stroke-width="0" stroke-linecap="butt" stroke-linejoin="miter" stroke-miterlimit="10" stroke-dasharray="" stroke-dashoffset="0" style="mix-blend-mode: normal"><g><path d="M89.90397,267.78349v-53.54671h7.09228v53.54671z" fill="#8aa2c6"/><path d="M135.64917,267.42888v-54.61055h7.09228v54.61055z" fill="#8aa2c6"/><path d="M135.32777,264.49828l-43.37974,-43.37974l5.015,-5.015l43.37974,43.37974z" fill="#8aa2c6"/><path d="M140.34276,221.11853l-43.37974,43.37974l-5.01499,-5.015l43.37974,-43.37974z" fill="#8aa2c6"/><path d="M143.8053,216.36447h-54.61055v-7.09228h54.61055z" fill="#c65757"/><path d="M90.6132,259.98198h52.12825v7.80151h-52.12825z" fill="#8aa2c6"/></g><g fill="#8aa2c6"><path d="M89.75412,316.65131v-53.54671h7.09228v53.54671z"/><path d="M135.49933,316.2967v-54.61056h7.09228v54.61056z"/><path d="M135.17793,313.3661l-43.37974,-43.37974l5.015,-5.015l43.37974,43.37974z"/><path d="M140.19293,269.98636l-43.37975,43.37974l-5.01499,-5.015l43.37974,-43.37974z"/><path d="M90.46336,308.8498h52.12825v7.80151h-52.12825z"/><path d="M89.75412,260.26769h52.83748v7.80151h-52.83748z"/></g><g fill="#8aa2c6"><path d="M89.75412,365.65131v-53.54671h7.09228v53.54671z"/><path d="M135.49933,365.2967v-54.61056h7.09228v54.61056z"/><path d="M135.17793,362.3661l-43.37974,-43.37974l5.015,-5.015l43.37974,43.37974z"/><path d="M140.19293,318.98636l-43.37975,43.37974l-5.01499,-5.015l43.37974,-43.37974z"/><path d="M90.46336,357.8498h52.12825v7.80151h-52.12825z"/><path d="M89.75412,309.26769h52.83748v7.80151h-52.83748z"/></g><g><path d="M136.90397,267.78349v-53.54671h7.09228v53.54671z" fill="#8aa2c6"/><path d="M182.64917,267.42888v-54.61055h7.09228v54.61055z" fill="#8aa2c6"/><path d="M182.32777,264.49828l-43.37974,-43.37974l5.015,-5.015l43.37974,43.37974z" fill="#8aa2c6"/><path d="M187.34276,221.11853l-43.37974,43.37974l-5.01499,-5.015l43.37974,-43.37974z" fill="#8aa2c6"/><path d="M190.8053,216.36447h-54.61055v-7.09228h54.61055z" fill="#c65757"/><path d="M137.61319,259.98198h52.12825v7.80151h-52.12825z" fill="#8aa2c6"/></g><g fill="#8aa2c6"><path d="M136.75412,316.65131v-53.54671h7.09228v53.54671z"/><path d="M182.49933,316.2967v-54.61056h7.09228v54.61056z"/><path d="M182.17793,313.3661l-43.37974,-43.37974l5.015,-5.015l43.37974,43.37974z"/><path d="M187.19293,269.98636l-43.37975,43.37974l-5.01499,-5.015l43.37974,-43.37974z"/><path d="M137.46336,308.8498h52.12825v7.80151h-52.12825z"/><path d="M136.75412,260.26769h52.83748v7.80151h-52.83748z"/></g><g><path d="M184.2726,267.69255v-53.54671h7.09228v53.54671z" fill="#8aa2c6"/><path d="M230.0178,267.33794v-54.61055h7.09228v54.61055z" fill="#8aa2c6"/><path d="M229.6964,264.40734l-43.37974,-43.37974l5.015,-5.015l43.37974,43.37974z" fill="#8aa2c6"/><path d="M234.7114,221.0276l-43.37974,43.37974l-5.01499,-5.015l43.37974,-43.37974z" fill="#8aa2c6"/><path d="M238.17393,216.27353h-54.61055v-7.09228h54.61055z" fill="#c65757"/><path d="M184.98183,259.89104h52.12825v7.80151h-52.12825z" fill="#8aa2c6"/></g><g fill="#8aa2c6"><path d="M184.6395,316.81875v-53.54671h7.09228v53.54671z"/><path d="M230.3847,316.46414v-54.61056h7.09228v54.61056z"/><path d="M230.0633,313.53354l-43.37974,-43.37974l5.015,-5.015l43.37974,43.37974z"/><path d="M235.0783,270.1538l-43.37975,43.37974l-5.01499,-5.015l43.37974,-43.37974z"/><path d="M185.34873,309.01724h52.12825v7.80151h-52.12825z"/><path d="M184.6395,260.43513h52.83748v7.80151h-52.83748z"/></g><g><path d="M231.90397,267.78349v-53.54671h7.09228v53.54671z" fill="#8aa2c6"/><path d="M277.64914,267.42888v-54.61055h7.09228v54.61055z" fill="#8aa2c6"/><path d="M277.32777,264.49828l-43.37974,-43.37974l5.015,-5.015l43.37974,43.37974z" fill="#8aa2c6"/><path d="M282.34275,221.11853l-43.37974,43.37974l-5.01499,-5.015l43.37974,-43.37974z" fill="#8aa2c6"/><path d="M285.8053,216.36447h-54.61055v-7.09228h54.61055z" fill="#c65757"/><path d="M232.6132,259.98198h52.12825v7.80151h-52.12825z" fill="#8aa2c6"/></g><g fill="#8aa2c6"><path d="M231.75412,316.65131v-53.54671h7.09228v53.54671z"/><path d="M277.49933,316.2967v-54.61056h7.09228v54.61056z"/><path d="M277.17792,313.3661l-43.37974,-43.37974l5.015,-5.015l43.37974,43.37974z"/><path d="M282.19293,269.98636l-43.37975,43.37974l-5.01499,-5.015l43.37974,-43.37974z"/><path d="M232.46336,308.8498h52.12825v7.80151h-52.12825z"/><path d="M231.75412,260.26769h52.83748v7.80151h-52.83748z"/></g><g fill="#8aa2c6"><path d="M136.75412,365.65131v-53.54671h7.09228v53.54671z"/><path d="M182.49933,365.2967v-54.61056h7.09228v54.61056z"/><path d="M182.17793,362.3661l-43.37974,-43.37974l5.015,-5.015l43.37974,43.37974z"/><path d="M187.19293,318.98636l-43.37975,43.37974l-5.01499,-5.015l43.37974,-43.37974z"/><path d="M137.46336,357.8498h52.12825v7.80151h-52.12825z"/><path d="M136.75412,309.26769h52.83748v7.80151h-52.83748z"/></g><g fill="#8aa2c6"><path d="M184.6395,365.81875v-53.54671h7.09228v53.54671z"/><path d="M230.3847,365.46414v-54.61056h7.09228v54.61056z"/><path d="M230.0633,362.53354l-43.37974,-43.37974l5.015,-5.015l43.37974,43.37974z"/><path d="M235.0783,319.1538l-43.37975,43.37974l-5.01499,-5.015l43.37974,-43.37974z"/><path d="M185.34873,358.01724h52.12825v7.80151h-52.12825z"/><path d="M184.6395,309.43513h52.83748v7.80151h-52.83748z"/></g><g fill="#8aa2c6"><path d="M231.75412,365.65131v-53.54671h7.09228v53.54671z"/><path d="M277.49933,365.2967v-54.61056h7.09228v54.61056z"/><path d="M277.17792,362.3661l-43.37974,-43.37974l5.015,-5.015l43.37974,43.37974z"/><path d="M282.19293,318.98636l-43.37975,43.37974l-5.01499,-5.015l43.37974,-43.37974z"/><path d="M232.46336,357.8498h52.12825v7.80151h-52.12825z"/><path d="M231.75412,309.26769h52.83748v7.80151h-52.83748z"/></g><g><path d="M275.90396,267.78349v-53.54671h7.09228v53.54671z" fill="#8aa2c6"/><path d="M321.64914,267.42888v-54.61055h7.09228v54.61055z" fill="#8aa2c6"/><path d="M321.32777,264.49828l-43.37974,-43.37974l5.015,-5.015l43.37974,43.37974z" fill="#8aa2c6"/><path d="M326.34275,221.11853l-43.37974,43.37974l-5.01499,-5.015l43.37974,-43.37974z" fill="#8aa2c6"/><path d="M329.8053,216.36447h-54.61055v-7.09228h54.61055z" fill="#c65757"/><path d="M276.61319,259.98198h52.12825v7.80151h-52.12825z" fill="#8aa2c6"/></g><g fill="#8aa2c6"><path d="M275.75412,316.65131v-53.54671h7.09228v53.54671z"/><path d="M321.49933,316.2967v-54.61056h7.09228v54.61056z"/><path d="M321.17792,313.3661l-43.37974,-43.37974l5.015,-5.015l43.37974,43.37974z"/><path d="M326.19293,269.98636l-43.37975,43.37974l-5.01499,-5.015l43.37974,-43.37974z"/><path d="M276.46335,308.8498h52.12825v7.80151h-52.12825z"/><path d="M275.75412,260.26769h52.83748v7.80151h-52.83748z"/></g><g><path d="M323.2726,267.69255v-53.54671h7.09228v53.54671z" fill="#8aa2c6"/><path d="M369.0178,267.33794v-54.61055h7.09228v54.61055z" fill="#8aa2c6"/><path d="M368.6964,264.40734l-43.37974,-43.37974l5.015,-5.015l43.37974,43.37974z" fill="#8aa2c6"/><path d="M373.7114,221.0276l-43.37974,43.37974l-5.01499,-5.015l43.37974,-43.37974z" fill="#8aa2c6"/><path d="M377.17393,216.27353h-54.61055v-7.09228h54.61055z" fill="#c65757"/><path d="M323.98183,259.89104h52.12825v7.80151h-52.12825z" fill="#8aa2c6"/></g><g fill="#8aa2c6"><path d="M323.63949,316.81875v-53.54671h7.09228v53.54671z"/><path d="M369.3847,316.46414v-54.61056h7.09228v54.61056z"/><path d="M369.0633,313.53354l-43.37974,-43.37974l5.015,-5.015l43.37974,43.37974z"/><path d="M374.0783,270.1538l-43.37975,43.37974l-5.01499,-5.015l43.37974,-43.37974z"/><path d="M324.34873,309.01724h52.12825v7.80151h-52.12825z"/><path d="M323.63949,260.43513h52.83748v7.80151h-52.83748z"/></g><g><path d="M370.90397,267.78349v-53.54671h7.09228v53.54671z" fill="#8aa2c6"/><path d="M416.64917,267.42888v-54.61055h7.09228v54.61055z" fill="#8aa2c6"/><path d="M416.32777,264.49828l-43.37974,-43.37974l5.015,-5.015l43.37974,43.37974z" fill="#8aa2c6"/><path d="M421.34276,221.11853l-43.37974,43.37974l-5.01499,-5.015l43.37974,-43.37974z" fill="#8aa2c6"/><path d="M424.8053,216.36447h-54.61055v-7.09228h54.61055z" fill="#c65757"/><path d="M371.6132,259.98198h52.12825v7.80151h-52.12825z" fill="#8aa2c6"/></g><g fill="#8aa2c6"><path d="M370.75412,316.65131v-53.54671h7.09228v53.54671z"/><path d="M416.49933,316.2967v-54.61056h7.09228v54.61056z"/><path d="M416.17792,313.3661l-43.37974,-43.37974l5.015,-5.015l43.37974,43.37974z"/><path d="M421.19293,269.98636l-43.37975,43.37974l-5.01499,-5.015l43.37974,-43.37974z"/><path d="M371.46336,308.8498h52.12825v7.80151h-52.12825z"/><path d="M370.75412,260.26769h52.83748v7.80151h-52.83748z"/></g><g fill="#8aa2c6"><path d="M275.75412,365.65131v-53.54671h7.09228v53.54671z"/><path d="M321.49933,365.2967v-54.61056h7.09228v54.61056z"/><path d="M321.17792,362.3661l-43.37974,-43.37974l5.015,-5.015l43.37974,43.37974z"/><path d="M326.19293,318.98636l-43.37975,43.37974l-5.01499,-5.015l43.37974,-43.37974z"/><path d="M276.46335,357.8498h52.12825v7.80151h-52.12825z"/><path d="M275.75412,309.26769h52.83748v7.80151h-52.83748z"/></g><g fill="#8aa2c6"><path d="M323.63949,365.81875v-53.54671h7.09228v53.54671z"/><path d="M369.3847,365.46414v-54.61056h7.09228v54.61056z"/><path d="M369.0633,362.53354l-43.37974,-43.37974l5.015,-5.015l43.37974,43.37974z"/><path d="M374.0783,319.1538l-43.37975,43.37974l-5.01499,-5.015l43.37974,-43.37974z"/><path d="M324.34873,358.01724h52.12825v7.80151h-52.12825z"/><path d="M323.63949,309.43513h52.83748v7.80151h-52.83748z"/></g><g fill="#8aa2c6"><path d="M370.75412,365.65131v-53.54671h7.09228v53.54671z"/><path d="M416.49933,365.2967v-54.61056h7.09228v54.61056z"/><path d="M416.17792,362.3661l-43.37974,-43.37974l5.015,-5.015l43.37974,43.37974z"/><path d="M421.19293,318.98636l-43.37975,43.37974l-5.01499,-5.015l43.37974,-43.37974z"/><path d="M371.46336,357.8498h52.12825v7.80151h-52.12825z"/><path d="M370.75412,309.26769h52.83748v7.80151h-52.83748z"/></g></g></g></svg>