<svg version="1.1" xmlns="http://www.w3.org/2000/svg" xmlns:xlink="http://www.w3.org/1999/xlink" width="328.24857" height="167.90644" viewBox="0,0,328.24857,167.90644"><g transform="translate(-160.78715,-223.61439)"><g data-paper-data="{&quot;isPaintingLayer&quot;:true}" fill-rule="nonzero" stroke="none" stroke-width="0" stroke-linecap="butt" stroke-linejoin="miter" stroke-miterlimit="10" stroke-dasharray="" stroke-dashoffset="0" style="mix-blend-mode: normal"><g><path d="M160.78715,285.44455l1,-61.83016h86.4538v64.33016c0,0 -19.56755,10.72092 -48.25213,10.19184c-24.92942,-0.45982 -39.20167,-12.69184 -39.20167,-12.69184z" fill="#ffd07f"/><path d="M161.2294,277.04669v-44.46195h87.07133v44.46195l-21.45457,-19.42622l-22.75369,13.91486l-17.7351,-19.18972z" fill="#7c653e"/><path d="M161.16962,268.07635v-44.46196h87.07133v44.46196l-21.45457,-19.42622l-22.7537,13.91486l-17.7351,-19.18972z" fill="#76cc00"/><path d="M169.04671,277.7376c0,-0.85708 0.6948,-1.55189 1.55189,-1.55189c0.85708,0 1.55189,0.6948 1.55189,1.55189c0,0.85708 -0.6948,1.55189 -1.55189,1.55189c-0.85708,0 -1.55189,-0.6948 -1.55189,-1.55189z" fill="#c4a062"/><path d="M224.70254,284.87388c0,-0.85709 0.6948,-1.55188 1.55189,-1.55188c0.85709,0 1.55189,0.6948 1.55189,1.55188c0,0.85709 -0.6948,1.55189 -1.55189,1.55189c-0.85709,0 -1.55189,-0.6948 -1.55189,-1.55189z" fill="#c4a062"/></g><g><path d="M325.67884,391.44801v-111.26977h81.98825v111.26977z" fill="#ffd07f"/><path d="M325.1499,330.85063v-42.16538h82.57388v42.16538l-20.34639,-18.42281l-21.57841,13.19612l-16.81904,-18.19852z" fill="#7c653e"/><path d="M325.09319,322.34363v-42.16539h82.57388v42.16539l-20.34639,-18.42281l-21.57841,13.19612l-16.81904,-18.19852z" fill="#76cc00"/><path d="M332.56343,331.50585c0,-0.81281 0.65891,-1.47173 1.47173,-1.47173c0.81281,0 1.47173,0.65891 1.47173,1.47173c0,0.81281 -0.65892,1.47173 -1.47173,1.47173c-0.81281,0 -1.47173,-0.65892 -1.47173,-1.47173z" fill="#c4a062"/><path d="M365.47187,346.7228c0,-0.81281 0.65891,-1.47173 1.47173,-1.47173c0.81281,0 1.47173,0.65891 1.47173,1.47173c0,0.81281 -0.65892,1.47173 -1.47173,1.47173c-0.81281,0 -1.47173,-0.65892 -1.47173,-1.47173z" fill="#c4a062"/><path d="M385.34449,338.27353c0,-0.81281 0.65891,-1.47173 1.47173,-1.47173c0.81281,0 1.47173,0.65891 1.47173,1.47173c0,0.81281 -0.65892,1.47173 -1.47173,1.47173c-0.81281,0 -1.47173,-0.65892 -1.47173,-1.47173z" fill="#c4a062"/><path d="M342.21059,363.65533c0,-0.81281 0.65891,-1.47173 1.47173,-1.47173c0.81281,0 1.47173,0.65891 1.47173,1.47173c0,0.81281 -0.65892,1.47173 -1.47173,1.47173c-0.81281,0 -1.47173,-0.65892 -1.47173,-1.47173z" fill="#c4a062"/><path d="M327.55377,343.41173c0,-0.81281 0.65891,-1.47173 1.47173,-1.47173c0.81281,0 1.47173,0.65891 1.47173,1.47173c0,0.81281 -0.65892,1.47173 -1.47173,1.47173c-0.81281,0 -1.47173,-0.65892 -1.47173,-1.47173z" fill="#c4a062"/><path d="M363.48838,374.06993c0,-0.81281 0.65891,-1.47173 1.47173,-1.47173c0.81281,0 1.47173,0.65891 1.47173,1.47173c0,0.81281 -0.65892,1.47173 -1.47173,1.47173c-0.81281,0 -1.47173,-0.65892 -1.47173,-1.47173z" fill="#c4a062"/><path d="M393.31756,362.18864c0,-0.81281 0.65891,-1.47173 1.47173,-1.47173c0.81281,0 1.47173,0.65891 1.47173,1.47173c0,0.81281 -0.65892,1.47173 -1.47173,1.47173c-0.81281,0 -1.47173,-0.65892 -1.47173,-1.47173z" fill="#c4a062"/><path d="M380.59428,380.71854c0,-0.81281 0.65891,-1.47173 1.47173,-1.47173c0.81281,0 1.47173,0.65891 1.47173,1.47173c0,0.81281 -0.65892,1.47173 -1.47173,1.47173c-0.81281,0 -1.47173,-0.65892 -1.47173,-1.47173z" fill="#c4a062"/><path d="M342.26443,386.77344c0,-0.81281 0.65891,-1.47173 1.47173,-1.47173c0.81281,0 1.47173,0.65891 1.47173,1.47173c0,0.81281 -0.65892,1.47173 -1.47173,1.47173c-0.81281,0 -1.47173,-0.65892 -1.47173,-1.47173z" fill="#c4a062"/></g><g><path d="M406.99078,391.52083v-111.26977h81.98825v111.26977z" fill="#ffd07f"/><path d="M406.46184,330.92345v-42.16538h82.57388v42.16538l-20.34639,-18.42281l-21.57841,13.19612l-16.81904,-18.19852z" fill="#7c653e"/><path d="M406.40515,322.41645v-42.16539h82.57388v42.16539l-20.34639,-18.42281l-21.57841,13.19612l-16.81904,-18.19852z" fill="#76cc00"/><path d="M413.87538,331.57867c0,-0.81281 0.65891,-1.47173 1.47173,-1.47173c0.81281,0 1.47173,0.65891 1.47173,1.47173c0,0.81281 -0.65892,1.47173 -1.47173,1.47173c-0.81281,0 -1.47173,-0.65892 -1.47173,-1.47173z" fill="#c4a062"/><path d="M446.78382,346.79563c0,-0.81281 0.65891,-1.47173 1.47173,-1.47173c0.81281,0 1.47173,0.65891 1.47173,1.47173c0,0.81281 -0.65892,1.47173 -1.47173,1.47173c-0.81281,0 -1.47173,-0.65892 -1.47173,-1.47173z" fill="#c4a062"/><path d="M466.65642,338.34635c0,-0.81281 0.65891,-1.47173 1.47173,-1.47173c0.81281,0 1.47173,0.65891 1.47173,1.47173c0,0.81281 -0.65892,1.47173 -1.47173,1.47173c-0.81281,0 -1.47173,-0.65892 -1.47173,-1.47173z" fill="#c4a062"/><path d="M423.52253,363.72815c0,-0.81281 0.65891,-1.47173 1.47173,-1.47173c0.81281,0 1.47173,0.65891 1.47173,1.47173c0,0.81281 -0.65892,1.47173 -1.47173,1.47173c-0.81281,0 -1.47173,-0.65892 -1.47173,-1.47173z" fill="#c4a062"/><path d="M408.86571,343.48455c0,-0.81281 0.65891,-1.47173 1.47173,-1.47173c0.81281,0 1.47173,0.65891 1.47173,1.47173c0,0.81281 -0.65892,1.47173 -1.47173,1.47173c-0.81281,0 -1.47173,-0.65892 -1.47173,-1.47173z" fill="#c4a062"/><path d="M444.80033,374.14275c0,-0.81281 0.65891,-1.47173 1.47173,-1.47173c0.81281,0 1.47173,0.65891 1.47173,1.47173c0,0.81281 -0.65892,1.47173 -1.47173,1.47173c-0.81281,0 -1.47173,-0.65892 -1.47173,-1.47173z" fill="#c4a062"/><path d="M474.62949,362.26146c0,-0.81281 0.65891,-1.47173 1.47173,-1.47173c0.81281,0 1.47173,0.65891 1.47173,1.47173c0,0.81281 -0.65892,1.47173 -1.47173,1.47173c-0.81281,0 -1.47173,-0.65892 -1.47173,-1.47173z" fill="#c4a062"/><path d="M461.90622,380.79137c0,-0.81281 0.65891,-1.47173 1.47173,-1.47173c0.81281,0 1.47173,0.65891 1.47173,1.47173c0,0.81281 -0.65892,1.47173 -1.47173,1.47173c-0.81281,0 -1.47173,-0.65892 -1.47173,-1.47173z" fill="#c4a062"/><path d="M423.57637,386.84626c0,-0.81281 0.65891,-1.47173 1.47173,-1.47173c0.81281,0 1.47173,0.65891 1.47173,1.47173c0,0.81281 -0.65892,1.47173 -1.47173,1.47173c-0.81281,0 -1.47173,-0.65892 -1.47173,-1.47173z" fill="#c4a062"/></g></g></g></svg>