<svg version="1.1" xmlns="http://www.w3.org/2000/svg" xmlns:xlink="http://www.w3.org/1999/xlink" width="84.35024" height="57.70947" viewBox="0,0,84.35024,57.70947"><defs><radialGradient cx="267.68668" cy="193.49119" r="7.59091" gradientUnits="userSpaceOnUse" id="color-1"><stop offset="0" stop-color="#fff696"/><stop offset="1" stop-color="#ffde00"/></radialGradient></defs><g transform="translate(-198.49156,-151.14527)"><g data-paper-data="{&quot;isPaintingLayer&quot;:true}" fill-rule="nonzero" stroke-linejoin="miter" stroke-miterlimit="10" stroke-dasharray="" stroke-dashoffset="0" style="mix-blend-mode: normal"><path d="M272.15824,174.47983c0,12.33504 -9.9378,22.33456 -22.19669,22.33456c-12.25889,0 -22.19669,-9.99952 -22.19669,-22.33456c0,-12.33504 9.9378,-22.33456 22.19669,-22.33456c12.25889,0 22.19669,9.99952 22.19669,22.33456z" fill="#ff001e" stroke="#9e0000" stroke-width="2" stroke-linecap="butt"/><g stroke-width="2"><path d="M260.20725,181.9523c1.14067,1.22267 3.12889,8.79704 -0.03688,9.69747c-2.02907,0.57712 -6.54273,-2.01929 -9.22209,-2.01929c-2.84806,0 -9.27987,2.52292 -11.70829,0.86729c-3.42057,-2.33204 -2.23163,-9.17668 -0.93811,-10.12626c4.96823,-3.64719 5.78671,-0.67748 12.6464,-0.67748c6.8597,0 5.64571,-1.61474 9.25897,2.25828z" fill="#ffffff" stroke="#969696" stroke-linecap="butt"/><path d="M237.39856,185.1139l23.26035,-0.67749" fill="none" stroke="#8a7b6c" stroke-linecap="round"/><path d="M245.30257,190.30796l0.45166,-10.61394" fill="none" stroke="#969696" stroke-linecap="round"/><path d="M254.56154,188.95298l-0.22583,-8.80731" fill="none" stroke="#969696" stroke-linecap="round"/></g><path d="M247.6365,168.33756c0,4.41625 -0.4938,7.99632 -1.10294,7.99632c-0.60914,0 -1.10294,-3.58008 -1.10294,-7.99632c0,-4.41625 0.4938,-7.99632 1.10294,-7.99632c0.60914,0 1.10294,3.58008 1.10294,7.99632z" fill="#000000" stroke="#000000" stroke-width="2" stroke-linecap="butt"/><path d="M251.84863,168.78922c0,-4.26396 0.43208,-7.72059 0.96507,-7.72059c0.533,0 0.96507,3.45663 0.96507,7.72059c0,4.26396 -0.43208,7.72059 -0.96507,7.72059c-0.533,0 -0.96507,-3.45663 -0.96507,-7.72059z" fill="#000000" stroke="#000000" stroke-width="2" stroke-linecap="butt"/><path d="M257.66595,158.27195c0,0 -2.32084,0.79021 -3.75427,2.47108c-1.50608,1.76606 -0.2368,4.7125 -2.91067,4.99598c-0.98947,0.10491 -1.58506,-1.46706 -1.58506,-1.46706c0,0 -0.15641,1.24857 -1.07008,1.34789c-3.00716,0.32691 -3.79852,-4.2315 -5.78582,-5.86844c-2.32933,-1.91868 -3.64409,-1.72945 -3.64409,-1.72945" fill="#ff001e" stroke="#9e0000" stroke-width="2" stroke-linecap="round"/><path d="M210.92232,180.64282c6.86532,0 12.43076,3.39628 12.43076,7.58578c0,4.18952 -5.56544,7.58579 -12.43076,7.58579c-6.86532,0 -12.43076,-7.58579 -12.43076,-7.58579c0,0 5.35376,-7.58578 12.43076,-7.58578z" fill="#ff6900" stroke="none" stroke-width="0" stroke-linecap="butt"/><path d="M248.72073,207.8438c-49.83273,-0.5422 -34.46691,-37.77574 -34.46691,-37.77574c0,0 16.32668,13.37259 42.72019,13.7688c24.91207,0.37397 19.32025,-15.14748 19.32025,-15.14748c0,0 23.91818,39.71466 -27.57353,39.15441z" fill="#475875" stroke="#232c43" stroke-width="2" stroke-linecap="butt"/><path d="M260.09577,193.49119c0,-4.19234 3.39857,-7.59091 7.59091,-7.59091c4.19234,0 7.59091,3.39857 7.59091,7.59091c0,4.19234 -3.39857,7.59091 -7.59091,7.59091c-4.19234,0 -7.59091,-3.39857 -7.59091,-7.59091z" fill="url(#color-1)" stroke="#ff9400" stroke-width="2" stroke-linecap="butt"/><path d="M215.82304,182.80938l1,-4.63636c0,0 5.00248,2.94815 8.36089,4.0087c3.54101,1.11821 12.36638,2.53675 12.36638,2.53675l3.80295,4.84794l-5.3484,3.06115c0,0 -8.57406,-2.99038 -11.96213,-4.62977c-3.17365,-1.53564 -8.21968,-5.18841 -8.21968,-5.18841z" fill="#ff0000" stroke="#9e0000" stroke-width="2" stroke-linecap="butt"/></g></g></svg>