<svg version="1.1" xmlns="http://www.w3.org/2000/svg" xmlns:xlink="http://www.w3.org/1999/xlink" width="410.78691" height="254.91074" viewBox="0,0,410.78691,254.91074"><g transform="translate(-18.71309,-72.56174)"><g data-paper-data="{&quot;isPaintingLayer&quot;:true}" fill-rule="nonzero" stroke-linejoin="miter" stroke-miterlimit="10" stroke-dasharray="" stroke-dashoffset="0" style="mix-blend-mode: normal"><path d="M153.85896,134.47434c0,-33.6411 61.48049,-60.9126 137.32052,-60.9126c75.84003,0 137.32052,27.2715 137.32052,60.9126c0,33.6411 -61.48049,60.91261 -137.32052,60.91261c-22.12272,0 -61.533,-6.44283 -61.533,-6.44283c0,0 -12.32523,7.70096 -21.98496,9.83677c-10.85225,2.39948 -39.96836,3.86139 -39.96836,3.86139c0,0 12.85163,-13.8918 16.19065,-20.38691c2.43764,-4.74174 2.00428,-15.00616 2.00428,-15.00616c0,0 -32.02914,-22.09457 -32.02914,-32.77487z" data-paper-data="{&quot;index&quot;:null}" fill="#ffffff" stroke="#00c1ff" stroke-width="2" stroke-linecap="butt"/><text transform="translate(176.84999,135.97959) scale(0.64712,0.64712)" font-size="40" xml:space="preserve" data-paper-data="{&quot;index&quot;:null}" fill="#00c1ff" fill-rule="nonzero" stroke="none" stroke-width="1" stroke-linecap="butt" stroke-linejoin="miter" stroke-miterlimit="10" stroke-dasharray="" stroke-dashoffset="0" font-family="Marker" font-weight="normal" text-anchor="start" style="mix-blend-mode: normal"><tspan x="0" dy="0">Yes, indeed it does.</tspan></text><path d="M154.72005,309.19494c0,0 -0.56275,9.55093 -3.02881,11.95542c-3.07466,2.99791 -13.99939,4.64756 -13.99939,4.64756l-102.09086,0.67385c0,0 -10.95835,-2.3886 -13.7837,-7.44789c-2.39513,-4.28895 -2.09181,-16.43378 -2.09181,-16.43378l1.5292,-87.18889c0,0 0.12369,-14.44967 2.65553,-17.84656c2.82441,-3.78949 13.5094,-3.84156 13.5094,-3.84156l92.7491,0.7349c0,0 15.62982,-0.38801 19.75531,3.46119c4.05715,3.78543 4.79604,19.44583 4.79604,19.44583v91.83991z" data-paper-data="{&quot;index&quot;:null}" fill="#00ff3f" stroke="#00c230" stroke-width="2" stroke-linecap="butt"/><path d="M123.34901,281.00642v-57.06068l10.91166,-0.22561v57.28629z" data-paper-data="{&quot;index&quot;:null}" fill="#000000" stroke="none" stroke-width="0" stroke-linecap="butt"/><path d="M104.25354,281.00646v-57.28629l10.91169,0.22564v57.06065z" data-paper-data="{&quot;index&quot;:null}" fill="#000000" stroke="none" stroke-width="0" stroke-linecap="butt"/><path d="M96.32041,241.82052v-6.02961h10.66775v6.02961z" fill="#000000" stroke="none" stroke-width="0" stroke-linecap="butt"/><path d="M132.49798,242.28435v-5.56577h9.27631v5.56577z" fill="#000000" stroke="none" stroke-width="0" stroke-linecap="butt"/><path d="M137.31429,304.66123c0,0 -49.64558,-3.56527 -64.23827,-7.08511c-17.89544,-4.31649 -35.26173,-16.91489 -35.26173,-16.91489" fill="none" stroke="#000000" stroke-width="2" stroke-linecap="round"/></g></g></svg>