<svg version="1.1" xmlns="http://www.w3.org/2000/svg" xmlns:xlink="http://www.w3.org/1999/xlink" width="51.64956" height="51.72325" viewBox="0,0,51.64956,51.72325"><g transform="translate(-214.63272,-154.13872)"><g data-paper-data="{&quot;isPaintingLayer&quot;:true}" fill-rule="nonzero" stroke-linejoin="miter" stroke-miterlimit="10" stroke-dasharray="" stroke-dashoffset="0" style="mix-blend-mode: normal"><path d="M265.28228,198.39052c0,0 -0.21077,3.57714 -1.13439,4.4777c-1.15156,1.12282 -5.24324,1.74067 -5.24324,1.74067l-38.2364,0.25238c0,0 -4.10426,-0.8946 -5.16245,-2.78948c-0.89705,-1.60635 -0.78346,-6.15499 -0.78346,-6.15499l0.57273,-32.65512c0,0 0.04633,-5.41187 0.99459,-6.68412c1.05784,-1.41929 5.05972,-1.43879 5.05972,-1.43879l34.7376,0.27524c0,0 5.85388,-0.14532 7.39902,1.29633c1.51954,1.41777 1.79627,7.28311 1.79627,7.28311v34.39708z" data-paper-data="{&quot;index&quot;:null}" fill="#ffa566" stroke="#ff7d21" stroke-width="2" stroke-linecap="butt"/><path d="M253.53279,187.83299v-21.37111l4.08678,-0.0845v21.45561z" data-paper-data="{&quot;index&quot;:null}" fill="#ff7d21" stroke="none" stroke-width="0" stroke-linecap="butt"/><path d="M246.38091,187.833v-21.45561l4.08679,0.08451v21.3711z" data-paper-data="{&quot;index&quot;:null}" fill="#ff7d21" stroke="none" stroke-width="0" stroke-linecap="butt"/><path d="M243.40969,173.15657v-2.25829h3.99542v2.25829z" fill="#ff7d21" stroke="none" stroke-width="0" stroke-linecap="butt"/><path d="M256.95939,173.33029v-2.08456h3.47428v2.08456z" fill="#ff7d21" stroke="none" stroke-width="0" stroke-linecap="butt"/><path d="M257.82794,195.04454c0,0 -14.87472,1.85525 -20.62106,0.90741c-5.47393,-0.90292 -13.07945,-6.46626 -13.07945,-6.46626" fill="none" stroke="#ff7d21" stroke-width="2" stroke-linecap="round"/></g></g></svg>