<svg version="1.1" xmlns="http://www.w3.org/2000/svg" xmlns:xlink="http://www.w3.org/1999/xlink" width="430.20257" height="343.24396" viewBox="0,0,430.20257,343.24396"><g transform="translate(56.37143,-48.32247)"><g data-paper-data="{&quot;isPaintingLayer&quot;:true}" fill-rule="nonzero" stroke="none" stroke-width="0" stroke-linecap="butt" stroke-linejoin="miter" stroke-miterlimit="10" stroke-dasharray="" stroke-dashoffset="0" style="mix-blend-mode: normal"><path d="M-13.29082,381.99295c0,0 -8.06835,-15.03828 5.58224,-18.50533c49.83577,-12.65753 45.47626,-147.43482 45.47626,-147.43482h39.09167c0,0 -5.92178,137.89228 63.90941,147.91111c9.03188,1.29582 -3.27744,18.02903 -3.27744,18.02903z" fill="#e9deff"/><path d="M7.88898,259.73659c-35.49004,0 -64.26041,-32.325 -64.26041,-72.19992c0,-39.87491 28.77037,-72.19992 64.26041,-72.19992c35.49004,0 64.26041,32.325 64.26041,72.19992c0,39.87491 -28.77037,72.19992 -64.26041,72.19992z" fill="#00c9ff"/><path d="M101.23031,259.7366c-35.49005,0 -64.26041,-32.325 -64.26041,-72.19992c0,-39.87491 28.77036,-72.19992 64.26041,-72.19992c35.49005,0 64.26041,32.325 64.26041,72.19992c0,39.87491 -28.77036,72.19992 -64.26041,72.19992z" fill="#00c9ff"/><path d="M54.16075,192.7223c-35.49004,0 -64.26041,-32.325 -64.26041,-72.19992c0,-39.87491 28.77037,-72.19992 64.26041,-72.19992c35.49005,0 64.26041,32.325 64.26041,72.19992c0,39.87491 -28.77036,72.19992 -64.26041,72.19992z" fill="#00c9ff"/><path d="M230.95604,391.56643c0,0 -6.44791,-12.01799 4.46111,-14.78872c39.82676,-10.11539 36.34282,-117.82405 36.34282,-117.82405h31.24051c0,0 -4.73245,110.19804 51.07387,118.20469c7.21793,1.03557 -2.6192,14.40808 -2.6192,14.40808z" fill="#e9deff"/><path d="M247.88209,293.86399c-28.36223,0 -51.35437,-25.83285 -51.35437,-57.6993c0,-31.86644 22.99213,-57.6993 51.35437,-57.6993c28.36223,0 51.35437,25.83285 51.35437,57.6993c0,31.86644 -22.99213,57.6993 -51.35437,57.6993z" fill="#00c9ff"/><path d="M322.47678,293.86399c-28.36223,0 -51.35437,-25.83285 -51.35437,-57.6993c0,-31.86644 22.99213,-57.6993 51.35437,-57.6993c28.36223,0 51.35437,25.83285 51.35437,57.6993c0,31.86644 -22.99213,57.6993 -51.35437,57.6993z" fill="#00c9ff"/><path d="M284.86066,240.30883c-28.36223,0 -51.35437,-25.83285 -51.35437,-57.6993c0,-31.86644 22.99213,-57.6993 51.35437,-57.6993c28.36223,0 51.35437,25.83285 51.35437,57.6993c0,31.86644 -22.99213,57.6993 -51.35437,57.6993z" fill="#00c9ff"/></g></g></svg>