<svg version="1.1" xmlns="http://www.w3.org/2000/svg" xmlns:xlink="http://www.w3.org/1999/xlink" width="307.61055" height="305.37912" viewBox="0,0,307.61055,305.37912"><g transform="translate(-107.19475,-110.27219)"><g data-paper-data="{&quot;isPaintingLayer&quot;:true}" fill-rule="nonzero" stroke="none" stroke-width="0" stroke-linecap="butt" stroke-linejoin="miter" stroke-miterlimit="10" stroke-dasharray="" stroke-dashoffset="0" style="mix-blend-mode: normal"><g><path d="M107.90397,168.78349v-53.54671h7.09228v53.54671z" fill="#8aa2c6"/><path d="M153.64916,168.42888v-54.61055h7.09228v54.61055z" fill="#8aa2c6"/><path d="M153.32778,165.49828l-43.37974,-43.37974l5.015,-5.015l43.37974,43.37974z" fill="#8aa2c6"/><path d="M158.34277,122.11853l-43.37974,43.37974l-5.01499,-5.015l43.37974,-43.37974z" fill="#8aa2c6"/><path d="M161.80531,117.36447h-54.61055v-7.09228h54.61055z" fill="#c65757"/><path d="M108.6132,160.98198h52.12825v7.80151h-52.12825z" fill="#8aa2c6"/></g><g fill="#8aa2c6"><path d="M107.75413,217.65131v-53.54671h7.09228v53.54671z"/><path d="M153.49934,217.2967v-54.61056h7.09228v54.61056z"/><path d="M153.17792,214.3661l-43.37974,-43.37974l5.015,-5.015l43.37974,43.37974z"/><path d="M158.19293,170.98636l-43.37975,43.37974l-5.01499,-5.015l43.37974,-43.37974z"/><path d="M108.46336,209.8498h52.12825v7.80151h-52.12825z"/><path d="M107.75413,161.26769h52.83748v7.80151h-52.83748z"/></g><g fill="#8aa2c6"><path d="M107.75413,266.65131v-53.54671h7.09228v53.54671z"/><path d="M153.49934,266.2967v-54.61056h7.09228v54.61056z"/><path d="M153.17792,263.3661l-43.37974,-43.37974l5.015,-5.015l43.37974,43.37974z"/><path d="M158.19293,219.98636l-43.37975,43.37974l-5.01499,-5.015l43.37974,-43.37974z"/><path d="M108.46336,258.8498h52.12825v7.80151h-52.12825z"/><path d="M107.75413,210.26769h52.83748v7.80151h-52.83748z"/></g><g fill="#8aa2c6"><path d="M107.75413,316.65131v-53.54671h7.09228v53.54671z"/><path d="M153.49934,316.2967v-54.61056h7.09228v54.61056z"/><path d="M153.17792,313.3661l-43.37974,-43.37974l5.015,-5.015l43.37974,43.37974z"/><path d="M158.19293,269.98636l-43.37975,43.37974l-5.01499,-5.015l43.37974,-43.37974z"/><path d="M108.46336,308.8498h52.12825v7.80151h-52.12825z"/><path d="M107.75413,260.26769h52.83748v7.80151h-52.83748z"/></g><g fill="#8aa2c6"><path d="M107.75413,365.65131v-53.54671h7.09228v53.54671z"/><path d="M153.49934,365.2967v-54.61056h7.09228v54.61056z"/><path d="M153.17792,362.3661l-43.37974,-43.37974l5.015,-5.015l43.37974,43.37974z"/><path d="M158.19293,318.98636l-43.37975,43.37974l-5.01499,-5.015l43.37974,-43.37974z"/><path d="M108.46336,357.8498h52.12825v7.80151h-52.12825z"/><path d="M107.75413,309.26769h52.83748v7.80151h-52.83748z"/></g><g><path d="M360.90397,218.78349v-53.54671h7.09228v53.54671z" fill="#8aa2c6"/><path d="M406.64916,218.42888v-54.61055h7.09228v54.61055z" fill="#8aa2c6"/><path d="M406.32778,215.49828l-43.37974,-43.37974l5.015,-5.015l43.37974,43.37974z" fill="#8aa2c6"/><path d="M411.34277,172.11853l-43.37974,43.37974l-5.01499,-5.015l43.37974,-43.37974z" fill="#8aa2c6"/><path d="M414.80531,167.36447h-54.61055v-7.09228h54.61055z" fill="#c65757"/><path d="M361.6132,210.98198h52.12825v7.80151h-52.12825z" fill="#8aa2c6"/></g><g fill="#8aa2c6"><path d="M360.75413,267.65131v-53.54671h7.09228v53.54671z"/><path d="M406.49934,267.2967v-54.61056h7.09228v54.61056z"/><path d="M406.17792,264.3661l-43.37974,-43.37974l5.015,-5.015l43.37974,43.37974z"/><path d="M411.19293,220.98636l-43.37975,43.37974l-5.01499,-5.015l43.37974,-43.37974z"/><path d="M361.46336,259.8498h52.12825v7.80151h-52.12825z"/><path d="M360.75413,211.26769h52.83748v7.80151h-52.83748z"/></g><g fill="#8aa2c6"><path d="M360.75413,316.65131v-53.54671h7.09228v53.54671z"/><path d="M406.49934,316.2967v-54.61056h7.09228v54.61056z"/><path d="M406.17792,313.3661l-43.37974,-43.37974l5.015,-5.015l43.37974,43.37974z"/><path d="M411.19293,269.98636l-43.37975,43.37974l-5.01499,-5.015l43.37974,-43.37974z"/><path d="M361.46336,308.8498h52.12825v7.80151h-52.12825z"/><path d="M360.75413,260.26769h52.83748v7.80151h-52.83748z"/></g><g fill="#8aa2c6"><path d="M360.75413,366.65131v-53.54671h7.09228v53.54671z"/><path d="M406.49934,366.2967v-54.61056h7.09228v54.61056z"/><path d="M406.17792,363.3661l-43.37974,-43.37974l5.015,-5.015l43.37974,43.37974z"/><path d="M411.19293,319.98636l-43.37975,43.37974l-5.01499,-5.015l43.37974,-43.37974z"/><path d="M361.46336,358.8498h52.12825v7.80151h-52.12825z"/><path d="M360.75413,310.26769h52.83748v7.80151h-52.83748z"/></g><g fill="#8aa2c6"><path d="M360.75413,415.65131v-53.54671h7.09228v53.54671z"/><path d="M406.49934,415.2967v-54.61056h7.09228v54.61056z"/><path d="M406.17792,412.3661l-43.37974,-43.37974l5.015,-5.015l43.37974,43.37974z"/><path d="M411.19293,368.98636l-43.37975,43.37974l-5.01499,-5.015l43.37974,-43.37974z"/><path d="M361.46336,407.8498h52.12825v7.80151h-52.12825z"/><path d="M360.75413,359.26769h52.83748v7.80151h-52.83748z"/></g></g></g></svg>