<svg version="1.1" xmlns="http://www.w3.org/2000/svg" xmlns:xlink="http://www.w3.org/1999/xlink" width="529.00001" height="684.97691" viewBox="0,0,529.00001,684.97691"><g transform="translate(16.9925,134.67754)"><g data-paper-data="{&quot;isPaintingLayer&quot;:true}" fill-rule="nonzero" stroke="none" stroke-width="0" stroke-linecap="butt" stroke-linejoin="miter" stroke-miterlimit="10" stroke-dasharray="" stroke-dashoffset="0" style="mix-blend-mode: normal"><path d="M-16.9925,550.29937v-268.77954c0,0 17.58439,-0.82328 35.92338,-5.72558c13.3303,-3.5634 36.58766,-12.64018 46.07662,-12.64018c22.49802,0 63.76389,11.25202 123.07097,13.44694c62.39683,2.30927 134.59699,-4.27874 194.97675,-3.62785c34.32969,0.37007 44.83828,4.27513 67.55141,6.19294c25.68482,2.16873 61.40088,2.35376 61.40088,2.35376v261.27203z" fill="#0012ff"/><path d="M54.9429,-7.17753c0,2.48528 -8.28273,4.5 -18.5,4.5c-10.21727,0 -18.5,-2.01472 -18.5,-4.5c0,-2.48528 8.28273,-4.5 18.5,-4.5c10.21727,0 18.5,2.01472 18.5,4.5z" fill-opacity="0.74118" fill="#fcfeff"/><path d="M159.9429,-54.17753c0,1.933 -10.52131,3.5 -23.5,3.5c-12.97869,0 -23.5,-1.567 -23.5,-3.5c0,-1.933 10.52131,-3.5 23.5,-3.5c12.97869,0 23.5,1.567 23.5,3.5z" fill-opacity="0.74118" fill="#fcfeff"/><path d="M62.9429,-134.67753c12.15026,0 22,1.34315 22,3c0,1.65685 -9.84974,3 -22,3c-12.15026,0 -22,-1.34315 -22,-3c0,-1.65685 9.84974,-3 22,-3z" fill-opacity="0.74118" fill="#fcfeff"/><path d="M297.9429,42.32247c0,2.20914 -11.6406,4 -26,4c-14.3594,0 -26,-1.79086 -26,-4c0,-2.20914 11.6406,-4 26,-4c14.3594,0 26,1.79086 26,4z" fill-opacity="0.74118" fill="#fcfeff"/><path d="M425.4429,-5.67753c15.18783,0 27.5,2.23858 27.5,5c0,2.76142 -12.31217,5 -27.5,5c-15.18783,0 -27.5,-2.23858 -27.5,-5c0,-2.76142 12.31217,-5 27.5,-5z" fill-opacity="0.74118" fill="#fcfeff"/><path d="M311.9429,-113.67753c0,3.31371 -9.40202,6 -21,6c-11.59798,0 -21,-2.68629 -21,-6c0,-3.31371 9.40202,-6 21,-6c11.59798,0 21,2.68629 21,6z" fill-opacity="0.74118" fill="#fcfeff"/><path d="M386.4429,-114.67753c9.1127,0 16.5,1.79086 16.5,4c0,2.20914 -7.3873,4 -16.5,4c-9.1127,0 -16.5,-1.79086 -16.5,-4c0,-2.20914 7.3873,-4 16.5,-4z" fill-opacity="0.74118" fill="#fcfeff"/></g></g></svg>