<svg version="1.1" xmlns="http://www.w3.org/2000/svg" xmlns:xlink="http://www.w3.org/1999/xlink" width="295.21628" height="164.13555" viewBox="0,0,295.21628,164.13555"><g transform="translate(-99.78715,-101.0198)"><g data-paper-data="{&quot;isPaintingLayer&quot;:true}" fill-rule="nonzero" stroke="none" stroke-width="0" stroke-linecap="butt" stroke-linejoin="miter" stroke-miterlimit="10" stroke-dasharray="" stroke-dashoffset="0" style="mix-blend-mode: normal"><g><path d="M99.78715,252.44455l1,-61.83016h86.4538v64.33016c0,0 -19.56755,10.72092 -48.25213,10.19184c-24.92942,-0.45982 -39.20167,-12.69184 -39.20167,-12.69184z" fill="#ffd07f"/><path d="M100.2294,244.04669v-44.46195h87.07133v44.46195l-21.45457,-19.42622l-22.75369,13.91486l-17.7351,-19.18972z" fill="#7c653e"/><path d="M100.16962,235.07635v-44.46196h87.07133v44.46196l-21.45457,-19.42622l-22.7537,13.91486l-17.7351,-19.18972z" fill="#76cc00"/><path d="M108.04671,244.7376c0,-0.85708 0.6948,-1.55189 1.55189,-1.55189c0.85708,0 1.55189,0.6948 1.55189,1.55189c0,0.85708 -0.6948,1.55189 -1.55189,1.55189c-0.85708,0 -1.55189,-0.6948 -1.55189,-1.55189z" fill="#c4a062"/><path d="M163.70254,251.87388c0,-0.85709 0.6948,-1.55188 1.55189,-1.55188c0.85709,0 1.55189,0.6948 1.55189,1.55188c0,0.85709 -0.6948,1.55189 -1.55189,1.55189c-0.85709,0 -1.55189,-0.6948 -1.55189,-1.55189z" fill="#c4a062"/></g><g><path d="M307.48985,162.84996l1,-61.83016h86.4538v64.33016c0,0 -19.56755,10.72092 -48.25213,10.19184c-24.92942,-0.45982 -39.20167,-12.69184 -39.20167,-12.69184z" fill="#ffd07f"/><path d="M307.9321,154.4521v-44.46195h87.07133v44.46195l-21.45457,-19.42622l-22.75369,13.91486l-17.7351,-19.18972z" fill="#7c653e"/><path d="M307.87232,145.48176v-44.46196h87.07133v44.46196l-21.45457,-19.42622l-22.7537,13.91486l-17.7351,-19.18972z" fill="#76cc00"/><path d="M315.74941,155.14301c0,-0.85708 0.6948,-1.55189 1.55189,-1.55189c0.85708,0 1.55189,0.6948 1.55189,1.55189c0,0.85708 -0.6948,1.55189 -1.55189,1.55189c-0.85708,0 -1.55189,-0.6948 -1.55189,-1.55189z" fill="#c4a062"/><path d="M371.40524,162.27929c0,-0.85709 0.6948,-1.55188 1.55189,-1.55188c0.85709,0 1.55189,0.6948 1.55189,1.55188c0,0.85709 -0.6948,1.55189 -1.55189,1.55189c-0.85709,0 -1.55189,-0.6948 -1.55189,-1.55189z" fill="#c4a062"/></g></g></g></svg>