<svg version="1.1" xmlns="http://www.w3.org/2000/svg" xmlns:xlink="http://www.w3.org/1999/xlink" width="56.79772" height="232" viewBox="0,0,56.79772,232"><g transform="translate(-189.4423,-64.94054)"><g data-paper-data="{&quot;isPaintingLayer&quot;:true}" fill="#252525" fill-rule="nonzero" stroke="none" stroke-width="0" stroke-linecap="butt" stroke-linejoin="miter" stroke-miterlimit="10" stroke-dasharray="" stroke-dashoffset="0" style="mix-blend-mode: normal"><path d="M219.14026,86.83694c5.56005,6.96501 -1.75718,3.57539 5.43767,17.016c6.2356,11.64863 19.52897,21.94753 21.05361,37.67309c1.16727,12.03962 -4.78166,15.58264 -4.78166,29.06856c0,8.03878 2.27837,21.27733 4.45758,30.61424c2.52631,10.8241 -0.72391,27.10397 -2.16838,35.096c-7.23957,40.05542 -34.57206,60.63571 -47.45677,60.63571c-8.39179,0 -4.35897,-22.51086 1.13011,-55.20462c2.97053,-17.69291 -8.6811,-46.44328 -6.59596,-69.84486c1.74662,-19.60243 0.9648,-63.87617 -0.75197,-88.02186c-0.42232,-5.93984 5.31119,-18.92866 6.21782,-18.92866c3.48691,0 20.00007,17.56475 23.45795,21.8964z" data-paper-data="{&quot;index&quot;:null}"/></g></g></svg>