<svg version="1.1" xmlns="http://www.w3.org/2000/svg" xmlns:xlink="http://www.w3.org/1999/xlink" width="54.69332" height="41.8023" viewBox="0,0,54.69332,41.8023"><g transform="translate(-212.87553,-161.2983)"><g data-paper-data="{&quot;isPaintingLayer&quot;:true}" fill-rule="nonzero" stroke-linecap="butt" stroke-linejoin="miter" stroke-miterlimit="10" stroke-dasharray="" stroke-dashoffset="0" style="mix-blend-mode: normal"><path d="M262.318,194.47338c0,0 -0.18003,2.66103 -0.96895,3.33096c-0.98362,0.83526 -4.47856,1.29488 -4.47856,1.29488l-32.65997,0.18774c0,0 -3.50571,-0.6655 -4.40956,-2.0751c-0.76622,-1.19497 -0.66919,-4.57871 -0.66919,-4.57871l0.48921,-24.29219c0,0 0.03957,-4.0259 0.84953,-4.97233c0.90356,-1.05581 4.3218,-1.07032 4.3218,-1.07032l29.67143,0.20475c0,0 5.00014,-0.10811 6.31993,0.96434c1.29792,1.05468 1.5343,5.41791 1.5343,5.41791v25.58803z" data-paper-data="{&quot;index&quot;:null}" fill="#ff0062" stroke="#b60046" stroke-width="2"/><path d="M252.12199,186.61959v-12.66734l3.36263,-3.29351v15.96085z" data-paper-data="{&quot;index&quot;:null}" fill="#000000" stroke="none" stroke-width="0"/><path d="M246.23736,186.6196v-15.96085l3.36264,3.29351v12.66734z" data-paper-data="{&quot;index&quot;:null}" fill="#000000" stroke="none" stroke-width="0"/><path d="M213.87553,202.1006v-17.21704l9.55618,0.17243l0.01927,9.54031l12.75112,-0.3504l0.55149,-8.21973l10.16943,-0.06712l1.52031,9.0702l11.05898,-0.43346l0.27465,-8.62956l6.59077,-0.13552l0.18943,16.26988z" fill="#7896c5" stroke="#58798b" stroke-width="2"/></g></g></svg>