<svg version="1.1" xmlns="http://www.w3.org/2000/svg" xmlns:xlink="http://www.w3.org/1999/xlink" width="151.22539" height="70.66667" viewBox="0,0,151.22539,70.66667"><g transform="translate(-165.72064,-142.83333)"><g data-paper-data="{&quot;isPaintingLayer&quot;:true}" fill-rule="nonzero" stroke-linejoin="miter" stroke-miterlimit="10" stroke-dasharray="" stroke-dashoffset="0" style="mix-blend-mode: normal"><path d="M316.41358,183.66386c0,16.47805 -33.61457,29.83614 -75.08025,29.83614c-41.46568,0 -75.08025,-13.3581 -75.08025,-29.83614c0,-16.47805 33.61457,-29.83614 75.08025,-29.83614c41.46568,0 75.08025,13.3581 75.08025,29.83614z" fill="#000000" stroke="none" stroke-width="0" stroke-linecap="butt"/><path d="M166.72064,176.0211c0,-17.77681 33.40525,-32.18776 74.6127,-32.18776c41.20745,0 74.6127,14.41096 74.6127,32.18776c0,17.77681 -33.40525,32.18776 -74.6127,32.18776c-41.20745,0 -74.6127,-14.41096 -74.6127,-32.18776z" fill="#3271cd" stroke="#1b259b" stroke-width="2" stroke-linecap="butt"/><path d="M236.01774,166.65817l-27.66667,-13.20567l11,-3.12766l22,14.59574z" fill="#000000" stroke="none" stroke-width="0" stroke-linecap="butt"/><path d="M243.68441,200.65818c-10.09208,0.15565 -11.89172,-20.37385 -11.89172,-20.37385c0,0 5.98321,-1.08585 12.39039,-1.20052c4.94672,-0.08853 10.34812,0.73844 12.18564,0.9939c0.13771,6.87583 -1.08362,20.40156 -12.68431,20.58047z" fill="#a427a6" stroke="#601d61" stroke-width="2" stroke-linecap="butt"/><path d="M198.68441,190.99151c0,0 22.2091,-12.56585 48.6526,-11.89971c23.18143,0.58396 39.01407,10.89971 39.01407,10.89971" fill="none" stroke="#000000" stroke-width="2" stroke-linecap="round"/><path d="M241.35107,164.72909l-22,14.59574l-11,-3.12766l27.66667,-13.20567z" data-paper-data="{&quot;index&quot;:null}" fill="#000000" stroke="none" stroke-width="0" stroke-linecap="butt"/><path d="M247.01774,164.25392l22,-14.59574l11,3.12766l-27.66667,13.20567z" data-paper-data="{&quot;index&quot;:null}" fill="#000000" stroke="none" stroke-width="0" stroke-linecap="butt"/><path d="M252.35107,162.32484l27.66667,13.20567l-11,3.12766l-22,-14.59574z" data-paper-data="{&quot;index&quot;:null}" fill="#000000" stroke="none" stroke-width="0" stroke-linecap="butt"/></g></g></svg>