<svg version="1.1" xmlns="http://www.w3.org/2000/svg" xmlns:xlink="http://www.w3.org/1999/xlink" width="46.71921" height="37.66808" viewBox="0,0,46.71921,37.66808"><g transform="translate(-217.43415,-162.61931)"><g data-paper-data="{&quot;isPaintingLayer&quot;:true}" fill-rule="nonzero" stroke-linejoin="miter" stroke-miterlimit="10" stroke-dasharray="" stroke-dashoffset="0" style="mix-blend-mode: normal"><path d="M263.11062,194.64528c0,0 -0.18995,2.566 -1.0223,3.212c-1.03778,0.80542 -4.72513,1.24863 -4.72513,1.24863l-34.45807,0.18104c0,0 -3.69872,-0.64173 -4.65233,-2.00099c-0.8084,-1.15229 -0.70603,-4.41518 -0.70603,-4.41518l0.51614,-23.42461c0,0 0.04175,-3.88212 0.8963,-4.79475c0.95331,-1.0181 4.55974,-1.03209 4.55974,-1.03209l31.30499,0.19744c0,0 5.27542,-0.10425 6.66787,0.9299c1.36938,1.01701 1.61877,5.22441 1.61877,5.22441v24.67417z" data-paper-data="{&quot;index&quot;:null}" fill="#00ff3f" stroke="#00c230" stroke-width="2" stroke-linecap="butt"/><path d="M251.63488,186.37974v-15.80731l3.48901,-0.0625v15.86981z" data-paper-data="{&quot;index&quot;:null}" fill="#000000" stroke="none" stroke-width="0" stroke-linecap="butt"/><path d="M245.52909,186.37975v-15.86981l3.48902,0.06251v15.80731z" data-paper-data="{&quot;index&quot;:null}" fill="#000000" stroke="none" stroke-width="0" stroke-linecap="butt"/><path d="M242.99246,175.52421v-1.67036h3.41102v1.67036z" fill="#000000" stroke="none" stroke-width="0" stroke-linecap="butt"/><path d="M254.56027,175.6527v-1.54187h2.96611v1.54187z" fill="#000000" stroke="none" stroke-width="0" stroke-linecap="butt"/><path d="M255.30179,191.71382c0,0 -12.69903,1.37225 -17.60486,0.67117c-4.67327,-0.66785 -11.16635,-4.78282 -11.16635,-4.78282" fill="none" stroke="#000000" stroke-width="2" stroke-linecap="round"/></g></g></svg>