<svg version="1.1" xmlns="http://www.w3.org/2000/svg" xmlns:xlink="http://www.w3.org/1999/xlink" width="336.9639" height="222.44099" viewBox="0,0,336.9639,222.44099"><g transform="translate(-156.90854,-141.7452)"><g data-paper-data="{&quot;isPaintingLayer&quot;:true}" fill-rule="nonzero" stroke="none" stroke-linecap="butt" stroke-linejoin="miter" stroke-miterlimit="10" stroke-dasharray="" stroke-dashoffset="0" style="mix-blend-mode: normal"><g><g stroke-width="0"><path d="M400.9079,260.91593v-105h80.6129v105z" fill="#a9b4ff"/><path d="M400.9079,219.59335v-16.93548c0,0 4.80147,1.16686 10.593,-0.67424c8.56762,-2.7236 20.10698,-8.80964 28.0199,-8.80964c6.92139,0 16.99804,5.84328 25.89133,8.25571c8.58204,2.328 16.10867,1.22817 16.10867,1.22817v16.93549c0,0 -10.69637,0.29594 -19.72546,-2.17871c-9.49656,-2.60277 -17.50854,-7.98258 -24.3068,-7.98258c-6.18608,0 -12.28035,4.81185 -19.30236,7.10388c-8.41637,2.74716 -17.27828,3.05741 -17.27828,3.05741z" fill="#7688ff"/><path d="M400.9079,184.36755v-16.93548c0,0 4.80147,1.16686 10.593,-0.67424c8.56762,-2.7236 20.10698,-8.80963 28.0199,-8.80963c6.92139,0 16.99804,5.84327 25.89133,8.2557c8.58204,2.328 16.10867,1.22817 16.10867,1.22817v16.93549c0,0 -10.69637,0.29594 -19.72546,-2.17871c-9.49656,-2.60277 -17.50854,-7.98258 -24.3068,-7.98258c-6.18608,0 -12.28035,4.81185 -19.30236,7.10388c-8.41637,2.74716 -17.27828,3.05741 -17.27828,3.05741z" fill="#7688ff"/><path d="M400.9079,254.81916v-16.93548c0,0 4.80147,1.16686 10.593,-0.67423c8.56762,-2.7236 20.10698,-8.80964 28.0199,-8.80964c6.92139,0 16.99804,5.84328 25.89133,8.25571c8.58204,2.328 16.10867,1.22816 16.10867,1.22816v16.93549c0,0 -10.69637,0.29595 -19.72546,-2.1787c-9.49656,-2.60277 -17.50854,-7.98259 -24.3068,-7.98259c-6.18608,0 -12.28035,4.81184 -19.30236,7.10388c-8.41637,2.74716 -17.27828,3.05741 -17.27828,3.05741z" fill="#7688ff"/></g><path d="M418.90789,142.74926c4.09284,0.13052 8.01835,1.82237 12.19968,2c6.81417,0.28947 13.04443,-2.59253 19.80032,-2.66667c6.59202,-0.07234 17.44667,0.85233 24.91407,0.61994c2.02446,-0.063 4.05279,0.98817 6.09111,1.46469c6.03514,1.4109 10.35427,1.23102 11.82816,8.41537c1.30614,6.36671 -7.52909,8.14978 -9.22917,13.25c-0.91712,2.75136 -0.01022,6.03476 -1.64856,8.60929c-1.46073,2.29543 -4.75351,3.48122 -7.37487,3.68744c-3.90293,0.30703 -6.71413,-5.06408 -9.87305,-6.80763c-3.74927,-2.06939 -7.94566,-2.42604 -12.02976,-3.44706c-0.40417,-0.10104 -2.58857,-1.83885 -2.95817,-1.73737c-5.85385,1.60725 -10.87982,4.69454 -17.37516,3.07071c-2.33403,-0.58351 -6.05002,-5.88291 -8.3446,-5.45871c-8.6853,1.60568 -10.80107,6.61491 -21,5.66667c-7.62785,-0.7092 -8.67011,-8.15289 -7.15775,-14.20234c0.03209,-0.66226 0.15007,-1.30197 0.34305,-1.90824c0.7193,-9.35095 15.54679,-10.75596 21.8147,-10.55608z" fill="#a4ddff" stroke-width="0.5"/></g><g><g stroke-width="0"><path d="M320.65864,260.58259v-105h80.6129v105z" fill="#a9b4ff"/><path d="M320.65864,219.26001v-16.93548c0,0 4.80147,1.16686 10.593,-0.67424c8.56762,-2.7236 20.10698,-8.80964 28.0199,-8.80964c6.92139,0 16.99804,5.84328 25.89133,8.25571c8.58204,2.328 16.10867,1.22817 16.10867,1.22817v16.93549c0,0 -10.69637,0.29594 -19.72546,-2.17871c-9.49656,-2.60277 -17.50854,-7.98258 -24.3068,-7.98258c-6.18608,0 -12.28035,4.81185 -19.30236,7.10388c-8.41637,2.74716 -17.27828,3.05741 -17.27828,3.05741z" fill="#7688ff"/><path d="M320.65864,184.03421v-16.93548c0,0 4.80147,1.16686 10.593,-0.67424c8.56762,-2.7236 20.10698,-8.80963 28.0199,-8.80963c6.92139,0 16.99804,5.84327 25.89133,8.2557c8.58204,2.328 16.10867,1.22817 16.10867,1.22817v16.93549c0,0 -10.69637,0.29594 -19.72546,-2.17871c-9.49656,-2.60277 -17.50854,-7.98258 -24.3068,-7.98258c-6.18608,0 -12.28035,4.81185 -19.30236,7.10388c-8.41637,2.74716 -17.27828,3.05741 -17.27828,3.05741z" fill="#7688ff"/><path d="M320.65864,254.48582v-16.93548c0,0 4.80147,1.16686 10.593,-0.67423c8.56762,-2.7236 20.10698,-8.80964 28.0199,-8.80964c6.92139,0 16.99804,5.84328 25.89133,8.25571c8.58204,2.328 16.10867,1.22816 16.10867,1.22816v16.93549c0,0 -10.69637,0.29595 -19.72546,-2.1787c-9.49656,-2.60277 -17.50854,-7.98259 -24.3068,-7.98259c-6.18608,0 -12.28035,4.81184 -19.30236,7.10388c-8.41637,2.74716 -17.27828,3.05741 -17.27828,3.05741z" fill="#7688ff"/></g><path d="M338.65864,142.41592c4.09284,0.13052 8.01835,1.82237 12.19968,2c6.81417,0.28947 13.04443,-2.59253 19.80032,-2.66667c6.59202,-0.07234 17.44667,0.85233 24.91407,0.61994c2.02446,-0.063 4.05279,0.98817 6.09111,1.46469c6.03514,1.4109 10.35427,1.23102 11.82816,8.41537c1.30614,6.36671 -7.52909,8.14978 -9.22917,13.25c-0.91712,2.75136 -0.01022,6.03476 -1.64856,8.60929c-1.46073,2.29543 -4.75351,3.48122 -7.37487,3.68744c-3.90293,0.30703 -6.71413,-5.06408 -9.87305,-6.80763c-3.74927,-2.06939 -7.94566,-2.42604 -12.02976,-3.44706c-0.40417,-0.10104 -2.58857,-1.83885 -2.95817,-1.73737c-5.85385,1.60725 -10.87982,4.69454 -17.37516,3.07071c-2.33403,-0.58351 -6.05002,-5.88291 -8.3446,-5.45871c-8.6853,1.60568 -10.80107,6.61491 -21,5.66667c-7.62785,-0.7092 -8.67011,-8.15289 -7.15775,-14.20234c0.03209,-0.66226 0.15007,-1.30197 0.34305,-1.90824c0.7193,-9.35095 15.54679,-10.75596 21.8147,-10.55608z" fill="#a4ddff" stroke-width="0.5"/></g><g><g stroke-width="0"><path d="M241.9079,260.91593v-105h80.6129v105z" fill="#a9b4ff"/><path d="M241.9079,219.59335v-16.93548c0,0 4.80147,1.16686 10.593,-0.67424c8.56762,-2.7236 20.10698,-8.80964 28.0199,-8.80964c6.92139,0 16.99804,5.84328 25.89133,8.25571c8.58204,2.328 16.10867,1.22817 16.10867,1.22817v16.93549c0,0 -10.69637,0.29594 -19.72546,-2.17871c-9.49656,-2.60277 -17.50854,-7.98258 -24.3068,-7.98258c-6.18608,0 -12.28035,4.81185 -19.30236,7.10388c-8.41637,2.74716 -17.27828,3.05741 -17.27828,3.05741z" fill="#7688ff"/><path d="M241.9079,184.36755v-16.93548c0,0 4.80147,1.16686 10.593,-0.67424c8.56762,-2.7236 20.10698,-8.80963 28.0199,-8.80963c6.92139,0 16.99804,5.84327 25.89133,8.2557c8.58204,2.328 16.10867,1.22817 16.10867,1.22817v16.93549c0,0 -10.69637,0.29594 -19.72546,-2.17871c-9.49656,-2.60277 -17.50854,-7.98258 -24.3068,-7.98258c-6.18608,0 -12.28035,4.81185 -19.30236,7.10388c-8.41637,2.74716 -17.27828,3.05741 -17.27828,3.05741z" fill="#7688ff"/><path d="M241.9079,254.81916v-16.93548c0,0 4.80147,1.16686 10.593,-0.67423c8.56762,-2.7236 20.10698,-8.80964 28.0199,-8.80964c6.92139,0 16.99804,5.84328 25.89133,8.25571c8.58204,2.328 16.10867,1.22816 16.10867,1.22816v16.93549c0,0 -10.69637,0.29595 -19.72546,-2.1787c-9.49656,-2.60277 -17.50854,-7.98259 -24.3068,-7.98259c-6.18608,0 -12.28035,4.81184 -19.30236,7.10388c-8.41637,2.74716 -17.27828,3.05741 -17.27828,3.05741z" fill="#7688ff"/></g><path d="M259.90789,142.74926c4.09284,0.13052 8.01835,1.82237 12.19968,2c6.81417,0.28947 13.04443,-2.59253 19.80032,-2.66667c6.59202,-0.07234 17.44667,0.85233 24.91407,0.61994c2.02446,-0.063 4.05279,0.98817 6.09111,1.46469c6.03514,1.4109 10.35427,1.23102 11.82816,8.41537c1.30614,6.36671 -7.52909,8.14978 -9.22917,13.25c-0.91712,2.75136 -0.01022,6.03476 -1.64856,8.60929c-1.46073,2.29543 -4.75351,3.48122 -7.37487,3.68744c-3.90293,0.30703 -6.71413,-5.06408 -9.87305,-6.80763c-3.74927,-2.06939 -7.94566,-2.42604 -12.02976,-3.44706c-0.40417,-0.10104 -2.58857,-1.83885 -2.95817,-1.73737c-5.85385,1.60725 -10.87982,4.69454 -17.37516,3.07071c-2.33403,-0.58351 -6.05002,-5.88291 -8.3446,-5.45871c-8.6853,1.60568 -10.80107,6.61491 -21,5.66667c-7.62785,-0.7092 -8.67011,-8.15289 -7.15775,-14.20234c0.03209,-0.66226 0.15007,-1.30197 0.34305,-1.90824c0.7193,-9.35095 15.54679,-10.75596 21.8147,-10.55608z" fill="#a4ddff" stroke-width="0.5"/></g><g><g stroke-width="0"><path d="M161.65865,260.58259v-105h80.6129v105z" fill="#a9b4ff"/><path d="M161.65865,219.26001v-16.93548c0,0 4.80147,1.16686 10.593,-0.67424c8.56762,-2.7236 20.10698,-8.80964 28.0199,-8.80964c6.92139,0 16.99804,5.84328 25.89133,8.25571c8.58204,2.328 16.10867,1.22817 16.10867,1.22817v16.93549c0,0 -10.69637,0.29594 -19.72546,-2.17871c-9.49656,-2.60277 -17.50854,-7.98258 -24.3068,-7.98258c-6.18608,0 -12.28035,4.81185 -19.30236,7.10388c-8.41637,2.74716 -17.27828,3.05741 -17.27828,3.05741z" fill="#7688ff"/><path d="M161.65865,184.03421v-16.93548c0,0 4.80147,1.16686 10.593,-0.67424c8.56762,-2.7236 20.10698,-8.80963 28.0199,-8.80963c6.92139,0 16.99804,5.84327 25.89133,8.2557c8.58204,2.328 16.10867,1.22817 16.10867,1.22817v16.93549c0,0 -10.69637,0.29594 -19.72546,-2.17871c-9.49656,-2.60277 -17.50854,-7.98258 -24.3068,-7.98258c-6.18608,0 -12.28035,4.81185 -19.30236,7.10388c-8.41637,2.74716 -17.27828,3.05741 -17.27828,3.05741z" fill="#7688ff"/><path d="M161.65865,254.48582v-16.93548c0,0 4.80147,1.16686 10.593,-0.67423c8.56762,-2.7236 20.10698,-8.80964 28.0199,-8.80964c6.92139,0 16.99804,5.84328 25.89133,8.25571c8.58204,2.328 16.10867,1.22816 16.10867,1.22816v16.93549c0,0 -10.69637,0.29595 -19.72546,-2.1787c-9.49656,-2.60277 -17.50854,-7.98259 -24.3068,-7.98259c-6.18608,0 -12.28035,4.81184 -19.30236,7.10388c-8.41637,2.74716 -17.27828,3.05741 -17.27828,3.05741z" fill="#7688ff"/></g><path d="M179.65864,142.41592c4.09284,0.13052 8.01835,1.82237 12.19968,2c6.81417,0.28947 13.04443,-2.59253 19.80032,-2.66667c6.59202,-0.07234 17.44667,0.85233 24.91407,0.61994c2.02446,-0.063 4.05279,0.98817 6.09111,1.46469c6.03514,1.4109 10.35427,1.23102 11.82816,8.41537c1.30614,6.36671 -7.52909,8.14978 -9.22917,13.25c-0.91712,2.75136 -0.01022,6.03476 -1.64856,8.60929c-1.46073,2.29543 -4.75351,3.48122 -7.37487,3.68744c-3.90293,0.30703 -6.71413,-5.06408 -9.87305,-6.80763c-3.74927,-2.06939 -7.94566,-2.42604 -12.02976,-3.44706c-0.40417,-0.10104 -2.58857,-1.83885 -2.95817,-1.73737c-5.85385,1.60725 -10.87982,4.69454 -17.37516,3.07071c-2.33403,-0.58351 -6.05002,-5.88291 -8.3446,-5.45871c-8.6853,1.60568 -10.80107,6.61491 -21,5.66667c-7.62785,-0.7092 -8.67011,-8.15289 -7.15775,-14.20234c0.03209,-0.66226 0.15007,-1.30197 0.34305,-1.90824c0.7193,-9.35095 15.54679,-10.75596 21.8147,-10.55608z" fill="#a4ddff" stroke-width="0.5"/></g><g stroke-width="0"><path d="M161.17516,364.18619v-105h80.6129v105z" fill="#a9b4ff"/><path d="M161.17516,322.86361v-16.93548c0,0 4.80147,1.16686 10.593,-0.67423c8.56762,-2.7236 20.10698,-8.80964 28.0199,-8.80964c6.92139,0 16.99805,5.84327 25.89133,8.2557c8.58204,2.328 16.10867,1.22817 16.10867,1.22817v16.93548c0,0 -10.69636,0.29594 -19.72545,-2.1787c-9.49656,-2.60277 -17.50854,-7.98259 -24.3068,-7.98259c-6.18608,0 -12.28035,4.81185 -19.30236,7.10388c-8.41638,2.74717 -17.27829,3.05741 -17.27829,3.05741z" fill="#7688ff"/><path d="M161.17516,287.6378v-16.93548c0,0 4.80147,1.16686 10.593,-0.67424c8.56762,-2.7236 20.10698,-8.80964 28.0199,-8.80964c6.92139,0 16.99805,5.84327 25.89133,8.2557c8.58204,2.328 16.10867,1.22817 16.10867,1.22817v16.93548c0,0 -10.69636,0.29594 -19.72545,-2.1787c-9.49656,-2.60277 -17.50854,-7.98259 -24.30681,-7.98259c-6.18608,0 -12.28035,4.81185 -19.30236,7.10388c-8.41638,2.74717 -17.27829,3.05741 -17.27829,3.05741z" fill="#7688ff"/><path d="M161.17516,358.08942v-16.93548c0,0 4.80147,1.16686 10.593,-0.67424c8.56762,-2.7236 20.10698,-8.80964 28.0199,-8.80964c6.92139,0 16.99805,5.84327 25.89133,8.2557c8.58204,2.328 16.10867,1.22817 16.10867,1.22817v16.93548c0,0 -10.69636,0.29594 -19.72545,-2.1787c-9.49656,-2.60277 -17.50854,-7.98259 -24.30681,-7.98259c-6.18608,0 -12.28035,4.81185 -19.30236,7.10388c-8.41638,2.74717 -17.27829,3.05741 -17.27829,3.05741z" fill="#7688ff"/></g><g stroke-width="0"><path d="M239.25324,364.18619v-105h80.6129v105z" fill="#a9b4ff"/><path d="M239.25324,322.86361v-16.93548c0,0 4.80147,1.16686 10.593,-0.67423c8.56762,-2.7236 20.10698,-8.80964 28.0199,-8.80964c6.92139,0 16.99805,5.84327 25.89133,8.2557c8.58204,2.328 16.10867,1.22817 16.10867,1.22817v16.93548c0,0 -10.69636,0.29594 -19.72545,-2.1787c-9.49656,-2.60277 -17.50854,-7.98259 -24.3068,-7.98259c-6.18608,0 -12.28035,4.81185 -19.30236,7.10388c-8.41638,2.74717 -17.27829,3.05741 -17.27829,3.05741z" fill="#7688ff"/><path d="M239.25324,287.6378v-16.93548c0,0 4.80147,1.16686 10.593,-0.67424c8.56762,-2.7236 20.10698,-8.80964 28.0199,-8.80964c6.92139,0 16.99805,5.84327 25.89133,8.2557c8.58204,2.328 16.10867,1.22817 16.10867,1.22817v16.93548c0,0 -10.69636,0.29594 -19.72545,-2.1787c-9.49656,-2.60277 -17.50854,-7.98259 -24.30681,-7.98259c-6.18608,0 -12.28035,4.81185 -19.30236,7.10388c-8.41638,2.74717 -17.27829,3.05741 -17.27829,3.05741z" fill="#7688ff"/><path d="M239.25324,358.08942v-16.93548c0,0 4.80147,1.16686 10.593,-0.67424c8.56762,-2.7236 20.10698,-8.80964 28.0199,-8.80964c6.92139,0 16.99805,5.84327 25.89133,8.2557c8.58204,2.328 16.10867,1.22817 16.10867,1.22817v16.93548c0,0 -10.69636,0.29594 -19.72545,-2.1787c-9.49656,-2.60277 -17.50854,-7.98259 -24.30681,-7.98259c-6.18608,0 -12.28035,4.81185 -19.30236,7.10388c-8.41638,2.74717 -17.27829,3.05741 -17.27829,3.05741z" fill="#7688ff"/></g><g stroke-width="0"><path d="M318.83282,364.18619v-105h80.6129v105z" fill="#a9b4ff"/><path d="M318.83282,322.86361v-16.93548c0,0 4.80147,1.16686 10.593,-0.67423c8.56762,-2.7236 20.10698,-8.80964 28.0199,-8.80964c6.92139,0 16.99805,5.84327 25.89133,8.2557c8.58204,2.328 16.10867,1.22817 16.10867,1.22817v16.93548c0,0 -10.69636,0.29594 -19.72545,-2.1787c-9.49656,-2.60277 -17.50854,-7.98259 -24.3068,-7.98259c-6.18608,0 -12.28035,4.81185 -19.30236,7.10388c-8.41638,2.74717 -17.27829,3.05741 -17.27829,3.05741z" fill="#7688ff"/><path d="M318.83282,287.6378v-16.93548c0,0 4.80147,1.16686 10.593,-0.67424c8.56762,-2.7236 20.10698,-8.80964 28.0199,-8.80964c6.92139,0 16.99805,5.84327 25.89133,8.2557c8.58204,2.328 16.10867,1.22817 16.10867,1.22817v16.93548c0,0 -10.69636,0.29594 -19.72545,-2.1787c-9.49656,-2.60277 -17.50854,-7.98259 -24.30681,-7.98259c-6.18608,0 -12.28035,4.81185 -19.30236,7.10388c-8.41638,2.74717 -17.27829,3.05741 -17.27829,3.05741z" fill="#7688ff"/><path d="M318.83282,358.08942v-16.93548c0,0 4.80147,1.16686 10.593,-0.67424c8.56762,-2.7236 20.10698,-8.80964 28.0199,-8.80964c6.92139,0 16.99805,5.84327 25.89133,8.2557c8.58204,2.328 16.10867,1.22817 16.10867,1.22817v16.93548c0,0 -10.69636,0.29594 -19.72545,-2.1787c-9.49656,-2.60277 -17.50854,-7.98259 -24.30681,-7.98259c-6.18608,0 -12.28035,4.81185 -19.30236,7.10388c-8.41638,2.74717 -17.27829,3.05741 -17.27829,3.05741z" fill="#7688ff"/></g><g stroke-width="0"><path d="M396.9109,364.18619v-105h80.6129v105z" fill="#a9b4ff"/><path d="M396.9109,322.86361v-16.93548c0,0 4.80147,1.16686 10.593,-0.67423c8.56762,-2.7236 20.10698,-8.80964 28.0199,-8.80964c6.92139,0 16.99805,5.84327 25.89133,8.2557c8.58204,2.328 16.10867,1.22817 16.10867,1.22817v16.93548c0,0 -10.69636,0.29594 -19.72545,-2.1787c-9.49656,-2.60277 -17.50854,-7.98259 -24.3068,-7.98259c-6.18608,0 -12.28035,4.81185 -19.30236,7.10388c-8.41638,2.74717 -17.27829,3.05741 -17.27829,3.05741z" fill="#7688ff"/><path d="M396.9109,287.6378v-16.93548c0,0 4.80147,1.16686 10.593,-0.67424c8.56762,-2.7236 20.10698,-8.80964 28.0199,-8.80964c6.92139,0 16.99805,5.84327 25.89133,8.2557c8.58204,2.328 16.10867,1.22817 16.10867,1.22817v16.93548c0,0 -10.69636,0.29594 -19.72545,-2.1787c-9.49656,-2.60277 -17.50854,-7.98259 -24.30681,-7.98259c-6.18608,0 -12.28035,4.81185 -19.30236,7.10388c-8.41638,2.74717 -17.27829,3.05741 -17.27829,3.05741z" fill="#7688ff"/><path d="M396.9109,358.08942v-16.93548c0,0 4.80147,1.16686 10.593,-0.67424c8.56762,-2.7236 20.10698,-8.80964 28.0199,-8.80964c6.92139,0 16.99805,5.84327 25.89133,8.2557c8.58204,2.328 16.10867,1.22817 16.10867,1.22817v16.93548c0,0 -10.69636,0.29594 -19.72545,-2.1787c-9.49656,-2.60277 -17.50854,-7.98259 -24.30681,-7.98259c-6.18608,0 -12.28035,4.81185 -19.30236,7.10388c-8.41638,2.74717 -17.27829,3.05741 -17.27829,3.05741z" fill="#7688ff"/></g></g></g></svg>