<svg version="1.1" xmlns="http://www.w3.org/2000/svg" xmlns:xlink="http://www.w3.org/1999/xlink" width="392.47921" height="257.69481" viewBox="0,0,392.47921,257.69481"><defs><linearGradient x1="234.19445" y1="130.65625" x2="234.19445" y2="251.65626" gradientUnits="userSpaceOnUse" id="color-1"><stop offset="0" stop-color="#00ff6a"/><stop offset="1" stop-color="#004a2d"/></linearGradient><linearGradient x1="234.19445" y1="130.65625" x2="234.19445" y2="251.65626" gradientUnits="userSpaceOnUse" id="color-2"><stop offset="0" stop-color="#004e2e"/><stop offset="1" stop-color="#00fa69"/></linearGradient><linearGradient x1="182.42329" y1="138.35107" x2="182.42329" y2="183.42663" gradientTransform="translate(-75.45172,-176.26139) scale(1.02385,1.02385)" gradientUnits="userSpaceOnUse" id="color-3"><stop offset="0" stop-color="#0400ff"/><stop offset="1" stop-color="#009cfc"/></linearGradient><linearGradient x1="128.86965" y1="177.48167" x2="128.86965" y2="212.48173" gradientTransform="translate(-71.02108,-279.40303) scale(0.64934,1.37142)" gradientUnits="userSpaceOnUse" id="color-4"><stop offset="0" stop-color="#009cff"/><stop offset="1" stop-color="#ff0000"/></linearGradient><linearGradient x1="128.86965" y1="178.49334" x2="128.86965" y2="212.14452" gradientTransform="translate(-71.02108,-279.40303) scale(0.64934,1.37142)" gradientUnits="userSpaceOnUse" id="color-5"><stop offset="0" stop-color="#0414ff"/><stop offset="1" stop-color="#590000"/></linearGradient><linearGradient x1="199.20169" y1="175.37343" x2="198.55382" y2="184.08031" gradientUnits="userSpaceOnUse" id="color-6"><stop offset="0" stop-color="#3a3a3a"/><stop offset="1" stop-color="#626262"/></linearGradient><linearGradient x1="199.20169" y1="175.37343" x2="198.55382" y2="184.08031" gradientUnits="userSpaceOnUse" id="color-7"><stop offset="0" stop-color="#282828"/><stop offset="1" stop-color="#929292"/></linearGradient><linearGradient x1="242.88123" y1="177.48167" x2="242.88123" y2="212.48173" gradientTransform="translate(-146.99412,-279.40303) scale(0.64934,1.37142)" gradientUnits="userSpaceOnUse" id="color-8"><stop offset="0" stop-color="#009cff"/><stop offset="1" stop-color="#ff0000"/></linearGradient><linearGradient x1="245.86887" y1="178.49334" x2="245.86887" y2="212.14452" gradientTransform="translate(-146.99412,-279.40303) scale(0.64934,1.37142)" gradientUnits="userSpaceOnUse" id="color-9"><stop offset="0" stop-color="#0414ff"/><stop offset="1" stop-color="#5b0000"/></linearGradient><linearGradient x1="183.24669" y1="207.28945" x2="183.24669" y2="248.34547" gradientTransform="translate(-76.79989,-278.34918) scale(1.05387,1.16914)" gradientUnits="userSpaceOnUse" id="color-10"><stop offset="0" stop-color="#860000"/><stop offset="1" stop-color="#4a0000"/></linearGradient><linearGradient x1="345.34017" y1="116.98078" x2="345.34017" y2="274.47872" gradientTransform="translate(-62.63158,-71.65175) scale(0.2124,0.30476)" gradientUnits="userSpaceOnUse" id="color-11"><stop offset="0" stop-color="#009cff"/><stop offset="1" stop-color="#ff0000"/></linearGradient><linearGradient x1="354.47376" y1="121.53324" x2="354.47376" y2="272.9613" gradientTransform="translate(-62.63158,-71.65175) scale(0.2124,0.30476)" gradientUnits="userSpaceOnUse" id="color-12"><stop offset="0" stop-color="#0414ff"/><stop offset="1" stop-color="#5b0000"/></linearGradient></defs><g transform="translate(-46.50595,-64.32253)"><g data-paper-data="{&quot;isPaintingLayer&quot;:true}" fill-rule="nonzero" stroke-linejoin="miter" stroke-miterlimit="10" stroke-dasharray="" stroke-dashoffset="0" style="mix-blend-mode: normal"><g><path d="M278.6286,235.07255c0,44.04471 -35.70529,79.75 -79.75,79.75c-44.04471,0 -79.75,-35.70529 -79.75,-79.75c0,-44.04471 35.70529,-79.75 79.75,-79.75c44.04471,0 79.75,35.70529 79.75,79.75z" data-paper-data="{&quot;index&quot;:null}" fill="#ff001e" stroke="#9e0000" stroke-width="5" stroke-linecap="butt"/><path d="M226.25547,270.78153c0,-13.14767 2.13166,-23.80597 4.76119,-23.80597c2.62953,0 4.76119,10.6583 4.76119,23.80597c0,13.14767 -2.13165,23.80597 -4.76119,23.80597c-2.62953,0 -4.76119,-10.6583 -4.76119,-23.80597z" data-paper-data="{&quot;index&quot;:null}" fill="#000000" stroke="none" stroke-width="0" stroke-linecap="butt"/><path d="M206.52038,272.47184c0,-13.76592 2.39813,-24.92538 5.35635,-24.92538c2.95823,0 5.35635,11.15947 5.35635,24.92538c0,13.76592 -2.39813,24.92538 -5.35635,24.92538c-2.95823,0 -5.35635,-11.15947 -5.35635,-24.92538z" data-paper-data="{&quot;index&quot;:null}" fill="#000000" stroke="none" stroke-width="0" stroke-linecap="butt"/><path d="M191.2315,306.42632c0,0 6.37899,-0.1205 12.16363,-3.45216c4.52871,-2.60831 8.30606,-8.21702 10.94566,-10.41669c2.21907,-1.84922 6.55738,1.86885 6.55738,1.86885c0,0 4.65933,-3.83789 6.02145,-2.64413c1.99095,1.74487 2.14843,5.02503 4.25403,7.33417c2.45809,2.6957 6.72453,4.30996 6.72453,4.30996" data-paper-data="{&quot;index&quot;:null}" fill="none" stroke="#9e0000" stroke-width="4" stroke-linecap="round"/></g><path d="M152.12858,146.57254c0,-44.04471 35.70529,-79.75 79.75,-79.75c44.04471,0 79.75,35.70529 79.75,79.75c0,44.04471 -35.70529,79.75 -79.75,79.75c-44.04471,0 -79.75,-35.70529 -79.75,-79.75z" fill="#0068ff" stroke="#0010c7" stroke-width="5" stroke-linecap="butt"/><path d="M204.50173,110.86355c0,13.14767 -2.13166,23.80597 -4.76119,23.80597c-2.62954,0 -4.76119,-10.6583 -4.76119,-23.80597c0,-13.14767 2.13166,-23.80597 4.76119,-23.80597c2.62954,0 4.76119,10.6583 4.76119,23.80597z" fill="#000000" stroke="none" stroke-width="0" stroke-linecap="butt"/><path d="M224.2368,109.17326c0,13.76591 -2.39812,24.92537 -5.35634,24.92537c-2.95823,0 -5.35634,-11.15946 -5.35634,-24.92537c0,-13.76591 2.39812,-24.92537 5.35634,-24.92537c2.95823,0 5.35634,11.15946 5.35634,24.92537z" fill="#000000" stroke="none" stroke-width="0" stroke-linecap="butt"/><path d="M47.69445,251.65626l21,-121h352l-20,121z" fill="url(#color-1)" stroke="url(#color-2)" stroke-width="2" stroke-linecap="butt"/><text transform="translate(73.69445,172.15627) scale(0.97671,0.97671)" font-size="40" xml:space="preserve" fill="#009cff" fill-rule="nonzero" stroke="url(#color-3)" stroke-width="1" stroke-linecap="butt" stroke-linejoin="miter" stroke-miterlimit="10" stroke-dasharray="" stroke-dashoffset="0" font-family="Sans Serif" font-weight="normal" text-anchor="start" style="mix-blend-mode: normal"><tspan x="0" dy="0">BLUEBALL'S</tspan></text><text transform="translate(109.37388,203.73231) scale(1.54002,0.72917)" font-size="40" xml:space="preserve" fill="url(#color-4)" fill-rule="nonzero" stroke="url(#color-5)" stroke-width="1" stroke-linecap="butt" stroke-linejoin="miter" stroke-miterlimit="10" stroke-dasharray="" stroke-dashoffset="0" font-family="Sans Serif" font-weight="normal" text-anchor="start" style="mix-blend-mode: normal"><tspan x="0" dy="0">C</tspan></text><path d="M152,192.25849c0,-8.23357 6.67462,-14.9082 14.9082,-14.9082c8.23357,0 14.9082,6.67463 14.9082,14.9082c0,8.23357 -6.67463,14.9082 -14.9082,14.9082c-8.23357,0 -14.9082,-6.67463 -14.9082,-14.9082z" fill="#0068ff" stroke="#0010c7" stroke-width="1" stroke-linecap="butt"/><path d="M165.47953,190.678c0,2.74452 -0.52695,4.9694 -1.17696,4.9694c-0.65002,0 -1.17696,-2.22489 -1.17696,-4.9694c0,-2.74452 0.52695,-4.9694 1.17696,-4.9694c0.65002,0 1.17696,2.22489 1.17696,4.9694z" fill="#000000" stroke="none" stroke-width="1" stroke-linecap="butt"/><path d="M169.50668,190.67798c0,2.74452 -0.52695,4.9694 -1.17696,4.9694c-0.65002,0 -1.17696,-2.22488 -1.17696,-4.9694c0,-2.74452 0.52695,-4.9694 1.17696,-4.9694c0.65002,0 1.17696,2.22489 1.17696,4.9694z" fill="#000000" stroke="none" stroke-width="1" stroke-linecap="butt"/><path d="M172.09894,199.42224c0.49074,1.23177 -3.43963,3.40759 -7.39602,3.40759c-3.95639,0 -8.45278,-2.20392 -7.00878,-5.03393c1.57266,-3.08218 2.35539,0.38723 6.31179,0.38723c3.95639,0 7.16368,-1.0936 8.09302,1.23912z" fill="#ffffff" stroke="#888888" stroke-width="1" stroke-linecap="butt"/><path d="M161.72129,198.33801l-1.08423,3.17526" fill="none" stroke="#888888" stroke-width="1" stroke-linecap="round"/><path d="M167.68455,201.90049l-0.61956,-3.56248" fill="none" stroke="#888888" stroke-width="1" stroke-linecap="round"/><path d="M190.06367,201.58952v-18.46646c0,0 0.14858,-3.14888 0.96435,-3.91002c0.82952,-0.77397 3.97225,-0.69594 3.97225,-0.69594l18.64927,-0.14777c0,0 2.14845,0.01047 2.71636,0.77243c0.50908,0.68302 0.53396,3.58845 0.53396,3.58845l0.30748,17.53127c0,0 0.06099,2.44198 -0.42061,3.30437c-0.56809,1.01728 -2.77152,1.49757 -2.77152,1.49757l-20.52765,-0.13548c0,0 -2.19666,-0.33171 -2.81488,-0.9345c-0.49586,-0.48347 -0.60901,-2.4039 -0.60901,-2.4039z" data-paper-data="{&quot;index&quot;:null}" fill="#00ff3f" stroke="#00c230" stroke-width="1" stroke-linecap="butt"/><path d="M198.18915,194.72895v-11.51869l2.19403,0.04536v11.47333z" data-paper-data="{&quot;index&quot;:null}" fill="#000000" stroke="none" stroke-width="1" stroke-linecap="butt"/><path d="M202.02871,194.72895v-11.47331l2.19404,-0.04537v11.51869z" data-paper-data="{&quot;index&quot;:null}" fill="#000000" stroke="none" stroke-width="1" stroke-linecap="butt"/><path d="M188.08883,183.30163l0.64786,-8.70688l20.92999,1.55737l8.15123,2.45856l-0.56677,2.28174l-7.32478,-1.82654l-0.90756,5.79312l-9.31619,-0.29657l-1.39845,-5.04659l-1.17359,4.45858z" fill="url(#color-6)" stroke="url(#color-7)" stroke-width="1" stroke-linecap="butt"/><path d="M203.67289,186.84975v-1.21239h2.14499v1.21239z" data-paper-data="{&quot;index&quot;:null}" fill="#000000" stroke="none" stroke-width="1" stroke-linecap="butt"/><path d="M196.67836,186.94301v-1.11912h1.86521v1.11912z" data-paper-data="{&quot;index&quot;:null}" fill="#000000" stroke="none" stroke-width="1" stroke-linecap="butt"/><path d="M212.15812,196.80888c0,0 -4.08311,2.98673 -7.02185,3.47148c-3.08499,0.50886 -11.07065,-0.48715 -11.07065,-0.48715" data-paper-data="{&quot;index&quot;:null}" fill="none" stroke="#000000" stroke-width="1" stroke-linecap="round"/><path d="M195.17355,181.5596l5.74643,1.08423" fill="none" stroke="#000000" stroke-width="1" stroke-linecap="round"/><path d="M201.35368,175.59631c0,0 0.49103,-2.57996 2.25109,-2.45168c2.00026,0.14578 1.54372,3.10223 1.54372,3.10223" fill="none" stroke="#000000" stroke-width="1" stroke-linecap="round"/><text transform="translate(226.37388,203.73231) scale(1.54002,0.72917)" font-size="40" xml:space="preserve" fill="url(#color-8)" fill-rule="nonzero" stroke="url(#color-9)" stroke-width="1" stroke-linecap="butt" stroke-linejoin="miter" stroke-miterlimit="10" stroke-dasharray="" stroke-dashoffset="0" font-family="Sans Serif" font-weight="normal" text-anchor="start" style="mix-blend-mode: normal"><tspan x="0" dy="0">L</tspan></text><text transform="translate(72.87388,238.08041) scale(0.94888,0.85533)" font-size="40" xml:space="preserve" data-paper-data="{&quot;index&quot;:null}" fill="#ff0000" fill-rule="nonzero" stroke="url(#color-10)" stroke-width="2" stroke-linecap="butt" stroke-linejoin="miter" stroke-miterlimit="10" stroke-dasharray="" stroke-dashoffset="0" font-family="Sans Serif" font-weight="normal" text-anchor="start" style="mix-blend-mode: normal"><tspan x="0" dy="0">ADVENTURE</tspan></text><text transform="translate(294.87388,235.10731) scale(4.70807,3.28125)" font-size="40" xml:space="preserve" fill="url(#color-11)" fill-rule="nonzero" stroke="url(#color-12)" stroke-width="1" stroke-linecap="butt" stroke-linejoin="miter" stroke-miterlimit="10" stroke-dasharray="" stroke-dashoffset="0" font-family="Sans Serif" font-weight="normal" text-anchor="start" style="mix-blend-mode: normal"><tspan x="0" dy="0">2</tspan></text><text transform="translate(295.69443,315.65623) scale(0.5,0.5)" font-size="40" xml:space="preserve" fill="#ffffff" fill-rule="nonzero" stroke="none" stroke-width="1" stroke-linecap="butt" stroke-linejoin="miter" stroke-miterlimit="10" stroke-dasharray="" stroke-dashoffset="0" font-family="Sans Serif" font-weight="normal" text-anchor="start" style="mix-blend-mode: normal"><tspan x="0" dy="0">PRESS SPACE</tspan></text><text transform="translate(288.66333,289.43277) rotate(-10.12226) scale(1.41008,1.41008)" font-size="40" xml:space="preserve" fill="#ff0000" fill-rule="nonzero" stroke="none" stroke-width="1" stroke-linecap="butt" stroke-linejoin="miter" stroke-miterlimit="10" stroke-dasharray="" stroke-dashoffset="0" font-family="Marker" font-weight="normal" text-anchor="start" style="mix-blend-mode: normal"><tspan x="0" dy="0">DEMO</tspan></text></g></g></svg>