<svg version="1.1" xmlns="http://www.w3.org/2000/svg" xmlns:xlink="http://www.w3.org/1999/xlink" width="406.51062" height="262.95454" viewBox="0,0,406.51062,262.95454"><g transform="translate(-78.00568,-72.56174)"><g data-paper-data="{&quot;isPaintingLayer&quot;:true}" fill-rule="nonzero" stroke-linecap="butt" stroke-linejoin="miter" stroke-miterlimit="10" stroke-dasharray="" stroke-dashoffset="0" style="mix-blend-mode: normal"><path d="M353.64674,134.47434c0,10.6803 -32.02914,32.77487 -32.02914,32.77487c0,0 -0.43336,10.26442 2.00428,15.00616c3.33902,6.49511 16.19065,20.38691 16.19065,20.38691c0,0 -29.11611,-1.46191 -39.96836,-3.86139c-9.65973,-2.13581 -21.98496,-9.83677 -21.98496,-9.83677c0,0 -39.41028,6.44283 -61.533,6.44283c-75.84003,0 -137.32052,-27.27151 -137.32052,-60.91261c0,-33.6411 61.48049,-60.9126 137.32052,-60.9126c75.84003,0 137.32052,27.2715 137.32052,60.9126z" fill="#ffffff" stroke="#00c1ff" stroke-width="2"/><path d="M399.21131,332.37881c-36.10772,-9.27215 -57.86224,-46.05981 -48.59009,-82.16753c9.27215,-36.10772 46.05981,-57.86224 82.16753,-48.59009c36.10772,9.27215 57.86224,46.05981 48.59009,82.16753c-9.27215,36.10772 -46.05981,57.86224 -82.16753,48.59009z" data-paper-data="{&quot;index&quot;:null}" fill="#0068ff" stroke="#0010c7" stroke-width="2"/><path d="M396.09857,242.49409c2.85059,0.73201 2.65595,11.08246 -0.43477,23.11837c-3.09071,12.0359 -7.90711,21.19954 -10.75772,20.46752c-2.85059,-0.73201 -2.65595,-11.08247 0.43477,-23.11837c3.09071,-12.0359 7.90711,-21.19954 10.75772,-20.46752z" data-paper-data="{&quot;index&quot;:null}" fill="#ff0000" stroke="none" stroke-width="0"/><path d="M366.71699,278.3526c-1.90041,-0.48801 -1.26515,-9.35683 1.41889,-19.80907c2.68405,-10.45224 6.4005,-18.52984 8.3009,-18.04184c1.9004,0.488 1.26514,9.35684 -1.4189,19.80908c-2.68405,10.45224 -6.40049,18.52984 -8.30088,18.04183z" data-paper-data="{&quot;index&quot;:null}" fill="#ff0000" stroke="none" stroke-width="0"/><path d="M375.78555,281.61525c-1.62549,6.32999 -7.13512,10.38502 -12.3061,9.05716c-5.17098,-1.32786 -8.04518,-7.53579 -6.41969,-13.86578c1.62549,-6.32999 7.13512,-10.38502 12.3061,-9.05716c5.17098,1.32786 8.04518,7.53579 6.41969,13.86579z" fill="#0068ff" stroke="none" stroke-width="0"/><path d="M360.76271,247.64454l13.16388,-23.11903l44.24913,8.60961l-7.04712,27.44295l-33.44256,8.2755z" fill="#0068ff" stroke="none" stroke-width="0"/><path d="M444.01775,318.99151c0,9.20475 -15.01369,7.66666 -29.83333,7.66666c-14.81964,0 -30.5,2.20475 -30.5,-7c0,-9.20475 15.01369,-27.33334 29.83333,-27.33334c14.81964,0 30.5,17.46192 30.5,26.66667z" fill="#620018" stroke="#270013" stroke-width="2"/><text transform="translate(117.05749,156.56079) rotate(-8.22804) scale(0.83045,0.83045)" font-size="40" xml:space="preserve" fill="#ff0000" fill-rule="nonzero" stroke="none" stroke-width="1" stroke-linecap="butt" stroke-linejoin="miter" stroke-miterlimit="10" stroke-dasharray="" stroke-dashoffset="0" font-family="Marker" font-weight="normal" text-anchor="start" style="mix-blend-mode: normal"><tspan x="0" dy="0">AAAUGH!!!!</tspan></text></g></g></svg>