<svg version="1.1" xmlns="http://www.w3.org/2000/svg" xmlns:xlink="http://www.w3.org/1999/xlink" width="465.46382" height="306.2592" viewBox="0,0,465.46382,306.2592"><g transform="translate(23.30557,-27.15147)"><g data-paper-data="{&quot;isPaintingLayer&quot;:true}" fill-rule="nonzero" stroke-linejoin="miter" stroke-miterlimit="10" stroke-dasharray="" stroke-dashoffset="0" style="mix-blend-mode: normal"><path d="M440.15825,180.28107c0,83.4666 -67.24537,151.1296 -150.19669,151.1296c-82.95132,0 -150.19669,-67.66301 -150.19669,-151.1296c0,-83.4666 67.24537,-151.1296 150.19669,-151.1296c82.95132,0 150.19669,67.66301 150.19669,151.1296z" fill="#ff001e" stroke="#9e0000" stroke-width="4" stroke-linecap="butt"/><path d="M318.8415,131.22742c6.42084,29.18515 8.36262,53.56228 4.33707,54.44791c-4.02555,0.88563 -12.49399,-22.05568 -18.91481,-51.24076c-6.42084,-29.18515 -8.36262,-53.56228 -4.33707,-54.44791c4.02555,-0.88563 12.49399,22.05568 18.91481,51.24076z" fill="#000000" stroke="#000000" stroke-width="4" stroke-linecap="butt"/><path d="M350.62402,124.50823c-7.41053,-27.88472 -10.59232,-51.24073 -7.10676,-52.16704c3.48562,-0.92632 12.31864,20.92784 19.72917,48.81256c7.41053,27.88472 10.59232,51.24073 7.10676,52.16704c-3.48562,0.92632 -12.31864,-20.92784 -19.72917,-48.81256z" fill="#000000" stroke="#000000" stroke-width="4" stroke-linecap="butt"/><path d="M247.69443,163.65623c0,0 29.7843,-6.12175 45.28718,48.19963c13.64452,47.80978 -17.28718,61.80037 -17.28718,61.80037" fill="none" stroke="#9e0000" stroke-width="4" stroke-linecap="round"/><path d="M235.69443,60.65623c0,0 34.60613,-5.06297 57.98098,14.0233c16.16153,13.19638 26.73446,33.50801 33.17894,37.40303c7.23749,4.37431 4.84008,-14.42632 4.84008,-14.42632c0,0 9.12336,14.50706 12.92964,5.96864c3.79706,-8.51774 2.35852,-24.70145 6.49682,-39.85215c3.21669,-11.7766 7.57353,-17.11649 7.57353,-17.11649" fill="#ff001e" stroke="#9e0000" stroke-width="4" stroke-linecap="round"/><path d="M296.69443,222.65623c0,0 55.15318,-12.59329 76.91145,-10.1962c15.02163,1.65493 41.08855,23.1962 41.08855,23.1962" fill="none" stroke="#9e0000" stroke-width="4" stroke-linecap="round"/><path d="M272.69443,228.15623c0,27.89038 -21.26647,50.5 -47.5,50.5c-26.23353,0 -47.5,-22.60962 -47.5,-50.5c0,-27.89038 21.26647,-50.5 47.5,-50.5c26.23353,0 47.5,22.60962 47.5,50.5z" fill="#ff2b44" stroke="none" stroke-width="0" stroke-linecap="butt"/><ellipse cx="-46.61115" cy="249.31247" transform="scale(0.5,0.5)" rx="0" ry="0" fill="#ff2b44" stroke="none" stroke-width="0" stroke-linecap="butt"/></g></g></svg>