<svg version="1.1" xmlns="http://www.w3.org/2000/svg" xmlns:xlink="http://www.w3.org/1999/xlink" width="134" height="127" viewBox="0,0,134,127"><g transform="translate(-173,-86.5)"><g data-paper-data="{&quot;isPaintingLayer&quot;:true}" fill-rule="nonzero" stroke-linejoin="miter" stroke-miterlimit="10" stroke-dasharray="" stroke-dashoffset="0" style="mix-blend-mode: normal"><path d="M306.41358,159.53798c0,29.8024 -29.73437,53.96202 -66.41358,53.96202c-36.67921,0 -66.41358,-24.15962 -66.41358,-53.96202c0,-29.8024 29.73437,-53.96202 66.41358,-53.96202c36.67921,0 66.41358,24.15962 66.41358,53.96202z" fill="#000000" stroke="none" stroke-width="0" stroke-linecap="butt"/><path d="M174,145.71519c0,-32.15136 29.54921,-58.21519 66,-58.21519c36.45079,0 66,26.06383 66,58.21519c0,32.15136 -29.54921,58.21519 -66,58.21519c-36.45079,0 -66,-26.06383 -66,-58.21519z" fill="#3271cd" stroke="#1b259b" stroke-width="2" stroke-linecap="butt"/><path d="M243.35108,187.32485c-10.09208,0.15565 -11.89172,-20.37385 -11.89172,-20.37385c0,0 5.98321,-1.08585 12.39039,-1.20052c4.94672,-0.08853 10.34812,0.73844 12.18564,0.9939c0.13771,6.87583 -1.08362,20.40156 -12.68431,20.58047z" fill="#a300a6" stroke="#5f0061" stroke-width="2" stroke-linecap="butt"/><path d="M198.35108,177.65818c0,0 22.2091,-12.56585 48.6526,-11.89971c23.18143,0.58396 39.01407,10.89971 39.01407,10.89971" fill="none" stroke="#000000" stroke-width="2" stroke-linecap="round"/><path d="M236.35107,134.49151c0,9.29679 -2.3132,16.83333 -5.16667,16.83333c-2.85347,0 -5.16667,-7.53654 -5.16667,-16.83333c0,-9.29679 2.3132,-16.83333 5.16667,-16.83333c2.85347,0 5.16667,7.53654 5.16667,16.83333z" fill="#000000" stroke="none" stroke-width="0" stroke-linecap="butt"/><path d="M261.01774,134.65818c0,9.57294 -1.86548,17.33333 -4.16667,17.33333c-2.30119,0 -4.16667,-7.7604 -4.16667,-17.33333c0,-9.57294 1.86548,-17.33333 4.16667,-17.33333c2.30119,0 4.16667,7.7604 4.16667,17.33333z" fill="#000000" stroke="none" stroke-width="0" stroke-linecap="butt"/></g></g></svg>