<svg version="1.1" xmlns="http://www.w3.org/2000/svg" xmlns:xlink="http://www.w3.org/1999/xlink" width="54.69296" height="50.95864" viewBox="0,0,54.69296,50.95864"><g transform="translate(-218.26301,-150.55382)"><g data-paper-data="{&quot;isPaintingLayer&quot;:true}" fill-rule="nonzero" stroke-width="2" stroke-linecap="butt" stroke-linejoin="miter" stroke-miterlimit="10" stroke-dasharray="" stroke-dashoffset="0" style="mix-blend-mode: normal"><path d="M257.58509,161.62057c2.01842,6.53042 1.10874,12.61125 -2.03184,13.58194c-3.14058,0.97069 -7.32278,-3.53634 -9.3412,-10.06675c-2.01842,-6.5304 -1.10874,-12.61125 2.03184,-13.58194c3.14058,-0.97069 7.32278,3.53634 9.3412,10.06675z" data-paper-data="{&quot;index&quot;:null}" fill="#c57eff" stroke="#864ab8"/><path d="M240.93494,200.51246l-7.8018,-7.18971l0.30028,-24.96665l6.80802,-6.03167l22.98722,-0.25199l8.351,7.85996l0.24705,4.72578l-3.87426,-3.66844l-0.15805,7.64596l-6.27736,-6.22177l0.26365,7.7112l-5.21729,-5.03912l-7.9142,5.59202l6.77927,6.97776l6.27668,-4.64055l0.6492,7.23045l5.50879,-5.02131l-0.21021,5.459l3.97976,-3.78201l0.01919,6.13816l-7.25237,7.47288z" data-paper-data="{&quot;index&quot;:null}" fill="#8c00ff" stroke="#6500b8"/><path d="M233.0781,159.01463c4.57711,5.07643 6.30851,10.97615 3.86716,13.17735c-2.44133,2.2012 -8.13091,-0.12964 -12.70804,-5.20607c-4.57711,-5.07643 -6.30851,-10.97615 -3.86716,-13.17735c2.44133,-2.2012 8.13091,0.12964 12.70804,5.20607z" data-paper-data="{&quot;index&quot;:null}" fill="#c57eff" stroke="#864ab8"/></g></g></svg>