<svg version="1.1" xmlns="http://www.w3.org/2000/svg" xmlns:xlink="http://www.w3.org/1999/xlink" width="680.18018" height="460.96096" viewBox="0,0,680.18018,460.96096"><g transform="translate(88.07655,49.72973)"><g data-paper-data="{&quot;isPaintingLayer&quot;:true}" fill-rule="nonzero" stroke="none" stroke-linecap="butt" stroke-linejoin="miter" stroke-miterlimit="10" stroke-dasharray="" stroke-dashoffset="0" style="mix-blend-mode: normal"><path d="M-88.07655,411.23123v-460.96096h680.18018v460.96096z" fill="#e2e2e2" stroke-width="NaN"/><path d="" fill="#9e9e9e" stroke-width="0.5"/><text transform="translate(6.51654,47.49249) scale(1.99193,1.18324)" font-size="40" xml:space="preserve" fill="#3b3b3b" fill-rule="nonzero" stroke="none" stroke-width="1" stroke-linecap="butt" stroke-linejoin="miter" stroke-miterlimit="10" stroke-dasharray="" stroke-dashoffset="0" font-family="Serif" font-weight="normal" text-anchor="start" style="mix-blend-mode: normal"><tspan x="0" dy="0">YOUR GOAL</tspan></text><path d="M281.00001,156.5c0,-50.53406 40.96594,-91.5 91.5,-91.5c50.53405,0 91.5,40.96594 91.5,91.5c0,50.53406 -40.96595,91.5 -91.5,91.5c-50.53406,0 -91.5,-40.96594 -91.5,-91.5zM370.47604,182.8025c16.3013,0 29.51613,-13.21483 29.51613,-29.51613c0,-16.3013 -13.21483,-29.51613 -29.51613,-29.51613c-16.3013,0 -29.51613,13.21483 -29.51613,29.51613c0,16.3013 13.21483,29.51613 29.51613,29.51613z" fill="#b8b8b8" stroke-width="0"/><text transform="translate(13.50002,74) scale(0.49464,0.5)" font-size="40" xml:space="preserve" fill="#3b3b3b" fill-rule="nonzero" stroke="none" stroke-width="1" stroke-linecap="butt" stroke-linejoin="miter" stroke-miterlimit="10" stroke-dasharray="" stroke-dashoffset="0" font-family="Serif" font-weight="normal" text-anchor="start" style="mix-blend-mode: normal"><tspan x="0" dy="0">There is a golden disc at the end</tspan><tspan x="0" dy="46.150000000000006px">of each and every level. When</tspan><tspan x="0" dy="46.150000000000006px">you touch it. You get transported</tspan><tspan x="0" dy="46.150000000000006px">to the next level, and have your </tspan><tspan x="0" dy="46.150000000000006px">score tallied. As mentioned in the</tspan><tspan x="0" dy="46.150000000000006px">previous page, getting to the goal</tspan><tspan x="0" dy="46.150000000000006px">with a bonus key sends you to a</tspan><tspan x="0" dy="46.150000000000006px">bonus stage to earn much more </tspan><tspan x="0" dy="46.150000000000006px">points.</tspan></text></g></g></svg>