<svg version="1.1" xmlns="http://www.w3.org/2000/svg" xmlns:xlink="http://www.w3.org/1999/xlink" width="57" height="57" viewBox="0,0,57,57"><g transform="translate(-211.5,-151.5)"><g data-paper-data="{&quot;isPaintingLayer&quot;:true}" fill-rule="nonzero" stroke-linejoin="miter" stroke-miterlimit="10" stroke-dasharray="" stroke-dashoffset="0" style="mix-blend-mode: normal"><g><path d="M212.5,180c0,-15.18783 12.31217,-27.5 27.5,-27.5c15.18783,0 27.5,12.31217 27.5,27.5c0,15.18783 -12.31217,27.5 -27.5,27.5c-15.18783,0 -27.5,-12.31217 -27.5,-27.5z" fill="#0068ff" stroke="#0010c7" stroke-width="2" stroke-linecap="butt"/><path d="M252.50748,181.51316c0,5.06261 -0.97202,9.16667 -2.17105,9.16667c-1.19904,0 -2.17105,-4.10406 -2.17105,-9.16667c0,-5.06261 0.97202,-9.16667 2.17105,-9.16667c1.19904,0 2.17105,4.10406 2.17105,9.16667z" fill="#000000" stroke="none" stroke-width="0" stroke-linecap="butt"/><path d="M258.29695,173.55263c0.79936,0 1.44737,3.56405 1.44737,7.96053c0,4.39648 -0.64801,7.96053 -1.44737,7.96053c-0.79936,0 -1.44737,-3.56405 -1.44737,-7.96053c0,-4.39648 0.64801,-7.96053 1.44737,-7.96053z" fill="#000000" stroke="none" stroke-width="0" stroke-linecap="butt"/><path d="M253.35507,198.63993c0,0 -8.72257,1.21688 -16.77948,-2.44932c-11.65616,-5.30399 -11.77338,-9.74178 -11.77338,-9.74178" fill="none" stroke="#000000" stroke-width="2" stroke-linecap="round"/></g></g></g></svg>