<svg version="1.1" xmlns="http://www.w3.org/2000/svg" xmlns:xlink="http://www.w3.org/1999/xlink" width="410.78691" height="254.91074" viewBox="0,0,410.78691,254.91074"><g transform="translate(-18.71308,-72.56174)"><g data-paper-data="{&quot;isPaintingLayer&quot;:true}" fill-rule="nonzero" stroke-linejoin="miter" stroke-miterlimit="10" stroke-dasharray="" stroke-dashoffset="0" style="mix-blend-mode: normal"><path d="M153.85896,134.47434c0,-33.6411 61.48049,-60.9126 137.32052,-60.9126c75.84003,0 137.32052,27.2715 137.32052,60.9126c0,33.6411 -61.48049,60.91261 -137.32052,60.91261c-22.12272,0 -61.533,-6.44283 -61.533,-6.44283c0,0 -12.32523,7.70096 -21.98496,9.83677c-10.85225,2.39948 -39.96836,3.86139 -39.96836,3.86139c0,0 12.85163,-13.8918 16.19065,-20.38691c2.43764,-4.74174 2.00428,-15.00616 2.00428,-15.00616c0,0 -32.02914,-22.09457 -32.02914,-32.77487z" data-paper-data="{&quot;index&quot;:null}" fill="#ffffff" stroke="#00c1ff" stroke-width="2" stroke-linecap="butt"/><text transform="translate(187.62789,109.76237) scale(0.41935,0.41935)" font-size="40" xml:space="preserve" data-paper-data="{&quot;index&quot;:null}" fill="#00c1ff" fill-rule="nonzero" stroke="none" stroke-width="1" stroke-linecap="butt" stroke-linejoin="miter" stroke-miterlimit="10" stroke-dasharray="" stroke-dashoffset="0" font-family="Marker" font-weight="normal" text-anchor="start" style="mix-blend-mode: normal"><tspan x="0" dy="0">I'm         ! Your biggest </tspan><tspan x="0" dy="46.15px">fan and professional pilot!</tspan><tspan x="0" dy="46.15px">Look, I have buisness</tspan><tspan x="0" dy="46.15px">cards!</tspan></text><path d="M154.72005,309.19494c0,0 -0.56275,9.55093 -3.02881,11.95542c-3.07466,2.99791 -13.99939,4.64756 -13.99939,4.64756l-102.09086,0.67385c0,0 -10.95835,-2.3886 -13.7837,-7.44789c-2.39513,-4.28895 -2.09181,-16.43378 -2.09181,-16.43378l1.5292,-87.18889c0,0 0.12369,-14.44967 2.65553,-17.84656c2.82441,-3.78949 13.5094,-3.84156 13.5094,-3.84156l92.7491,0.7349c0,0 15.62982,-0.38801 19.75531,3.46119c4.05715,3.78543 4.79604,19.44583 4.79604,19.44583v91.83991z" data-paper-data="{&quot;index&quot;:null}" fill="#00ff3f" stroke="#00c230" stroke-width="2" stroke-linecap="butt"/><path d="M123.34901,281.00642v-57.06068l10.91166,-0.22561v57.28629z" data-paper-data="{&quot;index&quot;:null}" fill="#000000" stroke="none" stroke-width="0" stroke-linecap="butt"/><path d="M104.25354,281.00646v-57.28629l10.91169,0.22564v57.06065z" data-paper-data="{&quot;index&quot;:null}" fill="#000000" stroke="none" stroke-width="0" stroke-linecap="butt"/><path d="M96.32041,241.82052v-6.02961h10.66775v6.02961z" fill="#000000" stroke="none" stroke-width="0" stroke-linecap="butt"/><path d="M132.49798,242.28435v-5.56577h9.27631v5.56577z" fill="#000000" stroke="none" stroke-width="0" stroke-linecap="butt"/><path d="M100.65715,282.6967v-20.75l18.5,-6.25l18.5,6.25v20.75z" fill="#00ff3f" stroke="none" stroke-width="0" stroke-linecap="butt"/><path d="M116.6343,289.53714c-2.60809,6.31732 -23.17442,13.01654 -41.93496,5.27131c-18.76054,-7.74523 -30.75649,-30.3219 -28.14841,-36.63922c2.60809,-6.31733 18.83259,6.01694 37.59313,13.76217c18.76054,7.74523 35.09833,11.28842 32.49024,17.60574z" fill="#ffffff" stroke="#000000" stroke-width="2" stroke-linecap="butt"/><path d="M65.40715,263.6967l-10.25,13" fill="none" stroke="#000000" stroke-width="2" stroke-linecap="round"/><path d="M103.65714,280.6967l-1,15.5" fill="none" stroke="#000000" stroke-width="2" stroke-linecap="round"/><path d="M84.90714,272.6967l-7.25,22" fill="none" stroke="#000000" stroke-width="2" stroke-linecap="round"/><text transform="translate(214.81429,109.21028) scale(0.39166,0.39166)" font-size="40" xml:space="preserve" fill="#00ff3f" fill-rule="nonzero" stroke="none" stroke-width="1" stroke-linecap="butt" stroke-linejoin="miter" stroke-miterlimit="10" stroke-dasharray="" stroke-dashoffset="0" font-family="Marker" font-weight="normal" text-anchor="start" style="mix-blend-mode: normal"><tspan x="0" dy="0">RHOMBA</tspan></text></g></g></svg>