<svg version="1.1" xmlns="http://www.w3.org/2000/svg" xmlns:xlink="http://www.w3.org/1999/xlink" width="242.2172" height="514.04698" viewBox="0,0,242.2172,514.04698"><g transform="translate(-165.21125,97.04698)"><g data-paper-data="{&quot;isPaintingLayer&quot;:true}" fill-rule="nonzero" stroke-linecap="butt" stroke-linejoin="miter" stroke-miterlimit="10" stroke-dasharray="" stroke-dashoffset="0" style="mix-blend-mode: normal"><path d="M333.39169,217.11673v-138.33018h6.42517v138.33018z" fill="#8aa2c6" stroke="none" stroke-width="0"/><path d="M261.34013,79.33333v-4.91337h108.84998v4.91337z" fill="#c65757" stroke="none" stroke-width="0"/><path d="M337.17122,210.69158v-5.29132h23.81093v5.29132z" fill="#8aa2c6" stroke="none" stroke-width="0"/><path d="M337.17122,147.19576v-5.29132h23.81093v5.29132z" fill="#8aa2c6" stroke="none" stroke-width="0"/><path d="M337.54917,161.55791v-5.29132h23.81093v5.29132z" fill="#8aa2c6" stroke="none" stroke-width="0"/><path d="M337.17122,174.0303v-5.29132h23.81093v5.29132z" fill="#8aa2c6" stroke="none" stroke-width="0"/><path d="M337.54917,188.39245v-5.29132h23.81093v5.29132z" fill="#8aa2c6" stroke="none" stroke-width="0"/><path d="M358.71444,217.4947v-138.33018h6.42517v138.33018z" fill="#8aa2c6" stroke="none" stroke-width="0"/><g stroke="none" stroke-width="0"><path d="M165.66166,252.17554v-34.00667h4.5042v34.00667z" fill="#8aa2c6"/><path d="M194.71372,251.95033v-34.68229h4.5042v34.68229z" fill="#8aa2c6"/><path d="M194.50961,250.08916l-27.54979,-27.54979l3.18495,-3.18495l27.54979,27.54978z" fill="#8aa2c6"/><path d="M197.69455,222.53937l-27.54979,27.54979l-3.18495,-3.18497l27.54979,-27.54978z" fill="#8aa2c6"/><path d="M199.89354,219.52014h-34.68229v-4.5042h34.68229z" fill="#c65757"/><path d="M166.11209,247.22093h33.10583v4.95461h-33.10583z" fill="#8aa2c6"/></g><g stroke="none" stroke-width="0"><path d="M194.78624,252.17554v-34.00667h4.5042v34.00667z" fill="#8aa2c6"/><path d="M223.8383,251.95033v-34.68229h4.5042v34.68229z" fill="#8aa2c6"/><path d="M223.63419,250.08916l-27.54979,-27.54979l3.18495,-3.18495l27.54979,27.54978z" fill="#8aa2c6"/><path d="M226.81913,222.53937l-27.54979,27.54979l-3.18495,-3.18497l27.54979,-27.54978z" fill="#8aa2c6"/><path d="M229.01812,219.52014h-34.68229v-4.5042h34.68229z" fill="#c65757"/><path d="M195.23666,247.22093h33.10583v4.95461h-33.10583z" fill="#8aa2c6"/></g><g stroke="none" stroke-width="0"><path d="M226.15118,252.17554v-34.00667h4.5042v34.00667z" fill="#8aa2c6"/><path d="M255.20323,251.95033v-34.68229h4.5042v34.68229z" fill="#8aa2c6"/><path d="M254.99912,250.08916l-27.54979,-27.54979l3.18495,-3.18495l27.54979,27.54978z" fill="#8aa2c6"/><path d="M258.18407,222.53937l-27.54979,27.54979l-3.18495,-3.18497l27.54979,-27.54978z" fill="#8aa2c6"/><path d="M260.38305,219.52014h-34.68229v-4.5042h34.68229z" fill="#c65757"/><path d="M226.60159,247.22093h33.10583v4.95461h-33.10583z" fill="#8aa2c6"/></g><g stroke="none" stroke-width="0"><path d="M255.27576,252.17554v-34.00667h4.5042v34.00667z" fill="#8aa2c6"/><path d="M284.32781,251.95033v-34.68229h4.5042v34.68229z" fill="#8aa2c6"/><path d="M284.1237,250.08916l-27.54979,-27.54979l3.18495,-3.18495l27.54979,27.54978z" fill="#8aa2c6"/><path d="M287.30863,222.53937l-27.54979,27.54979l-3.18495,-3.18497l27.54979,-27.54978z" fill="#8aa2c6"/><path d="M289.50763,219.52014h-34.68229v-4.5042h34.68229z" fill="#c65757"/><path d="M255.72617,247.22093h33.10583v4.95461h-33.10583z" fill="#8aa2c6"/></g><g stroke="none" stroke-width="0"><path d="M283.58249,252.17554v-34.00667h4.5042v34.00667z" fill="#8aa2c6"/><path d="M312.63453,251.95033v-34.68229h4.5042v34.68229z" fill="#8aa2c6"/><path d="M312.43042,250.08916l-27.54979,-27.54979l3.18495,-3.18495l27.54979,27.54978z" fill="#8aa2c6"/><path d="M315.61536,222.53937l-27.54979,27.54979l-3.18495,-3.18495l27.54979,-27.54978z" fill="#8aa2c6"/><path d="M317.81435,219.52014h-34.68229v-4.5042h34.68229z" fill="#c65757"/><path d="M284.03288,247.22093h33.10584v4.95462h-33.10584z" fill="#8aa2c6"/></g><g stroke="none" stroke-width="0"><path d="M312.70705,252.17554v-34.00667h4.5042v34.00667z" fill="#8aa2c6"/><path d="M341.75909,251.95033v-34.68229h4.50421v34.68229z" fill="#8aa2c6"/><path d="M341.555,250.08916l-27.54979,-27.54979l3.18495,-3.18495l27.54979,27.54978z" fill="#8aa2c6"/><path d="M344.73994,222.53937l-27.54979,27.54979l-3.18495,-3.18495l27.54979,-27.54978z" fill="#8aa2c6"/><path d="M346.93893,219.52014h-34.68229v-4.5042h34.68229z" fill="#c65757"/><path d="M313.15746,247.22093h33.10584v4.95462h-33.10584z" fill="#8aa2c6"/></g><g stroke="none" stroke-width="0"><path d="M344.07199,252.17554v-34.00667h4.5042v34.00667z" fill="#8aa2c6"/><path d="M373.12403,251.95033v-34.68229h4.5042v34.68229z" fill="#8aa2c6"/><path d="M372.91992,250.08916l-27.54979,-27.54979l3.18495,-3.18495l27.54979,27.54978z" fill="#8aa2c6"/><path d="M376.10486,222.53937l-27.54979,27.54979l-3.18495,-3.18495l27.54979,-27.54978z" fill="#8aa2c6"/><path d="M378.30387,219.52014h-34.68229v-4.5042h34.68229z" fill="#c65757"/><path d="M344.5224,247.22093h33.10583v4.95462h-33.10583z" fill="#8aa2c6"/></g><g stroke="none" stroke-width="0"><path d="M373.19657,252.17554v-34.00667h4.5042v34.00667z" fill="#8aa2c6"/><path d="M402.24861,251.95033v-34.68229h4.5042v34.68229z" fill="#8aa2c6"/><path d="M402.0445,250.08916l-27.54979,-27.54979l3.18495,-3.18495l27.54979,27.54978z" fill="#8aa2c6"/><path d="M405.22944,222.53937l-27.54979,27.54979l-3.18495,-3.18495l27.54979,-27.54978z" fill="#8aa2c6"/><path d="M407.42845,219.52014h-34.68229v-4.5042h34.68229z" fill="#c65757"/><path d="M373.64697,247.22093h33.10584v4.95462h-33.10584z" fill="#8aa2c6"/></g><path d="M165.96274,417v-170.83399h6.9291v170.83399z" fill="#8aa2c6" stroke="none" stroke-width="0"/><path d="M400.29256,417v-170.83399h6.9291v170.83399z" data-paper-data="{&quot;index&quot;:null}" fill="#8aa2c6" stroke="none" stroke-width="0"/><path d="M224.92316,417v-170.83399h6.9291v170.83399z" fill="#8aa2c6" stroke="none" stroke-width="0"/><path d="M283.12766,417v-170.83399h6.9291v170.83399z" fill="#8aa2c6" stroke="none" stroke-width="0"/><path d="M341.33216,417v-170.83399h6.9291v170.83399z" fill="#8aa2c6" stroke="none" stroke-width="0"/><path d="M337.54916,93.52666v-5.29132h23.81093v5.29132z" fill="#8aa2c6" stroke="none" stroke-width="0"/><path d="M337.92712,107.88882v-5.29132h23.81093v5.29132z" fill="#8aa2c6" stroke="none" stroke-width="0"/><path d="M337.54917,120.36121v-5.29132h23.81093v5.29132z" fill="#8aa2c6" stroke="none" stroke-width="0"/><path d="M337.92712,134.72336v-5.29132h23.81093v5.29132z" fill="#8aa2c6" stroke="none" stroke-width="0"/><g><path d="M325.22093,193.53437c-9.42387,-4.50406 -29.30594,-5.79164 -29.30594,-5.79164v-35.27547c0,0 34.51931,-4.66721 50.89745,11.59051c16.37814,16.25773 17.63772,56.44072 17.63772,56.44072c0,0 -26.70292,-20.97731 -39.22923,-26.96415z" data-paper-data="{&quot;index&quot;:null}" fill="#b82a2a" stroke="none" stroke-width="0"/><path d="M167.91549,221.50638c0,0 1.25958,-40.183 17.63772,-56.44072c16.37814,-16.25773 50.89743,-11.59051 50.89743,-11.59051v35.27547c0,0 -19.88207,1.28757 -29.30594,5.79164c-12.5263,5.98684 -39.22923,26.96415 -39.22923,26.96415z" fill="#b82a2a" stroke="none" stroke-width="0"/><path d="M220.56162,196.24324c0,0 -8.42413,-113.43351 0.06044,-166.53049c6.72454,-42.08261 46.80552,-126.75973 46.80552,-126.75973c0,0 35.53067,81.14823 41.15548,124.12182c6.76273,51.66723 -3.36035,164.63296 -3.36035,164.63296z" fill="#8ba5b8" stroke="none" stroke-width="0"/><path d="M220.62206,32.73636c6.72454,-42.08261 46.80552,-126.75973 46.80552,-126.75973c0,0 34.11136,80.6442 41.47113,124.54654c-4.63876,0.51004 -25.86242,-9.87572 -46.37216,-9.31456c-20.16237,0.55164 -39.63483,12.05488 -41.9828,12.02259c0.02594,-0.16553 0.05205,-0.33047 0.07831,-0.49483z" fill="#b82a2a" stroke="none" stroke-width="0"/><path d="M270.21432,182.45142c0,19.34294 -5.03936,47.11793 -5.03936,47.11793c0,0 -4.03147,-29.2868 -4.03147,-48.62974c0,-19.34293 1.80496,-21.41725 4.03147,-21.41725c2.22653,0 5.03936,3.58611 5.03936,22.92905z" fill="#b82a2a" stroke="none" stroke-width="0"/><path d="M246.31165,-4.50856c0,-10.576 8.57354,-19.14954 19.14952,-19.14954c10.57598,0 19.14952,8.57354 19.14952,19.14954c0,10.57598 -8.57354,19.14954 -19.14952,19.14954c-10.576,0 -19.14952,-8.57354 -19.14952,-19.14954z" fill="#93e3ff" stroke="none" stroke-width="0"/><path d="M247.15619,-3.65946v-8.20694l33.04374,17.49375l-7.34305,5.83124z" fill="#cff2ff" stroke="none" stroke-width="0"/><path d="M251.25965,-19.42544l3.8875,-1.29583l24.8368,6.2632l1.51181,4.53542z" fill="#cff2ff" stroke="none" stroke-width="0"/><path d="M245.44776,-4.9405c0,-10.576 8.57354,-19.14954 19.14952,-19.14954c10.57598,0 19.14952,8.57354 19.14952,19.14954c0,10.57598 -8.57354,19.14954 -19.14952,19.14954c-10.576,0 -19.14952,-8.57354 -19.14952,-19.14954z" fill="none" stroke="#679db1" stroke-width="2"/><text transform="translate(221.86538,57.61192) rotate(90) scale(0.25197,0.25197)" font-size="40" xml:space="preserve" fill="#b82a2a" fill-rule="nonzero" stroke="none" stroke-width="1" stroke-linecap="butt" stroke-linejoin="miter" stroke-miterlimit="10" stroke-dasharray="" stroke-dashoffset="0" font-family="Pixel" font-weight="normal" text-anchor="start" style="mix-blend-mode: normal"><tspan x="0" dy="0">DR.BOBBLEHEAD</tspan></text></g></g></g></svg>