<svg version="1.1" xmlns="http://www.w3.org/2000/svg" xmlns:xlink="http://www.w3.org/1999/xlink" width="622.80548" height="593.85364" viewBox="0,0,622.80548,593.85364"><defs><linearGradient x1="238.62857" y1="-16.17748" x2="238.62857" y2="376.82253" gradientUnits="userSpaceOnUse" id="color-1"><stop offset="0" stop-color="#ffa34d"/><stop offset="1" stop-color="#ff4dcd"/></linearGradient></defs><g transform="translate(80.003,16.17748)"><g data-paper-data="{&quot;isPaintingLayer&quot;:true}" fill-rule="nonzero" stroke-linecap="butt" stroke-linejoin="miter" stroke-miterlimit="10" stroke-dasharray="" stroke-dashoffset="0" style="mix-blend-mode: normal"><path d="M-25.37143,376.82253v-393h528v393z" fill="url(#color-1)" stroke="none" stroke-width="0"/><g><path d="M387.526,250.56367c-2.99657,-1.43219 -9.31861,-1.84161 -9.31861,-1.84161v-11.21678c0,0 10.97634,-1.48407 16.18421,3.68552c5.20787,5.16958 5.60839,17.94685 5.60839,17.94685c0,0 -8.49091,-6.6703 -12.47399,-8.57398z" data-paper-data="{&quot;index&quot;:null}" fill="#b82a2a" stroke="none" stroke-width="0"/><path d="M337.5065,259.45812c0,0 0.40052,-12.77727 5.60839,-17.94685c5.20787,-5.16958 16.18421,-3.68552 16.18421,-3.68552v11.21678c0,0 -6.32204,0.40942 -9.31861,1.84161c-3.98308,1.90368 -12.47399,8.57398 -12.47399,8.57398z" fill="#b82a2a" stroke="none" stroke-width="0"/><path d="M354.24675,251.42502c0,0 -2.67868,-36.06924 0.01922,-52.95286c2.13825,-13.3813 14.88308,-40.30667 14.88308,-40.30667c0,0 11.29793,25.80327 13.08649,39.46788c2.15039,16.42899 -1.06851,52.34949 -1.06851,52.34949z" fill="#8ba5b8" stroke="none" stroke-width="0"/><path d="M354.26597,199.43361c2.13825,-13.3813 14.88308,-40.30667 14.88308,-40.30667c0,0 10.84663,25.643 13.18686,39.60293c-1.47502,0.16218 -8.22365,-3.14025 -14.74528,-2.96182c-6.41117,0.17541 -12.60296,3.83317 -13.34956,3.82291c0.00825,-0.05263 0.01655,-0.10508 0.0249,-0.15734z" fill="#b82a2a" stroke="none" stroke-width="0"/><path d="M370.03517,247.03954c0,6.15061 -1.6024,14.98242 -1.6024,14.98242c0,0 -1.28191,-9.31253 -1.28191,-15.46314c0,-6.15061 0.57394,-6.81019 1.28191,-6.81019c0.70798,0 1.6024,1.1403 1.6024,7.29091z" fill="#b82a2a" stroke="none" stroke-width="0"/><path d="M362.43467,187.59058c0,-3.36292 2.72619,-6.08911 6.08911,-6.08911c3.36292,0 6.08911,2.72619 6.08911,6.08911c0,3.36292 -2.72619,6.08911 -6.08911,6.08911c-3.36292,0 -6.08911,-2.72619 -6.08911,-6.08911z" fill="#93e3ff" stroke="none" stroke-width="0"/><path d="M363.12392,74.09666v0v0z" fill="#93e3ff" stroke="#679db1" stroke-width="2"/><path d="M362.70321,187.86058v-2.60962l10.50715,5.56261l-2.33492,1.8542z" fill="#cff2ff" stroke="none" stroke-width="0"/><path d="M364.00802,182.84736l1.23614,-0.41204l7.89753,1.99155l0.48072,1.44216z" fill="#cff2ff" stroke="none" stroke-width="0"/><path d="M362.15997,187.45323c0,-3.36292 2.72619,-6.08911 6.08911,-6.08911c3.36292,0 6.08911,2.72619 6.08911,6.08911c0,3.36292 -2.72619,6.08911 -6.08911,6.08911c-3.36292,0 -6.08911,-2.72619 -6.08911,-6.08911z" fill="none" stroke="#679db1" stroke-width="2"/><text transform="translate(354.66132,207.34346) rotate(90) scale(0.08012,0.08012)" font-size="40" xml:space="preserve" fill="#b82a2a" fill-rule="nonzero" stroke="none" stroke-width="1" stroke-linecap="butt" stroke-linejoin="miter" stroke-miterlimit="10" stroke-dasharray="" stroke-dashoffset="0" font-family="Pixel" font-weight="normal" text-anchor="start" style="mix-blend-mode: normal"><tspan x="0" dy="0">DR.BOBBLEHEAD</tspan></text></g><path d="M-17.1996,376.28878v-121.44215c0,0 47.05582,-16.52275 68.50473,-16.52275c21.40585,0 70.18299,9.75433 126.61098,11.84269c59.36776,2.19716 128.06292,-4.07103 185.51152,-3.45173c69.5998,0.75027 122.69225,8.13179 122.69225,8.13179v121.44215z" data-paper-data="{&quot;index&quot;:null}" fill="#0041ff" stroke="none" stroke-width="0"/><path d="M-25.003,398.82193v-124.50173c0,0 54.43005,-7.56748 125.78333,-8.33667c58.89594,-0.63488 129.3218,5.79121 190.18526,3.53871c57.84962,-2.14098 107.85565,-12.14106 129.80079,-12.14106c21.98929,0 70.23062,16.93902 70.23062,16.93902v124.50173z" data-paper-data="{&quot;index&quot;:null}" fill="#0074ff" stroke="none" stroke-width="0"/><path d="M-27.003,421.38333v-124.50173c0,0 54.43005,-7.56748 125.78333,-8.33667c58.89594,-0.63488 129.3218,5.79121 190.18526,3.53871c57.84962,-2.14098 107.85565,-12.14106 129.80079,-12.14106c21.98929,0 70.23062,16.93902 70.23062,16.93902v124.50173z" data-paper-data="{&quot;index&quot;:null}" fill="#008bff" stroke="none" stroke-width="0"/><path d="M-32.003,454.13649v-127.6384c0,0 49.45671,-17.36576 72,-17.36576c22.49802,0 73.76389,10.25202 133.07097,12.44694c62.39683,2.30927 134.59699,-4.27874 194.97675,-3.62785c73.15094,0.78855 128.95229,8.5467 128.95229,8.5467v127.6384z" fill="#00b1ff" stroke="none" stroke-width="0"/><path d="M-39.003,486.67616v-132.22423c0,0 57.80619,-8.03688 133.58531,-8.85376c62.54909,-0.67427 137.34326,6.15043 201.9819,3.75819c61.43786,-2.27378 114.54563,-12.89412 137.85196,-12.89412c23.35322,0 74.58683,17.98969 74.58683,17.98969v132.22423z" data-paper-data="{&quot;index&quot;:null}" fill="#00d8ff" stroke="none" stroke-width="0"/><path d="M-59.003,533.67617v-141.87553c0,0 54.97325,-19.30279 80.03106,-19.30279c25.0075,0 81.99171,11.39554 147.91404,13.83529c69.35674,2.56685 149.61028,-4.75599 216.72494,-4.03251c81.31038,0.87651 143.33596,9.50001 143.33596,9.50001v141.87553z" data-paper-data="{&quot;index&quot;:null}" fill="#39ffdb" stroke="none" stroke-width="0"/><path d="M-80.003,577.67617v-148.39016c0,0 64.87366,-9.01948 149.91764,-9.93623c70.19643,-0.75671 154.13505,6.90239 226.6765,4.21767c68.94934,-2.55178 128.55014,-14.47057 154.70594,-14.47057c26.20842,0 83.70592,20.18913 83.70592,20.18913v148.39016z" data-paper-data="{&quot;index&quot;:null}" fill="#6effe4" stroke="none" stroke-width="0"/><path d="M-28.69753,431.47453v-209c0,0 36.44122,2.37868 52.57502,5.32621c18.26723,3.33728 51.42498,13.67379 51.42498,13.67379c0,0 -22.40608,15.43096 -22.76332,29.00623c-0.21493,8.16728 4.83833,23.66222 6.52608,40.72042c0.75913,7.67261 -27.44855,34.83999 -26.65135,43.16694c4.37088,45.65482 -24.11141,72.1064 -24.11141,72.1064z" fill="#ffc873" stroke="none" stroke-width="none"/><path d="M-28.69752,431.47454v-209c0,0 36.44122,2.37868 52.57502,5.3262c18.26723,3.33728 51.42498,13.6738 51.42498,13.6738c0,0 -22.40608,15.43095 -22.76332,29.00622c-0.21493,8.16728 4.83833,23.66223 6.52608,40.72043c0.75913,7.6726 -27.44855,34.83999 -26.65135,43.16695c4.37088,45.65481 -24.1114,72.1064 -24.1114,72.1064z" fill="#ffc873" stroke="none" stroke-width="none"/><path d="M505.80248,435.97454c0,0 -28.48228,-26.45159 -24.11141,-72.1064c0.7972,-8.32695 -27.41048,-35.49434 -26.65135,-43.16694c1.68775,-17.0582 6.74101,-32.55315 6.52608,-40.72043c-0.35724,-13.57527 -22.76332,-29.00622 -22.76332,-29.00622c0,0 33.15776,-10.33652 51.42498,-13.6738c16.13381,-2.94752 52.57502,-5.3262 52.57502,-5.3262v209z" data-paper-data="{&quot;index&quot;:null}" fill="#ffc873" stroke="none" stroke-width="none"/></g></g></svg>