<svg version="1.1" xmlns="http://www.w3.org/2000/svg" xmlns:xlink="http://www.w3.org/1999/xlink" width="40.48882" height="40.5746" viewBox="0,0,40.48882,40.5746"><g transform="translate(-220.45138,-159.71305)"><g data-paper-data="{&quot;isPaintingLayer&quot;:true}" fill-rule="nonzero" stroke-linejoin="miter" stroke-miterlimit="10" stroke-dasharray="" stroke-dashoffset="0" style="mix-blend-mode: normal"><path d="M259.9402,194.26705c0,0 -0.16351,2.77508 -0.88004,3.47372c-0.89336,0.87106 -4.06761,1.35038 -4.06761,1.35038l-29.66314,0.19579c0,0 -3.18402,-0.69402 -4.00494,-2.16403c-0.69592,-1.24618 -0.60779,-4.77494 -0.60779,-4.77494l0.44432,-25.33328c0,0 0.03594,-4.19844 0.77158,-5.18543c0.82065,-1.10106 3.92524,-1.11619 3.92524,-1.11619l26.94883,0.21353c0,0 4.54134,-0.11274 5.74003,1.00567c1.17883,1.09988 1.39352,5.65011 1.39352,5.65011v26.68466z" data-paper-data="{&quot;index&quot;:null}" fill="#00ff3f" stroke="#00c230" stroke-width="2" stroke-linecap="butt"/><path d="M250.82515,186.0767v-16.57934l3.17045,-0.06555v16.64489z" data-paper-data="{&quot;index&quot;:null}" fill="#000000" stroke="none" stroke-width="0" stroke-linecap="butt"/><path d="M245.27684,186.07671v-16.64489l3.17046,0.06556v16.57933z" data-paper-data="{&quot;index&quot;:null}" fill="#000000" stroke="none" stroke-width="0" stroke-linecap="butt"/><path d="M242.97182,174.69099v-1.75194h3.09958v1.75194z" fill="#000000" stroke="none" stroke-width="0" stroke-linecap="butt"/><path d="M253.48344,174.82576v-1.61717h2.69529v1.61717z" fill="#000000" stroke="none" stroke-width="0" stroke-linecap="butt"/><path d="M228.01298,187.35884c0,0 5.90023,4.31594 10.14681,5.01641c4.45791,0.73532 15.99746,-0.70395 15.99746,-0.70395" fill="none" stroke="#000000" stroke-width="2" stroke-linecap="round"/></g></g></svg>