<svg version="1.1" xmlns="http://www.w3.org/2000/svg" xmlns:xlink="http://www.w3.org/1999/xlink" width="51.40624" height="75.04794" viewBox="0,0,51.40624,75.04794"><g transform="translate(-213.21929,-128.14845)"><g data-paper-data="{&quot;isPaintingLayer&quot;:true}" fill-rule="nonzero" stroke-linecap="butt" stroke-linejoin="miter" stroke-miterlimit="10" stroke-dasharray="" stroke-dashoffset="0" style="mix-blend-mode: normal"><path d="M259.94019,194.26705c0,0 -0.16351,2.77508 -0.88004,3.47372c-0.89336,0.87106 -4.06761,1.35038 -4.06761,1.35038l-29.66314,0.19579c0,0 -3.18402,-0.69402 -4.00494,-2.16403c-0.69592,-1.24618 -0.60779,-4.77494 -0.60779,-4.77494l0.44432,-25.33328c0,0 0.03594,-4.19844 0.77158,-5.18543c0.82065,-1.10106 3.92524,-1.11619 3.92524,-1.11619l26.94883,0.21353c0,0 4.54134,-0.11274 5.74003,1.00567c1.17883,1.09988 1.39352,5.65011 1.39352,5.65011v26.68466z" data-paper-data="{&quot;index&quot;:null}" fill="#ff0062" stroke="#b60046" stroke-width="2"/><path d="M250.82514,186.0767v-13.21023l3.17045,-3.43466v16.64489z" data-paper-data="{&quot;index&quot;:null}" fill="#000000" stroke="none" stroke-width="0"/><path d="M245.27683,186.07671v-16.64489l3.17046,3.43466v13.21023z" data-paper-data="{&quot;index&quot;:null}" fill="#000000" stroke="none" stroke-width="0"/><g stroke-width="2"><path d="M231.81824,150.52974l8.23437,-19.69791l7.58854,19.69791z" fill="#86a8cb" stroke="#5a728b"/><path d="M226.81303,154.72765l3.06771,-4.19792h19.53645l3.55208,4.19792z" fill="#3f4f60" stroke="#222b34"/><path d="M214.21929,202.19639v-47.6302h49.40624v47.6302zM238.43803,186.20161l20.17187,0.17187l0.17187,-16.94271l-20.01041,0.47396z" fill="#3f4f60" stroke="#222b34"/><path d="M216.80262,158.11828c0,-0.80254 0.65059,-1.45312 1.45312,-1.45312c0.80254,0 1.45312,0.65059 1.45312,1.45312c0,0.80254 -0.65059,1.45312 -1.45312,1.45312c-0.80254,0 -1.45312,-0.65059 -1.45312,-1.45312z" fill="#3f4f60" stroke="#222b34"/><path d="M258.2974,158.11828c0,-0.80254 0.65058,-1.45312 1.45313,-1.45312c0.80254,0 1.45313,0.65058 1.45313,1.45312c0,0.80254 -0.65059,1.45313 -1.45312,1.45313c-0.80254,0 -1.45312,-0.65059 -1.45312,-1.45312z" fill="#3f4f60" stroke="#222b34"/><path d="M216.80262,198.48285c0,-0.80254 0.65059,-1.45312 1.45313,-1.45312c0.80254,0 1.45313,0.65058 1.45313,1.45312c0,0.80254 -0.65059,1.45313 -1.45312,1.45313c-0.80254,0 -1.45312,-0.65059 -1.45312,-1.45312z" fill="#3f4f60" stroke="#222b34"/><path d="M258.78178,198.48285c0,-0.80254 0.65058,-1.45312 1.45312,-1.45312c0.80254,0 1.45313,0.65058 1.45313,1.45312c0,0.80254 -0.65059,1.45313 -1.45313,1.45313c-0.80254,0 -1.45312,-0.65059 -1.45312,-1.45312z" fill="#3f4f60" stroke="#222b34"/></g></g></g></svg>