<svg version="1.1" xmlns="http://www.w3.org/2000/svg" xmlns:xlink="http://www.w3.org/1999/xlink" width="575.76971" height="394" viewBox="0,0,575.76971,394"><defs><linearGradient x1="-42" y1="180" x2="522" y2="180" gradientUnits="userSpaceOnUse" id="color-1"><stop offset="0" stop-color="#ff0000"/><stop offset="1" stop-color="#0081ff"/></linearGradient><radialGradient cx="317.52306" cy="221.35981" r="23.27442" gradientUnits="userSpaceOnUse" id="color-2"><stop offset="0" stop-color="#fff696"/><stop offset="1" stop-color="#ffde00"/></radialGradient><linearGradient x1="203.0146" y1="180.00045" x2="270.98925" y2="180.00045" gradientTransform="translate(-159.12716,-141.18218) scale(0.78383,0.72025)" gradientUnits="userSpaceOnUse" id="color-3"><stop offset="0" stop-color="#ff8800"/><stop offset="1" stop-color="#00efff"/></linearGradient><linearGradient x1="203.0146" y1="180.00045" x2="270.98925" y2="180.00045" gradientTransform="translate(-159.12716,-141.18218) scale(0.78383,0.72025)" gradientUnits="userSpaceOnUse" id="color-4"><stop offset="0" stop-color="#001dff"/><stop offset="1" stop-color="#b90000"/></linearGradient></defs><g transform="translate(42,17)"><g data-paper-data="{&quot;isPaintingLayer&quot;:true}" fill-rule="nonzero" stroke-linejoin="miter" stroke-miterlimit="10" stroke-dasharray="" stroke-dashoffset="0" style="mix-blend-mode: normal"><path d="M-42,377v-394h564v394z" fill="url(#color-1)" stroke="none" stroke-width="0" stroke-linecap="butt"/><path d="M507.75243,190.41056c0,0 -12.17349,3.29255 -5.29919,16.87445c8.62458,17.04002 31.31647,2.28286 31.31647,2.28286c0,0 -17.97931,21.98117 -40.15791,21.98117c-22.1786,0 -40.15791,-9.84129 -40.15791,-21.98117c0,-12.13985 17.97931,-21.98117 40.15791,-21.98117c4.97691,0 14.14063,2.82387 14.14063,2.82387z" data-paper-data="{&quot;index&quot;:null}" fill="#ff6900" stroke="none" stroke-width="0" stroke-linecap="butt"/><path d="M371.86996,94.58945c37.58687,0 68.05707,30.65944 68.05707,68.47979c0,37.82036 -30.4702,68.47979 -68.05707,68.47979c-37.58687,0 -68.05707,-30.65944 -68.05707,-68.47979c0,-37.82036 30.4702,-68.47979 68.05707,-68.47979z" data-paper-data="{&quot;index&quot;:null}" fill="#ff001e" stroke="#9e0000" stroke-width="2" stroke-linecap="butt"/><path d="M338.7889,188.48197c0,0 1.4841,-9.46073 13.84788,-9.3283c16.11345,0.17257 24.78715,7.43005 24.78715,7.43005" data-paper-data="{&quot;index&quot;:null}" fill="none" stroke="#000000" stroke-width="2" stroke-linecap="round"/><path d="M362.99295,122.48864c1.86768,0 3.38171,10.97682 3.38171,24.51745c0,13.54059 -1.51404,24.51745 -3.38171,24.51745c-1.86768,0 -3.38171,-10.97682 -3.38171,-24.51745c0,-13.54059 1.51404,-24.51745 3.38171,-24.51745z" data-paper-data="{&quot;index&quot;:null}" fill="#000000" stroke="#000000" stroke-width="2" stroke-linecap="butt"/><path d="M346.5071,170.67812c-1.6342,0 -2.95899,-10.59834 -2.95899,-23.67203c0,-13.07369 1.32477,-23.67203 2.95899,-23.67203c1.6342,0 2.95899,10.59834 2.95899,23.67203c0,13.07369 -1.32477,23.67203 -2.95899,23.67203z" data-paper-data="{&quot;index&quot;:null}" fill="#000000" stroke="#000000" stroke-width="2" stroke-linecap="butt"/><path d="M375.67439,265.36619c-157.87827,1.71778 -84.54295,-120.05099 -84.54295,-120.05099c0,0 -17.14503,47.59018 59.23765,46.44355c80.9249,-1.21482 130.98399,-42.21639 130.98399,-42.21639c0,0 47.113,114.16142 -105.67868,115.82386z" data-paper-data="{&quot;index&quot;:null}" fill="#475875" stroke="#232c43" stroke-width="2" stroke-linecap="butt"/><path d="M387.79676,112.16869c0,0 -3.98089,-0.93859 -11.51575,4.92293c-6.42847,5.00081 -9.82377,20.03364 -18.95163,18.2404c-2.77333,-0.54483 -2.98472,-4.74949 -2.98472,-4.74949c0,0 -2.15786,5.10876 -5.16184,4.52758c-8.11774,-1.57046 -3.60538,-11.11043 -7.83424,-17.35768c-4.02486,-5.9459 -10.95445,-9.12561 -10.95445,-9.12561" data-paper-data="{&quot;index&quot;:null}" fill="#ff001e" stroke="#9e0000" stroke-width="2" stroke-linecap="round"/><path d="M317.52306,244.63423c-12.8541,0 -23.27442,-10.42033 -23.27442,-23.27442c0,-12.8541 10.42033,-23.27442 23.27442,-23.27442c12.8541,0 23.27442,10.42033 23.27442,23.27442c0,12.8541 -10.42033,23.27442 -23.27442,23.27442z" data-paper-data="{&quot;index&quot;:null}" fill="url(#color-2)" stroke="#ff9400" stroke-width="2" stroke-linecap="butt"/><path d="M476.54167,188.60838c0,0 -15.47159,11.19973 -25.20229,15.90814c-10.38813,5.02652 -36.67698,14.1953 -36.67698,14.1953l-16.39868,-9.38576l11.66019,-14.86423c0,0 27.05939,-4.34937 37.91645,-7.77791c10.29719,-3.25174 25.63525,-12.29104 25.63525,-12.29104l3.06609,14.2155z" data-paper-data="{&quot;index&quot;:null}" fill="#ff0000" stroke="#9e0000" stroke-width="2" stroke-linecap="butt"/><path d="M61.91866,183.75059c-0.41452,-37.27691 29.46836,-67.83186 66.74527,-68.24638c37.27691,-0.41452 67.83186,29.46836 68.24638,66.74527c0.41452,37.27691 -29.46836,67.83186 -66.74527,68.24638c-37.27691,0.41452 -67.83186,-29.46836 -68.24638,-66.74527z" data-paper-data="{&quot;index&quot;:null}" fill="#0068ff" stroke="#0010c7" stroke-width="2" stroke-linecap="butt"/><path d="M184.76048,130.5285l-31,9l-54,-39" fill="none" stroke="#000000" stroke-width="2" stroke-linecap="round"/><path d="M151.46244,157.642c0,13.07074 -2.01472,23.66667 -4.5,23.66667c-2.48528,0 -4.5,-10.59593 -4.5,-23.66667c0,-13.07074 2.01472,-23.66667 4.5,-23.66667c2.48528,0 4.5,10.59593 4.5,23.66667z" fill="#000000" stroke="none" stroke-width="0" stroke-linecap="butt"/><path d="M169.46244,158.642c0,12.88664 -1.567,23.33333 -3.5,23.33333c-1.933,0 -3.5,-10.44669 -3.5,-23.33333c0,-12.88664 1.567,-23.33333 3.5,-23.33333c1.933,0 3.5,10.44669 3.5,23.33333z" fill="#000000" stroke="none" stroke-width="0" stroke-linecap="butt"/><path d="M167.46244,216.4952c0,0 -35.49411,4.24868 -49.59324,-0.27026c-11.25433,-3.60716 -28.40676,-24.72971 -28.40676,-24.72971" data-paper-data="{&quot;index&quot;:null}" fill="none" stroke="#000000" stroke-width="2" stroke-linecap="round"/><text transform="translate(203.01284,196.01875) scale(1.27579,1.38841)" font-size="40" xml:space="preserve" fill="url(#color-3)" fill-rule="nonzero" stroke="url(#color-4)" stroke-width="4" stroke-linecap="butt" stroke-linejoin="miter" stroke-miterlimit="10" stroke-dasharray="" stroke-dashoffset="0" font-family="Marker" font-weight="normal" text-anchor="start" style="mix-blend-mode: normal"><tspan x="0" dy="0">VS.</tspan></text><text transform="translate(67.82928,88.90623) scale(0.60834,0.60834)" font-size="40" xml:space="preserve" fill="#ff8800" fill-rule="nonzero" stroke="none" stroke-width="1" stroke-linecap="butt" stroke-linejoin="miter" stroke-miterlimit="10" stroke-dasharray="" stroke-dashoffset="0" font-family="Marker" font-weight="normal" text-anchor="start" style="mix-blend-mode: normal"><tspan x="0" dy="0">BLUEBALL</tspan></text><text transform="translate(285.82928,293.15623) scale(0.58667,0.58667)" font-size="40" xml:space="preserve" fill="#ff8800" fill-rule="nonzero" stroke="none" stroke-width="1" stroke-linecap="butt" stroke-linejoin="miter" stroke-miterlimit="10" stroke-dasharray="" stroke-dashoffset="0" font-family="Marker" font-weight="normal" text-anchor="start" style="mix-blend-mode: normal"><tspan x="0" dy="0">DR.BOBBLEHEAD</tspan></text><path d="M243.24267,321.18273c0,29.91665 -54.6739,54.16889 -122.11759,54.16889c-67.44368,0 -122.11759,-24.25224 -122.11759,-54.16889c0,-29.91665 54.6739,-54.1689 122.11759,-54.1689c19.67348,0 54.7206,5.72954 54.7206,5.72954c0,0 6.0518,-10.18126 7.07156,-16.23545c1.01164,-6.00597 -0.97717,-19.94617 -0.97717,-19.94617c0,0 14.77559,19.21395 20.21218,28.40341c5.50244,9.30076 12.60728,27.07125 12.60728,27.07125c0,0 28.48315,19.64845 28.48315,29.14632z" data-paper-data="{&quot;index&quot;:null}" fill="#ffffff" stroke="#00c1ff" stroke-width="2" stroke-linecap="butt"/><text transform="translate(22.5899,329.28112) scale(0.7487,0.7487)" font-size="40" xml:space="preserve" fill="#00c1ff" fill-rule="nonzero" stroke="none" stroke-width="1" stroke-linecap="butt" stroke-linejoin="miter" stroke-miterlimit="10" stroke-dasharray="" stroke-dashoffset="0" font-family="Marker" font-weight="normal" text-anchor="start" style="mix-blend-mode: normal"><tspan x="0" dy="0">Let's Dance!!!</tspan></text><text transform="translate(249.44583,23.76875) scale(0.5,0.5)" font-size="40" xml:space="preserve" fill="#fafafa" fill-rule="nonzero" stroke="none" stroke-width="1" stroke-linecap="butt" stroke-linejoin="miter" stroke-miterlimit="10" stroke-dasharray="" stroke-dashoffset="0" font-family="Pixel" font-weight="normal" text-anchor="start" style="mix-blend-mode: normal"><tspan x="0" dy="0">-New Password-</tspan></text><text transform="translate(199.44583,54.26875) scale(0.80336,0.80336)" font-size="40" xml:space="preserve" fill="#fafafa" fill-rule="nonzero" stroke="none" stroke-width="1" stroke-linecap="butt" stroke-linejoin="miter" stroke-miterlimit="10" stroke-dasharray="" stroke-dashoffset="0" font-family="Pixel" font-weight="normal" text-anchor="start" style="mix-blend-mode: normal"><tspan x="0" dy="0">LikeDonkeyKong</tspan></text></g></g></svg>