<svg version="1.1" xmlns="http://www.w3.org/2000/svg" xmlns:xlink="http://www.w3.org/1999/xlink" width="487" height="491.01095" viewBox="0,0,487,491.01095"><defs><linearGradient x1="239.81432" y1="281.2241" x2="239.81432" y2="536.33341" gradientUnits="userSpaceOnUse" id="color-1"><stop offset="0" stop-color="#0041ff"/><stop offset="1" stop-color="#2b0089"/></linearGradient></defs><g transform="translate(3.68568,-45.32246)"><g data-paper-data="{&quot;isPaintingLayer&quot;:true}" fill-rule="nonzero" stroke="none" stroke-width="0" stroke-linecap="butt" stroke-linejoin="miter" stroke-miterlimit="10" stroke-dasharray="" stroke-dashoffset="0" style="mix-blend-mode: normal"><path d="M-3.68568,536.33341v-255.10931c0,0 58.72847,-11.89069 108,-11.89069c37.39034,0 110.70003,8.60267 182.9617,11.05004c99.00274,3.35303 196.0383,0.84065 196.0383,0.84065v255.10931z" fill="url(#color-1)"/><path d="M54.94289,172.82246c0,2.48528 -8.28273,4.5 -18.5,4.5c-10.21727,0 -18.5,-2.01472 -18.5,-4.5c0,-2.48528 8.28273,-4.5 18.5,-4.5c10.21727,0 18.5,2.01472 18.5,4.5z" fill-opacity="0.74118" fill="#fcfeff"/><path d="M159.94289,125.82246c0,1.933 -10.52131,3.5 -23.5,3.5c-12.97869,0 -23.5,-1.567 -23.5,-3.5c0,-1.933 10.52131,-3.5 23.5,-3.5c12.97869,0 23.5,1.567 23.5,3.5z" fill-opacity="0.74118" fill="#fcfeff"/><path d="M62.94289,45.32246c12.15026,0 22,1.34315 22,3c0,1.65685 -9.84974,3 -22,3c-12.15026,0 -22,-1.34315 -22,-3c0,-1.65685 9.84974,-3 22,-3z" fill-opacity="0.74118" fill="#fcfeff"/><path d="M297.94289,222.32246c0,2.20914 -11.6406,4 -26,4c-14.3594,0 -26,-1.79086 -26,-4c0,-2.20914 11.6406,-4 26,-4c14.3594,0 26,1.79086 26,4z" fill-opacity="0.74118" fill="#fcfeff"/><path d="M425.44289,174.32246c15.18783,0 27.5,2.23858 27.5,5c0,2.76142 -12.31217,5 -27.5,5c-15.18783,0 -27.5,-2.23858 -27.5,-5c0,-2.76142 12.31217,-5 27.5,-5z" fill-opacity="0.74118" fill="#fcfeff"/><path d="M311.94289,66.32246c0,3.31371 -9.40202,6 -21,6c-11.59798,0 -21,-2.68629 -21,-6c0,-3.31371 9.40202,-6 21,-6c11.59798,0 21,2.68629 21,6z" fill-opacity="0.74118" fill="#fcfeff"/><path d="M386.44289,65.32246c9.1127,0 16.5,1.79086 16.5,4c0,2.20914 -7.3873,4 -16.5,4c-9.1127,0 -16.5,-1.79086 -16.5,-4c0,-2.20914 7.3873,-4 16.5,-4z" fill-opacity="0.74118" fill="#fcfeff"/></g></g></svg>