<svg version="1.1" xmlns="http://www.w3.org/2000/svg" xmlns:xlink="http://www.w3.org/1999/xlink" width="567.56756" height="517.88533" viewBox="0,0,567.56756,517.88533"><g transform="translate(46.03604,154.70215)"><g data-paper-data="{&quot;isPaintingLayer&quot;:true}" fill-rule="nonzero" stroke="none" stroke-width="0" stroke-linecap="butt" stroke-linejoin="miter" stroke-miterlimit="10" stroke-dasharray="" stroke-dashoffset="0" style="mix-blend-mode: normal"><path d="" fill="#59c5ff"/><path d="M-46.03604,363.18319v-174.54955c0,0 20.46428,-0.31736 44.0006,-2.64368c33.52584,-3.31368 76.37493,-8.99296 101.64505,-8.99296c56.94845,0 153.18611,10.65213 255.32562,13.9624c51.92132,1.68274 109.56657,-1.93229 141.0446,-3.15295c12.1822,-0.47241 25.55169,0.82719 25.55169,0.82719v174.54955z" data-paper-data="{&quot;index&quot;:null}" fill="#87dcff"/><g data-paper-data="{&quot;index&quot;:null}"><path d="M18.01587,193.12428c0,0 1.92094,-2.88978 1.9498,-4.96206c0.04973,-3.57138 -1.67824,-14.53947 -1.67824,-14.53947l7.38663,-0.51797c0,0 0.38268,10.43092 0.97349,13.74537c0.45287,2.5406 3.67811,4.67337 3.67811,4.67337c0,0 -3.61482,-1.28838 -4.25247,-1.23451c-0.82332,0.06957 -1.65078,3.02476 -1.65078,3.02476c0,0 -1.6695,-2.51939 -2.23025,-2.45305c-0.78335,0.09269 -4.17629,2.26355 -4.17629,2.26355z" fill="#903600"/><g><path d="M3.58115,178.73056l3.02423,-7.7107l29.00005,-1.91061l4.16732,6.83763l-6.03149,-1.66572l-2.9152,2.29349l-7.59596,-1.53168l-6.75493,2.59667l-4.38737,-2.04643z" fill="#008536"/><path d="M3.78515,176.38061c-2.64315,-2.35249 3.04685,-11.53763 3.04685,-11.53763c0,0 -2.76438,-0.54063 -2.07405,-2.15011c0.79095,-1.84408 6.55908,-8.30666 6.55908,-8.30666c0,0 -3.28243,-0.77381 -1.76856,-2.99596c1.72668,-2.53454 8.35161,-6.56324 9.71901,-6.64897c2.07415,-0.13002 8.59047,3.46927 10.8132,5.96222c1.03208,1.15755 -0.96578,2.32054 -0.96578,2.32054c0,0 6.06929,6.98024 7.03843,8.81582c0.47388,0.89755 -1.55336,1.57314 -1.55336,1.57314c0,0 7.10918,8.15631 5.37681,10.18393c-1.2201,1.42804 -6.0315,-1.66572 -6.0315,-1.66572c0,0 -2.77728,2.28033 -4.2608,2.38784c-1.48352,0.10752 -6.25037,-1.62603 -6.25037,-1.62603c0,0 -3.9341,2.45737 -6.75493,2.59667c-2.82083,0.1393 -4.38737,-2.04643 -4.38737,-2.04643c0,0 -7.19632,4.30359 -8.50665,3.13736z" fill="#87dcff"/></g></g><g data-paper-data="{&quot;index&quot;:null}"><path d="M83.55512,193.49405c0,0 2.58841,-2.31106 3.13961,-4.3089c0.94995,-3.44308 2.04759,-14.49207 2.04759,-14.49207l7.27805,1.36406c0,0 -2.26369,10.18952 -2.52898,13.54574c-0.20335,2.57262 2.37882,5.45071 2.37882,5.45071c0,0 -3.17233,-2.15943 -3.80293,-2.26832c-0.8142,-0.14058 -2.36108,2.50988 -2.36108,2.50988c0,0 -0.97921,-2.85933 -1.53854,-2.93672c-0.78138,-0.10812 -4.61253,1.13562 -4.61253,1.13562z" fill="#903600"/><g><path d="M73.22283,175.92179l4.8733,-6.69716l28.54271,5.47428l2.30566,7.66835l-5.41542,-3.13479l-3.39987,1.48303l-6.96302,-3.40014l-7.19172,0.80679l-3.72843,-3.088z" fill="#008536"/><path d="M74.01362,173.69951c-1.96345,-2.94368 5.86154,-10.39435 5.86154,-10.39435c0,0 -2.53827,-1.22116 -1.4639,-2.60416c1.23098,-1.5846 8.44408,-6.38119 8.44408,-6.38119c0,0 -2.98065,-1.5776 -0.95472,-3.34546c2.31074,-2.01638 9.73828,-4.24164 11.08301,-3.97928c2.03977,0.39795 7.43603,5.52607 8.95722,8.4995c0.70633,1.38065 -1.52046,2.00147 -1.52046,2.00147c0,0 4.10999,8.28661 4.5842,10.30743c0.23188,0.98812 -1.90027,1.12991 -1.90027,1.12991c0,0 4.8192,9.68717 2.63096,11.21162c-1.54115,1.07366 -5.41542,-3.13479 -5.41542,-3.13479c0,0 -3.26309,1.50512 -4.72568,1.23454c-1.4626,-0.27058 -5.63721,-3.15165 -5.63721,-3.15165c0,0 -4.42713,1.38431 -7.19172,0.80679c-2.7646,-0.57752 -3.72843,-3.088 -3.72843,-3.088c0,0 -8.04983,2.34694 -9.02321,0.88763z" fill="#87dcff"/></g></g><g data-paper-data="{&quot;index&quot;:null}"><path d="M180.71832,192.08796c0,0 1.92094,-2.88978 1.9498,-4.96206c0.04973,-3.57138 -1.67824,-14.53947 -1.67824,-14.53947l7.38664,-0.51797c0,0 0.38268,10.43092 0.97349,13.74537c0.45287,2.5406 3.67812,4.67337 3.67812,4.67337c0,0 -3.61482,-1.28838 -4.25247,-1.23451c-0.82332,0.06957 -1.65078,3.02475 -1.65078,3.02475c0,0 -1.6695,-2.51939 -2.23025,-2.45304c-0.78335,0.0927 -4.17629,2.26355 -4.17629,2.26355z" fill="#903600"/><g><path d="M166.2836,177.69423l3.02423,-7.7107l29.00006,-1.91061l4.16732,6.83763l-6.03149,-1.66572l-2.9152,2.29349l-7.59596,-1.53168l-6.75493,2.59667l-4.38737,-2.04644z" fill="#008536"/><path d="M166.48761,175.34429c-2.64314,-2.35249 3.04684,-11.53764 3.04684,-11.53764c0,0 -2.76437,-0.54063 -2.07405,-2.15011c0.79095,-1.84408 6.55908,-8.30666 6.55908,-8.30666c0,0 -3.28242,-0.77381 -1.76856,-2.99596c1.72668,-2.53454 8.35161,-6.56324 9.71901,-6.64897c2.07415,-0.13002 8.59047,3.46927 10.81321,5.96222c1.03208,1.15755 -0.96579,2.32054 -0.96579,2.32054c0,0 6.0693,6.98024 7.03843,8.81581c0.47388,0.89755 -1.55337,1.57314 -1.55337,1.57314c0,0 7.10918,8.15631 5.37681,10.18393c-1.2201,1.42803 -6.0315,-1.66572 -6.0315,-1.66572c0,0 -2.77728,2.28032 -4.2608,2.38784c-1.48352,0.10752 -6.25037,-1.62603 -6.25037,-1.62603c0,0 -3.9341,2.45737 -6.75493,2.59667c-2.82083,0.1393 -4.38737,-2.04644 -4.38737,-2.04644c0,0 -7.19632,4.3036 -8.50665,3.13736z" fill="#87dcff"/></g></g><g data-paper-data="{&quot;index&quot;:null}"><path d="M272.16343,188.52262c0,0 2.64704,-2.24366 3.24948,-4.22665c1.03827,-3.41749 2.41997,-14.43456 2.41997,-14.43456l7.24053,1.55096c0,0 -2.52524,10.12787 -2.87684,13.47615c-0.26951,2.56653 2.23772,5.51013 2.23772,5.51013c0,0 -3.11569,-2.24037 -3.74328,-2.36546c-0.81032,-0.1615 -2.42491,2.44827 -2.42491,2.44827c0,0 -0.90527,-2.88359 -1.46243,-2.97535c-0.77833,-0.1282 -4.64024,1.0165 -4.64024,1.0165z" fill="#903600"/><g><path d="M262.28691,170.6902l5.04409,-6.56948l28.39233,6.20721l2.1075,7.72517l-5.33293,-3.27315l-3.43692,1.39502l-6.8732,-3.57826l-7.2101,0.62139l-3.6477,-3.18296z" fill="#008536"/><path d="M263.13464,168.48902c-1.88703,-2.99325 6.12717,-10.24003 6.12717,-10.24003c0,0 -2.50599,-1.28609 -1.39638,-2.64098c1.27136,-1.55238 8.60554,-6.16171 8.60554,-6.16171c0,0 -2.93905,-1.65381 -0.86828,-3.36893c2.36188,-1.95623 9.84424,-3.98955 11.18177,-3.69267c2.02884,0.45032 7.29132,5.71566 8.73546,8.72727c0.67056,1.39838 -1.57148,1.96167 -1.57148,1.96167c0,0 3.89531,8.38967 4.31735,10.42202c0.20636,0.99376 -1.92872,1.08062 -1.92872,1.08062c0,0 4.56823,9.80801 2.34148,11.27563c-1.56828,1.03364 -5.33293,-3.27315 -5.33293,-3.27315c0,0 -3.30075,1.42062 -4.7559,1.11248c-1.45514,-0.30814 -5.55421,-3.29572 -5.55421,-3.29572c0,0 -4.4613,1.26989 -7.2101,0.62139c-2.74881,-0.6485 -3.6477,-3.18295 -3.6477,-3.18295c0,0 -8.10758,2.13895 -9.04306,0.65505z" fill="#87dcff"/></g></g><g data-paper-data="{&quot;index&quot;:null}"><path d="M439.97512,193.58946c0,0 -3.39294,-2.17085 -4.17629,-2.26355c-0.56074,-0.06635 -2.23024,2.45304 -2.23024,2.45304c0,0 -0.82746,-2.95518 -1.65078,-3.02475c-0.63766,-0.05387 -4.25247,1.23451 -4.25247,1.23451c0,0 3.22525,-2.13277 3.67812,-4.67337c0.5908,-3.31445 0.97348,-13.74537 0.97348,-13.74537l7.38664,0.51797c0,0 -1.72797,10.96809 -1.67824,14.53947c0.02885,2.07228 1.9498,4.96206 1.9498,4.96206z" fill="#903600"/><g><path d="M445.90321,176.05838l-4.38738,2.04644l-6.75493,-2.59667l-7.59596,1.53168l-2.9152,-2.29349l-6.0315,1.66572l4.16732,-6.83763l29.00006,1.91061l3.02423,7.7107z" fill="#008536"/><path d="M454.20586,176.84578c-1.31032,1.16624 -8.50665,-3.13736 -8.50665,-3.13736c0,0 -1.56653,2.18574 -4.38736,2.04644c-2.82083,-0.1393 -6.75494,-2.59667 -6.75494,-2.59667c0,0 -4.76685,1.73356 -6.25036,1.62604c-1.48352,-0.10753 -4.2608,-2.38784 -4.2608,-2.38784c0,0 -4.81141,3.09375 -6.0315,1.66572c-1.73237,-2.02761 5.37681,-10.18393 5.37681,-10.18393c0,0 -2.02725,-0.67559 -1.55337,-1.57314c0.96913,-1.83558 7.03843,-8.81581 7.03843,-8.81581c0,0 -1.99787,-1.163 -0.96579,-2.32055c2.22273,-2.49295 8.73905,-6.09224 10.8132,-5.96222c1.3674,0.08572 7.99232,4.11443 9.71901,6.64897c1.51387,2.22215 -1.76855,2.99597 -1.76855,2.99597c0,0 5.76812,6.46257 6.55908,8.30666c0.69032,1.60948 -2.07405,2.15011 -2.07405,2.15011c0,0 5.68999,9.18516 3.04684,11.53764z" fill="#87dcff"/></g></g><g data-paper-data="{&quot;index&quot;:null}"><path d="M366.54804,191.52563c0,0 -3.8619,-1.1447 -4.64024,-1.01651c-0.55715,0.09176 -1.46243,2.97535 -1.46243,2.97535c0,0 -1.6146,-2.60977 -2.42492,-2.44827c-0.62759,0.12509 -3.74328,2.36547 -3.74328,2.36547c0,0 2.50722,-2.9436 2.23772,-5.51014c-0.35159,-3.34829 -2.87684,-13.47616 -2.87684,-13.47616l7.24053,-1.55096c0,0 1.3817,11.01707 2.41997,14.43456c0.60244,1.98299 3.24948,4.22665 3.24948,4.22665z" fill="#903600"/><g><path d="M367.38151,173.03814l-3.6477,3.18296l-7.21011,-0.62139l-6.8732,3.57826l-3.43692,-1.39502l-5.33292,3.27315l2.10749,-7.72517l28.39233,-6.20721l5.04409,6.56949z" fill="#008536"/><path d="M375.57684,171.49202c-0.93548,1.48389 -9.04307,-0.65505 -9.04307,-0.65505c0,0 -0.89888,2.53445 -3.6477,3.18295c-2.74881,0.64849 -7.2101,-0.62139 -7.2101,-0.62139c0,0 -4.09907,2.98758 -5.55421,3.29572c-1.45515,0.30813 -4.7559,-1.11248 -4.7559,-1.11248c0,0 -3.76464,4.30679 -5.33293,3.27315c-2.22676,-1.46761 2.34148,-11.27563 2.34148,-11.27563c0,0 -2.13508,-0.08685 -1.92872,-1.08061c0.42203,-2.03235 4.31734,-10.42202 4.31734,-10.42202c0,0 -2.24204,-0.56329 -1.57148,-1.96167c1.44414,-3.01161 6.70662,-8.27695 8.73546,-8.72727c1.33754,-0.29688 8.81989,1.73644 11.18177,3.69267c2.07077,1.71512 -0.86828,3.36893 -0.86828,3.36893c0,0 7.33418,4.60933 8.60554,6.16171c1.10961,1.35489 -1.39638,2.64099 -1.39638,2.64099c0,0 8.0142,7.24678 6.12717,10.24003z" fill="#87dcff"/></g></g><path d="M73.46197,94.48894l-4.37357,-4.1163l4.1163,-4.37358l4.37357,4.1163z" fill="#ffffff"/><path d="M266.46197,54.98894l-4.37358,-4.1163l4.11631,-4.37358l4.37357,4.11631z" fill="#ffffff"/><path d="M236.46197,141.48894l-4.37358,-4.11631l4.11631,-4.37357l4.37357,4.11631z" fill="#ffffff"/><path d="M436.96197,93.98893l-4.37358,-4.1163l4.11631,-4.37357l4.37357,4.11631z" fill="#ffffff"/><path d="M16.40491,-7.61317l-4.37357,-4.1163l4.1163,-4.37358l4.37357,4.1163z" fill="#ffffff"/><path d="M209.40491,-47.11317l-4.37358,-4.1163l4.11631,-4.37358l4.37357,4.11631z" fill="#ffffff"/><path d="M179.40491,39.38683l-4.37358,-4.11631l4.11631,-4.37357l4.37357,4.11631z" fill="#ffffff"/><path d="M379.90491,-8.11317l-4.37358,-4.1163l4.11631,-4.37358l4.37357,4.1163z" fill="#ffffff"/><path d="M67.45596,-106.71227l-4.37357,-4.1163l4.1163,-4.37358l4.37357,4.1163z" fill="#ffffff"/><path d="M260.45596,-146.21227l-4.37358,-4.1163l4.11631,-4.37357l4.37357,4.1163z" fill="#ffffff"/><path d="M319.04455,-65.71827l-4.37358,-4.11631l4.11631,-4.37357l4.37357,4.11631z" fill="#ffffff"/><path d="M430.95596,-107.21227l-4.37358,-4.1163l4.11631,-4.37358l4.37357,4.1163z" fill="#ffffff"/></g></g></svg>