<svg version="1.1" xmlns="http://www.w3.org/2000/svg" xmlns:xlink="http://www.w3.org/1999/xlink" width="462.45404" height="269.08573" viewBox="0,0,462.45404,269.08573"><g transform="translate(-15.9144,-79.56176)"><g data-paper-data="{&quot;isPaintingLayer&quot;:true}" fill-rule="nonzero" stroke-linejoin="miter" stroke-miterlimit="10" stroke-dasharray="" stroke-dashoffset="0" style="mix-blend-mode: normal"><path d="M346.27951,176.01748c37.07643,-6.17344 72.16848,19.06507 78.38026,56.37181c6.21179,37.30675 -18.80897,72.55437 -55.8854,78.72781c-37.07643,6.17344 -72.16848,-19.06507 -78.38026,-56.37181c-6.21179,-37.30675 18.80897,-72.55437 55.8854,-78.72781z" data-paper-data="{&quot;index&quot;:null}" fill="#ff001e" stroke="#9e0000" stroke-width="2" stroke-linecap="butt"/><path d="M377.26671,250.09285c0,0 6.1236,13.53683 -11.55108,19.41207c-23.03503,7.6571 -41.66815,2.0778 -41.66815,2.0778" data-paper-data="{&quot;index&quot;:null}" fill="none" stroke="#000000" stroke-width="2" stroke-linecap="round"/><path d="M342.10534,204.99579c1.84232,-0.30676 5.13867,10.27232 7.36264,23.62907c2.22397,13.3567 2.53338,24.43317 0.69107,24.73992c-1.84232,0.30676 -5.13867,-10.27232 -7.36264,-23.62907c-2.22397,-13.3567 -2.53338,-24.43317 -0.69107,-24.73992z" data-paper-data="{&quot;index&quot;:null}" fill="#000000" stroke="#000000" stroke-width="2" stroke-linecap="butt"/><path d="M333.75824,255.23856c-1.61201,0.26841 -4.65953,-9.96841 -6.80681,-22.86456c-2.14728,-12.89614 -2.58122,-23.56814 -0.9692,-23.83655c1.61201,-0.26841 4.65953,9.96841 6.80681,22.86456c2.14728,12.89614 2.58122,23.56814 0.9692,23.83655z" data-paper-data="{&quot;index&quot;:null}" fill="#000000" stroke="#000000" stroke-width="2" stroke-linecap="butt"/><path d="M378.08142,343.85016c-155.45209,27.62509 -103.11254,-104.53494 -103.11254,-104.53494c0,0 -9.09577,49.75987 66.06128,36.08337c79.62638,-14.48979 122.27137,-63.15648 122.27137,-63.15648c0,0 65.22358,104.87302 -85.22009,131.60808z" data-paper-data="{&quot;index&quot;:null}" fill="#475875" stroke="#232c43" stroke-width="2" stroke-linecap="butt"/><path d="M365.1427,192.33592c0,0 -4.15131,-0.69437 -10.18194,8.96277c-5.14512,8.23908 -4.89889,30.39009 -14.33168,29.31346c-2.86597,-0.32709 -4.08013,-6.33201 -4.08013,-6.33201c0,0 -0.90669,7.69271 -4.00887,7.35128c-8.38311,-0.92254 -6.21371,-15.36701 -11.8793,-23.64608c-5.39229,-7.87972 -12.98827,-11.30894 -12.98827,-11.30894" data-paper-data="{&quot;index&quot;:null}" fill="#ff001e" stroke="#9e0000" stroke-width="2" stroke-linecap="round"/><path d="M317.31469,332.95079c-12.67954,2.11122 -24.66983,-6.45612 -26.78104,-19.13565c-2.11122,-12.67954 6.45612,-24.66983 19.13565,-26.78104c12.67954,-2.11122 24.66983,6.45612 26.78104,19.13565c2.11122,12.67954 -6.45612,24.66983 -19.13565,26.78104z" data-paper-data="{&quot;index&quot;:null}" fill="#4a472c" stroke="#120b00" stroke-width="2" stroke-linecap="butt"/><path d="M464.97184,251.56784c0,0 -13.42199,13.58876 -22.24721,19.83144c-9.42148,6.66445 -33.84739,20.02652 -33.84739,20.02652l-17.71754,-6.56491l9.06047,-16.57749c0,0 25.97755,-8.73466 36.12405,-13.89985c9.62327,-4.89884 23.26838,-16.33457 23.26838,-16.33457l5.35927,13.51886z" data-paper-data="{&quot;index&quot;:null}" fill="#ff0000" stroke="#9e0000" stroke-width="2" stroke-linecap="butt"/><path d="M16.91866,266.75059c-0.41452,-37.27691 29.46836,-67.83186 66.74527,-68.24638c37.27691,-0.41452 67.83186,29.46836 68.24638,66.74527c0.41452,37.27691 -29.46836,67.83186 -66.74527,68.24638c-37.27691,0.41452 -67.83186,-29.46836 -68.24638,-66.74527z" data-paper-data="{&quot;index&quot;:null}" fill="#0068ff" stroke="#0010c7" stroke-width="2" stroke-linecap="butt"/><path d="M113.46244,256.64201c0,13.07074 -2.01472,23.66667 -4.5,23.66667c-2.48528,0 -4.5,-10.59593 -4.5,-23.66667c0,-13.07074 2.01472,-23.66667 4.5,-23.66667c2.48528,0 4.5,10.59593 4.5,23.66667z" fill="#000000" stroke="none" stroke-width="0" stroke-linecap="butt"/><path d="M131.46244,257.64201c0,12.88664 -1.567,23.33333 -3.5,23.33333c-1.933,0 -3.5,-10.44669 -3.5,-23.33333c0,-12.88664 1.567,-23.33333 3.5,-23.33333c1.933,0 3.5,10.44669 3.5,23.33333z" fill="#000000" stroke="none" stroke-width="0" stroke-linecap="butt"/><path d="M44.46244,301.30591c0,0 17.15243,-5.36573 28.40676,-6.28205c14.09913,-1.14794 49.59324,-0.06865 49.59324,-0.06865" data-paper-data="{&quot;index&quot;:null}" fill="none" stroke="#000000" stroke-width="2" stroke-linecap="round"/><path d="M306.24268,134.73065c0,9.49787 -28.48315,29.14632 -28.48315,29.14632c0,0 -0.38539,9.12803 1.78238,13.34481c2.96935,5.77603 14.39816,18.12985 14.39816,18.12985c0,0 -25.89263,-1.30006 -35.54341,-3.43389c-8.59029,-1.89935 -19.55098,-8.74773 -19.55098,-8.74773c0,0 -35.04712,5.72954 -54.7206,5.72954c-67.44369,0 -122.11759,-24.25225 -122.11759,-54.1689c0,-29.91665 54.67391,-54.16889 122.11759,-54.16889c67.44369,0 122.11759,24.25224 122.11759,54.16889z" data-paper-data="{&quot;index&quot;:null}" fill="#ffffff" stroke="#00c1ff" stroke-width="2" stroke-linecap="butt"/><text transform="translate(83.31553,131.78112) scale(0.45703,0.45703)" font-size="40" xml:space="preserve" data-paper-data="{&quot;index&quot;:null}" fill="#00c1ff" fill-rule="nonzero" stroke="none" stroke-width="1" stroke-linecap="butt" stroke-linejoin="miter" stroke-miterlimit="10" stroke-dasharray="" stroke-dashoffset="0" font-family="Marker" font-weight="normal" text-anchor="start" style="mix-blend-mode: normal"><tspan x="0" dy="0">It truly was, wasn't it?</tspan></text></g></g></svg>