<svg version="1.1" xmlns="http://www.w3.org/2000/svg" xmlns:xlink="http://www.w3.org/1999/xlink" width="585.30207" height="457.69587" viewBox="0,0,585.30207,457.69587"><defs><linearGradient x1="240" y1="-16.50001" x2="240" y2="376.5" gradientUnits="userSpaceOnUse" id="color-1"><stop offset="0" stop-color="#637b86"/><stop offset="1" stop-color="#2f3a3f"/></linearGradient></defs><g transform="translate(81.30206,16.5)"><g data-paper-data="{&quot;isPaintingLayer&quot;:true}" fill-rule="nonzero" stroke-linejoin="miter" stroke-miterlimit="10" stroke-dasharray="" stroke-dashoffset="0" style="mix-blend-mode: normal"><path d="M-24,376.5v-393h528v393z" fill="url(#color-1)" stroke="none" stroke-width="0" stroke-linecap="butt"/><path d="M251.53552,150.36377c-0.41823,-37.61181 29.73309,-68.44124 67.3449,-68.85951c37.61181,-0.41823 68.44124,29.7331 68.85951,67.34491c0.41823,37.61181 -29.7331,68.44123 -67.34491,68.8595c-37.61181,0.41823 -68.44123,-29.73309 -68.8595,-67.3449z" data-paper-data="{&quot;index&quot;:null}" fill="#0068ff" stroke="#0010c7" stroke-width="2" stroke-linecap="butt"/><path d="M213.18858,294.91048c0,0 -0.42023,7.13208 -2.26174,8.92762c-2.29598,2.23867 -10.45396,3.47054 -10.45396,3.47054l-76.2357,0.50319c0,0 -8.18309,-1.78366 -10.29289,-5.56166c-1.78855,-3.20274 -1.56205,-12.27183 -1.56205,-12.27183l1.14193,-65.10775c0,0 0.09237,-10.7902 1.983,-13.32681c2.10911,-2.82978 10.08805,-2.86866 10.08805,-2.86866l69.2598,0.54878c0,0 11.67146,-0.28975 14.75215,2.58462c3.02965,2.82674 3.58141,14.52106 3.58141,14.52106v68.58086z" data-paper-data="{&quot;index&quot;:null}" fill="#00ff3f" stroke="#00c230" stroke-width="2" stroke-linecap="butt"/><path d="M192.76246,260.86088v-42.60971l8.14821,-0.16846v42.77817z" data-paper-data="{&quot;index&quot;:null}" fill="#000000" stroke="none" stroke-width="2" stroke-linecap="butt"/><path d="M178.50304,260.86091v-42.77817l8.14824,0.16849v42.60968z" data-paper-data="{&quot;index&quot;:null}" fill="#000000" stroke="none" stroke-width="2" stroke-linecap="butt"/><path d="M172.57902,231.59906v-4.50257h7.96607v4.50257z" fill="#000000" stroke="none" stroke-width="2" stroke-linecap="butt"/><path d="M199.59437,231.94542v-4.1562h6.92702v4.15621z" fill="#000000" stroke="none" stroke-width="2" stroke-linecap="butt"/><path d="M-64.45378,350.6513v-96.56766c0,0 21.71282,-22.27877 57.94058,7.0231c15.29253,12.36895 18.08972,24.9838 28.39127,41.52072c14.10267,22.63884 33.06087,48.02384 33.06087,48.02384z" fill="#b0ccd7" stroke="#639b9b" stroke-width="2" stroke-linecap="butt"/><path d="M439.4538,368.20907c0,39.75721 -95.11658,71.9868 -212.44884,71.9868c-117.33223,0 -305.50495,-82.52145 -305.50495,-82.52145c0,0 188.17269,-61.45214 305.50495,-61.45214c117.33223,0 212.44885,32.22959 212.44885,71.98679z" fill="#00bcff" stroke="#00b1b1" stroke-width="2" stroke-linecap="butt"/><path d="M453.50001,362.94173c0,5.81813 -4.32346,10.53465 -9.65677,10.53465c-5.33328,0 -9.65678,-4.71653 -9.65678,-10.53465c0,-5.81813 4.32346,-10.53465 9.65678,-10.53465c5.33328,0 9.65677,4.71652 9.65677,10.53465z" fill="#b0ccd7" stroke="#639b9b" stroke-width="2" stroke-linecap="butt"/><path d="M436.8148,391.86164v-64.2512h11.70518v64.2512z" fill="#b0ccd7" stroke="#639b9b" stroke-width="2" stroke-linecap="butt"/><path d="M263.99283,238.88623l15.22209,-12.60581l84.0387,101.48069l-15.22209,12.60581z" fill="#b0ccd7" stroke="#639b9b" stroke-width="2" stroke-linecap="butt"/><path d="M248.07428,332.50828v-105.34654h15.80197v105.34654z" fill="#b0ccd7" stroke="#639b9b" stroke-width="2" stroke-linecap="butt"/><path d="M374.4901,335.43458v-109.44334h14.04622v109.44335z" fill="#b0ccd7" stroke="#639b9b" stroke-width="2" stroke-linecap="butt"/><path d="M234.02807,234.77011v-21.0693h168.55445v21.0693z" fill="#b0ccd7" stroke="#639b9b" stroke-width="2" stroke-linecap="butt"/><path d="M235.78382,347.13974v-19.31353h163.28712v19.31353z" fill="#b0ccd7" stroke="#639b9b" stroke-width="2" stroke-linecap="butt"/><path d="M283.0044,139.19926c0,11.59798 -3.05849,21 -6.83132,21c-3.77283,0 -6.83132,-9.40202 -6.83132,-21c0,-11.59798 3.05849,-21 6.83132,-21c3.77283,0 6.83132,9.40202 6.83132,21z" fill="#000000" stroke="none" stroke-width="0" stroke-linecap="butt"/><path d="M302.0044,139.69926c0,11.59798 -3.05849,21 -6.83132,21c-3.77283,0 -6.83132,-9.40202 -6.83132,-21c0,-11.59798 3.05849,-21 6.83132,-21c3.77283,0 6.83132,9.40202 6.83132,21z" fill="#000000" stroke="none" stroke-width="0" stroke-linecap="butt"/><path d="M356.34175,196.44926c0,10.07919 -19.2076,7.75 -35.5,7.75c-16.2924,0 -31,3.82919 -31,-6.25c0,-10.07919 10.7076,-35.75 27,-35.75c16.2924,0 39.5,24.17081 39.5,34.25z" fill="#000000" stroke="none" stroke-width="0" stroke-linecap="butt"/><path d="M260.92885,114.12619l20.5,-12" fill="none" stroke="#000000" stroke-width="2" stroke-linecap="round"/><path d="M290.42885,102.12619l24,12.5" fill="none" stroke="#000000" stroke-width="2" stroke-linecap="round"/><path d="M194.48759,289.5742c0,2.76142 -3.3203,2.5 -10.5,2.5c-7.1797,0 -13,0.76142 -13,-2c0,-2.76142 5.8203,-8 13,-8c7.1797,0 10.5,4.73858 10.5,7.5z" fill="#000000" stroke="none" stroke-width="0" stroke-linecap="butt"/><path d="M254.24268,97.73065c0,9.49787 -28.48315,29.14632 -28.48315,29.14632c0,0 -0.38539,9.12803 1.78238,13.34481c2.96935,5.77603 14.39816,18.12985 14.39816,18.12985c0,0 -25.89263,-1.30006 -35.54341,-3.43389c-8.59029,-1.89935 -19.55098,-8.74773 -19.55098,-8.74773c0,0 -35.04712,5.72954 -54.7206,5.72954c-67.44369,0 -122.11759,-24.25225 -122.11759,-54.1689c0,-29.91665 54.67391,-54.16889 122.11759,-54.16889c67.44369,0 122.11759,24.25224 122.11759,54.16889z" data-paper-data="{&quot;index&quot;:null}" fill="#ffffff" stroke="#00c1ff" stroke-width="2" stroke-linecap="butt"/><text transform="translate(31.31552,93.30956) scale(0.41615,0.41615)" font-size="40" xml:space="preserve" data-paper-data="{&quot;index&quot;:null}" fill="#00c1ff" fill-rule="nonzero" stroke="none" stroke-width="1" stroke-linecap="butt" stroke-linejoin="miter" stroke-miterlimit="10" stroke-dasharray="" stroke-dashoffset="0" font-family="Marker" font-weight="normal" text-anchor="start" style="mix-blend-mode: normal"><tspan x="0" dy="0">Thanks for saving me!</tspan><tspan x="0" dy="48px">I owe you one... or more...</tspan></text></g></g></svg>