<svg version="1.1" xmlns="http://www.w3.org/2000/svg" xmlns:xlink="http://www.w3.org/1999/xlink" width="471.22586" height="271.4757" viewBox="0,0,471.22586,271.4757"><g transform="translate(-13.27413,-72.56174)"><g data-paper-data="{&quot;isPaintingLayer&quot;:true}" fill-rule="nonzero" stroke-linejoin="miter" stroke-miterlimit="10" stroke-dasharray="" stroke-dashoffset="0" style="mix-blend-mode: normal"><path d="M353.64667,134.47434c0,10.6803 -32.02914,32.77487 -32.02914,32.77487c0,0 -0.43336,10.26442 2.00428,15.00616c3.33902,6.49511 16.19065,20.38691 16.19065,20.38691c0,0 -29.11611,-1.46191 -39.96836,-3.86139c-9.65973,-2.13581 -21.98496,-9.83677 -21.98496,-9.83677c0,0 -39.41028,6.44283 -61.533,6.44283c-75.84003,0 -137.32052,-27.27151 -137.32052,-60.91261c0,-33.6411 61.48049,-60.9126 137.32052,-60.9126c75.84003,0 137.32052,27.2715 137.32052,60.9126z" fill="#ffffff" stroke="#00c1ff" stroke-width="2" stroke-linecap="butt"/><path d="M416,334.5c-37.27922,0 -67.5,-30.22078 -67.5,-67.5c0,-37.27922 30.22078,-67.5 67.5,-67.5c37.27922,0 67.5,30.22078 67.5,67.5c0,37.27922 -30.22078,67.5 -67.5,67.5z" data-paper-data="{&quot;index&quot;:null}" fill="#0068ff" stroke="#0010c7" stroke-width="2" stroke-linecap="butt"/><path d="M390.62877,248.21411c2.94308,0 5.32894,10.0736 5.32894,22.50001c0,12.4264 -2.38584,22.50001 -5.32894,22.50001c-2.94308,0 -5.32894,-10.07361 -5.32894,-22.50001c0,-12.4264 2.38584,-22.50001 5.32894,-22.50001z" data-paper-data="{&quot;index&quot;:null}" fill="#000000" stroke="none" stroke-width="0" stroke-linecap="butt"/><path d="M374.64194,270.71412c0,10.79136 -1.59057,19.53949 -3.55263,19.53949c-1.96206,0 -3.55264,-8.74813 -3.55264,-19.53949c0,-10.79136 1.59057,-19.53948 3.55264,-19.53948c1.96206,0 3.55263,8.74812 3.55263,19.53948z" data-paper-data="{&quot;index&quot;:null}" fill="#000000" stroke="none" stroke-width="0" stroke-linecap="butt"/><path d="M384.74006,317.55169c0,0 12.82661,-17.40072 33.08402,-25.25624c29.30696,-11.3648 37.29898,-3.95788 37.29898,-3.95788" data-paper-data="{&quot;index&quot;:null}" fill="none" stroke="#000000" stroke-width="2" stroke-linecap="round"/><path d="M378.1317,252.16127c0,5.0396 -4.36523,9.125 -9.75,9.125c-5.38477,0 -9.75,-4.0854 -9.75,-9.125c0,-5.0396 4.36523,-9.125 9.75,-9.125c5.38477,0 9.75,4.0854 9.75,9.125z" fill="#0068ff" stroke="none" stroke-width="NaN" stroke-linecap="butt"/><text transform="translate(110.58585,128.61668) scale(0.60293,0.60293)" font-size="40" xml:space="preserve" fill="#00c1ff" fill-rule="nonzero" stroke="none" stroke-width="1" stroke-linecap="butt" stroke-linejoin="miter" stroke-miterlimit="10" stroke-dasharray="" stroke-dashoffset="0" font-family="Marker" font-weight="normal" text-anchor="start" style="mix-blend-mode: normal"><tspan x="0" dy="0">So... who the heck</tspan><tspan x="0" dy="46.150000000000006px">are you?</tspan></text><text transform="translate(13.52413,338.6738) scale(0.5,0.5)" font-size="40" xml:space="preserve" fill="#ffffff" fill-rule="nonzero" stroke="none" stroke-width="1" stroke-linecap="butt" stroke-linejoin="miter" stroke-miterlimit="10" stroke-dasharray="" stroke-dashoffset="0" font-family="Pixel" font-weight="normal" text-anchor="start" style="mix-blend-mode: normal"><tspan x="0" dy="0">[press z]</tspan></text></g></g></svg>