<svg version="1.1" xmlns="http://www.w3.org/2000/svg" xmlns:xlink="http://www.w3.org/1999/xlink" width="86.21825" height="75.04141" viewBox="0,0,86.21825,75.04141"><g transform="translate(-196.6236,-133.81333)"><g data-paper-data="{&quot;isPaintingLayer&quot;:true}" fill-rule="nonzero" stroke-width="2" stroke-linejoin="miter" stroke-miterlimit="10" stroke-dasharray="" stroke-dashoffset="0" style="mix-blend-mode: normal"><path d="M272.15825,174.47983c0,12.33504 -9.9378,22.33456 -22.19669,22.33456c-12.25889,0 -22.19669,-9.99952 -22.19669,-22.33456c0,-12.33504 9.9378,-22.33456 22.19669,-22.33456c12.25889,0 22.19669,9.99952 22.19669,22.33456z" fill="#ff001e" stroke="#9e0000" stroke-linecap="butt"/><g><path d="M263.59469,183.08144c1.14066,1.22267 3.12889,8.79705 -0.03688,9.69747c-2.02907,0.57712 -6.54274,-2.0193 -9.2221,-2.0193c-2.84806,0 -9.27987,2.52292 -11.70829,0.86729c-3.42056,-2.33204 -2.23164,-9.17668 -0.93811,-10.12626c4.96823,-3.64719 5.78671,-0.67749 12.6464,-0.67749c6.85969,0 5.64572,-1.61473 9.25897,2.25829z" fill="#ffffff" stroke="#969696" stroke-linecap="butt"/><path d="M240.786,186.24304l23.26035,-0.67749" fill="none" stroke="#8a7b6c" stroke-linecap="round"/><path d="M248.68999,191.4371l0.45166,-10.61395" fill="none" stroke="#969696" stroke-linecap="round"/><path d="M257.94898,190.08213l-0.22583,-8.80732" fill="none" stroke="#969696" stroke-linecap="round"/></g><path d="M253.95975,169.24087c0,4.41625 -0.4938,7.99632 -1.10294,7.99632c-0.60914,0 -1.10294,-3.58008 -1.10294,-7.99632c0,-4.41625 0.4938,-7.99632 1.10294,-7.99632c0.60914,0 1.10294,3.58008 1.10294,7.99632z" fill="#000000" stroke="#000000" stroke-linecap="butt"/><path d="M257.26851,169.24087c0,-4.26396 0.43208,-7.72059 0.96507,-7.72059c0.533,0 0.96507,3.45663 0.96507,7.72059c0,4.26396 -0.43208,7.72059 -0.96507,7.72059c-0.533,0 -0.96507,-3.45663 -0.96507,-7.72059z" fill="#000000" stroke="#000000" stroke-linecap="butt"/><path d="M263.76337,157.52822c0,0 -2.32084,1.28448 -3.75427,4.01673c-1.50608,2.87072 -0.2368,7.66014 -2.91067,8.12094c-0.98947,0.17053 -1.58506,-2.3847 -1.58506,-2.3847c0,0 -0.15641,2.02954 -1.07008,2.19099c-3.00716,0.53139 -3.79852,-6.87828 -5.78582,-9.53912c-2.32933,-3.1188 -3.64409,-2.81121 -3.64409,-2.81121" fill="#ff001e" stroke="#9e0000" stroke-linecap="round"/><path d="M214.86282,152.18711c-0.3273,0.4364 -1.30018,0.25951 -2.17299,-0.39509c-0.87281,-0.65461 -1.31503,-1.53905 -0.98772,-1.97545c0.3273,-0.4364 1.30018,-0.25951 2.17299,0.39509c0.87281,0.65461 1.31503,1.53905 0.98772,1.97545z" fill="#00e6ff" stroke="#00519e" stroke-linecap="butt"/><path d="M228.28278,137.98631c-0.4381,0.27623 -1.2411,-0.21014 -1.79356,-1.08633c-0.55246,-0.87619 -0.64517,-1.81042 -0.20707,-2.08665c0.4381,-0.27623 1.2411,0.21014 1.79356,1.08633c0.55246,0.87619 0.64517,1.81042 0.20707,2.08665z" fill="#00e6ff" stroke="#00519e" stroke-linecap="butt"/><path d="M248.72078,207.8438c-49.83273,-0.5422 -34.46691,-37.77574 -34.46691,-37.77574c0,0 16.32668,13.37259 42.72019,13.7688c24.91207,0.37397 19.32025,-15.14748 19.32025,-15.14748c0,0 23.91818,39.71466 -27.57353,39.15441z" fill="#475875" stroke="#232c43" stroke-linecap="butt"/><path d="M260.09578,193.49119c0,-4.19234 3.39857,-7.59091 7.59091,-7.59091c4.19234,0 7.59091,3.39857 7.59091,7.59091c0,4.19234 -3.39857,7.59091 -7.59091,7.59091c-4.19234,0 -7.59091,-3.39857 -7.59091,-7.59091z" fill="#3c3a2a" stroke="#2a251f" stroke-linecap="butt"/><path d="M215.82309,182.80938l1,-4.63636c0,0 5.00248,2.94815 8.36089,4.0087c3.54101,1.11821 12.36638,2.53675 12.36638,2.53675l3.80295,4.84794l-5.3484,3.06115c0,0 -8.57406,-2.99038 -11.96213,-4.62977c-3.17365,-1.53564 -8.21968,-5.18841 -8.21968,-5.18841z" fill="#ff0000" stroke="#9e0000" stroke-linecap="butt"/><path d="M252.92361,183.66406l3.5,10l-18,5.25l2.25,4.75l-1.25,3.5" fill="none" stroke="#232c43" stroke-linecap="round"/><path d="M273.92361,177.91406l1.75,5.5l4,1.5l1.25,5.75" fill="none" stroke="#232c43" stroke-linecap="round"/><path d="M215.17361,193.91406l6.5,3.25l3.75,-4.25l14.25,5.75" fill="none" stroke="#232c43" stroke-linecap="round"/><path d="M265.67361,191.91406l2.75,-3l3.5,3.5l2,-1.5" fill="none" stroke="#2a251f" stroke-linecap="round"/><path d="M270.92361,192.66406l-2,3.25l3.25,-0.25l-0.5,4l-8.25,-3.75l2.75,-2.25l-4.5,-3.75" fill="none" stroke="#2a251f" stroke-linecap="round"/><path d="M197.6236,179.58906c0,-2.9133 2.3617,-5.275 5.275,-5.275c2.9133,0 5.275,2.3617 5.275,5.275c0,2.9133 -2.3617,5.275 -5.275,5.275c-2.9133,0 -5.275,-2.3617 -5.275,-5.275z" fill="#3c3a2a" stroke="#2a251f" stroke-linecap="butt"/><path d="M205.92361,187.98906c0,-1.14599 0.92901,-2.075 2.075,-2.075c1.14599,0 2.075,0.92901 2.075,2.075c0,1.14599 -0.92901,2.075 -2.075,2.075c-1.14599,0 -2.075,-0.92901 -2.075,-2.075z" fill="#3c3a2a" stroke="#2a251f" stroke-linecap="butt"/></g></g></svg>