<svg version="1.1" xmlns="http://www.w3.org/2000/svg" xmlns:xlink="http://www.w3.org/1999/xlink" width="496.49057" height="329.39444" viewBox="0,0,496.49057,329.39444"><g transform="translate(3.09146,-40.88551)"><g data-paper-data="{&quot;isPaintingLayer&quot;:true}" fill-rule="nonzero" stroke="none" stroke-linecap="butt" stroke-linejoin="miter" stroke-miterlimit="10" stroke-dasharray="" stroke-dashoffset="0" style="mix-blend-mode: normal"><g><g stroke-width="0"><path d="M161.65865,265.14471v-105h80.6129v105z" fill="#a9b4ff"/><path d="M161.65865,223.82213v-16.93548c0,0 4.80147,1.16686 10.593,-0.67424c8.56762,-2.7236 20.10698,-8.80964 28.0199,-8.80964c6.92139,0 16.99804,5.84328 25.89133,8.25571c8.58204,2.328 16.10867,1.22817 16.10867,1.22817v16.93549c0,0 -10.69637,0.29594 -19.72546,-2.17871c-9.49656,-2.60277 -17.50854,-7.98258 -24.3068,-7.98258c-6.18608,0 -12.28035,4.81185 -19.30236,7.10388c-8.41637,2.74716 -17.27828,3.05741 -17.27828,3.05741z" fill="#7688ff"/><path d="M161.65865,188.59633v-16.93548c0,0 4.80147,1.16686 10.593,-0.67424c8.56762,-2.7236 20.10698,-8.80963 28.0199,-8.80963c6.92139,0 16.99804,5.84327 25.89133,8.2557c8.58204,2.328 16.10867,1.22817 16.10867,1.22817v16.93549c0,0 -10.69637,0.29594 -19.72546,-2.17871c-9.49656,-2.60277 -17.50854,-7.98258 -24.3068,-7.98258c-6.18608,0 -12.28035,4.81185 -19.30236,7.10388c-8.41637,2.74716 -17.27828,3.05741 -17.27828,3.05741z" fill="#7688ff"/><path d="M161.65865,259.04794v-16.93548c0,0 4.80147,1.16686 10.593,-0.67423c8.56762,-2.7236 20.10698,-8.80964 28.0199,-8.80964c6.92139,0 16.99804,5.84328 25.89133,8.25571c8.58204,2.328 16.10867,1.22816 16.10867,1.22816v16.93549c0,0 -10.69637,0.29595 -19.72546,-2.1787c-9.49656,-2.60277 -17.50854,-7.98259 -24.3068,-7.98259c-6.18608,0 -12.28035,4.81184 -19.30236,7.10388c-8.41637,2.74716 -17.27828,3.05741 -17.27828,3.05741z" fill="#7688ff"/></g><path d="M179.65864,146.97804c4.09284,0.13052 8.01835,1.82237 12.19968,2c6.81417,0.28947 13.04443,-2.59253 19.80032,-2.66667c6.59202,-0.07234 17.44667,0.85233 24.91407,0.61994c2.02446,-0.063 4.05279,0.98817 6.09111,1.46469c6.03514,1.4109 10.35427,1.23102 11.82816,8.41537c1.30614,6.36671 -7.52909,8.14978 -9.22917,13.25c-0.91712,2.75136 -0.01022,6.03476 -1.64856,8.60929c-1.46073,2.29543 -4.75351,3.48122 -7.37487,3.68744c-3.90293,0.30703 -6.71413,-5.06408 -9.87305,-6.80763c-3.74927,-2.06939 -7.94566,-2.42604 -12.02976,-3.44706c-0.40417,-0.10104 -2.58857,-1.83885 -2.95817,-1.73737c-5.85385,1.60725 -10.87982,4.69454 -17.37516,3.07071c-2.33403,-0.58351 -6.05002,-5.88291 -8.3446,-5.45871c-8.6853,1.60568 -10.80107,6.61491 -21,5.66667c-7.62785,-0.7092 -8.67011,-8.15289 -7.15775,-14.20234c0.03209,-0.66226 0.15007,-1.30197 0.34305,-1.90824c0.7193,-9.35095 15.54679,-10.75596 21.8147,-10.55608z" fill="#a4ddff" stroke-width="0.5"/></g><g><g stroke-width="0"><path d="M81.90789,265.47805v-105h80.6129v105z" fill="#a9b4ff"/><path d="M81.90789,224.15547v-16.93548c0,0 4.80147,1.16686 10.593,-0.67424c8.56762,-2.7236 20.10698,-8.80964 28.0199,-8.80964c6.92139,0 16.99804,5.84328 25.89133,8.25571c8.58204,2.328 16.10867,1.22817 16.10867,1.22817v16.93549c0,0 -10.69637,0.29594 -19.72546,-2.17871c-9.49656,-2.60277 -17.50854,-7.98258 -24.3068,-7.98258c-6.18608,0 -12.28035,4.81185 -19.30236,7.10388c-8.41637,2.74716 -17.27828,3.05741 -17.27828,3.05741z" fill="#7688ff"/><path d="M81.90789,188.92967v-16.93548c0,0 4.80147,1.16686 10.593,-0.67424c8.56762,-2.7236 20.10698,-8.80963 28.0199,-8.80963c6.92139,0 16.99804,5.84327 25.89133,8.2557c8.58204,2.328 16.10867,1.22817 16.10867,1.22817v16.93549c0,0 -10.69637,0.29594 -19.72546,-2.17871c-9.49656,-2.60277 -17.50854,-7.98258 -24.3068,-7.98258c-6.18608,0 -12.28035,4.81185 -19.30236,7.10388c-8.41637,2.74716 -17.27828,3.05741 -17.27828,3.05741z" fill="#7688ff"/><path d="M81.90789,259.38128v-16.93548c0,0 4.80147,1.16686 10.593,-0.67423c8.56762,-2.7236 20.10698,-8.80964 28.0199,-8.80964c6.92139,0 16.99804,5.84328 25.89133,8.25571c8.58204,2.328 16.10867,1.22816 16.10867,1.22816v16.93549c0,0 -10.69637,0.29595 -19.72546,-2.1787c-9.49656,-2.60277 -17.50854,-7.98259 -24.3068,-7.98259c-6.18608,0 -12.28035,4.81184 -19.30236,7.10388c-8.41637,2.74716 -17.27828,3.05741 -17.27828,3.05741z" fill="#7688ff"/></g><path d="M99.90788,147.31138c4.09284,0.13052 8.01835,1.82237 12.19968,2c6.81417,0.28947 13.04443,-2.59253 19.80032,-2.66667c6.59202,-0.07234 17.44667,0.85233 24.91407,0.61994c2.02446,-0.063 4.05279,0.98817 6.09111,1.46469c6.03514,1.4109 10.35427,1.23102 11.82816,8.41537c1.30614,6.36671 -7.52909,8.14978 -9.22917,13.25c-0.91712,2.75136 -0.01022,6.03476 -1.64856,8.60929c-1.46073,2.29543 -4.75351,3.48122 -7.37487,3.68744c-3.90293,0.30703 -6.71413,-5.06408 -9.87305,-6.80763c-3.74927,-2.06939 -7.94566,-2.42604 -12.02976,-3.44706c-0.40417,-0.10104 -2.58857,-1.83885 -2.95817,-1.73737c-5.85385,1.60725 -10.87982,4.69454 -17.37516,3.07071c-2.33403,-0.58351 -6.05002,-5.88291 -8.3446,-5.45871c-8.6853,1.60568 -10.80107,6.61491 -21,5.66667c-7.62785,-0.7092 -8.67011,-8.15289 -7.15775,-14.20234c0.03209,-0.66226 0.15007,-1.30197 0.34305,-1.90824c0.7193,-9.35095 15.54679,-10.75596 21.8147,-10.55608z" fill="#a4ddff" stroke-width="0.5"/></g><g><g stroke-width="0"><path d="M1.65865,265.14471v-105h80.6129v105z" fill="#a9b4ff"/><path d="M1.65865,223.82213v-16.93548c0,0 4.80147,1.16686 10.593,-0.67424c8.56762,-2.7236 20.10698,-8.80964 28.0199,-8.80964c6.92139,0 16.99804,5.84328 25.89133,8.25571c8.58204,2.328 16.10867,1.22817 16.10867,1.22817v16.93549c0,0 -10.69637,0.29594 -19.72546,-2.17871c-9.49656,-2.60277 -17.50854,-7.98258 -24.3068,-7.98258c-6.18608,0 -12.28035,4.81185 -19.30236,7.10388c-8.41637,2.74716 -17.27828,3.05741 -17.27828,3.05741z" fill="#7688ff"/><path d="M1.65865,188.59633v-16.93548c0,0 4.80147,1.16686 10.593,-0.67424c8.56762,-2.7236 20.10698,-8.80963 28.0199,-8.80963c6.92139,0 16.99804,5.84327 25.89133,8.2557c8.58204,2.328 16.10867,1.22817 16.10867,1.22817v16.93549c0,0 -10.69637,0.29594 -19.72546,-2.17871c-9.49656,-2.60277 -17.50854,-7.98258 -24.3068,-7.98258c-6.18608,0 -12.28035,4.81185 -19.30236,7.10388c-8.41637,2.74716 -17.27828,3.05741 -17.27828,3.05741z" fill="#7688ff"/><path d="M1.65865,259.04794v-16.93548c0,0 4.80147,1.16686 10.593,-0.67423c8.56762,-2.7236 20.10698,-8.80964 28.0199,-8.80964c6.92139,0 16.99804,5.84328 25.89133,8.25571c8.58204,2.328 16.10867,1.22816 16.10867,1.22816v16.93549c0,0 -10.69637,0.29595 -19.72546,-2.1787c-9.49656,-2.60277 -17.50854,-7.98259 -24.3068,-7.98259c-6.18608,0 -12.28035,4.81184 -19.30236,7.10388c-8.41637,2.74716 -17.27828,3.05741 -17.27828,3.05741z" fill="#7688ff"/></g><path d="M19.65864,146.97804c4.09284,0.13052 8.01835,1.82237 12.19968,2c6.81417,0.28947 13.04443,-2.59253 19.80032,-2.66667c6.59202,-0.07234 17.44667,0.85233 24.91407,0.61994c2.02446,-0.063 4.05279,0.98817 6.09111,1.46469c6.03514,1.4109 10.35427,1.23102 11.82816,8.41537c1.30614,6.36671 -7.52909,8.14978 -9.22917,13.25c-0.91712,2.75136 -0.01022,6.03476 -1.64856,8.60929c-1.46073,2.29543 -4.75351,3.48122 -7.37487,3.68744c-3.90293,0.30703 -6.71413,-5.06408 -9.87305,-6.80763c-3.74927,-2.06939 -7.94566,-2.42604 -12.02976,-3.44706c-0.40417,-0.10104 -2.58857,-1.83885 -2.95817,-1.73737c-5.85385,1.60725 -10.87982,4.69454 -17.37516,3.07071c-2.33403,-0.58351 -6.05002,-5.88291 -8.3446,-5.45871c-8.6853,1.60568 -10.80107,6.61491 -21,5.66667c-7.62785,-0.7092 -8.67011,-8.15289 -7.15775,-14.20234c0.03209,-0.66226 0.15007,-1.30197 0.34305,-1.90824c0.7193,-9.35095 15.54679,-10.75596 21.8147,-10.55608z" fill="#a4ddff" stroke-width="0.5"/></g><g stroke-width="0"><path d="M2.00857,370.27994v-105h81.62259v105z" fill="#a9b4ff"/><path d="M2.00857,328.95736v-16.93548c0,0 4.86161,1.16686 10.72568,-0.67423c8.67493,-2.7236 20.35882,-8.80964 28.37085,-8.80964c7.00808,0 17.21095,5.84327 26.21562,8.2557c8.68953,2.328 16.31043,1.22817 16.31043,1.22817v16.93548c0,0 -10.83033,0.29594 -19.97251,-2.1787c-9.61551,-2.60277 -17.72784,-7.98259 -24.61125,-7.98259c-6.26356,0 -12.43416,4.81185 -19.54412,7.10388c-8.5218,2.74717 -17.4947,3.05741 -17.4947,3.05741z" fill="#7688ff"/><path d="M2.00857,293.73155v-16.93548c0,0 4.86161,1.16686 10.72568,-0.67424c8.67493,-2.7236 20.35882,-8.80964 28.37085,-8.80964c7.00808,0 17.21095,5.84327 26.21562,8.2557c8.68953,2.328 16.31043,1.22817 16.31043,1.22817v16.93548c0,0 -10.83033,0.29594 -19.97251,-2.1787c-9.61551,-2.60277 -17.72784,-7.98259 -24.61126,-7.98259c-6.26356,0 -12.43416,4.81185 -19.54412,7.10388c-8.5218,2.74717 -17.4947,3.05741 -17.4947,3.05741z" fill="#7688ff"/><path d="M2.00857,364.18317v-16.93548c0,0 4.86161,1.16686 10.72568,-0.67424c8.67493,-2.7236 20.35882,-8.80964 28.37085,-8.80964c7.00808,0 17.21095,5.84327 26.21562,8.2557c8.68953,2.328 16.31043,1.22817 16.31043,1.22817v16.93548c0,0 -10.83033,0.29594 -19.97251,-2.1787c-9.61551,-2.60277 -17.72784,-7.98259 -24.61126,-7.98259c-6.26356,0 -12.43416,4.81185 -19.54412,7.10388c-8.5218,2.74717 -17.4947,3.05741 -17.4947,3.05741z" fill="#7688ff"/></g><g stroke-width="0"><path d="M81.06458,370.27994v-105h81.62259v105z" fill="#a9b4ff"/><path d="M81.06458,328.95736v-16.93548c0,0 4.86161,1.16686 10.72568,-0.67423c8.67493,-2.7236 20.35882,-8.80964 28.37085,-8.80964c7.00808,0 17.21095,5.84327 26.21562,8.2557c8.68953,2.328 16.31043,1.22817 16.31043,1.22817v16.93548c0,0 -10.83033,0.29594 -19.97251,-2.1787c-9.61551,-2.60277 -17.72784,-7.98259 -24.61125,-7.98259c-6.26356,0 -12.43416,4.81185 -19.54412,7.10388c-8.5218,2.74717 -17.4947,3.05741 -17.4947,3.05741z" fill="#7688ff"/><path d="M81.06458,293.73155v-16.93548c0,0 4.86161,1.16686 10.72568,-0.67424c8.67493,-2.7236 20.35882,-8.80964 28.37085,-8.80964c7.00808,0 17.21095,5.84327 26.21562,8.2557c8.68953,2.328 16.31043,1.22817 16.31043,1.22817v16.93548c0,0 -10.83033,0.29594 -19.97251,-2.1787c-9.61551,-2.60277 -17.72784,-7.98259 -24.61126,-7.98259c-6.26356,0 -12.43416,4.81185 -19.54412,7.10388c-8.5218,2.74717 -17.4947,3.05741 -17.4947,3.05741z" fill="#7688ff"/><path d="M81.06458,364.18317v-16.93548c0,0 4.86161,1.16686 10.72568,-0.67424c8.67493,-2.7236 20.35882,-8.80964 28.37085,-8.80964c7.00808,0 17.21095,5.84327 26.21562,8.2557c8.68953,2.328 16.31043,1.22817 16.31043,1.22817v16.93548c0,0 -10.83033,0.29594 -19.97251,-2.1787c-9.61551,-2.60277 -17.72784,-7.98259 -24.61126,-7.98259c-6.26356,0 -12.43416,4.81185 -19.54412,7.10388c-8.5218,2.74717 -17.4947,3.05741 -17.4947,3.05741z" fill="#7688ff"/></g><g stroke-width="0"><path d="M161.64091,370.27994v-105h81.62259v105z" fill="#a9b4ff"/><path d="M161.64091,328.95736v-16.93548c0,0 4.86161,1.16686 10.72568,-0.67423c8.67493,-2.7236 20.35882,-8.80964 28.37085,-8.80964c7.00808,0 17.21095,5.84327 26.21562,8.2557c8.68953,2.328 16.31043,1.22817 16.31043,1.22817v16.93548c0,0 -10.83033,0.29594 -19.97251,-2.1787c-9.61551,-2.60277 -17.72784,-7.98259 -24.61125,-7.98259c-6.26356,0 -12.43416,4.81185 -19.54412,7.10388c-8.5218,2.74717 -17.4947,3.05741 -17.4947,3.05741z" fill="#7688ff"/><path d="M161.64091,293.73155v-16.93548c0,0 4.86161,1.16686 10.72568,-0.67424c8.67493,-2.7236 20.35882,-8.80964 28.37085,-8.80964c7.00808,0 17.21095,5.84327 26.21562,8.2557c8.68953,2.328 16.31043,1.22817 16.31043,1.22817v16.93548c0,0 -10.83033,0.29594 -19.97251,-2.1787c-9.61551,-2.60277 -17.72784,-7.98259 -24.61126,-7.98259c-6.26356,0 -12.43416,4.81185 -19.54412,7.10388c-8.5218,2.74717 -17.4947,3.05741 -17.4947,3.05741z" fill="#7688ff"/><path d="M161.64091,364.18317v-16.93548c0,0 4.86161,1.16686 10.72568,-0.67424c8.67493,-2.7236 20.35882,-8.80964 28.37085,-8.80964c7.00808,0 17.21095,5.84327 26.21562,8.2557c8.68953,2.328 16.31043,1.22817 16.31043,1.22817v16.93548c0,0 -10.83033,0.29594 -19.97251,-2.1787c-9.61551,-2.60277 -17.72784,-7.98259 -24.61126,-7.98259c-6.26356,0 -12.43416,4.81185 -19.54412,7.10388c-8.5218,2.74717 -17.4947,3.05741 -17.4947,3.05741z" fill="#7688ff"/></g><g><g stroke-width="0"><path d="M400.43457,159.72289v-105h80.6129v105z" fill="#a9b4ff"/><path d="M400.43457,118.40031v-16.93548c0,0 4.80147,1.16686 10.593,-0.67424c8.56762,-2.7236 20.10698,-8.80964 28.0199,-8.80964c6.92139,0 16.99804,5.84328 25.89133,8.25571c8.58204,2.328 16.10867,1.22817 16.10867,1.22817v16.93549c0,0 -10.69637,0.29594 -19.72546,-2.17871c-9.49656,-2.60277 -17.50854,-7.98258 -24.3068,-7.98258c-6.18608,0 -12.28035,4.81185 -19.30236,7.10388c-8.41637,2.74716 -17.27828,3.05741 -17.27828,3.05741z" fill="#7688ff"/><path d="M400.43457,83.17451v-16.93548c0,0 4.80147,1.16686 10.593,-0.67424c8.56762,-2.7236 20.10698,-8.80963 28.0199,-8.80963c6.92139,0 16.99804,5.84327 25.89133,8.2557c8.58204,2.328 16.10867,1.22817 16.10867,1.22817v16.93549c0,0 -10.69637,0.29594 -19.72546,-2.17871c-9.49656,-2.60277 -17.50854,-7.98258 -24.3068,-7.98258c-6.18608,0 -12.28035,4.81185 -19.30236,7.10388c-8.41637,2.74716 -17.27828,3.05741 -17.27828,3.05741z" fill="#7688ff"/><path d="M400.43457,153.62612v-16.93548c0,0 4.80147,1.16686 10.593,-0.67423c8.56762,-2.7236 20.10698,-8.80964 28.0199,-8.80964c6.92139,0 16.99804,5.84328 25.89133,8.25571c8.58204,2.328 16.10867,1.22816 16.10867,1.22816v16.93549c0,0 -10.69637,0.29595 -19.72546,-2.1787c-9.49656,-2.60277 -17.50854,-7.98259 -24.3068,-7.98259c-6.18608,0 -12.28035,4.81184 -19.30236,7.10388c-8.41637,2.74716 -17.27828,3.05741 -17.27828,3.05741z" fill="#7688ff"/></g><path d="M418.43456,41.55622c4.09284,0.13052 8.01835,1.82237 12.19968,2c6.81417,0.28947 13.04443,-2.59253 19.80032,-2.66667c6.59202,-0.07234 17.44667,0.85233 24.91407,0.61994c2.02446,-0.063 4.05279,0.98817 6.09111,1.46469c6.03514,1.4109 10.35427,1.23102 11.82816,8.41537c1.30614,6.36671 -7.52909,8.14978 -9.22917,13.25c-0.91712,2.75136 -0.01022,6.03476 -1.64856,8.60929c-1.46073,2.29543 -4.75351,3.48122 -7.37487,3.68744c-3.90293,0.30703 -6.71413,-5.06408 -9.87305,-6.80763c-3.74927,-2.06939 -7.94566,-2.42604 -12.02976,-3.44706c-0.40417,-0.10104 -2.58857,-1.83885 -2.95817,-1.73737c-5.85385,1.60725 -10.87982,4.69454 -17.37516,3.07071c-2.33403,-0.58351 -6.05002,-5.88291 -8.3446,-5.45871c-8.6853,1.60568 -10.80107,6.61491 -21,5.66667c-7.62785,-0.7092 -8.67011,-8.15289 -7.15775,-14.20234c0.03209,-0.66226 0.15007,-1.30197 0.34305,-1.90824c0.7193,-9.35095 15.54679,-10.75596 21.8147,-10.55608z" fill="#a4ddff" stroke-width="0.5"/></g><g><g stroke-width="0"><path d="M320.68382,160.05623v-105h80.6129v105z" fill="#a9b4ff"/><path d="M320.68382,118.73365v-16.93548c0,0 4.80147,1.16686 10.593,-0.67424c8.56762,-2.7236 20.10698,-8.80964 28.0199,-8.80964c6.92139,0 16.99804,5.84328 25.89133,8.25571c8.58204,2.328 16.10867,1.22817 16.10867,1.22817v16.93549c0,0 -10.69637,0.29594 -19.72546,-2.17871c-9.49656,-2.60277 -17.50854,-7.98258 -24.3068,-7.98258c-6.18608,0 -12.28035,4.81185 -19.30236,7.10388c-8.41637,2.74716 -17.27828,3.05741 -17.27828,3.05741z" fill="#7688ff"/><path d="M320.68382,83.50785v-16.93548c0,0 4.80147,1.16686 10.593,-0.67424c8.56762,-2.7236 20.10698,-8.80963 28.0199,-8.80963c6.92139,0 16.99804,5.84327 25.89133,8.2557c8.58204,2.328 16.10867,1.22817 16.10867,1.22817v16.93549c0,0 -10.69637,0.29594 -19.72546,-2.17871c-9.49656,-2.60277 -17.50854,-7.98258 -24.3068,-7.98258c-6.18608,0 -12.28035,4.81185 -19.30236,7.10388c-8.41637,2.74716 -17.27828,3.05741 -17.27828,3.05741z" fill="#7688ff"/><path d="M320.68382,153.95946v-16.93548c0,0 4.80147,1.16686 10.593,-0.67423c8.56762,-2.7236 20.10698,-8.80964 28.0199,-8.80964c6.92139,0 16.99804,5.84328 25.89133,8.25571c8.58204,2.328 16.10867,1.22816 16.10867,1.22816v16.93549c0,0 -10.69637,0.29595 -19.72546,-2.1787c-9.49656,-2.60277 -17.50854,-7.98259 -24.3068,-7.98259c-6.18608,0 -12.28035,4.81184 -19.30236,7.10388c-8.41637,2.74716 -17.27828,3.05741 -17.27828,3.05741z" fill="#7688ff"/></g><path d="M338.68381,41.88956c4.09284,0.13052 8.01835,1.82237 12.19968,2c6.81417,0.28947 13.04443,-2.59253 19.80032,-2.66667c6.59202,-0.07234 17.44667,0.85233 24.91407,0.61994c2.02446,-0.063 4.05279,0.98817 6.09111,1.46469c6.03514,1.4109 10.35427,1.23102 11.82816,8.41537c1.30614,6.36671 -7.52909,8.14978 -9.22917,13.25c-0.91712,2.75136 -0.01022,6.03476 -1.64856,8.60929c-1.46073,2.29543 -4.75351,3.48122 -7.37487,3.68744c-3.90293,0.30703 -6.71413,-5.06408 -9.87305,-6.80763c-3.74927,-2.06939 -7.94566,-2.42604 -12.02976,-3.44706c-0.40417,-0.10104 -2.58857,-1.83885 -2.95817,-1.73737c-5.85385,1.60725 -10.87982,4.69454 -17.37516,3.07071c-2.33403,-0.58351 -6.05002,-5.88291 -8.3446,-5.45871c-8.6853,1.60568 -10.80107,6.61491 -21,5.66667c-7.62785,-0.7092 -8.67011,-8.15289 -7.15775,-14.20234c0.03209,-0.66226 0.15007,-1.30197 0.34305,-1.90824c0.7193,-9.35095 15.54679,-10.75596 21.8147,-10.55608z" fill="#a4ddff" stroke-width="0.5"/></g><g><g stroke-width="0"><path d="M240.43457,159.72289v-105h80.6129v105z" fill="#a9b4ff"/><path d="M240.43457,118.40031v-16.93548c0,0 4.80147,1.16686 10.593,-0.67424c8.56762,-2.7236 20.10698,-8.80964 28.0199,-8.80964c6.92139,0 16.99804,5.84328 25.89133,8.25571c8.58204,2.328 16.10867,1.22817 16.10867,1.22817v16.93549c0,0 -10.69637,0.29594 -19.72546,-2.17871c-9.49656,-2.60277 -17.50854,-7.98258 -24.3068,-7.98258c-6.18608,0 -12.28035,4.81185 -19.30236,7.10388c-8.41637,2.74716 -17.27828,3.05741 -17.27828,3.05741z" fill="#7688ff"/><path d="M240.43457,83.17451v-16.93548c0,0 4.80147,1.16686 10.593,-0.67424c8.56762,-2.7236 20.10698,-8.80963 28.0199,-8.80963c6.92139,0 16.99804,5.84327 25.89133,8.2557c8.58204,2.328 16.10867,1.22817 16.10867,1.22817v16.93549c0,0 -10.69637,0.29594 -19.72546,-2.17871c-9.49656,-2.60277 -17.50854,-7.98258 -24.3068,-7.98258c-6.18608,0 -12.28035,4.81185 -19.30236,7.10388c-8.41637,2.74716 -17.27828,3.05741 -17.27828,3.05741z" fill="#7688ff"/><path d="M240.43457,153.62612v-16.93548c0,0 4.80147,1.16686 10.593,-0.67423c8.56762,-2.7236 20.10698,-8.80964 28.0199,-8.80964c6.92139,0 16.99804,5.84328 25.89133,8.25571c8.58204,2.328 16.10867,1.22816 16.10867,1.22816v16.93549c0,0 -10.69637,0.29595 -19.72546,-2.1787c-9.49656,-2.60277 -17.50854,-7.98259 -24.3068,-7.98259c-6.18608,0 -12.28035,4.81184 -19.30236,7.10388c-8.41637,2.74716 -17.27828,3.05741 -17.27828,3.05741z" fill="#7688ff"/></g><path d="M258.43456,41.55622c4.09284,0.13052 8.01835,1.82237 12.19968,2c6.81417,0.28947 13.04443,-2.59253 19.80032,-2.66667c6.59202,-0.07234 17.44667,0.85233 24.91407,0.61994c2.02446,-0.063 4.05279,0.98817 6.09111,1.46469c6.03514,1.4109 10.35427,1.23102 11.82816,8.41537c1.30614,6.36671 -7.52909,8.14978 -9.22917,13.25c-0.91712,2.75136 -0.01022,6.03476 -1.64856,8.60929c-1.46073,2.29543 -4.75351,3.48122 -7.37487,3.68744c-3.90293,0.30703 -6.71413,-5.06408 -9.87305,-6.80763c-3.74927,-2.06939 -7.94566,-2.42604 -12.02976,-3.44706c-0.40417,-0.10104 -2.58857,-1.83885 -2.95817,-1.73737c-5.85385,1.60725 -10.87982,4.69454 -17.37516,3.07071c-2.33403,-0.58351 -6.05002,-5.88291 -8.3446,-5.45871c-8.6853,1.60568 -10.80107,6.61491 -21,5.66667c-7.62785,-0.7092 -8.67011,-8.15289 -7.15775,-14.20234c0.03209,-0.66226 0.15007,-1.30197 0.34305,-1.90824c0.7193,-9.35095 15.54679,-10.75596 21.8147,-10.55608z" fill="#a4ddff" stroke-width="0.5"/></g><g stroke-width="0"><path d="M240.78449,264.85812v-105h81.62259v105z" fill="#a9b4ff"/><path d="M240.78449,223.53554v-16.93548c0,0 4.86161,1.16686 10.72568,-0.67423c8.67493,-2.7236 20.35882,-8.80964 28.37085,-8.80964c7.00808,0 17.21095,5.84327 26.21562,8.2557c8.68953,2.328 16.31043,1.22817 16.31043,1.22817v16.93548c0,0 -10.83033,0.29594 -19.97251,-2.1787c-9.61551,-2.60277 -17.72784,-7.98259 -24.61125,-7.98259c-6.26356,0 -12.43416,4.81185 -19.54412,7.10388c-8.5218,2.74717 -17.4947,3.05741 -17.4947,3.05741z" fill="#7688ff"/><path d="M240.78449,188.30973v-16.93548c0,0 4.86161,1.16686 10.72568,-0.67424c8.67493,-2.7236 20.35882,-8.80964 28.37085,-8.80964c7.00808,0 17.21095,5.84327 26.21562,8.2557c8.68953,2.328 16.31043,1.22817 16.31043,1.22817v16.93548c0,0 -10.83033,0.29594 -19.97251,-2.1787c-9.61551,-2.60277 -17.72784,-7.98259 -24.61126,-7.98259c-6.26356,0 -12.43416,4.81185 -19.54412,7.10388c-8.5218,2.74717 -17.4947,3.05741 -17.4947,3.05741z" fill="#7688ff"/><path d="M240.78449,258.76135v-16.93548c0,0 4.86161,1.16686 10.72568,-0.67424c8.67493,-2.7236 20.35882,-8.80964 28.37085,-8.80964c7.00808,0 17.21095,5.84327 26.21562,8.2557c8.68953,2.328 16.31043,1.22817 16.31043,1.22817v16.93548c0,0 -10.83033,0.29594 -19.97251,-2.1787c-9.61551,-2.60277 -17.72784,-7.98259 -24.61126,-7.98259c-6.26356,0 -12.43416,4.81185 -19.54412,7.10388c-8.5218,2.74717 -17.4947,3.05741 -17.4947,3.05741z" fill="#7688ff"/></g><g stroke-width="0"><path d="M319.84051,264.85812v-105h81.62259v105z" fill="#a9b4ff"/><path d="M319.84051,223.53554v-16.93548c0,0 4.86161,1.16686 10.72568,-0.67423c8.67493,-2.7236 20.35882,-8.80964 28.37085,-8.80964c7.00808,0 17.21095,5.84327 26.21562,8.2557c8.68953,2.328 16.31043,1.22817 16.31043,1.22817v16.93548c0,0 -10.83033,0.29594 -19.97251,-2.1787c-9.61551,-2.60277 -17.72784,-7.98259 -24.61125,-7.98259c-6.26356,0 -12.43416,4.81185 -19.54412,7.10388c-8.5218,2.74717 -17.4947,3.05741 -17.4947,3.05741z" fill="#7688ff"/><path d="M319.84051,188.30973v-16.93548c0,0 4.86161,1.16686 10.72568,-0.67424c8.67493,-2.7236 20.35882,-8.80964 28.37085,-8.80964c7.00808,0 17.21095,5.84327 26.21562,8.2557c8.68953,2.328 16.31043,1.22817 16.31043,1.22817v16.93548c0,0 -10.83033,0.29594 -19.97251,-2.1787c-9.61551,-2.60277 -17.72784,-7.98259 -24.61126,-7.98259c-6.26356,0 -12.43416,4.81185 -19.54412,7.10388c-8.5218,2.74717 -17.4947,3.05741 -17.4947,3.05741z" fill="#7688ff"/><path d="M319.84051,258.76135v-16.93548c0,0 4.86161,1.16686 10.72568,-0.67424c8.67493,-2.7236 20.35882,-8.80964 28.37085,-8.80964c7.00808,0 17.21095,5.84327 26.21562,8.2557c8.68953,2.328 16.31043,1.22817 16.31043,1.22817v16.93548c0,0 -10.83033,0.29594 -19.97251,-2.1787c-9.61551,-2.60277 -17.72784,-7.98259 -24.61126,-7.98259c-6.26356,0 -12.43416,4.81185 -19.54412,7.10388c-8.5218,2.74717 -17.4947,3.05741 -17.4947,3.05741z" fill="#7688ff"/></g><g stroke-width="0"><path d="M400.41684,264.85812v-105h81.62259v105z" fill="#a9b4ff"/><path d="M400.41684,223.53554v-16.93548c0,0 4.86161,1.16686 10.72568,-0.67423c8.67493,-2.7236 20.35882,-8.80964 28.37085,-8.80964c7.00808,0 17.21095,5.84327 26.21562,8.2557c8.68953,2.328 16.31043,1.22817 16.31043,1.22817v16.93548c0,0 -10.83033,0.29594 -19.97251,-2.1787c-9.61551,-2.60277 -17.72784,-7.98259 -24.61125,-7.98259c-6.26356,0 -12.43416,4.81185 -19.54412,7.10388c-8.5218,2.74717 -17.4947,3.05741 -17.4947,3.05741z" fill="#7688ff"/><path d="M400.41684,188.30973v-16.93548c0,0 4.86161,1.16686 10.72568,-0.67424c8.67493,-2.7236 20.35882,-8.80964 28.37085,-8.80964c7.00808,0 17.21095,5.84327 26.21562,8.2557c8.68953,2.328 16.31043,1.22817 16.31043,1.22817v16.93548c0,0 -10.83033,0.29594 -19.97251,-2.1787c-9.61551,-2.60277 -17.72784,-7.98259 -24.61126,-7.98259c-6.26356,0 -12.43416,4.81185 -19.54412,7.10388c-8.5218,2.74717 -17.4947,3.05741 -17.4947,3.05741z" fill="#7688ff"/><path d="M400.41684,258.76135v-16.93548c0,0 4.86161,1.16686 10.72568,-0.67424c8.67493,-2.7236 20.35882,-8.80964 28.37085,-8.80964c7.00808,0 17.21095,5.84327 26.21562,8.2557c8.68953,2.328 16.31043,1.22817 16.31043,1.22817v16.93548c0,0 -10.83033,0.29594 -19.97251,-2.1787c-9.61551,-2.60277 -17.72784,-7.98259 -24.61126,-7.98259c-6.26356,0 -12.43416,4.81185 -19.54412,7.10388c-8.5218,2.74717 -17.4947,3.05741 -17.4947,3.05741z" fill="#7688ff"/></g><g stroke-width="0"><path d="M242.80011,369.33724v-105h81.62259v105z" fill="#a9b4ff"/><path d="M242.80011,328.01466v-16.93548c0,0 4.86161,1.16686 10.72568,-0.67423c8.67493,-2.7236 20.35882,-8.80964 28.37085,-8.80964c7.00808,0 17.21095,5.84327 26.21562,8.2557c8.68953,2.328 16.31043,1.22817 16.31043,1.22817v16.93548c0,0 -10.83033,0.29594 -19.97251,-2.1787c-9.61551,-2.60277 -17.72784,-7.98259 -24.61125,-7.98259c-6.26356,0 -12.43416,4.81185 -19.54412,7.10388c-8.5218,2.74717 -17.4947,3.05741 -17.4947,3.05741z" fill="#7688ff"/><path d="M242.80011,292.78885v-16.93548c0,0 4.86161,1.16686 10.72568,-0.67424c8.67493,-2.7236 20.35882,-8.80964 28.37085,-8.80964c7.00808,0 17.21095,5.84327 26.21562,8.2557c8.68953,2.328 16.31043,1.22817 16.31043,1.22817v16.93548c0,0 -10.83033,0.29594 -19.97251,-2.1787c-9.61551,-2.60277 -17.72784,-7.98259 -24.61126,-7.98259c-6.26356,0 -12.43416,4.81185 -19.54412,7.10388c-8.5218,2.74717 -17.4947,3.05741 -17.4947,3.05741z" fill="#7688ff"/><path d="M242.80011,363.24047v-16.93548c0,0 4.86161,1.16686 10.72568,-0.67424c8.67493,-2.7236 20.35882,-8.80964 28.37085,-8.80964c7.00808,0 17.21095,5.84327 26.21562,8.2557c8.68953,2.328 16.31043,1.22817 16.31043,1.22817v16.93548c0,0 -10.83033,0.29594 -19.97251,-2.1787c-9.61551,-2.60277 -17.72784,-7.98259 -24.61126,-7.98259c-6.26356,0 -12.43416,4.81185 -19.54412,7.10388c-8.5218,2.74717 -17.4947,3.05741 -17.4947,3.05741z" fill="#7688ff"/></g><g stroke-width="0"><path d="M321.85613,369.33724v-105h81.62259v105z" fill="#a9b4ff"/><path d="M321.85613,328.01466v-16.93548c0,0 4.86161,1.16686 10.72568,-0.67423c8.67493,-2.7236 20.35882,-8.80964 28.37085,-8.80964c7.00808,0 17.21095,5.84327 26.21562,8.2557c8.68953,2.328 16.31043,1.22817 16.31043,1.22817v16.93548c0,0 -10.83033,0.29594 -19.97251,-2.1787c-9.61551,-2.60277 -17.72784,-7.98259 -24.61125,-7.98259c-6.26356,0 -12.43416,4.81185 -19.54412,7.10388c-8.5218,2.74717 -17.4947,3.05741 -17.4947,3.05741z" fill="#7688ff"/><path d="M321.85613,292.78885v-16.93548c0,0 4.86161,1.16686 10.72568,-0.67424c8.67493,-2.7236 20.35882,-8.80964 28.37085,-8.80964c7.00808,0 17.21095,5.84327 26.21562,8.2557c8.68953,2.328 16.31043,1.22817 16.31043,1.22817v16.93548c0,0 -10.83033,0.29594 -19.97251,-2.1787c-9.61551,-2.60277 -17.72784,-7.98259 -24.61126,-7.98259c-6.26356,0 -12.43416,4.81185 -19.54412,7.10388c-8.5218,2.74717 -17.4947,3.05741 -17.4947,3.05741z" fill="#7688ff"/><path d="M321.85613,363.24047v-16.93548c0,0 4.86161,1.16686 10.72568,-0.67424c8.67493,-2.7236 20.35882,-8.80964 28.37085,-8.80964c7.00808,0 17.21095,5.84327 26.21562,8.2557c8.68953,2.328 16.31043,1.22817 16.31043,1.22817v16.93548c0,0 -10.83033,0.29594 -19.97251,-2.1787c-9.61551,-2.60277 -17.72784,-7.98259 -24.61126,-7.98259c-6.26356,0 -12.43416,4.81185 -19.54412,7.10388c-8.5218,2.74717 -17.4947,3.05741 -17.4947,3.05741z" fill="#7688ff"/></g><g stroke-width="0"><path d="M402.43246,369.33724v-105h81.62259v105z" fill="#a9b4ff"/><path d="M402.43246,328.01466v-16.93548c0,0 4.86161,1.16686 10.72568,-0.67423c8.67493,-2.7236 20.35882,-8.80964 28.37085,-8.80964c7.00808,0 17.21095,5.84327 26.21562,8.2557c8.68953,2.328 16.31043,1.22817 16.31043,1.22817v16.93548c0,0 -10.83033,0.29594 -19.97251,-2.1787c-9.61551,-2.60277 -17.72784,-7.98259 -24.61125,-7.98259c-6.26356,0 -12.43416,4.81185 -19.54412,7.10388c-8.5218,2.74717 -17.4947,3.05741 -17.4947,3.05741z" fill="#7688ff"/><path d="M402.43246,292.78885v-16.93548c0,0 4.86161,1.16686 10.72568,-0.67424c8.67493,-2.7236 20.35882,-8.80964 28.37085,-8.80964c7.00808,0 17.21095,5.84327 26.21562,8.2557c8.68953,2.328 16.31043,1.22817 16.31043,1.22817v16.93548c0,0 -10.83033,0.29594 -19.97251,-2.1787c-9.61551,-2.60277 -17.72784,-7.98259 -24.61126,-7.98259c-6.26356,0 -12.43416,4.81185 -19.54412,7.10388c-8.5218,2.74717 -17.4947,3.05741 -17.4947,3.05741z" fill="#7688ff"/><path d="M402.43246,363.24047v-16.93548c0,0 4.86161,1.16686 10.72568,-0.67424c8.67493,-2.7236 20.35882,-8.80964 28.37085,-8.80964c7.00808,0 17.21095,5.84327 26.21562,8.2557c8.68953,2.328 16.31043,1.22817 16.31043,1.22817v16.93548c0,0 -10.83033,0.29594 -19.97251,-2.1787c-9.61551,-2.60277 -17.72784,-7.98259 -24.61126,-7.98259c-6.26356,0 -12.43416,4.81185 -19.54412,7.10388c-8.5218,2.74717 -17.4947,3.05741 -17.4947,3.05741z" fill="#7688ff"/></g></g></g></svg>