<svg version="1.1" xmlns="http://www.w3.org/2000/svg" xmlns:xlink="http://www.w3.org/1999/xlink" width="50.05191" height="36.08277" viewBox="0,0,50.05191,36.08277"><g transform="translate(-215.93625,-164.20455)"><g data-paper-data="{&quot;isPaintingLayer&quot;:true}" fill-rule="nonzero" stroke-linejoin="miter" stroke-miterlimit="10" stroke-dasharray="" stroke-dashoffset="0" style="mix-blend-mode: normal"><path d="M264.96005,194.85159c0,0 -0.20426,2.45195 -1.09935,3.06924c-1.11599,0.76963 -5.08128,1.19314 -5.08128,1.19314l-37.05532,0.17299c0,0 -3.9775,-0.61321 -5.00299,-1.91206c-0.86934,-1.10108 -0.75925,-4.21895 -0.75925,-4.21895l0.55505,-22.38352c0,0 0.0449,-3.70958 0.96386,-4.58165c1.02516,-0.97285 4.90342,-0.98622 4.90342,-0.98622l33.66459,0.18866c0,0 5.67305,-0.09962 7.17046,0.88857c1.47259,0.97182 1.74078,4.99222 1.74078,4.99222v23.57754z" data-paper-data="{&quot;index&quot;:null}" fill="#00ff3f" stroke="#00c230" stroke-width="2" stroke-linecap="butt"/><path d="M251.94339,186.30398v-16.00032l3.62554,-0.06326v16.06358z" data-paper-data="{&quot;index&quot;:null}" fill="#000000" stroke="none" stroke-width="0" stroke-linecap="butt"/><path d="M245.59868,186.30399v-16.06358l3.62555,0.06327v16.00031z" data-paper-data="{&quot;index&quot;:null}" fill="#000000" stroke="none" stroke-width="0" stroke-linecap="butt"/><path d="M242.96279,175.3159v-1.69076h3.5445v1.69076z" fill="#000000" stroke="none" stroke-width="0" stroke-linecap="butt"/><path d="M254.98326,175.44597v-1.56069h3.08217v1.56069z" fill="#000000" stroke="none" stroke-width="0" stroke-linecap="butt"/><path d="M255.75379,191.70319c0,0 -13.19594,1.389 -18.29375,0.67937c-4.85614,-0.67601 -11.60329,-4.84122 -11.60329,-4.84122" fill="none" stroke="#000000" stroke-width="2" stroke-linecap="round"/></g></g></svg>