<svg version="1.1" xmlns="http://www.w3.org/2000/svg" xmlns:xlink="http://www.w3.org/1999/xlink" width="523.29599" height="329.28663" viewBox="0,0,523.29599,329.28663"><defs><linearGradient x1="416.00004" y1="199.49993" x2="416.00004" y2="334.5001" gradientUnits="userSpaceOnUse" id="color-1"><stop offset="0" stop-color="#ff0000"/><stop offset="1" stop-color="#0068ff"/></linearGradient><linearGradient x1="416.00004" y1="199.49993" x2="416.00004" y2="334.5001" gradientUnits="userSpaceOnUse" id="color-2"><stop offset="0" stop-color="#660000"/><stop offset="1" stop-color="#0010c7"/></linearGradient></defs><g transform="translate(38.79586,-6.2092)"><g data-paper-data="{&quot;isPaintingLayer&quot;:true}" fill-rule="nonzero" stroke-linejoin="miter" stroke-miterlimit="10" stroke-dasharray="" stroke-dashoffset="0" style="mix-blend-mode: normal"><path d="M415.24949,334.49584c-37.27691,-0.41452 -67.15979,-30.96947 -66.74527,-68.24638c0.41452,-37.27691 30.96947,-67.15979 68.24638,-66.74527c37.27691,0.41452 67.15979,30.96947 66.74527,68.24638c-0.41452,37.27691 -30.96947,67.15979 -68.24638,66.74527z" data-paper-data="{&quot;index&quot;:null}" fill="url(#color-1)" stroke="url(#color-2)" stroke-width="2" stroke-linecap="butt"/><path d="M347.35114,256.32485c0,-8.51924 12.67143,-18.84033 12.67143,-18.84033l27.22324,24.40907c0,0 0.73752,14.7646 -19.56134,14.7646c-11.22979,0 -20.33333,-9.10355 -20.33333,-20.33334z" fill="#ffffff" stroke="#000000" stroke-width="2" stroke-linecap="butt"/><path d="M397.0859,251.2908c0,-14.3406 11.62535,-25.96595 25.96595,-25.96595c14.3406,0 25.96595,11.62535 25.96595,25.96595c0,2.03879 -0.23498,4.0227 -0.67932,5.92613c-13.34727,0.92861 -24.8791,8.44754 -31.36352,19.32484c-11.40906,-2.73573 -19.88907,-13.00305 -19.88907,-25.25097z" fill="#ffffff" stroke="#000000" stroke-width="2" stroke-linecap="butt"/><path d="M457.60529,308.16054c1.68343,12.78159 -15.79065,18.03773 -34.96304,20.56287c-19.17239,2.52514 -34.37968,3.14301 -36.06311,-9.63858c-1.68343,-12.78159 9.98919,-34.27805 29.16158,-36.8032c19.17239,-2.52514 40.18115,13.09731 41.86458,25.8789z" fill="#000000" stroke="none" stroke-width="0" stroke-linecap="butt"/><path d="M367.11922,105.6437l-29.73029,19.05823l23.48903,45.427l-64.21604,-6.92216l37.64732,81.67334l-86.18861,-57.60713l-69.50609,25.85811l-12.15676,-35.2079l-81.74898,50.91765l-13.48798,-42.22204l-57.89955,3.40463l10.52225,-41.3893l-59.92912,-21.78459l77.85434,-33.54255l-20.48554,-47.39853l72.59057,1.13446l22.53438,-39.25816l50.97976,32.78324l43.89869,-33.01405l31.06942,33.92419l58.18156,-18.58393l1.50745,27.65871l78.24867,2.12363l-37.87854,26.88507z" data-paper-data="{&quot;index&quot;:null}" fill="#ffffff" stroke="#ff0000" stroke-width="2" stroke-linecap="butt"/><text transform="translate(39.68226,162.37688) rotate(-13.38582) scale(1.02915,1.02915)" font-size="40" xml:space="preserve" fill="#ff0000" fill-rule="nonzero" stroke="none" stroke-width="1" stroke-linecap="butt" stroke-linejoin="miter" stroke-miterlimit="10" stroke-dasharray="" stroke-dashoffset="0" font-family="Marker" font-weight="normal" text-anchor="start" style="mix-blend-mode: normal"><tspan x="0" dy="0">AAAAAAAAAUGH!</tspan></text><path d="M55.68917,321.86791c0,0 -0.14996,2.54509 -0.80711,3.18583c-0.81932,0.79887 -3.7305,1.23846 -3.7305,1.23846l-27.20474,0.17957c0,0 -2.92014,-0.6365 -3.67302,-1.98468c-0.63824,-1.1429 -0.55742,-4.3792 -0.55742,-4.3792l0.40749,-23.23372c0,0 0.03296,-3.85049 0.70763,-4.75567c0.75264,-1.00981 3.59993,-1.02368 3.59993,-1.02368l24.71539,0.19583c0,0 4.16497,-0.10339 5.26431,0.92232c1.08113,1.00873 1.27803,5.18184 1.27803,5.18184z" data-paper-data="{&quot;index&quot;:null}" fill="#00ff3f" stroke="#00c230" stroke-width="2" stroke-linecap="butt"/><path d="M37.28401,304.65314c0,-0.38615 0.31304,-0.69918 0.69918,-0.69918c0.38615,0 0.69918,0.31304 0.69918,0.69918c0,0.38615 -0.31304,0.69918 -0.69918,0.69918c-0.38615,0 -0.69918,-0.31304 -0.69918,-0.69918z" fill="#000000" stroke="none" stroke-width="0" stroke-linecap="butt"/><path d="M50.86816,304.30355c0,-0.3034 0.24596,-0.54936 0.54936,-0.54936c0.3034,0 0.54936,0.24596 0.54936,0.54936c0,0.3034 -0.24596,0.54936 -0.54936,0.54936c-0.3034,0 -0.54936,-0.24596 -0.54936,-0.54936z" fill="#000000" stroke="none" stroke-width="0" stroke-linecap="butt"/><path d="M39.98086,306.35116h9.38905" fill="none" stroke="#000000" stroke-width="2" stroke-linecap="round"/></g></g></svg>