<svg version="1.1" xmlns="http://www.w3.org/2000/svg" xmlns:xlink="http://www.w3.org/1999/xlink" width="292.24192" height="108.1375" viewBox="0,0,292.24192,108.1375"><g transform="translate(0.46441,-252.62723)"><g data-paper-data="{&quot;isPaintingLayer&quot;:true}" fill-rule="nonzero" stroke="none" stroke-width="0" stroke-linecap="butt" stroke-linejoin="miter" stroke-miterlimit="10" stroke-dasharray="" stroke-dashoffset="0" style="mix-blend-mode: normal"><g><path d="M0.24482,311.13853v-53.54671h7.09228v53.54671z" fill="#8aa2c6"/><path d="M45.99001,310.78392v-54.61055h7.09228v54.61055z" fill="#8aa2c6"/><path d="M45.66862,307.85332l-43.37974,-43.37974l5.015,-5.015l43.37974,43.37974z" fill="#8aa2c6"/><path d="M50.68362,264.47358l-43.37974,43.37974l-5.01499,-5.015l43.37974,-43.37974z" fill="#8aa2c6"/><path d="M54.14615,259.71951h-54.61055v-7.09228h54.61055z" fill="#c65757"/><path d="M0.95405,303.33702h52.12825v7.80151h-52.12825z" fill="#8aa2c6"/></g><g fill="#8aa2c6"><path d="M0.61172,360.26473v-53.54671h7.09228v53.54671z"/><path d="M46.35692,359.91012v-54.61056h7.09228v54.61056z"/><path d="M46.03552,356.97952l-43.37974,-43.37974l5.015,-5.015l43.37974,43.37974z"/><path d="M51.05052,313.59978l-43.37975,43.37974l-5.01499,-5.015l43.37974,-43.37974z"/><path d="M1.32095,352.46322h52.12825v7.80151h-52.12825z"/><path d="M0.61172,303.88111h52.83748v7.80151h-52.83748z"/></g><g><path d="M47.87619,311.22947v-53.54671h7.09228v53.54671z" fill="#8aa2c6"/><path d="M93.62139,310.87486v-54.61055h7.09228v54.61055z" fill="#8aa2c6"/><path d="M93.29998,307.94426l-43.37974,-43.37974l5.015,-5.015l43.37974,43.37974z" fill="#8aa2c6"/><path d="M98.31499,264.56452l-43.37974,43.37974l-5.01499,-5.015l43.37974,-43.37974z" fill="#8aa2c6"/><path d="M101.77751,259.81045h-54.61055v-7.09228h54.61055z" fill="#c65757"/><path d="M48.58542,303.42796h52.12825v7.80151h-52.12825z" fill="#8aa2c6"/></g><g fill="#8aa2c6"><path d="M47.72634,360.09729v-53.54671h7.09228v53.54671z"/><path d="M93.47155,359.74268v-54.61056h7.09228v54.61056z"/><path d="M93.15014,356.81208l-43.37974,-43.37974l5.015,-5.015l43.37974,43.37974z"/><path d="M98.16514,313.43234l-43.37975,43.37974l-5.01499,-5.015l43.37974,-43.37974z"/><path d="M48.43557,352.29578h52.12825v7.80151h-52.12825z"/><path d="M47.72634,303.71367h52.83748v7.80151h-52.83748z"/></g><g><path d="M96.24482,311.13853v-53.54671h7.09228v53.54671z" fill="#8aa2c6"/><path d="M141.99002,310.78392v-54.61055h7.09228v54.61055z" fill="#8aa2c6"/><path d="M141.66861,307.85332l-43.37974,-43.37974l5.015,-5.015l43.37974,43.37974z" fill="#8aa2c6"/><path d="M146.68362,264.47358l-43.37974,43.37974l-5.01499,-5.015l43.37974,-43.37974z" fill="#8aa2c6"/><path d="M150.14613,259.71951h-54.61055v-7.09228h54.61055z" fill="#c65757"/><path d="M96.95405,303.33702h52.12825v7.80151h-52.12825z" fill="#8aa2c6"/></g><g fill="#8aa2c6"><path d="M96.61172,360.26473v-53.54671h7.09228v53.54671z"/><path d="M142.35691,359.91012v-54.61056h7.09228v54.61056z"/><path d="M142.03552,356.97952l-43.37974,-43.37974l5.015,-5.015l43.37974,43.37974z"/><path d="M147.0505,313.59978l-43.37975,43.37974l-5.01499,-5.015l43.37974,-43.37974z"/><path d="M97.32095,352.46322h52.12825v7.80151h-52.12825z"/><path d="M96.61172,303.88111h52.83748v7.80151h-52.83748z"/></g><g><path d="M143.87616,311.22947v-53.54671h7.09228v53.54671z" fill="#8aa2c6"/><path d="M189.62139,310.87486v-54.61055h7.09228v54.61055z" fill="#8aa2c6"/><path d="M189.29999,307.94426l-43.37974,-43.37974l5.015,-5.015l43.37974,43.37974z" fill="#8aa2c6"/><path d="M194.31499,264.56451l-43.37974,43.37974l-5.01499,-5.015l43.37974,-43.37974z" fill="#8aa2c6"/><path d="M197.77752,259.81045h-54.61055v-7.09228h54.61055z" fill="#c65757"/><path d="M144.58542,303.42796h52.12825v7.80151h-52.12825z" fill="#8aa2c6"/></g><g fill="#8aa2c6"><path d="M143.72634,360.09729v-53.54671h7.09228v53.54671z"/><path d="M189.47155,359.74268v-54.61056h7.09228v54.61056z"/><path d="M189.15015,356.81208l-43.37974,-43.37974l5.015,-5.015l43.37974,43.37974z"/><path d="M194.16515,313.43234l-43.37975,43.37974l-5.01499,-5.015l43.37974,-43.37974z"/><path d="M144.43558,352.29578h52.12825v7.80151h-52.12825z"/><path d="M143.72634,303.71367h52.83748v7.80151h-52.83748z"/></g><g><path d="M190.24482,311.63853v-53.54671h7.09228v53.54671z" fill="#8aa2c6"/><path d="M235.99002,311.28392v-54.61055h7.09228v54.61055z" fill="#8aa2c6"/><path d="M235.66862,308.35332l-43.37974,-43.37974l5.015,-5.015l43.37974,43.37974z" fill="#8aa2c6"/><path d="M240.68361,264.97358l-43.37974,43.37974l-5.01499,-5.015l43.37974,-43.37974z" fill="#8aa2c6"/><path d="M244.14615,260.21951h-54.61055v-7.09228h54.61055z" fill="#c65757"/><path d="M190.95405,303.83702h52.12825v7.80151h-52.12825z" fill="#8aa2c6"/></g><g fill="#8aa2c6"><path d="M190.61172,360.76473v-53.54671h7.09228v53.54671z"/><path d="M236.35692,360.41012v-54.61056h7.09228v54.61056z"/><path d="M236.03552,357.47952l-43.37974,-43.37974l5.015,-5.015l43.37974,43.37974z"/><path d="M241.05052,314.09978l-43.37975,43.37974l-5.01499,-5.015l43.37974,-43.37974z"/><path d="M191.32095,352.96322h52.12825v7.80151h-52.12825z"/><path d="M190.61172,304.38111h52.83748v7.80151h-52.83748z"/></g><g><path d="M237.87619,311.72947v-53.54671h7.09228v53.54671z" fill="#8aa2c6"/><path d="M283.62138,311.37486v-54.61055h7.09228v54.61055z" fill="#8aa2c6"/><path d="M283.29999,308.44426l-43.37974,-43.37974l5.015,-5.015l43.37974,43.37974z" fill="#8aa2c6"/><path d="M288.31496,265.06451l-43.37974,43.37974l-5.01499,-5.015l43.37974,-43.37974z" fill="#8aa2c6"/><path d="M291.77752,260.31045h-54.61055v-7.09228h54.61055z" fill="#c65757"/><path d="M238.58542,303.92796h52.12825v7.80151h-52.12825z" fill="#8aa2c6"/></g><g fill="#8aa2c6"><path d="M237.72634,360.59729v-53.54671h7.09228v53.54671z"/><path d="M283.47155,360.24268v-54.61056h7.09228v54.61056z"/><path d="M283.15013,357.31208l-43.37974,-43.37974l5.015,-5.015l43.37974,43.37974z"/><path d="M288.16515,313.93234l-43.37975,43.37974l-5.01499,-5.015l43.37974,-43.37974z"/><path d="M238.43558,352.79578h52.12825v7.80151h-52.12825z"/><path d="M237.72634,304.21367h52.83748v7.80151h-52.83748z"/></g></g></g></svg>