<svg version="1.1" xmlns="http://www.w3.org/2000/svg" xmlns:xlink="http://www.w3.org/1999/xlink" width="51.40624" height="75.04794" viewBox="0,0,51.40624,75.04794"><g transform="translate(-213.21928,-128.14845)"><g data-paper-data="{&quot;isPaintingLayer&quot;:true}" fill-rule="nonzero" stroke-linecap="butt" stroke-linejoin="miter" stroke-miterlimit="10" stroke-dasharray="" stroke-dashoffset="0" style="mix-blend-mode: normal"><path d="M262.318,194.47338c0,0 -0.18003,2.66103 -0.96895,3.33096c-0.98362,0.83526 -4.47856,1.29488 -4.47856,1.29488l-32.65997,0.18774c0,0 -3.50571,-0.6655 -4.40956,-2.0751c-0.76622,-1.19497 -0.66919,-4.57871 -0.66919,-4.57871l0.48921,-24.29219c0,0 0.03957,-4.0259 0.84953,-4.97233c0.90356,-1.05581 4.3218,-1.07032 4.3218,-1.07032l29.67143,0.20475c0,0 5.00014,-0.10811 6.31993,0.96434c1.29792,1.05468 1.5343,5.41791 1.5343,5.41791v25.58803z" data-paper-data="{&quot;index&quot;:null}" fill="#ff0062" stroke="#b60046" stroke-width="2"/><path d="M252.12198,186.61959v-12.66734l3.36263,-3.29351v15.96085z" data-paper-data="{&quot;index&quot;:null}" fill="#000000" stroke="none" stroke-width="0"/><path d="M246.23735,186.6196v-15.96085l3.36264,3.29351v12.66734z" data-paper-data="{&quot;index&quot;:null}" fill="#000000" stroke="none" stroke-width="0"/><g stroke-width="2"><path d="M231.81824,150.52974l8.23438,-19.69791l7.58854,19.69791z" fill="#86a8cb" stroke="#5a728b"/><path d="M226.81304,154.72766l3.0677,-4.19791h19.53645l3.55208,4.19791z" fill="#3f4f60" stroke="#222b34"/><path d="M214.21929,202.19639v-47.6302h49.40624v47.6302zM238.43803,186.20161l20.17188,0.17188l0.17187,-16.94271l-20.01041,0.47396z" fill="#3f4f60" stroke="#222b34"/><path d="M216.80262,158.11828c0,-0.80254 0.65059,-1.45312 1.45313,-1.45312c0.80254,0 1.45313,0.65058 1.45313,1.45312c0,0.80254 -0.65059,1.45313 -1.45312,1.45313c-0.80254,0 -1.45312,-0.65059 -1.45312,-1.45312z" fill="#3f4f60" stroke="#222b34"/><path d="M258.2974,158.11828c0,-0.80254 0.65058,-1.45312 1.45313,-1.45312c0.80254,0 1.45313,0.65058 1.45313,1.45312c0,0.80254 -0.65058,1.45313 -1.45312,1.45313c-0.80254,0 -1.45312,-0.65059 -1.45312,-1.45312z" fill="#3f4f60" stroke="#222b34"/><path d="M216.80262,198.48285c0,-0.80254 0.65059,-1.45312 1.45313,-1.45312c0.80254,0 1.45313,0.65058 1.45313,1.45312c0,0.80254 -0.65059,1.45313 -1.45312,1.45313c-0.80254,0 -1.45312,-0.65059 -1.45312,-1.45312z" fill="#3f4f60" stroke="#222b34"/><path d="M258.78178,198.48285c0,-0.80254 0.65058,-1.45312 1.45313,-1.45312c0.80254,0 1.45313,0.65058 1.45313,1.45312c0,0.80254 -0.65058,1.45313 -1.45312,1.45313c-0.80254,0 -1.45312,-0.65059 -1.45312,-1.45312z" fill="#3f4f60" stroke="#222b34"/></g></g></g></svg>