<svg version="1.1" xmlns="http://www.w3.org/2000/svg" xmlns:xlink="http://www.w3.org/1999/xlink" width="51.40624" height="75.04794" viewBox="0,0,51.40624,75.04794"><g transform="translate(-213.21928,-128.14845)"><g data-paper-data="{&quot;isPaintingLayer&quot;:true}" fill-rule="nonzero" stroke-linecap="butt" stroke-linejoin="miter" stroke-miterlimit="10" stroke-dasharray="" stroke-dashoffset="0" style="mix-blend-mode: normal"><path d="M263.11061,194.64528c0,0 -0.18995,2.566 -1.0223,3.212c-1.03778,0.80542 -4.72513,1.24863 -4.72513,1.24863l-34.45807,0.18104c0,0 -3.69872,-0.64173 -4.65233,-2.00099c-0.8084,-1.15229 -0.70603,-4.41518 -0.70603,-4.41518l0.51614,-23.42461c0,0 0.04175,-3.88212 0.8963,-4.79475c0.95331,-1.0181 4.55974,-1.03209 4.55974,-1.03209l31.30499,0.19744c0,0 5.27542,-0.10425 6.66787,0.9299c1.36938,1.01701 1.61877,5.22441 1.61877,5.22441v24.67417z" data-paper-data="{&quot;index&quot;:null}" fill="#ff0062" stroke="#b60046" stroke-width="2"/><path d="M252.16612,187.07199v-12.21494l3.60947,-3.17588v15.39082z" data-paper-data="{&quot;index&quot;:null}" fill="#000000" stroke="none" stroke-width="0"/><path d="M245.84952,187.072v-15.39082l3.60948,3.17588v12.21494z" data-paper-data="{&quot;index&quot;:null}" fill="#000000" stroke="none" stroke-width="0"/><g stroke-width="2"><path d="M231.81824,150.52974l8.23438,-19.69791l7.58854,19.69791z" fill="#86a8cb" stroke="#5a728b"/><path d="M226.81304,154.72766l3.0677,-4.19791h19.53645l3.55208,4.19791z" fill="#3f4f60" stroke="#222b34"/><path d="M214.21929,202.19639v-47.6302h49.40624v47.6302zM238.43803,186.20161l20.17188,0.17188l0.17187,-16.94271l-20.01041,0.47396z" fill="#3f4f60" stroke="#222b34"/><path d="M216.80262,158.11828c0,-0.80254 0.65059,-1.45312 1.45313,-1.45312c0.80254,0 1.45313,0.65058 1.45313,1.45312c0,0.80254 -0.65059,1.45313 -1.45312,1.45313c-0.80254,0 -1.45312,-0.65059 -1.45312,-1.45312z" fill="#3f4f60" stroke="#222b34"/><path d="M258.2974,158.11828c0,-0.80254 0.65058,-1.45312 1.45313,-1.45312c0.80254,0 1.45313,0.65058 1.45313,1.45312c0,0.80254 -0.65058,1.45313 -1.45312,1.45313c-0.80254,0 -1.45312,-0.65059 -1.45312,-1.45312z" fill="#3f4f60" stroke="#222b34"/><path d="M216.80262,198.48285c0,-0.80254 0.65059,-1.45312 1.45313,-1.45312c0.80254,0 1.45313,0.65058 1.45313,1.45312c0,0.80254 -0.65059,1.45313 -1.45312,1.45313c-0.80254,0 -1.45312,-0.65059 -1.45312,-1.45312z" fill="#3f4f60" stroke="#222b34"/><path d="M258.78178,198.48285c0,-0.80254 0.65058,-1.45312 1.45313,-1.45312c0.80254,0 1.45313,0.65058 1.45313,1.45312c0,0.80254 -0.65058,1.45313 -1.45312,1.45313c-0.80254,0 -1.45312,-0.65059 -1.45312,-1.45312z" fill="#3f4f60" stroke="#222b34"/></g></g></g></svg>