<svg version="1.1" xmlns="http://www.w3.org/2000/svg" xmlns:xlink="http://www.w3.org/1999/xlink" width="58.85718" height="44.95088" viewBox="0,0,58.85718,44.95088"><g transform="translate(-216.66642,-157.95681)"><g data-paper-data="{&quot;isPaintingLayer&quot;:true}" fill-rule="nonzero" stroke-width="2" stroke-linecap="butt" stroke-linejoin="miter" stroke-miterlimit="10" stroke-dasharray="" stroke-dashoffset="0" style="mix-blend-mode: normal"><path d="M245.69021,159.36025c3.14101,-1.35617 8.78005,0.81781 12.59516,4.85574c3.81511,4.03792 4.3616,8.4107 1.2206,9.76687c-3.14101,1.35617 -8.78006,-0.81781 -12.59517,-4.85574c-3.81511,-4.03792 -4.3616,-8.4107 -1.2206,-9.76688z" data-paper-data="{&quot;index&quot;:null}" fill="#c57eff" stroke="#864ab8"/><path d="M240.26158,198.92217l-6.83933,-8.1107l3.42658,-24.73221l7.51021,-5.13099l22.83759,2.63061l7.30021,8.8445l-0.3471,4.71948l-3.38401,-4.12502l-1.11494,7.56589l-5.44821,-6.95937l-0.70475,7.68345l-4.54469,-5.6532l-8.55257,4.55618l5.85143,7.7723l6.80874,-3.81742l-0.26199,7.25481l6.0946,-4.2914l-0.89264,5.38963l4.42233,-3.25347l-0.75016,6.09217l-8.13166,6.50515z" data-paper-data="{&quot;index&quot;:null}" fill="#8c00ff" stroke="#6500b8"/><path d="M231.15101,162.10502c6.65518,1.55842 11.44274,5.41638 10.69326,8.61696c-0.74947,3.20058 -6.75214,4.5318 -13.40733,2.97339c-6.65518,-1.55842 -11.44274,-5.41638 -10.69326,-8.61696c0.74947,-3.20058 6.75214,-4.5318 13.40733,-2.97339z" data-paper-data="{&quot;index&quot;:null}" fill="#c57eff" stroke="#864ab8"/></g></g></svg>