<svg version="1.1" xmlns="http://www.w3.org/2000/svg" xmlns:xlink="http://www.w3.org/1999/xlink" width="409.61056" height="353.37912" viewBox="0,0,409.61056,353.37912"><g transform="translate(-28.19474,-105.27219)"><g data-paper-data="{&quot;isPaintingLayer&quot;:true}" fill-rule="nonzero" stroke="none" stroke-width="0" stroke-linecap="butt" stroke-linejoin="miter" stroke-miterlimit="10" stroke-dasharray="" stroke-dashoffset="0" style="mix-blend-mode: normal"><g><path d="M133.90396,364.78349v-53.54671h7.09228v53.54671z" fill="#8aa2c6"/><path d="M179.64915,364.42888v-54.61055h7.09228v54.61055z" fill="#8aa2c6"/><path d="M179.32777,361.49828l-43.37974,-43.37974l5.015,-5.015l43.37974,43.37974z" fill="#8aa2c6"/><path d="M184.34276,318.11853l-43.37974,43.37974l-5.01499,-5.015l43.37974,-43.37974z" fill="#8aa2c6"/><path d="M187.8053,313.36447h-54.61055v-7.09228h54.61055z" fill="#c65757"/><path d="M134.61319,356.98198h52.12825v7.80151h-52.12825z" fill="#8aa2c6"/></g><g><path d="M383.90397,364.78349v-53.54671h7.09228v53.54671z" fill="#8aa2c6"/><path d="M429.64917,364.42888v-54.61055h7.09228v54.61055z" fill="#8aa2c6"/><path d="M429.32777,361.49828l-43.37974,-43.37974l5.015,-5.015l43.37974,43.37974z" fill="#8aa2c6"/><path d="M434.34276,318.11853l-43.37974,43.37974l-5.01499,-5.015l43.37974,-43.37974z" fill="#8aa2c6"/><path d="M437.8053,313.36447h-54.61055v-7.09228h54.61055z" fill="#c65757"/><path d="M384.61321,356.98198h52.12825v7.80151h-52.12825z" fill="#8aa2c6"/></g><g><path d="M79.90397,261.78349v-53.54671h7.09228v53.54671z" fill="#8aa2c6"/><path d="M125.64915,261.42888v-54.61055h7.09228v54.61055z" fill="#8aa2c6"/><path d="M125.32776,258.49828l-43.37974,-43.37974l5.015,-5.015l43.37974,43.37974z" fill="#8aa2c6"/><path d="M130.34275,215.11853l-43.37974,43.37974l-5.01499,-5.015l43.37974,-43.37974z" fill="#8aa2c6"/><path d="M133.80529,210.36447h-54.61055v-7.09228h54.61055z" fill="#c65757"/><path d="M80.61319,253.98198h52.12825v7.80151h-52.12825z" fill="#8aa2c6"/></g><g fill="#8aa2c6"><path d="M79.75411,310.65131v-53.54671h7.09228v53.54671z"/><path d="M125.49932,310.2967v-54.61056h7.09228v54.61056z"/><path d="M125.17792,307.3661l-43.37974,-43.37974l5.015,-5.015l43.37974,43.37974z"/><path d="M130.19292,263.98636l-43.37975,43.37974l-5.01499,-5.015l43.37974,-43.37974z"/><path d="M80.46334,302.8498h52.12825v7.80151h-52.12825z"/><path d="M79.75411,254.26769h52.83748v7.80151h-52.83748z"/></g><g fill="#8aa2c6"><path d="M79.75411,359.65131v-53.54671h7.09228v53.54671z"/><path d="M125.49932,359.2967v-54.61056h7.09228v54.61056z"/><path d="M125.17792,356.3661l-43.37974,-43.37974l5.015,-5.015l43.37974,43.37974z"/><path d="M130.19292,312.98636l-43.37975,43.37974l-5.01499,-5.015l43.37974,-43.37974z"/><path d="M80.46334,351.8498h52.12825v7.80151h-52.12825z"/><path d="M79.75411,303.26769h52.83748v7.80151h-52.83748z"/></g><g fill="#8aa2c6"><path d="M79.75411,409.65131v-53.54671h7.09228v53.54671z"/><path d="M125.49932,409.2967v-54.61056h7.09228v54.61056z"/><path d="M125.17792,406.3661l-43.37974,-43.37974l5.015,-5.015l43.37974,43.37974z"/><path d="M130.19292,362.98636l-43.37975,43.37974l-5.01499,-5.015l43.37974,-43.37974z"/><path d="M80.46334,401.8498h52.12825v7.80151h-52.12825z"/><path d="M79.75411,353.26769h52.83748v7.80151h-52.83748z"/></g><g fill="#8aa2c6"><path d="M79.75411,458.65131v-53.54671h7.09228v53.54671z"/><path d="M125.49932,458.2967v-54.61056h7.09228v54.61056z"/><path d="M125.17792,455.3661l-43.37974,-43.37974l5.015,-5.015l43.37974,43.37974z"/><path d="M130.19292,411.98636l-43.37975,43.37974l-5.01499,-5.015l43.37974,-43.37974z"/><path d="M80.46334,450.8498h52.12825v7.80151h-52.12825z"/><path d="M79.75411,402.26769h52.83748v7.80151h-52.83748z"/></g><g><path d="M28.90397,163.78349v-53.54671h7.09228v53.54671z" fill="#8aa2c6"/><path d="M74.64915,163.42888v-54.61055h7.09228v54.61055z" fill="#8aa2c6"/><path d="M74.32776,160.49828l-43.37974,-43.37974l5.015,-5.015l43.37974,43.37974z" fill="#8aa2c6"/><path d="M79.34275,117.11853l-43.37974,43.37974l-5.01499,-5.015l43.37974,-43.37974z" fill="#8aa2c6"/><path d="M82.80529,112.36447h-54.61055v-7.09228h54.61055z" fill="#c65757"/><path d="M29.61319,155.98198h52.12825v7.80151h-52.12825z" fill="#8aa2c6"/></g><g fill="#8aa2c6"><path d="M28.75411,212.65131v-53.54671h7.09228v53.54671z"/><path d="M74.49932,212.2967v-54.61056h7.09228v54.61056z"/><path d="M74.17792,209.3661l-43.37974,-43.37974l5.015,-5.015l43.37974,43.37974z"/><path d="M79.19292,165.98636l-43.37975,43.37974l-5.01499,-5.015l43.37974,-43.37974z"/><path d="M29.46334,204.8498h52.12825v7.80151h-52.12825z"/><path d="M28.75411,156.26769h52.83748v7.80151h-52.83748z"/></g><g fill="#8aa2c6"><path d="M28.75411,261.65131v-53.54671h7.09228v53.54671z"/><path d="M74.49932,261.2967v-54.61056h7.09228v54.61056z"/><path d="M74.17792,258.3661l-43.37974,-43.37974l5.015,-5.015l43.37974,43.37974z"/><path d="M79.19292,214.98636l-43.37975,43.37974l-5.01499,-5.015l43.37974,-43.37974z"/><path d="M29.46334,253.8498h52.12825v7.80151h-52.12825z"/><path d="M28.75411,205.26769h52.83748v7.80151h-52.83748z"/></g><g fill="#8aa2c6"><path d="M28.75411,311.65131v-53.54671h7.09228v53.54671z"/><path d="M74.49932,311.2967v-54.61056h7.09228v54.61056z"/><path d="M74.17792,308.3661l-43.37974,-43.37974l5.015,-5.015l43.37974,43.37974z"/><path d="M79.19292,264.98636l-43.37975,43.37974l-5.01499,-5.015l43.37974,-43.37974z"/><path d="M29.46334,303.8498h52.12825v7.80151h-52.12825z"/><path d="M28.75411,255.26769h52.83748v7.80151h-52.83748z"/></g><g fill="#8aa2c6"><path d="M28.75411,360.65131v-53.54671h7.09228v53.54671z"/><path d="M74.49932,360.2967v-54.61056h7.09228v54.61056z"/><path d="M74.17792,357.3661l-43.37974,-43.37974l5.015,-5.015l43.37974,43.37974z"/><path d="M79.19292,313.98636l-43.37975,43.37974l-5.01499,-5.015l43.37974,-43.37974z"/><path d="M29.46334,352.8498h52.12825v7.80151h-52.12825z"/><path d="M28.75411,304.26769h52.83748v7.80151h-52.83748z"/></g></g></g></svg>