<svg version="1.1" xmlns="http://www.w3.org/2000/svg" xmlns:xlink="http://www.w3.org/1999/xlink" width="57" height="57" viewBox="0,0,57,57"><g transform="translate(-211.5,-151.5)"><g data-paper-data="{&quot;isPaintingLayer&quot;:true}" fill-rule="nonzero" stroke-linejoin="miter" stroke-miterlimit="10" stroke-dasharray="" stroke-dashoffset="0" style="mix-blend-mode: normal"><path d="M212.5,180c0,-15.18783 12.31217,-27.5 27.5,-27.5c15.18783,0 27.5,12.31217 27.5,27.5c0,15.18783 -12.31217,27.5 -27.5,27.5c-15.18783,0 -27.5,-12.31217 -27.5,-27.5z" fill="#0068ff" stroke="#0010c7" stroke-width="2" stroke-linecap="butt"/><path d="M252.50748,181.51316c0,5.06261 -0.97202,9.16667 -2.17105,9.16667c-1.19904,0 -2.17105,-4.10406 -2.17105,-9.16667c0,-5.06261 0.97202,-9.16667 2.17105,-9.16667c1.19904,0 2.17105,4.10406 2.17105,9.16667z" fill="#000000" stroke="none" stroke-width="0" stroke-linecap="butt"/><path d="M258.29695,173.55263c0.79936,0 1.44737,3.56405 1.44737,7.96053c0,4.39648 -0.64801,7.96053 -1.44737,7.96053c-0.79936,0 -1.44737,-3.56405 -1.44737,-7.96053c0,-4.39648 0.64801,-7.96053 1.44737,-7.96053z" fill="#000000" stroke="none" stroke-width="0" stroke-linecap="butt"/><path d="M253.35507,198.63993c0,0 -11.13673,-3.54654 -16.45192,-4.3552c-4.35708,-0.6629 -13.13998,-0.14698 -13.13998,-0.14698" fill="none" stroke="#000000" stroke-width="2" stroke-linecap="round"/><path d="M252.18352,172.79371c0,2.00847 -2.04686,3.63665 -4.57179,3.63665c-2.52493,0 -4.57179,-1.62818 -4.57179,-3.63665c0,-2.00847 2.04686,-3.63665 4.57179,-3.63665c2.52493,0 4.57179,1.62818 4.57179,3.63665z" fill="#0068ff" stroke="none" stroke-width="0" stroke-linecap="butt"/><path d="M257.58654,173.83275c0,0.86077 0.60475,1.55856 1.35076,1.55856c0.746,0 1.35076,-0.69779 1.35076,-1.55856c0,-0.86077 -0.60475,-1.55856 -1.35076,-1.55856c-0.746,0 -1.35076,0.69779 -1.35076,1.55856z" fill="#0068ff" stroke="none" stroke-width="0" stroke-linecap="butt"/></g></g></svg>