<svg version="1.1" xmlns="http://www.w3.org/2000/svg" xmlns:xlink="http://www.w3.org/1999/xlink" width="386.61055" height="255.6375" viewBox="0,0,386.61055,255.6375"><g transform="translate(71.80527,-126.18125)"><g data-paper-data="{&quot;isPaintingLayer&quot;:true}" fill-rule="nonzero" stroke="none" stroke-width="0" stroke-linecap="butt" stroke-linejoin="miter" stroke-miterlimit="10" stroke-dasharray="" stroke-dashoffset="0" style="mix-blend-mode: normal"><g><path d="M165.90395,184.78349v-53.54671h7.09228v53.54671z" fill="#8aa2c6"/><path d="M211.64915,184.42888v-54.61055h7.09228v54.61055z" fill="#8aa2c6"/><path d="M211.32775,181.49828l-43.37974,-43.37974l5.015,-5.015l43.37974,43.37974z" fill="#8aa2c6"/><path d="M216.34274,138.11853l-43.37974,43.37974l-5.01499,-5.015l43.37974,-43.37974z" fill="#8aa2c6"/><path d="M219.80528,133.36447h-54.61055v-7.09228h54.61055z" fill="#c65757"/><path d="M166.61318,176.98198h52.12825v7.80151h-52.12825z" fill="#8aa2c6"/></g><g fill="#8aa2c6"><path d="M165.7541,233.65131v-53.54671h7.09228v53.54671z"/><path d="M211.49931,233.2967v-54.61056h7.09228v54.61056z"/><path d="M211.17791,230.3661l-43.37974,-43.37974l5.015,-5.015l43.37974,43.37974z"/><path d="M216.19291,186.98636l-43.37975,43.37974l-5.01499,-5.015l43.37974,-43.37974z"/><path d="M166.46334,225.8498h52.12825v7.80151h-52.12825z"/><path d="M165.7541,177.26769h52.83748v7.80151h-52.83748z"/></g><g><path d="M213.27258,184.69255v-53.54671h7.09228v53.54671z" fill="#8aa2c6"/><path d="M259.01777,184.33794v-54.61055h7.09228v54.61055z" fill="#8aa2c6"/><path d="M258.69638,181.40734l-43.37974,-43.37974l5.015,-5.015l43.37974,43.37974z" fill="#8aa2c6"/><path d="M263.71137,138.0276l-43.37974,43.37974l-5.01499,-5.015l43.37974,-43.37974z" fill="#8aa2c6"/><path d="M267.17391,133.27353h-54.61055v-7.09228h54.61055z" fill="#c65757"/><path d="M213.98181,176.89104h52.12825v7.80151h-52.12825z" fill="#8aa2c6"/></g><g fill="#8aa2c6"><path d="M213.63948,233.81875v-53.54671h7.09228v53.54671z"/><path d="M259.38468,233.46414v-54.61056h7.09228v54.61056z"/><path d="M259.06327,230.53354l-43.37974,-43.37974l5.015,-5.015l43.37974,43.37974z"/><path d="M264.07828,187.1538l-43.37975,43.37974l-5.01499,-5.015l43.37974,-43.37974z"/><path d="M214.34871,226.01724h52.12825v7.80151h-52.12825z"/><path d="M213.63948,177.43513h52.83748v7.80151h-52.83748z"/></g><g><path d="M260.90395,184.78349v-53.54671h7.09228v53.54671z" fill="#8aa2c6"/><path d="M306.64914,184.42888v-54.61055h7.09228v54.61055z" fill="#8aa2c6"/><path d="M306.32775,181.49828l-43.37974,-43.37974l5.015,-5.015l43.37974,43.37974z" fill="#8aa2c6"/><path d="M311.34274,138.11853l-43.37974,43.37974l-5.01499,-5.015l43.37974,-43.37974z" fill="#8aa2c6"/><path d="M314.80528,133.36447h-54.61055v-7.09228h54.61055z" fill="#c65757"/><path d="M261.61318,176.98198h52.12825v7.80151h-52.12825z" fill="#8aa2c6"/></g><g fill="#8aa2c6"><path d="M260.7541,233.65131v-53.54671h7.09228v53.54671z"/><path d="M306.49931,233.2967v-54.61056h7.09228v54.61056z"/><path d="M306.17791,230.3661l-43.37974,-43.37974l5.015,-5.015l43.37974,43.37974z"/><path d="M311.19291,186.98636l-43.37975,43.37974l-5.01499,-5.015l43.37974,-43.37974z"/><path d="M261.46333,225.8498h52.12825v7.80151h-52.12825z"/><path d="M260.7541,177.26769h52.83748v7.80151h-52.83748z"/></g><g fill="#8aa2c6"><path d="M165.7541,282.65131v-53.54671h7.09228v53.54671z"/><path d="M211.49931,282.2967v-54.61056h7.09228v54.61056z"/><path d="M211.17791,279.3661l-43.37974,-43.37974l5.015,-5.015l43.37974,43.37974z"/><path d="M216.19291,235.98636l-43.37975,43.37974l-5.01499,-5.015l43.37974,-43.37974z"/><path d="M166.46334,274.8498h52.12825v7.80151h-52.12825z"/><path d="M165.7541,226.26769h52.83748v7.80151h-52.83748z"/></g><g fill="#8aa2c6"><path d="M213.63948,282.81875v-53.54671h7.09228v53.54671z"/><path d="M259.38468,282.46414v-54.61056h7.09228v54.61056z"/><path d="M259.06327,279.53354l-43.37974,-43.37974l5.015,-5.015l43.37974,43.37974z"/><path d="M264.07828,236.1538l-43.37975,43.37974l-5.01499,-5.015l43.37974,-43.37974z"/><path d="M214.34871,275.01724h52.12825v7.80151h-52.12825z"/><path d="M213.63948,226.43513h52.83748v7.80151h-52.83748z"/></g><g fill="#8aa2c6"><path d="M260.7541,282.65131v-53.54671h7.09228v53.54671z"/><path d="M306.49931,282.2967v-54.61056h7.09228v54.61056z"/><path d="M306.17791,279.3661l-43.37974,-43.37974l5.015,-5.015l43.37974,43.37974z"/><path d="M311.19291,235.98636l-43.37975,43.37974l-5.01499,-5.015l43.37974,-43.37974z"/><path d="M261.46333,274.8498h52.12825v7.80151h-52.12825z"/><path d="M260.7541,226.26769h52.83748v7.80151h-52.83748z"/></g><g fill="#8aa2c6"><path d="M165.7541,332.65131v-53.54671h7.09228v53.54671z"/><path d="M211.49931,332.2967v-54.61056h7.09228v54.61056z"/><path d="M211.17791,329.3661l-43.37974,-43.37974l5.015,-5.015l43.37974,43.37974z"/><path d="M216.19291,285.98636l-43.37975,43.37974l-5.01499,-5.015l43.37974,-43.37974z"/><path d="M166.46334,324.8498h52.12825v7.80151h-52.12825z"/><path d="M165.7541,276.26769h52.83748v7.80151h-52.83748z"/></g><g fill="#8aa2c6"><path d="M213.63948,332.81875v-53.54671h7.09228v53.54671z"/><path d="M259.38468,332.46414v-54.61056h7.09228v54.61056z"/><path d="M259.06327,329.53354l-43.37974,-43.37974l5.015,-5.015l43.37974,43.37974z"/><path d="M264.07828,286.1538l-43.37975,43.37974l-5.01499,-5.015l43.37974,-43.37974z"/><path d="M214.34871,325.01724h52.12825v7.80151h-52.12825z"/><path d="M213.63948,276.43513h52.83748v7.80151h-52.83748z"/></g><g fill="#8aa2c6"><path d="M260.7541,332.65131v-53.54671h7.09228v53.54671z"/><path d="M306.49931,332.2967v-54.61056h7.09228v54.61056z"/><path d="M306.17791,329.3661l-43.37974,-43.37974l5.015,-5.015l43.37974,43.37974z"/><path d="M311.19291,285.98636l-43.37975,43.37974l-5.01499,-5.015l43.37974,-43.37974z"/><path d="M261.46333,324.8498h52.12825v7.80151h-52.12825z"/><path d="M260.7541,276.26769h52.83748v7.80151h-52.83748z"/></g><g fill="#8aa2c6"><path d="M165.7541,381.65131v-53.54671h7.09228v53.54671z"/><path d="M211.49931,381.2967v-54.61056h7.09228v54.61056z"/><path d="M211.17791,378.3661l-43.37974,-43.37974l5.015,-5.015l43.37974,43.37974z"/><path d="M216.19291,334.98636l-43.37975,43.37974l-5.01499,-5.015l43.37974,-43.37974z"/><path d="M166.46334,373.8498h52.12825v7.80151h-52.12825z"/><path d="M165.7541,325.26769h52.83748v7.80151h-52.83748z"/></g><g fill="#8aa2c6"><path d="M213.63948,381.81875v-53.54671h7.09228v53.54671z"/><path d="M259.38468,381.46414v-54.61056h7.09228v54.61056z"/><path d="M259.06327,378.53354l-43.37974,-43.37974l5.015,-5.015l43.37974,43.37974z"/><path d="M264.07828,335.1538l-43.37975,43.37974l-5.01499,-5.015l43.37974,-43.37974z"/><path d="M214.34871,374.01724h52.12825v7.80151h-52.12825z"/><path d="M213.63948,325.43513h52.83748v7.80151h-52.83748z"/></g><g fill="#8aa2c6"><path d="M260.7541,381.65131v-53.54671h7.09228v53.54671z"/><path d="M306.49931,381.2967v-54.61056h7.09228v54.61056z"/><path d="M306.17791,378.3661l-43.37974,-43.37974l5.015,-5.015l43.37974,43.37974z"/><path d="M311.19291,334.98636l-43.37975,43.37974l-5.01499,-5.015l43.37974,-43.37974z"/><path d="M261.46333,373.8498h52.12825v7.80151h-52.12825z"/><path d="M260.7541,325.26769h52.83748v7.80151h-52.83748z"/></g><g><path d="M-71.09606,281.78349v-53.54671h7.09228v53.54671z" fill="#8aa2c6"/><path d="M-25.35085,281.42888v-54.61055h7.09228v54.61055z" fill="#8aa2c6"/><path d="M-25.67225,278.49828l-43.37974,-43.37974l5.015,-5.015l43.37974,43.37974z" fill="#8aa2c6"/><path d="M-20.65726,235.11853l-43.37974,43.37974l-5.01499,-5.015l43.37974,-43.37974z" fill="#8aa2c6"/><path d="M-17.19472,230.36447h-54.61055v-7.09228h54.61055z" fill="#c65757"/><path d="M-70.38682,273.98198h52.12825v7.80151h-52.12825z" fill="#8aa2c6"/></g><g fill="#8aa2c6"><path d="M-71.2459,330.65131v-53.54671h7.09228v53.54671z"/><path d="M-25.50069,330.2967v-54.61056h7.09228v54.61056z"/><path d="M-25.82209,327.3661l-43.37974,-43.37974l5.015,-5.015l43.37974,43.37974z"/><path d="M-20.80709,283.98636l-43.37975,43.37974l-5.01499,-5.015l43.37974,-43.37974z"/><path d="M-70.53666,322.8498h52.12825v7.80151h-52.12825z"/><path d="M-71.2459,274.26769h52.83748v7.80151h-52.83748z"/></g><g><path d="M-23.72742,281.69255v-53.54671h7.09228v53.54671z" fill="#8aa2c6"/><path d="M22.01778,281.33794v-54.61055h7.09228v54.61055z" fill="#8aa2c6"/><path d="M21.69638,278.40734l-43.37974,-43.37974l5.015,-5.015l43.37974,43.37974z" fill="#8aa2c6"/><path d="M26.71138,235.0276l-43.37974,43.37974l-5.01499,-5.015l43.37974,-43.37974z" fill="#8aa2c6"/><path d="M30.17391,230.27353h-54.61055v-7.09228h54.61055z" fill="#c65757"/><path d="M-23.01819,273.89104h52.12825v7.80151h-52.12825z" fill="#8aa2c6"/></g><g fill="#8aa2c6"><path d="M-23.36052,330.81875v-53.54671h7.09228v53.54671z"/><path d="M22.38468,330.46414v-54.61056h7.09228v54.61056z"/><path d="M22.06328,327.53354l-43.37974,-43.37974l5.015,-5.015l43.37974,43.37974z"/><path d="M27.07828,284.1538l-43.37975,43.37974l-5.01499,-5.015l43.37974,-43.37974z"/><path d="M-22.65129,323.01724h52.12825v7.80151h-52.12825z"/><path d="M-23.36052,274.43513h52.83748v7.80151h-52.83748z"/></g><g><path d="M23.90395,281.78349v-53.54671h7.09228v53.54671z" fill="#8aa2c6"/><path d="M69.64915,281.42888v-54.61055h7.09228v54.61055z" fill="#8aa2c6"/><path d="M69.32774,278.49828l-43.37974,-43.37974l5.015,-5.015l43.37974,43.37974z" fill="#8aa2c6"/><path d="M74.34274,235.11853l-43.37974,43.37974l-5.01499,-5.015l43.37974,-43.37974z" fill="#8aa2c6"/><path d="M77.80527,230.36447h-54.61055v-7.09228h54.61055z" fill="#c65757"/><path d="M24.61318,273.98198h52.12825v7.80151h-52.12825z" fill="#8aa2c6"/></g><g fill="#8aa2c6"><path d="M23.75409,330.65131v-53.54671h7.09228v53.54671z"/><path d="M69.49931,330.2967v-54.61056h7.09228v54.61056z"/><path d="M69.17791,327.3661l-43.37974,-43.37974l5.015,-5.015l43.37974,43.37974z"/><path d="M74.19291,283.98636l-43.37975,43.37974l-5.01499,-5.015l43.37974,-43.37974z"/><path d="M24.46333,322.8498h52.12825v7.80151h-52.12825z"/><path d="M23.75409,274.26769h52.83748v7.80151h-52.83748z"/></g><g fill="#8aa2c6"><path d="M-71.2459,379.65131v-53.54671h7.09228v53.54671z"/><path d="M-25.50069,379.2967v-54.61056h7.09228v54.61056z"/><path d="M-25.82209,376.3661l-43.37974,-43.37974l5.015,-5.015l43.37974,43.37974z"/><path d="M-20.80709,332.98636l-43.37975,43.37974l-5.01499,-5.015l43.37974,-43.37974z"/><path d="M-70.53666,371.8498h52.12825v7.80151h-52.12825z"/><path d="M-71.2459,323.26769h52.83748v7.80151h-52.83748z"/></g><g fill="#8aa2c6"><path d="M-23.36052,379.81875v-53.54671h7.09228v53.54671z"/><path d="M22.38468,379.46414v-54.61056h7.09228v54.61056z"/><path d="M22.06328,376.53354l-43.37974,-43.37974l5.015,-5.015l43.37974,43.37974z"/><path d="M27.07828,333.1538l-43.37975,43.37974l-5.01499,-5.015l43.37974,-43.37974z"/><path d="M-22.65129,372.01724h52.12825v7.80151h-52.12825z"/><path d="M-23.36052,323.43513h52.83748v7.80151h-52.83748z"/></g><g fill="#8aa2c6"><path d="M23.75409,379.65131v-53.54671h7.09228v53.54671z"/><path d="M69.49931,379.2967v-54.61056h7.09228v54.61056z"/><path d="M69.17791,376.3661l-43.37974,-43.37974l5.015,-5.015l43.37974,43.37974z"/><path d="M74.19291,332.98636l-43.37975,43.37974l-5.01499,-5.015l43.37974,-43.37974z"/><path d="M24.46333,371.8498h52.12825v7.80151h-52.12825z"/><path d="M23.75409,323.26769h52.83748v7.80151h-52.83748z"/></g></g></g></svg>