<svg version="1.1" xmlns="http://www.w3.org/2000/svg" xmlns:xlink="http://www.w3.org/1999/xlink" width="312.50519" height="139.84522" viewBox="0,0,312.50519,139.84522"><g transform="translate(-55.62338,-98.32246)"><g data-paper-data="{&quot;isPaintingLayer&quot;:true}" fill-rule="nonzero" stroke-linecap="butt" stroke-linejoin="miter" stroke-miterlimit="10" stroke-dasharray="" stroke-dashoffset="0" style="mix-blend-mode: normal"><path d="M164,141c0,-20.98682 17.01318,-38 38,-38c20.98682,0 38,17.01318 38,38c0,20.98682 -17.01318,38 -38,38c-20.98682,0 -38,-17.01318 -38,-38z" fill="#0068ff" stroke="#0010c7" stroke-width="5"/><path d="M219.28306,143.09091c0,6.99561 -1.34315,12.66667 -3,12.66667c-1.65685,0 -3,-5.67106 -3,-12.66667c0,-6.99561 1.34315,-12.66667 3,-12.66667c1.65685,0 3,5.67106 3,12.66667z" fill="#000000" stroke="none" stroke-width="0"/><path d="M227.28306,132.09091c1.10457,0 2,4.92487 2,11c0,6.07513 -0.89543,11 -2,11c-1.10457,0 -2,-4.92487 -2,-11c0,-6.07513 0.89543,-11 2,-11z" fill="#000000" stroke="none" stroke-width="0"/><path d="M70.62857,178.82246v-55c0,0 12.36651,-12.68885 33,4c8.70984,7.04472 10.30298,14.22949 16.17022,23.64808c8.03217,12.89393 18.82978,27.35192 18.82978,27.35192z" fill="#b0ccd7" stroke="#639b9b" stroke-width="5"/><path d="M357.62857,188.82247c0,22.64368 -54.17355,41 -121,41c-66.82645,0 -174,-47 -174,-47c0,0 107.17355,-35 174,-35c66.82645,0 121,18.35632 121,41z" fill="#00bcff" stroke="#00b1b1" stroke-width="5"/><path d="M365.62857,185.82246c0,3.31371 -2.46243,6 -5.5,6c-3.03757,0 -5.5,-2.68629 -5.5,-6c0,-3.31371 2.46243,-6 5.5,-6c3.03757,0 5.5,2.68629 5.5,6z" fill="#b0ccd7" stroke="#639b9b" stroke-width="5"/><path d="M356.12553,235.66768v-101h6.66667v101z" fill="#b0ccd7" stroke="#639b9b" stroke-width="5"/><text transform="translate(174.87619,215.60749) scale(0.59261,0.5)" font-size="40" xml:space="preserve" fill="#ffffff" fill-rule="nonzero" stroke="none" stroke-width="1" stroke-linecap="butt" stroke-linejoin="miter" stroke-miterlimit="10" stroke-dasharray="" stroke-dashoffset="0" font-family="Sans Serif" font-weight="normal" text-anchor="start" style="mix-blend-mode: normal"><tspan x="0" dy="0">BLUEBALL</tspan></text><path d="M257.69496,115.16679l8.66973,-7.17962l47.86415,57.79822l-8.66973,7.17962z" fill="#b0ccd7" stroke="#639b9b" stroke-width="5"/><path d="M248.62857,168.48913v-60h9v60z" fill="#b0ccd7" stroke="#639b9b" stroke-width="5"/><path d="M320.62857,170.1558v-62.33333h8v62.33333z" fill="#b0ccd7" stroke="#639b9b" stroke-width="5"/><path d="M240.62857,112.82246v-12h96v12z" fill="#b0ccd7" stroke="#639b9b" stroke-width="5"/><path d="M241.62857,176.82246v-11h93v11z" fill="#b0ccd7" stroke="#639b9b" stroke-width="5"/></g></g></svg>