<svg version="1.1" xmlns="http://www.w3.org/2000/svg" xmlns:xlink="http://www.w3.org/1999/xlink" width="50.05191" height="36.08277" viewBox="0,0,50.05191,36.08277"><g transform="translate(-215.93625,-164.20455)"><g data-paper-data="{&quot;isPaintingLayer&quot;:true}" fill-rule="nonzero" stroke-linecap="butt" stroke-linejoin="miter" stroke-miterlimit="10" stroke-dasharray="" stroke-dashoffset="0" style="mix-blend-mode: normal"><path d="M264.96005,194.85159c0,0 -0.20426,2.45195 -1.09935,3.06924c-1.11599,0.76963 -5.08128,1.19314 -5.08128,1.19314l-37.05532,0.17299c0,0 -3.9775,-0.61321 -5.00299,-1.91206c-0.86934,-1.10108 -0.75925,-4.21895 -0.75925,-4.21895l0.55505,-22.38352c0,0 0.0449,-3.70958 0.96386,-4.58165c1.02516,-0.97285 4.90342,-0.98622 4.90342,-0.98622l33.66459,0.18866c0,0 5.67305,-0.09962 7.17046,0.88857c1.47259,0.97182 1.74078,4.99222 1.74078,4.99222v23.57754z" data-paper-data="{&quot;index&quot;:null}" fill="#ff0062" stroke="#b60046" stroke-width="2"/><path d="M253.39186,187.61488v-11.67205l3.81517,-3.03473v14.70678z" data-paper-data="{&quot;index&quot;:null}" fill="#000000" stroke="none" stroke-width="0"/><path d="M246.71529,187.61489v-14.70678l3.81518,3.03473v11.67205z" data-paper-data="{&quot;index&quot;:null}" fill="#000000" stroke="none" stroke-width="0"/></g></g></svg>