<svg version="1.1" xmlns="http://www.w3.org/2000/svg" xmlns:xlink="http://www.w3.org/1999/xlink" width="130" height="390.9253" viewBox="0,0,130,390.9253"><g transform="translate(-174.99999,19.90334)"><g data-paper-data="{&quot;isPaintingLayer&quot;:true}" fill-rule="nonzero" stroke-linecap="butt" stroke-linejoin="miter" stroke-miterlimit="10" stroke-dasharray="" stroke-dashoffset="0" style="mix-blend-mode: normal"><path d="M279.05139,347.18623c-6.23352,-2.97926 -19.38473,-3.83094 -19.38473,-3.83094v-23.33334c0,0 22.83317,-3.08718 33.66667,7.66667c10.8335,10.75385 11.66666,37.33333 11.66666,37.33333c0,0 -17.66294,-13.87567 -25.9486,-17.83573z" data-paper-data="{&quot;index&quot;:null}" fill="#b82a2a" stroke="none" stroke-width="0"/><path d="M175,365.68862c0,0 0.83316,-26.57948 11.66666,-37.33333c10.8335,-10.75385 33.66666,-7.66667 33.66666,-7.66667v23.33334c0,0 -13.15121,0.85168 -19.38473,3.83094c-8.28566,3.96006 -25.9486,17.83573 -25.9486,17.83573z" fill="#b82a2a" stroke="none" stroke-width="0"/><path d="M209.82335,348.97804c0,0 -5.57223,-75.03183 0.03998,-110.1534c4.44802,-27.836 30.96002,-83.8466 30.96002,-83.8466c0,0 23.50215,53.67638 27.22274,82.10173c4.47328,34.17585 -2.22274,108.89826 -2.22274,108.89826z" fill="#8ba5b8" stroke="none" stroke-width="0"/><path d="M209.86333,240.82464c4.44802,-27.836 30.96002,-83.8466 30.96002,-83.8466c0,0 22.56333,53.34298 27.43153,82.38266c-3.06836,0.33737 -17.10698,-6.5324 -30.67337,-6.16122c-13.33662,0.36489 -26.21689,7.97383 -27.76998,7.95247c0.01716,-0.10949 0.03443,-0.21859 0.0518,-0.32731z" fill="#b82a2a" stroke="none" stroke-width="0"/><path d="M242.66667,339.85529c0,12.7946 -3.33334,31.16667 -3.33334,31.16667c0,0 -2.66666,-19.37207 -2.66666,-32.16667c0,-12.79459 1.19391,-14.16667 2.66666,-14.16667c1.47276,0 3.33334,2.37207 3.33334,15.16667z" fill="#b82a2a" stroke="none" stroke-width="0"/><path d="M226.85599,216.18858c0,-6.99561 5.67106,-12.66667 12.66666,-12.66667c6.9956,0 12.66666,5.67106 12.66666,12.66667c0,6.9956 -5.67106,12.66667 -12.66666,12.66667c-6.99561,0 -12.66666,-5.67106 -12.66666,-12.66667z" fill="#93e3ff" stroke="none" stroke-width="0"/><path d="M228.28978,-19.90334v0v0v0z" fill="#93e3ff" stroke="#679db1" stroke-width="2"/><path d="M227.41462,216.75023v-5.42857l21.85714,11.57143l-4.85714,3.85714z" fill="#cff2ff" stroke="none" stroke-width="0"/><path d="M230.1289,206.32165l2.57143,-0.85714l16.42857,4.14286l1,3z" fill="#cff2ff" stroke="none" stroke-width="0"/><path d="M226.28456,215.90287c0,-6.99561 5.67106,-12.66667 12.66666,-12.66667c6.9956,0 12.66666,5.67106 12.66666,12.66667c0,6.9956 -5.67106,12.66667 -12.66666,12.66667c-6.99561,0 -12.66666,-5.67106 -12.66666,-12.66667z" fill="none" stroke="#679db1" stroke-width="2"/><text transform="translate(210.68574,257.27885) rotate(90) scale(0.16667,0.16667)" font-size="40" xml:space="preserve" fill="#b82a2a" fill-rule="nonzero" stroke="none" stroke-width="1" stroke-linecap="butt" stroke-linejoin="miter" stroke-miterlimit="10" stroke-dasharray="" stroke-dashoffset="0" font-family="Pixel" font-weight="normal" text-anchor="start" style="mix-blend-mode: normal"><tspan x="0" dy="0">DR.BOBBLEHEAD</tspan></text></g></g></svg>