<svg version="1.1" xmlns="http://www.w3.org/2000/svg" xmlns:xlink="http://www.w3.org/1999/xlink" width="488.16025" height="111.8381" viewBox="0,0,488.16025,111.8381"><g transform="translate(2.95618,-249.73454)"><g data-paper-data="{&quot;isPaintingLayer&quot;:true}" fill-rule="nonzero" stroke="none" stroke-width="0" stroke-linecap="butt" stroke-linejoin="miter" stroke-miterlimit="10" stroke-dasharray="" stroke-dashoffset="0" style="mix-blend-mode: normal"><g><path d="M159.29612,361.00431v-111.26977h81.98825v111.26977z" fill="#ffd07f"/><path d="M158.76719,300.40693v-42.16538h82.57388v42.16538l-20.34639,-18.42281l-21.57841,13.19612l-16.81904,-18.19852z" fill="#7c653e"/><path d="M158.71049,291.89993v-42.16539h82.57388v42.16539l-20.34639,-18.42281l-21.57841,13.19612l-16.81904,-18.19852z" fill="#76cc00"/><path d="M166.18071,301.06215c0,-0.81281 0.65891,-1.47173 1.47173,-1.47173c0.81281,0 1.47173,0.65891 1.47173,1.47173c0,0.81281 -0.65892,1.47173 -1.47173,1.47173c-0.81281,0 -1.47173,-0.65892 -1.47173,-1.47173z" fill="#c4a062"/><path d="M199.08916,316.27911c0,-0.81281 0.65891,-1.47173 1.47173,-1.47173c0.81281,0 1.47173,0.65891 1.47173,1.47173c0,0.81281 -0.65892,1.47173 -1.47173,1.47173c-0.81281,0 -1.47173,-0.65892 -1.47173,-1.47173z" fill="#c4a062"/><path d="M218.96178,307.82983c0,-0.81281 0.65891,-1.47173 1.47173,-1.47173c0.81281,0 1.47173,0.65891 1.47173,1.47173c0,0.81281 -0.65892,1.47173 -1.47173,1.47173c-0.81281,0 -1.47173,-0.65892 -1.47173,-1.47173z" fill="#c4a062"/><path d="M175.82788,333.21163c0,-0.81281 0.65891,-1.47173 1.47173,-1.47173c0.81281,0 1.47173,0.65891 1.47173,1.47173c0,0.81281 -0.65892,1.47173 -1.47173,1.47173c-0.81281,0 -1.47173,-0.65892 -1.47173,-1.47173z" fill="#c4a062"/><path d="M161.17106,312.96803c0,-0.81281 0.65891,-1.47173 1.47173,-1.47173c0.81281,0 1.47173,0.65891 1.47173,1.47173c0,0.81281 -0.65892,1.47173 -1.47173,1.47173c-0.81281,0 -1.47173,-0.65892 -1.47173,-1.47173z" fill="#c4a062"/><path d="M197.10568,343.62623c0,-0.81281 0.65891,-1.47173 1.47173,-1.47173c0.81281,0 1.47173,0.65891 1.47173,1.47173c0,0.81281 -0.65892,1.47173 -1.47173,1.47173c-0.81281,0 -1.47173,-0.65892 -1.47173,-1.47173z" fill="#c4a062"/><path d="M226.93485,331.74494c0,-0.81281 0.65891,-1.47173 1.47173,-1.47173c0.81281,0 1.47173,0.65891 1.47173,1.47173c0,0.81281 -0.65892,1.47173 -1.47173,1.47173c-0.81281,0 -1.47173,-0.65892 -1.47173,-1.47173z" fill="#c4a062"/><path d="M214.21157,350.27485c0,-0.81281 0.65891,-1.47173 1.47173,-1.47173c0.81281,0 1.47173,0.65891 1.47173,1.47173c0,0.81281 -0.65892,1.47173 -1.47173,1.47173c-0.81281,0 -1.47173,-0.65892 -1.47173,-1.47173z" fill="#c4a062"/><path d="M175.88172,356.32974c0,-0.81281 0.65891,-1.47173 1.47173,-1.47173c0.81281,0 1.47173,0.65891 1.47173,1.47173c0,0.81281 -0.65892,1.47173 -1.47173,1.47173c-0.81281,0 -1.47173,-0.65892 -1.47173,-1.47173z" fill="#c4a062"/></g><g><path d="M240.60807,361.07714v-111.26977h81.98825v111.26977z" fill="#ffd07f"/><path d="M240.07913,300.47975v-42.16538h82.57388v42.16538l-20.34639,-18.42281l-21.57841,13.19612l-16.81904,-18.19852z" fill="#7c653e"/><path d="M240.02244,291.97275v-42.16539h82.57388v42.16539l-20.34639,-18.42281l-21.57841,13.19612l-16.81904,-18.19852z" fill="#76cc00"/><path d="M247.49266,301.13497c0,-0.81281 0.65891,-1.47173 1.47173,-1.47173c0.81281,0 1.47173,0.65891 1.47173,1.47173c0,0.81281 -0.65892,1.47173 -1.47173,1.47173c-0.81281,0 -1.47173,-0.65892 -1.47173,-1.47173z" fill="#c4a062"/><path d="M280.4011,316.35193c0,-0.81281 0.65891,-1.47173 1.47173,-1.47173c0.81281,0 1.47173,0.65891 1.47173,1.47173c0,0.81281 -0.65892,1.47173 -1.47173,1.47173c-0.81281,0 -1.47173,-0.65892 -1.47173,-1.47173z" fill="#c4a062"/><path d="M300.27372,307.90265c0,-0.81281 0.65891,-1.47173 1.47173,-1.47173c0.81281,0 1.47173,0.65891 1.47173,1.47173c0,0.81281 -0.65892,1.47173 -1.47173,1.47173c-0.81281,0 -1.47173,-0.65892 -1.47173,-1.47173z" fill="#c4a062"/><path d="M257.13982,333.28445c0,-0.81281 0.65891,-1.47173 1.47173,-1.47173c0.81281,0 1.47173,0.65891 1.47173,1.47173c0,0.81281 -0.65892,1.47173 -1.47173,1.47173c-0.81281,0 -1.47173,-0.65892 -1.47173,-1.47173z" fill="#c4a062"/><path d="M242.483,313.04085c0,-0.81281 0.65891,-1.47173 1.47173,-1.47173c0.81281,0 1.47173,0.65891 1.47173,1.47173c0,0.81281 -0.65892,1.47173 -1.47173,1.47173c-0.81281,0 -1.47173,-0.65892 -1.47173,-1.47173z" fill="#c4a062"/><path d="M278.4176,343.69906c0,-0.81281 0.65891,-1.47173 1.47173,-1.47173c0.81281,0 1.47173,0.65891 1.47173,1.47173c0,0.81281 -0.65892,1.47173 -1.47173,1.47173c-0.81281,0 -1.47173,-0.65892 -1.47173,-1.47173z" fill="#c4a062"/><path d="M308.24679,331.81776c0,-0.81281 0.65891,-1.47173 1.47173,-1.47173c0.81281,0 1.47173,0.65891 1.47173,1.47173c0,0.81281 -0.65892,1.47173 -1.47173,1.47173c-0.81281,0 -1.47173,-0.65892 -1.47173,-1.47173z" fill="#c4a062"/><path d="M295.52351,350.34767c0,-0.81281 0.65891,-1.47173 1.47173,-1.47173c0.81281,0 1.47173,0.65891 1.47173,1.47173c0,0.81281 -0.65892,1.47173 -1.47173,1.47173c-0.81281,0 -1.47173,-0.65892 -1.47173,-1.47173z" fill="#c4a062"/><path d="M257.19366,356.40256c0,-0.81281 0.65891,-1.47173 1.47173,-1.47173c0.81281,0 1.47173,0.65891 1.47173,1.47173c0,0.81281 -0.65892,1.47173 -1.47173,1.47173c-0.81281,0 -1.47173,-0.65892 -1.47173,-1.47173z" fill="#c4a062"/></g><g><path d="M321.84718,361.07714v-111.26977h81.98825v111.26977z" fill="#ffd07f"/><path d="M321.31825,300.47975v-42.16538h82.57388v42.16538l-20.34639,-18.42281l-21.57841,13.19612l-16.81904,-18.19852z" fill="#7c653e"/><path d="M321.26156,291.97275v-42.16539h82.57388v42.16539l-20.34639,-18.42281l-21.57841,13.19612l-16.81904,-18.19852z" fill="#76cc00"/><path d="M328.73177,301.13497c0,-0.81281 0.65891,-1.47173 1.47173,-1.47173c0.81281,0 1.47173,0.65891 1.47173,1.47173c0,0.81281 -0.65892,1.47173 -1.47173,1.47173c-0.81281,0 -1.47173,-0.65892 -1.47173,-1.47173z" fill="#c4a062"/><path d="M361.64022,316.35193c0,-0.81281 0.65891,-1.47173 1.47173,-1.47173c0.81281,0 1.47173,0.65891 1.47173,1.47173c0,0.81281 -0.65892,1.47173 -1.47173,1.47173c-0.81281,0 -1.47173,-0.65892 -1.47173,-1.47173z" fill="#c4a062"/><path d="M381.51284,307.90265c0,-0.81281 0.65891,-1.47173 1.47173,-1.47173c0.81281,0 1.47173,0.65891 1.47173,1.47173c0,0.81281 -0.65892,1.47173 -1.47173,1.47173c-0.81281,0 -1.47173,-0.65892 -1.47173,-1.47173z" fill="#c4a062"/><path d="M338.37894,333.28445c0,-0.81281 0.65891,-1.47173 1.47173,-1.47173c0.81281,0 1.47173,0.65891 1.47173,1.47173c0,0.81281 -0.65892,1.47173 -1.47173,1.47173c-0.81281,0 -1.47173,-0.65892 -1.47173,-1.47173z" fill="#c4a062"/><path d="M323.72212,313.04085c0,-0.81281 0.65891,-1.47173 1.47173,-1.47173c0.81281,0 1.47173,0.65891 1.47173,1.47173c0,0.81281 -0.65892,1.47173 -1.47173,1.47173c-0.81281,0 -1.47173,-0.65892 -1.47173,-1.47173z" fill="#c4a062"/><path d="M359.65674,343.69906c0,-0.81281 0.65891,-1.47173 1.47173,-1.47173c0.81281,0 1.47173,0.65891 1.47173,1.47173c0,0.81281 -0.65892,1.47173 -1.47173,1.47173c-0.81281,0 -1.47173,-0.65892 -1.47173,-1.47173z" fill="#c4a062"/><path d="M389.48591,331.81776c0,-0.81281 0.65891,-1.47173 1.47173,-1.47173c0.81281,0 1.47173,0.65891 1.47173,1.47173c0,0.81281 -0.65892,1.47173 -1.47173,1.47173c-0.81281,0 -1.47173,-0.65892 -1.47173,-1.47173z" fill="#c4a062"/><path d="M376.76264,350.34767c0,-0.81281 0.65891,-1.47173 1.47173,-1.47173c0.81281,0 1.47173,0.65891 1.47173,1.47173c0,0.81281 -0.65892,1.47173 -1.47173,1.47173c-0.81281,0 -1.47173,-0.65892 -1.47173,-1.47173z" fill="#c4a062"/><path d="M338.43278,356.40256c0,-0.81281 0.65891,-1.47173 1.47173,-1.47173c0.81281,0 1.47173,0.65891 1.47173,1.47173c0,0.81281 -0.65892,1.47173 -1.47173,1.47173c-0.81281,0 -1.47173,-0.65892 -1.47173,-1.47173z" fill="#c4a062"/></g><g><path d="M403.15913,361.14996v-111.26977h81.98825v111.26977z" fill="#ffd07f"/><path d="M402.63019,300.55258v-42.16538h82.57388v42.16538l-20.34639,-18.42281l-21.57841,13.19612l-16.81904,-18.19852z" fill="#7c653e"/><path d="M402.5735,292.04557v-42.16539h82.57388v42.16539l-20.34639,-18.42281l-21.57841,13.19612l-16.81904,-18.19852z" fill="#76cc00"/><path d="M410.04373,301.2078c0,-0.81281 0.65891,-1.47173 1.47173,-1.47173c0.81281,0 1.47173,0.65891 1.47173,1.47173c0,0.81281 -0.65892,1.47173 -1.47173,1.47173c-0.81281,0 -1.47173,-0.65892 -1.47173,-1.47173z" fill="#c4a062"/><path d="M442.95217,316.42475c0,-0.81281 0.65891,-1.47173 1.47173,-1.47173c0.81281,0 1.47173,0.65891 1.47173,1.47173c0,0.81281 -0.65892,1.47173 -1.47173,1.47173c-0.81281,0 -1.47173,-0.65892 -1.47173,-1.47173z" fill="#c4a062"/><path d="M462.82478,307.97547c0,-0.81281 0.65891,-1.47173 1.47173,-1.47173c0.81281,0 1.47173,0.65891 1.47173,1.47173c0,0.81281 -0.65892,1.47173 -1.47173,1.47173c-0.81281,0 -1.47173,-0.65892 -1.47173,-1.47173z" fill="#c4a062"/><path d="M419.69088,333.35727c0,-0.81281 0.65891,-1.47173 1.47173,-1.47173c0.81281,0 1.47173,0.65891 1.47173,1.47173c0,0.81281 -0.65892,1.47173 -1.47173,1.47173c-0.81281,0 -1.47173,-0.65892 -1.47173,-1.47173z" fill="#c4a062"/><path d="M405.03406,313.11367c0,-0.81281 0.65891,-1.47173 1.47173,-1.47173c0.81281,0 1.47173,0.65891 1.47173,1.47173c0,0.81281 -0.65892,1.47173 -1.47173,1.47173c-0.81281,0 -1.47173,-0.65892 -1.47173,-1.47173z" fill="#c4a062"/><path d="M440.96867,343.77188c0,-0.81281 0.65891,-1.47173 1.47173,-1.47173c0.81281,0 1.47173,0.65891 1.47173,1.47173c0,0.81281 -0.65892,1.47173 -1.47173,1.47173c-0.81281,0 -1.47173,-0.65892 -1.47173,-1.47173z" fill="#c4a062"/><path d="M470.79785,331.89059c0,-0.81281 0.65891,-1.47173 1.47173,-1.47173c0.81281,0 1.47173,0.65891 1.47173,1.47173c0,0.81281 -0.65892,1.47173 -1.47173,1.47173c-0.81281,0 -1.47173,-0.65892 -1.47173,-1.47173z" fill="#c4a062"/><path d="M458.07458,350.42049c0,-0.81281 0.65891,-1.47173 1.47173,-1.47173c0.81281,0 1.47173,0.65891 1.47173,1.47173c0,0.81281 -0.65892,1.47173 -1.47173,1.47173c-0.81281,0 -1.47173,-0.65892 -1.47173,-1.47173z" fill="#c4a062"/><path d="M419.74472,356.47539c0,-0.81281 0.65891,-1.47173 1.47173,-1.47173c0.81281,0 1.47173,0.65891 1.47173,1.47173c0,0.81281 -0.65892,1.47173 -1.47173,1.47173c-0.81281,0 -1.47173,-0.65892 -1.47173,-1.47173z" fill="#c4a062"/></g><g><path d="M-2.37055,361.49981v-111.26977h81.98825v111.26977z" fill="#ffd07f"/><path d="M-2.89948,300.90243v-42.16538h82.57388v42.16538l-20.34639,-18.42281l-21.57841,13.19612l-16.81904,-18.19852z" fill="#7c653e"/><path d="M-2.95618,292.39543v-42.16539h82.57388v42.16539l-20.34639,-18.42281l-21.57841,13.19612l-16.81904,-18.19852z" fill="#76cc00"/><path d="M4.51404,301.55765c0,-0.81281 0.65891,-1.47173 1.47173,-1.47173c0.81281,0 1.47173,0.65891 1.47173,1.47173c0,0.81281 -0.65892,1.47173 -1.47173,1.47173c-0.81281,0 -1.47173,-0.65892 -1.47173,-1.47173z" fill="#c4a062"/><path d="M37.42249,316.77461c0,-0.81281 0.65891,-1.47173 1.47173,-1.47173c0.81281,0 1.47173,0.65891 1.47173,1.47173c0,0.81281 -0.65892,1.47173 -1.47173,1.47173c-0.81281,0 -1.47173,-0.65892 -1.47173,-1.47173z" fill="#c4a062"/><path d="M57.29511,308.32533c0,-0.81281 0.65891,-1.47173 1.47173,-1.47173c0.81281,0 1.47173,0.65891 1.47173,1.47173c0,0.81281 -0.65892,1.47173 -1.47173,1.47173c-0.81281,0 -1.47173,-0.65892 -1.47173,-1.47173z" fill="#c4a062"/><path d="M14.16121,333.70713c0,-0.81281 0.65891,-1.47173 1.47173,-1.47173c0.81281,0 1.47173,0.65891 1.47173,1.47173c0,0.81281 -0.65892,1.47173 -1.47173,1.47173c-0.81281,0 -1.47173,-0.65892 -1.47173,-1.47173z" fill="#c4a062"/><path d="M-0.49561,313.46353c0,-0.81281 0.65891,-1.47173 1.47173,-1.47173c0.81281,0 1.47173,0.65891 1.47173,1.47173c0,0.81281 -0.65892,1.47173 -1.47173,1.47173c-0.81281,0 -1.47173,-0.65892 -1.47173,-1.47173z" fill="#c4a062"/><path d="M35.43901,344.12173c0,-0.81281 0.65891,-1.47173 1.47173,-1.47173c0.81281,0 1.47173,0.65891 1.47173,1.47173c0,0.81281 -0.65892,1.47173 -1.47173,1.47173c-0.81281,0 -1.47173,-0.65892 -1.47173,-1.47173z" fill="#c4a062"/><path d="M65.26818,332.24044c0,-0.81281 0.65891,-1.47173 1.47173,-1.47173c0.81281,0 1.47173,0.65891 1.47173,1.47173c0,0.81281 -0.65892,1.47173 -1.47173,1.47173c-0.81281,0 -1.47173,-0.65892 -1.47173,-1.47173z" fill="#c4a062"/><path d="M52.5449,350.77035c0,-0.81281 0.65891,-1.47173 1.47173,-1.47173c0.81281,0 1.47173,0.65891 1.47173,1.47173c0,0.81281 -0.65892,1.47173 -1.47173,1.47173c-0.81281,0 -1.47173,-0.65892 -1.47173,-1.47173z" fill="#c4a062"/><path d="M14.21505,356.82524c0,-0.81281 0.65891,-1.47173 1.47173,-1.47173c0.81281,0 1.47173,0.65891 1.47173,1.47173c0,0.81281 -0.65892,1.47173 -1.47173,1.47173c-0.81281,0 -1.47173,-0.65892 -1.47173,-1.47173z" fill="#c4a062"/></g><g><path d="M78.9414,361.57264v-111.26977h81.98825v111.26977z" fill="#ffd07f"/><path d="M78.41246,300.97525v-42.16538h82.57388v42.16538l-20.34639,-18.42281l-21.57841,13.19612l-16.81904,-18.19852z" fill="#7c653e"/><path d="M78.35577,292.46825v-42.16539h82.57388v42.16539l-20.34639,-18.42281l-21.57841,13.19612l-16.81904,-18.19852z" fill="#76cc00"/><path d="M85.82599,301.63047c0,-0.81281 0.65891,-1.47173 1.47173,-1.47173c0.81281,0 1.47173,0.65891 1.47173,1.47173c0,0.81281 -0.65892,1.47173 -1.47173,1.47173c-0.81281,0 -1.47173,-0.65892 -1.47173,-1.47173z" fill="#c4a062"/><path d="M118.73443,316.84743c0,-0.81281 0.65891,-1.47173 1.47173,-1.47173c0.81281,0 1.47173,0.65891 1.47173,1.47173c0,0.81281 -0.65892,1.47173 -1.47173,1.47173c-0.81281,0 -1.47173,-0.65892 -1.47173,-1.47173z" fill="#c4a062"/><path d="M138.60705,308.39815c0,-0.81281 0.65891,-1.47173 1.47173,-1.47173c0.81281,0 1.47173,0.65891 1.47173,1.47173c0,0.81281 -0.65892,1.47173 -1.47173,1.47173c-0.81281,0 -1.47173,-0.65892 -1.47173,-1.47173z" fill="#c4a062"/><path d="M95.47315,333.77995c0,-0.81281 0.65891,-1.47173 1.47173,-1.47173c0.81281,0 1.47173,0.65891 1.47173,1.47173c0,0.81281 -0.65892,1.47173 -1.47173,1.47173c-0.81281,0 -1.47173,-0.65892 -1.47173,-1.47173z" fill="#c4a062"/><path d="M80.81633,313.53635c0,-0.81281 0.65891,-1.47173 1.47173,-1.47173c0.81281,0 1.47173,0.65891 1.47173,1.47173c0,0.81281 -0.65892,1.47173 -1.47173,1.47173c-0.81281,0 -1.47173,-0.65892 -1.47173,-1.47173z" fill="#c4a062"/><path d="M116.75094,344.19456c0,-0.81281 0.65891,-1.47173 1.47173,-1.47173c0.81281,0 1.47173,0.65891 1.47173,1.47173c0,0.81281 -0.65892,1.47173 -1.47173,1.47173c-0.81281,0 -1.47173,-0.65892 -1.47173,-1.47173z" fill="#c4a062"/><path d="M146.58012,332.31326c0,-0.81281 0.65891,-1.47173 1.47173,-1.47173c0.81281,0 1.47173,0.65891 1.47173,1.47173c0,0.81281 -0.65892,1.47173 -1.47173,1.47173c-0.81281,0 -1.47173,-0.65892 -1.47173,-1.47173z" fill="#c4a062"/><path d="M133.85685,350.84317c0,-0.81281 0.65891,-1.47173 1.47173,-1.47173c0.81281,0 1.47173,0.65891 1.47173,1.47173c0,0.81281 -0.65892,1.47173 -1.47173,1.47173c-0.81281,0 -1.47173,-0.65892 -1.47173,-1.47173z" fill="#c4a062"/><path d="M95.52699,356.89806c0,-0.81281 0.65891,-1.47173 1.47173,-1.47173c0.81281,0 1.47173,0.65891 1.47173,1.47173c0,0.81281 -0.65892,1.47173 -1.47173,1.47173c-0.81281,0 -1.47173,-0.65892 -1.47173,-1.47173z" fill="#c4a062"/></g></g></g></svg>