<svg version="1.1" xmlns="http://www.w3.org/2000/svg" xmlns:xlink="http://www.w3.org/1999/xlink" width="239.9952" height="346.81943" viewBox="0,0,239.9952,346.81943"><g transform="translate(-53.53557,-31.15511)"><g data-paper-data="{&quot;isPaintingLayer&quot;:true}" fill-rule="nonzero" stroke="none" stroke-width="0" stroke-linecap="butt" stroke-linejoin="miter" stroke-miterlimit="10" stroke-dasharray="" stroke-dashoffset="0" style="mix-blend-mode: normal"><g><path d="M54.2448,92.13853v-53.54671h7.09228v53.54671z" fill="#8aa2c6"/><path d="M99.99,91.78392v-54.61055h7.09228v54.61055z" fill="#8aa2c6"/><path d="M99.6686,88.85332l-43.37974,-43.37974l5.015,-5.015l43.37974,43.37974z" fill="#8aa2c6"/><path d="M104.6836,45.47358l-43.37974,43.37974l-5.01499,-5.015l43.37974,-43.37974z" fill="#8aa2c6"/><path d="M108.14613,40.71951h-54.61055v-7.09228h54.61055z" fill="#c65757"/><path d="M54.95403,84.33702h52.12825v7.80151h-52.12825z" fill="#8aa2c6"/></g><g fill="#8aa2c6"><path d="M54.61171,141.26473v-53.54671h7.09228v53.54671z"/><path d="M100.35691,140.91012v-54.61056h7.09228v54.61056z"/><path d="M100.03551,137.97952l-43.37974,-43.37974l5.015,-5.015l43.37974,43.37974z"/><path d="M105.05051,94.59978l-43.37975,43.37974l-5.01499,-5.015l43.37974,-43.37974z"/><path d="M55.32094,133.46322h52.12825v7.80151h-52.12825z"/><path d="M54.61171,84.88111h52.83748v7.80151h-52.83748z"/></g><g><path d="M101.87617,92.22947v-53.54671h7.09228v53.54671z" fill="#8aa2c6"/><path d="M147.62137,91.87486v-54.61055h7.09228v54.61055z" fill="#8aa2c6"/><path d="M147.29996,88.94426l-43.37974,-43.37974l5.015,-5.015l43.37974,43.37974z" fill="#8aa2c6"/><path d="M152.31497,45.56452l-43.37974,43.37974l-5.01499,-5.015l43.37974,-43.37974z" fill="#8aa2c6"/><path d="M155.77749,40.81045h-54.61055v-7.09228h54.61055z" fill="#c65757"/><path d="M102.5854,84.42796h52.12825v7.80151h-52.12825z" fill="#8aa2c6"/></g><g fill="#8aa2c6"><path d="M101.72633,141.09729v-53.54671h7.09228v53.54671z"/><path d="M147.47153,140.74268v-54.61056h7.09228v54.61056z"/><path d="M147.15013,137.81208l-43.37974,-43.37974l5.015,-5.015l43.37974,43.37974z"/><path d="M152.16512,94.43234l-43.37975,43.37974l-5.01499,-5.015l43.37974,-43.37974z"/><path d="M102.43556,133.29578h52.12825v7.80151h-52.12825z"/><path d="M101.72633,84.71367h52.83748v7.80151h-52.83748z"/></g><g fill="#8aa2c6"><path d="M193.24534,87.70617v-53.54671h7.09228v53.54671z"/><path d="M238.99054,87.35156v-54.61056h7.09228v54.61056z"/><path d="M238.66914,84.42096l-43.37974,-43.37974l5.015,-5.015l43.37974,43.37974z"/><path d="M243.68414,41.04122l-43.37975,43.37974l-5.01499,-5.015l43.37974,-43.37974z"/><path d="M193.95457,79.90466h52.12825v7.80151h-52.12825z"/><path d="M193.24534,31.32255h52.83748v7.80151h-52.83748z"/></g><g fill="#8aa2c6"><path d="M240.35997,87.53873v-53.54671h7.09228v53.54671z"/><path d="M286.10517,87.18412v-54.61056h7.09228v54.61056z"/><path d="M285.78377,84.25352l-43.37974,-43.37974l5.015,-5.015l43.37974,43.37974z"/><path d="M290.79877,40.87378l-43.37975,43.37974l-5.01499,-5.015l43.37974,-43.37974z"/><path d="M241.0692,79.73722h52.12825v7.80151h-52.12825z"/><path d="M240.35997,31.15511h52.83748v7.80151h-52.83748z"/></g><g fill="#8aa2c6"><path d="M193.57868,137.0395v-53.54671h7.09228v53.54671z"/><path d="M239.32388,136.68489v-54.61056h7.09228v54.61056z"/><path d="M239.00248,133.75429l-43.37974,-43.37974l5.015,-5.015l43.37974,43.37974z"/><path d="M244.01748,90.37455l-43.37975,43.37974l-5.01499,-5.015l43.37974,-43.37974z"/><path d="M194.28791,129.23799h52.12825v7.80151h-52.12825z"/><path d="M193.57868,80.65588h52.83748v7.80151h-52.83748z"/></g><g fill="#8aa2c6"><path d="M240.6933,136.87206v-53.54671h7.09228v53.54671z"/><path d="M286.4385,136.51745v-54.61056h7.09228v54.61056z"/><path d="M286.1171,133.58685l-43.37974,-43.37974l5.015,-5.015l43.37974,43.37974z"/><path d="M291.1321,90.20711l-43.37975,43.37974l-5.01499,-5.015l43.37974,-43.37974z"/><path d="M241.40253,129.07055h52.12825v7.80151h-52.12825z"/><path d="M240.6933,80.48844h52.83748v7.80151h-52.83748z"/></g><g><path d="M110.05323,377.97454v-136h97v136z" fill="#8aa2c6"/><path d="M109.05323,252.44907v-12.25h100v12.25l-28.5,0l-10.00676,-7.45946l-31.99324,0.45946l-8.5,7z" fill="#c65757"/></g></g></g></svg>