<svg version="1.1" xmlns="http://www.w3.org/2000/svg" xmlns:xlink="http://www.w3.org/1999/xlink" width="512.81639" height="528.19943" viewBox="0,0,512.81639,528.19943"><g transform="translate(28.43434,161.67754)"><g data-paper-data="{&quot;isPaintingLayer&quot;:true}" fill-rule="nonzero" stroke="none" stroke-width="0" stroke-linecap="butt" stroke-linejoin="miter" stroke-miterlimit="10" stroke-dasharray="" stroke-dashoffset="0" style="mix-blend-mode: normal"><path d="M-6.01054,366.52189v-217.60593c0,0 22.32288,-9.5965 39.70954,-24.23131c26.79861,-22.55711 56.77054,-54.37462 91.08317,-60.40105c46.65985,-8.195 71.24201,49.07194 120.58093,41c44.7815,-7.32634 78.26838,-17.41547 103.09755,-17.41547c46.28515,0 70.73156,32.56147 94.68449,50.64548c12.29771,9.28453 38.24222,10.40234 38.24222,10.40234v217.60593z" data-paper-data="{&quot;index&quot;:null}" fill="#86faca"/><path d="M481.73934,166.63951c0,0 -43.37272,-1.69569 -78.89178,-8.1641c-21.87128,-3.983 -35.53187,-14.05477 -54.39624,-13.93028c-34.60069,0.22834 -74.03084,14.71077 -116.13016,17.05387c-45.89615,2.55441 -62.41094,-28.61838 -102.44305,-27.95469c-26.93829,0.44661 -46.85933,13.87742 -71.65006,21.01717c-31.11629,8.96152 -64.23857,11.97803 -64.23857,11.97803v-13.78499c0,0 16.60374,-0.83529 31.72683,-12.51778c28.03153,-21.65418 67.76394,-61.38967 105.60273,-66.88352c41.56908,-6.03546 54.1711,51.15883 103.52985,45.55097c42.01742,-4.77378 84.41772,-12.9828 119.52481,-13.12578c22.83562,-0.093 43.4988,30.24441 70.45998,42.83225c23.16268,10.81436 56.57406,4.14386 56.57406,4.14386l0.33161,13.78499z" data-paper-data="{&quot;index&quot;:null}" fill="#d3faea"/><path d="M-6.01052,365.53723v-115.20314c0,0 23.18273,-1.95633 43.03059,-14.779c27.7122,-17.90341 58.27196,-48.57639 92.79578,-50.3058c42.46992,-2.12745 61.19692,55.8172 105.12941,51.43259c51.63563,-5.1534 83.21627,-21.79491 112.53077,-21.79491c19.78445,0 45.75475,15.90671 66.60855,22.16222c33.48539,10.04461 67.31298,13.28491 67.31298,13.28491l2.98448,115.53475z" data-paper-data="{&quot;index&quot;:null}" fill="#00fa92"/><path d="M388.55718,-51.67754c33.96551,0 61.5,5.37258 61.5,12c0,6.62742 -27.53449,12 -61.5,12c-33.96551,0 -61.5,-5.37258 -61.5,-12c0,-6.62742 27.53449,-12 61.5,-12z" data-paper-data="{&quot;index&quot;:null}" fill-opacity="0.74118" fill="#fcfeff"/><path d="M289.05718,-144.67754c28.16652,0 51,4.25329 51,9.5c0,5.24671 -22.83348,9.5 -51,9.5c-28.16652,0 -51,-4.25329 -51,-9.5c0,-5.24671 22.83348,-9.5 51,-9.5z" data-paper-data="{&quot;index&quot;:null}" fill-opacity="0.74118" fill="#fcfeff"/><path d="M186.05718,19.32246c35.89851,0 65,4.70101 65,10.5c0,5.79899 -29.10149,10.5 -65,10.5c-35.89851,0 -65,-4.70101 -65,-10.5c0,-5.79899 29.10149,-10.5 65,-10.5z" data-paper-data="{&quot;index&quot;:null}" fill-opacity="0.74118" fill="#fcfeff"/><path d="M124.05718,-33.67754c0,3.86599 -20.5949,7 -46,7c-25.4051,0 -46,-3.13401 -46,-7c0,-3.86599 20.5949,-7 46,-7c25.4051,0 46,3.13401 46,7z" data-paper-data="{&quot;index&quot;:null}" fill-opacity="0.74118" fill="#fcfeff"/><path d="M115.05718,-69.17754c0,-4.14214 18.80404,-7.5 42,-7.5c23.19596,0 42,3.35786 42,7.5c0,4.14214 -18.80404,7.5 -42,7.5c-23.19596,0 -42,-3.35786 -42,-7.5z" data-paper-data="{&quot;index&quot;:null}" fill-opacity="0.74118" fill="#fcfeff"/><path d="M95.05718,-152.17754c0,5.24671 -17.01318,9.5 -38,9.5c-20.98682,0 -38,-4.25329 -38,-9.5c0,-5.24671 17.01318,-9.5 38,-9.5c20.98682,0 38,4.25329 38,9.5z" data-paper-data="{&quot;index&quot;:null}" fill-opacity="0.74118" fill="#fcfeff"/><path d="M480.05718,-156.67754c0,2.20914 -13.43146,4 -30,4c-16.56854,0 -30,-1.79086 -30,-4c0,-2.20914 13.43146,-4 30,-4c16.56854,0 30,1.79086 30,4z" data-paper-data="{&quot;index&quot;:null}" fill-opacity="0.74118" fill="#fcfeff"/><path d="M15.38761,142.55399c0,0 -4.50798,-3.07178 -1.15013,-6.07041c12.25888,-10.94746 -8.87934,-48.51185 -8.87934,-48.51185l11.08214,-5.7726c0,0 18.68355,39.96569 39.95954,32.49408c2.75181,-0.96637 1.73319,5.59504 1.73319,5.59504z" fill="#e9deff"/><path d="M3.3385,104.76782c-10.06111,5.24076 -22.99063,0.32538 -28.87889,-10.9788c-5.88826,-11.30418 -2.5055,-24.7165 7.55561,-29.95725c10.06111,-5.24076 22.99063,-0.32538 28.87889,10.9788c5.88826,11.30418 2.5055,24.7165 -7.55561,29.95726z" fill="#00c9ff"/><path d="M29.79993,90.98426c-10.06111,5.24076 -22.99063,0.32538 -28.87889,-10.9788c-5.88826,-11.30418 -2.5055,-24.7165 7.55561,-29.95725c10.06111,-5.24076 22.99063,-0.32538 28.87889,10.9788c5.88826,11.30418 2.5055,24.7165 -7.55561,29.95726z" fill="#00c9ff"/><path d="M6.56024,78.93699c-10.06111,5.24076 -22.99063,0.32538 -28.87889,-10.9788c-5.88826,-11.30418 -2.5055,-24.7165 7.55561,-29.95726c10.06111,-5.24076 22.99063,-0.32538 28.87889,10.9788c5.88826,11.30418 2.5055,24.7165 -7.55561,29.95725z" fill="#00c9ff"/><path d="M158.86554,80.04478c0,0 -0.79438,-3.57773 2.22915,-3.50146c11.03833,0.27846 17.96708,-27.83849 17.96708,-27.83849l8.08176,2.27107c0,0 -9.23526,28.16363 4.6195,34.29183c1.79196,0.79261 -1.72499,3.53689 -1.72499,3.53689z" fill="#e9deff"/><path d="M170.34684,56.00012c-7.33716,-2.06183 -11.40715,-10.4161 -9.09058,-18.65979c2.31658,-8.24368 10.14248,-13.25507 17.47964,-11.19324c7.33716,2.06183 11.40715,10.4161 9.09058,18.65979c-2.31658,8.24368 -10.14248,13.25507 -17.47964,11.19324z" fill="#00c9ff"/><path d="M189.6441,61.42288c-7.33716,-2.06183 -11.40715,-10.4161 -9.09058,-18.65979c2.31658,-8.24368 10.14248,-13.25507 17.47964,-11.19324c7.33716,2.06183 11.40715,10.4161 9.09058,18.65979c-2.31658,8.24368 -10.14248,13.25507 -17.47964,11.19324z" fill="#00c9ff"/><path d="M183.80627,44.83388c-7.33716,-2.06183 -11.40715,-10.4161 -9.09058,-18.65979c2.31658,-8.24368 10.14248,-13.25507 17.47964,-11.19324c7.33716,2.06183 11.40715,10.4161 9.09058,18.65979c-2.31658,8.24368 -10.14248,13.25507 -17.47964,11.19324z" fill="#00c9ff"/><path d="M352.39595,92.80405c0,0 -1.52762,-4.24701 2.17794,-4.6247c13.5283,-1.37884 17.61409,-36.80683 17.61409,-36.80683l10.22673,1.51586c0,0 -6.89624,35.84423 10.98372,41.17309c2.31258,0.68923 -1.55652,4.58946 -1.55652,4.58946z" fill="#e9deff"/><path d="M362.67752,61.64198c-9.28451,-1.3762 -15.55763,-10.94834 -14.0114,-21.37997c1.54623,-10.43163 10.32628,-17.77251 19.6108,-16.39631c9.28451,1.3762 15.55763,10.94834 14.0114,21.37997c-1.54623,10.43163 -10.32628,17.77252 -19.6108,16.39632z" fill="#00c9ff"/><path d="M387.09644,65.26148c-9.28451,-1.3762 -15.55763,-10.94835 -14.0114,-21.37998c1.54623,-10.43163 10.32628,-17.77251 19.6108,-16.39631c9.28451,1.3762 15.55764,10.94834 14.0114,21.37997c-1.54623,10.43163 -10.32629,17.77252 -19.6108,16.39632z" fill="#00c9ff"/><path d="M377.38125,45.90473c-9.28451,-1.3762 -15.55763,-10.94834 -14.0114,-21.37997c1.54623,-10.43163 10.32628,-17.77251 19.6108,-16.39631c9.28451,1.3762 15.55763,10.94834 14.0114,21.37997c-1.54623,10.43163 -10.32628,17.77252 -19.6108,16.39632z" fill="#00c9ff"/></g></g></svg>