<svg version="1.1" xmlns="http://www.w3.org/2000/svg" xmlns:xlink="http://www.w3.org/1999/xlink" width="78" height="78" viewBox="0,0,78,78"><g transform="translate(-201,-141)"><g data-paper-data="{&quot;isPaintingLayer&quot;:true}" fill-rule="nonzero" stroke-linejoin="miter" stroke-miterlimit="10" stroke-dasharray="" stroke-dashoffset="0" style="mix-blend-mode: normal"><path d="M202,180c0,-20.98682 17.01318,-38 38,-38c20.98682,0 38,17.01318 38,38c0,20.98682 -17.01318,38 -38,38c-20.98682,0 -38,-17.01318 -38,-38z" fill="#0068ff" stroke="#0010c7" stroke-width="2" stroke-linecap="butt"/><path d="M257.28306,182.09091c0,6.99561 -1.34315,12.66667 -3,12.66667c-1.65685,0 -3,-5.67106 -3,-12.66667c0,-6.99561 1.34315,-12.66667 3,-12.66667c1.65685,0 3,5.67106 3,12.66667z" fill="#000000" stroke="none" stroke-width="0" stroke-linecap="butt"/><path d="M265.28306,171.09091c1.10457,0 2,4.92487 2,11c0,6.07513 -0.89543,11 -2,11c-1.10457,0 -2,-4.92487 -2,-11c0,-6.07513 0.89543,-11 2,-11z" fill="#000000" stroke="none" stroke-width="0" stroke-linecap="butt"/><path d="M218.99942,188.9111c0,0 0.16198,6.13223 16.26866,13.46138c11.13319,5.06602 23.18619,3.38452 23.18619,3.38452" fill="none" stroke="#000000" stroke-width="2" stroke-linecap="round"/></g></g></svg>