<svg version="1.1" xmlns="http://www.w3.org/2000/svg" xmlns:xlink="http://www.w3.org/1999/xlink" width="962.82159" height="1337.97237" viewBox="0,0,962.82159,1337.97237"><defs><linearGradient x1="238.62857" y1="-16.1775" x2="238.62857" y2="376.82251" gradientUnits="userSpaceOnUse" id="color-1"><stop offset="0" stop-color="#637b86"/><stop offset="1" stop-color="#2f3a3f"/></linearGradient></defs><g transform="translate(25.37143,359.51692)"><g data-paper-data="{&quot;isPaintingLayer&quot;:true}" fill-rule="nonzero" stroke-linejoin="miter" stroke-miterlimit="10" stroke-dasharray="" stroke-dashoffset="0" style="mix-blend-mode: normal"><path d="M-25.37143,376.82251v-393h528v393z" fill="url(#color-1)" stroke="none" stroke-width="0" stroke-linecap="butt"/><path d="M163.91866,266.75059c-0.41452,-37.27691 29.46836,-67.83186 66.74527,-68.24638c37.27691,-0.41452 67.83186,29.46836 68.24638,66.74527c0.41452,37.27691 -29.46836,67.83186 -66.74527,68.24638c-37.27691,0.41452 -67.83186,-29.46836 -68.24638,-66.74527z" data-paper-data="{&quot;index&quot;:null}" fill="#0068ff" stroke="#0010c7" stroke-width="2" stroke-linecap="butt"/><path d="M196.56279,267.96995c0,-4.14214 3.35786,-7.5 7.5,-7.5c4.14214,0 7.5,3.35786 7.5,7.5c0,4.14214 -3.35786,7.5 -7.5,7.5c-4.14214,0 -7.5,-3.35786 -7.5,-7.5z" fill="#000000" stroke="none" stroke-width="0" stroke-linecap="butt"/><path d="M254.56279,272.46995c0,-4.41828 3.58172,-8 8,-8c4.41828,0 8,3.58172 8,8c0,4.41828 -3.58172,8 -8,8c-4.41828,0 -8,-3.58172 -8,-8z" fill="#000000" stroke="none" stroke-width="0" stroke-linecap="butt"/><path d="M250.56279,286.46995l-34,-2" fill="none" stroke="#000000" stroke-width="2" stroke-linecap="round"/><path d="M315.48816,209.68875l-58.98497,-31.90702l2.91795,-24.82913l79.3521,49.68576l-24.18688,80.64382l-23.01893,-9.75339z" data-paper-data="{&quot;index&quot;:null}" fill="#475875" stroke="#232c43" stroke-width="2" stroke-linecap="butt"/><path d="M176.56279,272.46995l-24,7l-14.60897,-82.91567l84.60897,-40.08433l5,19l-67.30595,30.80432z" fill="#475875" stroke="#232c43" stroke-width="2" stroke-linecap="butt"/><path d="M214.56279,161.46995v-347h42v347z" fill="#475875" stroke="#232c43" stroke-width="2" stroke-linecap="butt"/><path d="M199.56278,179.46995v-34h74v34z" fill="#475875" stroke="#232c43" stroke-width="2" stroke-linecap="butt"/><path d="M205.56279,89.46995v-71h59v71z" fill="#475875" stroke="#232c43" stroke-width="2" stroke-linecap="butt"/><g stroke-linecap="butt"><path d="M776.74899,830.83941c-38.60455,-18.45072 -120.05076,-23.72525 -120.05076,-23.72525v-144.50473c0,0 141.40715,-19.11906 208.49962,47.48012c67.09248,66.59922 72.2523,231.20743 72.2523,231.20743c0,0 -109.38758,-85.93282 -160.70117,-110.4577z" data-paper-data="{&quot;index&quot;:null}" fill="#b82a2a" stroke="none" stroke-width="0"/><path d="M132.35276,945.42577c0,0 5.15983,-164.60825 72.2523,-231.20743c67.09248,-66.59922 208.49954,-47.48012 208.49954,-47.48012v144.50473c0,0 -81.4462,5.27449 -120.05076,23.72525c-51.31355,24.52488 -160.70117,110.4577 -160.70117,110.4577z" fill="#b82a2a" stroke="none" stroke-width="0"/><path d="M348.01579,841.9362c0,0 -34.50915,-464.6764 0.24759,-682.18633c27.54684,-172.38994 191.73718,-519.2668 191.73718,-519.2668c0,0 145.55015,332.42088 168.59198,508.46069c27.70329,211.653 -13.76556,674.41316 -13.76556,674.41316z" fill="#8ba5b8" stroke="none" stroke-width="0"/><path d="M348.26338,172.13599c27.54684,-172.38994 191.73718,-519.2668 191.73718,-519.2668c0,0 139.73599,330.35614 169.88503,510.20054c-19.00252,2.08936 -105.9445,-40.45554 -189.96193,-38.15677c-82.59444,2.25977 -162.36269,49.38239 -171.98107,49.25012c0.10626,-0.67809 0.21322,-1.35376 0.32079,-2.02705z" fill="#b82a2a" stroke="none" stroke-width="0"/><path d="M551.41634,785.43849c0,79.23768 -20.64356,193.01695 -20.64356,193.01695c0,0 -16.51478,-119.97235 -16.51478,-199.21003c0,-79.23764 7.39396,-87.73502 16.51478,-87.73502c9.1209,0 20.64356,14.69037 20.64356,93.92805z" fill="#b82a2a" stroke="none" stroke-width="0"/><path d="M453.49989,19.56347c0,-43.32421 35.12121,-78.44542 78.44534,-78.44542c43.32413,0 78.44534,35.12121 78.44534,78.44542c0,43.32413 -35.12121,78.44542 -78.44534,78.44542c-43.32421,0 -78.44534,-35.12121 -78.44534,-78.44542z" fill="#93e3ff" stroke="none" stroke-width="0"/><path d="M456.95952,23.04178v-33.61944l135.36252,71.66253l-30.08055,23.88747z" fill="#cff2ff" stroke="none" stroke-width="0"/><path d="M473.7692,-41.543l15.92501,-5.30832l101.74308,25.65698l6.19308,18.57919z" fill="#cff2ff" stroke="none" stroke-width="0"/><path d="M449.96099,17.79405c0,-43.32421 35.12121,-78.44542 78.44534,-78.44542c43.32413,0 78.44534,35.12121 78.44534,78.44542c0,43.32413 -35.12121,78.44542 -78.44534,78.44542c-43.32421,0 -78.44534,-35.12121 -78.44534,-78.44542z" fill="none" stroke="#679db1" stroke-width="2"/><text transform="translate(353.3566,274.03785) rotate(90) scale(1.03219,1.03219)" font-size="40" xml:space="preserve" fill="#b82a2a" fill-rule="nonzero" stroke="none" stroke-width="1" stroke-linecap="butt" stroke-linejoin="miter" stroke-miterlimit="10" stroke-dasharray="" stroke-dashoffset="0" font-family="Pixel" font-weight="normal" text-anchor="start" style="mix-blend-mode: normal"><tspan x="0" dy="0">DR.BOBBLEHEAD</tspan></text></g></g></g></svg>