<svg version="1.1" xmlns="http://www.w3.org/2000/svg" xmlns:xlink="http://www.w3.org/1999/xlink" width="682.76305" height="311.05588" viewBox="0,0,682.76305,311.05588"><g transform="translate(-15.9144,-23.43998)"><g data-paper-data="{&quot;isPaintingLayer&quot;:true}" fill-rule="nonzero" stroke-linejoin="miter" stroke-miterlimit="10" stroke-dasharray="" stroke-dashoffset="0" style="mix-blend-mode: normal"><path d="M480.24267,85.18272c0,29.91665 -54.6739,54.16889 -122.11759,54.16889c-67.44368,0 -122.11759,-24.25224 -122.11759,-54.16889c0,-29.91665 54.6739,-54.1689 122.11759,-54.1689c19.67348,0 54.7206,5.72954 54.7206,5.72954c0,0 10.96069,-6.84838 19.55098,-8.74773c9.65078,-2.13383 35.54341,-3.43389 35.54341,-3.43389c0,0 -11.42881,12.35382 -14.39816,18.12985c-2.16777,4.21678 -1.78238,13.34481 -1.78238,13.34481c0,0 28.48315,19.64845 28.48315,29.14632z" data-paper-data="{&quot;index&quot;:null}" fill="#ffffff" stroke="#00c1ff" stroke-width="2" stroke-linecap="butt"/><path d="M16.91866,266.75058c-0.41452,-37.27691 29.46836,-67.83186 66.74527,-68.24638c37.27691,-0.41452 67.83186,29.46836 68.24638,66.74527c0.41452,37.27691 -29.46836,67.83186 -66.74527,68.24638c-37.27691,0.41452 -67.83186,-29.46836 -68.24638,-66.74527z" data-paper-data="{&quot;index&quot;:null}" fill="#0068ff" stroke="#0010c7" stroke-width="2" stroke-linecap="butt"/><path d="M139.76048,213.52849l-31,9l-54,-39" fill="none" stroke="#000000" stroke-width="2" stroke-linecap="round"/><path d="M106.46244,240.64199c0,13.07074 -2.01472,23.66667 -4.5,23.66667c-2.48528,0 -4.5,-10.59593 -4.5,-23.66667c0,-13.07074 2.01472,-23.66667 4.5,-23.66667c2.48528,0 4.5,10.59593 4.5,23.66667z" fill="#000000" stroke="none" stroke-width="0" stroke-linecap="butt"/><path d="M124.46244,241.64199c0,12.88664 -1.567,23.33333 -3.5,23.33333c-1.933,0 -3.5,-10.44669 -3.5,-23.33333c0,-12.88664 1.567,-23.33333 3.5,-23.33333c1.933,0 3.5,10.44669 3.5,23.33333z" fill="#000000" stroke="none" stroke-width="0" stroke-linecap="butt"/><path d="M70.46244,311.30865c0,0 18.20211,-1.13298 25.43243,0.07207c5.77145,0.96191 14.56757,6.59459 14.56757,6.59459" fill="none" stroke="#000000" stroke-width="2" stroke-linecap="round"/><text transform="translate(274.5899,88.32812) scale(0.5,0.5)" font-size="40" xml:space="preserve" fill="#00c1ff" fill-rule="nonzero" stroke="none" stroke-width="1" stroke-linecap="butt" stroke-linejoin="miter" stroke-miterlimit="10" stroke-dasharray="" stroke-dashoffset="0" font-family="Marker" font-weight="normal" text-anchor="start" style="mix-blend-mode: normal"><tspan x="0" dy="0">Uhhhhhhhhhhhhhhhhhhhhhhhhhhhhhhhhhh</tspan></text></g></g></svg>