<svg version="1.1" xmlns="http://www.w3.org/2000/svg" xmlns:xlink="http://www.w3.org/1999/xlink" width="529.56754" height="602.88835" viewBox="0,0,529.56754,602.88835"><g transform="translate(38.03302,231.70214)"><g data-paper-data="{&quot;isPaintingLayer&quot;:true}" fill-rule="nonzero" stroke="none" stroke-width="0" stroke-linecap="butt" stroke-linejoin="miter" stroke-miterlimit="10" stroke-dasharray="" stroke-dashoffset="0" style="mix-blend-mode: normal"><path d="M-38.03302,371.18621v-157.65367l46.82929,-131.99666l56.15152,65.60641l20.76743,-32.95711l22.18591,14.23667l14.92915,-26.3246l21.04169,49.40704l49.19613,-80.74303l55.46644,68.77315l-8,231.6518z" data-paper-data="{&quot;index&quot;:null}" fill="#87dcff"/><path d="M212.96698,369.18625v-157.65367l46.82929,-131.99666l56.15152,65.60641l20.76743,-32.95711l22.1859,14.23667l14.92915,-26.3246l21.0417,49.40704l49.19612,-80.74303l47.46644,142.77128v157.65367z" data-paper-data="{&quot;index&quot;:null}" fill="#87dcff"/><path d="" fill="#59c5ff"/><path d="M67.46197,39.48895l-4.37357,-4.1163l4.1163,-4.37358l4.37357,4.1163z" fill="#ffffff"/><path d="M260.46197,-0.01105l-4.37358,-4.1163l4.11631,-4.37358l4.37357,4.11631z" fill="#ffffff"/><path d="M230.46197,86.48895l-4.37358,-4.11631l4.11631,-4.37357l4.37357,4.11631z" fill="#ffffff"/><path d="M430.96197,38.98894l-4.37358,-4.1163l4.11631,-4.37357l4.37357,4.11631z" fill="#ffffff"/><path d="M10.40491,-62.61316l-4.37357,-4.1163l4.1163,-4.37358l4.37357,4.1163z" fill="#ffffff"/><path d="M203.40491,-102.11316l-4.37358,-4.1163l4.11631,-4.37358l4.37357,4.11631z" fill="#ffffff"/><path d="M173.40491,-15.61316l-4.37358,-4.11631l4.11631,-4.37357l4.37357,4.11631z" fill="#ffffff"/><path d="M373.90491,-63.11316l-4.37358,-4.1163l4.11631,-4.37358l4.37357,4.1163z" fill="#ffffff"/><path d="M61.45596,-161.71226l-4.37357,-4.1163l4.1163,-4.37358l4.37357,4.1163z" fill="#ffffff"/><path d="M254.45596,-201.21226l-4.37358,-4.1163l4.11631,-4.37357l4.37357,4.1163z" fill="#ffffff"/><path d="M313.04455,-120.71826l-4.37358,-4.11631l4.11631,-4.37357l4.37357,4.11631z" fill="#ffffff"/><path d="M424.95596,-162.21226l-4.37358,-4.1163l4.11631,-4.37358l4.37357,4.1163z" fill="#ffffff"/><path d="" data-paper-data="{&quot;index&quot;:null}" fill="#59c5ff"/><path d="M401.64764,-166.70213l4.37357,4.1163l-4.1163,4.37358l-4.37357,-4.1163z" data-paper-data="{&quot;index&quot;:null}" fill="#ffffff"/><path d="M208.64764,-127.20213l4.37358,4.1163l-4.11631,4.37358l-4.37357,-4.11631z" data-paper-data="{&quot;index&quot;:null}" fill="#ffffff"/><path d="M238.64764,-213.70213l4.37358,4.11631l-4.11631,4.37357l-4.37357,-4.11631z" data-paper-data="{&quot;index&quot;:null}" fill="#ffffff"/><path d="M38.14764,-166.20212l4.37358,4.1163l-4.11631,4.37357l-4.37357,-4.11631z" data-paper-data="{&quot;index&quot;:null}" fill="#ffffff"/><path d="M458.7047,-64.60002l4.37357,4.1163l-4.1163,4.37358l-4.37357,-4.1163z" data-paper-data="{&quot;index&quot;:null}" fill="#ffffff"/><path d="M265.7047,-25.10002l4.37358,4.1163l-4.11631,4.37358l-4.37357,-4.11631z" data-paper-data="{&quot;index&quot;:null}" fill="#ffffff"/><path d="M295.7047,-111.60002l4.37358,4.11631l-4.11631,4.37357l-4.37357,-4.11631z" data-paper-data="{&quot;index&quot;:null}" fill="#ffffff"/><path d="M95.2047,-64.10002l4.37358,4.1163l-4.11631,4.37358l-4.37357,-4.1163z" data-paper-data="{&quot;index&quot;:null}" fill="#ffffff"/><path d="M407.65365,34.49908l4.37357,4.1163l-4.1163,4.37358l-4.37357,-4.1163z" data-paper-data="{&quot;index&quot;:null}" fill="#ffffff"/><path d="M214.65365,73.99908l4.37358,4.1163l-4.11631,4.37357l-4.37357,-4.1163z" data-paper-data="{&quot;index&quot;:null}" fill="#ffffff"/><path d="M156.06506,-6.49492l4.37358,4.11631l-4.11631,4.37357l-4.37357,-4.11631z" data-paper-data="{&quot;index&quot;:null}" fill="#ffffff"/><path d="M44.15365,34.99908l4.37358,4.1163l-4.11631,4.37358l-4.37357,-4.1163z" data-paper-data="{&quot;index&quot;:null}" fill="#ffffff"/><path d="" data-paper-data="{&quot;index&quot;:null}" fill="#59c5ff"/><path d="M348.53134,13.11536l4.37357,-4.1163l4.1163,4.37358l-4.37357,4.1163z" data-paper-data="{&quot;index&quot;:null}" fill="#ffffff"/><path d="M155.53134,-26.38462l4.37357,-4.11631l4.11631,4.37358l-4.37358,4.1163z" data-paper-data="{&quot;index&quot;:null}" fill="#ffffff"/><path d="M185.53134,60.11538l4.37357,-4.11631l4.11631,4.37357l-4.37358,4.11631z" data-paper-data="{&quot;index&quot;:null}" fill="#ffffff"/><path d="M-14.96866,12.61538l4.37357,-4.11631l4.11631,4.37357l-4.37358,4.1163z" data-paper-data="{&quot;index&quot;:null}" fill="#ffffff"/><path d="M405.5884,-88.98674l4.37357,-4.1163l4.1163,4.37358l-4.37357,4.1163z" data-paper-data="{&quot;index&quot;:null}" fill="#ffffff"/><path d="M212.5884,-128.48674l4.37357,-4.11631l4.11631,4.37358l-4.37358,4.1163z" data-paper-data="{&quot;index&quot;:null}" fill="#ffffff"/><path d="M242.5884,-41.98673l4.37357,-4.11631l4.11631,4.37357l-4.37358,4.11631z" data-paper-data="{&quot;index&quot;:null}" fill="#ffffff"/><path d="M42.0884,-89.48674l4.37357,-4.1163l4.11631,4.37358l-4.37358,4.1163z" data-paper-data="{&quot;index&quot;:null}" fill="#ffffff"/><path d="M354.53735,-188.08584l4.37357,-4.1163l4.1163,4.37358l-4.37357,4.1163z" data-paper-data="{&quot;index&quot;:null}" fill="#ffffff"/><path d="M161.53735,-227.58583l4.37357,-4.1163l4.11631,4.37357l-4.37358,4.1163z" data-paper-data="{&quot;index&quot;:null}" fill="#ffffff"/><path d="M102.94876,-147.09183l4.37357,-4.11631l4.11631,4.37357l-4.37358,4.11631z" data-paper-data="{&quot;index&quot;:null}" fill="#ffffff"/><path d="M-8.96265,-188.58584l4.37357,-4.1163l4.11631,4.37358l-4.37358,4.1163z" data-paper-data="{&quot;index&quot;:null}" fill="#ffffff"/></g></g></svg>