<svg version="1.1" xmlns="http://www.w3.org/2000/svg" xmlns:xlink="http://www.w3.org/1999/xlink" width="287.61055" height="312.37912" viewBox="0,0,287.61055,312.37912"><g transform="translate(-50.19473,-126.27219)"><g data-paper-data="{&quot;isPaintingLayer&quot;:true}" fill-rule="nonzero" stroke="none" stroke-width="0" stroke-linecap="butt" stroke-linejoin="miter" stroke-miterlimit="10" stroke-dasharray="" stroke-dashoffset="0" style="mix-blend-mode: normal"><g><path d="M50.90396,241.78349v-53.54671h7.09228v53.54671z" fill="#8aa2c6"/><path d="M96.64915,241.42888v-54.61055h7.09228v54.61055z" fill="#8aa2c6"/><path d="M96.32776,238.49828l-43.37974,-43.37974l5.015,-5.015l43.37974,43.37974z" fill="#8aa2c6"/><path d="M101.34275,195.11853l-43.37974,43.37974l-5.01499,-5.015l43.37974,-43.37974z" fill="#8aa2c6"/><path d="M104.80529,190.36447h-54.61055v-7.09228h54.61055z" fill="#c65757"/><path d="M51.61319,233.98198h52.12825v7.80151h-52.12825z" fill="#8aa2c6"/></g><g fill="#8aa2c6"><path d="M50.75411,290.65131v-53.54671h7.09228v53.54671z"/><path d="M96.49932,290.2967v-54.61056h7.09228v54.61056z"/><path d="M96.17792,287.3661l-43.37974,-43.37974l5.015,-5.015l43.37974,43.37974z"/><path d="M101.19292,243.98636l-43.37975,43.37974l-5.01499,-5.015l43.37974,-43.37974z"/><path d="M51.46334,282.8498h52.12825v7.80151h-52.12825z"/><path d="M50.75411,234.26769h52.83748v7.80151h-52.83748z"/></g><g fill="#8aa2c6"><path d="M50.75411,339.65131v-53.54671h7.09228v53.54671z"/><path d="M96.49932,339.2967v-54.61056h7.09228v54.61056z"/><path d="M96.17792,336.3661l-43.37974,-43.37974l5.015,-5.015l43.37974,43.37974z"/><path d="M101.19292,292.98636l-43.37975,43.37974l-5.01499,-5.015l43.37974,-43.37974z"/><path d="M51.46334,331.8498h52.12825v7.80151h-52.12825z"/><path d="M50.75411,283.26769h52.83748v7.80151h-52.83748z"/></g><g fill="#8aa2c6"><path d="M50.75411,389.65131v-53.54671h7.09228v53.54671z"/><path d="M96.49932,389.2967v-54.61056h7.09228v54.61056z"/><path d="M96.17792,386.3661l-43.37974,-43.37974l5.015,-5.015l43.37974,43.37974z"/><path d="M101.19292,342.98636l-43.37975,43.37974l-5.01499,-5.015l43.37974,-43.37974z"/><path d="M51.46334,381.8498h52.12825v7.80151h-52.12825z"/><path d="M50.75411,333.26769h52.83748v7.80151h-52.83748z"/></g><g fill="#8aa2c6"><path d="M50.75411,438.65131v-53.54671h7.09228v53.54671z"/><path d="M96.49932,438.2967v-54.61056h7.09228v54.61056z"/><path d="M96.17792,435.3661l-43.37974,-43.37974l5.015,-5.015l43.37974,43.37974z"/><path d="M101.19292,391.98636l-43.37975,43.37974l-5.01499,-5.015l43.37974,-43.37974z"/><path d="M51.46334,430.8498h52.12825v7.80151h-52.12825z"/><path d="M50.75411,382.26769h52.83748v7.80151h-52.83748z"/></g><g><path d="M283.90396,184.78349v-53.54671h7.09228v53.54671z" fill="#8aa2c6"/><path d="M329.64915,184.42888v-54.61055h7.09228v54.61055z" fill="#8aa2c6"/><path d="M329.32776,181.49828l-43.37974,-43.37974l5.015,-5.015l43.37974,43.37974z" fill="#8aa2c6"/><path d="M334.34275,138.11853l-43.37974,43.37974l-5.01499,-5.015l43.37974,-43.37974z" fill="#8aa2c6"/><path d="M337.80529,133.36447h-54.61055v-7.09228h54.61055z" fill="#c65757"/><path d="M284.61319,176.98198h52.12825v7.80151h-52.12825z" fill="#8aa2c6"/></g><g fill="#8aa2c6"><path d="M283.75411,233.65131v-53.54671h7.09228v53.54671z"/><path d="M329.49932,233.2967v-54.61056h7.09228v54.61056z"/><path d="M329.17792,230.3661l-43.37974,-43.37974l5.015,-5.015l43.37974,43.37974z"/><path d="M334.19292,186.98636l-43.37975,43.37974l-5.01499,-5.015l43.37974,-43.37974z"/><path d="M284.46334,225.8498h52.12825v7.80151h-52.12825z"/><path d="M283.75411,177.26769h52.83748v7.80151h-52.83748z"/></g><g fill="#8aa2c6"><path d="M283.75411,282.65131v-53.54671h7.09228v53.54671z"/><path d="M329.49932,282.2967v-54.61056h7.09228v54.61056z"/><path d="M329.17792,279.3661l-43.37974,-43.37974l5.015,-5.015l43.37974,43.37974z"/><path d="M334.19292,235.98636l-43.37975,43.37974l-5.01499,-5.015l43.37974,-43.37974z"/><path d="M284.46334,274.8498h52.12825v7.80151h-52.12825z"/><path d="M283.75411,226.26769h52.83748v7.80151h-52.83748z"/></g><g fill="#8aa2c6"><path d="M283.75411,332.65131v-53.54671h7.09228v53.54671z"/><path d="M329.49932,332.2967v-54.61056h7.09228v54.61056z"/><path d="M329.17792,329.3661l-43.37974,-43.37974l5.015,-5.015l43.37974,43.37974z"/><path d="M334.19292,285.98636l-43.37975,43.37974l-5.01499,-5.015l43.37974,-43.37974z"/><path d="M284.46334,324.8498h52.12825v7.80151h-52.12825z"/><path d="M283.75411,276.26769h52.83748v7.80151h-52.83748z"/></g><g fill="#8aa2c6"><path d="M283.75411,381.65131v-53.54671h7.09228v53.54671z"/><path d="M329.49932,381.2967v-54.61056h7.09228v54.61056z"/><path d="M329.17792,378.3661l-43.37974,-43.37974l5.015,-5.015l43.37974,43.37974z"/><path d="M334.19292,334.98636l-43.37975,43.37974l-5.01499,-5.015l43.37974,-43.37974z"/><path d="M284.46334,373.8498h52.12825v7.80151h-52.12825z"/><path d="M283.75411,325.26769h52.83748v7.80151h-52.83748z"/></g></g></g></svg>