<svg version="1.1" xmlns="http://www.w3.org/2000/svg" xmlns:xlink="http://www.w3.org/1999/xlink" width="429.81423" height="514.01095" viewBox="0,0,429.81423,514.01095"><g transform="translate(-32.31435,146.67754)"><g data-paper-data="{&quot;isPaintingLayer&quot;:true}" fill-rule="nonzero" stroke="none" stroke-width="0" stroke-linecap="butt" stroke-linejoin="miter" stroke-miterlimit="10" stroke-dasharray="" stroke-dashoffset="0" style="mix-blend-mode: normal"><g><path d="M322.7402,363.33342c0,0 -1.34361,-92.87219 -5.80367,-133.98233c-3.80312,-35.05486 -19.30124,-97.4195 -19.30124,-97.4195h30.5625c0,0 18.17444,47.88101 21.43358,77.92183c4.62277,42.60987 3.67133,153.48001 3.67133,153.48001z" data-paper-data="{&quot;index&quot;:null}" fill="#7e4c00"/><path d="M224.50358,145.02981l-13.846,12.13088l-5.89114,22.20829l-26.45209,-17.2798l7.9861,-49.8049l233.58487,-33.83706l29.39142,40.76865l3.35412,56.37647l-14.54363,-32.42676l-18.20191,-18.87459z" data-paper-data="{&quot;index&quot;:null}" fill="#008f07"/><path d="M340.02475,184.63304l-11.82695,-31.9626l-56.75894,-53.48438l70.94867,-13.09822l21.83036,64.39957z" data-paper-data="{&quot;index&quot;:null}" fill="#00d80b"/><path d="M241.43732,107.20685l-13.76315,-50.70393c0,0 17.294,-23.38967 28.15594,-25.18647c11.00578,-1.8206 37.45291,14.33333 37.45291,14.33333l5.41183,52.30642z" fill="#7e4c00"/><path d="M226.26421,61.51755l-6.14732,-3.56518l36.48781,-31.21922l46.4369,17.82173l-7.42667,5.75822l-38.99304,-18.77114z" fill="#c69e61"/><path d="M254.82292,105.04985l-7.9231,-34.9335l33.77925,-7.23014l3.51302,37.41869z" fill="#a16100"/></g><path d="M123.31436,367.33342c0,0 -0.87166,-101.57425 3.36351,-140.61151c2.98589,-27.52205 19.63649,-71.38849 19.63649,-71.38849h28c0,0 -14.19868,57.13569 -17.68293,89.25138c-4.08611,37.66328 -5.31707,122.74862 -5.31707,122.74862z" fill="#b46c00"/><path d="M62.31435,148.33342l-16.67578,17.29206l-13.32422,29.70794l3.0729,-51.64959l26.9271,-37.35041l214,31l7.31651,45.62903l-24.23422,15.83098l-5.39721,-20.34624l-12.68508,-11.11376z" fill="#00b509"/><path d="M113.31436,172.33342l20,-59l65,12l-52,49l-10.83532,29.28271z" fill="#00ff0d"/><path d="M251.12859,-54.17753c0,15.74012 -44.99538,28.5 -100.5,28.5c-55.50462,0 -100.5,-12.75988 -100.5,-28.5c0,-15.74012 44.99538,-28.5 100.5,-28.5c55.50462,0 100.5,12.75988 100.5,28.5z" fill="#fdfeff"/><path d="M356.12858,-146.67753c58.54218,0 106,11.6406 106,26c0,14.3594 -47.45782,26 -106,26c-58.54218,0 -106,-11.6406 -106,-26c0,-14.3594 47.45782,-26 106,-26z" fill="#fdfeff"/></g></g></svg>