<svg version="1.1" xmlns="http://www.w3.org/2000/svg" xmlns:xlink="http://www.w3.org/1999/xlink" width="281.32337" height="117.33017" viewBox="0,0,281.32337,117.33017"><g transform="translate(-195.99092,-140.96424)"><g data-paper-data="{&quot;isPaintingLayer&quot;:true}" fill-rule="nonzero" stroke="none" stroke-width="0" stroke-linecap="butt" stroke-linejoin="miter" stroke-miterlimit="10" stroke-dasharray="" stroke-dashoffset="0" style="mix-blend-mode: normal"><path d="" fill="#c4a062"/><path d="" fill="#c4a062"/><path d="" fill="#c4a062"/><path d="" fill="#c4a062"/><path d="" fill="#c4a062"/><path d="" fill="#c4a062"/><g><path d="M403.31429,157.34062v-14.5h74v14.5z" fill="#d4beff"/><path d="M403.37857,149.34062v-7h73.5v7z" fill="#e9deff"/></g><g><path d="M196.60845,258.29442v-117.33016h86.4538v117.33016z" fill="#598bff"/><path d="M196.0507,194.39655v-44.46195h87.07133v44.46195l-21.45457,-19.42622l-22.75369,13.91486l-17.7351,-19.18972z" fill="#365399"/><path d="M195.99092,185.42621v-44.46196h87.07133v44.46196l-21.45457,-19.42622l-22.7537,13.91486l-17.7351,-19.18972z" fill="#58fab7"/></g><g><path d="M302.10845,202.79442l1,-61.83016h86.4538v64.33016c0,0 -19.56755,10.72092 -48.25213,10.19184c-24.92942,-0.45982 -39.20167,-12.69184 -39.20167,-12.69184z" fill="#598bff"/><path d="M302.5507,194.39655v-44.46195h87.07133v44.46195l-21.45457,-19.42622l-22.75369,13.91486l-17.7351,-19.18972z" fill="#365399"/><path d="M302.49092,185.42621v-44.46196h87.07133v44.46196l-21.45457,-19.42622l-22.7537,13.91486l-17.7351,-19.18972z" fill="#58fab7"/></g></g></g></svg>