<svg version="1.1" xmlns="http://www.w3.org/2000/svg" xmlns:xlink="http://www.w3.org/1999/xlink" width="51.40624" height="75.04794" viewBox="0,0,51.40624,75.04794"><g transform="translate(-213.21928,-128.14845)"><g data-paper-data="{&quot;isPaintingLayer&quot;:true}" fill-rule="nonzero" stroke-linecap="butt" stroke-linejoin="miter" stroke-miterlimit="10" stroke-dasharray="" stroke-dashoffset="0" style="mix-blend-mode: normal"><path d="M260.93457,193.97387c0,0 -0.17011,2.71806 -0.9156,3.40234c-0.92946,0.85316 -4.23199,1.32263 -4.23199,1.32263l-30.86187,0.19177c0,0 -3.3127,-0.67976 -4.16679,-2.11956c-0.72404,-1.22057 -0.63235,-4.67682 -0.63235,-4.67682l0.46228,-24.81273c0,0 0.03739,-4.11217 0.80276,-5.07888c0.85381,-1.07843 4.08386,-1.09325 4.08386,-1.09325l28.03787,0.20914c0,0 4.72486,-0.11042 5.97199,0.98501c1.22646,1.07728 1.44983,5.53401 1.44983,5.53401v26.13635z" data-paper-data="{&quot;index&quot;:null}" fill="#ff0062" stroke="#b60046" stroke-width="2"/><path d="M251.45116,185.95183v-12.93879l3.29857,-3.36408v16.30287z" data-paper-data="{&quot;index&quot;:null}" fill="#000000" stroke="none" stroke-width="0"/><path d="M245.67864,185.95184v-16.30287l3.29858,3.36408v12.93879z" data-paper-data="{&quot;index&quot;:null}" fill="#000000" stroke="none" stroke-width="0"/><g stroke-width="2"><path d="M231.81824,150.52974l8.23438,-19.69791l7.58854,19.69791z" fill="#86a8cb" stroke="#5a728b"/><path d="M226.81304,154.72766l3.0677,-4.19791h19.53645l3.55208,4.19791z" fill="#3f4f60" stroke="#222b34"/><path d="M214.21929,202.19639v-47.6302h49.40624v47.6302zM238.43803,186.20161l20.17188,0.17188l0.17187,-16.94271l-20.01041,0.47396z" fill="#3f4f60" stroke="#222b34"/><path d="M216.80262,158.11828c0,-0.80254 0.65059,-1.45312 1.45313,-1.45312c0.80254,0 1.45313,0.65058 1.45313,1.45312c0,0.80254 -0.65059,1.45313 -1.45312,1.45313c-0.80254,0 -1.45312,-0.65059 -1.45312,-1.45312z" fill="#3f4f60" stroke="#222b34"/><path d="M258.2974,158.11828c0,-0.80254 0.65058,-1.45312 1.45313,-1.45312c0.80254,0 1.45313,0.65058 1.45313,1.45312c0,0.80254 -0.65058,1.45313 -1.45312,1.45313c-0.80254,0 -1.45312,-0.65059 -1.45312,-1.45312z" fill="#3f4f60" stroke="#222b34"/><path d="M216.80262,198.48285c0,-0.80254 0.65059,-1.45312 1.45313,-1.45312c0.80254,0 1.45313,0.65058 1.45313,1.45312c0,0.80254 -0.65059,1.45313 -1.45312,1.45313c-0.80254,0 -1.45312,-0.65059 -1.45312,-1.45312z" fill="#3f4f60" stroke="#222b34"/><path d="M258.78178,198.48285c0,-0.80254 0.65058,-1.45312 1.45313,-1.45312c0.80254,0 1.45313,0.65058 1.45313,1.45312c0,0.80254 -0.65058,1.45313 -1.45312,1.45313c-0.80254,0 -1.45312,-0.65059 -1.45312,-1.45312z" fill="#3f4f60" stroke="#222b34"/></g></g></g></svg>