<svg version="1.1" xmlns="http://www.w3.org/2000/svg" xmlns:xlink="http://www.w3.org/1999/xlink" width="85.68357" height="57.70947" viewBox="0,0,85.68357,57.70947"><defs><radialGradient cx="267.68666" cy="193.49119" r="7.59091" gradientUnits="userSpaceOnUse" id="color-1"><stop offset="0" stop-color="#fff696"/><stop offset="1" stop-color="#ffde00"/></radialGradient></defs><g transform="translate(-197.15821,-151.14527)"><g data-paper-data="{&quot;isPaintingLayer&quot;:true}" fill-rule="nonzero" stroke-linejoin="miter" stroke-miterlimit="10" stroke-dasharray="" stroke-dashoffset="0" style="mix-blend-mode: normal"><path d="M210.25564,182.47615c7.23351,0 13.09743,3.20973 13.09743,7.16912c0,3.9594 -5.86392,7.16912 -13.09743,7.16912c-7.23351,0 -13.09743,-7.16912 -13.09743,-7.16912c0,0 7.40092,4.81302 10.21381,-0.74455c2.24204,-4.42971 -1.72832,-5.50357 -1.72832,-5.50357c0,0 2.98873,-0.921 4.61194,-0.921z" fill="#ff6900" stroke="none" stroke-width="0" stroke-linecap="butt"/><path d="M272.15821,174.47983c0,12.33504 -9.9378,22.33456 -22.19669,22.33456c-12.25889,0 -22.19669,-9.99952 -22.19669,-22.33456c0,-12.33504 9.9378,-22.33456 22.19669,-22.33456c12.25889,0 22.19669,9.99952 22.19669,22.33456z" fill="#ff001e" stroke="#9e0000" stroke-width="2" stroke-linecap="butt"/><path d="M245.45938,183.17301c0,0 3.4696,-3.12814 9.9152,-3.20252c4.94568,-0.05708 5.53934,4.02071 5.53934,4.02071" fill="none" stroke="#000000" stroke-width="2" stroke-linecap="round"/><path d="M253.95968,169.24086c0,4.41625 -0.4938,7.99632 -1.10294,7.99632c-0.60914,0 -1.10294,-3.58008 -1.10294,-7.99632c0,-4.41625 0.4938,-7.99632 1.10294,-7.99632c0.60914,0 1.10294,3.58008 1.10294,7.99632z" fill="#000000" stroke="#000000" stroke-width="2" stroke-linecap="butt"/><path d="M257.2685,169.24086c0,-4.26396 0.43208,-7.72059 0.96507,-7.72059c0.533,0 0.96507,3.45663 0.96507,7.72059c0,4.26396 -0.43208,7.72059 -0.96507,7.72059c-0.533,0 -0.96507,-3.45663 -0.96507,-7.72059z" fill="#000000" stroke="#000000" stroke-width="2" stroke-linecap="butt"/><path d="M248.72071,207.8438c-49.83273,-0.5422 -34.46691,-37.77574 -34.46691,-37.77574c0,0 16.32668,13.37259 42.72019,13.7688c24.91207,0.37397 19.32025,-15.14748 19.32025,-15.14748c0,0 23.91818,39.71466 -27.57353,39.15441z" fill="#475875" stroke="#232c43" stroke-width="2" stroke-linecap="butt"/><path d="M245.01331,157.11863c0,0 1.31476,-0.18923 3.64409,1.72945c1.9873,1.63694 2.77866,6.19535 5.78582,5.86844c0.91367,-0.09932 1.07008,-1.34789 1.07008,-1.34789c0,0 0.59559,1.57197 1.58506,1.46706c2.67387,-0.28348 1.40459,-3.22992 2.91067,-4.99598c1.43343,-1.68087 3.75427,-2.47108 3.75427,-2.47108" fill="#ff001e" stroke="#9e0000" stroke-width="2" stroke-linecap="round"/><path d="M260.09575,193.49119c0,-4.19234 3.39857,-7.59091 7.59091,-7.59091c4.19234,0 7.59091,3.39857 7.59091,7.59091c0,4.19234 -3.39857,7.59091 -7.59091,7.59091c-4.19234,0 -7.59091,-3.39857 -7.59091,-7.59091z" fill="url(#color-1)" stroke="#ff9400" stroke-width="2" stroke-linecap="butt"/><path d="M215.82302,182.80937l1,-4.63636c0,0 5.00248,2.94815 8.36089,4.0087c3.54101,1.11821 12.36638,2.53675 12.36638,2.53675l3.80295,4.84794l-5.3484,3.06115c0,0 -8.57406,-2.99038 -11.96213,-4.62977c-3.17365,-1.53564 -8.21968,-5.18841 -8.21968,-5.18841z" fill="#ff0000" stroke="#9e0000" stroke-width="2" stroke-linecap="butt"/></g></g></svg>