<svg version="1.1" xmlns="http://www.w3.org/2000/svg" xmlns:xlink="http://www.w3.org/1999/xlink" width="483.24192" height="108.1375" viewBox="0,0,483.24192,108.1375"><g transform="translate(0.46442,-252.62723)"><g data-paper-data="{&quot;isPaintingLayer&quot;:true}" fill-rule="nonzero" stroke="none" stroke-width="0" stroke-linecap="butt" stroke-linejoin="miter" stroke-miterlimit="10" stroke-dasharray="" stroke-dashoffset="0" style="mix-blend-mode: normal"><g><path d="M0.24481,311.13853v-53.54671h7.09228v53.54671z" fill="#8aa2c6"/><path d="M45.99,310.78392v-54.61055h7.09228v54.61055z" fill="#8aa2c6"/><path d="M45.66861,307.85332l-43.37974,-43.37974l5.015,-5.015l43.37974,43.37974z" fill="#8aa2c6"/><path d="M50.68361,264.47358l-43.37974,43.37974l-5.01499,-5.015l43.37974,-43.37974z" fill="#8aa2c6"/><path d="M54.14614,259.71951h-54.61055v-7.09228h54.61055z" fill="#c65757"/><path d="M0.95404,303.33702h52.12825v7.80151h-52.12825z" fill="#8aa2c6"/></g><g fill="#8aa2c6"><path d="M0.61171,360.26473v-53.54671h7.09228v53.54671z"/><path d="M46.35691,359.91012v-54.61056h7.09228v54.61056z"/><path d="M46.03551,356.97952l-43.37974,-43.37974l5.015,-5.015l43.37974,43.37974z"/><path d="M51.05051,313.59978l-43.37975,43.37974l-5.01499,-5.015l43.37974,-43.37974z"/><path d="M1.32094,352.46322h52.12825v7.80151h-52.12825z"/><path d="M0.61171,303.88111h52.83748v7.80151h-52.83748z"/></g><g><path d="M47.87618,311.22947v-53.54671h7.09228v53.54671z" fill="#8aa2c6"/><path d="M93.62138,310.87486v-54.61055h7.09228v54.61055z" fill="#8aa2c6"/><path d="M93.29997,307.94426l-43.37974,-43.37974l5.015,-5.015l43.37974,43.37974z" fill="#8aa2c6"/><path d="M98.31498,264.56452l-43.37974,43.37974l-5.01499,-5.015l43.37974,-43.37974z" fill="#8aa2c6"/><path d="M101.7775,259.81045h-54.61055v-7.09228h54.61055z" fill="#c65757"/><path d="M48.58541,303.42796h52.12825v7.80151h-52.12825z" fill="#8aa2c6"/></g><g fill="#8aa2c6"><path d="M47.72633,360.09729v-53.54671h7.09228v53.54671z"/><path d="M93.47154,359.74268v-54.61056h7.09228v54.61056z"/><path d="M93.15013,356.81208l-43.37974,-43.37974l5.015,-5.015l43.37974,43.37974z"/><path d="M98.16513,313.43234l-43.37975,43.37974l-5.01499,-5.015l43.37974,-43.37974z"/><path d="M48.43556,352.29578h52.12825v7.80151h-52.12825z"/><path d="M47.72633,303.71367h52.83748v7.80151h-52.83748z"/></g><g><path d="M96.24481,311.13853v-53.54671h7.09228v53.54671z" fill="#8aa2c6"/><path d="M141.99001,310.78392v-54.61055h7.09228v54.61055z" fill="#8aa2c6"/><path d="M141.6686,307.85332l-43.37974,-43.37974l5.015,-5.015l43.37974,43.37974z" fill="#8aa2c6"/><path d="M146.68361,264.47358l-43.37974,43.37974l-5.01499,-5.015l43.37974,-43.37974z" fill="#8aa2c6"/><path d="M150.14613,259.71951h-54.61055v-7.09228h54.61055z" fill="#c65757"/><path d="M96.95404,303.33702h52.12825v7.80151h-52.12825z" fill="#8aa2c6"/></g><g fill="#8aa2c6"><path d="M96.61171,360.26473v-53.54671h7.09228v53.54671z"/><path d="M142.35691,359.91012v-54.61056h7.09228v54.61056z"/><path d="M142.03551,356.97952l-43.37974,-43.37974l5.015,-5.015l43.37974,43.37974z"/><path d="M147.0505,313.59978l-43.37975,43.37974l-5.01499,-5.015l43.37974,-43.37974z"/><path d="M97.32094,352.46322h52.12825v7.80151h-52.12825z"/><path d="M96.61171,303.88111h52.83748v7.80151h-52.83748z"/></g><g><path d="M143.87616,311.22947v-53.54671h7.09228v53.54671z" fill="#8aa2c6"/><path d="M189.62138,310.87486v-54.61055h7.09228v54.61055z" fill="#8aa2c6"/><path d="M189.29998,307.94426l-43.37974,-43.37974l5.015,-5.015l43.37974,43.37974z" fill="#8aa2c6"/><path d="M194.31498,264.56451l-43.37974,43.37974l-5.01499,-5.015l43.37974,-43.37974z" fill="#8aa2c6"/><path d="M197.77751,259.81045h-54.61055v-7.09228h54.61055z" fill="#c65757"/><path d="M144.58541,303.42796h52.12825v7.80151h-52.12825z" fill="#8aa2c6"/></g><g fill="#8aa2c6"><path d="M143.72633,360.09729v-53.54671h7.09228v53.54671z"/><path d="M189.47154,359.74268v-54.61056h7.09228v54.61056z"/><path d="M189.15014,356.81208l-43.37974,-43.37974l5.015,-5.015l43.37974,43.37974z"/><path d="M194.16514,313.43234l-43.37975,43.37974l-5.01499,-5.015l43.37974,-43.37974z"/><path d="M144.43557,352.29578h52.12825v7.80151h-52.12825z"/><path d="M143.72633,303.71367h52.83748v7.80151h-52.83748z"/></g><g><path d="M190.24481,311.63853v-53.54671h7.09228v53.54671z" fill="#8aa2c6"/><path d="M235.99001,311.28392v-54.61055h7.09228v54.61055z" fill="#8aa2c6"/><path d="M235.66861,308.35332l-43.37974,-43.37974l5.015,-5.015l43.37974,43.37974z" fill="#8aa2c6"/><path d="M240.6836,264.97358l-43.37974,43.37974l-5.01499,-5.015l43.37974,-43.37974z" fill="#8aa2c6"/><path d="M244.14614,260.21951h-54.61055v-7.09228h54.61055z" fill="#c65757"/><path d="M190.95404,303.83702h52.12825v7.80151h-52.12825z" fill="#8aa2c6"/></g><g fill="#8aa2c6"><path d="M190.61171,360.76473v-53.54671h7.09228v53.54671z"/><path d="M236.35691,360.41012v-54.61056h7.09228v54.61056z"/><path d="M236.03551,357.47952l-43.37974,-43.37974l5.015,-5.015l43.37974,43.37974z"/><path d="M241.05051,314.09978l-43.37975,43.37974l-5.01499,-5.015l43.37974,-43.37974z"/><path d="M191.32094,352.96322h52.12825v7.80151h-52.12825z"/><path d="M190.61171,304.38111h52.83748v7.80151h-52.83748z"/></g><g><path d="M237.87618,311.72947v-53.54671h7.09228v53.54671z" fill="#8aa2c6"/><path d="M283.62137,311.37486v-54.61055h7.09228v54.61055z" fill="#8aa2c6"/><path d="M283.29998,308.44426l-43.37974,-43.37974l5.015,-5.015l43.37974,43.37974z" fill="#8aa2c6"/><path d="M288.31496,265.06451l-43.37974,43.37974l-5.01499,-5.015l43.37974,-43.37974z" fill="#8aa2c6"/><path d="M291.77751,260.31045h-54.61055v-7.09228h54.61055z" fill="#c65757"/><path d="M238.58541,303.92796h52.12825v7.80151h-52.12825z" fill="#8aa2c6"/></g><g fill="#8aa2c6"><path d="M237.72633,360.59729v-53.54671h7.09228v53.54671z"/><path d="M283.47154,360.24268v-54.61056h7.09228v54.61056z"/><path d="M283.15013,357.31208l-43.37974,-43.37974l5.015,-5.015l43.37974,43.37974z"/><path d="M288.16514,313.93234l-43.37975,43.37974l-5.01499,-5.015l43.37974,-43.37974z"/><path d="M238.43557,352.79578h52.12825v7.80151h-52.12825z"/><path d="M237.72633,304.21367h52.83748v7.80151h-52.83748z"/></g><g><path d="M286.24481,311.63853v-53.54671h7.09228v53.54671z" fill="#8aa2c6"/><path d="M331.99001,311.28392v-54.61055h7.09228v54.61055z" fill="#8aa2c6"/><path d="M331.66861,308.35332l-43.37974,-43.37974l5.015,-5.015l43.37974,43.37974z" fill="#8aa2c6"/><path d="M336.68361,264.97358l-43.37974,43.37974l-5.01499,-5.015l43.37974,-43.37974z" fill="#8aa2c6"/><path d="M340.14614,260.21951h-54.61055v-7.09228h54.61055z" fill="#c65757"/><path d="M286.95403,303.83702h52.12825v7.80151h-52.12825z" fill="#8aa2c6"/></g><g fill="#8aa2c6"><path d="M286.6117,360.76473v-53.54671h7.09228v53.54671z"/><path d="M332.35691,360.41012v-54.61056h7.09228v54.61056z"/><path d="M332.03551,357.47952l-43.37974,-43.37974l5.015,-5.015l43.37974,43.37974z"/><path d="M337.05051,314.09978l-43.37975,43.37974l-5.01499,-5.015l43.37974,-43.37974z"/><path d="M287.32094,352.96322h52.12825v7.80151h-52.12825z"/><path d="M286.6117,304.38111h52.83748v7.80151h-52.83748z"/></g><g><path d="M333.87618,311.72947v-53.54671h7.09228v53.54671z" fill="#8aa2c6"/><path d="M379.62138,311.37486v-54.61055h7.09228v54.61055z" fill="#8aa2c6"/><path d="M379.29998,308.44426l-43.37974,-43.37974l5.015,-5.015l43.37974,43.37974z" fill="#8aa2c6"/><path d="M384.31498,265.06451l-43.37974,43.37974l-5.01499,-5.015l43.37974,-43.37974z" fill="#8aa2c6"/><path d="M387.77751,260.31045h-54.61055v-7.09228h54.61055z" fill="#c65757"/><path d="M334.5854,303.92796h52.12825v7.80151h-52.12825z" fill="#8aa2c6"/></g><g fill="#8aa2c6"><path d="M333.72632,360.59729v-53.54671h7.09228v53.54671z"/><path d="M379.47154,360.24268v-54.61056h7.09228v54.61056z"/><path d="M379.15014,357.31208l-43.37974,-43.37974l5.015,-5.015l43.37974,43.37974z"/><path d="M384.16514,313.93234l-43.37975,43.37974l-5.01499,-5.015l43.37974,-43.37974z"/><path d="M334.43557,352.79578h52.12825v7.80151h-52.12825z"/><path d="M333.72632,304.21367h52.83748v7.80151h-52.83748z"/></g><g><path d="M381.24481,311.63853v-53.54671h7.09228v53.54671z" fill="#8aa2c6"/><path d="M426.99001,311.28392v-54.61055h7.09228v54.61055z" fill="#8aa2c6"/><path d="M426.66861,308.35332l-43.37974,-43.37974l5.015,-5.015l43.37974,43.37974z" fill="#8aa2c6"/><path d="M431.68361,264.97358l-43.37974,43.37974l-5.01499,-5.015l43.37974,-43.37974z" fill="#8aa2c6"/><path d="M435.14614,260.21951h-54.61055v-7.09228h54.61055z" fill="#c65757"/><path d="M381.95404,303.83702h52.12825v7.80151h-52.12825z" fill="#8aa2c6"/></g><g fill="#8aa2c6"><path d="M381.61171,360.76473v-53.54671h7.09228v53.54671z"/><path d="M427.35691,360.41012v-54.61056h7.09228v54.61056z"/><path d="M427.03551,357.47952l-43.37974,-43.37974l5.015,-5.015l43.37974,43.37974z"/><path d="M432.05051,314.09978l-43.37975,43.37974l-5.01499,-5.015l43.37974,-43.37974z"/><path d="M382.32094,352.96322h52.12825v7.80151h-52.12825z"/><path d="M381.61171,304.38111h52.83748v7.80151h-52.83748z"/></g><g><path d="M428.87618,311.72947v-53.54671h7.09228v53.54671z" fill="#8aa2c6"/><path d="M474.62138,311.37486v-54.61055h7.09228v54.61055z" fill="#8aa2c6"/><path d="M474.29998,308.44426l-43.37974,-43.37974l5.015,-5.015l43.37974,43.37974z" fill="#8aa2c6"/><path d="M479.31498,265.06451l-43.37974,43.37974l-5.01499,-5.015l43.37974,-43.37974z" fill="#8aa2c6"/><path d="M482.77751,260.31045h-54.61055v-7.09228h54.61055z" fill="#c65757"/><path d="M429.58541,303.92796h52.12825v7.80151h-52.12825z" fill="#8aa2c6"/></g><g fill="#8aa2c6"><path d="M428.72634,360.59729v-53.54671h7.09228v53.54671z"/><path d="M474.47154,360.24268v-54.61056h7.09228v54.61056z"/><path d="M474.15014,357.31208l-43.37974,-43.37974l5.015,-5.015l43.37974,43.37974z"/><path d="M479.16514,313.93234l-43.37975,43.37974l-5.01499,-5.015l43.37974,-43.37974z"/><path d="M429.43557,352.79578h52.12825v7.80151h-52.12825z"/><path d="M428.72634,304.21367h52.83748v7.80151h-52.83748z"/></g></g></g></svg>