<svg version="1.1" xmlns="http://www.w3.org/2000/svg" xmlns:xlink="http://www.w3.org/1999/xlink" width="91.18357" height="76.52619" viewBox="0,0,91.18357,76.52619"><defs><radialGradient cx="267.6867" cy="193.49119" r="7.59091" gradientUnits="userSpaceOnUse" id="color-1"><stop offset="0" stop-color="#fff696"/><stop offset="1" stop-color="#ffde00"/></radialGradient></defs><g transform="translate(-191.65826,-132.32855)"><g data-paper-data="{&quot;isPaintingLayer&quot;:true}" fill-rule="nonzero" stroke-linejoin="miter" stroke-miterlimit="10" stroke-dasharray="" stroke-dashoffset="0" style="mix-blend-mode: normal"><path d="M207.50569,184.8095c8.75229,0 15.84743,2.05313 15.84743,4.58579c0,2.53266 -7.09514,4.58579 -15.84743,4.58579c-8.75229,0 -15.84743,-4.58579 -15.84743,-4.58579c0,0 6.82527,-4.58579 15.84743,-4.58579z" fill="#ff6900" stroke="none" stroke-width="0" stroke-linecap="butt"/><path d="M272.15824,174.47984c0,12.33504 -9.9378,22.33456 -22.19669,22.33456c-12.25889,0 -22.19669,-9.99952 -22.19669,-22.33456c0,-12.33504 9.9378,-22.33456 22.19669,-22.33456c12.25889,0 22.19669,9.99952 22.19669,22.33456z" fill="#ff001e" stroke="#9e0000" stroke-width="2" stroke-linecap="butt"/><path d="M253.95973,169.24087c0,4.41625 -0.4938,7.99632 -1.10294,7.99632c-0.60914,0 -1.10294,-3.58008 -1.10294,-7.99632c0,-4.41625 0.4938,-7.99632 1.10294,-7.99632c0.60914,0 1.10294,3.58008 1.10294,7.99632z" fill="#000000" stroke="#000000" stroke-width="2" stroke-linecap="butt"/><g stroke-width="2"><path d="M263.59468,183.08144c1.14067,1.22267 3.12889,8.79704 -0.03688,9.69747c-2.02907,0.57712 -6.54273,-2.01929 -9.22209,-2.01929c-2.84806,0 -9.27987,2.52292 -11.70829,0.86729c-3.42057,-2.33204 -2.23163,-9.17668 -0.93811,-10.12626c4.96823,-3.64719 5.78671,-0.67748 12.6464,-0.67748c6.8597,0 5.64571,-1.61474 9.25897,2.25828z" fill="#ffffff" stroke="#969696" stroke-linecap="butt"/><path d="M240.78599,186.24304l23.26035,-0.67749" fill="none" stroke="#8a7b6c" stroke-linecap="round"/><path d="M249.14165,180.82316l-0.45166,10.61394" fill="none" stroke="#969696" stroke-linecap="round"/><path d="M257.72313,181.27481l0.22583,8.80731" fill="none" stroke="#969696" stroke-linecap="round"/></g><path d="M257.26851,169.24087c0,-4.26396 0.43208,-7.72059 0.96507,-7.72059c0.533,0 0.96507,3.45663 0.96507,7.72059c0,4.26396 -0.43208,7.72059 -0.96507,7.72059c-0.533,0 -0.96507,-3.45663 -0.96507,-7.72059z" fill="#000000" stroke="#000000" stroke-width="2" stroke-linecap="butt"/><path d="M263.76331,157.52822c0,0 -2.32084,1.28448 -3.75427,4.01673c-1.50608,2.87072 -0.2368,7.66014 -2.91067,8.12094c-0.98947,0.17053 -1.58506,-2.3847 -1.58506,-2.3847c0,0 -0.15641,2.02955 -1.07008,2.19099c-3.00716,0.53139 -3.79852,-6.87828 -5.78582,-9.53911c-2.32933,-3.11881 -3.64409,-2.81121 -3.64409,-2.81121" fill="#ff001e" stroke="#9e0000" stroke-width="2" stroke-linecap="round"/><path d="M218.51574,155.57604c-0.7732,1.03093 -3.07147,0.61306 -5.13333,-0.93333c-2.06187,-1.54639 -3.10654,-3.63573 -2.33334,-4.66666c0.7732,-1.03093 3.07147,-0.61306 5.13333,0.93333c2.06187,1.54639 3.10654,3.63573 2.33334,4.66666z" fill="#00e6ff" stroke="#00519e" stroke-width="2" stroke-linecap="butt"/><path d="M232.10472,141.22354c-1.09007,0.68731 -3.08811,-0.52286 -4.46274,-2.703c-1.37463,-2.18014 -1.6053,-4.50468 -0.51523,-5.19199c1.09007,-0.68731 3.08811,0.52287 4.46274,2.70301c1.37463,2.18014 1.6053,4.50467 0.51523,5.19198z" fill="#00e6ff" stroke="#00519e" stroke-width="2" stroke-linecap="butt"/><path d="M248.72076,207.8438c-49.83273,-0.5422 -34.46691,-37.77574 -34.46691,-37.77574c0,0 16.32668,13.37259 42.72019,13.7688c24.91207,0.37397 19.32025,-15.14748 19.32025,-15.14748c0,0 23.91818,39.71466 -27.57353,39.15441z" fill="#475875" stroke="#232c43" stroke-width="2" stroke-linecap="butt"/><path d="M260.09578,193.49119c0,-4.19234 3.39857,-7.59091 7.59091,-7.59091c4.19234,0 7.59091,3.39857 7.59091,7.59091c0,4.19234 -3.39857,7.59091 -7.59091,7.59091c-4.19234,0 -7.59091,-3.39857 -7.59091,-7.59091z" fill="url(#color-1)" stroke="#ff9400" stroke-width="2" stroke-linecap="butt"/><path d="M215.82304,182.80938l1,-4.63636c0,0 5.00248,2.94815 8.36089,4.0087c3.54101,1.11821 12.36638,2.53675 12.36638,2.53675l3.80295,4.84794l-5.3484,3.06115c0,0 -8.57406,-2.99038 -11.96213,-4.62977c-3.17365,-1.53564 -8.21968,-5.18841 -8.21968,-5.18841z" fill="#ff0000" stroke="#9e0000" stroke-width="2" stroke-linecap="butt"/></g></g></svg>